G04 #@! TF.FileFunction,Copper,L1,Top,Signal*
%FSLAX46Y46*%
G04 Gerber Fmt 4.6, Leading zero omitted, Abs format (unit mm)*
G04 Created by KiCad (PCBNEW 4.0.7-e2-6376~58~ubuntu16.04.1) date Fri Apr  6 20:48:23 2018*
%MOMM*%
%LPD*%
G01*
G04 APERTURE LIST*
%ADD10C,0.100000*%
%ADD11C,0.010000*%
G04 APERTURE END LIST*
D10*
D11*
G36*
X7333116Y13567854D02*
X7321399Y12192000D01*
X7620000Y12192000D01*
X7620000Y14943667D01*
X8339667Y14943667D01*
X8339667Y12192000D01*
X8638267Y12192000D01*
X8626550Y13567854D01*
X8614833Y14943709D01*
X9355667Y14943667D01*
X9355667Y12192000D01*
X9609667Y12192000D01*
X9609667Y14943667D01*
X10329333Y14943667D01*
X10329333Y11260667D01*
X10625667Y11260667D01*
X10625667Y14943667D01*
X11345333Y14943667D01*
X11345333Y12192000D01*
X11599333Y12192000D01*
X11599333Y14943667D01*
X12340167Y14943709D01*
X12328450Y13567854D01*
X12316733Y12192000D01*
X12615333Y12192000D01*
X12615333Y14943667D01*
X13335000Y14943667D01*
X13335000Y12192000D01*
X13633600Y12192000D01*
X13621883Y13567854D01*
X13610167Y14943709D01*
X14329833Y14943709D01*
X14318116Y13567854D01*
X14306399Y12192000D01*
X14605000Y12192000D01*
X14605000Y14943667D01*
X15324667Y14943667D01*
X15324667Y11853333D01*
X15623048Y11853333D01*
X15611441Y13398517D01*
X15599833Y14943701D01*
X16340667Y14943667D01*
X16340667Y12192000D01*
X16594667Y12192000D01*
X16594667Y14943667D01*
X17314333Y14943667D01*
X17314333Y12192000D01*
X17610667Y12192000D01*
X17610667Y14943667D01*
X18330333Y14943667D01*
X18330333Y12192000D01*
X18584333Y12192000D01*
X18584333Y14943667D01*
X19325167Y14943709D01*
X19313450Y13567854D01*
X19301733Y12192000D01*
X19600333Y12192000D01*
X19600333Y14943667D01*
X20320000Y14943667D01*
X20320000Y11255302D01*
X20457583Y11268568D01*
X20595167Y11281833D01*
X20595167Y14943680D01*
X20955000Y14943694D01*
X21314833Y14943709D01*
X21303116Y13567854D01*
X21291399Y12192000D01*
X21590000Y12192000D01*
X21590000Y14943667D01*
X22309667Y14943667D01*
X22309667Y12192000D01*
X22608267Y12192000D01*
X22596550Y13567854D01*
X22584833Y14943709D01*
X23325667Y14943667D01*
X23325667Y12192000D01*
X23579667Y12192000D01*
X23579667Y14943667D01*
X23950083Y14943688D01*
X24320500Y14943709D01*
X24308783Y13567854D01*
X24297066Y12192000D01*
X24595667Y12192000D01*
X24595667Y14943667D01*
X25315333Y14943667D01*
X25315333Y11853333D01*
X25569333Y11853333D01*
X25569333Y14943667D01*
X26310167Y14943709D01*
X26298450Y13567854D01*
X26286733Y12192000D01*
X26585333Y12192000D01*
X26585333Y14943667D01*
X27305000Y14943667D01*
X27305000Y12192000D01*
X27603600Y12192000D01*
X27591883Y13567854D01*
X27580167Y14943709D01*
X27950583Y14943688D01*
X28321000Y14943667D01*
X28321000Y12192000D01*
X28575000Y12192000D01*
X28575000Y14943667D01*
X29294667Y14943667D01*
X29294667Y12192000D01*
X29593267Y12192000D01*
X29581550Y13567854D01*
X29569833Y14943709D01*
X30310667Y14943667D01*
X30310667Y11260667D01*
X30564667Y11260667D01*
X30564667Y14943667D01*
X30935083Y14943688D01*
X31305500Y14943709D01*
X31293783Y13567854D01*
X31282066Y12192000D01*
X31580667Y12192000D01*
X31580667Y14943667D01*
X32300333Y14943667D01*
X32300333Y12192000D01*
X32554333Y12192000D01*
X32554333Y14943667D01*
X33295167Y14943709D01*
X33283450Y13567854D01*
X33271733Y12192000D01*
X33570333Y12192000D01*
X33570333Y14943667D01*
X34290000Y14943667D01*
X34290000Y12192000D01*
X34588600Y12192000D01*
X34576883Y13567854D01*
X34565167Y14943709D01*
X34935583Y14943688D01*
X35306000Y14943667D01*
X35306000Y11853333D01*
X35560000Y11853333D01*
X35560000Y14943667D01*
X36279667Y14943667D01*
X36279667Y12192000D01*
X36576000Y12192000D01*
X36576000Y14943667D01*
X37295667Y14943667D01*
X37295667Y12192000D01*
X37549667Y12192000D01*
X37549667Y14943667D01*
X37920083Y14943688D01*
X38290500Y14943709D01*
X38278783Y13567854D01*
X38267066Y12192000D01*
X38565667Y12192000D01*
X38565667Y14943667D01*
X39285333Y14943667D01*
X39285333Y12192000D01*
X39583934Y12192000D01*
X39572217Y13567854D01*
X39560500Y14943709D01*
X39920333Y14943694D01*
X40280167Y14943680D01*
X40280167Y11281833D01*
X40417750Y11268568D01*
X40555333Y11255302D01*
X40555333Y14943667D01*
X41275000Y14943667D01*
X41275000Y12192000D01*
X41573600Y12192000D01*
X41561883Y13567854D01*
X41550167Y14943709D01*
X41920583Y14943688D01*
X42291000Y14943667D01*
X42291000Y12192000D01*
X42545000Y12192000D01*
X42545000Y14943667D01*
X43264667Y14943667D01*
X43264667Y12192000D01*
X43561000Y12192000D01*
X43561000Y14943667D01*
X44280667Y14943667D01*
X44280667Y12192000D01*
X44534667Y12192000D01*
X44534667Y14943667D01*
X44905083Y14943684D01*
X45275500Y14943701D01*
X45263892Y13398517D01*
X45252285Y11853333D01*
X45550667Y11853333D01*
X45550667Y14943667D01*
X46270333Y14943667D01*
X46270333Y12192000D01*
X46568934Y12192000D01*
X46557217Y13567854D01*
X46545500Y14943709D01*
X47265167Y14943709D01*
X47253450Y13567854D01*
X47241733Y12192000D01*
X47540333Y12192000D01*
X47540333Y14943667D01*
X48260000Y14943667D01*
X48260000Y12192000D01*
X48558600Y12192000D01*
X48546883Y13567854D01*
X48535167Y14943709D01*
X48905583Y14943688D01*
X49276000Y14943667D01*
X49276000Y12192000D01*
X49530000Y12192000D01*
X49530000Y14943667D01*
X50249667Y14943667D01*
X50249667Y11260667D01*
X50546000Y11260667D01*
X50546000Y14943667D01*
X51265667Y14943667D01*
X51265667Y12192000D01*
X51519667Y12192000D01*
X51519667Y14943667D01*
X51890083Y14943688D01*
X52260500Y14943709D01*
X52248783Y13567854D01*
X52237066Y12192000D01*
X52535667Y12192000D01*
X52535667Y14943667D01*
X53255333Y14943667D01*
X53255333Y12192000D01*
X53553934Y12192000D01*
X53542217Y13567854D01*
X53530500Y14943709D01*
X53900917Y14943688D01*
X54271333Y14943667D01*
X54271333Y12192000D01*
X54525333Y12192000D01*
X54525333Y14943667D01*
X55245000Y14943667D01*
X55245000Y11853333D01*
X55543381Y11853333D01*
X55520167Y14943701D01*
X55890583Y14943684D01*
X56261000Y14943667D01*
X56261000Y12192000D01*
X56515000Y12192000D01*
X56515000Y14943667D01*
X56885417Y14943688D01*
X57255833Y14943709D01*
X57244116Y13567854D01*
X57232399Y12192000D01*
X57531000Y12192000D01*
X57531000Y14943667D01*
X58250667Y14943667D01*
X58250667Y12192000D01*
X58504667Y12192000D01*
X58504667Y14943667D01*
X58875083Y14943688D01*
X59245500Y14943709D01*
X59233783Y13567854D01*
X59222066Y12192000D01*
X59520667Y12192000D01*
X59520667Y14943667D01*
X60240333Y14943667D01*
X60240333Y11255302D01*
X60377917Y11268568D01*
X60515500Y11281833D01*
X60515500Y14943680D01*
X60885917Y14943673D01*
X61256333Y14943667D01*
X61256333Y12192000D01*
X61510333Y12192000D01*
X61510333Y14943667D01*
X62230000Y14943667D01*
X62230000Y12192000D01*
X62528600Y12192000D01*
X62516883Y13567854D01*
X62505167Y14943709D01*
X62875583Y14943688D01*
X63246000Y14943667D01*
X63246000Y12192000D01*
X63500000Y12192000D01*
X63500000Y14943667D01*
X63870417Y14943688D01*
X64240833Y14943709D01*
X64229116Y13567854D01*
X64217399Y12192000D01*
X64516000Y12192000D01*
X64516000Y14943667D01*
X65235667Y14943667D01*
X65235667Y11853333D01*
X65534048Y11853333D01*
X65522441Y13398517D01*
X65510833Y14943701D01*
X65870667Y14943705D01*
X66230500Y14943709D01*
X66218783Y13567854D01*
X66207066Y12192000D01*
X66505667Y12192000D01*
X66505667Y14943667D01*
X67225333Y14943667D01*
X67225333Y12192000D01*
X67523934Y12192000D01*
X67512217Y13567854D01*
X67500500Y14943709D01*
X67870917Y14943688D01*
X68241333Y14943667D01*
X68241333Y12192000D01*
X68495333Y12192000D01*
X68495333Y14943667D01*
X69215000Y14943667D01*
X69215000Y12192000D01*
X69511333Y12192000D01*
X69511333Y14943667D01*
X70231000Y14943667D01*
X70231000Y11260667D01*
X70485000Y11260667D01*
X70485000Y14943667D01*
X70855417Y14943688D01*
X71225833Y14943709D01*
X71214116Y13567854D01*
X71202399Y12192000D01*
X71501000Y12192000D01*
X71501000Y14943667D01*
X72220667Y14943667D01*
X72220667Y12192000D01*
X72519267Y12192000D01*
X72507550Y13567854D01*
X72495833Y14943709D01*
X73215500Y14943709D01*
X73203783Y13567854D01*
X73192066Y12192000D01*
X73490667Y12192000D01*
X73490667Y14943667D01*
X74210333Y14943667D01*
X74210333Y12192000D01*
X74508934Y12192000D01*
X74497217Y13567854D01*
X74485500Y14943709D01*
X74855917Y14943688D01*
X75226333Y14943667D01*
X75226333Y11853333D01*
X75480333Y11853333D01*
X75480333Y14943667D01*
X76200000Y14943667D01*
X76200000Y12192000D01*
X76496333Y12192000D01*
X76496333Y14943667D01*
X77216000Y14943667D01*
X77216000Y12192000D01*
X77470000Y12192000D01*
X77470000Y14943667D01*
X77840417Y14943688D01*
X78210833Y14943709D01*
X78199116Y13567854D01*
X78187399Y12192000D01*
X78486000Y12192000D01*
X78486000Y14943667D01*
X79205667Y14943667D01*
X79205667Y12192000D01*
X79504267Y12192000D01*
X79492550Y13567854D01*
X79480833Y14943709D01*
X79840667Y14943694D01*
X80200500Y14943680D01*
X80200500Y11281833D01*
X80338083Y11268568D01*
X80475667Y11255302D01*
X80475667Y14943667D01*
X81788000Y14943667D01*
X81788000Y8847667D01*
X80602667Y8847667D01*
X80602667Y211667D01*
X80602874Y-944696D01*
X80603495Y-2018688D01*
X80604530Y-3010136D01*
X80605978Y-3918869D01*
X80607837Y-4744715D01*
X80610107Y-5487502D01*
X80612787Y-6147058D01*
X80615876Y-6723213D01*
X80619373Y-7215793D01*
X80623278Y-7624627D01*
X80627589Y-7949543D01*
X80632306Y-8190369D01*
X80637428Y-8346934D01*
X80642954Y-8419066D01*
X80645000Y-8424333D01*
X80659551Y-8466003D01*
X80671219Y-8588442D01*
X80679844Y-8787800D01*
X80685265Y-9060222D01*
X80687319Y-9401857D01*
X80687333Y-9435804D01*
X80686749Y-9758142D01*
X80684568Y-10005736D01*
X80680152Y-10188502D01*
X80672859Y-10316356D01*
X80662049Y-10399215D01*
X80647082Y-10446995D01*
X80627319Y-10469614D01*
X80620371Y-10472971D01*
X80560282Y-10479865D01*
X80428406Y-10485147D01*
X80237611Y-10488630D01*
X80000765Y-10490129D01*
X79730736Y-10489458D01*
X79572621Y-10488095D01*
X79497261Y-10487732D01*
X79338610Y-10487360D01*
X79098042Y-10486979D01*
X78776933Y-10486590D01*
X78376657Y-10486193D01*
X77898590Y-10485789D01*
X77344107Y-10485377D01*
X76714583Y-10484959D01*
X76011393Y-10484535D01*
X75235912Y-10484104D01*
X74389515Y-10483668D01*
X73473577Y-10483227D01*
X72489474Y-10482781D01*
X71438580Y-10482331D01*
X70322271Y-10481876D01*
X69141921Y-10481418D01*
X67898906Y-10480957D01*
X66594600Y-10480493D01*
X65230379Y-10480026D01*
X63807619Y-10479558D01*
X62327693Y-10479087D01*
X60791977Y-10478616D01*
X59201846Y-10478143D01*
X57558676Y-10477670D01*
X55863841Y-10477197D01*
X54118716Y-10476724D01*
X52324677Y-10476251D01*
X50483098Y-10475780D01*
X48595355Y-10475310D01*
X46662823Y-10474842D01*
X44686876Y-10474375D01*
X42668891Y-10473912D01*
X40610241Y-10473451D01*
X38512302Y-10472994D01*
X36376450Y-10472540D01*
X34204058Y-10472091D01*
X31996503Y-10471646D01*
X29755160Y-10471206D01*
X27481402Y-10470771D01*
X25176607Y-10470342D01*
X22842148Y-10469918D01*
X20479400Y-10469502D01*
X18089740Y-10469092D01*
X15674541Y-10468689D01*
X13235179Y-10468293D01*
X10773030Y-10467906D01*
X8289467Y-10467527D01*
X5785866Y-10467157D01*
X4116917Y-10466917D01*
X-70358000Y-10456309D01*
X-70358000Y-9443849D01*
X-70356488Y-9160210D01*
X-70352239Y-8906064D01*
X-70345690Y-8693218D01*
X-70337275Y-8533475D01*
X-70327428Y-8438640D01*
X-70320207Y-8417278D01*
X-70316042Y-8373973D01*
X-70311733Y-8249323D01*
X-70307310Y-8046652D01*
X-70302797Y-7769280D01*
X-70298221Y-7420531D01*
X-70293609Y-7003727D01*
X-70288988Y-6522190D01*
X-70284384Y-5979241D01*
X-70279823Y-5378204D01*
X-70275333Y-4722400D01*
X-70270938Y-4015151D01*
X-70266668Y-3259781D01*
X-70262546Y-2459611D01*
X-70258601Y-1617963D01*
X-70254859Y-738159D01*
X-70251346Y176478D01*
X-70251180Y222250D01*
X-70219946Y8847667D01*
X-68241333Y8847667D01*
X-68241318Y6529917D01*
X-68241114Y6207667D01*
X-68240524Y5807954D01*
X-68239569Y5337983D01*
X-68238275Y4804957D01*
X-68236663Y4216080D01*
X-68234758Y3578554D01*
X-68232584Y2899584D01*
X-68230163Y2186374D01*
X-68227520Y1446126D01*
X-68224677Y686044D01*
X-68221658Y-86667D01*
X-68218487Y-864806D01*
X-68215188Y-1641167D01*
X-68213143Y-2106083D01*
X-68184983Y-8424333D01*
X78570667Y-8424333D01*
X78570667Y8847667D01*
X-68241333Y8847667D01*
X-70219946Y8847667D01*
X-70400333Y8847667D01*
X-70400333Y10117667D01*
X-68971368Y10117667D01*
X-68957986Y9885101D01*
X-68915393Y9713544D01*
X-68837129Y9582455D01*
X-68786278Y9529065D01*
X-68655529Y9459067D01*
X-68493972Y9442656D01*
X-68337485Y9481253D01*
X-68288614Y9509366D01*
X-68182074Y9630862D01*
X-68109097Y9809158D01*
X-68072369Y10022218D01*
X-68074581Y10248006D01*
X-68118417Y10464485D01*
X-68159497Y10568013D01*
X-68217703Y10656922D01*
X-59732333Y10656922D01*
X-59720731Y10601910D01*
X-59670179Y10586436D01*
X-59584167Y10596300D01*
X-59436000Y10620344D01*
X-59436000Y9609667D01*
X-59584167Y9609667D01*
X-59694728Y9594760D01*
X-59732333Y9553222D01*
X-59722280Y9499257D01*
X-59682288Y9465803D01*
X-59597610Y9449223D01*
X-59453500Y9445879D01*
X-59311481Y9449394D01*
X-59132090Y9457923D01*
X-59020943Y9471349D01*
X-58961626Y9493439D01*
X-58937725Y9527961D01*
X-58935956Y9535583D01*
X-58943165Y9586016D01*
X-59003687Y9606972D01*
X-59073063Y9609667D01*
X-59224333Y9609667D01*
X-59224333Y10202333D01*
X-59224049Y10444631D01*
X-59227963Y10613894D01*
X-59230599Y10632518D01*
X-49784000Y10632518D01*
X-49778042Y10586000D01*
X-49746064Y10573082D01*
X-49666917Y10591696D01*
X-49596850Y10614219D01*
X-49412196Y10648541D01*
X-49272622Y10618416D01*
X-49184652Y10526688D01*
X-49156755Y10422334D01*
X-49156928Y10353539D01*
X-49178568Y10286700D01*
X-49231724Y10206483D01*
X-49326442Y10097554D01*
X-49463672Y9953922D01*
X-49621125Y9783091D01*
X-49728896Y9646500D01*
X-49780443Y9552757D01*
X-49784000Y9532544D01*
X-49779654Y9490782D01*
X-49756375Y9464006D01*
X-49698802Y9448894D01*
X-49591575Y9442124D01*
X-49419333Y9440376D01*
X-49357563Y9440333D01*
X-49163785Y9441696D01*
X-49040189Y9447515D01*
X-48972312Y9460391D01*
X-48945690Y9482920D01*
X-48945202Y9514417D01*
X-48970398Y9556879D01*
X-49011431Y9573714D01*
X-39835667Y9573714D01*
X-39812241Y9494619D01*
X-39782750Y9468370D01*
X-39670115Y9447013D01*
X-39511904Y9444223D01*
X-39344646Y9457897D01*
X-39204870Y9485932D01*
X-39157304Y9504366D01*
X-39046806Y9602908D01*
X-38985835Y9741703D01*
X-38979023Y9864018D01*
X-29929667Y9864018D01*
X-29921759Y9819348D01*
X-29885956Y9793757D01*
X-29804144Y9782049D01*
X-29658205Y9779026D01*
X-29633333Y9779000D01*
X-29337000Y9779000D01*
X-29337000Y9637889D01*
X-29324686Y9510772D01*
X-29282222Y9452980D01*
X-29212064Y9449805D01*
X-29159385Y9501361D01*
X-29145186Y9566423D01*
X-19896667Y9566423D01*
X-19859071Y9501881D01*
X-19760385Y9459746D01*
X-19621759Y9442305D01*
X-19464344Y9451846D01*
X-19309292Y9490657D01*
X-19284881Y9500250D01*
X-19151095Y9582251D01*
X-19076498Y9701076D01*
X-19050394Y9875219D01*
X-19050000Y9906474D01*
X-19085637Y10090993D01*
X-19112176Y10126890D01*
X-9948175Y10126890D01*
X-9924327Y9852958D01*
X-9852320Y9648556D01*
X-9732010Y9513478D01*
X-9563257Y9447520D01*
X-9469991Y9440333D01*
X-9328038Y9461837D01*
X-9209131Y9539115D01*
X-9183077Y9564077D01*
X-9103177Y9660530D01*
X-9067538Y9762927D01*
X-9060680Y9892160D01*
X-9071781Y10027716D01*
X-9098298Y10134660D01*
X-9113597Y10163669D01*
X-9245728Y10273329D01*
X-9411534Y10323800D01*
X-9582249Y10310350D01*
X-9691626Y10258732D01*
X-9792424Y10188130D01*
X-9764591Y10332815D01*
X-9712040Y10463486D01*
X-9624296Y10576352D01*
X-9623072Y10577434D01*
X-9531767Y10641629D01*
X-9434673Y10661282D01*
X-9326694Y10652327D01*
X-9212489Y10641106D01*
X-9159077Y10653867D01*
X-9144278Y10697752D01*
X-9144000Y10711143D01*
X-9144415Y10712114D01*
X42333Y10712114D01*
X51288Y10668951D01*
X89812Y10642443D01*
X175399Y10627256D01*
X325538Y10618057D01*
X354688Y10616864D01*
X667042Y10604500D01*
X460634Y10075333D01*
X384272Y9875811D01*
X320656Y9702444D01*
X275580Y9571560D01*
X254836Y9499486D01*
X254113Y9493250D01*
X288955Y9448919D01*
X330678Y9440333D01*
X367641Y9457761D01*
X411740Y9516364D01*
X467766Y9625627D01*
X534158Y9780248D01*
X9987969Y9780248D01*
X10035840Y9623580D01*
X10099450Y9539368D01*
X10169435Y9478694D01*
X10242010Y9448875D01*
X10346677Y9442646D01*
X10465580Y9449199D01*
X10626132Y9468039D01*
X10727961Y9501742D01*
X10796796Y9559151D01*
X10801296Y9564597D01*
X10870080Y9709318D01*
X10875321Y9872276D01*
X10818804Y10021405D01*
X10772818Y10076287D01*
X10706005Y10146961D01*
X10699326Y10187827D01*
X10732832Y10214083D01*
X10814440Y10302734D01*
X10846681Y10430121D01*
X10845306Y10443919D01*
X19953386Y10443919D01*
X19956678Y10261024D01*
X20019157Y10104689D01*
X20126070Y9986308D01*
X20262664Y9917274D01*
X20414187Y9908980D01*
X20564580Y9971901D01*
X20632411Y10013198D01*
X20656022Y9994246D01*
X20658667Y9935276D01*
X20622974Y9805496D01*
X20533825Y9683308D01*
X20418110Y9602999D01*
X20391164Y9594207D01*
X20278797Y9588020D01*
X20157661Y9607661D01*
X20065749Y9627495D01*
X20029075Y9609286D01*
X20023667Y9567906D01*
X20048716Y9491414D01*
X20076583Y9468370D01*
X20204504Y9445089D01*
X20366774Y9450646D01*
X20519370Y9481851D01*
X20575386Y9504550D01*
X20711910Y9612994D01*
X20799824Y9776128D01*
X20842559Y10001934D01*
X20848049Y10138833D01*
X20826388Y10401021D01*
X20757936Y10595172D01*
X20701502Y10657750D01*
X29379333Y10657750D01*
X29390456Y10603668D01*
X29439540Y10589408D01*
X29527500Y10601707D01*
X29675667Y10629503D01*
X29675667Y9609667D01*
X29527500Y9609667D01*
X29425380Y9600196D01*
X29384176Y9563222D01*
X29379333Y9525000D01*
X29385699Y9484774D01*
X29415541Y9459778D01*
X29484973Y9446432D01*
X29610109Y9441153D01*
X29760333Y9440333D01*
X29941351Y9441748D01*
X30053832Y9448380D01*
X30113891Y9463809D01*
X30137644Y9491617D01*
X30141333Y9525000D01*
X30124759Y9583354D01*
X30060055Y9606899D01*
X29993167Y9609667D01*
X29845000Y9609667D01*
X29845000Y10164727D01*
X30457487Y10164727D01*
X30473221Y9932375D01*
X30527437Y9722602D01*
X30618143Y9561535D01*
X30628984Y9549285D01*
X30759599Y9465234D01*
X30922402Y9438817D01*
X31085376Y9472478D01*
X31152386Y9509366D01*
X31269238Y9641803D01*
X31342215Y9841324D01*
X31368921Y10101204D01*
X31369000Y10117667D01*
X31344857Y10380527D01*
X31274793Y10584888D01*
X31215805Y10658489D01*
X39370000Y10658489D01*
X39381245Y10602423D01*
X39430822Y10586370D01*
X39518167Y10596300D01*
X39666333Y10620344D01*
X39666333Y9609667D01*
X39518167Y9609667D01*
X39407605Y9594760D01*
X39370000Y9553222D01*
X39380043Y9499283D01*
X39419998Y9465834D01*
X39504607Y9449241D01*
X39648611Y9445873D01*
X39791328Y9449394D01*
X39973115Y9458451D01*
X40084501Y9472768D01*
X40139722Y9495320D01*
X40153167Y9525000D01*
X40113796Y9577412D01*
X40015583Y9601766D01*
X39878000Y9615031D01*
X39878000Y10181351D01*
X39874712Y10425666D01*
X39865316Y10612497D01*
X39862055Y10638925D01*
X40513000Y10638925D01*
X40528914Y10598064D01*
X40590207Y10588460D01*
X40682333Y10599590D01*
X40851667Y10626667D01*
X40851667Y9609667D01*
X40703500Y9609667D01*
X40601380Y9600196D01*
X40560176Y9563222D01*
X40555333Y9525000D01*
X40561699Y9484774D01*
X40591541Y9459778D01*
X40660973Y9446432D01*
X40786109Y9441153D01*
X40936333Y9440333D01*
X41117351Y9441748D01*
X41229832Y9448380D01*
X41289891Y9463809D01*
X41313644Y9491617D01*
X41317333Y9525000D01*
X41300759Y9583354D01*
X41236055Y9606899D01*
X41169167Y9609667D01*
X41021000Y9609667D01*
X41021000Y10649360D01*
X49318333Y10649360D01*
X49334927Y10585592D01*
X49396107Y10566292D01*
X49510953Y10583812D01*
X49657000Y10616751D01*
X49657000Y9609667D01*
X49508833Y9609667D01*
X49406714Y9600196D01*
X49365510Y9563222D01*
X49360667Y9525000D01*
X49367033Y9484774D01*
X49396874Y9459778D01*
X49466306Y9446432D01*
X49591443Y9441153D01*
X49741667Y9440333D01*
X49922684Y9441748D01*
X50035165Y9448380D01*
X50095225Y9463809D01*
X50118977Y9491617D01*
X50122542Y9523872D01*
X50426874Y9523872D01*
X50456128Y9474251D01*
X50554432Y9449445D01*
X50723751Y9441029D01*
X50842333Y9440333D01*
X51035008Y9441496D01*
X51158351Y9447025D01*
X51227686Y9459986D01*
X51258338Y9483445D01*
X51265632Y9520466D01*
X51265667Y9525000D01*
X51257900Y9568948D01*
X51222701Y9594402D01*
X51142217Y9606306D01*
X50998598Y9609605D01*
X50959973Y9609667D01*
X50654279Y9609667D01*
X50912857Y9874250D01*
X51089947Y10067123D01*
X51204435Y10224208D01*
X51262446Y10359168D01*
X51270102Y10485662D01*
X51239370Y10602604D01*
X51201610Y10649466D01*
X59273194Y10649466D01*
X59273389Y10601452D01*
X59312986Y10585725D01*
X59412198Y10595839D01*
X59431722Y10598906D01*
X59605333Y10626667D01*
X59605333Y9609667D01*
X59457167Y9609667D01*
X59355047Y9600196D01*
X59313843Y9563222D01*
X59309000Y9525000D01*
X59315366Y9484774D01*
X59345208Y9459778D01*
X59414640Y9446432D01*
X59539776Y9441153D01*
X59690000Y9440333D01*
X59871017Y9441748D01*
X59983499Y9448380D01*
X60043558Y9463809D01*
X60067310Y9491617D01*
X60071000Y9525000D01*
X60054426Y9583354D01*
X59989722Y9606899D01*
X59922833Y9609667D01*
X59774667Y9609667D01*
X59774667Y10683268D01*
X60409667Y10683268D01*
X60424241Y10647593D01*
X60480250Y10635152D01*
X60596123Y10643093D01*
X60637367Y10648024D01*
X60835433Y10656402D01*
X60965076Y10621221D01*
X61032027Y10539782D01*
X61044667Y10456333D01*
X61011336Y10336585D01*
X60910519Y10266347D01*
X60751116Y10244667D01*
X60656917Y10231986D01*
X60623013Y10184453D01*
X60621333Y10160000D01*
X60635827Y10104218D01*
X60694149Y10079841D01*
X60787643Y10075333D01*
X60949926Y10047528D01*
X61051978Y9967640D01*
X61087000Y9842500D01*
X61049815Y9718301D01*
X60949274Y9629676D01*
X60801899Y9584125D01*
X60624211Y9589152D01*
X60560604Y9603499D01*
X60461081Y9625890D01*
X60418420Y9614524D01*
X60409667Y9567449D01*
X60421892Y9507634D01*
X60469161Y9470918D01*
X60567367Y9451616D01*
X60732401Y9444042D01*
X60755668Y9443676D01*
X60910918Y9449080D01*
X61018084Y9477426D01*
X61112790Y9538931D01*
X61126085Y9549930D01*
X61230916Y9685967D01*
X61263432Y9842455D01*
X61222863Y9997213D01*
X61145114Y10097784D01*
X61076296Y10168130D01*
X61067471Y10205778D01*
X61106024Y10228536D01*
X61191085Y10300389D01*
X61227197Y10414397D01*
X61216370Y10545098D01*
X61173465Y10638925D01*
X69215000Y10638925D01*
X69230914Y10598064D01*
X69292207Y10588460D01*
X69384333Y10599590D01*
X69553667Y10626667D01*
X69553667Y9609667D01*
X69405500Y9609667D01*
X69303380Y9600196D01*
X69262176Y9563222D01*
X69257333Y9525000D01*
X69263699Y9484774D01*
X69293541Y9459778D01*
X69362973Y9446432D01*
X69488109Y9441153D01*
X69638333Y9440333D01*
X69819351Y9441748D01*
X69931832Y9448380D01*
X69991891Y9463809D01*
X70015644Y9491617D01*
X70019333Y9525000D01*
X70002759Y9583354D01*
X69938055Y9606899D01*
X69871167Y9609667D01*
X69723000Y9609667D01*
X69723000Y9849729D01*
X70273333Y9849729D01*
X70289687Y9813277D01*
X70349241Y9790117D01*
X70467731Y9776176D01*
X70580250Y9770271D01*
X70887167Y9757833D01*
X70900305Y9599083D01*
X70919377Y9490455D01*
X70960421Y9445426D01*
X70995555Y9440333D01*
X71049464Y9455467D01*
X71073241Y9515392D01*
X71077667Y9609667D01*
X71084767Y9720451D01*
X71113464Y9769413D01*
X71162333Y9779000D01*
X71231285Y9805470D01*
X71247000Y9842500D01*
X71211707Y9894214D01*
X71162333Y9906000D01*
X71124562Y9911573D01*
X71100066Y9938273D01*
X71085992Y10001067D01*
X71079490Y10114925D01*
X71077708Y10294815D01*
X71077667Y10350500D01*
X71077667Y10658987D01*
X78697667Y10658987D01*
X78707633Y10607449D01*
X78752657Y10591075D01*
X78855429Y10602566D01*
X78867000Y10604500D01*
X79036333Y10633109D01*
X79036333Y9609667D01*
X78888167Y9609667D01*
X78778580Y9595897D01*
X78740268Y9551950D01*
X78740000Y9546167D01*
X78754847Y9515188D01*
X78809036Y9495891D01*
X78917035Y9485866D01*
X79093313Y9482700D01*
X79121000Y9482667D01*
X79306875Y9485141D01*
X79422654Y9494173D01*
X79482805Y9512173D01*
X79501799Y9541552D01*
X79502000Y9546167D01*
X79477308Y9582261D01*
X79798333Y9582261D01*
X79835550Y9515017D01*
X79932957Y9470957D01*
X80069191Y9450520D01*
X80222889Y9454148D01*
X80372687Y9482277D01*
X80497221Y9535349D01*
X80538844Y9567030D01*
X80637121Y9710430D01*
X80674347Y9880833D01*
X80652133Y10053065D01*
X80572086Y10201955D01*
X80493793Y10271719D01*
X80388522Y10313449D01*
X80251741Y10335886D01*
X80225120Y10336930D01*
X80115287Y10342447D01*
X80065922Y10370474D01*
X80052834Y10444354D01*
X80052333Y10503657D01*
X80052333Y10668000D01*
X80327500Y10668000D01*
X80481845Y10672239D01*
X80567631Y10687387D01*
X80600652Y10717089D01*
X80602667Y10731500D01*
X80587304Y10763247D01*
X80531383Y10782677D01*
X80420153Y10792393D01*
X80242833Y10795000D01*
X79883000Y10795000D01*
X79883000Y10163989D01*
X80084222Y10187821D01*
X80227532Y10195055D01*
X80323801Y10170399D01*
X80378750Y10132910D01*
X80478999Y10005055D01*
X80497192Y9865548D01*
X80432205Y9723747D01*
X80428548Y9719032D01*
X80371557Y9654063D01*
X80313562Y9620564D01*
X80227891Y9611298D01*
X80087870Y9619027D01*
X80066321Y9620739D01*
X79915691Y9628982D01*
X79832474Y9621696D01*
X79800453Y9596553D01*
X79798333Y9582261D01*
X79477308Y9582261D01*
X79469870Y9593133D01*
X79367328Y9609552D01*
X79353833Y9609667D01*
X79205667Y9609667D01*
X79205667Y10795000D01*
X79083958Y10795000D01*
X78884724Y10780958D01*
X78754579Y10740174D01*
X78699250Y10674666D01*
X78697667Y10658987D01*
X71077667Y10658987D01*
X71077667Y10795000D01*
X70957090Y10795000D01*
X70901237Y10787627D01*
X70847659Y10757720D01*
X70785660Y10693599D01*
X70704542Y10583583D01*
X70593608Y10415991D01*
X70554924Y10355874D01*
X70446330Y10181314D01*
X70357178Y10028081D01*
X70296507Y9912419D01*
X70273354Y9850572D01*
X70273333Y9849729D01*
X69723000Y9849729D01*
X69723000Y10805908D01*
X69503182Y10776748D01*
X69349980Y10753388D01*
X69262984Y10728553D01*
X69224042Y10693561D01*
X69215001Y10639733D01*
X69215000Y10638925D01*
X61173465Y10638925D01*
X61160613Y10667030D01*
X61064623Y10753315D01*
X60944608Y10793155D01*
X60798379Y10808106D01*
X60648965Y10800629D01*
X60519398Y10773189D01*
X60432708Y10728248D01*
X60409667Y10683268D01*
X59774667Y10683268D01*
X59774667Y10795000D01*
X59637083Y10790780D01*
X59443220Y10768602D01*
X59319569Y10717470D01*
X59273194Y10649466D01*
X51201610Y10649466D01*
X51171119Y10687305D01*
X51054348Y10747381D01*
X50909641Y10782060D01*
X50757582Y10790576D01*
X50618754Y10772157D01*
X50513741Y10726037D01*
X50463125Y10651446D01*
X50461333Y10631666D01*
X50467714Y10583389D01*
X50501430Y10571615D01*
X50584340Y10593553D01*
X50632371Y10609831D01*
X50812507Y10645127D01*
X50955916Y10621516D01*
X51051174Y10545974D01*
X51086853Y10425480D01*
X51076035Y10338889D01*
X51035740Y10263588D01*
X50948808Y10147286D01*
X50829402Y10007903D01*
X50733769Y9905876D01*
X50567659Y9731260D01*
X50464706Y9606733D01*
X50426874Y9523872D01*
X50122542Y9523872D01*
X50122667Y9525000D01*
X50106092Y9583354D01*
X50041389Y9606899D01*
X49974500Y9609667D01*
X49826333Y9609667D01*
X49826333Y10804614D01*
X49630421Y10775235D01*
X49465256Y10746442D01*
X49368851Y10717261D01*
X49325508Y10681359D01*
X49318333Y10649360D01*
X41021000Y10649360D01*
X41021000Y10805908D01*
X40801182Y10776748D01*
X40647980Y10753388D01*
X40560984Y10728553D01*
X40522042Y10693561D01*
X40513001Y10639733D01*
X40513000Y10638925D01*
X39862055Y10638925D01*
X39850517Y10732420D01*
X39833716Y10775039D01*
X39768690Y10785537D01*
X39652669Y10781649D01*
X39579716Y10773565D01*
X39451821Y10749984D01*
X39388616Y10717850D01*
X39370156Y10666220D01*
X39370000Y10658489D01*
X31215805Y10658489D01*
X31162349Y10725187D01*
X31011069Y10795860D01*
X30932199Y10803467D01*
X30742693Y10772792D01*
X30606638Y10678549D01*
X30549435Y10592662D01*
X30482228Y10393531D01*
X30457487Y10164727D01*
X29845000Y10164727D01*
X29845000Y10202333D01*
X29845227Y10442965D01*
X29841649Y10610738D01*
X29827878Y10717423D01*
X29797528Y10774789D01*
X29744210Y10794605D01*
X29661536Y10788640D01*
X29543119Y10768664D01*
X29538083Y10767829D01*
X29427968Y10737925D01*
X29383225Y10688705D01*
X29379333Y10657750D01*
X20701502Y10657750D01*
X20640857Y10724996D01*
X20531155Y10778879D01*
X20338904Y10804495D01*
X20169368Y10757224D01*
X20038088Y10646077D01*
X19960605Y10480062D01*
X19953386Y10443919D01*
X10845306Y10443919D01*
X10832869Y10568696D01*
X10776318Y10690912D01*
X10680340Y10769222D01*
X10665410Y10774656D01*
X10519563Y10799400D01*
X10352773Y10797813D01*
X10207085Y10771715D01*
X10160206Y10752777D01*
X10061078Y10657740D01*
X10013804Y10525125D01*
X10020506Y10384031D01*
X10083307Y10263558D01*
X10122027Y10229444D01*
X10171083Y10187785D01*
X10166691Y10148133D01*
X10104145Y10082529D01*
X10096023Y10074886D01*
X10007974Y9939468D01*
X9987969Y9780248D01*
X534158Y9780248D01*
X540507Y9795032D01*
X634751Y10034062D01*
X648178Y10069037D01*
X730301Y10286361D01*
X800392Y10477431D01*
X853250Y10627621D01*
X883675Y10722307D01*
X889000Y10746370D01*
X852868Y10771483D01*
X741819Y10787372D01*
X551873Y10794494D01*
X465667Y10795000D01*
X272853Y10793783D01*
X149404Y10788137D01*
X80029Y10775068D01*
X49440Y10751582D01*
X42346Y10714686D01*
X42333Y10712114D01*
X-9144415Y10712114D01*
X-9169771Y10771337D01*
X-9253575Y10801590D01*
X-9405148Y10804422D01*
X-9482667Y10798822D01*
X-9663530Y10743816D01*
X-9805147Y10619815D01*
X-9901312Y10435777D01*
X-9945816Y10200660D01*
X-9948175Y10126890D01*
X-19112176Y10126890D01*
X-19187053Y10228165D01*
X-19346000Y10311744D01*
X-19554236Y10335479D01*
X-19610917Y10331547D01*
X-19659425Y10343240D01*
X-19681086Y10404522D01*
X-19685000Y10496006D01*
X-19685000Y10668000D01*
X-19409833Y10668000D01*
X-19255488Y10672239D01*
X-19169703Y10687387D01*
X-19136682Y10717089D01*
X-19134667Y10731500D01*
X-19150029Y10763247D01*
X-19205950Y10782677D01*
X-19317180Y10792393D01*
X-19494500Y10795000D01*
X-19854333Y10795000D01*
X-19854333Y10163989D01*
X-19653250Y10187493D01*
X-19512111Y10194695D01*
X-19413194Y10169707D01*
X-19335750Y10118926D01*
X-19241357Y9998218D01*
X-19222049Y9858954D01*
X-19279195Y9723468D01*
X-19309391Y9688943D01*
X-19373321Y9637944D01*
X-19450039Y9615220D01*
X-19568021Y9615094D01*
X-19648058Y9621428D01*
X-19787614Y9631208D01*
X-19862607Y9625361D01*
X-19892377Y9599609D01*
X-19896667Y9566423D01*
X-29145186Y9566423D01*
X-29133361Y9620602D01*
X-29114229Y9729095D01*
X-29073022Y9773985D01*
X-29038111Y9779000D01*
X-28970900Y9806133D01*
X-28956000Y9842500D01*
X-28991293Y9894214D01*
X-29040667Y9906000D01*
X-29078438Y9911573D01*
X-29102934Y9938273D01*
X-29117008Y10001067D01*
X-29123510Y10114925D01*
X-29125292Y10294815D01*
X-29125333Y10350500D01*
X-29125333Y10795000D01*
X-29245877Y10795000D01*
X-29302914Y10787157D01*
X-29358395Y10755839D01*
X-29423424Y10689366D01*
X-29509109Y10576056D01*
X-29626556Y10404229D01*
X-29648044Y10372018D01*
X-29758329Y10199547D01*
X-29848356Y10045756D01*
X-29908625Y9927782D01*
X-29929667Y9864018D01*
X-38979023Y9864018D01*
X-38977364Y9893805D01*
X-39024371Y10032267D01*
X-39090880Y10105895D01*
X-39182109Y10174710D01*
X-39085555Y10271264D01*
X-39004778Y10400345D01*
X-38998588Y10535339D01*
X-39060163Y10658906D01*
X-39182679Y10753708D01*
X-39290233Y10791349D01*
X-39448689Y10810217D01*
X-39599169Y10800095D01*
X-39718037Y10765420D01*
X-39781659Y10710630D01*
X-39785543Y10698354D01*
X-39784548Y10656831D01*
X-39748118Y10639308D01*
X-39657780Y10641771D01*
X-39568965Y10651297D01*
X-39427459Y10662823D01*
X-39338835Y10651640D01*
X-39272994Y10611860D01*
X-39248216Y10588549D01*
X-39174173Y10496933D01*
X-39170862Y10421968D01*
X-39237699Y10334670D01*
X-39243000Y10329333D01*
X-39366759Y10260163D01*
X-39478938Y10244667D01*
X-39580319Y10236425D01*
X-39617040Y10204852D01*
X-39615966Y10170583D01*
X-39566778Y10110414D01*
X-39442986Y10075256D01*
X-39432945Y10073849D01*
X-39282663Y10045073D01*
X-39198964Y9999277D01*
X-39163777Y9920934D01*
X-39158333Y9837842D01*
X-39168738Y9735816D01*
X-39215620Y9674472D01*
X-39312513Y9625593D01*
X-39428514Y9589192D01*
X-39545455Y9586064D01*
X-39695792Y9616937D01*
X-39761583Y9635697D01*
X-39821585Y9630243D01*
X-39835667Y9573714D01*
X-49011431Y9573714D01*
X-49037945Y9584592D01*
X-49165253Y9603127D01*
X-49242741Y9609667D01*
X-49526204Y9630833D01*
X-49271495Y9915371D01*
X-49113418Y10104112D01*
X-49015820Y10254847D01*
X-48972762Y10382082D01*
X-48978308Y10500323D01*
X-49002412Y10572787D01*
X-49086165Y10702171D01*
X-49212267Y10773233D01*
X-49396763Y10795000D01*
X-49397461Y10795000D01*
X-49582336Y10778454D01*
X-49713699Y10732322D01*
X-49779042Y10661861D01*
X-49784000Y10632518D01*
X-59230599Y10632518D01*
X-59243227Y10721700D01*
X-59276993Y10779630D01*
X-59336412Y10799263D01*
X-59428636Y10792178D01*
X-59560816Y10769955D01*
X-59573583Y10767829D01*
X-59683436Y10738126D01*
X-59728229Y10689183D01*
X-59732333Y10656922D01*
X-68217703Y10656922D01*
X-68253995Y10712357D01*
X-68374569Y10786305D01*
X-68544475Y10804080D01*
X-68545399Y10804054D01*
X-68720615Y10762923D01*
X-68849686Y10650813D01*
X-68932603Y10467741D01*
X-68969357Y10213720D01*
X-68971368Y10117667D01*
X-70400333Y10117667D01*
X-70400333Y14901333D01*
X-69511333Y14901333D01*
X-69511333Y11514667D01*
X-69215000Y11514667D01*
X-69215000Y14901333D01*
X-68495333Y14901333D01*
X-68495333Y12192000D01*
X-68241333Y12192000D01*
X-68241333Y14901333D01*
X-67521667Y14901333D01*
X-67521667Y12192000D01*
X-67225333Y12192000D01*
X-67225333Y14901333D01*
X-66505667Y14901333D01*
X-66505667Y12192000D01*
X-66251667Y12192000D01*
X-66251667Y14901333D01*
X-65532000Y14901333D01*
X-65532000Y12192000D01*
X-65235667Y12192000D01*
X-65235667Y14901333D01*
X-64516000Y14901333D01*
X-64516000Y11853333D01*
X-64219667Y11853333D01*
X-64219667Y14901333D01*
X-63500000Y14901333D01*
X-63500000Y12192000D01*
X-63246000Y12192000D01*
X-63246000Y14901333D01*
X-62526333Y14901333D01*
X-62526333Y12192000D01*
X-62230000Y12192000D01*
X-62230000Y14901333D01*
X-61510333Y14901333D01*
X-61510333Y12192000D01*
X-61256333Y12192000D01*
X-61256333Y14901333D01*
X-60536667Y14901333D01*
X-60536667Y12192000D01*
X-60240333Y12192000D01*
X-60240333Y14901333D01*
X-59520667Y14901333D01*
X-59520667Y11255302D01*
X-59383083Y11268568D01*
X-59245500Y11281833D01*
X-59223424Y14901333D01*
X-58547000Y14901333D01*
X-58547000Y12192000D01*
X-58250667Y12192000D01*
X-58250667Y14901333D01*
X-57531000Y14901333D01*
X-57531000Y12192000D01*
X-57234667Y12192000D01*
X-57234667Y14901333D01*
X-56515000Y14901333D01*
X-56515000Y12192000D01*
X-56261000Y12192000D01*
X-56261000Y14901333D01*
X-55541333Y14901333D01*
X-55541333Y12192000D01*
X-55245000Y12192000D01*
X-55245000Y14901333D01*
X-54525333Y14901333D01*
X-54525333Y11853333D01*
X-54271333Y11853333D01*
X-54271333Y14901333D01*
X-53551667Y14901333D01*
X-53551667Y12192000D01*
X-53255333Y12192000D01*
X-53255333Y14901333D01*
X-52535667Y14901333D01*
X-52535667Y12192000D01*
X-52239333Y12192000D01*
X-52239333Y14901333D01*
X-51562000Y14901333D01*
X-51562000Y12192000D01*
X-51265667Y12192000D01*
X-51265667Y14901333D01*
X-50546000Y14901333D01*
X-50546000Y12192000D01*
X-50249667Y12192000D01*
X-50249667Y14901333D01*
X-49530000Y14901333D01*
X-49530000Y11260667D01*
X-49276000Y11260667D01*
X-49276000Y14901333D01*
X-48556333Y14901333D01*
X-48556333Y12192000D01*
X-48260000Y12192000D01*
X-48260000Y14901333D01*
X-47540333Y14901333D01*
X-47540333Y12192000D01*
X-47286333Y12192000D01*
X-47286333Y14901333D01*
X-46566667Y14901333D01*
X-46566667Y12192000D01*
X-46270333Y12192000D01*
X-46270333Y14901333D01*
X-45550667Y14901333D01*
X-45550667Y12192000D01*
X-45254333Y12192000D01*
X-45254333Y14901333D01*
X-44577000Y14901333D01*
X-44577000Y11853333D01*
X-44280667Y11853333D01*
X-44280667Y14901333D01*
X-43561000Y14901333D01*
X-43561000Y12192000D01*
X-43264667Y12192000D01*
X-43264667Y14901333D01*
X-42545000Y14901333D01*
X-42545000Y12192000D01*
X-42291000Y12192000D01*
X-42291000Y14901333D01*
X-41571333Y14901333D01*
X-41571333Y12192000D01*
X-41275000Y12192000D01*
X-41275000Y14901333D01*
X-40555333Y14901333D01*
X-40555333Y12192000D01*
X-40301333Y12192000D01*
X-40301333Y14901333D01*
X-39582576Y14901333D01*
X-39560500Y11281833D01*
X-39422917Y11268568D01*
X-39285333Y11255302D01*
X-39285333Y14901333D01*
X-38565667Y14901333D01*
X-38565667Y12192000D01*
X-38269333Y12192000D01*
X-38269333Y14901333D01*
X-37549667Y14901333D01*
X-37549667Y12192000D01*
X-37295667Y12192000D01*
X-37295667Y14901333D01*
X-36576000Y14901333D01*
X-36576000Y12192000D01*
X-36279667Y12192000D01*
X-36279667Y14901333D01*
X-35560000Y14901333D01*
X-35560000Y12192000D01*
X-35306000Y12192000D01*
X-35306000Y14901333D01*
X-34586333Y14901333D01*
X-34586333Y11853333D01*
X-34290000Y11853333D01*
X-34290000Y14901333D01*
X-33570333Y14901333D01*
X-33570333Y12192000D01*
X-33316333Y12192000D01*
X-33316333Y14901333D01*
X-32596667Y14901333D01*
X-32596667Y12192000D01*
X-32300333Y12192000D01*
X-32300333Y14901333D01*
X-31580667Y14901333D01*
X-31580667Y12192000D01*
X-31284333Y12192000D01*
X-31284333Y14901333D01*
X-30564667Y14901333D01*
X-30564667Y12192000D01*
X-30310667Y12192000D01*
X-30310667Y14901333D01*
X-29591000Y14901333D01*
X-29591000Y11260667D01*
X-29294667Y11260667D01*
X-29294667Y14901333D01*
X-28575000Y14901333D01*
X-28575000Y12192000D01*
X-28321000Y12192000D01*
X-28321000Y14901333D01*
X-27601333Y14901333D01*
X-27601333Y12192000D01*
X-27305000Y12192000D01*
X-27305000Y14901333D01*
X-26585333Y14901333D01*
X-26585333Y12192000D01*
X-26289000Y12192000D01*
X-26289000Y14901333D01*
X-25611667Y14901333D01*
X-25611667Y12192000D01*
X-25315333Y12192000D01*
X-25315333Y14901333D01*
X-24595667Y14901333D01*
X-24595667Y11853333D01*
X-24299333Y11853333D01*
X-24299333Y14901333D01*
X-23579667Y14901333D01*
X-23579667Y12192000D01*
X-23325667Y12192000D01*
X-23325667Y14901333D01*
X-22606000Y14901333D01*
X-22606000Y12192000D01*
X-22309667Y12192000D01*
X-22309667Y14901333D01*
X-21590000Y14901333D01*
X-21590000Y12192000D01*
X-21336000Y12192000D01*
X-21336000Y14901333D01*
X-20616333Y14901333D01*
X-20616333Y12192000D01*
X-20320000Y12192000D01*
X-20320000Y14901333D01*
X-19600333Y14901333D01*
X-19600333Y13078318D01*
X-19600334Y11255302D01*
X-19462750Y11268568D01*
X-19325167Y11281833D01*
X-19303091Y14901333D01*
X-18626667Y14901333D01*
X-18626667Y12192000D01*
X-18330333Y12192000D01*
X-18330333Y14901333D01*
X-17610667Y14901333D01*
X-17610667Y12192000D01*
X-17314333Y12192000D01*
X-17314333Y14901333D01*
X-16594667Y14901333D01*
X-16594667Y12192000D01*
X-16340667Y12192000D01*
X-16340667Y14901333D01*
X-15621000Y14901333D01*
X-15621000Y12192000D01*
X-15324667Y12192000D01*
X-15324667Y14901333D01*
X-14605000Y14901333D01*
X-14605000Y11853333D01*
X-14351000Y11853333D01*
X-14351000Y14901333D01*
X-13631333Y14901333D01*
X-13631333Y12192000D01*
X-13335000Y12192000D01*
X-13335000Y14901333D01*
X-12615333Y14901333D01*
X-12615333Y12192000D01*
X-12319000Y12192000D01*
X-12319000Y14901333D01*
X-11641667Y14901333D01*
X-11641667Y12192000D01*
X-11345333Y12192000D01*
X-11345333Y14901333D01*
X-10625667Y14901333D01*
X-10625667Y12192000D01*
X-10329333Y12192000D01*
X-10329333Y14901333D01*
X-9609667Y14901333D01*
X-9609667Y11260667D01*
X-9355667Y11260667D01*
X-9355667Y14901333D01*
X-8636000Y14901333D01*
X-8636000Y12192000D01*
X-8339667Y12192000D01*
X-8339667Y14901333D01*
X-7620000Y14901333D01*
X-7620000Y12192000D01*
X-7366000Y12192000D01*
X-7366000Y14901333D01*
X-6646333Y14901333D01*
X-6646333Y12192000D01*
X-6350000Y12192000D01*
X-6350000Y14901333D01*
X-5630333Y14901333D01*
X-5630333Y12192000D01*
X-5334000Y12192000D01*
X-5334000Y14901333D01*
X-4614333Y14901333D01*
X-4614333Y11853333D01*
X-4360333Y11853333D01*
X-4360333Y14901333D01*
X-3640667Y14901333D01*
X-3640667Y12192000D01*
X-3344333Y12192000D01*
X-3344333Y14901333D01*
X-2624667Y14901333D01*
X-2624667Y12192000D01*
X-2370667Y12192000D01*
X-2370667Y14901333D01*
X-1651000Y14901333D01*
X-1651000Y12192000D01*
X-1354667Y12192000D01*
X-1354667Y14901333D01*
X-635000Y14901333D01*
X-635000Y12192000D01*
X-381000Y12192000D01*
X-381000Y14889090D01*
X-95250Y14916078D01*
X64101Y14930022D01*
X199049Y14939880D01*
X275167Y14943373D01*
X295568Y14941538D01*
X312397Y14930918D01*
X325998Y14904085D01*
X336715Y14853610D01*
X344891Y14772063D01*
X350870Y14652017D01*
X354995Y14486041D01*
X357611Y14266708D01*
X359059Y13986589D01*
X359685Y13638254D01*
X359831Y13214275D01*
X359833Y13112757D01*
X359833Y11281833D01*
X497417Y11268568D01*
X635000Y11255302D01*
X635000Y14943667D01*
X1354667Y14943667D01*
X1354667Y12192000D01*
X1653267Y12192000D01*
X1641550Y13567854D01*
X1629833Y14943709D01*
X2370667Y14943667D01*
X2370667Y12192000D01*
X2624667Y12192000D01*
X2624667Y14943667D01*
X3344333Y14943667D01*
X3344333Y12192000D01*
X3640667Y12192000D01*
X3640667Y14943667D01*
X4360333Y14943667D01*
X4360333Y12192000D01*
X4614333Y12192000D01*
X4614333Y14943667D01*
X5355167Y14943701D01*
X5343559Y13398517D01*
X5331952Y11853333D01*
X5630333Y11853333D01*
X5630333Y14943667D01*
X6350000Y14943667D01*
X6350000Y12192000D01*
X6648600Y12192000D01*
X6636883Y13567854D01*
X6625167Y14943709D01*
X7344833Y14943709D01*
X7333116Y13567854D01*
X7333116Y13567854D01*
G37*
X7333116Y13567854D02*
X7321399Y12192000D01*
X7620000Y12192000D01*
X7620000Y14943667D01*
X8339667Y14943667D01*
X8339667Y12192000D01*
X8638267Y12192000D01*
X8626550Y13567854D01*
X8614833Y14943709D01*
X9355667Y14943667D01*
X9355667Y12192000D01*
X9609667Y12192000D01*
X9609667Y14943667D01*
X10329333Y14943667D01*
X10329333Y11260667D01*
X10625667Y11260667D01*
X10625667Y14943667D01*
X11345333Y14943667D01*
X11345333Y12192000D01*
X11599333Y12192000D01*
X11599333Y14943667D01*
X12340167Y14943709D01*
X12328450Y13567854D01*
X12316733Y12192000D01*
X12615333Y12192000D01*
X12615333Y14943667D01*
X13335000Y14943667D01*
X13335000Y12192000D01*
X13633600Y12192000D01*
X13621883Y13567854D01*
X13610167Y14943709D01*
X14329833Y14943709D01*
X14318116Y13567854D01*
X14306399Y12192000D01*
X14605000Y12192000D01*
X14605000Y14943667D01*
X15324667Y14943667D01*
X15324667Y11853333D01*
X15623048Y11853333D01*
X15611441Y13398517D01*
X15599833Y14943701D01*
X16340667Y14943667D01*
X16340667Y12192000D01*
X16594667Y12192000D01*
X16594667Y14943667D01*
X17314333Y14943667D01*
X17314333Y12192000D01*
X17610667Y12192000D01*
X17610667Y14943667D01*
X18330333Y14943667D01*
X18330333Y12192000D01*
X18584333Y12192000D01*
X18584333Y14943667D01*
X19325167Y14943709D01*
X19313450Y13567854D01*
X19301733Y12192000D01*
X19600333Y12192000D01*
X19600333Y14943667D01*
X20320000Y14943667D01*
X20320000Y11255302D01*
X20457583Y11268568D01*
X20595167Y11281833D01*
X20595167Y14943680D01*
X20955000Y14943694D01*
X21314833Y14943709D01*
X21303116Y13567854D01*
X21291399Y12192000D01*
X21590000Y12192000D01*
X21590000Y14943667D01*
X22309667Y14943667D01*
X22309667Y12192000D01*
X22608267Y12192000D01*
X22596550Y13567854D01*
X22584833Y14943709D01*
X23325667Y14943667D01*
X23325667Y12192000D01*
X23579667Y12192000D01*
X23579667Y14943667D01*
X23950083Y14943688D01*
X24320500Y14943709D01*
X24308783Y13567854D01*
X24297066Y12192000D01*
X24595667Y12192000D01*
X24595667Y14943667D01*
X25315333Y14943667D01*
X25315333Y11853333D01*
X25569333Y11853333D01*
X25569333Y14943667D01*
X26310167Y14943709D01*
X26298450Y13567854D01*
X26286733Y12192000D01*
X26585333Y12192000D01*
X26585333Y14943667D01*
X27305000Y14943667D01*
X27305000Y12192000D01*
X27603600Y12192000D01*
X27591883Y13567854D01*
X27580167Y14943709D01*
X27950583Y14943688D01*
X28321000Y14943667D01*
X28321000Y12192000D01*
X28575000Y12192000D01*
X28575000Y14943667D01*
X29294667Y14943667D01*
X29294667Y12192000D01*
X29593267Y12192000D01*
X29581550Y13567854D01*
X29569833Y14943709D01*
X30310667Y14943667D01*
X30310667Y11260667D01*
X30564667Y11260667D01*
X30564667Y14943667D01*
X30935083Y14943688D01*
X31305500Y14943709D01*
X31293783Y13567854D01*
X31282066Y12192000D01*
X31580667Y12192000D01*
X31580667Y14943667D01*
X32300333Y14943667D01*
X32300333Y12192000D01*
X32554333Y12192000D01*
X32554333Y14943667D01*
X33295167Y14943709D01*
X33283450Y13567854D01*
X33271733Y12192000D01*
X33570333Y12192000D01*
X33570333Y14943667D01*
X34290000Y14943667D01*
X34290000Y12192000D01*
X34588600Y12192000D01*
X34576883Y13567854D01*
X34565167Y14943709D01*
X34935583Y14943688D01*
X35306000Y14943667D01*
X35306000Y11853333D01*
X35560000Y11853333D01*
X35560000Y14943667D01*
X36279667Y14943667D01*
X36279667Y12192000D01*
X36576000Y12192000D01*
X36576000Y14943667D01*
X37295667Y14943667D01*
X37295667Y12192000D01*
X37549667Y12192000D01*
X37549667Y14943667D01*
X37920083Y14943688D01*
X38290500Y14943709D01*
X38278783Y13567854D01*
X38267066Y12192000D01*
X38565667Y12192000D01*
X38565667Y14943667D01*
X39285333Y14943667D01*
X39285333Y12192000D01*
X39583934Y12192000D01*
X39572217Y13567854D01*
X39560500Y14943709D01*
X39920333Y14943694D01*
X40280167Y14943680D01*
X40280167Y11281833D01*
X40417750Y11268568D01*
X40555333Y11255302D01*
X40555333Y14943667D01*
X41275000Y14943667D01*
X41275000Y12192000D01*
X41573600Y12192000D01*
X41561883Y13567854D01*
X41550167Y14943709D01*
X41920583Y14943688D01*
X42291000Y14943667D01*
X42291000Y12192000D01*
X42545000Y12192000D01*
X42545000Y14943667D01*
X43264667Y14943667D01*
X43264667Y12192000D01*
X43561000Y12192000D01*
X43561000Y14943667D01*
X44280667Y14943667D01*
X44280667Y12192000D01*
X44534667Y12192000D01*
X44534667Y14943667D01*
X44905083Y14943684D01*
X45275500Y14943701D01*
X45263892Y13398517D01*
X45252285Y11853333D01*
X45550667Y11853333D01*
X45550667Y14943667D01*
X46270333Y14943667D01*
X46270333Y12192000D01*
X46568934Y12192000D01*
X46557217Y13567854D01*
X46545500Y14943709D01*
X47265167Y14943709D01*
X47253450Y13567854D01*
X47241733Y12192000D01*
X47540333Y12192000D01*
X47540333Y14943667D01*
X48260000Y14943667D01*
X48260000Y12192000D01*
X48558600Y12192000D01*
X48546883Y13567854D01*
X48535167Y14943709D01*
X48905583Y14943688D01*
X49276000Y14943667D01*
X49276000Y12192000D01*
X49530000Y12192000D01*
X49530000Y14943667D01*
X50249667Y14943667D01*
X50249667Y11260667D01*
X50546000Y11260667D01*
X50546000Y14943667D01*
X51265667Y14943667D01*
X51265667Y12192000D01*
X51519667Y12192000D01*
X51519667Y14943667D01*
X51890083Y14943688D01*
X52260500Y14943709D01*
X52248783Y13567854D01*
X52237066Y12192000D01*
X52535667Y12192000D01*
X52535667Y14943667D01*
X53255333Y14943667D01*
X53255333Y12192000D01*
X53553934Y12192000D01*
X53542217Y13567854D01*
X53530500Y14943709D01*
X53900917Y14943688D01*
X54271333Y14943667D01*
X54271333Y12192000D01*
X54525333Y12192000D01*
X54525333Y14943667D01*
X55245000Y14943667D01*
X55245000Y11853333D01*
X55543381Y11853333D01*
X55520167Y14943701D01*
X55890583Y14943684D01*
X56261000Y14943667D01*
X56261000Y12192000D01*
X56515000Y12192000D01*
X56515000Y14943667D01*
X56885417Y14943688D01*
X57255833Y14943709D01*
X57244116Y13567854D01*
X57232399Y12192000D01*
X57531000Y12192000D01*
X57531000Y14943667D01*
X58250667Y14943667D01*
X58250667Y12192000D01*
X58504667Y12192000D01*
X58504667Y14943667D01*
X58875083Y14943688D01*
X59245500Y14943709D01*
X59233783Y13567854D01*
X59222066Y12192000D01*
X59520667Y12192000D01*
X59520667Y14943667D01*
X60240333Y14943667D01*
X60240333Y11255302D01*
X60377917Y11268568D01*
X60515500Y11281833D01*
X60515500Y14943680D01*
X60885917Y14943673D01*
X61256333Y14943667D01*
X61256333Y12192000D01*
X61510333Y12192000D01*
X61510333Y14943667D01*
X62230000Y14943667D01*
X62230000Y12192000D01*
X62528600Y12192000D01*
X62516883Y13567854D01*
X62505167Y14943709D01*
X62875583Y14943688D01*
X63246000Y14943667D01*
X63246000Y12192000D01*
X63500000Y12192000D01*
X63500000Y14943667D01*
X63870417Y14943688D01*
X64240833Y14943709D01*
X64229116Y13567854D01*
X64217399Y12192000D01*
X64516000Y12192000D01*
X64516000Y14943667D01*
X65235667Y14943667D01*
X65235667Y11853333D01*
X65534048Y11853333D01*
X65522441Y13398517D01*
X65510833Y14943701D01*
X65870667Y14943705D01*
X66230500Y14943709D01*
X66218783Y13567854D01*
X66207066Y12192000D01*
X66505667Y12192000D01*
X66505667Y14943667D01*
X67225333Y14943667D01*
X67225333Y12192000D01*
X67523934Y12192000D01*
X67512217Y13567854D01*
X67500500Y14943709D01*
X67870917Y14943688D01*
X68241333Y14943667D01*
X68241333Y12192000D01*
X68495333Y12192000D01*
X68495333Y14943667D01*
X69215000Y14943667D01*
X69215000Y12192000D01*
X69511333Y12192000D01*
X69511333Y14943667D01*
X70231000Y14943667D01*
X70231000Y11260667D01*
X70485000Y11260667D01*
X70485000Y14943667D01*
X70855417Y14943688D01*
X71225833Y14943709D01*
X71214116Y13567854D01*
X71202399Y12192000D01*
X71501000Y12192000D01*
X71501000Y14943667D01*
X72220667Y14943667D01*
X72220667Y12192000D01*
X72519267Y12192000D01*
X72507550Y13567854D01*
X72495833Y14943709D01*
X73215500Y14943709D01*
X73203783Y13567854D01*
X73192066Y12192000D01*
X73490667Y12192000D01*
X73490667Y14943667D01*
X74210333Y14943667D01*
X74210333Y12192000D01*
X74508934Y12192000D01*
X74497217Y13567854D01*
X74485500Y14943709D01*
X74855917Y14943688D01*
X75226333Y14943667D01*
X75226333Y11853333D01*
X75480333Y11853333D01*
X75480333Y14943667D01*
X76200000Y14943667D01*
X76200000Y12192000D01*
X76496333Y12192000D01*
X76496333Y14943667D01*
X77216000Y14943667D01*
X77216000Y12192000D01*
X77470000Y12192000D01*
X77470000Y14943667D01*
X77840417Y14943688D01*
X78210833Y14943709D01*
X78199116Y13567854D01*
X78187399Y12192000D01*
X78486000Y12192000D01*
X78486000Y14943667D01*
X79205667Y14943667D01*
X79205667Y12192000D01*
X79504267Y12192000D01*
X79492550Y13567854D01*
X79480833Y14943709D01*
X79840667Y14943694D01*
X80200500Y14943680D01*
X80200500Y11281833D01*
X80338083Y11268568D01*
X80475667Y11255302D01*
X80475667Y14943667D01*
X81788000Y14943667D01*
X81788000Y8847667D01*
X80602667Y8847667D01*
X80602667Y211667D01*
X80602874Y-944696D01*
X80603495Y-2018688D01*
X80604530Y-3010136D01*
X80605978Y-3918869D01*
X80607837Y-4744715D01*
X80610107Y-5487502D01*
X80612787Y-6147058D01*
X80615876Y-6723213D01*
X80619373Y-7215793D01*
X80623278Y-7624627D01*
X80627589Y-7949543D01*
X80632306Y-8190369D01*
X80637428Y-8346934D01*
X80642954Y-8419066D01*
X80645000Y-8424333D01*
X80659551Y-8466003D01*
X80671219Y-8588442D01*
X80679844Y-8787800D01*
X80685265Y-9060222D01*
X80687319Y-9401857D01*
X80687333Y-9435804D01*
X80686749Y-9758142D01*
X80684568Y-10005736D01*
X80680152Y-10188502D01*
X80672859Y-10316356D01*
X80662049Y-10399215D01*
X80647082Y-10446995D01*
X80627319Y-10469614D01*
X80620371Y-10472971D01*
X80560282Y-10479865D01*
X80428406Y-10485147D01*
X80237611Y-10488630D01*
X80000765Y-10490129D01*
X79730736Y-10489458D01*
X79572621Y-10488095D01*
X79497261Y-10487732D01*
X79338610Y-10487360D01*
X79098042Y-10486979D01*
X78776933Y-10486590D01*
X78376657Y-10486193D01*
X77898590Y-10485789D01*
X77344107Y-10485377D01*
X76714583Y-10484959D01*
X76011393Y-10484535D01*
X75235912Y-10484104D01*
X74389515Y-10483668D01*
X73473577Y-10483227D01*
X72489474Y-10482781D01*
X71438580Y-10482331D01*
X70322271Y-10481876D01*
X69141921Y-10481418D01*
X67898906Y-10480957D01*
X66594600Y-10480493D01*
X65230379Y-10480026D01*
X63807619Y-10479558D01*
X62327693Y-10479087D01*
X60791977Y-10478616D01*
X59201846Y-10478143D01*
X57558676Y-10477670D01*
X55863841Y-10477197D01*
X54118716Y-10476724D01*
X52324677Y-10476251D01*
X50483098Y-10475780D01*
X48595355Y-10475310D01*
X46662823Y-10474842D01*
X44686876Y-10474375D01*
X42668891Y-10473912D01*
X40610241Y-10473451D01*
X38512302Y-10472994D01*
X36376450Y-10472540D01*
X34204058Y-10472091D01*
X31996503Y-10471646D01*
X29755160Y-10471206D01*
X27481402Y-10470771D01*
X25176607Y-10470342D01*
X22842148Y-10469918D01*
X20479400Y-10469502D01*
X18089740Y-10469092D01*
X15674541Y-10468689D01*
X13235179Y-10468293D01*
X10773030Y-10467906D01*
X8289467Y-10467527D01*
X5785866Y-10467157D01*
X4116917Y-10466917D01*
X-70358000Y-10456309D01*
X-70358000Y-9443849D01*
X-70356488Y-9160210D01*
X-70352239Y-8906064D01*
X-70345690Y-8693218D01*
X-70337275Y-8533475D01*
X-70327428Y-8438640D01*
X-70320207Y-8417278D01*
X-70316042Y-8373973D01*
X-70311733Y-8249323D01*
X-70307310Y-8046652D01*
X-70302797Y-7769280D01*
X-70298221Y-7420531D01*
X-70293609Y-7003727D01*
X-70288988Y-6522190D01*
X-70284384Y-5979241D01*
X-70279823Y-5378204D01*
X-70275333Y-4722400D01*
X-70270938Y-4015151D01*
X-70266668Y-3259781D01*
X-70262546Y-2459611D01*
X-70258601Y-1617963D01*
X-70254859Y-738159D01*
X-70251346Y176478D01*
X-70251180Y222250D01*
X-70219946Y8847667D01*
X-68241333Y8847667D01*
X-68241318Y6529917D01*
X-68241114Y6207667D01*
X-68240524Y5807954D01*
X-68239569Y5337983D01*
X-68238275Y4804957D01*
X-68236663Y4216080D01*
X-68234758Y3578554D01*
X-68232584Y2899584D01*
X-68230163Y2186374D01*
X-68227520Y1446126D01*
X-68224677Y686044D01*
X-68221658Y-86667D01*
X-68218487Y-864806D01*
X-68215188Y-1641167D01*
X-68213143Y-2106083D01*
X-68184983Y-8424333D01*
X78570667Y-8424333D01*
X78570667Y8847667D01*
X-68241333Y8847667D01*
X-70219946Y8847667D01*
X-70400333Y8847667D01*
X-70400333Y10117667D01*
X-68971368Y10117667D01*
X-68957986Y9885101D01*
X-68915393Y9713544D01*
X-68837129Y9582455D01*
X-68786278Y9529065D01*
X-68655529Y9459067D01*
X-68493972Y9442656D01*
X-68337485Y9481253D01*
X-68288614Y9509366D01*
X-68182074Y9630862D01*
X-68109097Y9809158D01*
X-68072369Y10022218D01*
X-68074581Y10248006D01*
X-68118417Y10464485D01*
X-68159497Y10568013D01*
X-68217703Y10656922D01*
X-59732333Y10656922D01*
X-59720731Y10601910D01*
X-59670179Y10586436D01*
X-59584167Y10596300D01*
X-59436000Y10620344D01*
X-59436000Y9609667D01*
X-59584167Y9609667D01*
X-59694728Y9594760D01*
X-59732333Y9553222D01*
X-59722280Y9499257D01*
X-59682288Y9465803D01*
X-59597610Y9449223D01*
X-59453500Y9445879D01*
X-59311481Y9449394D01*
X-59132090Y9457923D01*
X-59020943Y9471349D01*
X-58961626Y9493439D01*
X-58937725Y9527961D01*
X-58935956Y9535583D01*
X-58943165Y9586016D01*
X-59003687Y9606972D01*
X-59073063Y9609667D01*
X-59224333Y9609667D01*
X-59224333Y10202333D01*
X-59224049Y10444631D01*
X-59227963Y10613894D01*
X-59230599Y10632518D01*
X-49784000Y10632518D01*
X-49778042Y10586000D01*
X-49746064Y10573082D01*
X-49666917Y10591696D01*
X-49596850Y10614219D01*
X-49412196Y10648541D01*
X-49272622Y10618416D01*
X-49184652Y10526688D01*
X-49156755Y10422334D01*
X-49156928Y10353539D01*
X-49178568Y10286700D01*
X-49231724Y10206483D01*
X-49326442Y10097554D01*
X-49463672Y9953922D01*
X-49621125Y9783091D01*
X-49728896Y9646500D01*
X-49780443Y9552757D01*
X-49784000Y9532544D01*
X-49779654Y9490782D01*
X-49756375Y9464006D01*
X-49698802Y9448894D01*
X-49591575Y9442124D01*
X-49419333Y9440376D01*
X-49357563Y9440333D01*
X-49163785Y9441696D01*
X-49040189Y9447515D01*
X-48972312Y9460391D01*
X-48945690Y9482920D01*
X-48945202Y9514417D01*
X-48970398Y9556879D01*
X-49011431Y9573714D01*
X-39835667Y9573714D01*
X-39812241Y9494619D01*
X-39782750Y9468370D01*
X-39670115Y9447013D01*
X-39511904Y9444223D01*
X-39344646Y9457897D01*
X-39204870Y9485932D01*
X-39157304Y9504366D01*
X-39046806Y9602908D01*
X-38985835Y9741703D01*
X-38979023Y9864018D01*
X-29929667Y9864018D01*
X-29921759Y9819348D01*
X-29885956Y9793757D01*
X-29804144Y9782049D01*
X-29658205Y9779026D01*
X-29633333Y9779000D01*
X-29337000Y9779000D01*
X-29337000Y9637889D01*
X-29324686Y9510772D01*
X-29282222Y9452980D01*
X-29212064Y9449805D01*
X-29159385Y9501361D01*
X-29145186Y9566423D01*
X-19896667Y9566423D01*
X-19859071Y9501881D01*
X-19760385Y9459746D01*
X-19621759Y9442305D01*
X-19464344Y9451846D01*
X-19309292Y9490657D01*
X-19284881Y9500250D01*
X-19151095Y9582251D01*
X-19076498Y9701076D01*
X-19050394Y9875219D01*
X-19050000Y9906474D01*
X-19085637Y10090993D01*
X-19112176Y10126890D01*
X-9948175Y10126890D01*
X-9924327Y9852958D01*
X-9852320Y9648556D01*
X-9732010Y9513478D01*
X-9563257Y9447520D01*
X-9469991Y9440333D01*
X-9328038Y9461837D01*
X-9209131Y9539115D01*
X-9183077Y9564077D01*
X-9103177Y9660530D01*
X-9067538Y9762927D01*
X-9060680Y9892160D01*
X-9071781Y10027716D01*
X-9098298Y10134660D01*
X-9113597Y10163669D01*
X-9245728Y10273329D01*
X-9411534Y10323800D01*
X-9582249Y10310350D01*
X-9691626Y10258732D01*
X-9792424Y10188130D01*
X-9764591Y10332815D01*
X-9712040Y10463486D01*
X-9624296Y10576352D01*
X-9623072Y10577434D01*
X-9531767Y10641629D01*
X-9434673Y10661282D01*
X-9326694Y10652327D01*
X-9212489Y10641106D01*
X-9159077Y10653867D01*
X-9144278Y10697752D01*
X-9144000Y10711143D01*
X-9144415Y10712114D01*
X42333Y10712114D01*
X51288Y10668951D01*
X89812Y10642443D01*
X175399Y10627256D01*
X325538Y10618057D01*
X354688Y10616864D01*
X667042Y10604500D01*
X460634Y10075333D01*
X384272Y9875811D01*
X320656Y9702444D01*
X275580Y9571560D01*
X254836Y9499486D01*
X254113Y9493250D01*
X288955Y9448919D01*
X330678Y9440333D01*
X367641Y9457761D01*
X411740Y9516364D01*
X467766Y9625627D01*
X534158Y9780248D01*
X9987969Y9780248D01*
X10035840Y9623580D01*
X10099450Y9539368D01*
X10169435Y9478694D01*
X10242010Y9448875D01*
X10346677Y9442646D01*
X10465580Y9449199D01*
X10626132Y9468039D01*
X10727961Y9501742D01*
X10796796Y9559151D01*
X10801296Y9564597D01*
X10870080Y9709318D01*
X10875321Y9872276D01*
X10818804Y10021405D01*
X10772818Y10076287D01*
X10706005Y10146961D01*
X10699326Y10187827D01*
X10732832Y10214083D01*
X10814440Y10302734D01*
X10846681Y10430121D01*
X10845306Y10443919D01*
X19953386Y10443919D01*
X19956678Y10261024D01*
X20019157Y10104689D01*
X20126070Y9986308D01*
X20262664Y9917274D01*
X20414187Y9908980D01*
X20564580Y9971901D01*
X20632411Y10013198D01*
X20656022Y9994246D01*
X20658667Y9935276D01*
X20622974Y9805496D01*
X20533825Y9683308D01*
X20418110Y9602999D01*
X20391164Y9594207D01*
X20278797Y9588020D01*
X20157661Y9607661D01*
X20065749Y9627495D01*
X20029075Y9609286D01*
X20023667Y9567906D01*
X20048716Y9491414D01*
X20076583Y9468370D01*
X20204504Y9445089D01*
X20366774Y9450646D01*
X20519370Y9481851D01*
X20575386Y9504550D01*
X20711910Y9612994D01*
X20799824Y9776128D01*
X20842559Y10001934D01*
X20848049Y10138833D01*
X20826388Y10401021D01*
X20757936Y10595172D01*
X20701502Y10657750D01*
X29379333Y10657750D01*
X29390456Y10603668D01*
X29439540Y10589408D01*
X29527500Y10601707D01*
X29675667Y10629503D01*
X29675667Y9609667D01*
X29527500Y9609667D01*
X29425380Y9600196D01*
X29384176Y9563222D01*
X29379333Y9525000D01*
X29385699Y9484774D01*
X29415541Y9459778D01*
X29484973Y9446432D01*
X29610109Y9441153D01*
X29760333Y9440333D01*
X29941351Y9441748D01*
X30053832Y9448380D01*
X30113891Y9463809D01*
X30137644Y9491617D01*
X30141333Y9525000D01*
X30124759Y9583354D01*
X30060055Y9606899D01*
X29993167Y9609667D01*
X29845000Y9609667D01*
X29845000Y10164727D01*
X30457487Y10164727D01*
X30473221Y9932375D01*
X30527437Y9722602D01*
X30618143Y9561535D01*
X30628984Y9549285D01*
X30759599Y9465234D01*
X30922402Y9438817D01*
X31085376Y9472478D01*
X31152386Y9509366D01*
X31269238Y9641803D01*
X31342215Y9841324D01*
X31368921Y10101204D01*
X31369000Y10117667D01*
X31344857Y10380527D01*
X31274793Y10584888D01*
X31215805Y10658489D01*
X39370000Y10658489D01*
X39381245Y10602423D01*
X39430822Y10586370D01*
X39518167Y10596300D01*
X39666333Y10620344D01*
X39666333Y9609667D01*
X39518167Y9609667D01*
X39407605Y9594760D01*
X39370000Y9553222D01*
X39380043Y9499283D01*
X39419998Y9465834D01*
X39504607Y9449241D01*
X39648611Y9445873D01*
X39791328Y9449394D01*
X39973115Y9458451D01*
X40084501Y9472768D01*
X40139722Y9495320D01*
X40153167Y9525000D01*
X40113796Y9577412D01*
X40015583Y9601766D01*
X39878000Y9615031D01*
X39878000Y10181351D01*
X39874712Y10425666D01*
X39865316Y10612497D01*
X39862055Y10638925D01*
X40513000Y10638925D01*
X40528914Y10598064D01*
X40590207Y10588460D01*
X40682333Y10599590D01*
X40851667Y10626667D01*
X40851667Y9609667D01*
X40703500Y9609667D01*
X40601380Y9600196D01*
X40560176Y9563222D01*
X40555333Y9525000D01*
X40561699Y9484774D01*
X40591541Y9459778D01*
X40660973Y9446432D01*
X40786109Y9441153D01*
X40936333Y9440333D01*
X41117351Y9441748D01*
X41229832Y9448380D01*
X41289891Y9463809D01*
X41313644Y9491617D01*
X41317333Y9525000D01*
X41300759Y9583354D01*
X41236055Y9606899D01*
X41169167Y9609667D01*
X41021000Y9609667D01*
X41021000Y10649360D01*
X49318333Y10649360D01*
X49334927Y10585592D01*
X49396107Y10566292D01*
X49510953Y10583812D01*
X49657000Y10616751D01*
X49657000Y9609667D01*
X49508833Y9609667D01*
X49406714Y9600196D01*
X49365510Y9563222D01*
X49360667Y9525000D01*
X49367033Y9484774D01*
X49396874Y9459778D01*
X49466306Y9446432D01*
X49591443Y9441153D01*
X49741667Y9440333D01*
X49922684Y9441748D01*
X50035165Y9448380D01*
X50095225Y9463809D01*
X50118977Y9491617D01*
X50122542Y9523872D01*
X50426874Y9523872D01*
X50456128Y9474251D01*
X50554432Y9449445D01*
X50723751Y9441029D01*
X50842333Y9440333D01*
X51035008Y9441496D01*
X51158351Y9447025D01*
X51227686Y9459986D01*
X51258338Y9483445D01*
X51265632Y9520466D01*
X51265667Y9525000D01*
X51257900Y9568948D01*
X51222701Y9594402D01*
X51142217Y9606306D01*
X50998598Y9609605D01*
X50959973Y9609667D01*
X50654279Y9609667D01*
X50912857Y9874250D01*
X51089947Y10067123D01*
X51204435Y10224208D01*
X51262446Y10359168D01*
X51270102Y10485662D01*
X51239370Y10602604D01*
X51201610Y10649466D01*
X59273194Y10649466D01*
X59273389Y10601452D01*
X59312986Y10585725D01*
X59412198Y10595839D01*
X59431722Y10598906D01*
X59605333Y10626667D01*
X59605333Y9609667D01*
X59457167Y9609667D01*
X59355047Y9600196D01*
X59313843Y9563222D01*
X59309000Y9525000D01*
X59315366Y9484774D01*
X59345208Y9459778D01*
X59414640Y9446432D01*
X59539776Y9441153D01*
X59690000Y9440333D01*
X59871017Y9441748D01*
X59983499Y9448380D01*
X60043558Y9463809D01*
X60067310Y9491617D01*
X60071000Y9525000D01*
X60054426Y9583354D01*
X59989722Y9606899D01*
X59922833Y9609667D01*
X59774667Y9609667D01*
X59774667Y10683268D01*
X60409667Y10683268D01*
X60424241Y10647593D01*
X60480250Y10635152D01*
X60596123Y10643093D01*
X60637367Y10648024D01*
X60835433Y10656402D01*
X60965076Y10621221D01*
X61032027Y10539782D01*
X61044667Y10456333D01*
X61011336Y10336585D01*
X60910519Y10266347D01*
X60751116Y10244667D01*
X60656917Y10231986D01*
X60623013Y10184453D01*
X60621333Y10160000D01*
X60635827Y10104218D01*
X60694149Y10079841D01*
X60787643Y10075333D01*
X60949926Y10047528D01*
X61051978Y9967640D01*
X61087000Y9842500D01*
X61049815Y9718301D01*
X60949274Y9629676D01*
X60801899Y9584125D01*
X60624211Y9589152D01*
X60560604Y9603499D01*
X60461081Y9625890D01*
X60418420Y9614524D01*
X60409667Y9567449D01*
X60421892Y9507634D01*
X60469161Y9470918D01*
X60567367Y9451616D01*
X60732401Y9444042D01*
X60755668Y9443676D01*
X60910918Y9449080D01*
X61018084Y9477426D01*
X61112790Y9538931D01*
X61126085Y9549930D01*
X61230916Y9685967D01*
X61263432Y9842455D01*
X61222863Y9997213D01*
X61145114Y10097784D01*
X61076296Y10168130D01*
X61067471Y10205778D01*
X61106024Y10228536D01*
X61191085Y10300389D01*
X61227197Y10414397D01*
X61216370Y10545098D01*
X61173465Y10638925D01*
X69215000Y10638925D01*
X69230914Y10598064D01*
X69292207Y10588460D01*
X69384333Y10599590D01*
X69553667Y10626667D01*
X69553667Y9609667D01*
X69405500Y9609667D01*
X69303380Y9600196D01*
X69262176Y9563222D01*
X69257333Y9525000D01*
X69263699Y9484774D01*
X69293541Y9459778D01*
X69362973Y9446432D01*
X69488109Y9441153D01*
X69638333Y9440333D01*
X69819351Y9441748D01*
X69931832Y9448380D01*
X69991891Y9463809D01*
X70015644Y9491617D01*
X70019333Y9525000D01*
X70002759Y9583354D01*
X69938055Y9606899D01*
X69871167Y9609667D01*
X69723000Y9609667D01*
X69723000Y9849729D01*
X70273333Y9849729D01*
X70289687Y9813277D01*
X70349241Y9790117D01*
X70467731Y9776176D01*
X70580250Y9770271D01*
X70887167Y9757833D01*
X70900305Y9599083D01*
X70919377Y9490455D01*
X70960421Y9445426D01*
X70995555Y9440333D01*
X71049464Y9455467D01*
X71073241Y9515392D01*
X71077667Y9609667D01*
X71084767Y9720451D01*
X71113464Y9769413D01*
X71162333Y9779000D01*
X71231285Y9805470D01*
X71247000Y9842500D01*
X71211707Y9894214D01*
X71162333Y9906000D01*
X71124562Y9911573D01*
X71100066Y9938273D01*
X71085992Y10001067D01*
X71079490Y10114925D01*
X71077708Y10294815D01*
X71077667Y10350500D01*
X71077667Y10658987D01*
X78697667Y10658987D01*
X78707633Y10607449D01*
X78752657Y10591075D01*
X78855429Y10602566D01*
X78867000Y10604500D01*
X79036333Y10633109D01*
X79036333Y9609667D01*
X78888167Y9609667D01*
X78778580Y9595897D01*
X78740268Y9551950D01*
X78740000Y9546167D01*
X78754847Y9515188D01*
X78809036Y9495891D01*
X78917035Y9485866D01*
X79093313Y9482700D01*
X79121000Y9482667D01*
X79306875Y9485141D01*
X79422654Y9494173D01*
X79482805Y9512173D01*
X79501799Y9541552D01*
X79502000Y9546167D01*
X79477308Y9582261D01*
X79798333Y9582261D01*
X79835550Y9515017D01*
X79932957Y9470957D01*
X80069191Y9450520D01*
X80222889Y9454148D01*
X80372687Y9482277D01*
X80497221Y9535349D01*
X80538844Y9567030D01*
X80637121Y9710430D01*
X80674347Y9880833D01*
X80652133Y10053065D01*
X80572086Y10201955D01*
X80493793Y10271719D01*
X80388522Y10313449D01*
X80251741Y10335886D01*
X80225120Y10336930D01*
X80115287Y10342447D01*
X80065922Y10370474D01*
X80052834Y10444354D01*
X80052333Y10503657D01*
X80052333Y10668000D01*
X80327500Y10668000D01*
X80481845Y10672239D01*
X80567631Y10687387D01*
X80600652Y10717089D01*
X80602667Y10731500D01*
X80587304Y10763247D01*
X80531383Y10782677D01*
X80420153Y10792393D01*
X80242833Y10795000D01*
X79883000Y10795000D01*
X79883000Y10163989D01*
X80084222Y10187821D01*
X80227532Y10195055D01*
X80323801Y10170399D01*
X80378750Y10132910D01*
X80478999Y10005055D01*
X80497192Y9865548D01*
X80432205Y9723747D01*
X80428548Y9719032D01*
X80371557Y9654063D01*
X80313562Y9620564D01*
X80227891Y9611298D01*
X80087870Y9619027D01*
X80066321Y9620739D01*
X79915691Y9628982D01*
X79832474Y9621696D01*
X79800453Y9596553D01*
X79798333Y9582261D01*
X79477308Y9582261D01*
X79469870Y9593133D01*
X79367328Y9609552D01*
X79353833Y9609667D01*
X79205667Y9609667D01*
X79205667Y10795000D01*
X79083958Y10795000D01*
X78884724Y10780958D01*
X78754579Y10740174D01*
X78699250Y10674666D01*
X78697667Y10658987D01*
X71077667Y10658987D01*
X71077667Y10795000D01*
X70957090Y10795000D01*
X70901237Y10787627D01*
X70847659Y10757720D01*
X70785660Y10693599D01*
X70704542Y10583583D01*
X70593608Y10415991D01*
X70554924Y10355874D01*
X70446330Y10181314D01*
X70357178Y10028081D01*
X70296507Y9912419D01*
X70273354Y9850572D01*
X70273333Y9849729D01*
X69723000Y9849729D01*
X69723000Y10805908D01*
X69503182Y10776748D01*
X69349980Y10753388D01*
X69262984Y10728553D01*
X69224042Y10693561D01*
X69215001Y10639733D01*
X69215000Y10638925D01*
X61173465Y10638925D01*
X61160613Y10667030D01*
X61064623Y10753315D01*
X60944608Y10793155D01*
X60798379Y10808106D01*
X60648965Y10800629D01*
X60519398Y10773189D01*
X60432708Y10728248D01*
X60409667Y10683268D01*
X59774667Y10683268D01*
X59774667Y10795000D01*
X59637083Y10790780D01*
X59443220Y10768602D01*
X59319569Y10717470D01*
X59273194Y10649466D01*
X51201610Y10649466D01*
X51171119Y10687305D01*
X51054348Y10747381D01*
X50909641Y10782060D01*
X50757582Y10790576D01*
X50618754Y10772157D01*
X50513741Y10726037D01*
X50463125Y10651446D01*
X50461333Y10631666D01*
X50467714Y10583389D01*
X50501430Y10571615D01*
X50584340Y10593553D01*
X50632371Y10609831D01*
X50812507Y10645127D01*
X50955916Y10621516D01*
X51051174Y10545974D01*
X51086853Y10425480D01*
X51076035Y10338889D01*
X51035740Y10263588D01*
X50948808Y10147286D01*
X50829402Y10007903D01*
X50733769Y9905876D01*
X50567659Y9731260D01*
X50464706Y9606733D01*
X50426874Y9523872D01*
X50122542Y9523872D01*
X50122667Y9525000D01*
X50106092Y9583354D01*
X50041389Y9606899D01*
X49974500Y9609667D01*
X49826333Y9609667D01*
X49826333Y10804614D01*
X49630421Y10775235D01*
X49465256Y10746442D01*
X49368851Y10717261D01*
X49325508Y10681359D01*
X49318333Y10649360D01*
X41021000Y10649360D01*
X41021000Y10805908D01*
X40801182Y10776748D01*
X40647980Y10753388D01*
X40560984Y10728553D01*
X40522042Y10693561D01*
X40513001Y10639733D01*
X40513000Y10638925D01*
X39862055Y10638925D01*
X39850517Y10732420D01*
X39833716Y10775039D01*
X39768690Y10785537D01*
X39652669Y10781649D01*
X39579716Y10773565D01*
X39451821Y10749984D01*
X39388616Y10717850D01*
X39370156Y10666220D01*
X39370000Y10658489D01*
X31215805Y10658489D01*
X31162349Y10725187D01*
X31011069Y10795860D01*
X30932199Y10803467D01*
X30742693Y10772792D01*
X30606638Y10678549D01*
X30549435Y10592662D01*
X30482228Y10393531D01*
X30457487Y10164727D01*
X29845000Y10164727D01*
X29845000Y10202333D01*
X29845227Y10442965D01*
X29841649Y10610738D01*
X29827878Y10717423D01*
X29797528Y10774789D01*
X29744210Y10794605D01*
X29661536Y10788640D01*
X29543119Y10768664D01*
X29538083Y10767829D01*
X29427968Y10737925D01*
X29383225Y10688705D01*
X29379333Y10657750D01*
X20701502Y10657750D01*
X20640857Y10724996D01*
X20531155Y10778879D01*
X20338904Y10804495D01*
X20169368Y10757224D01*
X20038088Y10646077D01*
X19960605Y10480062D01*
X19953386Y10443919D01*
X10845306Y10443919D01*
X10832869Y10568696D01*
X10776318Y10690912D01*
X10680340Y10769222D01*
X10665410Y10774656D01*
X10519563Y10799400D01*
X10352773Y10797813D01*
X10207085Y10771715D01*
X10160206Y10752777D01*
X10061078Y10657740D01*
X10013804Y10525125D01*
X10020506Y10384031D01*
X10083307Y10263558D01*
X10122027Y10229444D01*
X10171083Y10187785D01*
X10166691Y10148133D01*
X10104145Y10082529D01*
X10096023Y10074886D01*
X10007974Y9939468D01*
X9987969Y9780248D01*
X534158Y9780248D01*
X540507Y9795032D01*
X634751Y10034062D01*
X648178Y10069037D01*
X730301Y10286361D01*
X800392Y10477431D01*
X853250Y10627621D01*
X883675Y10722307D01*
X889000Y10746370D01*
X852868Y10771483D01*
X741819Y10787372D01*
X551873Y10794494D01*
X465667Y10795000D01*
X272853Y10793783D01*
X149404Y10788137D01*
X80029Y10775068D01*
X49440Y10751582D01*
X42346Y10714686D01*
X42333Y10712114D01*
X-9144415Y10712114D01*
X-9169771Y10771337D01*
X-9253575Y10801590D01*
X-9405148Y10804422D01*
X-9482667Y10798822D01*
X-9663530Y10743816D01*
X-9805147Y10619815D01*
X-9901312Y10435777D01*
X-9945816Y10200660D01*
X-9948175Y10126890D01*
X-19112176Y10126890D01*
X-19187053Y10228165D01*
X-19346000Y10311744D01*
X-19554236Y10335479D01*
X-19610917Y10331547D01*
X-19659425Y10343240D01*
X-19681086Y10404522D01*
X-19685000Y10496006D01*
X-19685000Y10668000D01*
X-19409833Y10668000D01*
X-19255488Y10672239D01*
X-19169703Y10687387D01*
X-19136682Y10717089D01*
X-19134667Y10731500D01*
X-19150029Y10763247D01*
X-19205950Y10782677D01*
X-19317180Y10792393D01*
X-19494500Y10795000D01*
X-19854333Y10795000D01*
X-19854333Y10163989D01*
X-19653250Y10187493D01*
X-19512111Y10194695D01*
X-19413194Y10169707D01*
X-19335750Y10118926D01*
X-19241357Y9998218D01*
X-19222049Y9858954D01*
X-19279195Y9723468D01*
X-19309391Y9688943D01*
X-19373321Y9637944D01*
X-19450039Y9615220D01*
X-19568021Y9615094D01*
X-19648058Y9621428D01*
X-19787614Y9631208D01*
X-19862607Y9625361D01*
X-19892377Y9599609D01*
X-19896667Y9566423D01*
X-29145186Y9566423D01*
X-29133361Y9620602D01*
X-29114229Y9729095D01*
X-29073022Y9773985D01*
X-29038111Y9779000D01*
X-28970900Y9806133D01*
X-28956000Y9842500D01*
X-28991293Y9894214D01*
X-29040667Y9906000D01*
X-29078438Y9911573D01*
X-29102934Y9938273D01*
X-29117008Y10001067D01*
X-29123510Y10114925D01*
X-29125292Y10294815D01*
X-29125333Y10350500D01*
X-29125333Y10795000D01*
X-29245877Y10795000D01*
X-29302914Y10787157D01*
X-29358395Y10755839D01*
X-29423424Y10689366D01*
X-29509109Y10576056D01*
X-29626556Y10404229D01*
X-29648044Y10372018D01*
X-29758329Y10199547D01*
X-29848356Y10045756D01*
X-29908625Y9927782D01*
X-29929667Y9864018D01*
X-38979023Y9864018D01*
X-38977364Y9893805D01*
X-39024371Y10032267D01*
X-39090880Y10105895D01*
X-39182109Y10174710D01*
X-39085555Y10271264D01*
X-39004778Y10400345D01*
X-38998588Y10535339D01*
X-39060163Y10658906D01*
X-39182679Y10753708D01*
X-39290233Y10791349D01*
X-39448689Y10810217D01*
X-39599169Y10800095D01*
X-39718037Y10765420D01*
X-39781659Y10710630D01*
X-39785543Y10698354D01*
X-39784548Y10656831D01*
X-39748118Y10639308D01*
X-39657780Y10641771D01*
X-39568965Y10651297D01*
X-39427459Y10662823D01*
X-39338835Y10651640D01*
X-39272994Y10611860D01*
X-39248216Y10588549D01*
X-39174173Y10496933D01*
X-39170862Y10421968D01*
X-39237699Y10334670D01*
X-39243000Y10329333D01*
X-39366759Y10260163D01*
X-39478938Y10244667D01*
X-39580319Y10236425D01*
X-39617040Y10204852D01*
X-39615966Y10170583D01*
X-39566778Y10110414D01*
X-39442986Y10075256D01*
X-39432945Y10073849D01*
X-39282663Y10045073D01*
X-39198964Y9999277D01*
X-39163777Y9920934D01*
X-39158333Y9837842D01*
X-39168738Y9735816D01*
X-39215620Y9674472D01*
X-39312513Y9625593D01*
X-39428514Y9589192D01*
X-39545455Y9586064D01*
X-39695792Y9616937D01*
X-39761583Y9635697D01*
X-39821585Y9630243D01*
X-39835667Y9573714D01*
X-49011431Y9573714D01*
X-49037945Y9584592D01*
X-49165253Y9603127D01*
X-49242741Y9609667D01*
X-49526204Y9630833D01*
X-49271495Y9915371D01*
X-49113418Y10104112D01*
X-49015820Y10254847D01*
X-48972762Y10382082D01*
X-48978308Y10500323D01*
X-49002412Y10572787D01*
X-49086165Y10702171D01*
X-49212267Y10773233D01*
X-49396763Y10795000D01*
X-49397461Y10795000D01*
X-49582336Y10778454D01*
X-49713699Y10732322D01*
X-49779042Y10661861D01*
X-49784000Y10632518D01*
X-59230599Y10632518D01*
X-59243227Y10721700D01*
X-59276993Y10779630D01*
X-59336412Y10799263D01*
X-59428636Y10792178D01*
X-59560816Y10769955D01*
X-59573583Y10767829D01*
X-59683436Y10738126D01*
X-59728229Y10689183D01*
X-59732333Y10656922D01*
X-68217703Y10656922D01*
X-68253995Y10712357D01*
X-68374569Y10786305D01*
X-68544475Y10804080D01*
X-68545399Y10804054D01*
X-68720615Y10762923D01*
X-68849686Y10650813D01*
X-68932603Y10467741D01*
X-68969357Y10213720D01*
X-68971368Y10117667D01*
X-70400333Y10117667D01*
X-70400333Y14901333D01*
X-69511333Y14901333D01*
X-69511333Y11514667D01*
X-69215000Y11514667D01*
X-69215000Y14901333D01*
X-68495333Y14901333D01*
X-68495333Y12192000D01*
X-68241333Y12192000D01*
X-68241333Y14901333D01*
X-67521667Y14901333D01*
X-67521667Y12192000D01*
X-67225333Y12192000D01*
X-67225333Y14901333D01*
X-66505667Y14901333D01*
X-66505667Y12192000D01*
X-66251667Y12192000D01*
X-66251667Y14901333D01*
X-65532000Y14901333D01*
X-65532000Y12192000D01*
X-65235667Y12192000D01*
X-65235667Y14901333D01*
X-64516000Y14901333D01*
X-64516000Y11853333D01*
X-64219667Y11853333D01*
X-64219667Y14901333D01*
X-63500000Y14901333D01*
X-63500000Y12192000D01*
X-63246000Y12192000D01*
X-63246000Y14901333D01*
X-62526333Y14901333D01*
X-62526333Y12192000D01*
X-62230000Y12192000D01*
X-62230000Y14901333D01*
X-61510333Y14901333D01*
X-61510333Y12192000D01*
X-61256333Y12192000D01*
X-61256333Y14901333D01*
X-60536667Y14901333D01*
X-60536667Y12192000D01*
X-60240333Y12192000D01*
X-60240333Y14901333D01*
X-59520667Y14901333D01*
X-59520667Y11255302D01*
X-59383083Y11268568D01*
X-59245500Y11281833D01*
X-59223424Y14901333D01*
X-58547000Y14901333D01*
X-58547000Y12192000D01*
X-58250667Y12192000D01*
X-58250667Y14901333D01*
X-57531000Y14901333D01*
X-57531000Y12192000D01*
X-57234667Y12192000D01*
X-57234667Y14901333D01*
X-56515000Y14901333D01*
X-56515000Y12192000D01*
X-56261000Y12192000D01*
X-56261000Y14901333D01*
X-55541333Y14901333D01*
X-55541333Y12192000D01*
X-55245000Y12192000D01*
X-55245000Y14901333D01*
X-54525333Y14901333D01*
X-54525333Y11853333D01*
X-54271333Y11853333D01*
X-54271333Y14901333D01*
X-53551667Y14901333D01*
X-53551667Y12192000D01*
X-53255333Y12192000D01*
X-53255333Y14901333D01*
X-52535667Y14901333D01*
X-52535667Y12192000D01*
X-52239333Y12192000D01*
X-52239333Y14901333D01*
X-51562000Y14901333D01*
X-51562000Y12192000D01*
X-51265667Y12192000D01*
X-51265667Y14901333D01*
X-50546000Y14901333D01*
X-50546000Y12192000D01*
X-50249667Y12192000D01*
X-50249667Y14901333D01*
X-49530000Y14901333D01*
X-49530000Y11260667D01*
X-49276000Y11260667D01*
X-49276000Y14901333D01*
X-48556333Y14901333D01*
X-48556333Y12192000D01*
X-48260000Y12192000D01*
X-48260000Y14901333D01*
X-47540333Y14901333D01*
X-47540333Y12192000D01*
X-47286333Y12192000D01*
X-47286333Y14901333D01*
X-46566667Y14901333D01*
X-46566667Y12192000D01*
X-46270333Y12192000D01*
X-46270333Y14901333D01*
X-45550667Y14901333D01*
X-45550667Y12192000D01*
X-45254333Y12192000D01*
X-45254333Y14901333D01*
X-44577000Y14901333D01*
X-44577000Y11853333D01*
X-44280667Y11853333D01*
X-44280667Y14901333D01*
X-43561000Y14901333D01*
X-43561000Y12192000D01*
X-43264667Y12192000D01*
X-43264667Y14901333D01*
X-42545000Y14901333D01*
X-42545000Y12192000D01*
X-42291000Y12192000D01*
X-42291000Y14901333D01*
X-41571333Y14901333D01*
X-41571333Y12192000D01*
X-41275000Y12192000D01*
X-41275000Y14901333D01*
X-40555333Y14901333D01*
X-40555333Y12192000D01*
X-40301333Y12192000D01*
X-40301333Y14901333D01*
X-39582576Y14901333D01*
X-39560500Y11281833D01*
X-39422917Y11268568D01*
X-39285333Y11255302D01*
X-39285333Y14901333D01*
X-38565667Y14901333D01*
X-38565667Y12192000D01*
X-38269333Y12192000D01*
X-38269333Y14901333D01*
X-37549667Y14901333D01*
X-37549667Y12192000D01*
X-37295667Y12192000D01*
X-37295667Y14901333D01*
X-36576000Y14901333D01*
X-36576000Y12192000D01*
X-36279667Y12192000D01*
X-36279667Y14901333D01*
X-35560000Y14901333D01*
X-35560000Y12192000D01*
X-35306000Y12192000D01*
X-35306000Y14901333D01*
X-34586333Y14901333D01*
X-34586333Y11853333D01*
X-34290000Y11853333D01*
X-34290000Y14901333D01*
X-33570333Y14901333D01*
X-33570333Y12192000D01*
X-33316333Y12192000D01*
X-33316333Y14901333D01*
X-32596667Y14901333D01*
X-32596667Y12192000D01*
X-32300333Y12192000D01*
X-32300333Y14901333D01*
X-31580667Y14901333D01*
X-31580667Y12192000D01*
X-31284333Y12192000D01*
X-31284333Y14901333D01*
X-30564667Y14901333D01*
X-30564667Y12192000D01*
X-30310667Y12192000D01*
X-30310667Y14901333D01*
X-29591000Y14901333D01*
X-29591000Y11260667D01*
X-29294667Y11260667D01*
X-29294667Y14901333D01*
X-28575000Y14901333D01*
X-28575000Y12192000D01*
X-28321000Y12192000D01*
X-28321000Y14901333D01*
X-27601333Y14901333D01*
X-27601333Y12192000D01*
X-27305000Y12192000D01*
X-27305000Y14901333D01*
X-26585333Y14901333D01*
X-26585333Y12192000D01*
X-26289000Y12192000D01*
X-26289000Y14901333D01*
X-25611667Y14901333D01*
X-25611667Y12192000D01*
X-25315333Y12192000D01*
X-25315333Y14901333D01*
X-24595667Y14901333D01*
X-24595667Y11853333D01*
X-24299333Y11853333D01*
X-24299333Y14901333D01*
X-23579667Y14901333D01*
X-23579667Y12192000D01*
X-23325667Y12192000D01*
X-23325667Y14901333D01*
X-22606000Y14901333D01*
X-22606000Y12192000D01*
X-22309667Y12192000D01*
X-22309667Y14901333D01*
X-21590000Y14901333D01*
X-21590000Y12192000D01*
X-21336000Y12192000D01*
X-21336000Y14901333D01*
X-20616333Y14901333D01*
X-20616333Y12192000D01*
X-20320000Y12192000D01*
X-20320000Y14901333D01*
X-19600333Y14901333D01*
X-19600333Y13078318D01*
X-19600334Y11255302D01*
X-19462750Y11268568D01*
X-19325167Y11281833D01*
X-19303091Y14901333D01*
X-18626667Y14901333D01*
X-18626667Y12192000D01*
X-18330333Y12192000D01*
X-18330333Y14901333D01*
X-17610667Y14901333D01*
X-17610667Y12192000D01*
X-17314333Y12192000D01*
X-17314333Y14901333D01*
X-16594667Y14901333D01*
X-16594667Y12192000D01*
X-16340667Y12192000D01*
X-16340667Y14901333D01*
X-15621000Y14901333D01*
X-15621000Y12192000D01*
X-15324667Y12192000D01*
X-15324667Y14901333D01*
X-14605000Y14901333D01*
X-14605000Y11853333D01*
X-14351000Y11853333D01*
X-14351000Y14901333D01*
X-13631333Y14901333D01*
X-13631333Y12192000D01*
X-13335000Y12192000D01*
X-13335000Y14901333D01*
X-12615333Y14901333D01*
X-12615333Y12192000D01*
X-12319000Y12192000D01*
X-12319000Y14901333D01*
X-11641667Y14901333D01*
X-11641667Y12192000D01*
X-11345333Y12192000D01*
X-11345333Y14901333D01*
X-10625667Y14901333D01*
X-10625667Y12192000D01*
X-10329333Y12192000D01*
X-10329333Y14901333D01*
X-9609667Y14901333D01*
X-9609667Y11260667D01*
X-9355667Y11260667D01*
X-9355667Y14901333D01*
X-8636000Y14901333D01*
X-8636000Y12192000D01*
X-8339667Y12192000D01*
X-8339667Y14901333D01*
X-7620000Y14901333D01*
X-7620000Y12192000D01*
X-7366000Y12192000D01*
X-7366000Y14901333D01*
X-6646333Y14901333D01*
X-6646333Y12192000D01*
X-6350000Y12192000D01*
X-6350000Y14901333D01*
X-5630333Y14901333D01*
X-5630333Y12192000D01*
X-5334000Y12192000D01*
X-5334000Y14901333D01*
X-4614333Y14901333D01*
X-4614333Y11853333D01*
X-4360333Y11853333D01*
X-4360333Y14901333D01*
X-3640667Y14901333D01*
X-3640667Y12192000D01*
X-3344333Y12192000D01*
X-3344333Y14901333D01*
X-2624667Y14901333D01*
X-2624667Y12192000D01*
X-2370667Y12192000D01*
X-2370667Y14901333D01*
X-1651000Y14901333D01*
X-1651000Y12192000D01*
X-1354667Y12192000D01*
X-1354667Y14901333D01*
X-635000Y14901333D01*
X-635000Y12192000D01*
X-381000Y12192000D01*
X-381000Y14889090D01*
X-95250Y14916078D01*
X64101Y14930022D01*
X199049Y14939880D01*
X275167Y14943373D01*
X295568Y14941538D01*
X312397Y14930918D01*
X325998Y14904085D01*
X336715Y14853610D01*
X344891Y14772063D01*
X350870Y14652017D01*
X354995Y14486041D01*
X357611Y14266708D01*
X359059Y13986589D01*
X359685Y13638254D01*
X359831Y13214275D01*
X359833Y13112757D01*
X359833Y11281833D01*
X497417Y11268568D01*
X635000Y11255302D01*
X635000Y14943667D01*
X1354667Y14943667D01*
X1354667Y12192000D01*
X1653267Y12192000D01*
X1641550Y13567854D01*
X1629833Y14943709D01*
X2370667Y14943667D01*
X2370667Y12192000D01*
X2624667Y12192000D01*
X2624667Y14943667D01*
X3344333Y14943667D01*
X3344333Y12192000D01*
X3640667Y12192000D01*
X3640667Y14943667D01*
X4360333Y14943667D01*
X4360333Y12192000D01*
X4614333Y12192000D01*
X4614333Y14943667D01*
X5355167Y14943701D01*
X5343559Y13398517D01*
X5331952Y11853333D01*
X5630333Y11853333D01*
X5630333Y14943667D01*
X6350000Y14943667D01*
X6350000Y12192000D01*
X6648600Y12192000D01*
X6636883Y13567854D01*
X6625167Y14943709D01*
X7344833Y14943709D01*
X7333116Y13567854D01*
G36*
X-68394010Y10606691D02*
X-68313487Y10493755D01*
X-68259651Y10329057D01*
X-68241399Y10134567D01*
X-68260299Y9915272D01*
X-68312251Y9742454D01*
X-68389915Y9623941D01*
X-68485950Y9567559D01*
X-68593017Y9581134D01*
X-68689856Y9656414D01*
X-68734617Y9727604D01*
X-68763261Y9834591D01*
X-68780173Y9997385D01*
X-68784964Y10090331D01*
X-68789638Y10268741D01*
X-68782763Y10386849D01*
X-68760242Y10468689D01*
X-68717980Y10538298D01*
X-68705969Y10553921D01*
X-68599225Y10644875D01*
X-68492248Y10659765D01*
X-68394010Y10606691D01*
X-68394010Y10606691D01*
G37*
X-68394010Y10606691D02*
X-68313487Y10493755D01*
X-68259651Y10329057D01*
X-68241399Y10134567D01*
X-68260299Y9915272D01*
X-68312251Y9742454D01*
X-68389915Y9623941D01*
X-68485950Y9567559D01*
X-68593017Y9581134D01*
X-68689856Y9656414D01*
X-68734617Y9727604D01*
X-68763261Y9834591D01*
X-68780173Y9997385D01*
X-68784964Y10090331D01*
X-68789638Y10268741D01*
X-68782763Y10386849D01*
X-68760242Y10468689D01*
X-68717980Y10538298D01*
X-68705969Y10553921D01*
X-68599225Y10644875D01*
X-68492248Y10659765D01*
X-68394010Y10606691D01*
G36*
X-29337752Y10255250D02*
X-29337000Y9906000D01*
X-29548667Y9906000D01*
X-29669450Y9909652D01*
X-29746084Y9918989D01*
X-29760333Y9926289D01*
X-29738964Y9968492D01*
X-29681665Y10064763D01*
X-29598654Y10198185D01*
X-29549418Y10275539D01*
X-29338503Y10604500D01*
X-29337752Y10255250D01*
X-29337752Y10255250D01*
G37*
X-29337752Y10255250D02*
X-29337000Y9906000D01*
X-29548667Y9906000D01*
X-29669450Y9909652D01*
X-29746084Y9918989D01*
X-29760333Y9926289D01*
X-29738964Y9968492D01*
X-29681665Y10064763D01*
X-29598654Y10198185D01*
X-29549418Y10275539D01*
X-29338503Y10604500D01*
X-29337752Y10255250D01*
G36*
X-9386991Y10174445D02*
X-9313333Y10117667D01*
X-9246178Y10003091D01*
X-9231969Y9867201D01*
X-9263758Y9733914D01*
X-9334593Y9627148D01*
X-9437525Y9570821D01*
X-9473247Y9567333D01*
X-9564283Y9590831D01*
X-9642581Y9633234D01*
X-9706799Y9701670D01*
X-9733666Y9805881D01*
X-9736667Y9884833D01*
X-9724783Y10019907D01*
X-9681518Y10103238D01*
X-9642581Y10136433D01*
X-9508017Y10196533D01*
X-9386991Y10174445D01*
X-9386991Y10174445D01*
G37*
X-9386991Y10174445D02*
X-9313333Y10117667D01*
X-9246178Y10003091D01*
X-9231969Y9867201D01*
X-9263758Y9733914D01*
X-9334593Y9627148D01*
X-9437525Y9570821D01*
X-9473247Y9567333D01*
X-9564283Y9590831D01*
X-9642581Y9633234D01*
X-9706799Y9701670D01*
X-9733666Y9805881D01*
X-9736667Y9884833D01*
X-9724783Y10019907D01*
X-9681518Y10103238D01*
X-9642581Y10136433D01*
X-9508017Y10196533D01*
X-9386991Y10174445D01*
G36*
X10593188Y10034365D02*
X10640272Y9997917D01*
X10702469Y9877096D01*
X10695170Y9751845D01*
X10629125Y9644733D01*
X10515085Y9578328D01*
X10435167Y9567333D01*
X10334078Y9591257D01*
X10254086Y9633234D01*
X10179875Y9731021D01*
X10161529Y9858271D01*
X10201719Y9978576D01*
X10226524Y10008810D01*
X10332526Y10063024D01*
X10468278Y10071186D01*
X10593188Y10034365D01*
X10593188Y10034365D01*
G37*
X10593188Y10034365D02*
X10640272Y9997917D01*
X10702469Y9877096D01*
X10695170Y9751845D01*
X10629125Y9644733D01*
X10515085Y9578328D01*
X10435167Y9567333D01*
X10334078Y9591257D01*
X10254086Y9633234D01*
X10179875Y9731021D01*
X10161529Y9858271D01*
X10201719Y9978576D01*
X10226524Y10008810D01*
X10332526Y10063024D01*
X10468278Y10071186D01*
X10593188Y10034365D01*
G36*
X10574451Y10641854D02*
X10650279Y10560940D01*
X10668000Y10456333D01*
X10639239Y10329711D01*
X10550234Y10260777D01*
X10435167Y10244667D01*
X10325551Y10260156D01*
X10253133Y10295467D01*
X10214015Y10374627D01*
X10202333Y10456333D01*
X10231094Y10582956D01*
X10320099Y10651890D01*
X10435167Y10668000D01*
X10574451Y10641854D01*
X10574451Y10641854D01*
G37*
X10574451Y10641854D02*
X10650279Y10560940D01*
X10668000Y10456333D01*
X10639239Y10329711D01*
X10550234Y10260777D01*
X10435167Y10244667D01*
X10325551Y10260156D01*
X10253133Y10295467D01*
X10214015Y10374627D01*
X10202333Y10456333D01*
X10231094Y10582956D01*
X10320099Y10651890D01*
X10435167Y10668000D01*
X10574451Y10641854D01*
G36*
X20523822Y10621174D02*
X20609399Y10516006D01*
X20643501Y10406388D01*
X20649698Y10285898D01*
X20609025Y10196487D01*
X20559792Y10141944D01*
X20475448Y10064878D01*
X20410558Y10041043D01*
X20327229Y10061380D01*
X20287634Y10076880D01*
X20193577Y10154800D01*
X20133309Y10279952D01*
X20122445Y10416876D01*
X20127216Y10441138D01*
X20194059Y10578975D01*
X20295925Y10654020D01*
X20412589Y10667632D01*
X20523822Y10621174D01*
X20523822Y10621174D01*
G37*
X20523822Y10621174D02*
X20609399Y10516006D01*
X20643501Y10406388D01*
X20649698Y10285898D01*
X20609025Y10196487D01*
X20559792Y10141944D01*
X20475448Y10064878D01*
X20410558Y10041043D01*
X20327229Y10061380D01*
X20287634Y10076880D01*
X20193577Y10154800D01*
X20133309Y10279952D01*
X20122445Y10416876D01*
X20127216Y10441138D01*
X20194059Y10578975D01*
X20295925Y10654020D01*
X20412589Y10667632D01*
X20523822Y10621174D01*
G36*
X31010983Y10651994D02*
X31087985Y10581381D01*
X31147161Y10449077D01*
X31184950Y10276851D01*
X31197793Y10086469D01*
X31182130Y9899696D01*
X31152880Y9784424D01*
X31075367Y9648119D01*
X30970796Y9579317D01*
X30855052Y9583115D01*
X30751778Y9655745D01*
X30703790Y9753184D01*
X30669902Y9907046D01*
X30652040Y10089965D01*
X30652130Y10274576D01*
X30672097Y10433515D01*
X30692343Y10500300D01*
X30776005Y10610673D01*
X30896526Y10663735D01*
X31010983Y10651994D01*
X31010983Y10651994D01*
G37*
X31010983Y10651994D02*
X31087985Y10581381D01*
X31147161Y10449077D01*
X31184950Y10276851D01*
X31197793Y10086469D01*
X31182130Y9899696D01*
X31152880Y9784424D01*
X31075367Y9648119D01*
X30970796Y9579317D01*
X30855052Y9583115D01*
X30751778Y9655745D01*
X30703790Y9753184D01*
X30669902Y9907046D01*
X30652040Y10089965D01*
X30652130Y10274576D01*
X30672097Y10433515D01*
X30692343Y10500300D01*
X30776005Y10610673D01*
X30896526Y10663735D01*
X31010983Y10651994D01*
G36*
X70892676Y10543590D02*
X70900582Y10441221D01*
X70900774Y10294662D01*
X70899531Y10255250D01*
X70887167Y9927167D01*
X70660601Y9914222D01*
X70538492Y9913137D01*
X70462569Y9923985D01*
X70448935Y9937650D01*
X70487674Y10011562D01*
X70555703Y10123809D01*
X70640018Y10254894D01*
X70727618Y10385318D01*
X70805499Y10495584D01*
X70860660Y10566194D01*
X70878364Y10581606D01*
X70892676Y10543590D01*
X70892676Y10543590D01*
G37*
X70892676Y10543590D02*
X70900582Y10441221D01*
X70900774Y10294662D01*
X70899531Y10255250D01*
X70887167Y9927167D01*
X70660601Y9914222D01*
X70538492Y9913137D01*
X70462569Y9923985D01*
X70448935Y9937650D01*
X70487674Y10011562D01*
X70555703Y10123809D01*
X70640018Y10254894D01*
X70727618Y10385318D01*
X70805499Y10495584D01*
X70860660Y10566194D01*
X70878364Y10581606D01*
X70892676Y10543590D01*
M02*
