G04 #@! TF.FileFunction,Soldermask,Top*
%FSLAX46Y46*%
G04 Gerber Fmt 4.6, Leading zero omitted, Abs format (unit mm)*
G04 Created by KiCad (PCBNEW 4.0.7-e2-6376~58~ubuntu16.04.1) date Fri Apr 13 16:50:57 2018*
%MOMM*%
%LPD*%
G01*
G04 APERTURE LIST*
%ADD10C,0.100000*%
%ADD11C,0.010000*%
G04 APERTURE END LIST*
D10*
D11*
G36*
X81407000Y-14516100D02*
X-84632800Y-14516100D01*
X-84632800Y-7048500D01*
X81407000Y-7048500D01*
X81407000Y-14516100D01*
X81407000Y-14516100D01*
G37*
X81407000Y-14516100D02*
X-84632800Y-14516100D01*
X-84632800Y-7048500D01*
X81407000Y-7048500D01*
X81407000Y-14516100D01*
G36*
X78028800Y6997700D02*
X-4982634Y6997700D01*
X-6437896Y6997702D01*
X-7887306Y6997706D01*
X-9330654Y6997712D01*
X-10767728Y6997721D01*
X-12198319Y6997732D01*
X-13622217Y6997746D01*
X-15039210Y6997763D01*
X-16449089Y6997782D01*
X-17851644Y6997803D01*
X-19246663Y6997826D01*
X-20633937Y6997852D01*
X-22013255Y6997881D01*
X-23384408Y6997912D01*
X-24747184Y6997945D01*
X-26101373Y6997980D01*
X-27446765Y6998017D01*
X-28783150Y6998057D01*
X-30110318Y6998099D01*
X-31428057Y6998144D01*
X-32736158Y6998190D01*
X-34034410Y6998239D01*
X-35322603Y6998289D01*
X-36600526Y6998342D01*
X-37867970Y6998397D01*
X-39124724Y6998454D01*
X-40370578Y6998513D01*
X-41605321Y6998574D01*
X-42828742Y6998638D01*
X-44040633Y6998703D01*
X-45240781Y6998770D01*
X-46428978Y6998839D01*
X-47605012Y6998910D01*
X-48768673Y6998983D01*
X-49919752Y6999057D01*
X-51058037Y6999134D01*
X-52183318Y6999212D01*
X-53295385Y6999293D01*
X-54394027Y6999375D01*
X-55479035Y6999459D01*
X-56550198Y6999544D01*
X-57607305Y6999632D01*
X-58650147Y6999721D01*
X-59678512Y6999811D01*
X-60692191Y6999904D01*
X-61690973Y6999998D01*
X-62674648Y7000093D01*
X-63643006Y7000191D01*
X-64595836Y7000290D01*
X-65532928Y7000390D01*
X-66454071Y7000492D01*
X-67359055Y7000595D01*
X-68247671Y7000700D01*
X-69119707Y7000807D01*
X-69974953Y7000915D01*
X-70813198Y7001024D01*
X-71634234Y7001135D01*
X-72437848Y7001247D01*
X-73223832Y7001361D01*
X-73991974Y7001475D01*
X-74742064Y7001592D01*
X-75473892Y7001709D01*
X-76187247Y7001828D01*
X-76881920Y7001948D01*
X-77557700Y7002069D01*
X-78214375Y7002192D01*
X-78851738Y7002315D01*
X-79469576Y7002440D01*
X-80067679Y7002566D01*
X-80645837Y7002693D01*
X-81203841Y7002821D01*
X-81741479Y7002951D01*
X-82258541Y7003081D01*
X-82754816Y7003213D01*
X-83230096Y7003345D01*
X-83684168Y7003479D01*
X-84116823Y7003613D01*
X-84527851Y7003748D01*
X-84917041Y7003885D01*
X-85284182Y7004022D01*
X-85629065Y7004160D01*
X-85951479Y7004299D01*
X-86251214Y7004439D01*
X-86528059Y7004580D01*
X-86781805Y7004722D01*
X-87012240Y7004864D01*
X-87219155Y7005007D01*
X-87402338Y7005151D01*
X-87561581Y7005295D01*
X-87696672Y7005441D01*
X-87807400Y7005587D01*
X-87893557Y7005733D01*
X-87954931Y7005880D01*
X-87991312Y7006028D01*
X-88002534Y7006167D01*
X-88003230Y7019404D01*
X-88003911Y7057044D01*
X-88004574Y7118091D01*
X-88005218Y7201548D01*
X-88005840Y7306418D01*
X-88006438Y7431706D01*
X-88007009Y7576413D01*
X-88007552Y7739545D01*
X-88008063Y7920103D01*
X-88008542Y8117092D01*
X-88008985Y8329514D01*
X-88009390Y8556374D01*
X-88009755Y8796674D01*
X-88010078Y9049419D01*
X-88010356Y9313610D01*
X-88010588Y9588253D01*
X-88010770Y9872349D01*
X-88010901Y10164903D01*
X-88010978Y10464918D01*
X-88011000Y10733617D01*
X-88011000Y14452600D01*
X78028800Y14452600D01*
X78028800Y6997700D01*
X78028800Y6997700D01*
G37*
X78028800Y6997700D02*
X-4982634Y6997700D01*
X-6437896Y6997702D01*
X-7887306Y6997706D01*
X-9330654Y6997712D01*
X-10767728Y6997721D01*
X-12198319Y6997732D01*
X-13622217Y6997746D01*
X-15039210Y6997763D01*
X-16449089Y6997782D01*
X-17851644Y6997803D01*
X-19246663Y6997826D01*
X-20633937Y6997852D01*
X-22013255Y6997881D01*
X-23384408Y6997912D01*
X-24747184Y6997945D01*
X-26101373Y6997980D01*
X-27446765Y6998017D01*
X-28783150Y6998057D01*
X-30110318Y6998099D01*
X-31428057Y6998144D01*
X-32736158Y6998190D01*
X-34034410Y6998239D01*
X-35322603Y6998289D01*
X-36600526Y6998342D01*
X-37867970Y6998397D01*
X-39124724Y6998454D01*
X-40370578Y6998513D01*
X-41605321Y6998574D01*
X-42828742Y6998638D01*
X-44040633Y6998703D01*
X-45240781Y6998770D01*
X-46428978Y6998839D01*
X-47605012Y6998910D01*
X-48768673Y6998983D01*
X-49919752Y6999057D01*
X-51058037Y6999134D01*
X-52183318Y6999212D01*
X-53295385Y6999293D01*
X-54394027Y6999375D01*
X-55479035Y6999459D01*
X-56550198Y6999544D01*
X-57607305Y6999632D01*
X-58650147Y6999721D01*
X-59678512Y6999811D01*
X-60692191Y6999904D01*
X-61690973Y6999998D01*
X-62674648Y7000093D01*
X-63643006Y7000191D01*
X-64595836Y7000290D01*
X-65532928Y7000390D01*
X-66454071Y7000492D01*
X-67359055Y7000595D01*
X-68247671Y7000700D01*
X-69119707Y7000807D01*
X-69974953Y7000915D01*
X-70813198Y7001024D01*
X-71634234Y7001135D01*
X-72437848Y7001247D01*
X-73223832Y7001361D01*
X-73991974Y7001475D01*
X-74742064Y7001592D01*
X-75473892Y7001709D01*
X-76187247Y7001828D01*
X-76881920Y7001948D01*
X-77557700Y7002069D01*
X-78214375Y7002192D01*
X-78851738Y7002315D01*
X-79469576Y7002440D01*
X-80067679Y7002566D01*
X-80645837Y7002693D01*
X-81203841Y7002821D01*
X-81741479Y7002951D01*
X-82258541Y7003081D01*
X-82754816Y7003213D01*
X-83230096Y7003345D01*
X-83684168Y7003479D01*
X-84116823Y7003613D01*
X-84527851Y7003748D01*
X-84917041Y7003885D01*
X-85284182Y7004022D01*
X-85629065Y7004160D01*
X-85951479Y7004299D01*
X-86251214Y7004439D01*
X-86528059Y7004580D01*
X-86781805Y7004722D01*
X-87012240Y7004864D01*
X-87219155Y7005007D01*
X-87402338Y7005151D01*
X-87561581Y7005295D01*
X-87696672Y7005441D01*
X-87807400Y7005587D01*
X-87893557Y7005733D01*
X-87954931Y7005880D01*
X-87991312Y7006028D01*
X-88002534Y7006167D01*
X-88003230Y7019404D01*
X-88003911Y7057044D01*
X-88004574Y7118091D01*
X-88005218Y7201548D01*
X-88005840Y7306418D01*
X-88006438Y7431706D01*
X-88007009Y7576413D01*
X-88007552Y7739545D01*
X-88008063Y7920103D01*
X-88008542Y8117092D01*
X-88008985Y8329514D01*
X-88009390Y8556374D01*
X-88009755Y8796674D01*
X-88010078Y9049419D01*
X-88010356Y9313610D01*
X-88010588Y9588253D01*
X-88010770Y9872349D01*
X-88010901Y10164903D01*
X-88010978Y10464918D01*
X-88011000Y10733617D01*
X-88011000Y14452600D01*
X78028800Y14452600D01*
X78028800Y6997700D01*
M02*
