G04 #@! TF.GenerationSoftware,KiCad,Pcbnew,5.0.0-rc2-dev-unknown-0d8692d~82~ubuntu16.04.1*
G04 #@! TF.CreationDate,2018-04-12T16:26:22+01:00*
G04 #@! TF.ProjectId,pcbart,7063626172742E6B696361645F706362,rev?*
G04 #@! TF.SameCoordinates,Original*
G04 #@! TF.FileFunction,Soldermask,Top*
G04 #@! TF.FilePolarity,Negative*
%FSLAX46Y46*%
G04 Gerber Fmt 4.6, Leading zero omitted, Abs format (unit mm)*
G04 Created by KiCad (PCBNEW 5.0.0-rc2-dev-unknown-0d8692d~82~ubuntu16.04.1) date Thu Apr 12 16:26:22 2018*
%MOMM*%
%LPD*%
G01*
G04 APERTURE LIST*
%ADD10C,0.010000*%
G04 APERTURE END LIST*
D10*
G36*
X78020333Y6985000D02*
X-4967111Y6985000D01*
X-7619338Y6985014D01*
X-10251496Y6985057D01*
X-12862306Y6985128D01*
X-15450486Y6985226D01*
X-18014756Y6985351D01*
X-20553835Y6985503D01*
X-23066443Y6985681D01*
X-25551299Y6985884D01*
X-28007122Y6986113D01*
X-30432632Y6986367D01*
X-32826548Y6986646D01*
X-35187589Y6986948D01*
X-37514475Y6987274D01*
X-39805925Y6987623D01*
X-42060658Y6987995D01*
X-44277394Y6988389D01*
X-46454852Y6988805D01*
X-48591751Y6989242D01*
X-50686811Y6989700D01*
X-52738751Y6990179D01*
X-54746291Y6990678D01*
X-56708149Y6991196D01*
X-58623045Y6991734D01*
X-60489699Y6992290D01*
X-62306829Y6992865D01*
X-64073156Y6993458D01*
X-65787398Y6994068D01*
X-67448275Y6994695D01*
X-69054506Y6995339D01*
X-70604811Y6995999D01*
X-72097908Y6996675D01*
X-73532518Y6997366D01*
X-74907359Y6998072D01*
X-76221150Y6998792D01*
X-77472613Y6999526D01*
X-78660464Y7000274D01*
X-79783425Y7001035D01*
X-80840214Y7001809D01*
X-81829550Y7002595D01*
X-82750153Y7003393D01*
X-83600743Y7004202D01*
X-84380038Y7005022D01*
X-85086758Y7005852D01*
X-85719622Y7006693D01*
X-86277350Y7007543D01*
X-86758661Y7008403D01*
X-87162274Y7009271D01*
X-87486909Y7010148D01*
X-87731285Y7011032D01*
X-87894121Y7011924D01*
X-87974137Y7012823D01*
X-87982778Y7013222D01*
X-87986991Y7058827D01*
X-87991013Y7182971D01*
X-87994798Y7379529D01*
X-87998301Y7642374D01*
X-88001474Y7965378D01*
X-88004271Y8342417D01*
X-88006646Y8767362D01*
X-88008552Y9234088D01*
X-88009942Y9736467D01*
X-88010772Y10268374D01*
X-88011000Y10738556D01*
X-88011000Y14435667D01*
X-63510583Y14435669D01*
X-62486005Y14435691D01*
X-61379264Y14435758D01*
X-60192864Y14435867D01*
X-58929310Y14436020D01*
X-57591104Y14436214D01*
X-56180751Y14436449D01*
X-54700755Y14436723D01*
X-53153620Y14437037D01*
X-51541850Y14437389D01*
X-49867948Y14437778D01*
X-48134418Y14438204D01*
X-46343765Y14438665D01*
X-44498493Y14439161D01*
X-42601105Y14439692D01*
X-40654104Y14440255D01*
X-38659996Y14440850D01*
X-36621284Y14441477D01*
X-34540472Y14442135D01*
X-32420064Y14442822D01*
X-30262564Y14443538D01*
X-28070475Y14444282D01*
X-25846302Y14445053D01*
X-23592548Y14445850D01*
X-21311718Y14446673D01*
X-19006315Y14447520D01*
X-16678843Y14448392D01*
X-14331807Y14449286D01*
X-11967710Y14450202D01*
X-9589055Y14451139D01*
X-7198348Y14452097D01*
X-4798091Y14453074D01*
X-2390790Y14454069D01*
X21053Y14455083D01*
X2434934Y14456113D01*
X4848348Y14457160D01*
X7258791Y14458221D01*
X9663760Y14459297D01*
X12060751Y14460387D01*
X14447260Y14461489D01*
X16820782Y14462603D01*
X19178815Y14463729D01*
X19505083Y14463886D01*
X78020333Y14492101D01*
X78020333Y6985000D01*
X78020333Y6985000D01*
G37*
X78020333Y6985000D02*
X-4967111Y6985000D01*
X-7619338Y6985014D01*
X-10251496Y6985057D01*
X-12862306Y6985128D01*
X-15450486Y6985226D01*
X-18014756Y6985351D01*
X-20553835Y6985503D01*
X-23066443Y6985681D01*
X-25551299Y6985884D01*
X-28007122Y6986113D01*
X-30432632Y6986367D01*
X-32826548Y6986646D01*
X-35187589Y6986948D01*
X-37514475Y6987274D01*
X-39805925Y6987623D01*
X-42060658Y6987995D01*
X-44277394Y6988389D01*
X-46454852Y6988805D01*
X-48591751Y6989242D01*
X-50686811Y6989700D01*
X-52738751Y6990179D01*
X-54746291Y6990678D01*
X-56708149Y6991196D01*
X-58623045Y6991734D01*
X-60489699Y6992290D01*
X-62306829Y6992865D01*
X-64073156Y6993458D01*
X-65787398Y6994068D01*
X-67448275Y6994695D01*
X-69054506Y6995339D01*
X-70604811Y6995999D01*
X-72097908Y6996675D01*
X-73532518Y6997366D01*
X-74907359Y6998072D01*
X-76221150Y6998792D01*
X-77472613Y6999526D01*
X-78660464Y7000274D01*
X-79783425Y7001035D01*
X-80840214Y7001809D01*
X-81829550Y7002595D01*
X-82750153Y7003393D01*
X-83600743Y7004202D01*
X-84380038Y7005022D01*
X-85086758Y7005852D01*
X-85719622Y7006693D01*
X-86277350Y7007543D01*
X-86758661Y7008403D01*
X-87162274Y7009271D01*
X-87486909Y7010148D01*
X-87731285Y7011032D01*
X-87894121Y7011924D01*
X-87974137Y7012823D01*
X-87982778Y7013222D01*
X-87986991Y7058827D01*
X-87991013Y7182971D01*
X-87994798Y7379529D01*
X-87998301Y7642374D01*
X-88001474Y7965378D01*
X-88004271Y8342417D01*
X-88006646Y8767362D01*
X-88008552Y9234088D01*
X-88009942Y9736467D01*
X-88010772Y10268374D01*
X-88011000Y10738556D01*
X-88011000Y14435667D01*
X-63510583Y14435669D01*
X-62486005Y14435691D01*
X-61379264Y14435758D01*
X-60192864Y14435867D01*
X-58929310Y14436020D01*
X-57591104Y14436214D01*
X-56180751Y14436449D01*
X-54700755Y14436723D01*
X-53153620Y14437037D01*
X-51541850Y14437389D01*
X-49867948Y14437778D01*
X-48134418Y14438204D01*
X-46343765Y14438665D01*
X-44498493Y14439161D01*
X-42601105Y14439692D01*
X-40654104Y14440255D01*
X-38659996Y14440850D01*
X-36621284Y14441477D01*
X-34540472Y14442135D01*
X-32420064Y14442822D01*
X-30262564Y14443538D01*
X-28070475Y14444282D01*
X-25846302Y14445053D01*
X-23592548Y14445850D01*
X-21311718Y14446673D01*
X-19006315Y14447520D01*
X-16678843Y14448392D01*
X-14331807Y14449286D01*
X-11967710Y14450202D01*
X-9589055Y14451139D01*
X-7198348Y14452097D01*
X-4798091Y14453074D01*
X-2390790Y14454069D01*
X21053Y14455083D01*
X2434934Y14456113D01*
X4848348Y14457160D01*
X7258791Y14458221D01*
X9663760Y14459297D01*
X12060751Y14460387D01*
X14447260Y14461489D01*
X16820782Y14462603D01*
X19178815Y14463729D01*
X19505083Y14463886D01*
X78020333Y14492101D01*
X78020333Y6985000D01*
M02*
