G04 #@! TF.GenerationSoftware,KiCad,Pcbnew,5.0.0-rc2-dev-unknown-0d8692d~82~ubuntu16.04.1*
G04 #@! TF.CreationDate,2018-04-13T20:21:19+01:00*
G04 #@! TF.ProjectId,pcbart,7063626172742E6B696361645F706362,rev?*
G04 #@! TF.SameCoordinates,Original*
G04 #@! TF.FileFunction,Legend,Top*
G04 #@! TF.FilePolarity,Positive*
%FSLAX46Y46*%
G04 Gerber Fmt 4.6, Leading zero omitted, Abs format (unit mm)*
G04 Created by KiCad (PCBNEW 5.0.0-rc2-dev-unknown-0d8692d~82~ubuntu16.04.1) date Fri Apr 13 20:21:19 2018*
%MOMM*%
%LPD*%
G01*
G04 APERTURE LIST*
%ADD10C,0.010000*%
G04 APERTURE END LIST*
D10*
G36*
X-50177700Y-7099300D02*
X-83185000Y-7099300D01*
X-83185000Y-1901128D01*
X-80147222Y-1901128D01*
X-80142282Y-1951261D01*
X-80121771Y-1986518D01*
X-80089478Y-2003794D01*
X-80049191Y-1999985D01*
X-80034566Y-1993453D01*
X-80019718Y-1980167D01*
X-80012221Y-1956213D01*
X-80010011Y-1914600D01*
X-80010000Y-1910239D01*
X-80010000Y-1841500D01*
X-79730600Y-1841500D01*
X-79730600Y-1904279D01*
X-79728084Y-1946047D01*
X-79718556Y-1971420D01*
X-79702375Y-1986829D01*
X-79676642Y-2001658D01*
X-79660750Y-2006600D01*
X-79641092Y-1999869D01*
X-79619126Y-1986829D01*
X-79601140Y-1968634D01*
X-79592733Y-1941553D01*
X-79591185Y-1910055D01*
X-79311500Y-1910055D01*
X-79309221Y-1955026D01*
X-79301268Y-1981138D01*
X-79289275Y-1992882D01*
X-79248494Y-2005423D01*
X-79211111Y-1992872D01*
X-79196504Y-1980503D01*
X-79178433Y-1953356D01*
X-79173566Y-1916256D01*
X-79174279Y-1901128D01*
X-79178150Y-1847850D01*
X-79288435Y-1841500D01*
X-78892400Y-1841500D01*
X-78892400Y-1910718D01*
X-78890066Y-1955537D01*
X-78881941Y-1981511D01*
X-78870175Y-1992882D01*
X-78832759Y-2005490D01*
X-78794778Y-1995928D01*
X-78789966Y-1993453D01*
X-78775047Y-1980057D01*
X-78767557Y-1955878D01*
X-78765405Y-1913901D01*
X-78765400Y-1910903D01*
X-78765400Y-1841500D01*
X-78486000Y-1841500D01*
X-78486000Y-1904279D01*
X-78483484Y-1946047D01*
X-78473956Y-1971420D01*
X-78457775Y-1986829D01*
X-78432042Y-2001658D01*
X-78416150Y-2006600D01*
X-78396492Y-1999869D01*
X-78374526Y-1986829D01*
X-78356540Y-1968634D01*
X-78348133Y-1941553D01*
X-78346300Y-1904279D01*
X-78346300Y-1841500D01*
X-78066900Y-1841500D01*
X-78066900Y-1910718D01*
X-78064566Y-1955537D01*
X-78056441Y-1981511D01*
X-78044675Y-1992882D01*
X-78003731Y-2005434D01*
X-77966352Y-1992869D01*
X-77952600Y-1981200D01*
X-77933388Y-1948914D01*
X-77927206Y-1900480D01*
X-77927200Y-1898650D01*
X-77927200Y-1841500D01*
X-78066900Y-1841500D01*
X-78346300Y-1841500D01*
X-78486000Y-1841500D01*
X-78765400Y-1841500D01*
X-78892400Y-1841500D01*
X-79288435Y-1841500D01*
X-79311500Y-1840172D01*
X-79311500Y-1910055D01*
X-79591185Y-1910055D01*
X-79590900Y-1904279D01*
X-79590900Y-1841500D01*
X-79730600Y-1841500D01*
X-80010000Y-1841500D01*
X-80010000Y-1840172D01*
X-80143350Y-1847850D01*
X-80147222Y-1901128D01*
X-83185000Y-1901128D01*
X-83185000Y-1635928D01*
X-80225900Y-1635928D01*
X-80225277Y-1699255D01*
X-80222942Y-1742129D01*
X-80218201Y-1769479D01*
X-80210359Y-1786233D01*
X-80203675Y-1793424D01*
X-80179562Y-1811374D01*
X-80153651Y-1821506D01*
X-80118585Y-1825324D01*
X-80067009Y-1824328D01*
X-80055163Y-1823740D01*
X-80005313Y-1819740D01*
X-79973704Y-1812712D01*
X-79953193Y-1800516D01*
X-79943615Y-1790290D01*
X-79932758Y-1773137D01*
X-79926193Y-1750585D01*
X-79923203Y-1716938D01*
X-79923071Y-1666498D01*
X-79923853Y-1633195D01*
X-79927450Y-1504950D01*
X-80076675Y-1501371D01*
X-80192243Y-1498600D01*
X-79806800Y-1498600D01*
X-79806800Y-1643094D01*
X-79806163Y-1710174D01*
X-79803280Y-1756383D01*
X-79796694Y-1786241D01*
X-79784949Y-1804264D01*
X-79766588Y-1814970D01*
X-79749650Y-1820357D01*
X-79717335Y-1824569D01*
X-79672348Y-1824858D01*
X-79622990Y-1821871D01*
X-79577562Y-1816254D01*
X-79544364Y-1808655D01*
X-79533936Y-1803553D01*
X-79525135Y-1790660D01*
X-79519347Y-1766539D01*
X-79516064Y-1726944D01*
X-79514775Y-1667627D01*
X-79514700Y-1643094D01*
X-79514700Y-1498600D01*
X-79387700Y-1498600D01*
X-79387700Y-1643094D01*
X-79386704Y-1715430D01*
X-79381532Y-1766061D01*
X-79368910Y-1798666D01*
X-79345563Y-1816925D01*
X-79308219Y-1824517D01*
X-79253602Y-1825121D01*
X-79226494Y-1824241D01*
X-79170488Y-1818776D01*
X-79133942Y-1806462D01*
X-79121719Y-1797700D01*
X-79110040Y-1784592D01*
X-79102441Y-1767104D01*
X-79098069Y-1739973D01*
X-79096073Y-1697935D01*
X-79095600Y-1636331D01*
X-79095600Y-1635928D01*
X-78981300Y-1635928D01*
X-78980677Y-1699255D01*
X-78978342Y-1742129D01*
X-78973601Y-1769479D01*
X-78965759Y-1786233D01*
X-78959075Y-1793424D01*
X-78934962Y-1811374D01*
X-78909051Y-1821506D01*
X-78873985Y-1825324D01*
X-78822409Y-1824328D01*
X-78810563Y-1823740D01*
X-78760713Y-1819740D01*
X-78729104Y-1812712D01*
X-78708593Y-1800516D01*
X-78699015Y-1790290D01*
X-78688158Y-1773137D01*
X-78681593Y-1750585D01*
X-78678603Y-1716938D01*
X-78678471Y-1666498D01*
X-78679253Y-1633195D01*
X-78682850Y-1504950D01*
X-78832075Y-1501371D01*
X-78947643Y-1498600D01*
X-78562200Y-1498600D01*
X-78562200Y-1791926D01*
X-78520925Y-1810662D01*
X-78484716Y-1820247D01*
X-78435867Y-1824615D01*
X-78382891Y-1824028D01*
X-78334300Y-1818747D01*
X-78298606Y-1809034D01*
X-78289336Y-1803553D01*
X-78280535Y-1790660D01*
X-78274747Y-1766539D01*
X-78271464Y-1726944D01*
X-78270175Y-1667627D01*
X-78270100Y-1643094D01*
X-78270100Y-1498600D01*
X-78143100Y-1498600D01*
X-78143100Y-1643094D01*
X-78142440Y-1710407D01*
X-78139498Y-1756784D01*
X-78132833Y-1786674D01*
X-78121006Y-1804528D01*
X-78102575Y-1814794D01*
X-78085950Y-1819610D01*
X-78040868Y-1825888D01*
X-77987283Y-1826775D01*
X-77937001Y-1822553D01*
X-77906061Y-1815305D01*
X-77877234Y-1800741D01*
X-77860978Y-1786730D01*
X-77857022Y-1768414D01*
X-77853821Y-1730678D01*
X-77851761Y-1679497D01*
X-77851195Y-1635125D01*
X-77851000Y-1498600D01*
X-78143100Y-1498600D01*
X-78270100Y-1498600D01*
X-78562200Y-1498600D01*
X-78947643Y-1498600D01*
X-78981300Y-1497793D01*
X-78981300Y-1635928D01*
X-79095600Y-1635928D01*
X-79095600Y-1498600D01*
X-79387700Y-1498600D01*
X-79514700Y-1498600D01*
X-79806800Y-1498600D01*
X-80192243Y-1498600D01*
X-80225900Y-1497793D01*
X-80225900Y-1635928D01*
X-83185000Y-1635928D01*
X-83185000Y-1435100D01*
X-80244083Y-1435100D01*
X-77791466Y-1435100D01*
X-77783133Y-1627619D01*
X-77779850Y-1712987D01*
X-77776927Y-1806445D01*
X-77774668Y-1897158D01*
X-77773374Y-1974289D01*
X-77773316Y-1980044D01*
X-77772052Y-2050636D01*
X-77769749Y-2120758D01*
X-77766748Y-2181765D01*
X-77763791Y-2221155D01*
X-77755750Y-2302361D01*
X-77687842Y-2328100D01*
X-77619933Y-2353839D01*
X-77433842Y-2159700D01*
X-77247750Y-1965561D01*
X-77206767Y-1989255D01*
X-77175559Y-2003989D01*
X-77153410Y-2003754D01*
X-77141321Y-1997735D01*
X-77134692Y-1993851D01*
X-77128458Y-1992485D01*
X-77121570Y-1995672D01*
X-77112975Y-2005446D01*
X-77101622Y-2023843D01*
X-77086459Y-2052895D01*
X-77066435Y-2094639D01*
X-77040498Y-2151108D01*
X-77007597Y-2224336D01*
X-76966680Y-2316360D01*
X-76916696Y-2429212D01*
X-76907007Y-2451100D01*
X-76876212Y-2520283D01*
X-76853141Y-2569992D01*
X-76835279Y-2603999D01*
X-76820114Y-2626076D01*
X-76805131Y-2639992D01*
X-76787816Y-2649522D01*
X-76769917Y-2656784D01*
X-76737180Y-2669557D01*
X-76716892Y-2677639D01*
X-76713733Y-2679009D01*
X-76702810Y-2673533D01*
X-76672311Y-2657739D01*
X-76625136Y-2633142D01*
X-76564185Y-2601256D01*
X-76492357Y-2563596D01*
X-76412552Y-2521677D01*
X-76408933Y-2519774D01*
X-76328025Y-2477047D01*
X-76254305Y-2437755D01*
X-76190833Y-2403557D01*
X-76140667Y-2376113D01*
X-76106865Y-2357081D01*
X-76092486Y-2348121D01*
X-76092443Y-2348082D01*
X-76081335Y-2329198D01*
X-76068558Y-2296342D01*
X-76064819Y-2284439D01*
X-76049502Y-2232563D01*
X-76246250Y-1883363D01*
X-76294199Y-1797758D01*
X-76337555Y-1719386D01*
X-76374872Y-1650934D01*
X-76404707Y-1595090D01*
X-76425618Y-1554539D01*
X-76436159Y-1531969D01*
X-76437060Y-1528225D01*
X-76423169Y-1527227D01*
X-76388753Y-1528093D01*
X-76338594Y-1530512D01*
X-76277473Y-1534171D01*
X-76210173Y-1538757D01*
X-76141475Y-1543960D01*
X-76076160Y-1549466D01*
X-76019011Y-1554964D01*
X-76005852Y-1556378D01*
X-75945053Y-1563100D01*
X-75879291Y-1419456D01*
X-76179346Y-1119205D01*
X-76479400Y-818955D01*
X-76479400Y-742503D01*
X-76482315Y-685800D01*
X-76454000Y-685800D01*
X-76454000Y-825500D01*
X-76397758Y-825500D01*
X-76352859Y-820448D01*
X-76322968Y-806864D01*
X-76321558Y-805542D01*
X-76305816Y-775799D01*
X-76302509Y-738617D01*
X-76312214Y-706771D01*
X-76316840Y-701040D01*
X-76337917Y-691981D01*
X-76373809Y-686522D01*
X-76393040Y-685800D01*
X-76454000Y-685800D01*
X-76482315Y-685800D01*
X-76482474Y-682715D01*
X-76494299Y-643703D01*
X-76518782Y-621309D01*
X-76559829Y-611375D01*
X-76604263Y-609600D01*
X-76689586Y-609600D01*
X-76873100Y-424852D01*
X-76873100Y-190500D01*
X-76796900Y-190500D01*
X-76796900Y-482600D01*
X-76657921Y-482600D01*
X-76596370Y-482235D01*
X-76555112Y-480537D01*
X-76529045Y-476598D01*
X-76513064Y-469511D01*
X-76502068Y-458368D01*
X-76499171Y-454374D01*
X-76485819Y-419234D01*
X-76479813Y-361676D01*
X-76479400Y-336550D01*
X-76480720Y-278874D01*
X-76482708Y-266700D01*
X-76454000Y-266700D01*
X-76454000Y-406400D01*
X-76393040Y-406400D01*
X-76353801Y-403395D01*
X-76324358Y-395787D01*
X-76316840Y-391160D01*
X-76303725Y-362718D01*
X-76303768Y-325684D01*
X-76316393Y-292830D01*
X-76321558Y-286657D01*
X-76349932Y-272517D01*
X-76394002Y-266731D01*
X-76397758Y-266700D01*
X-76454000Y-266700D01*
X-76482708Y-266700D01*
X-76487271Y-238777D01*
X-76502944Y-213076D01*
X-76531629Y-198587D01*
X-76577216Y-192130D01*
X-76643595Y-190520D01*
X-76657921Y-190500D01*
X-76796900Y-190500D01*
X-76873100Y-190500D01*
X-76873100Y228600D01*
X-76796900Y228600D01*
X-76796900Y-76200D01*
X-76663550Y-76200D01*
X-76602116Y-75629D01*
X-76560634Y-73339D01*
X-76533671Y-68459D01*
X-76515792Y-60121D01*
X-76504800Y-50800D01*
X-76491584Y-33333D01*
X-76483819Y-9329D01*
X-76480198Y27747D01*
X-76479400Y76200D01*
X-76480798Y135619D01*
X-76481459Y139700D01*
X-76454000Y139700D01*
X-76454000Y12700D01*
X-76393040Y12700D01*
X-76353801Y15705D01*
X-76324358Y23313D01*
X-76316840Y27940D01*
X-76305105Y51689D01*
X-76301600Y76200D01*
X-76308063Y110489D01*
X-76329873Y130590D01*
X-76370662Y139027D01*
X-76393040Y139700D01*
X-76454000Y139700D01*
X-76481459Y139700D01*
X-76487539Y177208D01*
X-76503449Y204132D01*
X-76532350Y219555D01*
X-76578069Y226642D01*
X-76644427Y228558D01*
X-76663550Y228600D01*
X-76796900Y228600D01*
X-76873100Y228600D01*
X-76873100Y635000D01*
X-76796900Y635000D01*
X-76796900Y342900D01*
X-76657921Y342900D01*
X-76596370Y343265D01*
X-76555112Y344963D01*
X-76529045Y348902D01*
X-76513064Y355989D01*
X-76502068Y367132D01*
X-76499171Y371126D01*
X-76485819Y406266D01*
X-76479813Y463824D01*
X-76479400Y488950D01*
X-76480720Y546626D01*
X-76482708Y558800D01*
X-76454000Y558800D01*
X-76454000Y419100D01*
X-76397758Y419100D01*
X-76352859Y424152D01*
X-76322968Y437736D01*
X-76321558Y439058D01*
X-76305816Y468801D01*
X-76302509Y505983D01*
X-76312214Y537829D01*
X-76316840Y543560D01*
X-76337917Y552619D01*
X-76373809Y558078D01*
X-76393040Y558800D01*
X-76454000Y558800D01*
X-76482708Y558800D01*
X-76487271Y586723D01*
X-76502944Y612424D01*
X-76531629Y626913D01*
X-76577216Y633370D01*
X-76643595Y634980D01*
X-76657921Y635000D01*
X-76796900Y635000D01*
X-76873100Y635000D01*
X-76873100Y1054100D01*
X-76796900Y1054100D01*
X-76796900Y762000D01*
X-76657921Y762000D01*
X-76596370Y762365D01*
X-76555112Y764063D01*
X-76529045Y768002D01*
X-76513064Y775089D01*
X-76502068Y786232D01*
X-76499171Y790226D01*
X-76485819Y825366D01*
X-76479813Y882924D01*
X-76479400Y908050D01*
X-76480720Y965726D01*
X-76482708Y977900D01*
X-76454000Y977900D01*
X-76454000Y838200D01*
X-76393040Y838200D01*
X-76353801Y841205D01*
X-76324358Y848813D01*
X-76316840Y853440D01*
X-76303725Y881882D01*
X-76303768Y918916D01*
X-76316393Y951770D01*
X-76321558Y957943D01*
X-76349932Y972083D01*
X-76394002Y977869D01*
X-76397758Y977900D01*
X-76454000Y977900D01*
X-76482708Y977900D01*
X-76487271Y1005823D01*
X-76502944Y1031524D01*
X-76531629Y1046013D01*
X-76577216Y1052470D01*
X-76643595Y1054080D01*
X-76657921Y1054100D01*
X-76796900Y1054100D01*
X-76873100Y1054100D01*
X-76873100Y1130300D01*
X-75755500Y1130300D01*
X-75755500Y-1092200D01*
X-75247922Y-1092200D01*
X-75241150Y-428168D01*
X-74931199Y-760184D01*
X-74621247Y-1092200D01*
X-74010046Y-1092200D01*
X-74080816Y-1019175D01*
X-74105731Y-993479D01*
X-74145884Y-952085D01*
X-74198824Y-897518D01*
X-74262097Y-832307D01*
X-74333254Y-758977D01*
X-74409840Y-680056D01*
X-74489405Y-598072D01*
X-74496344Y-590922D01*
X-74572582Y-512156D01*
X-74642974Y-439021D01*
X-74705616Y-373527D01*
X-74758601Y-317684D01*
X-74800026Y-273500D01*
X-74827986Y-242987D01*
X-74840577Y-228153D01*
X-74841100Y-227142D01*
X-74832145Y-216888D01*
X-74806568Y-191149D01*
X-74766301Y-151783D01*
X-74713277Y-100649D01*
X-74649429Y-39607D01*
X-74576689Y29483D01*
X-74496990Y104763D01*
X-74457914Y141531D01*
X-74074727Y501650D01*
X-74365494Y505071D01*
X-74614442Y508000D01*
X-73812400Y508000D01*
X-73812400Y-1092200D01*
X-73304400Y-1092200D01*
X-73304400Y508000D01*
X-73012998Y508000D01*
X-73005950Y146050D01*
X-72883500Y142432D01*
X-72761049Y138814D01*
X-72754834Y-283018D01*
X-72752801Y-407689D01*
X-72750496Y-510040D01*
X-72747559Y-593149D01*
X-72743631Y-660094D01*
X-72738354Y-713955D01*
X-72731368Y-757812D01*
X-72722315Y-794741D01*
X-72710836Y-827824D01*
X-72696571Y-860138D01*
X-72684786Y-883852D01*
X-72657366Y-926159D01*
X-72622099Y-966980D01*
X-72612526Y-975954D01*
X-72570088Y-1008420D01*
X-72522408Y-1034496D01*
X-72466393Y-1054795D01*
X-72398949Y-1069928D01*
X-72316983Y-1080510D01*
X-72217402Y-1087151D01*
X-72097112Y-1090465D01*
X-72031225Y-1091053D01*
X-71767700Y-1092200D01*
X-71767700Y-740482D01*
X-71952475Y-732995D01*
X-72041195Y-728181D01*
X-72108133Y-721068D01*
X-72156883Y-710394D01*
X-72191044Y-694899D01*
X-72214209Y-673322D01*
X-72229976Y-644400D01*
X-72233709Y-634372D01*
X-72239022Y-606317D01*
X-72243231Y-555682D01*
X-72243636Y-546100D01*
X-71348600Y-546100D01*
X-71348600Y-1092200D01*
X-70840600Y-1092200D01*
X-70840600Y-546100D01*
X-71348600Y-546100D01*
X-72243636Y-546100D01*
X-72246359Y-481811D01*
X-72248432Y-384045D01*
X-72249477Y-261728D01*
X-72249584Y-225682D01*
X-72250134Y54962D01*
X-70375083Y54962D01*
X-70375069Y31750D01*
X-70368529Y-64363D01*
X-70349887Y-147234D01*
X-70317512Y-218134D01*
X-70269768Y-278337D01*
X-70205021Y-329116D01*
X-70121639Y-371744D01*
X-70017986Y-407493D01*
X-69892430Y-437637D01*
X-69743336Y-463449D01*
X-69738581Y-464155D01*
X-69653819Y-477108D01*
X-69590009Y-488208D01*
X-69542895Y-498707D01*
X-69508219Y-509855D01*
X-69481725Y-522904D01*
X-69459156Y-539104D01*
X-69446775Y-549900D01*
X-69424641Y-585564D01*
X-69417518Y-632316D01*
X-69425581Y-680629D01*
X-69443737Y-714839D01*
X-69477185Y-746373D01*
X-69522671Y-768997D01*
X-69583492Y-783546D01*
X-69662943Y-790853D01*
X-69748400Y-791986D01*
X-69916743Y-781322D01*
X-70074097Y-752215D01*
X-70228446Y-703112D01*
X-70251081Y-694228D01*
X-70358644Y-651039D01*
X-70355147Y-842707D01*
X-70351650Y-1034376D01*
X-70231281Y-1063017D01*
X-70076041Y-1095363D01*
X-69929231Y-1115509D01*
X-69779566Y-1124632D01*
X-69640450Y-1124568D01*
X-69544147Y-1121224D01*
X-69467505Y-1115864D01*
X-69404824Y-1107910D01*
X-69350407Y-1096786D01*
X-69339853Y-1094087D01*
X-69220536Y-1054165D01*
X-69123457Y-1002796D01*
X-69047708Y-938986D01*
X-68992379Y-861743D01*
X-68956560Y-770076D01*
X-68939342Y-662990D01*
X-68938912Y-656567D01*
X-68940404Y-536552D01*
X-68960882Y-433272D01*
X-69000324Y-346799D01*
X-69051963Y-283455D01*
X-69097465Y-246502D01*
X-69152835Y-214106D01*
X-69220803Y-185376D01*
X-69304103Y-159420D01*
X-69405465Y-135346D01*
X-69527623Y-112263D01*
X-69624483Y-96598D01*
X-69717524Y-81176D01*
X-69788654Y-66277D01*
X-69841297Y-50597D01*
X-69878875Y-32830D01*
X-69904813Y-11671D01*
X-69922533Y14185D01*
X-69924293Y17715D01*
X-69934437Y46616D01*
X-69932108Y74814D01*
X-69923962Y99105D01*
X-69905241Y135677D01*
X-69878474Y162477D01*
X-69839851Y181010D01*
X-69785556Y192785D01*
X-69711779Y199305D01*
X-69665850Y201082D01*
X-69487869Y194292D01*
X-69311470Y163571D01*
X-69148406Y113925D01*
X-69101514Y96965D01*
X-69064749Y83958D01*
X-69043806Y76906D01*
X-69041120Y76200D01*
X-69039752Y88167D01*
X-69038593Y121131D01*
X-69037732Y170691D01*
X-69037261Y232445D01*
X-69037200Y265683D01*
X-69037200Y455165D01*
X-69123486Y474790D01*
X-69254319Y502061D01*
X-69292064Y508000D01*
X-68541900Y508000D01*
X-68541900Y-1701800D01*
X-68033900Y-1701800D01*
X-68033900Y-1359687D01*
X-60986082Y-1359687D01*
X-60831396Y-1356118D01*
X-60676711Y-1352550D01*
X-60304406Y-165100D01*
X-60251877Y2526D01*
X-60201547Y163301D01*
X-60153932Y315571D01*
X-60109548Y457677D01*
X-60093852Y508000D01*
X-59677300Y508000D01*
X-59677300Y-1092200D01*
X-59170783Y-1092200D01*
X-59166652Y-644525D01*
X-59165351Y-517213D01*
X-59163747Y-412389D01*
X-59161428Y-327141D01*
X-59157982Y-258559D01*
X-59152995Y-203729D01*
X-59146054Y-159741D01*
X-59136749Y-123682D01*
X-59124665Y-92641D01*
X-59109390Y-63707D01*
X-59090512Y-33967D01*
X-59077398Y-14692D01*
X-59018427Y49317D01*
X-58942934Y96561D01*
X-58854509Y125792D01*
X-58756739Y135762D01*
X-58667495Y127905D01*
X-58615979Y117415D01*
X-58568317Y105156D01*
X-58538426Y95139D01*
X-58496200Y77497D01*
X-58496200Y508000D01*
X-58242200Y508000D01*
X-58242200Y-55118D01*
X-58242127Y-191247D01*
X-58241841Y-304585D01*
X-58241246Y-397742D01*
X-58240243Y-473325D01*
X-58238737Y-533943D01*
X-58236628Y-582207D01*
X-58233821Y-620724D01*
X-58230216Y-652103D01*
X-58225718Y-678953D01*
X-58220228Y-703883D01*
X-58217583Y-714490D01*
X-58201661Y-769652D01*
X-58183286Y-822872D01*
X-58166354Y-862899D01*
X-58165881Y-863834D01*
X-58126335Y-925335D01*
X-58073108Y-986712D01*
X-58014798Y-1038746D01*
X-57981948Y-1061064D01*
X-57905181Y-1094763D01*
X-57813020Y-1117402D01*
X-57713341Y-1128107D01*
X-57614014Y-1126011D01*
X-57527105Y-1111355D01*
X-57426870Y-1076621D01*
X-57336394Y-1025691D01*
X-57248713Y-954522D01*
X-57235835Y-942299D01*
X-57150000Y-859432D01*
X-57150000Y-1092200D01*
X-56642000Y-1092200D01*
X-56642000Y508000D01*
X-57148599Y508000D01*
X-57152581Y28575D01*
X-57153660Y-94852D01*
X-57154750Y-195633D01*
X-57156013Y-276520D01*
X-57157611Y-340264D01*
X-57159703Y-389619D01*
X-57162453Y-427337D01*
X-57166020Y-456170D01*
X-57170567Y-478872D01*
X-57176254Y-498194D01*
X-57183244Y-516889D01*
X-57184774Y-520700D01*
X-57231506Y-608915D01*
X-57291807Y-676217D01*
X-57358651Y-719064D01*
X-57431540Y-742291D01*
X-57506007Y-747232D01*
X-57576384Y-734860D01*
X-57637003Y-706146D01*
X-57681006Y-663762D01*
X-57693968Y-643481D01*
X-57704723Y-620705D01*
X-57713466Y-592998D01*
X-57720394Y-557925D01*
X-57725705Y-513051D01*
X-57729594Y-455938D01*
X-57732258Y-384152D01*
X-57733894Y-295257D01*
X-57734698Y-186818D01*
X-57734866Y-56397D01*
X-57734799Y2906D01*
X-57733987Y508000D01*
X-58242200Y508000D01*
X-58496200Y508000D01*
X-58496200Y531379D01*
X-58578125Y540152D01*
X-58701779Y541358D01*
X-58819000Y518231D01*
X-58928615Y471283D01*
X-59029455Y401031D01*
X-59120348Y307990D01*
X-59128052Y298450D01*
X-59168449Y247650D01*
X-59168875Y377825D01*
X-59169300Y508000D01*
X-59677300Y508000D01*
X-60093852Y508000D01*
X-60068910Y587963D01*
X-60032534Y704772D01*
X-60000936Y806448D01*
X-59974632Y891332D01*
X-59954137Y957769D01*
X-59939967Y1004101D01*
X-59932638Y1028671D01*
X-59931701Y1032266D01*
X-59943419Y1035798D01*
X-59975660Y1038179D01*
X-60023566Y1039209D01*
X-60082277Y1038687D01*
X-60085412Y1038616D01*
X-60239523Y1035050D01*
X-60605257Y-133350D01*
X-60657441Y-300111D01*
X-60707555Y-460354D01*
X-60755067Y-612370D01*
X-60799443Y-754451D01*
X-60840153Y-884890D01*
X-60876663Y-1001980D01*
X-60908441Y-1104013D01*
X-60934955Y-1189282D01*
X-60955672Y-1256079D01*
X-60970061Y-1302696D01*
X-60977588Y-1327427D01*
X-60978536Y-1330718D01*
X-60986082Y-1359687D01*
X-68033900Y-1359687D01*
X-68033900Y-865951D01*
X-67952307Y-947545D01*
X-67857070Y-1027098D01*
X-67753094Y-1083429D01*
X-67638975Y-1117043D01*
X-67513314Y-1128446D01*
X-67456050Y-1126689D01*
X-67334589Y-1107002D01*
X-67223295Y-1064577D01*
X-67123202Y-1000379D01*
X-67035340Y-915369D01*
X-66960741Y-810510D01*
X-66900438Y-686765D01*
X-66874832Y-609600D01*
X-66554028Y-609600D01*
X-66553661Y-674947D01*
X-66551458Y-722020D01*
X-66546274Y-757933D01*
X-66536967Y-789804D01*
X-66522393Y-824747D01*
X-66517849Y-834674D01*
X-66473360Y-908323D01*
X-66412162Y-978744D01*
X-66342175Y-1037681D01*
X-66296235Y-1065659D01*
X-66194213Y-1104645D01*
X-66079216Y-1125624D01*
X-65956716Y-1128051D01*
X-65833239Y-1111612D01*
X-65740095Y-1084060D01*
X-65658055Y-1041555D01*
X-65580254Y-980127D01*
X-65543802Y-944216D01*
X-65508687Y-908231D01*
X-65480586Y-880527D01*
X-65463787Y-865283D01*
X-65461095Y-863600D01*
X-65458763Y-875354D01*
X-65456956Y-906841D01*
X-65455934Y-952391D01*
X-65455800Y-977900D01*
X-65455800Y-1092200D01*
X-64945703Y-1092200D01*
X-64950938Y-542925D01*
X-64952380Y-401522D01*
X-64953964Y-282849D01*
X-64954738Y-244795D01*
X-64578930Y-244795D01*
X-64578082Y-344381D01*
X-64571238Y-442494D01*
X-64558702Y-531336D01*
X-64540780Y-603108D01*
X-64540732Y-603250D01*
X-64487327Y-722340D01*
X-64412811Y-830790D01*
X-64320403Y-925254D01*
X-64213320Y-1002387D01*
X-64106631Y-1054390D01*
X-63965944Y-1096959D01*
X-63812385Y-1122105D01*
X-63652029Y-1129321D01*
X-63490950Y-1118103D01*
X-63437578Y-1110082D01*
X-63376188Y-1098301D01*
X-63315637Y-1084610D01*
X-63266352Y-1071426D01*
X-63254365Y-1067608D01*
X-63188850Y-1045352D01*
X-63181872Y-635160D01*
X-63242511Y-673636D01*
X-63335600Y-720032D01*
X-63442341Y-752239D01*
X-63554320Y-768640D01*
X-63663118Y-767619D01*
X-63703200Y-762090D01*
X-63806474Y-732776D01*
X-63892010Y-685287D01*
X-63959781Y-619658D01*
X-64009761Y-535919D01*
X-64041925Y-434104D01*
X-64055432Y-330200D01*
X-64054749Y-292100D01*
X-62842750Y-292100D01*
X-62840893Y-392541D01*
X-62833885Y-472558D01*
X-62822203Y-533400D01*
X-62775122Y-669796D01*
X-62709111Y-789373D01*
X-62624588Y-891772D01*
X-62521971Y-976631D01*
X-62401675Y-1043589D01*
X-62264118Y-1092286D01*
X-62146956Y-1117071D01*
X-62076968Y-1123967D01*
X-61988934Y-1126391D01*
X-61889752Y-1124678D01*
X-61786317Y-1119163D01*
X-61685525Y-1110181D01*
X-61594273Y-1098066D01*
X-61537850Y-1087483D01*
X-61469634Y-1071462D01*
X-61399642Y-1053374D01*
X-61338110Y-1035935D01*
X-61309250Y-1026826D01*
X-61220350Y-996950D01*
X-61216851Y-804370D01*
X-61213351Y-611790D01*
X-61343851Y-669307D01*
X-61489773Y-725918D01*
X-61631920Y-766079D01*
X-61767612Y-789547D01*
X-61894172Y-796073D01*
X-62008921Y-785413D01*
X-62109181Y-757320D01*
X-62141821Y-742584D01*
X-62213114Y-692604D01*
X-62270021Y-623734D01*
X-62310065Y-539519D01*
X-62325660Y-479425D01*
X-62334427Y-431800D01*
X-61134198Y-431800D01*
X-61141639Y-263525D01*
X-61146158Y-192376D01*
X-61152982Y-122670D01*
X-61161187Y-62361D01*
X-61169855Y-19404D01*
X-61169951Y-19050D01*
X-61217752Y109022D01*
X-61286545Y224236D01*
X-61374437Y324754D01*
X-61479537Y408741D01*
X-61599954Y474361D01*
X-61722000Y516763D01*
X-61786150Y528421D01*
X-61867742Y535550D01*
X-61959230Y538154D01*
X-62053065Y536233D01*
X-62141697Y529792D01*
X-62217577Y518832D01*
X-62228294Y516601D01*
X-62353973Y478165D01*
X-62472079Y421030D01*
X-62576388Y348511D01*
X-62622078Y306861D01*
X-62701599Y214597D01*
X-62762118Y115342D01*
X-62804893Y5684D01*
X-62831180Y-117789D01*
X-62842236Y-258490D01*
X-62842750Y-292100D01*
X-64054749Y-292100D01*
X-64053246Y-208373D01*
X-64031004Y-102051D01*
X-63988595Y-11009D01*
X-63925909Y64977D01*
X-63842832Y126133D01*
X-63823850Y136557D01*
X-63785461Y153990D01*
X-63745613Y165162D01*
X-63695807Y171885D01*
X-63642014Y175329D01*
X-63533273Y174950D01*
X-63437870Y161365D01*
X-63346390Y132661D01*
X-63276852Y101149D01*
X-63182500Y53750D01*
X-63182500Y456180D01*
X-63263192Y481103D01*
X-63426053Y520217D01*
X-63593968Y539607D01*
X-63761474Y539226D01*
X-63923103Y519024D01*
X-64046100Y488054D01*
X-64176533Y434164D01*
X-64291310Y360885D01*
X-64389057Y269711D01*
X-64468399Y162136D01*
X-64527962Y39657D01*
X-64561426Y-72399D01*
X-64573480Y-151535D01*
X-64578930Y-244795D01*
X-64954738Y-244795D01*
X-64955971Y-184236D01*
X-64958680Y-103012D01*
X-64962373Y-36508D01*
X-64967330Y17946D01*
X-64973831Y63021D01*
X-64982156Y101385D01*
X-64992586Y135710D01*
X-65005401Y168665D01*
X-65020881Y202921D01*
X-65031606Y225291D01*
X-65086701Y310452D01*
X-65163019Y384307D01*
X-65258358Y445367D01*
X-65370516Y492143D01*
X-65462511Y516574D01*
X-65565321Y531745D01*
X-65687249Y539155D01*
X-65823284Y538978D01*
X-65968418Y531393D01*
X-66117640Y516575D01*
X-66265941Y494701D01*
X-66309875Y486718D01*
X-66421000Y465582D01*
X-66421000Y275882D01*
X-66420799Y202878D01*
X-66419902Y151720D01*
X-66417873Y118854D01*
X-66414274Y100728D01*
X-66408670Y93788D01*
X-66400622Y94481D01*
X-66398775Y95185D01*
X-66300904Y132819D01*
X-66217113Y160295D01*
X-66139491Y180161D01*
X-66125469Y183144D01*
X-66061465Y192776D01*
X-65982645Y199271D01*
X-65896633Y202524D01*
X-65811055Y202430D01*
X-65733537Y198885D01*
X-65671702Y191783D01*
X-65660090Y189548D01*
X-65582203Y162756D01*
X-65522827Y120560D01*
X-65483408Y64476D01*
X-65465395Y-3981D01*
X-65464637Y-15052D01*
X-65462150Y-69850D01*
X-65760600Y-77613D01*
X-65862672Y-80606D01*
X-65943557Y-83898D01*
X-66007469Y-87854D01*
X-66058620Y-92842D01*
X-66101225Y-99228D01*
X-66139496Y-107380D01*
X-66158422Y-112260D01*
X-66278909Y-154288D01*
X-66377623Y-209317D01*
X-66454651Y-277412D01*
X-66510080Y-358640D01*
X-66524678Y-390893D01*
X-66538107Y-428842D01*
X-66546780Y-466758D01*
X-66551667Y-511881D01*
X-66553741Y-571448D01*
X-66554028Y-609600D01*
X-66874832Y-609600D01*
X-66862684Y-572995D01*
X-66847028Y-492801D01*
X-66837733Y-396150D01*
X-66834785Y-291173D01*
X-66838173Y-185999D01*
X-66847884Y-88760D01*
X-66863554Y-8883D01*
X-66912986Y128268D01*
X-66983795Y254281D01*
X-67058320Y348718D01*
X-67147348Y428100D01*
X-67247750Y486712D01*
X-67356258Y524537D01*
X-67469606Y541559D01*
X-67584525Y537764D01*
X-67697748Y513134D01*
X-67806007Y467655D01*
X-67906035Y401311D01*
X-67959192Y353061D01*
X-68033900Y277184D01*
X-68033900Y508000D01*
X-68541900Y508000D01*
X-69292064Y508000D01*
X-69372467Y520651D01*
X-69488641Y531762D01*
X-69613554Y536594D01*
X-69678550Y537038D01*
X-69765866Y536382D01*
X-69833469Y534324D01*
X-69887029Y530384D01*
X-69932217Y524081D01*
X-69974703Y514936D01*
X-69991658Y510525D01*
X-70089350Y479172D01*
X-70167507Y442100D01*
X-70231866Y396142D01*
X-70273708Y354856D01*
X-70319995Y293528D01*
X-70351131Y226892D01*
X-70368900Y149264D01*
X-70375083Y54962D01*
X-72250134Y54962D01*
X-72250300Y139185D01*
X-71986775Y142618D01*
X-71723250Y146050D01*
X-71719727Y327025D01*
X-71716203Y508000D01*
X-72250300Y508000D01*
X-72250300Y952500D01*
X-72758300Y952500D01*
X-72758300Y508000D01*
X-73012998Y508000D01*
X-73304400Y508000D01*
X-73812400Y508000D01*
X-74614442Y508000D01*
X-74656260Y508492D01*
X-74951880Y213073D01*
X-75247500Y-82347D01*
X-75247500Y1130300D01*
X-73812400Y1130300D01*
X-73812400Y929217D01*
X-73811891Y860178D01*
X-73810485Y800273D01*
X-73808364Y754018D01*
X-73805711Y725928D01*
X-73803934Y719667D01*
X-73789164Y717043D01*
X-73753041Y714749D01*
X-73699612Y712922D01*
X-73632923Y711695D01*
X-73557021Y711204D01*
X-73549934Y711200D01*
X-73304400Y711200D01*
X-73304400Y1130300D01*
X-56146700Y1130300D01*
X-56146700Y-1092200D01*
X-55638700Y-1092200D01*
X-55638700Y-278272D01*
X-55250946Y-278272D01*
X-55249553Y-370981D01*
X-55243500Y-457002D01*
X-55232771Y-528419D01*
X-55228560Y-546100D01*
X-55184131Y-669296D01*
X-55120533Y-783208D01*
X-55040833Y-883592D01*
X-54948094Y-966203D01*
X-54903773Y-995933D01*
X-54824958Y-1036338D01*
X-54731110Y-1072717D01*
X-54632591Y-1101454D01*
X-54558701Y-1116311D01*
X-54481402Y-1123821D01*
X-54386490Y-1126312D01*
X-54281182Y-1124121D01*
X-54172693Y-1117587D01*
X-54068239Y-1107048D01*
X-53975037Y-1092843D01*
X-53949600Y-1087757D01*
X-53880491Y-1071923D01*
X-53809993Y-1054032D01*
X-53747863Y-1036640D01*
X-53714650Y-1026159D01*
X-53625750Y-995833D01*
X-53622245Y-802716D01*
X-53621665Y-735951D01*
X-53622378Y-679185D01*
X-53624233Y-636776D01*
X-53627079Y-613081D01*
X-53628944Y-609600D01*
X-53646462Y-616059D01*
X-53664200Y-626589D01*
X-53702145Y-647725D01*
X-53757921Y-673057D01*
X-53824872Y-700020D01*
X-53896344Y-726054D01*
X-53965683Y-748594D01*
X-54019823Y-763547D01*
X-54114360Y-781412D01*
X-54214518Y-791336D01*
X-54313157Y-793225D01*
X-54403136Y-786986D01*
X-54477312Y-772524D01*
X-54486466Y-769694D01*
X-54571303Y-729159D01*
X-54641722Y-669641D01*
X-54694702Y-594660D01*
X-54727227Y-507738D01*
X-54732013Y-483293D01*
X-54740247Y-431800D01*
X-53543200Y-431800D01*
X-53543200Y-323107D01*
X-53553165Y-160678D01*
X-53582852Y-13531D01*
X-53631952Y117890D01*
X-53700156Y233142D01*
X-53787155Y331783D01*
X-53892639Y413369D01*
X-54016298Y477458D01*
X-54105501Y508000D01*
X-53149500Y508000D01*
X-53149500Y-1092200D01*
X-52642950Y-1092200D01*
X-52635150Y-171450D01*
X-52599197Y-93648D01*
X-52546588Y-6285D01*
X-52478670Y60927D01*
X-52406550Y103456D01*
X-52341564Y122895D01*
X-52262071Y131964D01*
X-52176756Y130649D01*
X-52094305Y118938D01*
X-52041425Y104001D01*
X-51968400Y77569D01*
X-51968400Y531379D01*
X-52052673Y540404D01*
X-52138823Y541702D01*
X-52233690Y530225D01*
X-52325825Y507965D01*
X-52396542Y480558D01*
X-52439839Y453609D01*
X-52491282Y413107D01*
X-52543557Y365654D01*
X-52589354Y317850D01*
X-52619370Y279400D01*
X-52628691Y266457D01*
X-52634743Y264102D01*
X-52638267Y275738D01*
X-52640005Y304766D01*
X-52640700Y354589D01*
X-52640834Y377825D01*
X-52641500Y508000D01*
X-53149500Y508000D01*
X-54105501Y508000D01*
X-54129551Y516234D01*
X-54197333Y529123D01*
X-54282392Y536631D01*
X-54377203Y538849D01*
X-54474239Y535867D01*
X-54565974Y527773D01*
X-54644883Y514658D01*
X-54664617Y509842D01*
X-54802216Y461042D01*
X-54923902Y393111D01*
X-55028597Y307102D01*
X-55115221Y204067D01*
X-55182696Y85059D01*
X-55227362Y-39199D01*
X-55239833Y-104464D01*
X-55247700Y-186794D01*
X-55250946Y-278272D01*
X-55638700Y-278272D01*
X-55638700Y1130300D01*
X-56146700Y1130300D01*
X-73304400Y1130300D01*
X-73812400Y1130300D01*
X-75247500Y1130300D01*
X-75755500Y1130300D01*
X-76873100Y1130300D01*
X-76873100Y1473200D01*
X-76796900Y1473200D01*
X-76796900Y1168400D01*
X-76663550Y1168400D01*
X-76602116Y1168971D01*
X-76560634Y1171261D01*
X-76533671Y1176141D01*
X-76515792Y1184479D01*
X-76504800Y1193800D01*
X-76491584Y1211267D01*
X-76483819Y1235271D01*
X-76480198Y1272347D01*
X-76479400Y1320800D01*
X-76480798Y1380219D01*
X-76481459Y1384300D01*
X-76454000Y1384300D01*
X-76454000Y1257300D01*
X-76393040Y1257300D01*
X-76353801Y1260305D01*
X-76324358Y1267913D01*
X-76316840Y1272540D01*
X-76305105Y1296289D01*
X-76301600Y1320800D01*
X-76308063Y1355089D01*
X-76329873Y1375190D01*
X-76370662Y1383627D01*
X-76393040Y1384300D01*
X-76454000Y1384300D01*
X-76481459Y1384300D01*
X-76487539Y1421808D01*
X-76503449Y1448732D01*
X-76532350Y1464155D01*
X-76578069Y1471242D01*
X-76644427Y1473158D01*
X-76663550Y1473200D01*
X-76796900Y1473200D01*
X-76873100Y1473200D01*
X-76873100Y1879600D01*
X-76796900Y1879600D01*
X-76796900Y1587500D01*
X-76657921Y1587500D01*
X-76596370Y1587865D01*
X-76555112Y1589563D01*
X-76529045Y1593502D01*
X-76513064Y1600589D01*
X-76502068Y1611732D01*
X-76499171Y1615726D01*
X-76485819Y1650866D01*
X-76479813Y1708424D01*
X-76479400Y1733550D01*
X-76480720Y1791226D01*
X-76482708Y1803400D01*
X-76454000Y1803400D01*
X-76454000Y1663700D01*
X-76397758Y1663700D01*
X-76352859Y1668752D01*
X-76322968Y1682336D01*
X-76321558Y1683658D01*
X-76305816Y1713401D01*
X-76302509Y1750583D01*
X-76312214Y1782429D01*
X-76316840Y1788160D01*
X-76337917Y1797219D01*
X-76373809Y1802678D01*
X-76393040Y1803400D01*
X-76454000Y1803400D01*
X-76482708Y1803400D01*
X-76487271Y1831323D01*
X-76502944Y1857024D01*
X-76531629Y1871513D01*
X-76577216Y1877970D01*
X-76643595Y1879580D01*
X-76657921Y1879600D01*
X-76796900Y1879600D01*
X-76873100Y1879600D01*
X-76873100Y1935883D01*
X-76942950Y1866900D01*
X-77012800Y1797918D01*
X-77012800Y-283827D01*
X-77044550Y-254000D01*
X-77076300Y-224172D01*
X-77076300Y1773826D01*
X-77981175Y1782253D01*
X-78151895Y1783754D01*
X-78331495Y1785170D01*
X-78515720Y1786476D01*
X-78700315Y1787650D01*
X-78881026Y1788667D01*
X-79053597Y1789503D01*
X-79213774Y1790135D01*
X-79357301Y1790539D01*
X-79479925Y1790690D01*
X-79486125Y1790691D01*
X-80086200Y1790700D01*
X-80086200Y-1219200D01*
X-77800200Y-1219200D01*
X-77800200Y-1295400D01*
X-80106118Y-1295400D01*
X-80175100Y-1365250D01*
X-80244083Y-1435100D01*
X-83185000Y-1435100D01*
X-83185000Y-1133483D01*
X-80872021Y-1133483D01*
X-80861464Y-1168876D01*
X-80831885Y-1193756D01*
X-80786390Y-1204334D01*
X-80768129Y-1204021D01*
X-80714850Y-1200150D01*
X-80711018Y-1133569D01*
X-80695890Y-1133569D01*
X-80692110Y-1188677D01*
X-80679758Y-1235765D01*
X-80662644Y-1263241D01*
X-80647428Y-1272386D01*
X-80620710Y-1278315D01*
X-80578087Y-1281567D01*
X-80515156Y-1282683D01*
X-80503990Y-1282700D01*
X-80364794Y-1282700D01*
X-80371950Y-984250D01*
X-80500196Y-980652D01*
X-80561130Y-979620D01*
X-80602433Y-981082D01*
X-80629809Y-985759D01*
X-80648966Y-994371D01*
X-80657408Y-1000509D01*
X-80678379Y-1031448D01*
X-80691260Y-1078481D01*
X-80695890Y-1133569D01*
X-80711018Y-1133569D01*
X-80711012Y-1133475D01*
X-80707173Y-1066800D01*
X-80777240Y-1066800D01*
X-80820591Y-1068671D01*
X-80845717Y-1075663D01*
X-80859607Y-1089837D01*
X-80860454Y-1091365D01*
X-80872021Y-1133483D01*
X-83185000Y-1133483D01*
X-83185000Y-715343D01*
X-80873600Y-715343D01*
X-80862779Y-753048D01*
X-80831151Y-777293D01*
X-80779976Y-787203D01*
X-80770032Y-787400D01*
X-80708500Y-787400D01*
X-80708500Y-717550D01*
X-80689450Y-717550D01*
X-80688717Y-775053D01*
X-80683917Y-815050D01*
X-80671147Y-840719D01*
X-80646505Y-855238D01*
X-80606090Y-861782D01*
X-80546000Y-863531D01*
X-80510095Y-863600D01*
X-80365600Y-863600D01*
X-80365600Y-571500D01*
X-80510095Y-571500D01*
X-80580712Y-572096D01*
X-80629830Y-576006D01*
X-80661353Y-586404D01*
X-80679182Y-606470D01*
X-80687219Y-639380D01*
X-80689366Y-688312D01*
X-80689450Y-717550D01*
X-80708500Y-717550D01*
X-80708500Y-647700D01*
X-80767825Y-647700D01*
X-80821362Y-654946D01*
X-80857380Y-675510D01*
X-80873126Y-707633D01*
X-80873600Y-715343D01*
X-83185000Y-715343D01*
X-83185000Y-305253D01*
X-80870107Y-305253D01*
X-80861534Y-341717D01*
X-80848572Y-357570D01*
X-80826738Y-365633D01*
X-80788657Y-368230D01*
X-80777240Y-368300D01*
X-80707173Y-368300D01*
X-80711012Y-301625D01*
X-80712105Y-282631D01*
X-80694882Y-282631D01*
X-80693263Y-334279D01*
X-80686580Y-382046D01*
X-80675770Y-416964D01*
X-80670750Y-425028D01*
X-80658000Y-433908D01*
X-80634425Y-439749D01*
X-80595711Y-443074D01*
X-80537545Y-444407D01*
X-80510095Y-444500D01*
X-80365600Y-444500D01*
X-80365600Y-152400D01*
X-80504393Y-152400D01*
X-80573731Y-153394D01*
X-80622061Y-157685D01*
X-80653742Y-167230D01*
X-80673131Y-183989D01*
X-80684586Y-209921D01*
X-80690499Y-236071D01*
X-80694882Y-282631D01*
X-80712105Y-282631D01*
X-80714850Y-234950D01*
X-80761938Y-231040D01*
X-80800665Y-232059D01*
X-80832415Y-239756D01*
X-80834813Y-240931D01*
X-80860578Y-267586D01*
X-80870107Y-305253D01*
X-83185000Y-305253D01*
X-83185000Y110486D01*
X-80871195Y110486D01*
X-80863211Y82550D01*
X-80851920Y64079D01*
X-80834741Y54560D01*
X-80804045Y51130D01*
X-80778623Y50800D01*
X-80708500Y50800D01*
X-80708500Y116756D01*
X-80689450Y116756D01*
X-80688138Y56719D01*
X-80681666Y14590D01*
X-80666227Y-12790D01*
X-80638017Y-28580D01*
X-80593231Y-35940D01*
X-80528064Y-38029D01*
X-80502929Y-38100D01*
X-80364794Y-38100D01*
X-80371950Y260350D01*
X-80500196Y263948D01*
X-80560675Y265020D01*
X-80601624Y263668D01*
X-80628859Y259120D01*
X-80648195Y250603D01*
X-80658946Y242846D01*
X-80674355Y227944D01*
X-80683499Y209724D01*
X-80687977Y181581D01*
X-80689386Y136908D01*
X-80689450Y116756D01*
X-80708500Y116756D01*
X-80708500Y177800D01*
X-80778623Y177800D01*
X-80820012Y176499D01*
X-80843684Y170684D01*
X-80857271Y157493D01*
X-80863211Y146050D01*
X-80871195Y110486D01*
X-83185000Y110486D01*
X-83185000Y278606D01*
X-80302100Y278606D01*
X-80302100Y-1373188D01*
X-80232411Y-1312069D01*
X-80162721Y-1250950D01*
X-80162561Y278964D01*
X-80162400Y1808878D01*
X-80222248Y1869639D01*
X-80253925Y1900394D01*
X-80279079Y1922248D01*
X-80292098Y1930400D01*
X-80293325Y1917949D01*
X-80294509Y1881588D01*
X-80295640Y1822810D01*
X-80296710Y1743104D01*
X-80297710Y1643961D01*
X-80298631Y1526873D01*
X-80299463Y1393330D01*
X-80300198Y1244824D01*
X-80300826Y1082845D01*
X-80301339Y908883D01*
X-80301728Y724431D01*
X-80301983Y530979D01*
X-80302096Y330017D01*
X-80302100Y278606D01*
X-83185000Y278606D01*
X-83185000Y529257D01*
X-80873600Y529257D01*
X-80862779Y491552D01*
X-80831151Y467307D01*
X-80779976Y457397D01*
X-80770032Y457200D01*
X-80708500Y457200D01*
X-80708500Y527050D01*
X-80689450Y527050D01*
X-80688717Y469547D01*
X-80683917Y429550D01*
X-80671147Y403881D01*
X-80646505Y389362D01*
X-80606090Y382818D01*
X-80546000Y381069D01*
X-80510095Y381000D01*
X-80365600Y381000D01*
X-80365600Y673100D01*
X-80510095Y673100D01*
X-80580712Y672504D01*
X-80629830Y668594D01*
X-80661353Y658196D01*
X-80679182Y638130D01*
X-80687219Y605220D01*
X-80689366Y556288D01*
X-80689450Y527050D01*
X-80708500Y527050D01*
X-80708500Y596900D01*
X-80767825Y596900D01*
X-80821362Y589654D01*
X-80857380Y569090D01*
X-80873126Y536967D01*
X-80873600Y529257D01*
X-83185000Y529257D01*
X-83185000Y939347D01*
X-80870107Y939347D01*
X-80861534Y902883D01*
X-80848572Y887030D01*
X-80826738Y878967D01*
X-80788657Y876370D01*
X-80777240Y876300D01*
X-80707173Y876300D01*
X-80711012Y942975D01*
X-80712105Y961969D01*
X-80694882Y961969D01*
X-80693263Y910321D01*
X-80686580Y862554D01*
X-80675770Y827636D01*
X-80670750Y819572D01*
X-80658000Y810692D01*
X-80634425Y804851D01*
X-80595711Y801526D01*
X-80537545Y800193D01*
X-80510095Y800100D01*
X-80365600Y800100D01*
X-80365600Y1092200D01*
X-80504393Y1092200D01*
X-80573731Y1091206D01*
X-80622061Y1086915D01*
X-80653742Y1077370D01*
X-80673131Y1060611D01*
X-80684586Y1034679D01*
X-80690499Y1008529D01*
X-80694882Y961969D01*
X-80712105Y961969D01*
X-80714850Y1009650D01*
X-80761938Y1013560D01*
X-80800665Y1012541D01*
X-80832415Y1004844D01*
X-80834813Y1003669D01*
X-80860578Y977014D01*
X-80870107Y939347D01*
X-83185000Y939347D01*
X-83185000Y1355086D01*
X-80871195Y1355086D01*
X-80863211Y1327150D01*
X-80851920Y1308679D01*
X-80834741Y1299160D01*
X-80804045Y1295730D01*
X-80778623Y1295400D01*
X-80708500Y1295400D01*
X-80708500Y1361356D01*
X-80689450Y1361356D01*
X-80688138Y1301319D01*
X-80681666Y1259190D01*
X-80666227Y1231810D01*
X-80638017Y1216020D01*
X-80593231Y1208660D01*
X-80528064Y1206571D01*
X-80502929Y1206500D01*
X-80364794Y1206500D01*
X-80371950Y1504950D01*
X-80500196Y1508548D01*
X-80560675Y1509620D01*
X-80601624Y1508268D01*
X-80628859Y1503720D01*
X-80648195Y1495203D01*
X-80658946Y1487446D01*
X-80674355Y1472544D01*
X-80683499Y1454324D01*
X-80687977Y1426181D01*
X-80689386Y1381508D01*
X-80689450Y1361356D01*
X-80708500Y1361356D01*
X-80708500Y1422400D01*
X-80778623Y1422400D01*
X-80820012Y1421099D01*
X-80843684Y1415284D01*
X-80857271Y1402093D01*
X-80863211Y1390650D01*
X-80871195Y1355086D01*
X-83185000Y1355086D01*
X-83185000Y1774918D01*
X-80873600Y1774918D01*
X-80862900Y1736537D01*
X-80831449Y1712003D01*
X-80780226Y1702005D01*
X-80770032Y1701800D01*
X-80708500Y1701800D01*
X-80708500Y1771650D01*
X-80689450Y1771650D01*
X-80688717Y1714147D01*
X-80683917Y1674150D01*
X-80671147Y1648481D01*
X-80646505Y1633962D01*
X-80606090Y1627418D01*
X-80546000Y1625669D01*
X-80510095Y1625600D01*
X-80365600Y1625600D01*
X-80365600Y1917700D01*
X-80510095Y1917700D01*
X-80580712Y1917104D01*
X-80629830Y1913194D01*
X-80661353Y1902796D01*
X-80679182Y1882730D01*
X-80687219Y1849820D01*
X-80689366Y1800888D01*
X-80689450Y1771650D01*
X-80708500Y1771650D01*
X-80708500Y1841500D01*
X-80771093Y1841500D01*
X-80826484Y1834636D01*
X-80860581Y1814004D01*
X-80873473Y1779548D01*
X-80873600Y1774918D01*
X-83185000Y1774918D01*
X-83185000Y1993900D01*
X-80244083Y1993900D01*
X-80175100Y1924050D01*
X-80106118Y1854200D01*
X-77056383Y1854200D01*
X-76987400Y1924050D01*
X-76918418Y1993900D01*
X-80244083Y1993900D01*
X-83185000Y1993900D01*
X-83185000Y2202730D01*
X-80187800Y2202730D01*
X-80187800Y2057400D01*
X-79895700Y2057400D01*
X-79895700Y2202730D01*
X-79768700Y2202730D01*
X-79768700Y2057400D01*
X-79476600Y2057400D01*
X-79476600Y2166945D01*
X-79361505Y2166945D01*
X-79361144Y2119195D01*
X-79359367Y2086305D01*
X-79357552Y2076044D01*
X-79349390Y2067704D01*
X-79329849Y2062166D01*
X-79294947Y2058944D01*
X-79240699Y2057557D01*
X-79203949Y2057400D01*
X-79057500Y2057400D01*
X-79057500Y2196697D01*
X-78943200Y2196697D01*
X-78943200Y2056594D01*
X-78644750Y2063750D01*
X-78644750Y2202730D01*
X-78524100Y2202730D01*
X-78524100Y2057400D01*
X-78232000Y2057400D01*
X-78232000Y2202730D01*
X-78232088Y2209354D01*
X-78105000Y2209354D01*
X-78105000Y2057400D01*
X-77812900Y2057400D01*
X-77812900Y2202730D01*
X-77812936Y2205567D01*
X-77698600Y2205567D01*
X-77697791Y2150113D01*
X-77695606Y2104422D01*
X-77692411Y2074271D01*
X-77689741Y2065475D01*
X-77674166Y2062206D01*
X-77638759Y2060148D01*
X-77589065Y2059500D01*
X-77540516Y2060183D01*
X-77400150Y2063750D01*
X-77400150Y2202730D01*
X-77279500Y2202730D01*
X-77279500Y2057400D01*
X-76987400Y2057400D01*
X-76987400Y2202730D01*
X-76988359Y2274655D01*
X-76993250Y2325023D01*
X-77005100Y2357665D01*
X-77026931Y2376409D01*
X-77061770Y2385083D01*
X-77112639Y2387515D01*
X-77133450Y2387600D01*
X-77190272Y2386387D01*
X-77230064Y2380196D01*
X-77255851Y2365197D01*
X-77270659Y2337562D01*
X-77277511Y2293464D01*
X-77279433Y2229073D01*
X-77279500Y2202730D01*
X-77400150Y2202730D01*
X-77400150Y2207674D01*
X-77400897Y2278431D01*
X-77405279Y2327685D01*
X-77416507Y2359328D01*
X-77437796Y2377253D01*
X-77472357Y2385353D01*
X-77523403Y2387522D01*
X-77548628Y2387600D01*
X-77607402Y2386116D01*
X-77648445Y2379103D01*
X-77674920Y2362722D01*
X-77689992Y2333131D01*
X-77696824Y2286491D01*
X-77698579Y2218963D01*
X-77698600Y2205567D01*
X-77812936Y2205567D01*
X-77813831Y2274642D01*
X-77818692Y2324999D01*
X-77830585Y2357632D01*
X-77852613Y2376373D01*
X-77887880Y2385054D01*
X-77939488Y2387505D01*
X-77962611Y2387600D01*
X-78018819Y2387045D01*
X-78057864Y2382769D01*
X-78082872Y2370859D01*
X-78096970Y2347400D01*
X-78103284Y2308479D01*
X-78104941Y2250182D01*
X-78105000Y2209354D01*
X-78232088Y2209354D01*
X-78232959Y2274655D01*
X-78237850Y2325023D01*
X-78249700Y2357665D01*
X-78271531Y2376409D01*
X-78306370Y2385083D01*
X-78357239Y2387515D01*
X-78378050Y2387600D01*
X-78434872Y2386387D01*
X-78474664Y2380196D01*
X-78500451Y2365197D01*
X-78515259Y2337562D01*
X-78522111Y2293464D01*
X-78524033Y2229073D01*
X-78524100Y2202730D01*
X-78644750Y2202730D01*
X-78644750Y2207674D01*
X-78645497Y2278431D01*
X-78649879Y2327685D01*
X-78661107Y2359328D01*
X-78682396Y2377253D01*
X-78716957Y2385353D01*
X-78768003Y2387522D01*
X-78793228Y2387600D01*
X-78850812Y2386270D01*
X-78891416Y2379772D01*
X-78917992Y2364345D01*
X-78933495Y2336231D01*
X-78940879Y2291668D01*
X-78943097Y2226896D01*
X-78943200Y2196697D01*
X-79057500Y2196697D01*
X-79057500Y2197100D01*
X-79058553Y2270313D01*
X-79063686Y2321913D01*
X-79075864Y2355666D01*
X-79098047Y2375335D01*
X-79133201Y2384684D01*
X-79184288Y2387476D01*
X-79207473Y2387600D01*
X-79267668Y2386446D01*
X-79308934Y2380271D01*
X-79335050Y2365009D01*
X-79349796Y2336593D01*
X-79356952Y2290957D01*
X-79360298Y2224033D01*
X-79360328Y2223135D01*
X-79361505Y2166945D01*
X-79476600Y2166945D01*
X-79476600Y2202730D01*
X-79477559Y2274655D01*
X-79482450Y2325023D01*
X-79494300Y2357665D01*
X-79516131Y2376409D01*
X-79550970Y2385083D01*
X-79601839Y2387515D01*
X-79622650Y2387600D01*
X-79679472Y2386387D01*
X-79719264Y2380196D01*
X-79745051Y2365197D01*
X-79759859Y2337562D01*
X-79766711Y2293464D01*
X-79768633Y2229073D01*
X-79768700Y2202730D01*
X-79895700Y2202730D01*
X-79895700Y2209354D01*
X-79896144Y2279717D01*
X-79899560Y2328594D01*
X-79909074Y2359900D01*
X-79927814Y2377548D01*
X-79958905Y2385452D01*
X-80005475Y2387526D01*
X-80038090Y2387600D01*
X-80096325Y2386451D01*
X-80137105Y2380449D01*
X-80163532Y2365763D01*
X-80178708Y2338561D01*
X-80185738Y2295012D01*
X-80187723Y2231284D01*
X-80187800Y2202730D01*
X-83185000Y2202730D01*
X-83185000Y2469243D01*
X-80111600Y2469243D01*
X-80111600Y2413000D01*
X-79971900Y2413000D01*
X-79971900Y2473960D01*
X-79692500Y2473960D01*
X-79692500Y2413000D01*
X-79552800Y2413000D01*
X-79552800Y2464635D01*
X-79553657Y2473960D01*
X-79273400Y2473960D01*
X-79273400Y2413000D01*
X-79133700Y2413000D01*
X-78870232Y2413000D01*
X-78727300Y2413000D01*
X-78727300Y2473960D01*
X-78447900Y2473960D01*
X-78447900Y2413000D01*
X-78308200Y2413000D01*
X-78308200Y2473960D01*
X-78028800Y2473960D01*
X-78028800Y2413000D01*
X-77885869Y2413000D01*
X-77891725Y2473960D01*
X-77609700Y2473960D01*
X-77609700Y2413000D01*
X-77482700Y2413000D01*
X-77482700Y2464635D01*
X-77203300Y2464635D01*
X-77203300Y2413000D01*
X-77063600Y2413000D01*
X-77063600Y2473960D01*
X-77067788Y2522591D01*
X-77082562Y2551102D01*
X-77111242Y2563711D01*
X-77135544Y2565400D01*
X-77171102Y2558168D01*
X-77192701Y2534491D01*
X-77202336Y2491402D01*
X-77203300Y2464635D01*
X-77482700Y2464635D01*
X-77482700Y2473960D01*
X-77487188Y2523335D01*
X-77502334Y2552281D01*
X-77530660Y2564430D01*
X-77546200Y2565400D01*
X-77580489Y2558938D01*
X-77600590Y2537128D01*
X-77609027Y2496339D01*
X-77609700Y2473960D01*
X-77891725Y2473960D01*
X-77892100Y2477854D01*
X-77900570Y2525354D01*
X-77917228Y2552484D01*
X-77946025Y2563917D01*
X-77965935Y2565206D01*
X-77999895Y2558818D01*
X-78019830Y2536804D01*
X-78028168Y2495641D01*
X-78028800Y2473960D01*
X-78308200Y2473960D01*
X-78312450Y2522742D01*
X-78327288Y2551345D01*
X-78355850Y2563874D01*
X-78378050Y2565400D01*
X-78415314Y2559837D01*
X-78437164Y2540413D01*
X-78446735Y2503023D01*
X-78447900Y2473960D01*
X-78727300Y2473960D01*
X-78731823Y2523428D01*
X-78747010Y2552392D01*
X-78775287Y2564374D01*
X-78790165Y2565206D01*
X-78826414Y2559802D01*
X-78848573Y2541008D01*
X-78860593Y2504152D01*
X-78864001Y2477854D01*
X-78870232Y2413000D01*
X-79133700Y2413000D01*
X-79133700Y2460975D01*
X-79141776Y2512542D01*
X-79164275Y2548347D01*
X-79198607Y2564753D01*
X-79208081Y2565400D01*
X-79243212Y2559226D01*
X-79263812Y2538175D01*
X-79272587Y2498457D01*
X-79273400Y2473960D01*
X-79553657Y2473960D01*
X-79557664Y2517516D01*
X-79573585Y2549637D01*
X-79602559Y2563966D01*
X-79620557Y2565400D01*
X-79658819Y2560078D01*
X-79681251Y2541300D01*
X-79691171Y2504848D01*
X-79692500Y2473960D01*
X-79971900Y2473960D01*
X-79976319Y2523160D01*
X-79991367Y2552007D01*
X-80019733Y2564279D01*
X-80037033Y2565400D01*
X-80077299Y2555942D01*
X-80101924Y2527106D01*
X-80111442Y2478202D01*
X-80111600Y2469243D01*
X-83185000Y2469243D01*
X-83185000Y7073900D01*
X-50177700Y7073900D01*
X-50177700Y-7099300D01*
X-50177700Y-7099300D01*
G37*
X-50177700Y-7099300D02*
X-83185000Y-7099300D01*
X-83185000Y-1901128D01*
X-80147222Y-1901128D01*
X-80142282Y-1951261D01*
X-80121771Y-1986518D01*
X-80089478Y-2003794D01*
X-80049191Y-1999985D01*
X-80034566Y-1993453D01*
X-80019718Y-1980167D01*
X-80012221Y-1956213D01*
X-80010011Y-1914600D01*
X-80010000Y-1910239D01*
X-80010000Y-1841500D01*
X-79730600Y-1841500D01*
X-79730600Y-1904279D01*
X-79728084Y-1946047D01*
X-79718556Y-1971420D01*
X-79702375Y-1986829D01*
X-79676642Y-2001658D01*
X-79660750Y-2006600D01*
X-79641092Y-1999869D01*
X-79619126Y-1986829D01*
X-79601140Y-1968634D01*
X-79592733Y-1941553D01*
X-79591185Y-1910055D01*
X-79311500Y-1910055D01*
X-79309221Y-1955026D01*
X-79301268Y-1981138D01*
X-79289275Y-1992882D01*
X-79248494Y-2005423D01*
X-79211111Y-1992872D01*
X-79196504Y-1980503D01*
X-79178433Y-1953356D01*
X-79173566Y-1916256D01*
X-79174279Y-1901128D01*
X-79178150Y-1847850D01*
X-79288435Y-1841500D01*
X-78892400Y-1841500D01*
X-78892400Y-1910718D01*
X-78890066Y-1955537D01*
X-78881941Y-1981511D01*
X-78870175Y-1992882D01*
X-78832759Y-2005490D01*
X-78794778Y-1995928D01*
X-78789966Y-1993453D01*
X-78775047Y-1980057D01*
X-78767557Y-1955878D01*
X-78765405Y-1913901D01*
X-78765400Y-1910903D01*
X-78765400Y-1841500D01*
X-78486000Y-1841500D01*
X-78486000Y-1904279D01*
X-78483484Y-1946047D01*
X-78473956Y-1971420D01*
X-78457775Y-1986829D01*
X-78432042Y-2001658D01*
X-78416150Y-2006600D01*
X-78396492Y-1999869D01*
X-78374526Y-1986829D01*
X-78356540Y-1968634D01*
X-78348133Y-1941553D01*
X-78346300Y-1904279D01*
X-78346300Y-1841500D01*
X-78066900Y-1841500D01*
X-78066900Y-1910718D01*
X-78064566Y-1955537D01*
X-78056441Y-1981511D01*
X-78044675Y-1992882D01*
X-78003731Y-2005434D01*
X-77966352Y-1992869D01*
X-77952600Y-1981200D01*
X-77933388Y-1948914D01*
X-77927206Y-1900480D01*
X-77927200Y-1898650D01*
X-77927200Y-1841500D01*
X-78066900Y-1841500D01*
X-78346300Y-1841500D01*
X-78486000Y-1841500D01*
X-78765400Y-1841500D01*
X-78892400Y-1841500D01*
X-79288435Y-1841500D01*
X-79311500Y-1840172D01*
X-79311500Y-1910055D01*
X-79591185Y-1910055D01*
X-79590900Y-1904279D01*
X-79590900Y-1841500D01*
X-79730600Y-1841500D01*
X-80010000Y-1841500D01*
X-80010000Y-1840172D01*
X-80143350Y-1847850D01*
X-80147222Y-1901128D01*
X-83185000Y-1901128D01*
X-83185000Y-1635928D01*
X-80225900Y-1635928D01*
X-80225277Y-1699255D01*
X-80222942Y-1742129D01*
X-80218201Y-1769479D01*
X-80210359Y-1786233D01*
X-80203675Y-1793424D01*
X-80179562Y-1811374D01*
X-80153651Y-1821506D01*
X-80118585Y-1825324D01*
X-80067009Y-1824328D01*
X-80055163Y-1823740D01*
X-80005313Y-1819740D01*
X-79973704Y-1812712D01*
X-79953193Y-1800516D01*
X-79943615Y-1790290D01*
X-79932758Y-1773137D01*
X-79926193Y-1750585D01*
X-79923203Y-1716938D01*
X-79923071Y-1666498D01*
X-79923853Y-1633195D01*
X-79927450Y-1504950D01*
X-80076675Y-1501371D01*
X-80192243Y-1498600D01*
X-79806800Y-1498600D01*
X-79806800Y-1643094D01*
X-79806163Y-1710174D01*
X-79803280Y-1756383D01*
X-79796694Y-1786241D01*
X-79784949Y-1804264D01*
X-79766588Y-1814970D01*
X-79749650Y-1820357D01*
X-79717335Y-1824569D01*
X-79672348Y-1824858D01*
X-79622990Y-1821871D01*
X-79577562Y-1816254D01*
X-79544364Y-1808655D01*
X-79533936Y-1803553D01*
X-79525135Y-1790660D01*
X-79519347Y-1766539D01*
X-79516064Y-1726944D01*
X-79514775Y-1667627D01*
X-79514700Y-1643094D01*
X-79514700Y-1498600D01*
X-79387700Y-1498600D01*
X-79387700Y-1643094D01*
X-79386704Y-1715430D01*
X-79381532Y-1766061D01*
X-79368910Y-1798666D01*
X-79345563Y-1816925D01*
X-79308219Y-1824517D01*
X-79253602Y-1825121D01*
X-79226494Y-1824241D01*
X-79170488Y-1818776D01*
X-79133942Y-1806462D01*
X-79121719Y-1797700D01*
X-79110040Y-1784592D01*
X-79102441Y-1767104D01*
X-79098069Y-1739973D01*
X-79096073Y-1697935D01*
X-79095600Y-1636331D01*
X-79095600Y-1635928D01*
X-78981300Y-1635928D01*
X-78980677Y-1699255D01*
X-78978342Y-1742129D01*
X-78973601Y-1769479D01*
X-78965759Y-1786233D01*
X-78959075Y-1793424D01*
X-78934962Y-1811374D01*
X-78909051Y-1821506D01*
X-78873985Y-1825324D01*
X-78822409Y-1824328D01*
X-78810563Y-1823740D01*
X-78760713Y-1819740D01*
X-78729104Y-1812712D01*
X-78708593Y-1800516D01*
X-78699015Y-1790290D01*
X-78688158Y-1773137D01*
X-78681593Y-1750585D01*
X-78678603Y-1716938D01*
X-78678471Y-1666498D01*
X-78679253Y-1633195D01*
X-78682850Y-1504950D01*
X-78832075Y-1501371D01*
X-78947643Y-1498600D01*
X-78562200Y-1498600D01*
X-78562200Y-1791926D01*
X-78520925Y-1810662D01*
X-78484716Y-1820247D01*
X-78435867Y-1824615D01*
X-78382891Y-1824028D01*
X-78334300Y-1818747D01*
X-78298606Y-1809034D01*
X-78289336Y-1803553D01*
X-78280535Y-1790660D01*
X-78274747Y-1766539D01*
X-78271464Y-1726944D01*
X-78270175Y-1667627D01*
X-78270100Y-1643094D01*
X-78270100Y-1498600D01*
X-78143100Y-1498600D01*
X-78143100Y-1643094D01*
X-78142440Y-1710407D01*
X-78139498Y-1756784D01*
X-78132833Y-1786674D01*
X-78121006Y-1804528D01*
X-78102575Y-1814794D01*
X-78085950Y-1819610D01*
X-78040868Y-1825888D01*
X-77987283Y-1826775D01*
X-77937001Y-1822553D01*
X-77906061Y-1815305D01*
X-77877234Y-1800741D01*
X-77860978Y-1786730D01*
X-77857022Y-1768414D01*
X-77853821Y-1730678D01*
X-77851761Y-1679497D01*
X-77851195Y-1635125D01*
X-77851000Y-1498600D01*
X-78143100Y-1498600D01*
X-78270100Y-1498600D01*
X-78562200Y-1498600D01*
X-78947643Y-1498600D01*
X-78981300Y-1497793D01*
X-78981300Y-1635928D01*
X-79095600Y-1635928D01*
X-79095600Y-1498600D01*
X-79387700Y-1498600D01*
X-79514700Y-1498600D01*
X-79806800Y-1498600D01*
X-80192243Y-1498600D01*
X-80225900Y-1497793D01*
X-80225900Y-1635928D01*
X-83185000Y-1635928D01*
X-83185000Y-1435100D01*
X-80244083Y-1435100D01*
X-77791466Y-1435100D01*
X-77783133Y-1627619D01*
X-77779850Y-1712987D01*
X-77776927Y-1806445D01*
X-77774668Y-1897158D01*
X-77773374Y-1974289D01*
X-77773316Y-1980044D01*
X-77772052Y-2050636D01*
X-77769749Y-2120758D01*
X-77766748Y-2181765D01*
X-77763791Y-2221155D01*
X-77755750Y-2302361D01*
X-77687842Y-2328100D01*
X-77619933Y-2353839D01*
X-77433842Y-2159700D01*
X-77247750Y-1965561D01*
X-77206767Y-1989255D01*
X-77175559Y-2003989D01*
X-77153410Y-2003754D01*
X-77141321Y-1997735D01*
X-77134692Y-1993851D01*
X-77128458Y-1992485D01*
X-77121570Y-1995672D01*
X-77112975Y-2005446D01*
X-77101622Y-2023843D01*
X-77086459Y-2052895D01*
X-77066435Y-2094639D01*
X-77040498Y-2151108D01*
X-77007597Y-2224336D01*
X-76966680Y-2316360D01*
X-76916696Y-2429212D01*
X-76907007Y-2451100D01*
X-76876212Y-2520283D01*
X-76853141Y-2569992D01*
X-76835279Y-2603999D01*
X-76820114Y-2626076D01*
X-76805131Y-2639992D01*
X-76787816Y-2649522D01*
X-76769917Y-2656784D01*
X-76737180Y-2669557D01*
X-76716892Y-2677639D01*
X-76713733Y-2679009D01*
X-76702810Y-2673533D01*
X-76672311Y-2657739D01*
X-76625136Y-2633142D01*
X-76564185Y-2601256D01*
X-76492357Y-2563596D01*
X-76412552Y-2521677D01*
X-76408933Y-2519774D01*
X-76328025Y-2477047D01*
X-76254305Y-2437755D01*
X-76190833Y-2403557D01*
X-76140667Y-2376113D01*
X-76106865Y-2357081D01*
X-76092486Y-2348121D01*
X-76092443Y-2348082D01*
X-76081335Y-2329198D01*
X-76068558Y-2296342D01*
X-76064819Y-2284439D01*
X-76049502Y-2232563D01*
X-76246250Y-1883363D01*
X-76294199Y-1797758D01*
X-76337555Y-1719386D01*
X-76374872Y-1650934D01*
X-76404707Y-1595090D01*
X-76425618Y-1554539D01*
X-76436159Y-1531969D01*
X-76437060Y-1528225D01*
X-76423169Y-1527227D01*
X-76388753Y-1528093D01*
X-76338594Y-1530512D01*
X-76277473Y-1534171D01*
X-76210173Y-1538757D01*
X-76141475Y-1543960D01*
X-76076160Y-1549466D01*
X-76019011Y-1554964D01*
X-76005852Y-1556378D01*
X-75945053Y-1563100D01*
X-75879291Y-1419456D01*
X-76179346Y-1119205D01*
X-76479400Y-818955D01*
X-76479400Y-742503D01*
X-76482315Y-685800D01*
X-76454000Y-685800D01*
X-76454000Y-825500D01*
X-76397758Y-825500D01*
X-76352859Y-820448D01*
X-76322968Y-806864D01*
X-76321558Y-805542D01*
X-76305816Y-775799D01*
X-76302509Y-738617D01*
X-76312214Y-706771D01*
X-76316840Y-701040D01*
X-76337917Y-691981D01*
X-76373809Y-686522D01*
X-76393040Y-685800D01*
X-76454000Y-685800D01*
X-76482315Y-685800D01*
X-76482474Y-682715D01*
X-76494299Y-643703D01*
X-76518782Y-621309D01*
X-76559829Y-611375D01*
X-76604263Y-609600D01*
X-76689586Y-609600D01*
X-76873100Y-424852D01*
X-76873100Y-190500D01*
X-76796900Y-190500D01*
X-76796900Y-482600D01*
X-76657921Y-482600D01*
X-76596370Y-482235D01*
X-76555112Y-480537D01*
X-76529045Y-476598D01*
X-76513064Y-469511D01*
X-76502068Y-458368D01*
X-76499171Y-454374D01*
X-76485819Y-419234D01*
X-76479813Y-361676D01*
X-76479400Y-336550D01*
X-76480720Y-278874D01*
X-76482708Y-266700D01*
X-76454000Y-266700D01*
X-76454000Y-406400D01*
X-76393040Y-406400D01*
X-76353801Y-403395D01*
X-76324358Y-395787D01*
X-76316840Y-391160D01*
X-76303725Y-362718D01*
X-76303768Y-325684D01*
X-76316393Y-292830D01*
X-76321558Y-286657D01*
X-76349932Y-272517D01*
X-76394002Y-266731D01*
X-76397758Y-266700D01*
X-76454000Y-266700D01*
X-76482708Y-266700D01*
X-76487271Y-238777D01*
X-76502944Y-213076D01*
X-76531629Y-198587D01*
X-76577216Y-192130D01*
X-76643595Y-190520D01*
X-76657921Y-190500D01*
X-76796900Y-190500D01*
X-76873100Y-190500D01*
X-76873100Y228600D01*
X-76796900Y228600D01*
X-76796900Y-76200D01*
X-76663550Y-76200D01*
X-76602116Y-75629D01*
X-76560634Y-73339D01*
X-76533671Y-68459D01*
X-76515792Y-60121D01*
X-76504800Y-50800D01*
X-76491584Y-33333D01*
X-76483819Y-9329D01*
X-76480198Y27747D01*
X-76479400Y76200D01*
X-76480798Y135619D01*
X-76481459Y139700D01*
X-76454000Y139700D01*
X-76454000Y12700D01*
X-76393040Y12700D01*
X-76353801Y15705D01*
X-76324358Y23313D01*
X-76316840Y27940D01*
X-76305105Y51689D01*
X-76301600Y76200D01*
X-76308063Y110489D01*
X-76329873Y130590D01*
X-76370662Y139027D01*
X-76393040Y139700D01*
X-76454000Y139700D01*
X-76481459Y139700D01*
X-76487539Y177208D01*
X-76503449Y204132D01*
X-76532350Y219555D01*
X-76578069Y226642D01*
X-76644427Y228558D01*
X-76663550Y228600D01*
X-76796900Y228600D01*
X-76873100Y228600D01*
X-76873100Y635000D01*
X-76796900Y635000D01*
X-76796900Y342900D01*
X-76657921Y342900D01*
X-76596370Y343265D01*
X-76555112Y344963D01*
X-76529045Y348902D01*
X-76513064Y355989D01*
X-76502068Y367132D01*
X-76499171Y371126D01*
X-76485819Y406266D01*
X-76479813Y463824D01*
X-76479400Y488950D01*
X-76480720Y546626D01*
X-76482708Y558800D01*
X-76454000Y558800D01*
X-76454000Y419100D01*
X-76397758Y419100D01*
X-76352859Y424152D01*
X-76322968Y437736D01*
X-76321558Y439058D01*
X-76305816Y468801D01*
X-76302509Y505983D01*
X-76312214Y537829D01*
X-76316840Y543560D01*
X-76337917Y552619D01*
X-76373809Y558078D01*
X-76393040Y558800D01*
X-76454000Y558800D01*
X-76482708Y558800D01*
X-76487271Y586723D01*
X-76502944Y612424D01*
X-76531629Y626913D01*
X-76577216Y633370D01*
X-76643595Y634980D01*
X-76657921Y635000D01*
X-76796900Y635000D01*
X-76873100Y635000D01*
X-76873100Y1054100D01*
X-76796900Y1054100D01*
X-76796900Y762000D01*
X-76657921Y762000D01*
X-76596370Y762365D01*
X-76555112Y764063D01*
X-76529045Y768002D01*
X-76513064Y775089D01*
X-76502068Y786232D01*
X-76499171Y790226D01*
X-76485819Y825366D01*
X-76479813Y882924D01*
X-76479400Y908050D01*
X-76480720Y965726D01*
X-76482708Y977900D01*
X-76454000Y977900D01*
X-76454000Y838200D01*
X-76393040Y838200D01*
X-76353801Y841205D01*
X-76324358Y848813D01*
X-76316840Y853440D01*
X-76303725Y881882D01*
X-76303768Y918916D01*
X-76316393Y951770D01*
X-76321558Y957943D01*
X-76349932Y972083D01*
X-76394002Y977869D01*
X-76397758Y977900D01*
X-76454000Y977900D01*
X-76482708Y977900D01*
X-76487271Y1005823D01*
X-76502944Y1031524D01*
X-76531629Y1046013D01*
X-76577216Y1052470D01*
X-76643595Y1054080D01*
X-76657921Y1054100D01*
X-76796900Y1054100D01*
X-76873100Y1054100D01*
X-76873100Y1130300D01*
X-75755500Y1130300D01*
X-75755500Y-1092200D01*
X-75247922Y-1092200D01*
X-75241150Y-428168D01*
X-74931199Y-760184D01*
X-74621247Y-1092200D01*
X-74010046Y-1092200D01*
X-74080816Y-1019175D01*
X-74105731Y-993479D01*
X-74145884Y-952085D01*
X-74198824Y-897518D01*
X-74262097Y-832307D01*
X-74333254Y-758977D01*
X-74409840Y-680056D01*
X-74489405Y-598072D01*
X-74496344Y-590922D01*
X-74572582Y-512156D01*
X-74642974Y-439021D01*
X-74705616Y-373527D01*
X-74758601Y-317684D01*
X-74800026Y-273500D01*
X-74827986Y-242987D01*
X-74840577Y-228153D01*
X-74841100Y-227142D01*
X-74832145Y-216888D01*
X-74806568Y-191149D01*
X-74766301Y-151783D01*
X-74713277Y-100649D01*
X-74649429Y-39607D01*
X-74576689Y29483D01*
X-74496990Y104763D01*
X-74457914Y141531D01*
X-74074727Y501650D01*
X-74365494Y505071D01*
X-74614442Y508000D01*
X-73812400Y508000D01*
X-73812400Y-1092200D01*
X-73304400Y-1092200D01*
X-73304400Y508000D01*
X-73012998Y508000D01*
X-73005950Y146050D01*
X-72883500Y142432D01*
X-72761049Y138814D01*
X-72754834Y-283018D01*
X-72752801Y-407689D01*
X-72750496Y-510040D01*
X-72747559Y-593149D01*
X-72743631Y-660094D01*
X-72738354Y-713955D01*
X-72731368Y-757812D01*
X-72722315Y-794741D01*
X-72710836Y-827824D01*
X-72696571Y-860138D01*
X-72684786Y-883852D01*
X-72657366Y-926159D01*
X-72622099Y-966980D01*
X-72612526Y-975954D01*
X-72570088Y-1008420D01*
X-72522408Y-1034496D01*
X-72466393Y-1054795D01*
X-72398949Y-1069928D01*
X-72316983Y-1080510D01*
X-72217402Y-1087151D01*
X-72097112Y-1090465D01*
X-72031225Y-1091053D01*
X-71767700Y-1092200D01*
X-71767700Y-740482D01*
X-71952475Y-732995D01*
X-72041195Y-728181D01*
X-72108133Y-721068D01*
X-72156883Y-710394D01*
X-72191044Y-694899D01*
X-72214209Y-673322D01*
X-72229976Y-644400D01*
X-72233709Y-634372D01*
X-72239022Y-606317D01*
X-72243231Y-555682D01*
X-72243636Y-546100D01*
X-71348600Y-546100D01*
X-71348600Y-1092200D01*
X-70840600Y-1092200D01*
X-70840600Y-546100D01*
X-71348600Y-546100D01*
X-72243636Y-546100D01*
X-72246359Y-481811D01*
X-72248432Y-384045D01*
X-72249477Y-261728D01*
X-72249584Y-225682D01*
X-72250134Y54962D01*
X-70375083Y54962D01*
X-70375069Y31750D01*
X-70368529Y-64363D01*
X-70349887Y-147234D01*
X-70317512Y-218134D01*
X-70269768Y-278337D01*
X-70205021Y-329116D01*
X-70121639Y-371744D01*
X-70017986Y-407493D01*
X-69892430Y-437637D01*
X-69743336Y-463449D01*
X-69738581Y-464155D01*
X-69653819Y-477108D01*
X-69590009Y-488208D01*
X-69542895Y-498707D01*
X-69508219Y-509855D01*
X-69481725Y-522904D01*
X-69459156Y-539104D01*
X-69446775Y-549900D01*
X-69424641Y-585564D01*
X-69417518Y-632316D01*
X-69425581Y-680629D01*
X-69443737Y-714839D01*
X-69477185Y-746373D01*
X-69522671Y-768997D01*
X-69583492Y-783546D01*
X-69662943Y-790853D01*
X-69748400Y-791986D01*
X-69916743Y-781322D01*
X-70074097Y-752215D01*
X-70228446Y-703112D01*
X-70251081Y-694228D01*
X-70358644Y-651039D01*
X-70355147Y-842707D01*
X-70351650Y-1034376D01*
X-70231281Y-1063017D01*
X-70076041Y-1095363D01*
X-69929231Y-1115509D01*
X-69779566Y-1124632D01*
X-69640450Y-1124568D01*
X-69544147Y-1121224D01*
X-69467505Y-1115864D01*
X-69404824Y-1107910D01*
X-69350407Y-1096786D01*
X-69339853Y-1094087D01*
X-69220536Y-1054165D01*
X-69123457Y-1002796D01*
X-69047708Y-938986D01*
X-68992379Y-861743D01*
X-68956560Y-770076D01*
X-68939342Y-662990D01*
X-68938912Y-656567D01*
X-68940404Y-536552D01*
X-68960882Y-433272D01*
X-69000324Y-346799D01*
X-69051963Y-283455D01*
X-69097465Y-246502D01*
X-69152835Y-214106D01*
X-69220803Y-185376D01*
X-69304103Y-159420D01*
X-69405465Y-135346D01*
X-69527623Y-112263D01*
X-69624483Y-96598D01*
X-69717524Y-81176D01*
X-69788654Y-66277D01*
X-69841297Y-50597D01*
X-69878875Y-32830D01*
X-69904813Y-11671D01*
X-69922533Y14185D01*
X-69924293Y17715D01*
X-69934437Y46616D01*
X-69932108Y74814D01*
X-69923962Y99105D01*
X-69905241Y135677D01*
X-69878474Y162477D01*
X-69839851Y181010D01*
X-69785556Y192785D01*
X-69711779Y199305D01*
X-69665850Y201082D01*
X-69487869Y194292D01*
X-69311470Y163571D01*
X-69148406Y113925D01*
X-69101514Y96965D01*
X-69064749Y83958D01*
X-69043806Y76906D01*
X-69041120Y76200D01*
X-69039752Y88167D01*
X-69038593Y121131D01*
X-69037732Y170691D01*
X-69037261Y232445D01*
X-69037200Y265683D01*
X-69037200Y455165D01*
X-69123486Y474790D01*
X-69254319Y502061D01*
X-69292064Y508000D01*
X-68541900Y508000D01*
X-68541900Y-1701800D01*
X-68033900Y-1701800D01*
X-68033900Y-1359687D01*
X-60986082Y-1359687D01*
X-60831396Y-1356118D01*
X-60676711Y-1352550D01*
X-60304406Y-165100D01*
X-60251877Y2526D01*
X-60201547Y163301D01*
X-60153932Y315571D01*
X-60109548Y457677D01*
X-60093852Y508000D01*
X-59677300Y508000D01*
X-59677300Y-1092200D01*
X-59170783Y-1092200D01*
X-59166652Y-644525D01*
X-59165351Y-517213D01*
X-59163747Y-412389D01*
X-59161428Y-327141D01*
X-59157982Y-258559D01*
X-59152995Y-203729D01*
X-59146054Y-159741D01*
X-59136749Y-123682D01*
X-59124665Y-92641D01*
X-59109390Y-63707D01*
X-59090512Y-33967D01*
X-59077398Y-14692D01*
X-59018427Y49317D01*
X-58942934Y96561D01*
X-58854509Y125792D01*
X-58756739Y135762D01*
X-58667495Y127905D01*
X-58615979Y117415D01*
X-58568317Y105156D01*
X-58538426Y95139D01*
X-58496200Y77497D01*
X-58496200Y508000D01*
X-58242200Y508000D01*
X-58242200Y-55118D01*
X-58242127Y-191247D01*
X-58241841Y-304585D01*
X-58241246Y-397742D01*
X-58240243Y-473325D01*
X-58238737Y-533943D01*
X-58236628Y-582207D01*
X-58233821Y-620724D01*
X-58230216Y-652103D01*
X-58225718Y-678953D01*
X-58220228Y-703883D01*
X-58217583Y-714490D01*
X-58201661Y-769652D01*
X-58183286Y-822872D01*
X-58166354Y-862899D01*
X-58165881Y-863834D01*
X-58126335Y-925335D01*
X-58073108Y-986712D01*
X-58014798Y-1038746D01*
X-57981948Y-1061064D01*
X-57905181Y-1094763D01*
X-57813020Y-1117402D01*
X-57713341Y-1128107D01*
X-57614014Y-1126011D01*
X-57527105Y-1111355D01*
X-57426870Y-1076621D01*
X-57336394Y-1025691D01*
X-57248713Y-954522D01*
X-57235835Y-942299D01*
X-57150000Y-859432D01*
X-57150000Y-1092200D01*
X-56642000Y-1092200D01*
X-56642000Y508000D01*
X-57148599Y508000D01*
X-57152581Y28575D01*
X-57153660Y-94852D01*
X-57154750Y-195633D01*
X-57156013Y-276520D01*
X-57157611Y-340264D01*
X-57159703Y-389619D01*
X-57162453Y-427337D01*
X-57166020Y-456170D01*
X-57170567Y-478872D01*
X-57176254Y-498194D01*
X-57183244Y-516889D01*
X-57184774Y-520700D01*
X-57231506Y-608915D01*
X-57291807Y-676217D01*
X-57358651Y-719064D01*
X-57431540Y-742291D01*
X-57506007Y-747232D01*
X-57576384Y-734860D01*
X-57637003Y-706146D01*
X-57681006Y-663762D01*
X-57693968Y-643481D01*
X-57704723Y-620705D01*
X-57713466Y-592998D01*
X-57720394Y-557925D01*
X-57725705Y-513051D01*
X-57729594Y-455938D01*
X-57732258Y-384152D01*
X-57733894Y-295257D01*
X-57734698Y-186818D01*
X-57734866Y-56397D01*
X-57734799Y2906D01*
X-57733987Y508000D01*
X-58242200Y508000D01*
X-58496200Y508000D01*
X-58496200Y531379D01*
X-58578125Y540152D01*
X-58701779Y541358D01*
X-58819000Y518231D01*
X-58928615Y471283D01*
X-59029455Y401031D01*
X-59120348Y307990D01*
X-59128052Y298450D01*
X-59168449Y247650D01*
X-59168875Y377825D01*
X-59169300Y508000D01*
X-59677300Y508000D01*
X-60093852Y508000D01*
X-60068910Y587963D01*
X-60032534Y704772D01*
X-60000936Y806448D01*
X-59974632Y891332D01*
X-59954137Y957769D01*
X-59939967Y1004101D01*
X-59932638Y1028671D01*
X-59931701Y1032266D01*
X-59943419Y1035798D01*
X-59975660Y1038179D01*
X-60023566Y1039209D01*
X-60082277Y1038687D01*
X-60085412Y1038616D01*
X-60239523Y1035050D01*
X-60605257Y-133350D01*
X-60657441Y-300111D01*
X-60707555Y-460354D01*
X-60755067Y-612370D01*
X-60799443Y-754451D01*
X-60840153Y-884890D01*
X-60876663Y-1001980D01*
X-60908441Y-1104013D01*
X-60934955Y-1189282D01*
X-60955672Y-1256079D01*
X-60970061Y-1302696D01*
X-60977588Y-1327427D01*
X-60978536Y-1330718D01*
X-60986082Y-1359687D01*
X-68033900Y-1359687D01*
X-68033900Y-865951D01*
X-67952307Y-947545D01*
X-67857070Y-1027098D01*
X-67753094Y-1083429D01*
X-67638975Y-1117043D01*
X-67513314Y-1128446D01*
X-67456050Y-1126689D01*
X-67334589Y-1107002D01*
X-67223295Y-1064577D01*
X-67123202Y-1000379D01*
X-67035340Y-915369D01*
X-66960741Y-810510D01*
X-66900438Y-686765D01*
X-66874832Y-609600D01*
X-66554028Y-609600D01*
X-66553661Y-674947D01*
X-66551458Y-722020D01*
X-66546274Y-757933D01*
X-66536967Y-789804D01*
X-66522393Y-824747D01*
X-66517849Y-834674D01*
X-66473360Y-908323D01*
X-66412162Y-978744D01*
X-66342175Y-1037681D01*
X-66296235Y-1065659D01*
X-66194213Y-1104645D01*
X-66079216Y-1125624D01*
X-65956716Y-1128051D01*
X-65833239Y-1111612D01*
X-65740095Y-1084060D01*
X-65658055Y-1041555D01*
X-65580254Y-980127D01*
X-65543802Y-944216D01*
X-65508687Y-908231D01*
X-65480586Y-880527D01*
X-65463787Y-865283D01*
X-65461095Y-863600D01*
X-65458763Y-875354D01*
X-65456956Y-906841D01*
X-65455934Y-952391D01*
X-65455800Y-977900D01*
X-65455800Y-1092200D01*
X-64945703Y-1092200D01*
X-64950938Y-542925D01*
X-64952380Y-401522D01*
X-64953964Y-282849D01*
X-64954738Y-244795D01*
X-64578930Y-244795D01*
X-64578082Y-344381D01*
X-64571238Y-442494D01*
X-64558702Y-531336D01*
X-64540780Y-603108D01*
X-64540732Y-603250D01*
X-64487327Y-722340D01*
X-64412811Y-830790D01*
X-64320403Y-925254D01*
X-64213320Y-1002387D01*
X-64106631Y-1054390D01*
X-63965944Y-1096959D01*
X-63812385Y-1122105D01*
X-63652029Y-1129321D01*
X-63490950Y-1118103D01*
X-63437578Y-1110082D01*
X-63376188Y-1098301D01*
X-63315637Y-1084610D01*
X-63266352Y-1071426D01*
X-63254365Y-1067608D01*
X-63188850Y-1045352D01*
X-63181872Y-635160D01*
X-63242511Y-673636D01*
X-63335600Y-720032D01*
X-63442341Y-752239D01*
X-63554320Y-768640D01*
X-63663118Y-767619D01*
X-63703200Y-762090D01*
X-63806474Y-732776D01*
X-63892010Y-685287D01*
X-63959781Y-619658D01*
X-64009761Y-535919D01*
X-64041925Y-434104D01*
X-64055432Y-330200D01*
X-64054749Y-292100D01*
X-62842750Y-292100D01*
X-62840893Y-392541D01*
X-62833885Y-472558D01*
X-62822203Y-533400D01*
X-62775122Y-669796D01*
X-62709111Y-789373D01*
X-62624588Y-891772D01*
X-62521971Y-976631D01*
X-62401675Y-1043589D01*
X-62264118Y-1092286D01*
X-62146956Y-1117071D01*
X-62076968Y-1123967D01*
X-61988934Y-1126391D01*
X-61889752Y-1124678D01*
X-61786317Y-1119163D01*
X-61685525Y-1110181D01*
X-61594273Y-1098066D01*
X-61537850Y-1087483D01*
X-61469634Y-1071462D01*
X-61399642Y-1053374D01*
X-61338110Y-1035935D01*
X-61309250Y-1026826D01*
X-61220350Y-996950D01*
X-61216851Y-804370D01*
X-61213351Y-611790D01*
X-61343851Y-669307D01*
X-61489773Y-725918D01*
X-61631920Y-766079D01*
X-61767612Y-789547D01*
X-61894172Y-796073D01*
X-62008921Y-785413D01*
X-62109181Y-757320D01*
X-62141821Y-742584D01*
X-62213114Y-692604D01*
X-62270021Y-623734D01*
X-62310065Y-539519D01*
X-62325660Y-479425D01*
X-62334427Y-431800D01*
X-61134198Y-431800D01*
X-61141639Y-263525D01*
X-61146158Y-192376D01*
X-61152982Y-122670D01*
X-61161187Y-62361D01*
X-61169855Y-19404D01*
X-61169951Y-19050D01*
X-61217752Y109022D01*
X-61286545Y224236D01*
X-61374437Y324754D01*
X-61479537Y408741D01*
X-61599954Y474361D01*
X-61722000Y516763D01*
X-61786150Y528421D01*
X-61867742Y535550D01*
X-61959230Y538154D01*
X-62053065Y536233D01*
X-62141697Y529792D01*
X-62217577Y518832D01*
X-62228294Y516601D01*
X-62353973Y478165D01*
X-62472079Y421030D01*
X-62576388Y348511D01*
X-62622078Y306861D01*
X-62701599Y214597D01*
X-62762118Y115342D01*
X-62804893Y5684D01*
X-62831180Y-117789D01*
X-62842236Y-258490D01*
X-62842750Y-292100D01*
X-64054749Y-292100D01*
X-64053246Y-208373D01*
X-64031004Y-102051D01*
X-63988595Y-11009D01*
X-63925909Y64977D01*
X-63842832Y126133D01*
X-63823850Y136557D01*
X-63785461Y153990D01*
X-63745613Y165162D01*
X-63695807Y171885D01*
X-63642014Y175329D01*
X-63533273Y174950D01*
X-63437870Y161365D01*
X-63346390Y132661D01*
X-63276852Y101149D01*
X-63182500Y53750D01*
X-63182500Y456180D01*
X-63263192Y481103D01*
X-63426053Y520217D01*
X-63593968Y539607D01*
X-63761474Y539226D01*
X-63923103Y519024D01*
X-64046100Y488054D01*
X-64176533Y434164D01*
X-64291310Y360885D01*
X-64389057Y269711D01*
X-64468399Y162136D01*
X-64527962Y39657D01*
X-64561426Y-72399D01*
X-64573480Y-151535D01*
X-64578930Y-244795D01*
X-64954738Y-244795D01*
X-64955971Y-184236D01*
X-64958680Y-103012D01*
X-64962373Y-36508D01*
X-64967330Y17946D01*
X-64973831Y63021D01*
X-64982156Y101385D01*
X-64992586Y135710D01*
X-65005401Y168665D01*
X-65020881Y202921D01*
X-65031606Y225291D01*
X-65086701Y310452D01*
X-65163019Y384307D01*
X-65258358Y445367D01*
X-65370516Y492143D01*
X-65462511Y516574D01*
X-65565321Y531745D01*
X-65687249Y539155D01*
X-65823284Y538978D01*
X-65968418Y531393D01*
X-66117640Y516575D01*
X-66265941Y494701D01*
X-66309875Y486718D01*
X-66421000Y465582D01*
X-66421000Y275882D01*
X-66420799Y202878D01*
X-66419902Y151720D01*
X-66417873Y118854D01*
X-66414274Y100728D01*
X-66408670Y93788D01*
X-66400622Y94481D01*
X-66398775Y95185D01*
X-66300904Y132819D01*
X-66217113Y160295D01*
X-66139491Y180161D01*
X-66125469Y183144D01*
X-66061465Y192776D01*
X-65982645Y199271D01*
X-65896633Y202524D01*
X-65811055Y202430D01*
X-65733537Y198885D01*
X-65671702Y191783D01*
X-65660090Y189548D01*
X-65582203Y162756D01*
X-65522827Y120560D01*
X-65483408Y64476D01*
X-65465395Y-3981D01*
X-65464637Y-15052D01*
X-65462150Y-69850D01*
X-65760600Y-77613D01*
X-65862672Y-80606D01*
X-65943557Y-83898D01*
X-66007469Y-87854D01*
X-66058620Y-92842D01*
X-66101225Y-99228D01*
X-66139496Y-107380D01*
X-66158422Y-112260D01*
X-66278909Y-154288D01*
X-66377623Y-209317D01*
X-66454651Y-277412D01*
X-66510080Y-358640D01*
X-66524678Y-390893D01*
X-66538107Y-428842D01*
X-66546780Y-466758D01*
X-66551667Y-511881D01*
X-66553741Y-571448D01*
X-66554028Y-609600D01*
X-66874832Y-609600D01*
X-66862684Y-572995D01*
X-66847028Y-492801D01*
X-66837733Y-396150D01*
X-66834785Y-291173D01*
X-66838173Y-185999D01*
X-66847884Y-88760D01*
X-66863554Y-8883D01*
X-66912986Y128268D01*
X-66983795Y254281D01*
X-67058320Y348718D01*
X-67147348Y428100D01*
X-67247750Y486712D01*
X-67356258Y524537D01*
X-67469606Y541559D01*
X-67584525Y537764D01*
X-67697748Y513134D01*
X-67806007Y467655D01*
X-67906035Y401311D01*
X-67959192Y353061D01*
X-68033900Y277184D01*
X-68033900Y508000D01*
X-68541900Y508000D01*
X-69292064Y508000D01*
X-69372467Y520651D01*
X-69488641Y531762D01*
X-69613554Y536594D01*
X-69678550Y537038D01*
X-69765866Y536382D01*
X-69833469Y534324D01*
X-69887029Y530384D01*
X-69932217Y524081D01*
X-69974703Y514936D01*
X-69991658Y510525D01*
X-70089350Y479172D01*
X-70167507Y442100D01*
X-70231866Y396142D01*
X-70273708Y354856D01*
X-70319995Y293528D01*
X-70351131Y226892D01*
X-70368900Y149264D01*
X-70375083Y54962D01*
X-72250134Y54962D01*
X-72250300Y139185D01*
X-71986775Y142618D01*
X-71723250Y146050D01*
X-71719727Y327025D01*
X-71716203Y508000D01*
X-72250300Y508000D01*
X-72250300Y952500D01*
X-72758300Y952500D01*
X-72758300Y508000D01*
X-73012998Y508000D01*
X-73304400Y508000D01*
X-73812400Y508000D01*
X-74614442Y508000D01*
X-74656260Y508492D01*
X-74951880Y213073D01*
X-75247500Y-82347D01*
X-75247500Y1130300D01*
X-73812400Y1130300D01*
X-73812400Y929217D01*
X-73811891Y860178D01*
X-73810485Y800273D01*
X-73808364Y754018D01*
X-73805711Y725928D01*
X-73803934Y719667D01*
X-73789164Y717043D01*
X-73753041Y714749D01*
X-73699612Y712922D01*
X-73632923Y711695D01*
X-73557021Y711204D01*
X-73549934Y711200D01*
X-73304400Y711200D01*
X-73304400Y1130300D01*
X-56146700Y1130300D01*
X-56146700Y-1092200D01*
X-55638700Y-1092200D01*
X-55638700Y-278272D01*
X-55250946Y-278272D01*
X-55249553Y-370981D01*
X-55243500Y-457002D01*
X-55232771Y-528419D01*
X-55228560Y-546100D01*
X-55184131Y-669296D01*
X-55120533Y-783208D01*
X-55040833Y-883592D01*
X-54948094Y-966203D01*
X-54903773Y-995933D01*
X-54824958Y-1036338D01*
X-54731110Y-1072717D01*
X-54632591Y-1101454D01*
X-54558701Y-1116311D01*
X-54481402Y-1123821D01*
X-54386490Y-1126312D01*
X-54281182Y-1124121D01*
X-54172693Y-1117587D01*
X-54068239Y-1107048D01*
X-53975037Y-1092843D01*
X-53949600Y-1087757D01*
X-53880491Y-1071923D01*
X-53809993Y-1054032D01*
X-53747863Y-1036640D01*
X-53714650Y-1026159D01*
X-53625750Y-995833D01*
X-53622245Y-802716D01*
X-53621665Y-735951D01*
X-53622378Y-679185D01*
X-53624233Y-636776D01*
X-53627079Y-613081D01*
X-53628944Y-609600D01*
X-53646462Y-616059D01*
X-53664200Y-626589D01*
X-53702145Y-647725D01*
X-53757921Y-673057D01*
X-53824872Y-700020D01*
X-53896344Y-726054D01*
X-53965683Y-748594D01*
X-54019823Y-763547D01*
X-54114360Y-781412D01*
X-54214518Y-791336D01*
X-54313157Y-793225D01*
X-54403136Y-786986D01*
X-54477312Y-772524D01*
X-54486466Y-769694D01*
X-54571303Y-729159D01*
X-54641722Y-669641D01*
X-54694702Y-594660D01*
X-54727227Y-507738D01*
X-54732013Y-483293D01*
X-54740247Y-431800D01*
X-53543200Y-431800D01*
X-53543200Y-323107D01*
X-53553165Y-160678D01*
X-53582852Y-13531D01*
X-53631952Y117890D01*
X-53700156Y233142D01*
X-53787155Y331783D01*
X-53892639Y413369D01*
X-54016298Y477458D01*
X-54105501Y508000D01*
X-53149500Y508000D01*
X-53149500Y-1092200D01*
X-52642950Y-1092200D01*
X-52635150Y-171450D01*
X-52599197Y-93648D01*
X-52546588Y-6285D01*
X-52478670Y60927D01*
X-52406550Y103456D01*
X-52341564Y122895D01*
X-52262071Y131964D01*
X-52176756Y130649D01*
X-52094305Y118938D01*
X-52041425Y104001D01*
X-51968400Y77569D01*
X-51968400Y531379D01*
X-52052673Y540404D01*
X-52138823Y541702D01*
X-52233690Y530225D01*
X-52325825Y507965D01*
X-52396542Y480558D01*
X-52439839Y453609D01*
X-52491282Y413107D01*
X-52543557Y365654D01*
X-52589354Y317850D01*
X-52619370Y279400D01*
X-52628691Y266457D01*
X-52634743Y264102D01*
X-52638267Y275738D01*
X-52640005Y304766D01*
X-52640700Y354589D01*
X-52640834Y377825D01*
X-52641500Y508000D01*
X-53149500Y508000D01*
X-54105501Y508000D01*
X-54129551Y516234D01*
X-54197333Y529123D01*
X-54282392Y536631D01*
X-54377203Y538849D01*
X-54474239Y535867D01*
X-54565974Y527773D01*
X-54644883Y514658D01*
X-54664617Y509842D01*
X-54802216Y461042D01*
X-54923902Y393111D01*
X-55028597Y307102D01*
X-55115221Y204067D01*
X-55182696Y85059D01*
X-55227362Y-39199D01*
X-55239833Y-104464D01*
X-55247700Y-186794D01*
X-55250946Y-278272D01*
X-55638700Y-278272D01*
X-55638700Y1130300D01*
X-56146700Y1130300D01*
X-73304400Y1130300D01*
X-73812400Y1130300D01*
X-75247500Y1130300D01*
X-75755500Y1130300D01*
X-76873100Y1130300D01*
X-76873100Y1473200D01*
X-76796900Y1473200D01*
X-76796900Y1168400D01*
X-76663550Y1168400D01*
X-76602116Y1168971D01*
X-76560634Y1171261D01*
X-76533671Y1176141D01*
X-76515792Y1184479D01*
X-76504800Y1193800D01*
X-76491584Y1211267D01*
X-76483819Y1235271D01*
X-76480198Y1272347D01*
X-76479400Y1320800D01*
X-76480798Y1380219D01*
X-76481459Y1384300D01*
X-76454000Y1384300D01*
X-76454000Y1257300D01*
X-76393040Y1257300D01*
X-76353801Y1260305D01*
X-76324358Y1267913D01*
X-76316840Y1272540D01*
X-76305105Y1296289D01*
X-76301600Y1320800D01*
X-76308063Y1355089D01*
X-76329873Y1375190D01*
X-76370662Y1383627D01*
X-76393040Y1384300D01*
X-76454000Y1384300D01*
X-76481459Y1384300D01*
X-76487539Y1421808D01*
X-76503449Y1448732D01*
X-76532350Y1464155D01*
X-76578069Y1471242D01*
X-76644427Y1473158D01*
X-76663550Y1473200D01*
X-76796900Y1473200D01*
X-76873100Y1473200D01*
X-76873100Y1879600D01*
X-76796900Y1879600D01*
X-76796900Y1587500D01*
X-76657921Y1587500D01*
X-76596370Y1587865D01*
X-76555112Y1589563D01*
X-76529045Y1593502D01*
X-76513064Y1600589D01*
X-76502068Y1611732D01*
X-76499171Y1615726D01*
X-76485819Y1650866D01*
X-76479813Y1708424D01*
X-76479400Y1733550D01*
X-76480720Y1791226D01*
X-76482708Y1803400D01*
X-76454000Y1803400D01*
X-76454000Y1663700D01*
X-76397758Y1663700D01*
X-76352859Y1668752D01*
X-76322968Y1682336D01*
X-76321558Y1683658D01*
X-76305816Y1713401D01*
X-76302509Y1750583D01*
X-76312214Y1782429D01*
X-76316840Y1788160D01*
X-76337917Y1797219D01*
X-76373809Y1802678D01*
X-76393040Y1803400D01*
X-76454000Y1803400D01*
X-76482708Y1803400D01*
X-76487271Y1831323D01*
X-76502944Y1857024D01*
X-76531629Y1871513D01*
X-76577216Y1877970D01*
X-76643595Y1879580D01*
X-76657921Y1879600D01*
X-76796900Y1879600D01*
X-76873100Y1879600D01*
X-76873100Y1935883D01*
X-76942950Y1866900D01*
X-77012800Y1797918D01*
X-77012800Y-283827D01*
X-77044550Y-254000D01*
X-77076300Y-224172D01*
X-77076300Y1773826D01*
X-77981175Y1782253D01*
X-78151895Y1783754D01*
X-78331495Y1785170D01*
X-78515720Y1786476D01*
X-78700315Y1787650D01*
X-78881026Y1788667D01*
X-79053597Y1789503D01*
X-79213774Y1790135D01*
X-79357301Y1790539D01*
X-79479925Y1790690D01*
X-79486125Y1790691D01*
X-80086200Y1790700D01*
X-80086200Y-1219200D01*
X-77800200Y-1219200D01*
X-77800200Y-1295400D01*
X-80106118Y-1295400D01*
X-80175100Y-1365250D01*
X-80244083Y-1435100D01*
X-83185000Y-1435100D01*
X-83185000Y-1133483D01*
X-80872021Y-1133483D01*
X-80861464Y-1168876D01*
X-80831885Y-1193756D01*
X-80786390Y-1204334D01*
X-80768129Y-1204021D01*
X-80714850Y-1200150D01*
X-80711018Y-1133569D01*
X-80695890Y-1133569D01*
X-80692110Y-1188677D01*
X-80679758Y-1235765D01*
X-80662644Y-1263241D01*
X-80647428Y-1272386D01*
X-80620710Y-1278315D01*
X-80578087Y-1281567D01*
X-80515156Y-1282683D01*
X-80503990Y-1282700D01*
X-80364794Y-1282700D01*
X-80371950Y-984250D01*
X-80500196Y-980652D01*
X-80561130Y-979620D01*
X-80602433Y-981082D01*
X-80629809Y-985759D01*
X-80648966Y-994371D01*
X-80657408Y-1000509D01*
X-80678379Y-1031448D01*
X-80691260Y-1078481D01*
X-80695890Y-1133569D01*
X-80711018Y-1133569D01*
X-80711012Y-1133475D01*
X-80707173Y-1066800D01*
X-80777240Y-1066800D01*
X-80820591Y-1068671D01*
X-80845717Y-1075663D01*
X-80859607Y-1089837D01*
X-80860454Y-1091365D01*
X-80872021Y-1133483D01*
X-83185000Y-1133483D01*
X-83185000Y-715343D01*
X-80873600Y-715343D01*
X-80862779Y-753048D01*
X-80831151Y-777293D01*
X-80779976Y-787203D01*
X-80770032Y-787400D01*
X-80708500Y-787400D01*
X-80708500Y-717550D01*
X-80689450Y-717550D01*
X-80688717Y-775053D01*
X-80683917Y-815050D01*
X-80671147Y-840719D01*
X-80646505Y-855238D01*
X-80606090Y-861782D01*
X-80546000Y-863531D01*
X-80510095Y-863600D01*
X-80365600Y-863600D01*
X-80365600Y-571500D01*
X-80510095Y-571500D01*
X-80580712Y-572096D01*
X-80629830Y-576006D01*
X-80661353Y-586404D01*
X-80679182Y-606470D01*
X-80687219Y-639380D01*
X-80689366Y-688312D01*
X-80689450Y-717550D01*
X-80708500Y-717550D01*
X-80708500Y-647700D01*
X-80767825Y-647700D01*
X-80821362Y-654946D01*
X-80857380Y-675510D01*
X-80873126Y-707633D01*
X-80873600Y-715343D01*
X-83185000Y-715343D01*
X-83185000Y-305253D01*
X-80870107Y-305253D01*
X-80861534Y-341717D01*
X-80848572Y-357570D01*
X-80826738Y-365633D01*
X-80788657Y-368230D01*
X-80777240Y-368300D01*
X-80707173Y-368300D01*
X-80711012Y-301625D01*
X-80712105Y-282631D01*
X-80694882Y-282631D01*
X-80693263Y-334279D01*
X-80686580Y-382046D01*
X-80675770Y-416964D01*
X-80670750Y-425028D01*
X-80658000Y-433908D01*
X-80634425Y-439749D01*
X-80595711Y-443074D01*
X-80537545Y-444407D01*
X-80510095Y-444500D01*
X-80365600Y-444500D01*
X-80365600Y-152400D01*
X-80504393Y-152400D01*
X-80573731Y-153394D01*
X-80622061Y-157685D01*
X-80653742Y-167230D01*
X-80673131Y-183989D01*
X-80684586Y-209921D01*
X-80690499Y-236071D01*
X-80694882Y-282631D01*
X-80712105Y-282631D01*
X-80714850Y-234950D01*
X-80761938Y-231040D01*
X-80800665Y-232059D01*
X-80832415Y-239756D01*
X-80834813Y-240931D01*
X-80860578Y-267586D01*
X-80870107Y-305253D01*
X-83185000Y-305253D01*
X-83185000Y110486D01*
X-80871195Y110486D01*
X-80863211Y82550D01*
X-80851920Y64079D01*
X-80834741Y54560D01*
X-80804045Y51130D01*
X-80778623Y50800D01*
X-80708500Y50800D01*
X-80708500Y116756D01*
X-80689450Y116756D01*
X-80688138Y56719D01*
X-80681666Y14590D01*
X-80666227Y-12790D01*
X-80638017Y-28580D01*
X-80593231Y-35940D01*
X-80528064Y-38029D01*
X-80502929Y-38100D01*
X-80364794Y-38100D01*
X-80371950Y260350D01*
X-80500196Y263948D01*
X-80560675Y265020D01*
X-80601624Y263668D01*
X-80628859Y259120D01*
X-80648195Y250603D01*
X-80658946Y242846D01*
X-80674355Y227944D01*
X-80683499Y209724D01*
X-80687977Y181581D01*
X-80689386Y136908D01*
X-80689450Y116756D01*
X-80708500Y116756D01*
X-80708500Y177800D01*
X-80778623Y177800D01*
X-80820012Y176499D01*
X-80843684Y170684D01*
X-80857271Y157493D01*
X-80863211Y146050D01*
X-80871195Y110486D01*
X-83185000Y110486D01*
X-83185000Y278606D01*
X-80302100Y278606D01*
X-80302100Y-1373188D01*
X-80232411Y-1312069D01*
X-80162721Y-1250950D01*
X-80162561Y278964D01*
X-80162400Y1808878D01*
X-80222248Y1869639D01*
X-80253925Y1900394D01*
X-80279079Y1922248D01*
X-80292098Y1930400D01*
X-80293325Y1917949D01*
X-80294509Y1881588D01*
X-80295640Y1822810D01*
X-80296710Y1743104D01*
X-80297710Y1643961D01*
X-80298631Y1526873D01*
X-80299463Y1393330D01*
X-80300198Y1244824D01*
X-80300826Y1082845D01*
X-80301339Y908883D01*
X-80301728Y724431D01*
X-80301983Y530979D01*
X-80302096Y330017D01*
X-80302100Y278606D01*
X-83185000Y278606D01*
X-83185000Y529257D01*
X-80873600Y529257D01*
X-80862779Y491552D01*
X-80831151Y467307D01*
X-80779976Y457397D01*
X-80770032Y457200D01*
X-80708500Y457200D01*
X-80708500Y527050D01*
X-80689450Y527050D01*
X-80688717Y469547D01*
X-80683917Y429550D01*
X-80671147Y403881D01*
X-80646505Y389362D01*
X-80606090Y382818D01*
X-80546000Y381069D01*
X-80510095Y381000D01*
X-80365600Y381000D01*
X-80365600Y673100D01*
X-80510095Y673100D01*
X-80580712Y672504D01*
X-80629830Y668594D01*
X-80661353Y658196D01*
X-80679182Y638130D01*
X-80687219Y605220D01*
X-80689366Y556288D01*
X-80689450Y527050D01*
X-80708500Y527050D01*
X-80708500Y596900D01*
X-80767825Y596900D01*
X-80821362Y589654D01*
X-80857380Y569090D01*
X-80873126Y536967D01*
X-80873600Y529257D01*
X-83185000Y529257D01*
X-83185000Y939347D01*
X-80870107Y939347D01*
X-80861534Y902883D01*
X-80848572Y887030D01*
X-80826738Y878967D01*
X-80788657Y876370D01*
X-80777240Y876300D01*
X-80707173Y876300D01*
X-80711012Y942975D01*
X-80712105Y961969D01*
X-80694882Y961969D01*
X-80693263Y910321D01*
X-80686580Y862554D01*
X-80675770Y827636D01*
X-80670750Y819572D01*
X-80658000Y810692D01*
X-80634425Y804851D01*
X-80595711Y801526D01*
X-80537545Y800193D01*
X-80510095Y800100D01*
X-80365600Y800100D01*
X-80365600Y1092200D01*
X-80504393Y1092200D01*
X-80573731Y1091206D01*
X-80622061Y1086915D01*
X-80653742Y1077370D01*
X-80673131Y1060611D01*
X-80684586Y1034679D01*
X-80690499Y1008529D01*
X-80694882Y961969D01*
X-80712105Y961969D01*
X-80714850Y1009650D01*
X-80761938Y1013560D01*
X-80800665Y1012541D01*
X-80832415Y1004844D01*
X-80834813Y1003669D01*
X-80860578Y977014D01*
X-80870107Y939347D01*
X-83185000Y939347D01*
X-83185000Y1355086D01*
X-80871195Y1355086D01*
X-80863211Y1327150D01*
X-80851920Y1308679D01*
X-80834741Y1299160D01*
X-80804045Y1295730D01*
X-80778623Y1295400D01*
X-80708500Y1295400D01*
X-80708500Y1361356D01*
X-80689450Y1361356D01*
X-80688138Y1301319D01*
X-80681666Y1259190D01*
X-80666227Y1231810D01*
X-80638017Y1216020D01*
X-80593231Y1208660D01*
X-80528064Y1206571D01*
X-80502929Y1206500D01*
X-80364794Y1206500D01*
X-80371950Y1504950D01*
X-80500196Y1508548D01*
X-80560675Y1509620D01*
X-80601624Y1508268D01*
X-80628859Y1503720D01*
X-80648195Y1495203D01*
X-80658946Y1487446D01*
X-80674355Y1472544D01*
X-80683499Y1454324D01*
X-80687977Y1426181D01*
X-80689386Y1381508D01*
X-80689450Y1361356D01*
X-80708500Y1361356D01*
X-80708500Y1422400D01*
X-80778623Y1422400D01*
X-80820012Y1421099D01*
X-80843684Y1415284D01*
X-80857271Y1402093D01*
X-80863211Y1390650D01*
X-80871195Y1355086D01*
X-83185000Y1355086D01*
X-83185000Y1774918D01*
X-80873600Y1774918D01*
X-80862900Y1736537D01*
X-80831449Y1712003D01*
X-80780226Y1702005D01*
X-80770032Y1701800D01*
X-80708500Y1701800D01*
X-80708500Y1771650D01*
X-80689450Y1771650D01*
X-80688717Y1714147D01*
X-80683917Y1674150D01*
X-80671147Y1648481D01*
X-80646505Y1633962D01*
X-80606090Y1627418D01*
X-80546000Y1625669D01*
X-80510095Y1625600D01*
X-80365600Y1625600D01*
X-80365600Y1917700D01*
X-80510095Y1917700D01*
X-80580712Y1917104D01*
X-80629830Y1913194D01*
X-80661353Y1902796D01*
X-80679182Y1882730D01*
X-80687219Y1849820D01*
X-80689366Y1800888D01*
X-80689450Y1771650D01*
X-80708500Y1771650D01*
X-80708500Y1841500D01*
X-80771093Y1841500D01*
X-80826484Y1834636D01*
X-80860581Y1814004D01*
X-80873473Y1779548D01*
X-80873600Y1774918D01*
X-83185000Y1774918D01*
X-83185000Y1993900D01*
X-80244083Y1993900D01*
X-80175100Y1924050D01*
X-80106118Y1854200D01*
X-77056383Y1854200D01*
X-76987400Y1924050D01*
X-76918418Y1993900D01*
X-80244083Y1993900D01*
X-83185000Y1993900D01*
X-83185000Y2202730D01*
X-80187800Y2202730D01*
X-80187800Y2057400D01*
X-79895700Y2057400D01*
X-79895700Y2202730D01*
X-79768700Y2202730D01*
X-79768700Y2057400D01*
X-79476600Y2057400D01*
X-79476600Y2166945D01*
X-79361505Y2166945D01*
X-79361144Y2119195D01*
X-79359367Y2086305D01*
X-79357552Y2076044D01*
X-79349390Y2067704D01*
X-79329849Y2062166D01*
X-79294947Y2058944D01*
X-79240699Y2057557D01*
X-79203949Y2057400D01*
X-79057500Y2057400D01*
X-79057500Y2196697D01*
X-78943200Y2196697D01*
X-78943200Y2056594D01*
X-78644750Y2063750D01*
X-78644750Y2202730D01*
X-78524100Y2202730D01*
X-78524100Y2057400D01*
X-78232000Y2057400D01*
X-78232000Y2202730D01*
X-78232088Y2209354D01*
X-78105000Y2209354D01*
X-78105000Y2057400D01*
X-77812900Y2057400D01*
X-77812900Y2202730D01*
X-77812936Y2205567D01*
X-77698600Y2205567D01*
X-77697791Y2150113D01*
X-77695606Y2104422D01*
X-77692411Y2074271D01*
X-77689741Y2065475D01*
X-77674166Y2062206D01*
X-77638759Y2060148D01*
X-77589065Y2059500D01*
X-77540516Y2060183D01*
X-77400150Y2063750D01*
X-77400150Y2202730D01*
X-77279500Y2202730D01*
X-77279500Y2057400D01*
X-76987400Y2057400D01*
X-76987400Y2202730D01*
X-76988359Y2274655D01*
X-76993250Y2325023D01*
X-77005100Y2357665D01*
X-77026931Y2376409D01*
X-77061770Y2385083D01*
X-77112639Y2387515D01*
X-77133450Y2387600D01*
X-77190272Y2386387D01*
X-77230064Y2380196D01*
X-77255851Y2365197D01*
X-77270659Y2337562D01*
X-77277511Y2293464D01*
X-77279433Y2229073D01*
X-77279500Y2202730D01*
X-77400150Y2202730D01*
X-77400150Y2207674D01*
X-77400897Y2278431D01*
X-77405279Y2327685D01*
X-77416507Y2359328D01*
X-77437796Y2377253D01*
X-77472357Y2385353D01*
X-77523403Y2387522D01*
X-77548628Y2387600D01*
X-77607402Y2386116D01*
X-77648445Y2379103D01*
X-77674920Y2362722D01*
X-77689992Y2333131D01*
X-77696824Y2286491D01*
X-77698579Y2218963D01*
X-77698600Y2205567D01*
X-77812936Y2205567D01*
X-77813831Y2274642D01*
X-77818692Y2324999D01*
X-77830585Y2357632D01*
X-77852613Y2376373D01*
X-77887880Y2385054D01*
X-77939488Y2387505D01*
X-77962611Y2387600D01*
X-78018819Y2387045D01*
X-78057864Y2382769D01*
X-78082872Y2370859D01*
X-78096970Y2347400D01*
X-78103284Y2308479D01*
X-78104941Y2250182D01*
X-78105000Y2209354D01*
X-78232088Y2209354D01*
X-78232959Y2274655D01*
X-78237850Y2325023D01*
X-78249700Y2357665D01*
X-78271531Y2376409D01*
X-78306370Y2385083D01*
X-78357239Y2387515D01*
X-78378050Y2387600D01*
X-78434872Y2386387D01*
X-78474664Y2380196D01*
X-78500451Y2365197D01*
X-78515259Y2337562D01*
X-78522111Y2293464D01*
X-78524033Y2229073D01*
X-78524100Y2202730D01*
X-78644750Y2202730D01*
X-78644750Y2207674D01*
X-78645497Y2278431D01*
X-78649879Y2327685D01*
X-78661107Y2359328D01*
X-78682396Y2377253D01*
X-78716957Y2385353D01*
X-78768003Y2387522D01*
X-78793228Y2387600D01*
X-78850812Y2386270D01*
X-78891416Y2379772D01*
X-78917992Y2364345D01*
X-78933495Y2336231D01*
X-78940879Y2291668D01*
X-78943097Y2226896D01*
X-78943200Y2196697D01*
X-79057500Y2196697D01*
X-79057500Y2197100D01*
X-79058553Y2270313D01*
X-79063686Y2321913D01*
X-79075864Y2355666D01*
X-79098047Y2375335D01*
X-79133201Y2384684D01*
X-79184288Y2387476D01*
X-79207473Y2387600D01*
X-79267668Y2386446D01*
X-79308934Y2380271D01*
X-79335050Y2365009D01*
X-79349796Y2336593D01*
X-79356952Y2290957D01*
X-79360298Y2224033D01*
X-79360328Y2223135D01*
X-79361505Y2166945D01*
X-79476600Y2166945D01*
X-79476600Y2202730D01*
X-79477559Y2274655D01*
X-79482450Y2325023D01*
X-79494300Y2357665D01*
X-79516131Y2376409D01*
X-79550970Y2385083D01*
X-79601839Y2387515D01*
X-79622650Y2387600D01*
X-79679472Y2386387D01*
X-79719264Y2380196D01*
X-79745051Y2365197D01*
X-79759859Y2337562D01*
X-79766711Y2293464D01*
X-79768633Y2229073D01*
X-79768700Y2202730D01*
X-79895700Y2202730D01*
X-79895700Y2209354D01*
X-79896144Y2279717D01*
X-79899560Y2328594D01*
X-79909074Y2359900D01*
X-79927814Y2377548D01*
X-79958905Y2385452D01*
X-80005475Y2387526D01*
X-80038090Y2387600D01*
X-80096325Y2386451D01*
X-80137105Y2380449D01*
X-80163532Y2365763D01*
X-80178708Y2338561D01*
X-80185738Y2295012D01*
X-80187723Y2231284D01*
X-80187800Y2202730D01*
X-83185000Y2202730D01*
X-83185000Y2469243D01*
X-80111600Y2469243D01*
X-80111600Y2413000D01*
X-79971900Y2413000D01*
X-79971900Y2473960D01*
X-79692500Y2473960D01*
X-79692500Y2413000D01*
X-79552800Y2413000D01*
X-79552800Y2464635D01*
X-79553657Y2473960D01*
X-79273400Y2473960D01*
X-79273400Y2413000D01*
X-79133700Y2413000D01*
X-78870232Y2413000D01*
X-78727300Y2413000D01*
X-78727300Y2473960D01*
X-78447900Y2473960D01*
X-78447900Y2413000D01*
X-78308200Y2413000D01*
X-78308200Y2473960D01*
X-78028800Y2473960D01*
X-78028800Y2413000D01*
X-77885869Y2413000D01*
X-77891725Y2473960D01*
X-77609700Y2473960D01*
X-77609700Y2413000D01*
X-77482700Y2413000D01*
X-77482700Y2464635D01*
X-77203300Y2464635D01*
X-77203300Y2413000D01*
X-77063600Y2413000D01*
X-77063600Y2473960D01*
X-77067788Y2522591D01*
X-77082562Y2551102D01*
X-77111242Y2563711D01*
X-77135544Y2565400D01*
X-77171102Y2558168D01*
X-77192701Y2534491D01*
X-77202336Y2491402D01*
X-77203300Y2464635D01*
X-77482700Y2464635D01*
X-77482700Y2473960D01*
X-77487188Y2523335D01*
X-77502334Y2552281D01*
X-77530660Y2564430D01*
X-77546200Y2565400D01*
X-77580489Y2558938D01*
X-77600590Y2537128D01*
X-77609027Y2496339D01*
X-77609700Y2473960D01*
X-77891725Y2473960D01*
X-77892100Y2477854D01*
X-77900570Y2525354D01*
X-77917228Y2552484D01*
X-77946025Y2563917D01*
X-77965935Y2565206D01*
X-77999895Y2558818D01*
X-78019830Y2536804D01*
X-78028168Y2495641D01*
X-78028800Y2473960D01*
X-78308200Y2473960D01*
X-78312450Y2522742D01*
X-78327288Y2551345D01*
X-78355850Y2563874D01*
X-78378050Y2565400D01*
X-78415314Y2559837D01*
X-78437164Y2540413D01*
X-78446735Y2503023D01*
X-78447900Y2473960D01*
X-78727300Y2473960D01*
X-78731823Y2523428D01*
X-78747010Y2552392D01*
X-78775287Y2564374D01*
X-78790165Y2565206D01*
X-78826414Y2559802D01*
X-78848573Y2541008D01*
X-78860593Y2504152D01*
X-78864001Y2477854D01*
X-78870232Y2413000D01*
X-79133700Y2413000D01*
X-79133700Y2460975D01*
X-79141776Y2512542D01*
X-79164275Y2548347D01*
X-79198607Y2564753D01*
X-79208081Y2565400D01*
X-79243212Y2559226D01*
X-79263812Y2538175D01*
X-79272587Y2498457D01*
X-79273400Y2473960D01*
X-79553657Y2473960D01*
X-79557664Y2517516D01*
X-79573585Y2549637D01*
X-79602559Y2563966D01*
X-79620557Y2565400D01*
X-79658819Y2560078D01*
X-79681251Y2541300D01*
X-79691171Y2504848D01*
X-79692500Y2473960D01*
X-79971900Y2473960D01*
X-79976319Y2523160D01*
X-79991367Y2552007D01*
X-80019733Y2564279D01*
X-80037033Y2565400D01*
X-80077299Y2555942D01*
X-80101924Y2527106D01*
X-80111442Y2478202D01*
X-80111600Y2469243D01*
X-83185000Y2469243D01*
X-83185000Y7073900D01*
X-50177700Y7073900D01*
X-50177700Y-7099300D01*
G36*
X75971400Y-7099300D02*
X42964100Y-7099300D01*
X42964100Y7073900D01*
X75971400Y7073900D01*
X75971400Y-7099300D01*
X75971400Y-7099300D01*
G37*
X75971400Y-7099300D02*
X42964100Y-7099300D01*
X42964100Y7073900D01*
X75971400Y7073900D01*
X75971400Y-7099300D01*
G36*
X-77647950Y11923D02*
X-77622094Y-12861D01*
X-77581050Y-52807D01*
X-77526224Y-106534D01*
X-77459017Y-172658D01*
X-77380833Y-249797D01*
X-77293075Y-336567D01*
X-77197147Y-431587D01*
X-77094451Y-533474D01*
X-76986391Y-640845D01*
X-76983164Y-644054D01*
X-76312177Y-1311281D01*
X-76424364Y-1302971D01*
X-76487606Y-1298098D01*
X-76552598Y-1292786D01*
X-76606909Y-1288055D01*
X-76614562Y-1287347D01*
X-76692573Y-1280033D01*
X-76725687Y-1328764D01*
X-76745675Y-1361927D01*
X-76757460Y-1388721D01*
X-76758800Y-1395854D01*
X-76752768Y-1411218D01*
X-76735710Y-1445727D01*
X-76709182Y-1496460D01*
X-76674742Y-1560497D01*
X-76633947Y-1634920D01*
X-76588353Y-1716809D01*
X-76574650Y-1741189D01*
X-76528038Y-1824366D01*
X-76485763Y-1900591D01*
X-76449376Y-1967007D01*
X-76420426Y-2020755D01*
X-76400465Y-2058979D01*
X-76391041Y-2078818D01*
X-76390500Y-2080744D01*
X-76401098Y-2089756D01*
X-76429974Y-2107900D01*
X-76472755Y-2132817D01*
X-76525068Y-2162146D01*
X-76582539Y-2193529D01*
X-76640795Y-2224607D01*
X-76695462Y-2253021D01*
X-76742167Y-2276411D01*
X-76776535Y-2292419D01*
X-76794194Y-2298684D01*
X-76794560Y-2298700D01*
X-76802377Y-2287522D01*
X-76818893Y-2255916D01*
X-76842740Y-2206774D01*
X-76872553Y-2142989D01*
X-76906962Y-2067452D01*
X-76944601Y-1983055D01*
X-76955206Y-1958975D01*
X-76993755Y-1871803D01*
X-77029600Y-1791890D01*
X-77061330Y-1722293D01*
X-77087531Y-1666072D01*
X-77106792Y-1626288D01*
X-77117698Y-1606000D01*
X-77118929Y-1604358D01*
X-77139781Y-1593881D01*
X-77175050Y-1585141D01*
X-77190600Y-1582882D01*
X-77247750Y-1576297D01*
X-77419200Y-1758775D01*
X-77472286Y-1814828D01*
X-77519659Y-1864004D01*
X-77558527Y-1903470D01*
X-77586093Y-1930395D01*
X-77599565Y-1941946D01*
X-77600175Y-1942176D01*
X-77604810Y-1931004D01*
X-77608238Y-1900665D01*
X-77609800Y-1857389D01*
X-77609832Y-1851025D01*
X-77610212Y-1822900D01*
X-77611268Y-1771709D01*
X-77612939Y-1699774D01*
X-77615166Y-1609417D01*
X-77617889Y-1502961D01*
X-77621048Y-1382728D01*
X-77624582Y-1251041D01*
X-77628432Y-1110222D01*
X-77632539Y-962594D01*
X-77635124Y-870900D01*
X-77639265Y-723183D01*
X-77643108Y-583067D01*
X-77646602Y-452594D01*
X-77649697Y-333804D01*
X-77652341Y-228740D01*
X-77654484Y-139442D01*
X-77656076Y-67951D01*
X-77657067Y-16310D01*
X-77657404Y13442D01*
X-77657218Y20161D01*
X-77647950Y11923D01*
X-77647950Y11923D01*
G37*
X-77647950Y11923D02*
X-77622094Y-12861D01*
X-77581050Y-52807D01*
X-77526224Y-106534D01*
X-77459017Y-172658D01*
X-77380833Y-249797D01*
X-77293075Y-336567D01*
X-77197147Y-431587D01*
X-77094451Y-533474D01*
X-76986391Y-640845D01*
X-76983164Y-644054D01*
X-76312177Y-1311281D01*
X-76424364Y-1302971D01*
X-76487606Y-1298098D01*
X-76552598Y-1292786D01*
X-76606909Y-1288055D01*
X-76614562Y-1287347D01*
X-76692573Y-1280033D01*
X-76725687Y-1328764D01*
X-76745675Y-1361927D01*
X-76757460Y-1388721D01*
X-76758800Y-1395854D01*
X-76752768Y-1411218D01*
X-76735710Y-1445727D01*
X-76709182Y-1496460D01*
X-76674742Y-1560497D01*
X-76633947Y-1634920D01*
X-76588353Y-1716809D01*
X-76574650Y-1741189D01*
X-76528038Y-1824366D01*
X-76485763Y-1900591D01*
X-76449376Y-1967007D01*
X-76420426Y-2020755D01*
X-76400465Y-2058979D01*
X-76391041Y-2078818D01*
X-76390500Y-2080744D01*
X-76401098Y-2089756D01*
X-76429974Y-2107900D01*
X-76472755Y-2132817D01*
X-76525068Y-2162146D01*
X-76582539Y-2193529D01*
X-76640795Y-2224607D01*
X-76695462Y-2253021D01*
X-76742167Y-2276411D01*
X-76776535Y-2292419D01*
X-76794194Y-2298684D01*
X-76794560Y-2298700D01*
X-76802377Y-2287522D01*
X-76818893Y-2255916D01*
X-76842740Y-2206774D01*
X-76872553Y-2142989D01*
X-76906962Y-2067452D01*
X-76944601Y-1983055D01*
X-76955206Y-1958975D01*
X-76993755Y-1871803D01*
X-77029600Y-1791890D01*
X-77061330Y-1722293D01*
X-77087531Y-1666072D01*
X-77106792Y-1626288D01*
X-77117698Y-1606000D01*
X-77118929Y-1604358D01*
X-77139781Y-1593881D01*
X-77175050Y-1585141D01*
X-77190600Y-1582882D01*
X-77247750Y-1576297D01*
X-77419200Y-1758775D01*
X-77472286Y-1814828D01*
X-77519659Y-1864004D01*
X-77558527Y-1903470D01*
X-77586093Y-1930395D01*
X-77599565Y-1941946D01*
X-77600175Y-1942176D01*
X-77604810Y-1931004D01*
X-77608238Y-1900665D01*
X-77609800Y-1857389D01*
X-77609832Y-1851025D01*
X-77610212Y-1822900D01*
X-77611268Y-1771709D01*
X-77612939Y-1699774D01*
X-77615166Y-1609417D01*
X-77617889Y-1502961D01*
X-77621048Y-1382728D01*
X-77624582Y-1251041D01*
X-77628432Y-1110222D01*
X-77632539Y-962594D01*
X-77635124Y-870900D01*
X-77639265Y-723183D01*
X-77643108Y-583067D01*
X-77646602Y-452594D01*
X-77649697Y-333804D01*
X-77652341Y-228740D01*
X-77654484Y-139442D01*
X-77656076Y-67951D01*
X-77657067Y-16310D01*
X-77657404Y13442D01*
X-77657218Y20161D01*
X-77647950Y11923D01*
G36*
X-79740749Y1677203D02*
X-79677465Y1645027D01*
X-79623879Y1597066D01*
X-79589372Y1543576D01*
X-79568547Y1470856D01*
X-79570125Y1400211D01*
X-79591194Y1334980D01*
X-79628841Y1278499D01*
X-79680152Y1234105D01*
X-79742216Y1205136D01*
X-79812118Y1194928D01*
X-79884098Y1205938D01*
X-79949344Y1238282D01*
X-80001284Y1289225D01*
X-80036466Y1353955D01*
X-80051439Y1427663D01*
X-80051729Y1439609D01*
X-80049894Y1454594D01*
X-79982609Y1454594D01*
X-79978212Y1394239D01*
X-79953599Y1341664D01*
X-79911361Y1300893D01*
X-79854090Y1275950D01*
X-79804067Y1270048D01*
X-79759351Y1273938D01*
X-79724761Y1289328D01*
X-79699470Y1309261D01*
X-79658183Y1359700D01*
X-79638572Y1415417D01*
X-79638902Y1471827D01*
X-79657443Y1524346D01*
X-79692462Y1568388D01*
X-79742226Y1599368D01*
X-79805003Y1612702D01*
X-79814196Y1612900D01*
X-79872520Y1601242D01*
X-79924470Y1569748D01*
X-79961733Y1523638D01*
X-79964198Y1518706D01*
X-79982609Y1454594D01*
X-80049894Y1454594D01*
X-80043024Y1510658D01*
X-80014893Y1570275D01*
X-79966546Y1623022D01*
X-79918038Y1655712D01*
X-79861544Y1679335D01*
X-79809066Y1688936D01*
X-79806800Y1688959D01*
X-79740749Y1677203D01*
X-79740749Y1677203D01*
G37*
X-79740749Y1677203D02*
X-79677465Y1645027D01*
X-79623879Y1597066D01*
X-79589372Y1543576D01*
X-79568547Y1470856D01*
X-79570125Y1400211D01*
X-79591194Y1334980D01*
X-79628841Y1278499D01*
X-79680152Y1234105D01*
X-79742216Y1205136D01*
X-79812118Y1194928D01*
X-79884098Y1205938D01*
X-79949344Y1238282D01*
X-80001284Y1289225D01*
X-80036466Y1353955D01*
X-80051439Y1427663D01*
X-80051729Y1439609D01*
X-80049894Y1454594D01*
X-79982609Y1454594D01*
X-79978212Y1394239D01*
X-79953599Y1341664D01*
X-79911361Y1300893D01*
X-79854090Y1275950D01*
X-79804067Y1270048D01*
X-79759351Y1273938D01*
X-79724761Y1289328D01*
X-79699470Y1309261D01*
X-79658183Y1359700D01*
X-79638572Y1415417D01*
X-79638902Y1471827D01*
X-79657443Y1524346D01*
X-79692462Y1568388D01*
X-79742226Y1599368D01*
X-79805003Y1612702D01*
X-79814196Y1612900D01*
X-79872520Y1601242D01*
X-79924470Y1569748D01*
X-79961733Y1523638D01*
X-79964198Y1518706D01*
X-79982609Y1454594D01*
X-80049894Y1454594D01*
X-80043024Y1510658D01*
X-80014893Y1570275D01*
X-79966546Y1623022D01*
X-79918038Y1655712D01*
X-79861544Y1679335D01*
X-79809066Y1688936D01*
X-79806800Y1688959D01*
X-79740749Y1677203D01*
G36*
X-67666098Y174464D02*
X-67576610Y155440D01*
X-67502202Y116033D01*
X-67442946Y56350D01*
X-67398915Y-23498D01*
X-67370180Y-123405D01*
X-67356815Y-243260D01*
X-67355779Y-292100D01*
X-67363556Y-416065D01*
X-67386546Y-523025D01*
X-67424235Y-611844D01*
X-67476112Y-681384D01*
X-67541662Y-730509D01*
X-67556942Y-738046D01*
X-67626190Y-757787D01*
X-67705409Y-761740D01*
X-67784864Y-750145D01*
X-67839469Y-731060D01*
X-67907705Y-685766D01*
X-67962304Y-619564D01*
X-68003684Y-531941D01*
X-68004609Y-529308D01*
X-68016937Y-476560D01*
X-68024995Y-406134D01*
X-68028789Y-325390D01*
X-68028320Y-241688D01*
X-68023592Y-162387D01*
X-68014609Y-94848D01*
X-68004402Y-54352D01*
X-67963453Y29002D01*
X-67906065Y95654D01*
X-67835333Y143511D01*
X-67754348Y170482D01*
X-67666204Y174473D01*
X-67666098Y174464D01*
X-67666098Y174464D01*
G37*
X-67666098Y174464D02*
X-67576610Y155440D01*
X-67502202Y116033D01*
X-67442946Y56350D01*
X-67398915Y-23498D01*
X-67370180Y-123405D01*
X-67356815Y-243260D01*
X-67355779Y-292100D01*
X-67363556Y-416065D01*
X-67386546Y-523025D01*
X-67424235Y-611844D01*
X-67476112Y-681384D01*
X-67541662Y-730509D01*
X-67556942Y-738046D01*
X-67626190Y-757787D01*
X-67705409Y-761740D01*
X-67784864Y-750145D01*
X-67839469Y-731060D01*
X-67907705Y-685766D01*
X-67962304Y-619564D01*
X-68003684Y-531941D01*
X-68004609Y-529308D01*
X-68016937Y-476560D01*
X-68024995Y-406134D01*
X-68028789Y-325390D01*
X-68028320Y-241688D01*
X-68023592Y-162387D01*
X-68014609Y-94848D01*
X-68004402Y-54352D01*
X-67963453Y29002D01*
X-67906065Y95654D01*
X-67835333Y143511D01*
X-67754348Y170482D01*
X-67666204Y174473D01*
X-67666098Y174464D01*
G36*
X-65460661Y-452680D02*
X-65481137Y-553230D01*
X-65520177Y-638501D01*
X-65576261Y-706886D01*
X-65647869Y-756774D01*
X-65733480Y-786556D01*
X-65782669Y-793535D01*
X-65832151Y-794432D01*
X-65878770Y-790411D01*
X-65899837Y-785941D01*
X-65968678Y-754400D01*
X-66017045Y-707830D01*
X-66044981Y-646170D01*
X-66052700Y-580136D01*
X-66040956Y-515047D01*
X-66005937Y-459821D01*
X-65947970Y-414927D01*
X-65932032Y-406414D01*
X-65906323Y-394448D01*
X-65881249Y-385762D01*
X-65851937Y-379706D01*
X-65813513Y-375629D01*
X-65761103Y-372882D01*
X-65689833Y-370813D01*
X-65660284Y-370145D01*
X-65452017Y-365611D01*
X-65460661Y-452680D01*
X-65460661Y-452680D01*
G37*
X-65460661Y-452680D02*
X-65481137Y-553230D01*
X-65520177Y-638501D01*
X-65576261Y-706886D01*
X-65647869Y-756774D01*
X-65733480Y-786556D01*
X-65782669Y-793535D01*
X-65832151Y-794432D01*
X-65878770Y-790411D01*
X-65899837Y-785941D01*
X-65968678Y-754400D01*
X-66017045Y-707830D01*
X-66044981Y-646170D01*
X-66052700Y-580136D01*
X-66040956Y-515047D01*
X-66005937Y-459821D01*
X-65947970Y-414927D01*
X-65932032Y-406414D01*
X-65906323Y-394448D01*
X-65881249Y-385762D01*
X-65851937Y-379706D01*
X-65813513Y-375629D01*
X-65761103Y-372882D01*
X-65689833Y-370813D01*
X-65660284Y-370145D01*
X-65452017Y-365611D01*
X-65460661Y-452680D01*
G36*
X-61935039Y201315D02*
X-61875225Y193842D01*
X-61839068Y183477D01*
X-61769954Y141348D01*
X-61715356Y80584D01*
X-61678044Y5073D01*
X-61662380Y-64368D01*
X-61654963Y-127000D01*
X-62318900Y-127000D01*
X-62318900Y-90928D01*
X-62311035Y-50220D01*
X-62290431Y860D01*
X-62261575Y54018D01*
X-62228956Y100960D01*
X-62197861Y132787D01*
X-62158015Y159419D01*
X-62116488Y181831D01*
X-62109753Y184801D01*
X-62062477Y196844D01*
X-62000848Y202333D01*
X-61935039Y201315D01*
X-61935039Y201315D01*
G37*
X-61935039Y201315D02*
X-61875225Y193842D01*
X-61839068Y183477D01*
X-61769954Y141348D01*
X-61715356Y80584D01*
X-61678044Y5073D01*
X-61662380Y-64368D01*
X-61654963Y-127000D01*
X-62318900Y-127000D01*
X-62318900Y-90928D01*
X-62311035Y-50220D01*
X-62290431Y860D01*
X-62261575Y54018D01*
X-62228956Y100960D01*
X-62197861Y132787D01*
X-62158015Y159419D01*
X-62116488Y181831D01*
X-62109753Y184801D01*
X-62062477Y196844D01*
X-62000848Y202333D01*
X-61935039Y201315D01*
G36*
X-54312845Y200604D02*
X-54240896Y179988D01*
X-54227823Y173658D01*
X-54164211Y126692D01*
X-54113175Y62363D01*
X-54080031Y-12353D01*
X-54076801Y-24565D01*
X-54069346Y-54984D01*
X-54065055Y-78710D01*
X-54066538Y-96572D01*
X-54076404Y-109399D01*
X-54097264Y-118021D01*
X-54131728Y-123266D01*
X-54182405Y-125963D01*
X-54251906Y-126941D01*
X-54342841Y-127030D01*
X-54399302Y-127000D01*
X-54487399Y-126580D01*
X-54566903Y-125399D01*
X-54634348Y-123573D01*
X-54686270Y-121219D01*
X-54719205Y-118454D01*
X-54729682Y-115867D01*
X-54731236Y-93875D01*
X-54722557Y-57023D01*
X-54706275Y-12347D01*
X-54685025Y33112D01*
X-54661439Y72317D01*
X-54657068Y78272D01*
X-54617891Y118818D01*
X-54568066Y156111D01*
X-54547993Y167733D01*
X-54475156Y194314D01*
X-54393853Y205325D01*
X-54312845Y200604D01*
X-54312845Y200604D01*
G37*
X-54312845Y200604D02*
X-54240896Y179988D01*
X-54227823Y173658D01*
X-54164211Y126692D01*
X-54113175Y62363D01*
X-54080031Y-12353D01*
X-54076801Y-24565D01*
X-54069346Y-54984D01*
X-54065055Y-78710D01*
X-54066538Y-96572D01*
X-54076404Y-109399D01*
X-54097264Y-118021D01*
X-54131728Y-123266D01*
X-54182405Y-125963D01*
X-54251906Y-126941D01*
X-54342841Y-127030D01*
X-54399302Y-127000D01*
X-54487399Y-126580D01*
X-54566903Y-125399D01*
X-54634348Y-123573D01*
X-54686270Y-121219D01*
X-54719205Y-118454D01*
X-54729682Y-115867D01*
X-54731236Y-93875D01*
X-54722557Y-57023D01*
X-54706275Y-12347D01*
X-54685025Y33112D01*
X-54661439Y72317D01*
X-54657068Y78272D01*
X-54617891Y118818D01*
X-54568066Y156111D01*
X-54547993Y167733D01*
X-54475156Y194314D01*
X-54393853Y205325D01*
X-54312845Y200604D01*
M02*
