G04 #@! TF.GenerationSoftware,KiCad,Pcbnew,5.0.0-rc2-dev-unknown-0d8692d~82~ubuntu16.04.1*
G04 #@! TF.CreationDate,2018-04-12T17:58:06+01:00*
G04 #@! TF.ProjectId,pcbart,7063626172742E6B696361645F706362,rev?*
G04 #@! TF.SameCoordinates,Original*
G04 #@! TF.FileFunction,Soldermask,Top*
G04 #@! TF.FilePolarity,Negative*
%FSLAX46Y46*%
G04 Gerber Fmt 4.6, Leading zero omitted, Abs format (unit mm)*
G04 Created by KiCad (PCBNEW 5.0.0-rc2-dev-unknown-0d8692d~82~ubuntu16.04.1) date Thu Apr 12 17:58:06 2018*
%MOMM*%
%LPD*%
G01*
G04 APERTURE LIST*
%ADD10C,0.010000*%
G04 APERTURE END LIST*
D10*
G36*
X38794401Y-6460149D02*
X38797473Y-6478994D01*
X38800248Y-6531237D01*
X38802721Y-6616411D01*
X38804887Y-6734051D01*
X38806743Y-6883688D01*
X38808283Y-7064857D01*
X38809503Y-7277090D01*
X38810398Y-7519920D01*
X38810963Y-7792880D01*
X38811194Y-8095505D01*
X38811200Y-8154399D01*
X38811363Y-8449758D01*
X38811846Y-8719036D01*
X38812643Y-8961408D01*
X38813743Y-9176048D01*
X38815141Y-9362129D01*
X38816827Y-9518825D01*
X38818793Y-9645310D01*
X38821032Y-9740758D01*
X38823536Y-9804342D01*
X38826296Y-9835237D01*
X38827541Y-9838266D01*
X38834879Y-9822461D01*
X38841493Y-9779554D01*
X38846557Y-9716312D01*
X38848707Y-9664700D01*
X38853533Y-9491133D01*
X39236015Y-9481543D01*
X39290308Y-9536704D01*
X39332409Y-9572962D01*
X39374496Y-9588972D01*
X39423255Y-9592299D01*
X39495830Y-9603369D01*
X39546002Y-9632736D01*
X39570659Y-9676009D01*
X39566691Y-9728793D01*
X39546840Y-9766765D01*
X39523715Y-9790088D01*
X39489683Y-9801354D01*
X39433500Y-9804248D01*
X39432540Y-9804247D01*
X39377514Y-9806614D01*
X39342203Y-9817815D01*
X39312592Y-9843638D01*
X39299267Y-9859281D01*
X39277276Y-9884578D01*
X39256169Y-9900915D01*
X39227974Y-9910583D01*
X39184721Y-9915877D01*
X39118440Y-9919087D01*
X39087600Y-9920168D01*
X39015431Y-9923763D01*
X38956268Y-9928811D01*
X38918099Y-9934514D01*
X38908534Y-9937981D01*
X38911941Y-9955619D01*
X38934981Y-9986749D01*
X38952677Y-10005220D01*
X38993170Y-10038924D01*
X39035325Y-10057695D01*
X39093695Y-10067448D01*
X39109344Y-10068901D01*
X39188267Y-10076674D01*
X39240617Y-10085450D01*
X39273654Y-10097757D01*
X39294636Y-10116123D01*
X39308298Y-10138160D01*
X39326055Y-10165271D01*
X39349418Y-10177871D01*
X39389793Y-10180257D01*
X39417049Y-10179115D01*
X39473463Y-10179292D01*
X39509720Y-10189774D01*
X39537590Y-10212830D01*
X39563493Y-10252596D01*
X39573200Y-10288964D01*
X39557963Y-10330845D01*
X39518901Y-10367522D01*
X39465986Y-10391623D01*
X39426983Y-10397066D01*
X39388724Y-10401343D01*
X39370297Y-10411808D01*
X39370000Y-10413483D01*
X39381462Y-10429107D01*
X39413974Y-10465786D01*
X39464725Y-10520543D01*
X39530904Y-10590402D01*
X39609701Y-10672383D01*
X39698304Y-10763510D01*
X39755233Y-10821570D01*
X39872554Y-10941908D01*
X39969301Y-11043390D01*
X40044644Y-11125100D01*
X40097752Y-11186118D01*
X40127795Y-11225527D01*
X40134616Y-11241186D01*
X40124282Y-11273104D01*
X40105144Y-11320600D01*
X40096093Y-11341100D01*
X40063420Y-11413066D01*
X39926033Y-11413066D01*
X39848776Y-11411134D01*
X39752705Y-11405935D01*
X39652614Y-11398369D01*
X39596527Y-11393040D01*
X39519396Y-11385930D01*
X39455165Y-11381761D01*
X39410975Y-11380878D01*
X39394223Y-11383199D01*
X39391575Y-11391763D01*
X39395148Y-11408889D01*
X39406414Y-11437534D01*
X39426846Y-11480651D01*
X39457918Y-11541195D01*
X39501101Y-11622123D01*
X39557869Y-11726389D01*
X39629694Y-11856947D01*
X39636306Y-11868925D01*
X39690313Y-11966999D01*
X39738395Y-12054775D01*
X39778271Y-12128055D01*
X39807664Y-12182643D01*
X39824295Y-12214339D01*
X39827200Y-12220628D01*
X39835415Y-12237131D01*
X39856254Y-12272264D01*
X39869533Y-12293600D01*
X39898079Y-12342346D01*
X39909209Y-12378903D01*
X39904260Y-12417908D01*
X39885742Y-12470940D01*
X39875118Y-12497250D01*
X39863010Y-12518871D01*
X39845026Y-12538960D01*
X39816775Y-12560678D01*
X39773867Y-12587184D01*
X39711909Y-12621636D01*
X39626510Y-12667193D01*
X39575431Y-12694183D01*
X39494997Y-12736807D01*
X39416306Y-12778776D01*
X39349403Y-12814715D01*
X39310733Y-12835727D01*
X39246671Y-12870877D01*
X39173193Y-12911162D01*
X39129615Y-12935039D01*
X39049896Y-12972175D01*
X38984353Y-12985697D01*
X38923753Y-12976469D01*
X38881738Y-12958207D01*
X38850377Y-12936736D01*
X38822684Y-12904077D01*
X38793699Y-12853036D01*
X38762070Y-12784666D01*
X38729823Y-12711425D01*
X38698851Y-12641411D01*
X38674394Y-12586457D01*
X38668356Y-12573000D01*
X38636910Y-12502640D01*
X38605444Y-12430906D01*
X38568153Y-12344530D01*
X38557200Y-12319000D01*
X38520545Y-12233628D01*
X38494656Y-12173754D01*
X38477040Y-12133710D01*
X38465204Y-12107832D01*
X38456657Y-12090452D01*
X38456630Y-12090400D01*
X38432552Y-12071793D01*
X38389361Y-12057645D01*
X38377606Y-12055606D01*
X38324489Y-12044320D01*
X38280426Y-12028924D01*
X38275814Y-12026579D01*
X38258976Y-12020448D01*
X38240708Y-12023744D01*
X38216382Y-12039980D01*
X38181371Y-12072673D01*
X38131048Y-12125336D01*
X38096023Y-12163159D01*
X38027278Y-12237504D01*
X37953956Y-12316368D01*
X37886005Y-12389074D01*
X37844009Y-12433710D01*
X37735933Y-12548049D01*
X37659733Y-12521733D01*
X37622282Y-12508513D01*
X37592739Y-12495060D01*
X37570059Y-12477428D01*
X37553198Y-12451672D01*
X37541110Y-12413845D01*
X37532751Y-12360000D01*
X37527074Y-12286191D01*
X37523035Y-12188473D01*
X37519590Y-12062899D01*
X37517687Y-11985375D01*
X37514309Y-11857876D01*
X37510575Y-11734366D01*
X37506711Y-11621111D01*
X37502940Y-11524377D01*
X37499486Y-11450430D01*
X37497193Y-11413066D01*
X37487626Y-11286066D01*
X35816846Y-11288151D01*
X35581163Y-11288301D01*
X35354620Y-11288167D01*
X35139569Y-11287764D01*
X34938363Y-11287109D01*
X34753353Y-11286220D01*
X34586893Y-11285114D01*
X34441333Y-11283807D01*
X34319027Y-11282316D01*
X34222326Y-11280658D01*
X34153583Y-11278851D01*
X34115150Y-11276910D01*
X34107966Y-11275870D01*
X34078626Y-11259902D01*
X34069866Y-11248023D01*
X34080522Y-11230144D01*
X34108942Y-11194094D01*
X34149807Y-11146485D01*
X34167262Y-11126992D01*
X34264657Y-11019443D01*
X35860595Y-11022468D01*
X36160272Y-11022887D01*
X36426807Y-11022942D01*
X36660924Y-11022625D01*
X36863348Y-11021930D01*
X37034800Y-11020849D01*
X37176006Y-11019376D01*
X37287688Y-11017505D01*
X37370569Y-11015229D01*
X37425374Y-11012540D01*
X37452827Y-11009433D01*
X37456533Y-11007613D01*
X37443149Y-11004229D01*
X37402529Y-11001221D01*
X37333968Y-10998582D01*
X37236764Y-10996304D01*
X37110213Y-10994378D01*
X36953611Y-10992797D01*
X36766256Y-10991553D01*
X36547444Y-10990637D01*
X36296471Y-10990042D01*
X36012634Y-10989760D01*
X35882329Y-10989733D01*
X35616032Y-10989718D01*
X35381551Y-10989646D01*
X35176837Y-10989473D01*
X34999841Y-10989157D01*
X34848511Y-10988657D01*
X34720799Y-10987929D01*
X34614654Y-10986932D01*
X34528026Y-10985623D01*
X34458866Y-10983960D01*
X34405124Y-10981900D01*
X34364750Y-10979401D01*
X34335693Y-10976421D01*
X34315905Y-10972917D01*
X34303335Y-10968847D01*
X34295933Y-10964169D01*
X34291649Y-10958841D01*
X34290530Y-10956857D01*
X34287597Y-10936034D01*
X34285008Y-10884945D01*
X34282762Y-10803248D01*
X34280856Y-10690603D01*
X34279288Y-10546669D01*
X34278055Y-10371106D01*
X34277157Y-10163573D01*
X34276590Y-9923728D01*
X34276353Y-9651232D01*
X34276443Y-9345743D01*
X34276538Y-9268094D01*
X37678069Y-9268094D01*
X37679852Y-9325651D01*
X37683763Y-9393454D01*
X37686008Y-9432801D01*
X37688315Y-9481339D01*
X37690735Y-9540984D01*
X37693319Y-9613652D01*
X37696120Y-9701257D01*
X37699189Y-9805715D01*
X37702576Y-9928943D01*
X37706334Y-10072854D01*
X37710513Y-10239366D01*
X37715166Y-10430394D01*
X37720343Y-10647852D01*
X37726096Y-10893658D01*
X37732476Y-11169725D01*
X37738633Y-11438466D01*
X37741806Y-11560899D01*
X37745433Y-11673246D01*
X37749303Y-11770746D01*
X37753207Y-11848635D01*
X37756931Y-11902152D01*
X37760244Y-11926471D01*
X37764665Y-11934712D01*
X37772044Y-11937198D01*
X37784824Y-11931644D01*
X37805449Y-11915767D01*
X37836359Y-11887283D01*
X37879998Y-11843905D01*
X37938809Y-11783351D01*
X38015233Y-11703335D01*
X38111714Y-11601574D01*
X38143118Y-11568384D01*
X38260496Y-11444302D01*
X38336881Y-11455091D01*
X38377427Y-11462920D01*
X38408897Y-11476782D01*
X38435643Y-11501955D01*
X38462015Y-11543717D01*
X38492362Y-11607347D01*
X38524702Y-11682971D01*
X38557406Y-11760793D01*
X38584425Y-11824233D01*
X38610880Y-11885100D01*
X38641897Y-11955203D01*
X38674843Y-12029013D01*
X38703952Y-12096009D01*
X38733386Y-12166620D01*
X38742733Y-12189879D01*
X38782247Y-12285503D01*
X38818329Y-12364660D01*
X38848826Y-12423101D01*
X38871584Y-12456575D01*
X38881096Y-12462933D01*
X38902627Y-12455330D01*
X38946933Y-12434740D01*
X39007110Y-12404498D01*
X39062633Y-12375277D01*
X39197867Y-12302060D01*
X39310278Y-12239756D01*
X39396510Y-12190232D01*
X39412551Y-12180687D01*
X39432198Y-12166821D01*
X39436245Y-12150895D01*
X39424445Y-12122133D01*
X39410618Y-12096021D01*
X39391026Y-12059752D01*
X39366169Y-12014090D01*
X39334233Y-11955737D01*
X39293407Y-11881392D01*
X39241878Y-11787757D01*
X39177834Y-11671531D01*
X39099462Y-11529415D01*
X39087594Y-11507899D01*
X39038419Y-11417386D01*
X38995494Y-11335761D01*
X38961374Y-11268096D01*
X38938613Y-11219467D01*
X38929766Y-11194948D01*
X38929733Y-11194330D01*
X38938805Y-11164185D01*
X38961598Y-11120966D01*
X38972677Y-11103731D01*
X38999247Y-11067816D01*
X39024145Y-11048984D01*
X39059494Y-11041760D01*
X39112377Y-11040662D01*
X39177401Y-11042806D01*
X39259565Y-11048344D01*
X39342447Y-11056142D01*
X39352539Y-11057276D01*
X39419191Y-11063357D01*
X39472681Y-11065291D01*
X39504382Y-11062878D01*
X39508819Y-11060888D01*
X39501149Y-11045707D01*
X39472698Y-11010000D01*
X39426566Y-10957251D01*
X39365855Y-10890944D01*
X39293667Y-10814563D01*
X39241548Y-10760640D01*
X39135612Y-10652311D01*
X39020385Y-10535088D01*
X38898124Y-10411224D01*
X38771091Y-10282971D01*
X38641542Y-10152581D01*
X38511739Y-10022306D01*
X38383939Y-9894399D01*
X38260401Y-9771111D01*
X38143385Y-9654696D01*
X38035150Y-9547405D01*
X37937955Y-9451491D01*
X37854058Y-9369206D01*
X37785719Y-9302802D01*
X37735196Y-9254531D01*
X37704750Y-9226647D01*
X37696807Y-9220525D01*
X37686154Y-9220736D01*
X37680039Y-9234857D01*
X37678069Y-9268094D01*
X34276538Y-9268094D01*
X34276859Y-9006922D01*
X34277234Y-8802090D01*
X34279884Y-7493951D01*
X34666046Y-7493951D01*
X34686399Y-7496757D01*
X34704867Y-7497196D01*
X34739717Y-7495833D01*
X34748712Y-7491996D01*
X34743164Y-7489832D01*
X34702500Y-7486678D01*
X34675431Y-7489490D01*
X34666046Y-7493951D01*
X34279884Y-7493951D01*
X34280495Y-7192513D01*
X34407785Y-7192513D01*
X34413318Y-7256932D01*
X34425825Y-7310597D01*
X34436319Y-7332599D01*
X34488722Y-7399647D01*
X34541122Y-7445382D01*
X34587876Y-7465069D01*
X34594800Y-7465486D01*
X34637133Y-7465308D01*
X34594800Y-7446163D01*
X34539817Y-7410466D01*
X34489869Y-7359733D01*
X34453544Y-7304369D01*
X34439526Y-7258038D01*
X34437377Y-7167655D01*
X34443951Y-7101896D01*
X34461577Y-7052128D01*
X34492584Y-7009716D01*
X34511678Y-6990585D01*
X34592689Y-6934617D01*
X34679210Y-6910159D01*
X34766105Y-6916570D01*
X34848238Y-6953210D01*
X34920474Y-7019438D01*
X34938641Y-7043801D01*
X34958202Y-7091820D01*
X34966758Y-7165266D01*
X34967333Y-7197220D01*
X34965875Y-7259628D01*
X34958848Y-7300360D01*
X34942272Y-7331567D01*
X34912300Y-7365265D01*
X34866487Y-7405643D01*
X34819114Y-7437667D01*
X34806467Y-7444017D01*
X34755667Y-7466274D01*
X34802380Y-7466937D01*
X34842620Y-7456799D01*
X34887804Y-7430933D01*
X34926884Y-7397607D01*
X34948811Y-7365091D01*
X34950400Y-7356145D01*
X34962785Y-7332050D01*
X34968999Y-7328756D01*
X34982777Y-7308523D01*
X34993086Y-7264738D01*
X34998802Y-7207637D01*
X34998801Y-7147453D01*
X34993769Y-7103098D01*
X34965734Y-7037141D01*
X34907465Y-6966573D01*
X34867173Y-6927630D01*
X34835873Y-6905308D01*
X34801534Y-6894982D01*
X34752126Y-6892026D01*
X34713183Y-6891866D01*
X34629594Y-6895994D01*
X34571752Y-6909231D01*
X34547637Y-6921280D01*
X34489430Y-6963400D01*
X34461993Y-6995870D01*
X34459333Y-7007117D01*
X34447696Y-7030263D01*
X34433933Y-7044266D01*
X34418002Y-7075225D01*
X34409316Y-7128292D01*
X34407785Y-7192513D01*
X34280495Y-7192513D01*
X34281533Y-6680200D01*
X36393967Y-6675901D01*
X36658535Y-6675396D01*
X36913603Y-6674976D01*
X37157137Y-6674640D01*
X37387101Y-6674388D01*
X37601461Y-6674220D01*
X37798181Y-6674137D01*
X37975227Y-6674138D01*
X38130565Y-6674224D01*
X38262158Y-6674393D01*
X38367973Y-6674647D01*
X38445975Y-6674985D01*
X38494128Y-6675408D01*
X38510395Y-6675901D01*
X38511099Y-6693084D01*
X38511969Y-6741672D01*
X38512982Y-6819203D01*
X38514117Y-6923217D01*
X38515352Y-7051250D01*
X38516665Y-7200843D01*
X38518034Y-7369533D01*
X38519438Y-7554860D01*
X38520854Y-7754361D01*
X38522261Y-7965576D01*
X38523284Y-8128000D01*
X38532178Y-9575800D01*
X38536222Y-8132086D01*
X38540267Y-6688372D01*
X38636564Y-6582686D01*
X38694336Y-6520650D01*
X38734936Y-6481159D01*
X38762855Y-6460726D01*
X38782584Y-6455866D01*
X38794401Y-6460149D01*
X38794401Y-6460149D01*
G37*
X38794401Y-6460149D02*
X38797473Y-6478994D01*
X38800248Y-6531237D01*
X38802721Y-6616411D01*
X38804887Y-6734051D01*
X38806743Y-6883688D01*
X38808283Y-7064857D01*
X38809503Y-7277090D01*
X38810398Y-7519920D01*
X38810963Y-7792880D01*
X38811194Y-8095505D01*
X38811200Y-8154399D01*
X38811363Y-8449758D01*
X38811846Y-8719036D01*
X38812643Y-8961408D01*
X38813743Y-9176048D01*
X38815141Y-9362129D01*
X38816827Y-9518825D01*
X38818793Y-9645310D01*
X38821032Y-9740758D01*
X38823536Y-9804342D01*
X38826296Y-9835237D01*
X38827541Y-9838266D01*
X38834879Y-9822461D01*
X38841493Y-9779554D01*
X38846557Y-9716312D01*
X38848707Y-9664700D01*
X38853533Y-9491133D01*
X39236015Y-9481543D01*
X39290308Y-9536704D01*
X39332409Y-9572962D01*
X39374496Y-9588972D01*
X39423255Y-9592299D01*
X39495830Y-9603369D01*
X39546002Y-9632736D01*
X39570659Y-9676009D01*
X39566691Y-9728793D01*
X39546840Y-9766765D01*
X39523715Y-9790088D01*
X39489683Y-9801354D01*
X39433500Y-9804248D01*
X39432540Y-9804247D01*
X39377514Y-9806614D01*
X39342203Y-9817815D01*
X39312592Y-9843638D01*
X39299267Y-9859281D01*
X39277276Y-9884578D01*
X39256169Y-9900915D01*
X39227974Y-9910583D01*
X39184721Y-9915877D01*
X39118440Y-9919087D01*
X39087600Y-9920168D01*
X39015431Y-9923763D01*
X38956268Y-9928811D01*
X38918099Y-9934514D01*
X38908534Y-9937981D01*
X38911941Y-9955619D01*
X38934981Y-9986749D01*
X38952677Y-10005220D01*
X38993170Y-10038924D01*
X39035325Y-10057695D01*
X39093695Y-10067448D01*
X39109344Y-10068901D01*
X39188267Y-10076674D01*
X39240617Y-10085450D01*
X39273654Y-10097757D01*
X39294636Y-10116123D01*
X39308298Y-10138160D01*
X39326055Y-10165271D01*
X39349418Y-10177871D01*
X39389793Y-10180257D01*
X39417049Y-10179115D01*
X39473463Y-10179292D01*
X39509720Y-10189774D01*
X39537590Y-10212830D01*
X39563493Y-10252596D01*
X39573200Y-10288964D01*
X39557963Y-10330845D01*
X39518901Y-10367522D01*
X39465986Y-10391623D01*
X39426983Y-10397066D01*
X39388724Y-10401343D01*
X39370297Y-10411808D01*
X39370000Y-10413483D01*
X39381462Y-10429107D01*
X39413974Y-10465786D01*
X39464725Y-10520543D01*
X39530904Y-10590402D01*
X39609701Y-10672383D01*
X39698304Y-10763510D01*
X39755233Y-10821570D01*
X39872554Y-10941908D01*
X39969301Y-11043390D01*
X40044644Y-11125100D01*
X40097752Y-11186118D01*
X40127795Y-11225527D01*
X40134616Y-11241186D01*
X40124282Y-11273104D01*
X40105144Y-11320600D01*
X40096093Y-11341100D01*
X40063420Y-11413066D01*
X39926033Y-11413066D01*
X39848776Y-11411134D01*
X39752705Y-11405935D01*
X39652614Y-11398369D01*
X39596527Y-11393040D01*
X39519396Y-11385930D01*
X39455165Y-11381761D01*
X39410975Y-11380878D01*
X39394223Y-11383199D01*
X39391575Y-11391763D01*
X39395148Y-11408889D01*
X39406414Y-11437534D01*
X39426846Y-11480651D01*
X39457918Y-11541195D01*
X39501101Y-11622123D01*
X39557869Y-11726389D01*
X39629694Y-11856947D01*
X39636306Y-11868925D01*
X39690313Y-11966999D01*
X39738395Y-12054775D01*
X39778271Y-12128055D01*
X39807664Y-12182643D01*
X39824295Y-12214339D01*
X39827200Y-12220628D01*
X39835415Y-12237131D01*
X39856254Y-12272264D01*
X39869533Y-12293600D01*
X39898079Y-12342346D01*
X39909209Y-12378903D01*
X39904260Y-12417908D01*
X39885742Y-12470940D01*
X39875118Y-12497250D01*
X39863010Y-12518871D01*
X39845026Y-12538960D01*
X39816775Y-12560678D01*
X39773867Y-12587184D01*
X39711909Y-12621636D01*
X39626510Y-12667193D01*
X39575431Y-12694183D01*
X39494997Y-12736807D01*
X39416306Y-12778776D01*
X39349403Y-12814715D01*
X39310733Y-12835727D01*
X39246671Y-12870877D01*
X39173193Y-12911162D01*
X39129615Y-12935039D01*
X39049896Y-12972175D01*
X38984353Y-12985697D01*
X38923753Y-12976469D01*
X38881738Y-12958207D01*
X38850377Y-12936736D01*
X38822684Y-12904077D01*
X38793699Y-12853036D01*
X38762070Y-12784666D01*
X38729823Y-12711425D01*
X38698851Y-12641411D01*
X38674394Y-12586457D01*
X38668356Y-12573000D01*
X38636910Y-12502640D01*
X38605444Y-12430906D01*
X38568153Y-12344530D01*
X38557200Y-12319000D01*
X38520545Y-12233628D01*
X38494656Y-12173754D01*
X38477040Y-12133710D01*
X38465204Y-12107832D01*
X38456657Y-12090452D01*
X38456630Y-12090400D01*
X38432552Y-12071793D01*
X38389361Y-12057645D01*
X38377606Y-12055606D01*
X38324489Y-12044320D01*
X38280426Y-12028924D01*
X38275814Y-12026579D01*
X38258976Y-12020448D01*
X38240708Y-12023744D01*
X38216382Y-12039980D01*
X38181371Y-12072673D01*
X38131048Y-12125336D01*
X38096023Y-12163159D01*
X38027278Y-12237504D01*
X37953956Y-12316368D01*
X37886005Y-12389074D01*
X37844009Y-12433710D01*
X37735933Y-12548049D01*
X37659733Y-12521733D01*
X37622282Y-12508513D01*
X37592739Y-12495060D01*
X37570059Y-12477428D01*
X37553198Y-12451672D01*
X37541110Y-12413845D01*
X37532751Y-12360000D01*
X37527074Y-12286191D01*
X37523035Y-12188473D01*
X37519590Y-12062899D01*
X37517687Y-11985375D01*
X37514309Y-11857876D01*
X37510575Y-11734366D01*
X37506711Y-11621111D01*
X37502940Y-11524377D01*
X37499486Y-11450430D01*
X37497193Y-11413066D01*
X37487626Y-11286066D01*
X35816846Y-11288151D01*
X35581163Y-11288301D01*
X35354620Y-11288167D01*
X35139569Y-11287764D01*
X34938363Y-11287109D01*
X34753353Y-11286220D01*
X34586893Y-11285114D01*
X34441333Y-11283807D01*
X34319027Y-11282316D01*
X34222326Y-11280658D01*
X34153583Y-11278851D01*
X34115150Y-11276910D01*
X34107966Y-11275870D01*
X34078626Y-11259902D01*
X34069866Y-11248023D01*
X34080522Y-11230144D01*
X34108942Y-11194094D01*
X34149807Y-11146485D01*
X34167262Y-11126992D01*
X34264657Y-11019443D01*
X35860595Y-11022468D01*
X36160272Y-11022887D01*
X36426807Y-11022942D01*
X36660924Y-11022625D01*
X36863348Y-11021930D01*
X37034800Y-11020849D01*
X37176006Y-11019376D01*
X37287688Y-11017505D01*
X37370569Y-11015229D01*
X37425374Y-11012540D01*
X37452827Y-11009433D01*
X37456533Y-11007613D01*
X37443149Y-11004229D01*
X37402529Y-11001221D01*
X37333968Y-10998582D01*
X37236764Y-10996304D01*
X37110213Y-10994378D01*
X36953611Y-10992797D01*
X36766256Y-10991553D01*
X36547444Y-10990637D01*
X36296471Y-10990042D01*
X36012634Y-10989760D01*
X35882329Y-10989733D01*
X35616032Y-10989718D01*
X35381551Y-10989646D01*
X35176837Y-10989473D01*
X34999841Y-10989157D01*
X34848511Y-10988657D01*
X34720799Y-10987929D01*
X34614654Y-10986932D01*
X34528026Y-10985623D01*
X34458866Y-10983960D01*
X34405124Y-10981900D01*
X34364750Y-10979401D01*
X34335693Y-10976421D01*
X34315905Y-10972917D01*
X34303335Y-10968847D01*
X34295933Y-10964169D01*
X34291649Y-10958841D01*
X34290530Y-10956857D01*
X34287597Y-10936034D01*
X34285008Y-10884945D01*
X34282762Y-10803248D01*
X34280856Y-10690603D01*
X34279288Y-10546669D01*
X34278055Y-10371106D01*
X34277157Y-10163573D01*
X34276590Y-9923728D01*
X34276353Y-9651232D01*
X34276443Y-9345743D01*
X34276538Y-9268094D01*
X37678069Y-9268094D01*
X37679852Y-9325651D01*
X37683763Y-9393454D01*
X37686008Y-9432801D01*
X37688315Y-9481339D01*
X37690735Y-9540984D01*
X37693319Y-9613652D01*
X37696120Y-9701257D01*
X37699189Y-9805715D01*
X37702576Y-9928943D01*
X37706334Y-10072854D01*
X37710513Y-10239366D01*
X37715166Y-10430394D01*
X37720343Y-10647852D01*
X37726096Y-10893658D01*
X37732476Y-11169725D01*
X37738633Y-11438466D01*
X37741806Y-11560899D01*
X37745433Y-11673246D01*
X37749303Y-11770746D01*
X37753207Y-11848635D01*
X37756931Y-11902152D01*
X37760244Y-11926471D01*
X37764665Y-11934712D01*
X37772044Y-11937198D01*
X37784824Y-11931644D01*
X37805449Y-11915767D01*
X37836359Y-11887283D01*
X37879998Y-11843905D01*
X37938809Y-11783351D01*
X38015233Y-11703335D01*
X38111714Y-11601574D01*
X38143118Y-11568384D01*
X38260496Y-11444302D01*
X38336881Y-11455091D01*
X38377427Y-11462920D01*
X38408897Y-11476782D01*
X38435643Y-11501955D01*
X38462015Y-11543717D01*
X38492362Y-11607347D01*
X38524702Y-11682971D01*
X38557406Y-11760793D01*
X38584425Y-11824233D01*
X38610880Y-11885100D01*
X38641897Y-11955203D01*
X38674843Y-12029013D01*
X38703952Y-12096009D01*
X38733386Y-12166620D01*
X38742733Y-12189879D01*
X38782247Y-12285503D01*
X38818329Y-12364660D01*
X38848826Y-12423101D01*
X38871584Y-12456575D01*
X38881096Y-12462933D01*
X38902627Y-12455330D01*
X38946933Y-12434740D01*
X39007110Y-12404498D01*
X39062633Y-12375277D01*
X39197867Y-12302060D01*
X39310278Y-12239756D01*
X39396510Y-12190232D01*
X39412551Y-12180687D01*
X39432198Y-12166821D01*
X39436245Y-12150895D01*
X39424445Y-12122133D01*
X39410618Y-12096021D01*
X39391026Y-12059752D01*
X39366169Y-12014090D01*
X39334233Y-11955737D01*
X39293407Y-11881392D01*
X39241878Y-11787757D01*
X39177834Y-11671531D01*
X39099462Y-11529415D01*
X39087594Y-11507899D01*
X39038419Y-11417386D01*
X38995494Y-11335761D01*
X38961374Y-11268096D01*
X38938613Y-11219467D01*
X38929766Y-11194948D01*
X38929733Y-11194330D01*
X38938805Y-11164185D01*
X38961598Y-11120966D01*
X38972677Y-11103731D01*
X38999247Y-11067816D01*
X39024145Y-11048984D01*
X39059494Y-11041760D01*
X39112377Y-11040662D01*
X39177401Y-11042806D01*
X39259565Y-11048344D01*
X39342447Y-11056142D01*
X39352539Y-11057276D01*
X39419191Y-11063357D01*
X39472681Y-11065291D01*
X39504382Y-11062878D01*
X39508819Y-11060888D01*
X39501149Y-11045707D01*
X39472698Y-11010000D01*
X39426566Y-10957251D01*
X39365855Y-10890944D01*
X39293667Y-10814563D01*
X39241548Y-10760640D01*
X39135612Y-10652311D01*
X39020385Y-10535088D01*
X38898124Y-10411224D01*
X38771091Y-10282971D01*
X38641542Y-10152581D01*
X38511739Y-10022306D01*
X38383939Y-9894399D01*
X38260401Y-9771111D01*
X38143385Y-9654696D01*
X38035150Y-9547405D01*
X37937955Y-9451491D01*
X37854058Y-9369206D01*
X37785719Y-9302802D01*
X37735196Y-9254531D01*
X37704750Y-9226647D01*
X37696807Y-9220525D01*
X37686154Y-9220736D01*
X37680039Y-9234857D01*
X37678069Y-9268094D01*
X34276538Y-9268094D01*
X34276859Y-9006922D01*
X34277234Y-8802090D01*
X34279884Y-7493951D01*
X34666046Y-7493951D01*
X34686399Y-7496757D01*
X34704867Y-7497196D01*
X34739717Y-7495833D01*
X34748712Y-7491996D01*
X34743164Y-7489832D01*
X34702500Y-7486678D01*
X34675431Y-7489490D01*
X34666046Y-7493951D01*
X34279884Y-7493951D01*
X34280495Y-7192513D01*
X34407785Y-7192513D01*
X34413318Y-7256932D01*
X34425825Y-7310597D01*
X34436319Y-7332599D01*
X34488722Y-7399647D01*
X34541122Y-7445382D01*
X34587876Y-7465069D01*
X34594800Y-7465486D01*
X34637133Y-7465308D01*
X34594800Y-7446163D01*
X34539817Y-7410466D01*
X34489869Y-7359733D01*
X34453544Y-7304369D01*
X34439526Y-7258038D01*
X34437377Y-7167655D01*
X34443951Y-7101896D01*
X34461577Y-7052128D01*
X34492584Y-7009716D01*
X34511678Y-6990585D01*
X34592689Y-6934617D01*
X34679210Y-6910159D01*
X34766105Y-6916570D01*
X34848238Y-6953210D01*
X34920474Y-7019438D01*
X34938641Y-7043801D01*
X34958202Y-7091820D01*
X34966758Y-7165266D01*
X34967333Y-7197220D01*
X34965875Y-7259628D01*
X34958848Y-7300360D01*
X34942272Y-7331567D01*
X34912300Y-7365265D01*
X34866487Y-7405643D01*
X34819114Y-7437667D01*
X34806467Y-7444017D01*
X34755667Y-7466274D01*
X34802380Y-7466937D01*
X34842620Y-7456799D01*
X34887804Y-7430933D01*
X34926884Y-7397607D01*
X34948811Y-7365091D01*
X34950400Y-7356145D01*
X34962785Y-7332050D01*
X34968999Y-7328756D01*
X34982777Y-7308523D01*
X34993086Y-7264738D01*
X34998802Y-7207637D01*
X34998801Y-7147453D01*
X34993769Y-7103098D01*
X34965734Y-7037141D01*
X34907465Y-6966573D01*
X34867173Y-6927630D01*
X34835873Y-6905308D01*
X34801534Y-6894982D01*
X34752126Y-6892026D01*
X34713183Y-6891866D01*
X34629594Y-6895994D01*
X34571752Y-6909231D01*
X34547637Y-6921280D01*
X34489430Y-6963400D01*
X34461993Y-6995870D01*
X34459333Y-7007117D01*
X34447696Y-7030263D01*
X34433933Y-7044266D01*
X34418002Y-7075225D01*
X34409316Y-7128292D01*
X34407785Y-7192513D01*
X34280495Y-7192513D01*
X34281533Y-6680200D01*
X36393967Y-6675901D01*
X36658535Y-6675396D01*
X36913603Y-6674976D01*
X37157137Y-6674640D01*
X37387101Y-6674388D01*
X37601461Y-6674220D01*
X37798181Y-6674137D01*
X37975227Y-6674138D01*
X38130565Y-6674224D01*
X38262158Y-6674393D01*
X38367973Y-6674647D01*
X38445975Y-6674985D01*
X38494128Y-6675408D01*
X38510395Y-6675901D01*
X38511099Y-6693084D01*
X38511969Y-6741672D01*
X38512982Y-6819203D01*
X38514117Y-6923217D01*
X38515352Y-7051250D01*
X38516665Y-7200843D01*
X38518034Y-7369533D01*
X38519438Y-7554860D01*
X38520854Y-7754361D01*
X38522261Y-7965576D01*
X38523284Y-8128000D01*
X38532178Y-9575800D01*
X38536222Y-8132086D01*
X38540267Y-6688372D01*
X38636564Y-6582686D01*
X38694336Y-6520650D01*
X38734936Y-6481159D01*
X38762855Y-6460726D01*
X38782584Y-6455866D01*
X38794401Y-6460149D01*
G36*
X34540326Y-11521446D02*
X34541946Y-11607857D01*
X34541327Y-11667306D01*
X34537539Y-11706670D01*
X34529654Y-11732828D01*
X34516742Y-11752659D01*
X34507741Y-11762746D01*
X34475109Y-11790605D01*
X34448331Y-11802527D01*
X34447915Y-11802533D01*
X34434230Y-11814078D01*
X34427095Y-11851531D01*
X34425467Y-11902924D01*
X34420574Y-11976926D01*
X34405435Y-12021741D01*
X34398857Y-12029924D01*
X34353938Y-12054339D01*
X34304474Y-12048524D01*
X34258677Y-12013626D01*
X34255697Y-12009966D01*
X34232082Y-11970799D01*
X34224420Y-11925889D01*
X34226582Y-11882966D01*
X34228595Y-11830431D01*
X34221129Y-11805860D01*
X34212543Y-11802533D01*
X34188092Y-11790269D01*
X34157790Y-11760427D01*
X34155250Y-11757265D01*
X34139840Y-11734602D01*
X34129916Y-11708740D01*
X34124557Y-11672462D01*
X34122838Y-11618551D01*
X34123836Y-11539789D01*
X34124388Y-11515965D01*
X34129133Y-11319933D01*
X34535533Y-11319933D01*
X34540326Y-11521446D01*
X34540326Y-11521446D01*
G37*
X34540326Y-11521446D02*
X34541946Y-11607857D01*
X34541327Y-11667306D01*
X34537539Y-11706670D01*
X34529654Y-11732828D01*
X34516742Y-11752659D01*
X34507741Y-11762746D01*
X34475109Y-11790605D01*
X34448331Y-11802527D01*
X34447915Y-11802533D01*
X34434230Y-11814078D01*
X34427095Y-11851531D01*
X34425467Y-11902924D01*
X34420574Y-11976926D01*
X34405435Y-12021741D01*
X34398857Y-12029924D01*
X34353938Y-12054339D01*
X34304474Y-12048524D01*
X34258677Y-12013626D01*
X34255697Y-12009966D01*
X34232082Y-11970799D01*
X34224420Y-11925889D01*
X34226582Y-11882966D01*
X34228595Y-11830431D01*
X34221129Y-11805860D01*
X34212543Y-11802533D01*
X34188092Y-11790269D01*
X34157790Y-11760427D01*
X34155250Y-11757265D01*
X34139840Y-11734602D01*
X34129916Y-11708740D01*
X34124557Y-11672462D01*
X34122838Y-11618551D01*
X34123836Y-11539789D01*
X34124388Y-11515965D01*
X34129133Y-11319933D01*
X34535533Y-11319933D01*
X34540326Y-11521446D01*
G36*
X35119733Y-11520181D02*
X35119339Y-11608148D01*
X35117452Y-11668877D01*
X35113014Y-11708995D01*
X35104967Y-11735127D01*
X35092254Y-11753900D01*
X35080542Y-11765715D01*
X35048231Y-11791530D01*
X35024875Y-11802529D01*
X35024613Y-11802533D01*
X35015520Y-11817821D01*
X35009828Y-11857189D01*
X35008771Y-11893853D01*
X35004686Y-11960747D01*
X34989161Y-12005121D01*
X34977409Y-12020853D01*
X34931772Y-12050801D01*
X34881433Y-12052699D01*
X34841543Y-12029924D01*
X34823224Y-11993148D01*
X34815358Y-11928167D01*
X34814933Y-11902924D01*
X34812352Y-11841725D01*
X34803977Y-11809815D01*
X34792485Y-11802533D01*
X34765916Y-11791087D01*
X34733409Y-11763544D01*
X34733218Y-11763342D01*
X34717598Y-11743968D01*
X34707128Y-11720796D01*
X34700794Y-11687062D01*
X34697582Y-11636007D01*
X34696479Y-11560868D01*
X34696400Y-11517808D01*
X34696400Y-11311466D01*
X35119733Y-11311466D01*
X35119733Y-11520181D01*
X35119733Y-11520181D01*
G37*
X35119733Y-11520181D02*
X35119339Y-11608148D01*
X35117452Y-11668877D01*
X35113014Y-11708995D01*
X35104967Y-11735127D01*
X35092254Y-11753900D01*
X35080542Y-11765715D01*
X35048231Y-11791530D01*
X35024875Y-11802529D01*
X35024613Y-11802533D01*
X35015520Y-11817821D01*
X35009828Y-11857189D01*
X35008771Y-11893853D01*
X35004686Y-11960747D01*
X34989161Y-12005121D01*
X34977409Y-12020853D01*
X34931772Y-12050801D01*
X34881433Y-12052699D01*
X34841543Y-12029924D01*
X34823224Y-11993148D01*
X34815358Y-11928167D01*
X34814933Y-11902924D01*
X34812352Y-11841725D01*
X34803977Y-11809815D01*
X34792485Y-11802533D01*
X34765916Y-11791087D01*
X34733409Y-11763544D01*
X34733218Y-11763342D01*
X34717598Y-11743968D01*
X34707128Y-11720796D01*
X34700794Y-11687062D01*
X34697582Y-11636007D01*
X34696479Y-11560868D01*
X34696400Y-11517808D01*
X34696400Y-11311466D01*
X35119733Y-11311466D01*
X35119733Y-11520181D01*
G36*
X35691793Y-11521446D02*
X35693413Y-11607857D01*
X35692793Y-11667306D01*
X35689005Y-11706670D01*
X35681120Y-11732828D01*
X35668209Y-11752659D01*
X35659208Y-11762746D01*
X35626929Y-11790574D01*
X35600895Y-11802525D01*
X35600446Y-11802533D01*
X35586754Y-11814954D01*
X35587554Y-11854511D01*
X35588531Y-11860881D01*
X35590308Y-11934786D01*
X35572895Y-11994733D01*
X35540904Y-12036723D01*
X35498949Y-12056757D01*
X35451640Y-12050838D01*
X35406786Y-12018433D01*
X35385017Y-11988370D01*
X35376264Y-11951530D01*
X35377602Y-11895060D01*
X35377886Y-11891433D01*
X35379672Y-11835157D01*
X35373048Y-11807399D01*
X35363655Y-11802533D01*
X35339458Y-11790278D01*
X35309279Y-11760455D01*
X35306717Y-11757265D01*
X35291306Y-11734602D01*
X35281383Y-11708740D01*
X35276023Y-11672462D01*
X35274304Y-11618551D01*
X35275303Y-11539789D01*
X35275855Y-11515965D01*
X35280600Y-11319933D01*
X35687000Y-11319933D01*
X35691793Y-11521446D01*
X35691793Y-11521446D01*
G37*
X35691793Y-11521446D02*
X35693413Y-11607857D01*
X35692793Y-11667306D01*
X35689005Y-11706670D01*
X35681120Y-11732828D01*
X35668209Y-11752659D01*
X35659208Y-11762746D01*
X35626929Y-11790574D01*
X35600895Y-11802525D01*
X35600446Y-11802533D01*
X35586754Y-11814954D01*
X35587554Y-11854511D01*
X35588531Y-11860881D01*
X35590308Y-11934786D01*
X35572895Y-11994733D01*
X35540904Y-12036723D01*
X35498949Y-12056757D01*
X35451640Y-12050838D01*
X35406786Y-12018433D01*
X35385017Y-11988370D01*
X35376264Y-11951530D01*
X35377602Y-11895060D01*
X35377886Y-11891433D01*
X35379672Y-11835157D01*
X35373048Y-11807399D01*
X35363655Y-11802533D01*
X35339458Y-11790278D01*
X35309279Y-11760455D01*
X35306717Y-11757265D01*
X35291306Y-11734602D01*
X35281383Y-11708740D01*
X35276023Y-11672462D01*
X35274304Y-11618551D01*
X35275303Y-11539789D01*
X35275855Y-11515965D01*
X35280600Y-11319933D01*
X35687000Y-11319933D01*
X35691793Y-11521446D01*
G36*
X36271200Y-11520181D02*
X36270806Y-11608148D01*
X36268918Y-11668877D01*
X36264480Y-11708995D01*
X36256434Y-11735127D01*
X36243721Y-11753900D01*
X36232008Y-11765715D01*
X36198573Y-11791630D01*
X36172887Y-11802532D01*
X36172742Y-11802533D01*
X36159875Y-11818992D01*
X36153419Y-11867604D01*
X36152667Y-11901509D01*
X36149303Y-11966725D01*
X36137740Y-12007672D01*
X36121700Y-12028509D01*
X36071103Y-12053702D01*
X36014409Y-12047187D01*
X35996033Y-12038243D01*
X35979018Y-12020638D01*
X35969811Y-11987544D01*
X35966520Y-11930892D01*
X35966400Y-11911758D01*
X35964170Y-11847751D01*
X35956863Y-11812848D01*
X35943952Y-11802533D01*
X35917383Y-11791087D01*
X35884875Y-11763544D01*
X35884685Y-11763342D01*
X35869065Y-11743968D01*
X35858595Y-11720796D01*
X35852261Y-11687062D01*
X35849049Y-11636007D01*
X35847945Y-11560868D01*
X35847867Y-11517808D01*
X35847867Y-11311466D01*
X36271200Y-11311466D01*
X36271200Y-11520181D01*
X36271200Y-11520181D01*
G37*
X36271200Y-11520181D02*
X36270806Y-11608148D01*
X36268918Y-11668877D01*
X36264480Y-11708995D01*
X36256434Y-11735127D01*
X36243721Y-11753900D01*
X36232008Y-11765715D01*
X36198573Y-11791630D01*
X36172887Y-11802532D01*
X36172742Y-11802533D01*
X36159875Y-11818992D01*
X36153419Y-11867604D01*
X36152667Y-11901509D01*
X36149303Y-11966725D01*
X36137740Y-12007672D01*
X36121700Y-12028509D01*
X36071103Y-12053702D01*
X36014409Y-12047187D01*
X35996033Y-12038243D01*
X35979018Y-12020638D01*
X35969811Y-11987544D01*
X35966520Y-11930892D01*
X35966400Y-11911758D01*
X35964170Y-11847751D01*
X35956863Y-11812848D01*
X35943952Y-11802533D01*
X35917383Y-11791087D01*
X35884875Y-11763544D01*
X35884685Y-11763342D01*
X35869065Y-11743968D01*
X35858595Y-11720796D01*
X35852261Y-11687062D01*
X35849049Y-11636007D01*
X35847945Y-11560868D01*
X35847867Y-11517808D01*
X35847867Y-11311466D01*
X36271200Y-11311466D01*
X36271200Y-11520181D01*
G36*
X36842736Y-11506200D02*
X36842849Y-11609925D01*
X36836825Y-11685286D01*
X36823346Y-11737440D01*
X36801093Y-11771545D01*
X36769585Y-11792391D01*
X36748784Y-11807673D01*
X36738617Y-11835880D01*
X36735966Y-11886671D01*
X36736019Y-11896411D01*
X36731424Y-11963531D01*
X36714409Y-12008193D01*
X36704609Y-12020853D01*
X36657890Y-12051749D01*
X36607059Y-12053469D01*
X36562202Y-12026602D01*
X36550619Y-12011852D01*
X36530892Y-11964465D01*
X36527897Y-11901761D01*
X36529252Y-11884852D01*
X36531145Y-11829477D01*
X36522936Y-11804486D01*
X36517199Y-11802533D01*
X36492570Y-11791157D01*
X36460753Y-11763692D01*
X36459859Y-11762746D01*
X36443969Y-11743487D01*
X36433588Y-11721475D01*
X36427787Y-11689831D01*
X36425637Y-11641678D01*
X36426210Y-11570135D01*
X36427274Y-11521446D01*
X36432067Y-11319933D01*
X36838467Y-11319933D01*
X36842736Y-11506200D01*
X36842736Y-11506200D01*
G37*
X36842736Y-11506200D02*
X36842849Y-11609925D01*
X36836825Y-11685286D01*
X36823346Y-11737440D01*
X36801093Y-11771545D01*
X36769585Y-11792391D01*
X36748784Y-11807673D01*
X36738617Y-11835880D01*
X36735966Y-11886671D01*
X36736019Y-11896411D01*
X36731424Y-11963531D01*
X36714409Y-12008193D01*
X36704609Y-12020853D01*
X36657890Y-12051749D01*
X36607059Y-12053469D01*
X36562202Y-12026602D01*
X36550619Y-12011852D01*
X36530892Y-11964465D01*
X36527897Y-11901761D01*
X36529252Y-11884852D01*
X36531145Y-11829477D01*
X36522936Y-11804486D01*
X36517199Y-11802533D01*
X36492570Y-11791157D01*
X36460753Y-11763692D01*
X36459859Y-11762746D01*
X36443969Y-11743487D01*
X36433588Y-11721475D01*
X36427787Y-11689831D01*
X36425637Y-11641678D01*
X36426210Y-11570135D01*
X36427274Y-11521446D01*
X36432067Y-11319933D01*
X36838467Y-11319933D01*
X36842736Y-11506200D01*
G36*
X37206767Y-11315179D02*
X37414200Y-11319933D01*
X37418993Y-11521446D01*
X37420613Y-11607857D01*
X37419993Y-11667306D01*
X37416205Y-11706670D01*
X37408320Y-11732828D01*
X37395409Y-11752659D01*
X37386408Y-11762746D01*
X37352360Y-11790719D01*
X37322588Y-11802501D01*
X37322348Y-11802502D01*
X37307384Y-11808388D01*
X37300470Y-11830872D01*
X37300080Y-11877124D01*
X37301274Y-11901519D01*
X37301884Y-11965988D01*
X37293644Y-12006515D01*
X37278897Y-12028550D01*
X37232757Y-12053313D01*
X37179804Y-12049918D01*
X37132864Y-12020730D01*
X37111626Y-11993132D01*
X37102807Y-11958889D01*
X37103685Y-11905766D01*
X37104623Y-11893730D01*
X37106423Y-11834173D01*
X37099134Y-11805668D01*
X37092578Y-11802533D01*
X37068131Y-11791171D01*
X37036581Y-11763798D01*
X37036152Y-11763342D01*
X37020549Y-11743996D01*
X37010084Y-11720860D01*
X37003747Y-11687184D01*
X37000527Y-11636218D01*
X36999415Y-11561214D01*
X36999333Y-11517287D01*
X36999333Y-11310424D01*
X37206767Y-11315179D01*
X37206767Y-11315179D01*
G37*
X37206767Y-11315179D02*
X37414200Y-11319933D01*
X37418993Y-11521446D01*
X37420613Y-11607857D01*
X37419993Y-11667306D01*
X37416205Y-11706670D01*
X37408320Y-11732828D01*
X37395409Y-11752659D01*
X37386408Y-11762746D01*
X37352360Y-11790719D01*
X37322588Y-11802501D01*
X37322348Y-11802502D01*
X37307384Y-11808388D01*
X37300470Y-11830872D01*
X37300080Y-11877124D01*
X37301274Y-11901519D01*
X37301884Y-11965988D01*
X37293644Y-12006515D01*
X37278897Y-12028550D01*
X37232757Y-12053313D01*
X37179804Y-12049918D01*
X37132864Y-12020730D01*
X37111626Y-11993132D01*
X37102807Y-11958889D01*
X37103685Y-11905766D01*
X37104623Y-11893730D01*
X37106423Y-11834173D01*
X37099134Y-11805668D01*
X37092578Y-11802533D01*
X37068131Y-11791171D01*
X37036581Y-11763798D01*
X37036152Y-11763342D01*
X37020549Y-11743996D01*
X37010084Y-11720860D01*
X37003747Y-11687184D01*
X37000527Y-11636218D01*
X36999415Y-11561214D01*
X36999333Y-11517287D01*
X36999333Y-11310424D01*
X37206767Y-11315179D01*
G36*
X59930173Y-8461278D02*
X60083701Y-8500770D01*
X60230398Y-8569662D01*
X60366297Y-8667970D01*
X60400559Y-8699496D01*
X60449391Y-8746239D01*
X60488154Y-8782425D01*
X60511130Y-8802759D01*
X60514859Y-8805333D01*
X60517200Y-8789788D01*
X60518927Y-8748700D01*
X60519716Y-8690393D01*
X60519733Y-8679718D01*
X60521065Y-8614589D01*
X60524574Y-8560639D01*
X60529526Y-8528724D01*
X60530012Y-8527318D01*
X60537325Y-8518151D01*
X60554120Y-8511305D01*
X60584696Y-8506458D01*
X60633352Y-8503284D01*
X60704387Y-8501459D01*
X60802099Y-8500658D01*
X60884844Y-8500533D01*
X61229399Y-8500533D01*
X61239708Y-8555566D01*
X61241424Y-8581969D01*
X61242822Y-8639153D01*
X61243896Y-8724034D01*
X61244636Y-8833531D01*
X61245032Y-8964558D01*
X61245077Y-9114032D01*
X61244761Y-9278870D01*
X61244076Y-9455988D01*
X61243012Y-9642302D01*
X61242890Y-9660466D01*
X61241251Y-9885974D01*
X61239526Y-10080373D01*
X61237574Y-10246425D01*
X61235256Y-10386887D01*
X61232430Y-10504520D01*
X61228958Y-10602083D01*
X61224697Y-10682334D01*
X61219508Y-10748033D01*
X61213251Y-10801939D01*
X61205785Y-10846812D01*
X61196969Y-10885410D01*
X61186665Y-10920494D01*
X61177428Y-10947400D01*
X61101086Y-11110708D01*
X60997426Y-11256609D01*
X60869925Y-11381787D01*
X60722062Y-11482929D01*
X60557311Y-11556721D01*
X60528200Y-11566207D01*
X60473528Y-11583353D01*
X60425270Y-11598903D01*
X60418133Y-11601268D01*
X60350112Y-11617295D01*
X60255759Y-11630191D01*
X60142485Y-11639682D01*
X60017705Y-11645496D01*
X59888831Y-11647360D01*
X59763276Y-11645000D01*
X59648453Y-11638143D01*
X59588400Y-11631834D01*
X59518256Y-11621760D01*
X59450290Y-11609043D01*
X59374566Y-11591490D01*
X59281148Y-11566906D01*
X59228567Y-11552372D01*
X59131200Y-11525190D01*
X59131200Y-11258461D01*
X59132047Y-11166908D01*
X59134386Y-11087787D01*
X59137912Y-11027061D01*
X59142322Y-10990690D01*
X59145240Y-10983054D01*
X59166491Y-10985790D01*
X59207628Y-11001632D01*
X59251312Y-11022845D01*
X59435621Y-11101329D01*
X59632604Y-11150900D01*
X59835367Y-11170281D01*
X60005700Y-11162233D01*
X60150671Y-11133943D01*
X60269700Y-11084773D01*
X60364565Y-11013305D01*
X60437042Y-10918119D01*
X60488905Y-10797797D01*
X60497234Y-10769600D01*
X60505312Y-10726958D01*
X60511890Y-10667831D01*
X60516654Y-10600481D01*
X60519290Y-10533170D01*
X60519485Y-10474159D01*
X60516924Y-10431712D01*
X60511293Y-10414090D01*
X60510749Y-10414000D01*
X60495285Y-10425598D01*
X60466199Y-10455047D01*
X60448797Y-10474327D01*
X60332370Y-10582244D01*
X60195808Y-10667008D01*
X60045450Y-10726330D01*
X59887636Y-10757923D01*
X59728703Y-10759499D01*
X59676753Y-10752988D01*
X59507770Y-10709475D01*
X59354836Y-10636791D01*
X59219297Y-10536276D01*
X59102498Y-10409267D01*
X59005784Y-10257102D01*
X58930502Y-10081119D01*
X58900326Y-9980843D01*
X58887619Y-9923575D01*
X58878877Y-9860435D01*
X58873561Y-9784161D01*
X58871133Y-9687488D01*
X58870985Y-9609666D01*
X59596950Y-9609666D01*
X59605922Y-9773223D01*
X59633435Y-9909960D01*
X59680387Y-10021964D01*
X59747673Y-10111324D01*
X59836190Y-10180127D01*
X59843882Y-10184615D01*
X59889694Y-10207434D01*
X59935463Y-10220503D01*
X59993382Y-10226301D01*
X60054067Y-10227370D01*
X60127595Y-10225810D01*
X60180195Y-10219141D01*
X60224735Y-10204475D01*
X60274080Y-10178920D01*
X60276901Y-10177307D01*
X60360877Y-10115491D01*
X60425255Y-10035979D01*
X60471550Y-9935453D01*
X60501276Y-9810593D01*
X60515950Y-9658082D01*
X60516158Y-9653402D01*
X60515035Y-9493209D01*
X60495788Y-9357634D01*
X60457177Y-9241939D01*
X60397963Y-9141384D01*
X60374479Y-9111652D01*
X60296030Y-9043290D01*
X60200621Y-8999125D01*
X60095380Y-8979549D01*
X59987434Y-8984953D01*
X59883911Y-9015727D01*
X59791940Y-9072262D01*
X59783760Y-9079252D01*
X59708537Y-9160487D01*
X59653923Y-9255698D01*
X59618328Y-9369399D01*
X59600163Y-9506105D01*
X59596950Y-9609666D01*
X58870985Y-9609666D01*
X58870936Y-9584266D01*
X58871763Y-9478741D01*
X58873734Y-9399409D01*
X58877788Y-9338594D01*
X58884867Y-9288625D01*
X58895908Y-9241827D01*
X58911852Y-9190526D01*
X58923249Y-9157041D01*
X58982220Y-9009329D01*
X59051383Y-8884169D01*
X59137524Y-8770418D01*
X59198933Y-8704271D01*
X59327102Y-8596998D01*
X59468279Y-8519047D01*
X59618494Y-8470432D01*
X59773781Y-8451171D01*
X59930173Y-8461278D01*
X59930173Y-8461278D01*
G37*
X59930173Y-8461278D02*
X60083701Y-8500770D01*
X60230398Y-8569662D01*
X60366297Y-8667970D01*
X60400559Y-8699496D01*
X60449391Y-8746239D01*
X60488154Y-8782425D01*
X60511130Y-8802759D01*
X60514859Y-8805333D01*
X60517200Y-8789788D01*
X60518927Y-8748700D01*
X60519716Y-8690393D01*
X60519733Y-8679718D01*
X60521065Y-8614589D01*
X60524574Y-8560639D01*
X60529526Y-8528724D01*
X60530012Y-8527318D01*
X60537325Y-8518151D01*
X60554120Y-8511305D01*
X60584696Y-8506458D01*
X60633352Y-8503284D01*
X60704387Y-8501459D01*
X60802099Y-8500658D01*
X60884844Y-8500533D01*
X61229399Y-8500533D01*
X61239708Y-8555566D01*
X61241424Y-8581969D01*
X61242822Y-8639153D01*
X61243896Y-8724034D01*
X61244636Y-8833531D01*
X61245032Y-8964558D01*
X61245077Y-9114032D01*
X61244761Y-9278870D01*
X61244076Y-9455988D01*
X61243012Y-9642302D01*
X61242890Y-9660466D01*
X61241251Y-9885974D01*
X61239526Y-10080373D01*
X61237574Y-10246425D01*
X61235256Y-10386887D01*
X61232430Y-10504520D01*
X61228958Y-10602083D01*
X61224697Y-10682334D01*
X61219508Y-10748033D01*
X61213251Y-10801939D01*
X61205785Y-10846812D01*
X61196969Y-10885410D01*
X61186665Y-10920494D01*
X61177428Y-10947400D01*
X61101086Y-11110708D01*
X60997426Y-11256609D01*
X60869925Y-11381787D01*
X60722062Y-11482929D01*
X60557311Y-11556721D01*
X60528200Y-11566207D01*
X60473528Y-11583353D01*
X60425270Y-11598903D01*
X60418133Y-11601268D01*
X60350112Y-11617295D01*
X60255759Y-11630191D01*
X60142485Y-11639682D01*
X60017705Y-11645496D01*
X59888831Y-11647360D01*
X59763276Y-11645000D01*
X59648453Y-11638143D01*
X59588400Y-11631834D01*
X59518256Y-11621760D01*
X59450290Y-11609043D01*
X59374566Y-11591490D01*
X59281148Y-11566906D01*
X59228567Y-11552372D01*
X59131200Y-11525190D01*
X59131200Y-11258461D01*
X59132047Y-11166908D01*
X59134386Y-11087787D01*
X59137912Y-11027061D01*
X59142322Y-10990690D01*
X59145240Y-10983054D01*
X59166491Y-10985790D01*
X59207628Y-11001632D01*
X59251312Y-11022845D01*
X59435621Y-11101329D01*
X59632604Y-11150900D01*
X59835367Y-11170281D01*
X60005700Y-11162233D01*
X60150671Y-11133943D01*
X60269700Y-11084773D01*
X60364565Y-11013305D01*
X60437042Y-10918119D01*
X60488905Y-10797797D01*
X60497234Y-10769600D01*
X60505312Y-10726958D01*
X60511890Y-10667831D01*
X60516654Y-10600481D01*
X60519290Y-10533170D01*
X60519485Y-10474159D01*
X60516924Y-10431712D01*
X60511293Y-10414090D01*
X60510749Y-10414000D01*
X60495285Y-10425598D01*
X60466199Y-10455047D01*
X60448797Y-10474327D01*
X60332370Y-10582244D01*
X60195808Y-10667008D01*
X60045450Y-10726330D01*
X59887636Y-10757923D01*
X59728703Y-10759499D01*
X59676753Y-10752988D01*
X59507770Y-10709475D01*
X59354836Y-10636791D01*
X59219297Y-10536276D01*
X59102498Y-10409267D01*
X59005784Y-10257102D01*
X58930502Y-10081119D01*
X58900326Y-9980843D01*
X58887619Y-9923575D01*
X58878877Y-9860435D01*
X58873561Y-9784161D01*
X58871133Y-9687488D01*
X58870985Y-9609666D01*
X59596950Y-9609666D01*
X59605922Y-9773223D01*
X59633435Y-9909960D01*
X59680387Y-10021964D01*
X59747673Y-10111324D01*
X59836190Y-10180127D01*
X59843882Y-10184615D01*
X59889694Y-10207434D01*
X59935463Y-10220503D01*
X59993382Y-10226301D01*
X60054067Y-10227370D01*
X60127595Y-10225810D01*
X60180195Y-10219141D01*
X60224735Y-10204475D01*
X60274080Y-10178920D01*
X60276901Y-10177307D01*
X60360877Y-10115491D01*
X60425255Y-10035979D01*
X60471550Y-9935453D01*
X60501276Y-9810593D01*
X60515950Y-9658082D01*
X60516158Y-9653402D01*
X60515035Y-9493209D01*
X60495788Y-9357634D01*
X60457177Y-9241939D01*
X60397963Y-9141384D01*
X60374479Y-9111652D01*
X60296030Y-9043290D01*
X60200621Y-8999125D01*
X60095380Y-8979549D01*
X59987434Y-8984953D01*
X59883911Y-9015727D01*
X59791940Y-9072262D01*
X59783760Y-9079252D01*
X59708537Y-9160487D01*
X59653923Y-9255698D01*
X59618328Y-9369399D01*
X59600163Y-9506105D01*
X59596950Y-9609666D01*
X58870985Y-9609666D01*
X58870936Y-9584266D01*
X58871763Y-9478741D01*
X58873734Y-9399409D01*
X58877788Y-9338594D01*
X58884867Y-9288625D01*
X58895908Y-9241827D01*
X58911852Y-9190526D01*
X58923249Y-9157041D01*
X58982220Y-9009329D01*
X59051383Y-8884169D01*
X59137524Y-8770418D01*
X59198933Y-8704271D01*
X59327102Y-8596998D01*
X59468279Y-8519047D01*
X59618494Y-8470432D01*
X59773781Y-8451171D01*
X59930173Y-8461278D01*
G36*
X49013959Y-8476240D02*
X49172494Y-8531779D01*
X49319718Y-8617779D01*
X49343329Y-8635394D01*
X49414303Y-8702640D01*
X49488417Y-8794671D01*
X49560298Y-8903490D01*
X49624577Y-9021101D01*
X49667887Y-9118600D01*
X49697005Y-9216353D01*
X49718977Y-9338572D01*
X49733410Y-9476533D01*
X49739906Y-9621516D01*
X49738069Y-9764796D01*
X49727505Y-9897653D01*
X49708306Y-10009325D01*
X49668868Y-10137956D01*
X49612475Y-10272286D01*
X49545780Y-10397808D01*
X49494694Y-10475155D01*
X49381400Y-10601379D01*
X49249180Y-10700070D01*
X49100332Y-10770085D01*
X48937157Y-10810281D01*
X48800707Y-10820199D01*
X48631797Y-10804838D01*
X48474907Y-10757987D01*
X48329236Y-10679316D01*
X48199141Y-10573495D01*
X48142507Y-10521670D01*
X48105508Y-10494428D01*
X48086071Y-10490359D01*
X48082913Y-10494446D01*
X48080687Y-10516673D01*
X48078656Y-10568549D01*
X48076887Y-10645860D01*
X48075447Y-10744388D01*
X48074405Y-10859918D01*
X48073828Y-10988232D01*
X48073733Y-11067318D01*
X48073733Y-11616266D01*
X47362533Y-11616266D01*
X47362792Y-10079566D01*
X47362978Y-9854072D01*
X47363394Y-9660782D01*
X48077561Y-9660782D01*
X48079698Y-9710836D01*
X48094947Y-9851026D01*
X48120760Y-9964438D01*
X48159535Y-10057162D01*
X48213671Y-10135288D01*
X48268546Y-10190398D01*
X48366735Y-10255831D01*
X48476334Y-10289409D01*
X48597127Y-10291087D01*
X48674844Y-10276772D01*
X48770237Y-10235619D01*
X48853540Y-10164450D01*
X48922735Y-10065586D01*
X48975805Y-9941345D01*
X48980963Y-9924940D01*
X48993495Y-9861018D01*
X49001494Y-9773411D01*
X49004989Y-9671994D01*
X49004010Y-9566641D01*
X48998586Y-9467226D01*
X48988746Y-9383622D01*
X48979227Y-9339729D01*
X48928833Y-9213238D01*
X48859381Y-9112797D01*
X48772192Y-9039764D01*
X48668584Y-8995499D01*
X48638469Y-8988748D01*
X48516465Y-8981455D01*
X48401655Y-9003938D01*
X48299128Y-9053836D01*
X48213975Y-9128793D01*
X48158774Y-9211000D01*
X48124185Y-9300694D01*
X48097979Y-9412769D01*
X48081867Y-9536405D01*
X48077561Y-9660782D01*
X47363394Y-9660782D01*
X47363443Y-9638076D01*
X47364165Y-9434001D01*
X47365123Y-9244274D01*
X47366296Y-9071317D01*
X47367660Y-8917557D01*
X47369196Y-8785416D01*
X47370881Y-8677319D01*
X47372694Y-8595692D01*
X47374612Y-8542958D01*
X47376615Y-8521541D01*
X47376719Y-8521332D01*
X47389783Y-8513658D01*
X47420144Y-8508214D01*
X47471398Y-8504827D01*
X47547145Y-8503324D01*
X47650983Y-8503532D01*
X47727827Y-8504398D01*
X48065267Y-8509000D01*
X48073733Y-8647361D01*
X48078770Y-8712541D01*
X48084694Y-8763815D01*
X48090439Y-8792509D01*
X48091954Y-8795404D01*
X48107141Y-8789342D01*
X48134477Y-8762913D01*
X48149753Y-8744824D01*
X48214732Y-8678730D01*
X48301349Y-8611966D01*
X48398386Y-8552085D01*
X48494629Y-8506640D01*
X48514000Y-8499530D01*
X48680361Y-8459403D01*
X48848464Y-8451878D01*
X49013959Y-8476240D01*
X49013959Y-8476240D01*
G37*
X49013959Y-8476240D02*
X49172494Y-8531779D01*
X49319718Y-8617779D01*
X49343329Y-8635394D01*
X49414303Y-8702640D01*
X49488417Y-8794671D01*
X49560298Y-8903490D01*
X49624577Y-9021101D01*
X49667887Y-9118600D01*
X49697005Y-9216353D01*
X49718977Y-9338572D01*
X49733410Y-9476533D01*
X49739906Y-9621516D01*
X49738069Y-9764796D01*
X49727505Y-9897653D01*
X49708306Y-10009325D01*
X49668868Y-10137956D01*
X49612475Y-10272286D01*
X49545780Y-10397808D01*
X49494694Y-10475155D01*
X49381400Y-10601379D01*
X49249180Y-10700070D01*
X49100332Y-10770085D01*
X48937157Y-10810281D01*
X48800707Y-10820199D01*
X48631797Y-10804838D01*
X48474907Y-10757987D01*
X48329236Y-10679316D01*
X48199141Y-10573495D01*
X48142507Y-10521670D01*
X48105508Y-10494428D01*
X48086071Y-10490359D01*
X48082913Y-10494446D01*
X48080687Y-10516673D01*
X48078656Y-10568549D01*
X48076887Y-10645860D01*
X48075447Y-10744388D01*
X48074405Y-10859918D01*
X48073828Y-10988232D01*
X48073733Y-11067318D01*
X48073733Y-11616266D01*
X47362533Y-11616266D01*
X47362792Y-10079566D01*
X47362978Y-9854072D01*
X47363394Y-9660782D01*
X48077561Y-9660782D01*
X48079698Y-9710836D01*
X48094947Y-9851026D01*
X48120760Y-9964438D01*
X48159535Y-10057162D01*
X48213671Y-10135288D01*
X48268546Y-10190398D01*
X48366735Y-10255831D01*
X48476334Y-10289409D01*
X48597127Y-10291087D01*
X48674844Y-10276772D01*
X48770237Y-10235619D01*
X48853540Y-10164450D01*
X48922735Y-10065586D01*
X48975805Y-9941345D01*
X48980963Y-9924940D01*
X48993495Y-9861018D01*
X49001494Y-9773411D01*
X49004989Y-9671994D01*
X49004010Y-9566641D01*
X48998586Y-9467226D01*
X48988746Y-9383622D01*
X48979227Y-9339729D01*
X48928833Y-9213238D01*
X48859381Y-9112797D01*
X48772192Y-9039764D01*
X48668584Y-8995499D01*
X48638469Y-8988748D01*
X48516465Y-8981455D01*
X48401655Y-9003938D01*
X48299128Y-9053836D01*
X48213975Y-9128793D01*
X48158774Y-9211000D01*
X48124185Y-9300694D01*
X48097979Y-9412769D01*
X48081867Y-9536405D01*
X48077561Y-9660782D01*
X47363394Y-9660782D01*
X47363443Y-9638076D01*
X47364165Y-9434001D01*
X47365123Y-9244274D01*
X47366296Y-9071317D01*
X47367660Y-8917557D01*
X47369196Y-8785416D01*
X47370881Y-8677319D01*
X47372694Y-8595692D01*
X47374612Y-8542958D01*
X47376615Y-8521541D01*
X47376719Y-8521332D01*
X47389783Y-8513658D01*
X47420144Y-8508214D01*
X47471398Y-8504827D01*
X47547145Y-8503324D01*
X47650983Y-8503532D01*
X47727827Y-8504398D01*
X48065267Y-8509000D01*
X48073733Y-8647361D01*
X48078770Y-8712541D01*
X48084694Y-8763815D01*
X48090439Y-8792509D01*
X48091954Y-8795404D01*
X48107141Y-8789342D01*
X48134477Y-8762913D01*
X48149753Y-8744824D01*
X48214732Y-8678730D01*
X48301349Y-8611966D01*
X48398386Y-8552085D01*
X48494629Y-8506640D01*
X48514000Y-8499530D01*
X48680361Y-8459403D01*
X48848464Y-8451878D01*
X49013959Y-8476240D01*
G36*
X34039904Y-6463392D02*
X34085995Y-6496835D01*
X34138977Y-6546096D01*
X34239200Y-6645273D01*
X34239200Y-10999260D01*
X34141342Y-11096097D01*
X34119622Y-11118869D01*
X34099995Y-11141043D01*
X34082355Y-11161095D01*
X34066597Y-11177502D01*
X34052617Y-11188738D01*
X34040309Y-11193280D01*
X34029569Y-11189605D01*
X34020291Y-11176188D01*
X34012370Y-11151505D01*
X34005702Y-11114032D01*
X34000181Y-11062246D01*
X33995703Y-10994622D01*
X33992161Y-10909636D01*
X33989452Y-10805765D01*
X33987471Y-10681485D01*
X33986111Y-10535270D01*
X33985269Y-10365599D01*
X33984839Y-10170946D01*
X33984716Y-9949787D01*
X33984796Y-9700600D01*
X33984972Y-9421859D01*
X33985141Y-9112041D01*
X33985200Y-8830202D01*
X33985225Y-8498407D01*
X33985314Y-8198848D01*
X33985485Y-7929891D01*
X33985756Y-7689905D01*
X33986145Y-7477257D01*
X33986672Y-7290317D01*
X33987354Y-7127452D01*
X33988210Y-6987030D01*
X33989258Y-6867420D01*
X33990517Y-6766988D01*
X33992005Y-6684105D01*
X33993740Y-6617136D01*
X33995742Y-6564451D01*
X33998027Y-6524418D01*
X34000616Y-6495404D01*
X34003526Y-6475779D01*
X34006775Y-6463909D01*
X34010382Y-6458163D01*
X34011977Y-6457195D01*
X34039904Y-6463392D01*
X34039904Y-6463392D01*
G37*
X34039904Y-6463392D02*
X34085995Y-6496835D01*
X34138977Y-6546096D01*
X34239200Y-6645273D01*
X34239200Y-10999260D01*
X34141342Y-11096097D01*
X34119622Y-11118869D01*
X34099995Y-11141043D01*
X34082355Y-11161095D01*
X34066597Y-11177502D01*
X34052617Y-11188738D01*
X34040309Y-11193280D01*
X34029569Y-11189605D01*
X34020291Y-11176188D01*
X34012370Y-11151505D01*
X34005702Y-11114032D01*
X34000181Y-11062246D01*
X33995703Y-10994622D01*
X33992161Y-10909636D01*
X33989452Y-10805765D01*
X33987471Y-10681485D01*
X33986111Y-10535270D01*
X33985269Y-10365599D01*
X33984839Y-10170946D01*
X33984716Y-9949787D01*
X33984796Y-9700600D01*
X33984972Y-9421859D01*
X33985141Y-9112041D01*
X33985200Y-8830202D01*
X33985225Y-8498407D01*
X33985314Y-8198848D01*
X33985485Y-7929891D01*
X33985756Y-7689905D01*
X33986145Y-7477257D01*
X33986672Y-7290317D01*
X33987354Y-7127452D01*
X33988210Y-6987030D01*
X33989258Y-6867420D01*
X33990517Y-6766988D01*
X33992005Y-6684105D01*
X33993740Y-6617136D01*
X33995742Y-6564451D01*
X33998027Y-6524418D01*
X34000616Y-6495404D01*
X34003526Y-6475779D01*
X34006775Y-6463909D01*
X34010382Y-6458163D01*
X34011977Y-6457195D01*
X34039904Y-6463392D01*
G36*
X62932178Y-7756367D02*
X62994662Y-7760186D01*
X63032123Y-7768595D01*
X63048972Y-7783269D01*
X63049621Y-7805880D01*
X63041099Y-7831666D01*
X63030397Y-7862456D01*
X63013108Y-7916371D01*
X62992204Y-7984049D01*
X62981981Y-8017933D01*
X62955998Y-8103730D01*
X62928011Y-8194569D01*
X62903197Y-8273675D01*
X62898348Y-8288866D01*
X62875051Y-8362739D01*
X62847364Y-8452321D01*
X62820464Y-8540833D01*
X62814775Y-8559800D01*
X62793022Y-8632022D01*
X62773403Y-8696193D01*
X62758979Y-8742340D01*
X62755010Y-8754533D01*
X62744348Y-8787947D01*
X62726694Y-8844995D01*
X62704758Y-8916863D01*
X62687285Y-8974666D01*
X62658028Y-9071788D01*
X62635865Y-9145078D01*
X62618150Y-9203145D01*
X62602239Y-9254592D01*
X62585486Y-9308028D01*
X62565248Y-9372057D01*
X62562395Y-9381066D01*
X62537168Y-9461686D01*
X62508200Y-9555712D01*
X62481362Y-9644078D01*
X62478982Y-9652000D01*
X62456986Y-9724846D01*
X62428573Y-9818276D01*
X62397333Y-9920518D01*
X62366854Y-10019801D01*
X62365396Y-10024533D01*
X62338513Y-10111855D01*
X62313986Y-10191575D01*
X62294153Y-10256092D01*
X62281351Y-10297805D01*
X62279476Y-10303933D01*
X62266754Y-10344940D01*
X62247642Y-10405820D01*
X62226033Y-10474182D01*
X62223637Y-10481733D01*
X62198933Y-10560805D01*
X62173574Y-10643971D01*
X62153898Y-10710333D01*
X62133164Y-10780117D01*
X62107644Y-10863484D01*
X62084106Y-10938463D01*
X62064926Y-11000870D01*
X62050683Y-11051594D01*
X62043951Y-11081346D01*
X62043733Y-11084006D01*
X62032280Y-11109106D01*
X62012766Y-11131042D01*
X61990165Y-11144845D01*
X61954962Y-11153078D01*
X61900003Y-11156708D01*
X61822266Y-11156760D01*
X61747775Y-11154980D01*
X61682619Y-11152153D01*
X61636730Y-11148766D01*
X61624633Y-11147116D01*
X61595259Y-11136688D01*
X61588314Y-11115429D01*
X61601226Y-11074426D01*
X61602651Y-11070963D01*
X61614509Y-11037631D01*
X61635218Y-10973856D01*
X61664136Y-10881707D01*
X61700622Y-10763250D01*
X61744035Y-10620554D01*
X61793733Y-10455684D01*
X61801161Y-10430933D01*
X61826950Y-10346025D01*
X61855025Y-10255247D01*
X61879801Y-10176633D01*
X61882418Y-10168466D01*
X61907845Y-10088178D01*
X61936274Y-9996713D01*
X61958800Y-9922933D01*
X61980646Y-9850952D01*
X62001834Y-9781901D01*
X62017951Y-9730160D01*
X62018571Y-9728200D01*
X62035494Y-9673262D01*
X62056100Y-9604256D01*
X62069348Y-9558866D01*
X62090628Y-9487060D01*
X62116262Y-9403310D01*
X62136576Y-9338733D01*
X62161920Y-9258449D01*
X62190290Y-9166988D01*
X62212800Y-9093200D01*
X62234646Y-9021219D01*
X62255834Y-8952167D01*
X62271951Y-8900426D01*
X62272571Y-8898466D01*
X62289494Y-8843529D01*
X62310100Y-8774522D01*
X62323348Y-8729133D01*
X62344628Y-8657327D01*
X62370262Y-8573576D01*
X62390576Y-8509000D01*
X62415920Y-8428716D01*
X62444290Y-8337254D01*
X62466800Y-8263466D01*
X62488646Y-8191485D01*
X62509834Y-8122434D01*
X62525951Y-8070693D01*
X62526571Y-8068733D01*
X62543594Y-8013867D01*
X62564490Y-7944943D01*
X62578067Y-7899400D01*
X62596471Y-7842290D01*
X62613810Y-7797035D01*
X62624318Y-7776633D01*
X62646092Y-7766325D01*
X62694534Y-7759564D01*
X62772310Y-7756088D01*
X62840262Y-7755466D01*
X62932178Y-7756367D01*
X62932178Y-7756367D01*
G37*
X62932178Y-7756367D02*
X62994662Y-7760186D01*
X63032123Y-7768595D01*
X63048972Y-7783269D01*
X63049621Y-7805880D01*
X63041099Y-7831666D01*
X63030397Y-7862456D01*
X63013108Y-7916371D01*
X62992204Y-7984049D01*
X62981981Y-8017933D01*
X62955998Y-8103730D01*
X62928011Y-8194569D01*
X62903197Y-8273675D01*
X62898348Y-8288866D01*
X62875051Y-8362739D01*
X62847364Y-8452321D01*
X62820464Y-8540833D01*
X62814775Y-8559800D01*
X62793022Y-8632022D01*
X62773403Y-8696193D01*
X62758979Y-8742340D01*
X62755010Y-8754533D01*
X62744348Y-8787947D01*
X62726694Y-8844995D01*
X62704758Y-8916863D01*
X62687285Y-8974666D01*
X62658028Y-9071788D01*
X62635865Y-9145078D01*
X62618150Y-9203145D01*
X62602239Y-9254592D01*
X62585486Y-9308028D01*
X62565248Y-9372057D01*
X62562395Y-9381066D01*
X62537168Y-9461686D01*
X62508200Y-9555712D01*
X62481362Y-9644078D01*
X62478982Y-9652000D01*
X62456986Y-9724846D01*
X62428573Y-9818276D01*
X62397333Y-9920518D01*
X62366854Y-10019801D01*
X62365396Y-10024533D01*
X62338513Y-10111855D01*
X62313986Y-10191575D01*
X62294153Y-10256092D01*
X62281351Y-10297805D01*
X62279476Y-10303933D01*
X62266754Y-10344940D01*
X62247642Y-10405820D01*
X62226033Y-10474182D01*
X62223637Y-10481733D01*
X62198933Y-10560805D01*
X62173574Y-10643971D01*
X62153898Y-10710333D01*
X62133164Y-10780117D01*
X62107644Y-10863484D01*
X62084106Y-10938463D01*
X62064926Y-11000870D01*
X62050683Y-11051594D01*
X62043951Y-11081346D01*
X62043733Y-11084006D01*
X62032280Y-11109106D01*
X62012766Y-11131042D01*
X61990165Y-11144845D01*
X61954962Y-11153078D01*
X61900003Y-11156708D01*
X61822266Y-11156760D01*
X61747775Y-11154980D01*
X61682619Y-11152153D01*
X61636730Y-11148766D01*
X61624633Y-11147116D01*
X61595259Y-11136688D01*
X61588314Y-11115429D01*
X61601226Y-11074426D01*
X61602651Y-11070963D01*
X61614509Y-11037631D01*
X61635218Y-10973856D01*
X61664136Y-10881707D01*
X61700622Y-10763250D01*
X61744035Y-10620554D01*
X61793733Y-10455684D01*
X61801161Y-10430933D01*
X61826950Y-10346025D01*
X61855025Y-10255247D01*
X61879801Y-10176633D01*
X61882418Y-10168466D01*
X61907845Y-10088178D01*
X61936274Y-9996713D01*
X61958800Y-9922933D01*
X61980646Y-9850952D01*
X62001834Y-9781901D01*
X62017951Y-9730160D01*
X62018571Y-9728200D01*
X62035494Y-9673262D01*
X62056100Y-9604256D01*
X62069348Y-9558866D01*
X62090628Y-9487060D01*
X62116262Y-9403310D01*
X62136576Y-9338733D01*
X62161920Y-9258449D01*
X62190290Y-9166988D01*
X62212800Y-9093200D01*
X62234646Y-9021219D01*
X62255834Y-8952167D01*
X62271951Y-8900426D01*
X62272571Y-8898466D01*
X62289494Y-8843529D01*
X62310100Y-8774522D01*
X62323348Y-8729133D01*
X62344628Y-8657327D01*
X62370262Y-8573576D01*
X62390576Y-8509000D01*
X62415920Y-8428716D01*
X62444290Y-8337254D01*
X62466800Y-8263466D01*
X62488646Y-8191485D01*
X62509834Y-8122434D01*
X62525951Y-8070693D01*
X62526571Y-8068733D01*
X62543594Y-8013867D01*
X62564490Y-7944943D01*
X62578067Y-7899400D01*
X62596471Y-7842290D01*
X62613810Y-7797035D01*
X62624318Y-7776633D01*
X62646092Y-7766325D01*
X62694534Y-7759564D01*
X62772310Y-7756088D01*
X62840262Y-7755466D01*
X62932178Y-7756367D01*
G36*
X33947606Y-10816166D02*
X33942866Y-11032066D01*
X33548820Y-11041574D01*
X33504543Y-10988955D01*
X33476657Y-10953243D01*
X33461322Y-10928604D01*
X33460297Y-10924934D01*
X33444969Y-10918788D01*
X33405266Y-10914649D01*
X33363698Y-10913533D01*
X33307366Y-10911916D01*
X33274170Y-10904367D01*
X33253434Y-10886836D01*
X33240900Y-10866966D01*
X33224335Y-10830173D01*
X33227553Y-10800277D01*
X33240782Y-10773833D01*
X33259616Y-10746616D01*
X33283966Y-10732697D01*
X33324867Y-10727742D01*
X33359316Y-10727266D01*
X33414438Y-10725453D01*
X33447417Y-10716834D01*
X33469918Y-10696640D01*
X33483564Y-10676466D01*
X33510256Y-10638605D01*
X33532771Y-10614360D01*
X33534364Y-10613226D01*
X33558012Y-10608313D01*
X33608052Y-10604268D01*
X33677014Y-10601527D01*
X33752872Y-10600526D01*
X33952345Y-10600266D01*
X33947606Y-10816166D01*
X33947606Y-10816166D01*
G37*
X33947606Y-10816166D02*
X33942866Y-11032066D01*
X33548820Y-11041574D01*
X33504543Y-10988955D01*
X33476657Y-10953243D01*
X33461322Y-10928604D01*
X33460297Y-10924934D01*
X33444969Y-10918788D01*
X33405266Y-10914649D01*
X33363698Y-10913533D01*
X33307366Y-10911916D01*
X33274170Y-10904367D01*
X33253434Y-10886836D01*
X33240900Y-10866966D01*
X33224335Y-10830173D01*
X33227553Y-10800277D01*
X33240782Y-10773833D01*
X33259616Y-10746616D01*
X33283966Y-10732697D01*
X33324867Y-10727742D01*
X33359316Y-10727266D01*
X33414438Y-10725453D01*
X33447417Y-10716834D01*
X33469918Y-10696640D01*
X33483564Y-10676466D01*
X33510256Y-10638605D01*
X33532771Y-10614360D01*
X33534364Y-10613226D01*
X33558012Y-10608313D01*
X33608052Y-10604268D01*
X33677014Y-10601527D01*
X33752872Y-10600526D01*
X33952345Y-10600266D01*
X33947606Y-10816166D01*
G36*
X45903940Y-8453425D02*
X46032983Y-8462457D01*
X46168483Y-8476449D01*
X46302812Y-8494350D01*
X46428344Y-8515111D01*
X46537448Y-8537683D01*
X46622497Y-8561016D01*
X46641302Y-8567672D01*
X46685200Y-8584362D01*
X46685200Y-8847247D01*
X46684306Y-8937271D01*
X46681839Y-9014015D01*
X46678122Y-9071729D01*
X46673475Y-9104658D01*
X46670491Y-9110133D01*
X46648829Y-9104855D01*
X46603459Y-9090750D01*
X46542556Y-9070409D01*
X46513857Y-9060471D01*
X46321591Y-9001390D01*
X46134576Y-8959749D01*
X45958569Y-8936378D01*
X45799327Y-8932105D01*
X45692748Y-8942191D01*
X45619666Y-8956281D01*
X45569083Y-8973174D01*
X45529677Y-8997446D01*
X45506816Y-9017334D01*
X45467041Y-9062793D01*
X45450658Y-9106820D01*
X45449067Y-9131016D01*
X45460979Y-9194407D01*
X45498064Y-9245619D01*
X45562345Y-9285951D01*
X45655842Y-9316703D01*
X45770800Y-9337845D01*
X45988502Y-9371078D01*
X46174764Y-9406753D01*
X46332000Y-9446386D01*
X46462624Y-9491493D01*
X46569050Y-9543590D01*
X46653693Y-9604194D01*
X46718967Y-9674819D01*
X46767285Y-9756983D01*
X46801061Y-9852201D01*
X46822710Y-9961988D01*
X46827583Y-10001476D01*
X46829980Y-10127475D01*
X46812404Y-10255772D01*
X46777326Y-10377239D01*
X46727217Y-10482748D01*
X46679700Y-10547643D01*
X46628525Y-10593306D01*
X46557393Y-10643445D01*
X46478094Y-10690745D01*
X46402420Y-10727889D01*
X46368490Y-10740737D01*
X46237197Y-10774377D01*
X46082882Y-10799284D01*
X45915408Y-10814824D01*
X45744636Y-10820367D01*
X45580428Y-10815280D01*
X45440600Y-10800199D01*
X45332490Y-10782372D01*
X45223008Y-10762637D01*
X45119678Y-10742497D01*
X45030022Y-10723457D01*
X44961566Y-10707021D01*
X44932600Y-10698644D01*
X44864867Y-10676360D01*
X44860164Y-10423729D01*
X44859498Y-10334061D01*
X44860814Y-10256277D01*
X44863857Y-10196727D01*
X44868373Y-10161763D01*
X44870867Y-10155692D01*
X44897780Y-10150192D01*
X44917903Y-10157789D01*
X45014757Y-10202673D01*
X45132700Y-10243620D01*
X45264455Y-10279334D01*
X45402744Y-10308519D01*
X45540292Y-10329877D01*
X45669821Y-10342113D01*
X45784054Y-10343929D01*
X45875713Y-10334029D01*
X45889333Y-10330882D01*
X45944087Y-10317278D01*
X45993334Y-10305699D01*
X45993861Y-10305582D01*
X46063763Y-10275081D01*
X46116921Y-10223134D01*
X46148844Y-10157647D01*
X46155041Y-10086526D01*
X46143558Y-10042010D01*
X46121431Y-10002578D01*
X46088428Y-9971168D01*
X46039840Y-9945855D01*
X45970954Y-9924713D01*
X45877058Y-9905815D01*
X45770800Y-9889622D01*
X45581877Y-9860435D01*
X45423192Y-9828966D01*
X45291126Y-9793734D01*
X45182057Y-9753261D01*
X45092368Y-9706066D01*
X45018439Y-9650670D01*
X44956650Y-9585593D01*
X44925897Y-9544217D01*
X44868573Y-9432604D01*
X44834151Y-9303081D01*
X44822894Y-9162925D01*
X44835067Y-9019415D01*
X44870932Y-8879830D01*
X44899320Y-8810601D01*
X44962226Y-8715875D01*
X45054391Y-8633943D01*
X45173322Y-8565812D01*
X45316529Y-8512493D01*
X45481520Y-8474994D01*
X45665802Y-8454324D01*
X45788984Y-8450401D01*
X45903940Y-8453425D01*
X45903940Y-8453425D01*
G37*
X45903940Y-8453425D02*
X46032983Y-8462457D01*
X46168483Y-8476449D01*
X46302812Y-8494350D01*
X46428344Y-8515111D01*
X46537448Y-8537683D01*
X46622497Y-8561016D01*
X46641302Y-8567672D01*
X46685200Y-8584362D01*
X46685200Y-8847247D01*
X46684306Y-8937271D01*
X46681839Y-9014015D01*
X46678122Y-9071729D01*
X46673475Y-9104658D01*
X46670491Y-9110133D01*
X46648829Y-9104855D01*
X46603459Y-9090750D01*
X46542556Y-9070409D01*
X46513857Y-9060471D01*
X46321591Y-9001390D01*
X46134576Y-8959749D01*
X45958569Y-8936378D01*
X45799327Y-8932105D01*
X45692748Y-8942191D01*
X45619666Y-8956281D01*
X45569083Y-8973174D01*
X45529677Y-8997446D01*
X45506816Y-9017334D01*
X45467041Y-9062793D01*
X45450658Y-9106820D01*
X45449067Y-9131016D01*
X45460979Y-9194407D01*
X45498064Y-9245619D01*
X45562345Y-9285951D01*
X45655842Y-9316703D01*
X45770800Y-9337845D01*
X45988502Y-9371078D01*
X46174764Y-9406753D01*
X46332000Y-9446386D01*
X46462624Y-9491493D01*
X46569050Y-9543590D01*
X46653693Y-9604194D01*
X46718967Y-9674819D01*
X46767285Y-9756983D01*
X46801061Y-9852201D01*
X46822710Y-9961988D01*
X46827583Y-10001476D01*
X46829980Y-10127475D01*
X46812404Y-10255772D01*
X46777326Y-10377239D01*
X46727217Y-10482748D01*
X46679700Y-10547643D01*
X46628525Y-10593306D01*
X46557393Y-10643445D01*
X46478094Y-10690745D01*
X46402420Y-10727889D01*
X46368490Y-10740737D01*
X46237197Y-10774377D01*
X46082882Y-10799284D01*
X45915408Y-10814824D01*
X45744636Y-10820367D01*
X45580428Y-10815280D01*
X45440600Y-10800199D01*
X45332490Y-10782372D01*
X45223008Y-10762637D01*
X45119678Y-10742497D01*
X45030022Y-10723457D01*
X44961566Y-10707021D01*
X44932600Y-10698644D01*
X44864867Y-10676360D01*
X44860164Y-10423729D01*
X44859498Y-10334061D01*
X44860814Y-10256277D01*
X44863857Y-10196727D01*
X44868373Y-10161763D01*
X44870867Y-10155692D01*
X44897780Y-10150192D01*
X44917903Y-10157789D01*
X45014757Y-10202673D01*
X45132700Y-10243620D01*
X45264455Y-10279334D01*
X45402744Y-10308519D01*
X45540292Y-10329877D01*
X45669821Y-10342113D01*
X45784054Y-10343929D01*
X45875713Y-10334029D01*
X45889333Y-10330882D01*
X45944087Y-10317278D01*
X45993334Y-10305699D01*
X45993861Y-10305582D01*
X46063763Y-10275081D01*
X46116921Y-10223134D01*
X46148844Y-10157647D01*
X46155041Y-10086526D01*
X46143558Y-10042010D01*
X46121431Y-10002578D01*
X46088428Y-9971168D01*
X46039840Y-9945855D01*
X45970954Y-9924713D01*
X45877058Y-9905815D01*
X45770800Y-9889622D01*
X45581877Y-9860435D01*
X45423192Y-9828966D01*
X45291126Y-9793734D01*
X45182057Y-9753261D01*
X45092368Y-9706066D01*
X45018439Y-9650670D01*
X44956650Y-9585593D01*
X44925897Y-9544217D01*
X44868573Y-9432604D01*
X44834151Y-9303081D01*
X44822894Y-9162925D01*
X44835067Y-9019415D01*
X44870932Y-8879830D01*
X44899320Y-8810601D01*
X44962226Y-8715875D01*
X45054391Y-8633943D01*
X45173322Y-8565812D01*
X45316529Y-8512493D01*
X45481520Y-8474994D01*
X45665802Y-8454324D01*
X45788984Y-8450401D01*
X45903940Y-8453425D01*
G36*
X51506360Y-8450028D02*
X51614097Y-8460922D01*
X51634935Y-8464914D01*
X51761349Y-8492370D01*
X51858567Y-8514538D01*
X51930665Y-8532449D01*
X51981718Y-8547135D01*
X52015803Y-8559626D01*
X52023433Y-8563150D01*
X52070000Y-8586070D01*
X52069741Y-8843868D01*
X52068813Y-8935040D01*
X52066431Y-9014891D01*
X52062907Y-9076966D01*
X52058555Y-9114810D01*
X52056202Y-9122573D01*
X52040554Y-9129004D01*
X52007368Y-9121071D01*
X51952219Y-9097396D01*
X51911879Y-9077646D01*
X51756767Y-9013672D01*
X51603488Y-8976960D01*
X51455484Y-8966897D01*
X51316194Y-8982870D01*
X51189059Y-9024267D01*
X51077519Y-9090475D01*
X50985014Y-9180881D01*
X50937386Y-9251165D01*
X50889069Y-9365338D01*
X50860236Y-9497703D01*
X50850848Y-9639107D01*
X50860866Y-9780398D01*
X50890252Y-9912422D01*
X50938967Y-10026028D01*
X50940659Y-10028941D01*
X51018710Y-10130171D01*
X51118614Y-10209121D01*
X51236206Y-10265191D01*
X51367324Y-10297781D01*
X51507803Y-10306294D01*
X51653479Y-10290129D01*
X51800190Y-10248688D01*
X51943772Y-10181372D01*
X51954964Y-10174871D01*
X52006388Y-10146892D01*
X52037088Y-10137141D01*
X52053602Y-10143754D01*
X52055376Y-10146224D01*
X52060399Y-10170376D01*
X52064669Y-10221750D01*
X52067834Y-10293701D01*
X52069543Y-10379586D01*
X52069741Y-10417024D01*
X52069129Y-10523004D01*
X52065975Y-10600199D01*
X52058678Y-10653679D01*
X52045640Y-10688513D01*
X52025262Y-10709769D01*
X51995944Y-10722517D01*
X51971449Y-10728617D01*
X51918833Y-10742230D01*
X51883733Y-10753219D01*
X51784874Y-10779298D01*
X51661971Y-10798949D01*
X51524313Y-10811720D01*
X51381191Y-10817162D01*
X51241896Y-10814823D01*
X51115717Y-10804252D01*
X51049736Y-10793685D01*
X50846551Y-10739748D01*
X50668656Y-10663482D01*
X50515232Y-10564128D01*
X50385461Y-10440929D01*
X50278525Y-10293127D01*
X50193606Y-10119964D01*
X50137063Y-9948333D01*
X50120079Y-9852539D01*
X50112345Y-9734084D01*
X50113349Y-9602741D01*
X50122580Y-9468277D01*
X50139526Y-9340464D01*
X50163677Y-9229070D01*
X50176959Y-9186333D01*
X50254025Y-9017017D01*
X50358612Y-8865365D01*
X50487777Y-8734245D01*
X50638576Y-8626527D01*
X50808065Y-8545080D01*
X50850130Y-8530116D01*
X50965572Y-8498772D01*
X51098359Y-8474307D01*
X51239048Y-8457505D01*
X51378197Y-8449150D01*
X51506360Y-8450028D01*
X51506360Y-8450028D01*
G37*
X51506360Y-8450028D02*
X51614097Y-8460922D01*
X51634935Y-8464914D01*
X51761349Y-8492370D01*
X51858567Y-8514538D01*
X51930665Y-8532449D01*
X51981718Y-8547135D01*
X52015803Y-8559626D01*
X52023433Y-8563150D01*
X52070000Y-8586070D01*
X52069741Y-8843868D01*
X52068813Y-8935040D01*
X52066431Y-9014891D01*
X52062907Y-9076966D01*
X52058555Y-9114810D01*
X52056202Y-9122573D01*
X52040554Y-9129004D01*
X52007368Y-9121071D01*
X51952219Y-9097396D01*
X51911879Y-9077646D01*
X51756767Y-9013672D01*
X51603488Y-8976960D01*
X51455484Y-8966897D01*
X51316194Y-8982870D01*
X51189059Y-9024267D01*
X51077519Y-9090475D01*
X50985014Y-9180881D01*
X50937386Y-9251165D01*
X50889069Y-9365338D01*
X50860236Y-9497703D01*
X50850848Y-9639107D01*
X50860866Y-9780398D01*
X50890252Y-9912422D01*
X50938967Y-10026028D01*
X50940659Y-10028941D01*
X51018710Y-10130171D01*
X51118614Y-10209121D01*
X51236206Y-10265191D01*
X51367324Y-10297781D01*
X51507803Y-10306294D01*
X51653479Y-10290129D01*
X51800190Y-10248688D01*
X51943772Y-10181372D01*
X51954964Y-10174871D01*
X52006388Y-10146892D01*
X52037088Y-10137141D01*
X52053602Y-10143754D01*
X52055376Y-10146224D01*
X52060399Y-10170376D01*
X52064669Y-10221750D01*
X52067834Y-10293701D01*
X52069543Y-10379586D01*
X52069741Y-10417024D01*
X52069129Y-10523004D01*
X52065975Y-10600199D01*
X52058678Y-10653679D01*
X52045640Y-10688513D01*
X52025262Y-10709769D01*
X51995944Y-10722517D01*
X51971449Y-10728617D01*
X51918833Y-10742230D01*
X51883733Y-10753219D01*
X51784874Y-10779298D01*
X51661971Y-10798949D01*
X51524313Y-10811720D01*
X51381191Y-10817162D01*
X51241896Y-10814823D01*
X51115717Y-10804252D01*
X51049736Y-10793685D01*
X50846551Y-10739748D01*
X50668656Y-10663482D01*
X50515232Y-10564128D01*
X50385461Y-10440929D01*
X50278525Y-10293127D01*
X50193606Y-10119964D01*
X50137063Y-9948333D01*
X50120079Y-9852539D01*
X50112345Y-9734084D01*
X50113349Y-9602741D01*
X50122580Y-9468277D01*
X50139526Y-9340464D01*
X50163677Y-9229070D01*
X50176959Y-9186333D01*
X50254025Y-9017017D01*
X50358612Y-8865365D01*
X50487777Y-8734245D01*
X50638576Y-8626527D01*
X50808065Y-8545080D01*
X50850130Y-8530116D01*
X50965572Y-8498772D01*
X51098359Y-8474307D01*
X51239048Y-8457505D01*
X51378197Y-8449150D01*
X51506360Y-8450028D01*
G36*
X55501519Y-8463601D02*
X55702974Y-8503073D01*
X55883448Y-8568980D01*
X56043159Y-8661422D01*
X56182323Y-8780499D01*
X56293615Y-8915400D01*
X56330982Y-8971340D01*
X56361709Y-9024775D01*
X56390836Y-9085747D01*
X56423405Y-9164295D01*
X56440459Y-9207876D01*
X56448621Y-9239817D01*
X56459299Y-9296814D01*
X56471003Y-9370298D01*
X56480481Y-9438065D01*
X56494972Y-9661918D01*
X56478879Y-9876006D01*
X56432497Y-10077945D01*
X56385908Y-10202333D01*
X56307044Y-10342914D01*
X56200376Y-10472880D01*
X56071532Y-10587036D01*
X55926138Y-10680183D01*
X55812267Y-10732126D01*
X55660663Y-10777106D01*
X55489486Y-10806274D01*
X55309455Y-10818960D01*
X55131292Y-10814492D01*
X54965715Y-10792199D01*
X54940200Y-10786727D01*
X54787182Y-10745719D01*
X54659060Y-10696305D01*
X54547088Y-10633989D01*
X54442523Y-10554273D01*
X54384615Y-10501008D01*
X54276941Y-10378482D01*
X54192160Y-10240579D01*
X54128441Y-10083248D01*
X54083955Y-9902437D01*
X54068121Y-9800166D01*
X54062069Y-9678719D01*
X54807213Y-9678719D01*
X54811542Y-9786208D01*
X54821654Y-9879602D01*
X54837303Y-9948333D01*
X54888454Y-10070469D01*
X54950148Y-10163182D01*
X55025845Y-10230168D01*
X55119004Y-10275123D01*
X55152819Y-10285393D01*
X55217405Y-10301847D01*
X55263747Y-10309071D01*
X55306166Y-10307138D01*
X55358981Y-10296124D01*
X55395919Y-10286674D01*
X55495798Y-10250461D01*
X55575182Y-10196855D01*
X55638683Y-10121147D01*
X55690913Y-10018631D01*
X55711096Y-9965019D01*
X55728435Y-9893205D01*
X55740502Y-9798846D01*
X55747165Y-9691485D01*
X55748293Y-9580666D01*
X55743753Y-9475930D01*
X55733413Y-9386822D01*
X55719887Y-9330266D01*
X55671707Y-9211027D01*
X55617696Y-9120852D01*
X55552997Y-9054956D01*
X55472756Y-9008552D01*
X55372118Y-8976851D01*
X55358335Y-8973786D01*
X55271495Y-8967446D01*
X55174725Y-8979496D01*
X55082728Y-9007009D01*
X55017608Y-9041540D01*
X54958300Y-9098609D01*
X54901490Y-9180485D01*
X54853142Y-9278286D01*
X54845358Y-9298059D01*
X54827738Y-9366805D01*
X54815428Y-9459505D01*
X54808547Y-9566647D01*
X54807213Y-9678719D01*
X54062069Y-9678719D01*
X54058271Y-9602512D01*
X54077398Y-9398647D01*
X54124532Y-9198172D01*
X54131015Y-9177866D01*
X54203731Y-9006911D01*
X54302179Y-8857126D01*
X54424977Y-8729386D01*
X54570744Y-8624566D01*
X54738099Y-8543542D01*
X54925660Y-8487188D01*
X55132048Y-8456380D01*
X55278867Y-8450466D01*
X55501519Y-8463601D01*
X55501519Y-8463601D01*
G37*
X55501519Y-8463601D02*
X55702974Y-8503073D01*
X55883448Y-8568980D01*
X56043159Y-8661422D01*
X56182323Y-8780499D01*
X56293615Y-8915400D01*
X56330982Y-8971340D01*
X56361709Y-9024775D01*
X56390836Y-9085747D01*
X56423405Y-9164295D01*
X56440459Y-9207876D01*
X56448621Y-9239817D01*
X56459299Y-9296814D01*
X56471003Y-9370298D01*
X56480481Y-9438065D01*
X56494972Y-9661918D01*
X56478879Y-9876006D01*
X56432497Y-10077945D01*
X56385908Y-10202333D01*
X56307044Y-10342914D01*
X56200376Y-10472880D01*
X56071532Y-10587036D01*
X55926138Y-10680183D01*
X55812267Y-10732126D01*
X55660663Y-10777106D01*
X55489486Y-10806274D01*
X55309455Y-10818960D01*
X55131292Y-10814492D01*
X54965715Y-10792199D01*
X54940200Y-10786727D01*
X54787182Y-10745719D01*
X54659060Y-10696305D01*
X54547088Y-10633989D01*
X54442523Y-10554273D01*
X54384615Y-10501008D01*
X54276941Y-10378482D01*
X54192160Y-10240579D01*
X54128441Y-10083248D01*
X54083955Y-9902437D01*
X54068121Y-9800166D01*
X54062069Y-9678719D01*
X54807213Y-9678719D01*
X54811542Y-9786208D01*
X54821654Y-9879602D01*
X54837303Y-9948333D01*
X54888454Y-10070469D01*
X54950148Y-10163182D01*
X55025845Y-10230168D01*
X55119004Y-10275123D01*
X55152819Y-10285393D01*
X55217405Y-10301847D01*
X55263747Y-10309071D01*
X55306166Y-10307138D01*
X55358981Y-10296124D01*
X55395919Y-10286674D01*
X55495798Y-10250461D01*
X55575182Y-10196855D01*
X55638683Y-10121147D01*
X55690913Y-10018631D01*
X55711096Y-9965019D01*
X55728435Y-9893205D01*
X55740502Y-9798846D01*
X55747165Y-9691485D01*
X55748293Y-9580666D01*
X55743753Y-9475930D01*
X55733413Y-9386822D01*
X55719887Y-9330266D01*
X55671707Y-9211027D01*
X55617696Y-9120852D01*
X55552997Y-9054956D01*
X55472756Y-9008552D01*
X55372118Y-8976851D01*
X55358335Y-8973786D01*
X55271495Y-8967446D01*
X55174725Y-8979496D01*
X55082728Y-9007009D01*
X55017608Y-9041540D01*
X54958300Y-9098609D01*
X54901490Y-9180485D01*
X54853142Y-9278286D01*
X54845358Y-9298059D01*
X54827738Y-9366805D01*
X54815428Y-9459505D01*
X54808547Y-9566647D01*
X54807213Y-9678719D01*
X54062069Y-9678719D01*
X54058271Y-9602512D01*
X54077398Y-9398647D01*
X54124532Y-9198172D01*
X54131015Y-9177866D01*
X54203731Y-9006911D01*
X54302179Y-8857126D01*
X54424977Y-8729386D01*
X54570744Y-8624566D01*
X54738099Y-8543542D01*
X54925660Y-8487188D01*
X55132048Y-8456380D01*
X55278867Y-8450466D01*
X55501519Y-8463601D01*
G36*
X67376754Y-8501331D02*
X67472870Y-8503815D01*
X67539860Y-8508125D01*
X67580076Y-8514400D01*
X67594480Y-8520853D01*
X67598448Y-8541367D01*
X67602024Y-8592264D01*
X67605204Y-8670061D01*
X67607985Y-8771278D01*
X67610360Y-8892432D01*
X67612327Y-9030041D01*
X67613880Y-9180624D01*
X67615015Y-9340699D01*
X67615729Y-9506784D01*
X67616015Y-9675397D01*
X67615871Y-9843056D01*
X67615291Y-10006280D01*
X67614272Y-10161588D01*
X67612809Y-10305496D01*
X67610897Y-10434523D01*
X67608532Y-10545188D01*
X67605710Y-10634008D01*
X67602426Y-10697503D01*
X67598676Y-10732189D01*
X67597271Y-10736846D01*
X67589086Y-10748327D01*
X67575443Y-10756767D01*
X67551591Y-10762630D01*
X67512775Y-10766380D01*
X67454242Y-10768482D01*
X67371240Y-10769401D01*
X67261991Y-10769600D01*
X67135677Y-10768773D01*
X67040869Y-10766199D01*
X66975242Y-10761738D01*
X66936474Y-10755251D01*
X66923920Y-10749280D01*
X66912857Y-10721057D01*
X66905731Y-10666964D01*
X66903600Y-10605346D01*
X66901066Y-10533578D01*
X66893661Y-10491993D01*
X66884591Y-10481733D01*
X66864243Y-10492637D01*
X66826590Y-10521681D01*
X66778579Y-10563367D01*
X66760942Y-10579619D01*
X66621480Y-10688441D01*
X66467070Y-10767280D01*
X66387133Y-10794860D01*
X66309363Y-10809866D01*
X66211500Y-10817178D01*
X66106428Y-10816809D01*
X66007031Y-10808773D01*
X65930665Y-10794347D01*
X65805197Y-10748438D01*
X65698952Y-10682232D01*
X65609995Y-10599270D01*
X65547002Y-10525299D01*
X65499944Y-10453478D01*
X65462449Y-10372127D01*
X65428147Y-10269569D01*
X65425790Y-10261600D01*
X65418118Y-10232984D01*
X65411661Y-10201636D01*
X65406268Y-10164277D01*
X65401788Y-10117628D01*
X65398072Y-10058411D01*
X65394970Y-9983346D01*
X65392330Y-9889155D01*
X65390003Y-9772559D01*
X65387838Y-9630280D01*
X65385686Y-9459039D01*
X65384577Y-9362420D01*
X65382578Y-9161929D01*
X65381475Y-8993276D01*
X65381295Y-8854443D01*
X65382064Y-8743413D01*
X65383809Y-8658169D01*
X65386557Y-8596692D01*
X65390333Y-8556967D01*
X65395164Y-8536974D01*
X65395374Y-8536565D01*
X65403167Y-8524018D01*
X65414302Y-8514790D01*
X65433448Y-8508453D01*
X65465273Y-8504585D01*
X65514448Y-8502760D01*
X65585641Y-8502552D01*
X65683522Y-8503538D01*
X65748686Y-8504411D01*
X66082333Y-8509000D01*
X66091890Y-9254066D01*
X66094388Y-9441794D01*
X66096885Y-9598828D01*
X66099746Y-9728342D01*
X66103334Y-9833506D01*
X66108014Y-9917492D01*
X66114150Y-9983473D01*
X66122105Y-10034619D01*
X66132244Y-10074103D01*
X66144929Y-10105097D01*
X66160526Y-10130772D01*
X66179398Y-10154301D01*
X66197441Y-10174078D01*
X66272029Y-10230301D01*
X66363707Y-10262098D01*
X66465177Y-10268543D01*
X66569142Y-10248707D01*
X66621299Y-10227923D01*
X66671160Y-10196083D01*
X66724409Y-10149564D01*
X66773995Y-10096240D01*
X66812866Y-10043988D01*
X66833971Y-10000681D01*
X66835867Y-9988281D01*
X66845389Y-9955089D01*
X66850878Y-9947486D01*
X66864831Y-9920877D01*
X66876437Y-9872334D01*
X66885814Y-9800026D01*
X66893081Y-9702125D01*
X66898355Y-9576800D01*
X66901755Y-9422221D01*
X66903399Y-9236558D01*
X66903600Y-9131298D01*
X66903893Y-8993870D01*
X66904725Y-8866586D01*
X66906026Y-8753572D01*
X66907726Y-8658955D01*
X66909754Y-8586861D01*
X66912040Y-8541419D01*
X66913878Y-8527318D01*
X66921392Y-8517908D01*
X66938631Y-8510952D01*
X66970021Y-8506095D01*
X67019986Y-8502986D01*
X67092954Y-8501270D01*
X67193351Y-8500593D01*
X67249158Y-8500533D01*
X67376754Y-8501331D01*
X67376754Y-8501331D01*
G37*
X67376754Y-8501331D02*
X67472870Y-8503815D01*
X67539860Y-8508125D01*
X67580076Y-8514400D01*
X67594480Y-8520853D01*
X67598448Y-8541367D01*
X67602024Y-8592264D01*
X67605204Y-8670061D01*
X67607985Y-8771278D01*
X67610360Y-8892432D01*
X67612327Y-9030041D01*
X67613880Y-9180624D01*
X67615015Y-9340699D01*
X67615729Y-9506784D01*
X67616015Y-9675397D01*
X67615871Y-9843056D01*
X67615291Y-10006280D01*
X67614272Y-10161588D01*
X67612809Y-10305496D01*
X67610897Y-10434523D01*
X67608532Y-10545188D01*
X67605710Y-10634008D01*
X67602426Y-10697503D01*
X67598676Y-10732189D01*
X67597271Y-10736846D01*
X67589086Y-10748327D01*
X67575443Y-10756767D01*
X67551591Y-10762630D01*
X67512775Y-10766380D01*
X67454242Y-10768482D01*
X67371240Y-10769401D01*
X67261991Y-10769600D01*
X67135677Y-10768773D01*
X67040869Y-10766199D01*
X66975242Y-10761738D01*
X66936474Y-10755251D01*
X66923920Y-10749280D01*
X66912857Y-10721057D01*
X66905731Y-10666964D01*
X66903600Y-10605346D01*
X66901066Y-10533578D01*
X66893661Y-10491993D01*
X66884591Y-10481733D01*
X66864243Y-10492637D01*
X66826590Y-10521681D01*
X66778579Y-10563367D01*
X66760942Y-10579619D01*
X66621480Y-10688441D01*
X66467070Y-10767280D01*
X66387133Y-10794860D01*
X66309363Y-10809866D01*
X66211500Y-10817178D01*
X66106428Y-10816809D01*
X66007031Y-10808773D01*
X65930665Y-10794347D01*
X65805197Y-10748438D01*
X65698952Y-10682232D01*
X65609995Y-10599270D01*
X65547002Y-10525299D01*
X65499944Y-10453478D01*
X65462449Y-10372127D01*
X65428147Y-10269569D01*
X65425790Y-10261600D01*
X65418118Y-10232984D01*
X65411661Y-10201636D01*
X65406268Y-10164277D01*
X65401788Y-10117628D01*
X65398072Y-10058411D01*
X65394970Y-9983346D01*
X65392330Y-9889155D01*
X65390003Y-9772559D01*
X65387838Y-9630280D01*
X65385686Y-9459039D01*
X65384577Y-9362420D01*
X65382578Y-9161929D01*
X65381475Y-8993276D01*
X65381295Y-8854443D01*
X65382064Y-8743413D01*
X65383809Y-8658169D01*
X65386557Y-8596692D01*
X65390333Y-8556967D01*
X65395164Y-8536974D01*
X65395374Y-8536565D01*
X65403167Y-8524018D01*
X65414302Y-8514790D01*
X65433448Y-8508453D01*
X65465273Y-8504585D01*
X65514448Y-8502760D01*
X65585641Y-8502552D01*
X65683522Y-8503538D01*
X65748686Y-8504411D01*
X66082333Y-8509000D01*
X66091890Y-9254066D01*
X66094388Y-9441794D01*
X66096885Y-9598828D01*
X66099746Y-9728342D01*
X66103334Y-9833506D01*
X66108014Y-9917492D01*
X66114150Y-9983473D01*
X66122105Y-10034619D01*
X66132244Y-10074103D01*
X66144929Y-10105097D01*
X66160526Y-10130772D01*
X66179398Y-10154301D01*
X66197441Y-10174078D01*
X66272029Y-10230301D01*
X66363707Y-10262098D01*
X66465177Y-10268543D01*
X66569142Y-10248707D01*
X66621299Y-10227923D01*
X66671160Y-10196083D01*
X66724409Y-10149564D01*
X66773995Y-10096240D01*
X66812866Y-10043988D01*
X66833971Y-10000681D01*
X66835867Y-9988281D01*
X66845389Y-9955089D01*
X66850878Y-9947486D01*
X66864831Y-9920877D01*
X66876437Y-9872334D01*
X66885814Y-9800026D01*
X66893081Y-9702125D01*
X66898355Y-9576800D01*
X66901755Y-9422221D01*
X66903399Y-9236558D01*
X66903600Y-9131298D01*
X66903893Y-8993870D01*
X66904725Y-8866586D01*
X66906026Y-8753572D01*
X66907726Y-8658955D01*
X66909754Y-8586861D01*
X66912040Y-8541419D01*
X66913878Y-8527318D01*
X66921392Y-8517908D01*
X66938631Y-8510952D01*
X66970021Y-8506095D01*
X67019986Y-8502986D01*
X67092954Y-8501270D01*
X67193351Y-8500593D01*
X67249158Y-8500533D01*
X67376754Y-8501331D01*
G36*
X70939431Y-8461594D02*
X71115201Y-8498771D01*
X71287825Y-8563665D01*
X71306267Y-8572210D01*
X71448029Y-8656493D01*
X71578195Y-8767791D01*
X71691245Y-8899805D01*
X71781662Y-9046234D01*
X71836823Y-9178006D01*
X71856895Y-9252518D01*
X71875325Y-9344990D01*
X71891130Y-9447018D01*
X71903326Y-9550200D01*
X71910930Y-9646132D01*
X71912959Y-9726413D01*
X71908429Y-9782638D01*
X71907887Y-9785249D01*
X71896313Y-9837943D01*
X70264867Y-9846733D01*
X70266694Y-9906000D01*
X70284095Y-9992466D01*
X70327075Y-10081962D01*
X70389400Y-10165913D01*
X70464832Y-10235745D01*
X70538105Y-10279147D01*
X70673181Y-10321326D01*
X70827343Y-10340242D01*
X70994465Y-10335247D01*
X71030157Y-10331162D01*
X71106372Y-10320487D01*
X71173938Y-10309486D01*
X71223039Y-10299827D01*
X71238533Y-10295720D01*
X71278686Y-10282968D01*
X71335833Y-10265478D01*
X71374000Y-10254048D01*
X71418001Y-10240839D01*
X71452870Y-10229438D01*
X71486890Y-10216513D01*
X71528345Y-10198733D01*
X71585518Y-10172767D01*
X71649289Y-10143328D01*
X71706747Y-10119041D01*
X71752947Y-10103701D01*
X71778989Y-10100191D01*
X71780523Y-10100809D01*
X71787970Y-10121746D01*
X71793340Y-10169160D01*
X71796691Y-10235729D01*
X71798084Y-10314131D01*
X71797580Y-10397045D01*
X71795238Y-10477147D01*
X71791120Y-10547117D01*
X71785286Y-10599633D01*
X71777796Y-10627371D01*
X71776167Y-10629255D01*
X71750562Y-10641805D01*
X71702067Y-10660276D01*
X71640287Y-10681058D01*
X71628000Y-10684921D01*
X71412193Y-10743123D01*
X71193896Y-10785323D01*
X70979372Y-10810989D01*
X70774885Y-10819587D01*
X70586696Y-10810585D01*
X70434200Y-10786495D01*
X70339170Y-10764312D01*
X70267325Y-10745005D01*
X70208560Y-10725242D01*
X70152766Y-10701693D01*
X70101117Y-10676705D01*
X69948849Y-10584635D01*
X69820828Y-10472225D01*
X69714923Y-10336936D01*
X69629005Y-10176227D01*
X69583848Y-10059814D01*
X69567500Y-10009359D01*
X69555759Y-9963966D01*
X69547851Y-9916401D01*
X69542997Y-9859426D01*
X69540421Y-9785807D01*
X69539347Y-9688307D01*
X69539172Y-9643533D01*
X69539594Y-9526666D01*
X69541976Y-9436972D01*
X69546827Y-9367788D01*
X69549464Y-9349145D01*
X70263192Y-9349145D01*
X70269938Y-9372027D01*
X70288782Y-9374436D01*
X70336919Y-9376282D01*
X70409781Y-9377513D01*
X70502798Y-9378078D01*
X70611402Y-9377925D01*
X70720930Y-9377108D01*
X71162333Y-9372600D01*
X71158153Y-9291429D01*
X71137140Y-9187347D01*
X71088473Y-9096761D01*
X71016758Y-9022853D01*
X70926596Y-8968801D01*
X70822593Y-8937784D01*
X70709351Y-8932982D01*
X70651191Y-8941305D01*
X70562635Y-8963832D01*
X70495575Y-8993014D01*
X70437643Y-9035201D01*
X70402485Y-9069021D01*
X70361253Y-9119802D01*
X70323296Y-9181003D01*
X70292026Y-9244827D01*
X70270854Y-9303474D01*
X70263192Y-9349145D01*
X69549464Y-9349145D01*
X69554656Y-9312451D01*
X69565974Y-9264299D01*
X69568965Y-9254066D01*
X69640925Y-9068335D01*
X69737351Y-8905624D01*
X69857269Y-8766595D01*
X69999705Y-8651912D01*
X70163686Y-8562239D01*
X70348239Y-8498238D01*
X70552390Y-8460572D01*
X70749623Y-8449736D01*
X70939431Y-8461594D01*
X70939431Y-8461594D01*
G37*
X70939431Y-8461594D02*
X71115201Y-8498771D01*
X71287825Y-8563665D01*
X71306267Y-8572210D01*
X71448029Y-8656493D01*
X71578195Y-8767791D01*
X71691245Y-8899805D01*
X71781662Y-9046234D01*
X71836823Y-9178006D01*
X71856895Y-9252518D01*
X71875325Y-9344990D01*
X71891130Y-9447018D01*
X71903326Y-9550200D01*
X71910930Y-9646132D01*
X71912959Y-9726413D01*
X71908429Y-9782638D01*
X71907887Y-9785249D01*
X71896313Y-9837943D01*
X70264867Y-9846733D01*
X70266694Y-9906000D01*
X70284095Y-9992466D01*
X70327075Y-10081962D01*
X70389400Y-10165913D01*
X70464832Y-10235745D01*
X70538105Y-10279147D01*
X70673181Y-10321326D01*
X70827343Y-10340242D01*
X70994465Y-10335247D01*
X71030157Y-10331162D01*
X71106372Y-10320487D01*
X71173938Y-10309486D01*
X71223039Y-10299827D01*
X71238533Y-10295720D01*
X71278686Y-10282968D01*
X71335833Y-10265478D01*
X71374000Y-10254048D01*
X71418001Y-10240839D01*
X71452870Y-10229438D01*
X71486890Y-10216513D01*
X71528345Y-10198733D01*
X71585518Y-10172767D01*
X71649289Y-10143328D01*
X71706747Y-10119041D01*
X71752947Y-10103701D01*
X71778989Y-10100191D01*
X71780523Y-10100809D01*
X71787970Y-10121746D01*
X71793340Y-10169160D01*
X71796691Y-10235729D01*
X71798084Y-10314131D01*
X71797580Y-10397045D01*
X71795238Y-10477147D01*
X71791120Y-10547117D01*
X71785286Y-10599633D01*
X71777796Y-10627371D01*
X71776167Y-10629255D01*
X71750562Y-10641805D01*
X71702067Y-10660276D01*
X71640287Y-10681058D01*
X71628000Y-10684921D01*
X71412193Y-10743123D01*
X71193896Y-10785323D01*
X70979372Y-10810989D01*
X70774885Y-10819587D01*
X70586696Y-10810585D01*
X70434200Y-10786495D01*
X70339170Y-10764312D01*
X70267325Y-10745005D01*
X70208560Y-10725242D01*
X70152766Y-10701693D01*
X70101117Y-10676705D01*
X69948849Y-10584635D01*
X69820828Y-10472225D01*
X69714923Y-10336936D01*
X69629005Y-10176227D01*
X69583848Y-10059814D01*
X69567500Y-10009359D01*
X69555759Y-9963966D01*
X69547851Y-9916401D01*
X69542997Y-9859426D01*
X69540421Y-9785807D01*
X69539347Y-9688307D01*
X69539172Y-9643533D01*
X69539594Y-9526666D01*
X69541976Y-9436972D01*
X69546827Y-9367788D01*
X69549464Y-9349145D01*
X70263192Y-9349145D01*
X70269938Y-9372027D01*
X70288782Y-9374436D01*
X70336919Y-9376282D01*
X70409781Y-9377513D01*
X70502798Y-9378078D01*
X70611402Y-9377925D01*
X70720930Y-9377108D01*
X71162333Y-9372600D01*
X71158153Y-9291429D01*
X71137140Y-9187347D01*
X71088473Y-9096761D01*
X71016758Y-9022853D01*
X70926596Y-8968801D01*
X70822593Y-8937784D01*
X70709351Y-8932982D01*
X70651191Y-8941305D01*
X70562635Y-8963832D01*
X70495575Y-8993014D01*
X70437643Y-9035201D01*
X70402485Y-9069021D01*
X70361253Y-9119802D01*
X70323296Y-9181003D01*
X70292026Y-9244827D01*
X70270854Y-9303474D01*
X70263192Y-9349145D01*
X69549464Y-9349145D01*
X69554656Y-9312451D01*
X69565974Y-9264299D01*
X69568965Y-9254066D01*
X69640925Y-9068335D01*
X69737351Y-8905624D01*
X69857269Y-8766595D01*
X69999705Y-8651912D01*
X70163686Y-8562239D01*
X70348239Y-8498238D01*
X70552390Y-8460572D01*
X70749623Y-8449736D01*
X70939431Y-8461594D01*
G36*
X40612092Y-7622673D02*
X40699267Y-7623648D01*
X41004067Y-7628466D01*
X41012533Y-8456794D01*
X41015011Y-8669509D01*
X41017772Y-8849293D01*
X41020847Y-8997082D01*
X41024266Y-9113809D01*
X41028059Y-9200409D01*
X41032256Y-9257818D01*
X41036888Y-9286969D01*
X41039393Y-9291247D01*
X41055236Y-9281056D01*
X41091710Y-9249309D01*
X41145905Y-9198796D01*
X41214910Y-9132307D01*
X41295817Y-9052635D01*
X41385716Y-8962569D01*
X41448398Y-8898953D01*
X41839011Y-8500533D01*
X42230105Y-8500533D01*
X42365769Y-8501065D01*
X42469959Y-8502741D01*
X42545054Y-8505679D01*
X42593432Y-8509998D01*
X42617470Y-8515816D01*
X42621200Y-8520043D01*
X42609801Y-8540661D01*
X42579758Y-8576839D01*
X42537297Y-8621151D01*
X42532300Y-8626043D01*
X42475129Y-8681491D01*
X42403585Y-8750608D01*
X42321054Y-8830148D01*
X42230919Y-8916866D01*
X42136567Y-9007518D01*
X42041381Y-9098857D01*
X41948747Y-9187640D01*
X41862049Y-9270620D01*
X41784671Y-9344553D01*
X41719999Y-9406194D01*
X41671417Y-9452297D01*
X41642311Y-9479618D01*
X41636451Y-9484935D01*
X41612692Y-9518738D01*
X41608111Y-9547229D01*
X41614796Y-9560635D01*
X41632885Y-9585018D01*
X41663679Y-9621782D01*
X41708479Y-9672328D01*
X41768587Y-9738059D01*
X41845303Y-9820376D01*
X41939927Y-9920681D01*
X42053760Y-10040378D01*
X42188104Y-10180867D01*
X42344260Y-10343551D01*
X42419795Y-10422089D01*
X42487242Y-10492204D01*
X42550783Y-10558291D01*
X42604644Y-10614344D01*
X42643052Y-10654357D01*
X42652628Y-10664350D01*
X42682139Y-10695945D01*
X42700903Y-10720484D01*
X42705981Y-10738861D01*
X42694432Y-10751965D01*
X42663314Y-10760689D01*
X42609689Y-10765923D01*
X42530614Y-10768558D01*
X42423151Y-10769487D01*
X42305375Y-10769600D01*
X41904884Y-10769600D01*
X41800415Y-10663766D01*
X41758958Y-10620825D01*
X41699428Y-10557871D01*
X41626533Y-10479949D01*
X41544980Y-10392105D01*
X41459479Y-10299383D01*
X41409301Y-10244666D01*
X41306126Y-10132224D01*
X41223225Y-10042688D01*
X41158296Y-9973723D01*
X41109036Y-9922992D01*
X41073143Y-9888159D01*
X41048314Y-9866887D01*
X41032246Y-9856839D01*
X41025510Y-9855221D01*
X41022061Y-9871418D01*
X41018644Y-9917098D01*
X41015425Y-9987879D01*
X41012567Y-10079377D01*
X41010233Y-10187211D01*
X41008588Y-10306995D01*
X41008576Y-10308166D01*
X41004067Y-10761133D01*
X40672803Y-10765714D01*
X40570125Y-10766557D01*
X40479199Y-10766207D01*
X40405390Y-10764774D01*
X40354066Y-10762369D01*
X40330592Y-10759101D01*
X40329903Y-10758658D01*
X40328208Y-10740397D01*
X40326587Y-10690659D01*
X40325059Y-10611834D01*
X40323640Y-10506311D01*
X40322348Y-10376479D01*
X40321202Y-10224729D01*
X40320218Y-10053451D01*
X40319415Y-9865032D01*
X40318811Y-9661865D01*
X40318423Y-9446337D01*
X40318268Y-9220838D01*
X40318267Y-9192300D01*
X40318267Y-7637578D01*
X40356367Y-7628204D01*
X40385182Y-7625430D01*
X40441588Y-7623529D01*
X40519314Y-7622582D01*
X40612092Y-7622673D01*
X40612092Y-7622673D01*
G37*
X40612092Y-7622673D02*
X40699267Y-7623648D01*
X41004067Y-7628466D01*
X41012533Y-8456794D01*
X41015011Y-8669509D01*
X41017772Y-8849293D01*
X41020847Y-8997082D01*
X41024266Y-9113809D01*
X41028059Y-9200409D01*
X41032256Y-9257818D01*
X41036888Y-9286969D01*
X41039393Y-9291247D01*
X41055236Y-9281056D01*
X41091710Y-9249309D01*
X41145905Y-9198796D01*
X41214910Y-9132307D01*
X41295817Y-9052635D01*
X41385716Y-8962569D01*
X41448398Y-8898953D01*
X41839011Y-8500533D01*
X42230105Y-8500533D01*
X42365769Y-8501065D01*
X42469959Y-8502741D01*
X42545054Y-8505679D01*
X42593432Y-8509998D01*
X42617470Y-8515816D01*
X42621200Y-8520043D01*
X42609801Y-8540661D01*
X42579758Y-8576839D01*
X42537297Y-8621151D01*
X42532300Y-8626043D01*
X42475129Y-8681491D01*
X42403585Y-8750608D01*
X42321054Y-8830148D01*
X42230919Y-8916866D01*
X42136567Y-9007518D01*
X42041381Y-9098857D01*
X41948747Y-9187640D01*
X41862049Y-9270620D01*
X41784671Y-9344553D01*
X41719999Y-9406194D01*
X41671417Y-9452297D01*
X41642311Y-9479618D01*
X41636451Y-9484935D01*
X41612692Y-9518738D01*
X41608111Y-9547229D01*
X41614796Y-9560635D01*
X41632885Y-9585018D01*
X41663679Y-9621782D01*
X41708479Y-9672328D01*
X41768587Y-9738059D01*
X41845303Y-9820376D01*
X41939927Y-9920681D01*
X42053760Y-10040378D01*
X42188104Y-10180867D01*
X42344260Y-10343551D01*
X42419795Y-10422089D01*
X42487242Y-10492204D01*
X42550783Y-10558291D01*
X42604644Y-10614344D01*
X42643052Y-10654357D01*
X42652628Y-10664350D01*
X42682139Y-10695945D01*
X42700903Y-10720484D01*
X42705981Y-10738861D01*
X42694432Y-10751965D01*
X42663314Y-10760689D01*
X42609689Y-10765923D01*
X42530614Y-10768558D01*
X42423151Y-10769487D01*
X42305375Y-10769600D01*
X41904884Y-10769600D01*
X41800415Y-10663766D01*
X41758958Y-10620825D01*
X41699428Y-10557871D01*
X41626533Y-10479949D01*
X41544980Y-10392105D01*
X41459479Y-10299383D01*
X41409301Y-10244666D01*
X41306126Y-10132224D01*
X41223225Y-10042688D01*
X41158296Y-9973723D01*
X41109036Y-9922992D01*
X41073143Y-9888159D01*
X41048314Y-9866887D01*
X41032246Y-9856839D01*
X41025510Y-9855221D01*
X41022061Y-9871418D01*
X41018644Y-9917098D01*
X41015425Y-9987879D01*
X41012567Y-10079377D01*
X41010233Y-10187211D01*
X41008588Y-10306995D01*
X41008576Y-10308166D01*
X41004067Y-10761133D01*
X40672803Y-10765714D01*
X40570125Y-10766557D01*
X40479199Y-10766207D01*
X40405390Y-10764774D01*
X40354066Y-10762369D01*
X40330592Y-10759101D01*
X40329903Y-10758658D01*
X40328208Y-10740397D01*
X40326587Y-10690659D01*
X40325059Y-10611834D01*
X40323640Y-10506311D01*
X40322348Y-10376479D01*
X40321202Y-10224729D01*
X40320218Y-10053451D01*
X40319415Y-9865032D01*
X40318811Y-9661865D01*
X40318423Y-9446337D01*
X40318268Y-9220838D01*
X40318267Y-9192300D01*
X40318267Y-7637578D01*
X40356367Y-7628204D01*
X40385182Y-7625430D01*
X40441588Y-7623529D01*
X40519314Y-7622582D01*
X40612092Y-7622673D01*
G36*
X43594508Y-7859691D02*
X43671012Y-7860705D01*
X43725529Y-7862633D01*
X43751119Y-7865180D01*
X43764463Y-7869523D01*
X43774306Y-7878172D01*
X43781274Y-7895843D01*
X43785997Y-7927254D01*
X43789101Y-7977121D01*
X43791216Y-8050163D01*
X43792967Y-8151096D01*
X43793452Y-8183260D01*
X43798067Y-8492066D01*
X44509267Y-8509000D01*
X44509267Y-9017000D01*
X44153667Y-9025466D01*
X43798067Y-9033933D01*
X43798067Y-9569038D01*
X43798241Y-9726269D01*
X43799069Y-9853246D01*
X43801011Y-9953583D01*
X43804525Y-10030891D01*
X43810069Y-10088783D01*
X43818103Y-10130873D01*
X43829085Y-10160771D01*
X43843474Y-10182092D01*
X43861729Y-10198447D01*
X43879523Y-10210446D01*
X43912912Y-10221721D01*
X43975128Y-10230946D01*
X44067896Y-10238312D01*
X44179067Y-10243513D01*
X44441533Y-10253133D01*
X44441533Y-10761133D01*
X44111333Y-10763630D01*
X43997036Y-10763358D01*
X43883314Y-10761063D01*
X43778752Y-10757064D01*
X43691936Y-10751679D01*
X43637200Y-10746069D01*
X43494941Y-10717335D01*
X43379748Y-10673321D01*
X43287351Y-10611586D01*
X43213476Y-10529689D01*
X43186989Y-10488770D01*
X43162889Y-10446659D01*
X43143101Y-10407348D01*
X43127136Y-10366969D01*
X43114502Y-10321655D01*
X43104709Y-10267537D01*
X43097267Y-10200748D01*
X43091685Y-10117419D01*
X43087471Y-10013684D01*
X43084136Y-9885674D01*
X43081189Y-9729522D01*
X43079770Y-9643533D01*
X43069933Y-9033933D01*
X42918415Y-9028992D01*
X42848154Y-9024824D01*
X42789698Y-9017904D01*
X42752167Y-9009454D01*
X42744848Y-9005752D01*
X42734968Y-8986488D01*
X42728233Y-8945383D01*
X42724301Y-8878663D01*
X42722830Y-8782554D01*
X42722800Y-8763000D01*
X42723887Y-8661514D01*
X42727375Y-8590059D01*
X42733609Y-8544861D01*
X42742930Y-8522147D01*
X42744848Y-8520248D01*
X42770902Y-8511520D01*
X42821701Y-8503810D01*
X42888127Y-8498341D01*
X42918415Y-8497008D01*
X43069933Y-8492066D01*
X43078400Y-8178800D01*
X43086867Y-7865533D01*
X43400133Y-7860720D01*
X43502166Y-7859670D01*
X43594508Y-7859691D01*
X43594508Y-7859691D01*
G37*
X43594508Y-7859691D02*
X43671012Y-7860705D01*
X43725529Y-7862633D01*
X43751119Y-7865180D01*
X43764463Y-7869523D01*
X43774306Y-7878172D01*
X43781274Y-7895843D01*
X43785997Y-7927254D01*
X43789101Y-7977121D01*
X43791216Y-8050163D01*
X43792967Y-8151096D01*
X43793452Y-8183260D01*
X43798067Y-8492066D01*
X44509267Y-8509000D01*
X44509267Y-9017000D01*
X44153667Y-9025466D01*
X43798067Y-9033933D01*
X43798067Y-9569038D01*
X43798241Y-9726269D01*
X43799069Y-9853246D01*
X43801011Y-9953583D01*
X43804525Y-10030891D01*
X43810069Y-10088783D01*
X43818103Y-10130873D01*
X43829085Y-10160771D01*
X43843474Y-10182092D01*
X43861729Y-10198447D01*
X43879523Y-10210446D01*
X43912912Y-10221721D01*
X43975128Y-10230946D01*
X44067896Y-10238312D01*
X44179067Y-10243513D01*
X44441533Y-10253133D01*
X44441533Y-10761133D01*
X44111333Y-10763630D01*
X43997036Y-10763358D01*
X43883314Y-10761063D01*
X43778752Y-10757064D01*
X43691936Y-10751679D01*
X43637200Y-10746069D01*
X43494941Y-10717335D01*
X43379748Y-10673321D01*
X43287351Y-10611586D01*
X43213476Y-10529689D01*
X43186989Y-10488770D01*
X43162889Y-10446659D01*
X43143101Y-10407348D01*
X43127136Y-10366969D01*
X43114502Y-10321655D01*
X43104709Y-10267537D01*
X43097267Y-10200748D01*
X43091685Y-10117419D01*
X43087471Y-10013684D01*
X43084136Y-9885674D01*
X43081189Y-9729522D01*
X43079770Y-9643533D01*
X43069933Y-9033933D01*
X42918415Y-9028992D01*
X42848154Y-9024824D01*
X42789698Y-9017904D01*
X42752167Y-9009454D01*
X42744848Y-9005752D01*
X42734968Y-8986488D01*
X42728233Y-8945383D01*
X42724301Y-8878663D01*
X42722830Y-8782554D01*
X42722800Y-8763000D01*
X42723887Y-8661514D01*
X42727375Y-8590059D01*
X42733609Y-8544861D01*
X42742930Y-8522147D01*
X42744848Y-8520248D01*
X42770902Y-8511520D01*
X42821701Y-8503810D01*
X42888127Y-8498341D01*
X42918415Y-8497008D01*
X43069933Y-8492066D01*
X43078400Y-8178800D01*
X43086867Y-7865533D01*
X43400133Y-7860720D01*
X43502166Y-7859670D01*
X43594508Y-7859691D01*
G36*
X53028802Y-9976462D02*
X53119917Y-9977586D01*
X53450067Y-9982200D01*
X53450067Y-10761133D01*
X53116419Y-10765722D01*
X53002001Y-10767123D01*
X52916807Y-10767486D01*
X52856201Y-10766433D01*
X52815545Y-10763588D01*
X52790205Y-10758574D01*
X52775542Y-10751016D01*
X52766922Y-10740537D01*
X52765052Y-10737202D01*
X52758185Y-10707346D01*
X52752934Y-10650792D01*
X52749270Y-10573972D01*
X52747161Y-10483318D01*
X52746577Y-10385264D01*
X52747487Y-10286244D01*
X52749860Y-10192689D01*
X52753667Y-10111034D01*
X52758876Y-10047711D01*
X52765457Y-10009154D01*
X52768551Y-10001989D01*
X52778914Y-9991959D01*
X52796275Y-9984670D01*
X52825290Y-9979799D01*
X52870613Y-9977023D01*
X52936899Y-9976018D01*
X53028802Y-9976462D01*
X53028802Y-9976462D01*
G37*
X53028802Y-9976462D02*
X53119917Y-9977586D01*
X53450067Y-9982200D01*
X53450067Y-10761133D01*
X53116419Y-10765722D01*
X53002001Y-10767123D01*
X52916807Y-10767486D01*
X52856201Y-10766433D01*
X52815545Y-10763588D01*
X52790205Y-10758574D01*
X52775542Y-10751016D01*
X52766922Y-10740537D01*
X52765052Y-10737202D01*
X52758185Y-10707346D01*
X52752934Y-10650792D01*
X52749270Y-10573972D01*
X52747161Y-10483318D01*
X52746577Y-10385264D01*
X52747487Y-10286244D01*
X52749860Y-10192689D01*
X52753667Y-10111034D01*
X52758876Y-10047711D01*
X52765457Y-10009154D01*
X52768551Y-10001989D01*
X52778914Y-9991959D01*
X52796275Y-9984670D01*
X52825290Y-9979799D01*
X52870613Y-9977023D01*
X52936899Y-9976018D01*
X53028802Y-9976462D01*
G36*
X58576443Y-8450903D02*
X58611921Y-8458343D01*
X58635235Y-8476193D01*
X58648899Y-8508778D01*
X58655431Y-8560421D01*
X58657348Y-8635444D01*
X58657164Y-8738171D01*
X58657067Y-8790375D01*
X58656773Y-8890238D01*
X58655957Y-8977358D01*
X58654713Y-9046519D01*
X58653136Y-9092502D01*
X58651322Y-9110093D01*
X58651228Y-9110133D01*
X58633396Y-9105187D01*
X58592769Y-9092303D01*
X58545395Y-9076683D01*
X58457508Y-9054879D01*
X58353495Y-9044329D01*
X58287718Y-9042816D01*
X58205920Y-9044038D01*
X58146371Y-9049541D01*
X58097527Y-9061312D01*
X58047849Y-9081339D01*
X58038400Y-9085751D01*
X57951227Y-9141169D01*
X57871553Y-9217331D01*
X57811058Y-9302607D01*
X57801313Y-9321800D01*
X57781857Y-9366464D01*
X57766008Y-9411663D01*
X57753406Y-9461354D01*
X57743690Y-9519499D01*
X57736501Y-9590054D01*
X57731476Y-9676980D01*
X57728256Y-9784235D01*
X57726480Y-9915779D01*
X57725788Y-10075570D01*
X57725733Y-10151704D01*
X57725387Y-10320021D01*
X57724296Y-10456816D01*
X57722381Y-10564424D01*
X57719562Y-10645184D01*
X57715760Y-10701433D01*
X57710895Y-10735507D01*
X57705413Y-10749280D01*
X57681650Y-10756854D01*
X57631339Y-10762808D01*
X57560783Y-10767149D01*
X57476287Y-10769885D01*
X57384156Y-10771023D01*
X57290694Y-10770572D01*
X57202204Y-10768539D01*
X57124991Y-10764932D01*
X57065359Y-10759760D01*
X57029612Y-10753029D01*
X57022315Y-10748433D01*
X57020989Y-10728257D01*
X57019862Y-10677087D01*
X57018944Y-10597797D01*
X57018243Y-10493260D01*
X57017770Y-10366347D01*
X57017533Y-10219933D01*
X57017543Y-10056889D01*
X57017808Y-9880089D01*
X57018338Y-9692405D01*
X57018613Y-9618133D01*
X57023000Y-8509000D01*
X57717267Y-8509000D01*
X57722135Y-8665633D01*
X57725004Y-8733757D01*
X57728671Y-8786905D01*
X57732549Y-8817626D01*
X57734502Y-8822266D01*
X57748794Y-8811017D01*
X57781460Y-8780640D01*
X57827169Y-8736194D01*
X57865100Y-8698383D01*
X57988914Y-8591278D01*
X58118169Y-8515796D01*
X58258227Y-8469694D01*
X58414453Y-8450727D01*
X58458926Y-8449964D01*
X58526283Y-8449551D01*
X58576443Y-8450903D01*
X58576443Y-8450903D01*
G37*
X58576443Y-8450903D02*
X58611921Y-8458343D01*
X58635235Y-8476193D01*
X58648899Y-8508778D01*
X58655431Y-8560421D01*
X58657348Y-8635444D01*
X58657164Y-8738171D01*
X58657067Y-8790375D01*
X58656773Y-8890238D01*
X58655957Y-8977358D01*
X58654713Y-9046519D01*
X58653136Y-9092502D01*
X58651322Y-9110093D01*
X58651228Y-9110133D01*
X58633396Y-9105187D01*
X58592769Y-9092303D01*
X58545395Y-9076683D01*
X58457508Y-9054879D01*
X58353495Y-9044329D01*
X58287718Y-9042816D01*
X58205920Y-9044038D01*
X58146371Y-9049541D01*
X58097527Y-9061312D01*
X58047849Y-9081339D01*
X58038400Y-9085751D01*
X57951227Y-9141169D01*
X57871553Y-9217331D01*
X57811058Y-9302607D01*
X57801313Y-9321800D01*
X57781857Y-9366464D01*
X57766008Y-9411663D01*
X57753406Y-9461354D01*
X57743690Y-9519499D01*
X57736501Y-9590054D01*
X57731476Y-9676980D01*
X57728256Y-9784235D01*
X57726480Y-9915779D01*
X57725788Y-10075570D01*
X57725733Y-10151704D01*
X57725387Y-10320021D01*
X57724296Y-10456816D01*
X57722381Y-10564424D01*
X57719562Y-10645184D01*
X57715760Y-10701433D01*
X57710895Y-10735507D01*
X57705413Y-10749280D01*
X57681650Y-10756854D01*
X57631339Y-10762808D01*
X57560783Y-10767149D01*
X57476287Y-10769885D01*
X57384156Y-10771023D01*
X57290694Y-10770572D01*
X57202204Y-10768539D01*
X57124991Y-10764932D01*
X57065359Y-10759760D01*
X57029612Y-10753029D01*
X57022315Y-10748433D01*
X57020989Y-10728257D01*
X57019862Y-10677087D01*
X57018944Y-10597797D01*
X57018243Y-10493260D01*
X57017770Y-10366347D01*
X57017533Y-10219933D01*
X57017543Y-10056889D01*
X57017808Y-9880089D01*
X57018338Y-9692405D01*
X57018613Y-9618133D01*
X57023000Y-8509000D01*
X57717267Y-8509000D01*
X57722135Y-8665633D01*
X57725004Y-8733757D01*
X57728671Y-8786905D01*
X57732549Y-8817626D01*
X57734502Y-8822266D01*
X57748794Y-8811017D01*
X57781460Y-8780640D01*
X57827169Y-8736194D01*
X57865100Y-8698383D01*
X57988914Y-8591278D01*
X58118169Y-8515796D01*
X58258227Y-8469694D01*
X58414453Y-8450727D01*
X58458926Y-8449964D01*
X58526283Y-8449551D01*
X58576443Y-8450903D01*
G36*
X64933586Y-8450096D02*
X64981687Y-8454134D01*
X65015444Y-8466274D01*
X65037393Y-8490940D01*
X65050073Y-8532556D01*
X65056022Y-8595550D01*
X65057777Y-8684345D01*
X65057867Y-8779758D01*
X65057303Y-8874632D01*
X65055747Y-8958637D01*
X65053396Y-9025473D01*
X65050451Y-9068841D01*
X65048310Y-9081466D01*
X65038862Y-9093799D01*
X65018601Y-9096088D01*
X64979854Y-9087868D01*
X64934010Y-9074514D01*
X64834381Y-9053064D01*
X64722266Y-9043083D01*
X64609913Y-9044645D01*
X64509569Y-9057821D01*
X64459234Y-9071684D01*
X64369503Y-9119293D01*
X64285701Y-9191873D01*
X64216460Y-9280635D01*
X64176542Y-9359488D01*
X64159858Y-9408713D01*
X64146163Y-9463331D01*
X64135176Y-9527058D01*
X64126621Y-9603608D01*
X64120219Y-9696695D01*
X64115691Y-9810035D01*
X64112759Y-9947342D01*
X64111145Y-10112331D01*
X64110665Y-10238621D01*
X64110189Y-10385077D01*
X64109313Y-10501194D01*
X64107850Y-10590496D01*
X64105610Y-10656511D01*
X64102406Y-10702765D01*
X64098047Y-10732783D01*
X64092347Y-10750093D01*
X64085116Y-10758220D01*
X64082815Y-10759321D01*
X64057999Y-10762567D01*
X64005147Y-10765391D01*
X63930091Y-10767620D01*
X63838662Y-10769081D01*
X63737657Y-10769600D01*
X63626619Y-10769494D01*
X63544793Y-10768815D01*
X63487522Y-10767024D01*
X63450153Y-10763581D01*
X63428029Y-10757946D01*
X63416494Y-10749580D01*
X63410895Y-10737942D01*
X63409073Y-10731500D01*
X63406811Y-10706411D01*
X63404848Y-10651473D01*
X63403179Y-10570168D01*
X63401798Y-10465975D01*
X63400699Y-10342378D01*
X63399877Y-10202857D01*
X63399326Y-10050894D01*
X63399041Y-9889969D01*
X63399016Y-9723564D01*
X63399245Y-9555161D01*
X63399724Y-9388241D01*
X63400447Y-9226285D01*
X63401407Y-9072774D01*
X63402600Y-8931190D01*
X63404020Y-8805014D01*
X63405662Y-8697728D01*
X63407519Y-8612812D01*
X63409587Y-8553749D01*
X63411860Y-8524018D01*
X63412586Y-8521332D01*
X63425650Y-8513658D01*
X63456010Y-8508214D01*
X63507265Y-8504827D01*
X63583012Y-8503324D01*
X63686850Y-8503532D01*
X63763693Y-8504398D01*
X64101133Y-8509000D01*
X64109600Y-8655832D01*
X64114846Y-8723580D01*
X64121564Y-8778091D01*
X64128591Y-8810740D01*
X64131156Y-8815677D01*
X64148405Y-8812801D01*
X64171630Y-8787684D01*
X64171834Y-8787378D01*
X64215676Y-8733046D01*
X64276613Y-8671682D01*
X64344655Y-8612145D01*
X64409813Y-8563295D01*
X64453267Y-8537807D01*
X64602025Y-8484343D01*
X64765629Y-8454891D01*
X64868601Y-8449733D01*
X64933586Y-8450096D01*
X64933586Y-8450096D01*
G37*
X64933586Y-8450096D02*
X64981687Y-8454134D01*
X65015444Y-8466274D01*
X65037393Y-8490940D01*
X65050073Y-8532556D01*
X65056022Y-8595550D01*
X65057777Y-8684345D01*
X65057867Y-8779758D01*
X65057303Y-8874632D01*
X65055747Y-8958637D01*
X65053396Y-9025473D01*
X65050451Y-9068841D01*
X65048310Y-9081466D01*
X65038862Y-9093799D01*
X65018601Y-9096088D01*
X64979854Y-9087868D01*
X64934010Y-9074514D01*
X64834381Y-9053064D01*
X64722266Y-9043083D01*
X64609913Y-9044645D01*
X64509569Y-9057821D01*
X64459234Y-9071684D01*
X64369503Y-9119293D01*
X64285701Y-9191873D01*
X64216460Y-9280635D01*
X64176542Y-9359488D01*
X64159858Y-9408713D01*
X64146163Y-9463331D01*
X64135176Y-9527058D01*
X64126621Y-9603608D01*
X64120219Y-9696695D01*
X64115691Y-9810035D01*
X64112759Y-9947342D01*
X64111145Y-10112331D01*
X64110665Y-10238621D01*
X64110189Y-10385077D01*
X64109313Y-10501194D01*
X64107850Y-10590496D01*
X64105610Y-10656511D01*
X64102406Y-10702765D01*
X64098047Y-10732783D01*
X64092347Y-10750093D01*
X64085116Y-10758220D01*
X64082815Y-10759321D01*
X64057999Y-10762567D01*
X64005147Y-10765391D01*
X63930091Y-10767620D01*
X63838662Y-10769081D01*
X63737657Y-10769600D01*
X63626619Y-10769494D01*
X63544793Y-10768815D01*
X63487522Y-10767024D01*
X63450153Y-10763581D01*
X63428029Y-10757946D01*
X63416494Y-10749580D01*
X63410895Y-10737942D01*
X63409073Y-10731500D01*
X63406811Y-10706411D01*
X63404848Y-10651473D01*
X63403179Y-10570168D01*
X63401798Y-10465975D01*
X63400699Y-10342378D01*
X63399877Y-10202857D01*
X63399326Y-10050894D01*
X63399041Y-9889969D01*
X63399016Y-9723564D01*
X63399245Y-9555161D01*
X63399724Y-9388241D01*
X63400447Y-9226285D01*
X63401407Y-9072774D01*
X63402600Y-8931190D01*
X63404020Y-8805014D01*
X63405662Y-8697728D01*
X63407519Y-8612812D01*
X63409587Y-8553749D01*
X63411860Y-8524018D01*
X63412586Y-8521332D01*
X63425650Y-8513658D01*
X63456010Y-8508214D01*
X63507265Y-8504827D01*
X63583012Y-8503324D01*
X63686850Y-8503532D01*
X63763693Y-8504398D01*
X64101133Y-8509000D01*
X64109600Y-8655832D01*
X64114846Y-8723580D01*
X64121564Y-8778091D01*
X64128591Y-8810740D01*
X64131156Y-8815677D01*
X64148405Y-8812801D01*
X64171630Y-8787684D01*
X64171834Y-8787378D01*
X64215676Y-8733046D01*
X64276613Y-8671682D01*
X64344655Y-8612145D01*
X64409813Y-8563295D01*
X64453267Y-8537807D01*
X64602025Y-8484343D01*
X64765629Y-8454891D01*
X64868601Y-8449733D01*
X64933586Y-8450096D01*
G36*
X68771256Y-7620827D02*
X68866064Y-7623401D01*
X68931691Y-7627862D01*
X68970459Y-7634349D01*
X68983013Y-7640320D01*
X68986700Y-7651945D01*
X68989955Y-7680062D01*
X68992798Y-7726266D01*
X68995251Y-7792152D01*
X68997334Y-7879313D01*
X68999069Y-7989346D01*
X69000477Y-8123843D01*
X69001577Y-8284400D01*
X69002392Y-8472611D01*
X69002942Y-8690070D01*
X69003249Y-8938372D01*
X69003333Y-9188335D01*
X69003221Y-9413300D01*
X69002897Y-9628863D01*
X69002376Y-9832580D01*
X69001675Y-10022010D01*
X69000810Y-10194709D01*
X68999797Y-10348234D01*
X68998652Y-10480143D01*
X68997392Y-10587992D01*
X68996031Y-10669338D01*
X68994588Y-10721740D01*
X68993077Y-10742753D01*
X68993055Y-10742815D01*
X68985571Y-10752189D01*
X68968398Y-10759129D01*
X68937130Y-10763985D01*
X68887360Y-10767104D01*
X68814680Y-10768837D01*
X68714683Y-10769532D01*
X68654984Y-10769600D01*
X68541537Y-10769401D01*
X68457284Y-10768508D01*
X68397551Y-10766479D01*
X68357665Y-10762870D01*
X68332953Y-10757238D01*
X68318744Y-10749140D01*
X68310364Y-10738132D01*
X68309662Y-10736846D01*
X68306116Y-10713096D01*
X68302971Y-10655821D01*
X68300228Y-10564981D01*
X68297885Y-10440535D01*
X68295941Y-10282442D01*
X68294398Y-10090662D01*
X68293254Y-9865155D01*
X68292508Y-9605880D01*
X68292161Y-9312797D01*
X68292133Y-9194800D01*
X68292332Y-8889094D01*
X68292929Y-8617212D01*
X68293924Y-8379113D01*
X68295319Y-8174756D01*
X68297113Y-8004102D01*
X68299307Y-7867110D01*
X68301901Y-7763738D01*
X68304896Y-7693947D01*
X68308292Y-7657695D01*
X68309662Y-7652753D01*
X68317847Y-7641272D01*
X68331490Y-7632833D01*
X68355342Y-7626970D01*
X68394158Y-7623219D01*
X68452691Y-7621117D01*
X68535693Y-7620199D01*
X68644942Y-7620000D01*
X68771256Y-7620827D01*
X68771256Y-7620827D01*
G37*
X68771256Y-7620827D02*
X68866064Y-7623401D01*
X68931691Y-7627862D01*
X68970459Y-7634349D01*
X68983013Y-7640320D01*
X68986700Y-7651945D01*
X68989955Y-7680062D01*
X68992798Y-7726266D01*
X68995251Y-7792152D01*
X68997334Y-7879313D01*
X68999069Y-7989346D01*
X69000477Y-8123843D01*
X69001577Y-8284400D01*
X69002392Y-8472611D01*
X69002942Y-8690070D01*
X69003249Y-8938372D01*
X69003333Y-9188335D01*
X69003221Y-9413300D01*
X69002897Y-9628863D01*
X69002376Y-9832580D01*
X69001675Y-10022010D01*
X69000810Y-10194709D01*
X68999797Y-10348234D01*
X68998652Y-10480143D01*
X68997392Y-10587992D01*
X68996031Y-10669338D01*
X68994588Y-10721740D01*
X68993077Y-10742753D01*
X68993055Y-10742815D01*
X68985571Y-10752189D01*
X68968398Y-10759129D01*
X68937130Y-10763985D01*
X68887360Y-10767104D01*
X68814680Y-10768837D01*
X68714683Y-10769532D01*
X68654984Y-10769600D01*
X68541537Y-10769401D01*
X68457284Y-10768508D01*
X68397551Y-10766479D01*
X68357665Y-10762870D01*
X68332953Y-10757238D01*
X68318744Y-10749140D01*
X68310364Y-10738132D01*
X68309662Y-10736846D01*
X68306116Y-10713096D01*
X68302971Y-10655821D01*
X68300228Y-10564981D01*
X68297885Y-10440535D01*
X68295941Y-10282442D01*
X68294398Y-10090662D01*
X68293254Y-9865155D01*
X68292508Y-9605880D01*
X68292161Y-9312797D01*
X68292133Y-9194800D01*
X68292332Y-8889094D01*
X68292929Y-8617212D01*
X68293924Y-8379113D01*
X68295319Y-8174756D01*
X68297113Y-8004102D01*
X68299307Y-7867110D01*
X68301901Y-7763738D01*
X68304896Y-7693947D01*
X68308292Y-7657695D01*
X68309662Y-7652753D01*
X68317847Y-7641272D01*
X68331490Y-7632833D01*
X68355342Y-7626970D01*
X68394158Y-7623219D01*
X68452691Y-7621117D01*
X68535693Y-7620199D01*
X68644942Y-7620000D01*
X68771256Y-7620827D01*
G36*
X73954775Y-8450722D02*
X74016071Y-8455591D01*
X74055586Y-8465221D01*
X74063013Y-8470053D01*
X74069467Y-8492805D01*
X74074832Y-8542544D01*
X74079026Y-8612405D01*
X74081968Y-8695521D01*
X74083575Y-8785029D01*
X74083766Y-8874063D01*
X74082458Y-8955758D01*
X74079570Y-9023248D01*
X74075019Y-9069669D01*
X74070374Y-9086672D01*
X74050791Y-9094564D01*
X74008823Y-9087805D01*
X73964800Y-9074449D01*
X73867634Y-9052470D01*
X73744172Y-9043246D01*
X73713985Y-9042877D01*
X73632055Y-9044080D01*
X73572423Y-9049584D01*
X73523601Y-9061349D01*
X73474100Y-9081336D01*
X73465719Y-9085253D01*
X73376045Y-9141427D01*
X73296508Y-9216720D01*
X73237222Y-9300967D01*
X73224287Y-9327903D01*
X73205630Y-9375073D01*
X73190503Y-9422030D01*
X73178537Y-9472914D01*
X73169363Y-9531862D01*
X73162611Y-9603015D01*
X73157913Y-9690511D01*
X73154899Y-9798489D01*
X73153201Y-9931088D01*
X73152450Y-10092447D01*
X73152372Y-10134600D01*
X73151869Y-10270430D01*
X73150829Y-10396650D01*
X73149331Y-10508946D01*
X73147456Y-10603006D01*
X73145284Y-10674516D01*
X73142893Y-10719164D01*
X73141327Y-10731500D01*
X73136933Y-10744670D01*
X73128756Y-10754390D01*
X73112191Y-10761185D01*
X73082632Y-10765578D01*
X73035472Y-10768092D01*
X72966108Y-10769253D01*
X72869932Y-10769583D01*
X72806278Y-10769600D01*
X72678712Y-10768802D01*
X72582624Y-10766315D01*
X72515665Y-10762002D01*
X72475481Y-10755723D01*
X72461120Y-10749280D01*
X72456807Y-10736612D01*
X72453090Y-10706623D01*
X72449935Y-10657474D01*
X72447309Y-10587324D01*
X72445179Y-10494332D01*
X72443511Y-10376658D01*
X72442273Y-10232460D01*
X72441430Y-10059899D01*
X72440950Y-9857134D01*
X72440800Y-9625025D01*
X72440862Y-9403053D01*
X72441088Y-9212555D01*
X72441535Y-9051139D01*
X72442260Y-8916412D01*
X72443320Y-8805983D01*
X72444774Y-8717457D01*
X72446679Y-8648444D01*
X72449093Y-8596550D01*
X72452072Y-8559383D01*
X72455674Y-8534552D01*
X72459958Y-8519662D01*
X72464980Y-8512323D01*
X72467585Y-8510812D01*
X72492401Y-8507566D01*
X72545253Y-8504742D01*
X72620308Y-8502513D01*
X72711738Y-8501052D01*
X72812743Y-8500533D01*
X72928090Y-8500179D01*
X73013936Y-8500888D01*
X73074610Y-8505320D01*
X73114440Y-8516133D01*
X73137755Y-8535986D01*
X73148882Y-8567537D01*
X73152151Y-8613445D01*
X73151890Y-8676368D01*
X73151769Y-8708771D01*
X73152000Y-8840809D01*
X73283233Y-8708091D01*
X73370848Y-8625396D01*
X73450821Y-8565019D01*
X73533541Y-8520611D01*
X73629398Y-8485822D01*
X73662606Y-8476219D01*
X73725614Y-8463362D01*
X73801006Y-8454739D01*
X73880240Y-8450482D01*
X73954775Y-8450722D01*
X73954775Y-8450722D01*
G37*
X73954775Y-8450722D02*
X74016071Y-8455591D01*
X74055586Y-8465221D01*
X74063013Y-8470053D01*
X74069467Y-8492805D01*
X74074832Y-8542544D01*
X74079026Y-8612405D01*
X74081968Y-8695521D01*
X74083575Y-8785029D01*
X74083766Y-8874063D01*
X74082458Y-8955758D01*
X74079570Y-9023248D01*
X74075019Y-9069669D01*
X74070374Y-9086672D01*
X74050791Y-9094564D01*
X74008823Y-9087805D01*
X73964800Y-9074449D01*
X73867634Y-9052470D01*
X73744172Y-9043246D01*
X73713985Y-9042877D01*
X73632055Y-9044080D01*
X73572423Y-9049584D01*
X73523601Y-9061349D01*
X73474100Y-9081336D01*
X73465719Y-9085253D01*
X73376045Y-9141427D01*
X73296508Y-9216720D01*
X73237222Y-9300967D01*
X73224287Y-9327903D01*
X73205630Y-9375073D01*
X73190503Y-9422030D01*
X73178537Y-9472914D01*
X73169363Y-9531862D01*
X73162611Y-9603015D01*
X73157913Y-9690511D01*
X73154899Y-9798489D01*
X73153201Y-9931088D01*
X73152450Y-10092447D01*
X73152372Y-10134600D01*
X73151869Y-10270430D01*
X73150829Y-10396650D01*
X73149331Y-10508946D01*
X73147456Y-10603006D01*
X73145284Y-10674516D01*
X73142893Y-10719164D01*
X73141327Y-10731500D01*
X73136933Y-10744670D01*
X73128756Y-10754390D01*
X73112191Y-10761185D01*
X73082632Y-10765578D01*
X73035472Y-10768092D01*
X72966108Y-10769253D01*
X72869932Y-10769583D01*
X72806278Y-10769600D01*
X72678712Y-10768802D01*
X72582624Y-10766315D01*
X72515665Y-10762002D01*
X72475481Y-10755723D01*
X72461120Y-10749280D01*
X72456807Y-10736612D01*
X72453090Y-10706623D01*
X72449935Y-10657474D01*
X72447309Y-10587324D01*
X72445179Y-10494332D01*
X72443511Y-10376658D01*
X72442273Y-10232460D01*
X72441430Y-10059899D01*
X72440950Y-9857134D01*
X72440800Y-9625025D01*
X72440862Y-9403053D01*
X72441088Y-9212555D01*
X72441535Y-9051139D01*
X72442260Y-8916412D01*
X72443320Y-8805983D01*
X72444774Y-8717457D01*
X72446679Y-8648444D01*
X72449093Y-8596550D01*
X72452072Y-8559383D01*
X72455674Y-8534552D01*
X72459958Y-8519662D01*
X72464980Y-8512323D01*
X72467585Y-8510812D01*
X72492401Y-8507566D01*
X72545253Y-8504742D01*
X72620308Y-8502513D01*
X72711738Y-8501052D01*
X72812743Y-8500533D01*
X72928090Y-8500179D01*
X73013936Y-8500888D01*
X73074610Y-8505320D01*
X73114440Y-8516133D01*
X73137755Y-8535986D01*
X73148882Y-8567537D01*
X73152151Y-8613445D01*
X73151890Y-8676368D01*
X73151769Y-8708771D01*
X73152000Y-8840809D01*
X73283233Y-8708091D01*
X73370848Y-8625396D01*
X73450821Y-8565019D01*
X73533541Y-8520611D01*
X73629398Y-8485822D01*
X73662606Y-8476219D01*
X73725614Y-8463362D01*
X73801006Y-8454739D01*
X73880240Y-8450482D01*
X73954775Y-8450722D01*
G36*
X33773533Y-10011116D02*
X33942866Y-10016066D01*
X33947606Y-10231966D01*
X33952345Y-10447866D01*
X33527502Y-10447866D01*
X33493948Y-10392833D01*
X33472258Y-10355263D01*
X33460849Y-10331609D01*
X33460340Y-10329333D01*
X33445114Y-10325587D01*
X33406185Y-10325214D01*
X33374592Y-10326803D01*
X33300762Y-10321776D01*
X33249794Y-10297514D01*
X33224517Y-10257772D01*
X33227762Y-10206302D01*
X33250577Y-10162315D01*
X33271590Y-10139206D01*
X33299457Y-10128768D01*
X33345588Y-10127729D01*
X33367101Y-10128914D01*
X33420339Y-10130722D01*
X33452116Y-10124270D01*
X33474658Y-10104762D01*
X33492056Y-10079906D01*
X33515050Y-10049369D01*
X33541259Y-10028653D01*
X33577189Y-10016166D01*
X33629345Y-10010320D01*
X33704235Y-10009524D01*
X33773533Y-10011116D01*
X33773533Y-10011116D01*
G37*
X33773533Y-10011116D02*
X33942866Y-10016066D01*
X33947606Y-10231966D01*
X33952345Y-10447866D01*
X33527502Y-10447866D01*
X33493948Y-10392833D01*
X33472258Y-10355263D01*
X33460849Y-10331609D01*
X33460340Y-10329333D01*
X33445114Y-10325587D01*
X33406185Y-10325214D01*
X33374592Y-10326803D01*
X33300762Y-10321776D01*
X33249794Y-10297514D01*
X33224517Y-10257772D01*
X33227762Y-10206302D01*
X33250577Y-10162315D01*
X33271590Y-10139206D01*
X33299457Y-10128768D01*
X33345588Y-10127729D01*
X33367101Y-10128914D01*
X33420339Y-10130722D01*
X33452116Y-10124270D01*
X33474658Y-10104762D01*
X33492056Y-10079906D01*
X33515050Y-10049369D01*
X33541259Y-10028653D01*
X33577189Y-10016166D01*
X33629345Y-10010320D01*
X33704235Y-10009524D01*
X33773533Y-10011116D01*
G36*
X33951333Y-9855200D02*
X33740896Y-9855200D01*
X33653202Y-9854945D01*
X33592879Y-9853395D01*
X33553433Y-9849370D01*
X33528368Y-9841688D01*
X33511190Y-9829169D01*
X33495403Y-9810634D01*
X33495362Y-9810583D01*
X33471444Y-9777361D01*
X33460369Y-9756428D01*
X33460277Y-9755550D01*
X33445123Y-9750622D01*
X33406418Y-9749538D01*
X33377141Y-9750898D01*
X33320135Y-9751296D01*
X33282979Y-9740432D01*
X33258598Y-9721264D01*
X33228264Y-9670112D01*
X33229881Y-9613831D01*
X33249862Y-9575800D01*
X33275377Y-9554201D01*
X33316273Y-9543442D01*
X33366506Y-9540604D01*
X33423023Y-9537332D01*
X33459429Y-9525914D01*
X33489379Y-9500835D01*
X33502754Y-9485571D01*
X33547944Y-9431866D01*
X33951333Y-9431866D01*
X33951333Y-9855200D01*
X33951333Y-9855200D01*
G37*
X33951333Y-9855200D02*
X33740896Y-9855200D01*
X33653202Y-9854945D01*
X33592879Y-9853395D01*
X33553433Y-9849370D01*
X33528368Y-9841688D01*
X33511190Y-9829169D01*
X33495403Y-9810634D01*
X33495362Y-9810583D01*
X33471444Y-9777361D01*
X33460369Y-9756428D01*
X33460277Y-9755550D01*
X33445123Y-9750622D01*
X33406418Y-9749538D01*
X33377141Y-9750898D01*
X33320135Y-9751296D01*
X33282979Y-9740432D01*
X33258598Y-9721264D01*
X33228264Y-9670112D01*
X33229881Y-9613831D01*
X33249862Y-9575800D01*
X33275377Y-9554201D01*
X33316273Y-9543442D01*
X33366506Y-9540604D01*
X33423023Y-9537332D01*
X33459429Y-9525914D01*
X33489379Y-9500835D01*
X33502754Y-9485571D01*
X33547944Y-9431866D01*
X33951333Y-9431866D01*
X33951333Y-9855200D01*
G36*
X39150731Y-8908032D02*
X39219186Y-8912486D01*
X39265134Y-8922026D01*
X39294236Y-8938386D01*
X39312152Y-8963299D01*
X39321723Y-8988866D01*
X39344132Y-9004521D01*
X39399455Y-9013029D01*
X39426937Y-9014320D01*
X39489644Y-9019134D01*
X39527924Y-9030934D01*
X39549204Y-9049923D01*
X39572838Y-9103534D01*
X39566008Y-9151947D01*
X39532109Y-9190639D01*
X39474538Y-9215087D01*
X39420551Y-9221325D01*
X39366007Y-9225600D01*
X39329590Y-9240910D01*
X39295835Y-9273972D01*
X39293793Y-9276386D01*
X39248456Y-9330266D01*
X38845067Y-9330266D01*
X38845067Y-8906933D01*
X39054109Y-8906933D01*
X39150731Y-8908032D01*
X39150731Y-8908032D01*
G37*
X39150731Y-8908032D02*
X39219186Y-8912486D01*
X39265134Y-8922026D01*
X39294236Y-8938386D01*
X39312152Y-8963299D01*
X39321723Y-8988866D01*
X39344132Y-9004521D01*
X39399455Y-9013029D01*
X39426937Y-9014320D01*
X39489644Y-9019134D01*
X39527924Y-9030934D01*
X39549204Y-9049923D01*
X39572838Y-9103534D01*
X39566008Y-9151947D01*
X39532109Y-9190639D01*
X39474538Y-9215087D01*
X39420551Y-9221325D01*
X39366007Y-9225600D01*
X39329590Y-9240910D01*
X39295835Y-9273972D01*
X39293793Y-9276386D01*
X39248456Y-9330266D01*
X38845067Y-9330266D01*
X38845067Y-8906933D01*
X39054109Y-8906933D01*
X39150731Y-8908032D01*
G36*
X33951333Y-9057521D02*
X33950650Y-9145360D01*
X33948131Y-9204933D01*
X33943069Y-9241824D01*
X33934758Y-9261616D01*
X33924548Y-9269188D01*
X33891160Y-9274797D01*
X33834088Y-9277787D01*
X33763401Y-9278339D01*
X33689166Y-9276637D01*
X33621450Y-9272865D01*
X33570320Y-9267207D01*
X33550154Y-9262371D01*
X33513507Y-9237205D01*
X33484706Y-9204177D01*
X33462664Y-9178052D01*
X33433506Y-9165127D01*
X33385524Y-9161070D01*
X33367810Y-9160933D01*
X33293058Y-9152087D01*
X33245875Y-9124811D01*
X33224732Y-9077998D01*
X33223200Y-9056391D01*
X33237352Y-9004945D01*
X33279582Y-8972152D01*
X33349552Y-8958239D01*
X33369515Y-8957733D01*
X33423352Y-8955039D01*
X33457044Y-8943195D01*
X33484130Y-8916562D01*
X33491456Y-8906933D01*
X33529014Y-8856133D01*
X33951333Y-8856133D01*
X33951333Y-9057521D01*
X33951333Y-9057521D01*
G37*
X33951333Y-9057521D02*
X33950650Y-9145360D01*
X33948131Y-9204933D01*
X33943069Y-9241824D01*
X33934758Y-9261616D01*
X33924548Y-9269188D01*
X33891160Y-9274797D01*
X33834088Y-9277787D01*
X33763401Y-9278339D01*
X33689166Y-9276637D01*
X33621450Y-9272865D01*
X33570320Y-9267207D01*
X33550154Y-9262371D01*
X33513507Y-9237205D01*
X33484706Y-9204177D01*
X33462664Y-9178052D01*
X33433506Y-9165127D01*
X33385524Y-9161070D01*
X33367810Y-9160933D01*
X33293058Y-9152087D01*
X33245875Y-9124811D01*
X33224732Y-9077998D01*
X33223200Y-9056391D01*
X33237352Y-9004945D01*
X33279582Y-8972152D01*
X33349552Y-8958239D01*
X33369515Y-8957733D01*
X33423352Y-8955039D01*
X33457044Y-8943195D01*
X33484130Y-8916562D01*
X33491456Y-8906933D01*
X33529014Y-8856133D01*
X33951333Y-8856133D01*
X33951333Y-9057521D01*
G36*
X39302267Y-8373533D02*
X39326529Y-8408411D01*
X39351399Y-8425991D01*
X39389337Y-8432146D01*
X39428023Y-8432800D01*
X39500941Y-8442537D01*
X39550205Y-8469031D01*
X39573172Y-8508204D01*
X39567201Y-8555979D01*
X39536885Y-8600859D01*
X39508872Y-8624635D01*
X39475794Y-8634023D01*
X39424302Y-8632489D01*
X39417542Y-8631860D01*
X39366844Y-8628681D01*
X39338081Y-8634599D01*
X39319662Y-8653904D01*
X39309748Y-8671772D01*
X39281779Y-8711744D01*
X39252404Y-8737098D01*
X39223774Y-8743901D01*
X39171846Y-8749134D01*
X39105288Y-8752663D01*
X39032767Y-8754354D01*
X38962947Y-8754072D01*
X38904497Y-8751683D01*
X38866082Y-8747052D01*
X38856355Y-8743244D01*
X38852028Y-8722875D01*
X38848468Y-8675569D01*
X38846030Y-8608254D01*
X38845069Y-8527860D01*
X38845067Y-8523111D01*
X38845067Y-8314266D01*
X39265638Y-8314266D01*
X39302267Y-8373533D01*
X39302267Y-8373533D01*
G37*
X39302267Y-8373533D02*
X39326529Y-8408411D01*
X39351399Y-8425991D01*
X39389337Y-8432146D01*
X39428023Y-8432800D01*
X39500941Y-8442537D01*
X39550205Y-8469031D01*
X39573172Y-8508204D01*
X39567201Y-8555979D01*
X39536885Y-8600859D01*
X39508872Y-8624635D01*
X39475794Y-8634023D01*
X39424302Y-8632489D01*
X39417542Y-8631860D01*
X39366844Y-8628681D01*
X39338081Y-8634599D01*
X39319662Y-8653904D01*
X39309748Y-8671772D01*
X39281779Y-8711744D01*
X39252404Y-8737098D01*
X39223774Y-8743901D01*
X39171846Y-8749134D01*
X39105288Y-8752663D01*
X39032767Y-8754354D01*
X38962947Y-8754072D01*
X38904497Y-8751683D01*
X38866082Y-8747052D01*
X38856355Y-8743244D01*
X38852028Y-8722875D01*
X38848468Y-8675569D01*
X38846030Y-8608254D01*
X38845069Y-8527860D01*
X38845067Y-8523111D01*
X38845067Y-8314266D01*
X39265638Y-8314266D01*
X39302267Y-8373533D01*
G36*
X33735501Y-8267179D02*
X33942866Y-8271933D01*
X33947621Y-8479366D01*
X33952376Y-8686800D01*
X33747846Y-8686800D01*
X33661405Y-8686495D01*
X33602015Y-8684753D01*
X33562860Y-8680333D01*
X33537124Y-8671993D01*
X33517990Y-8658493D01*
X33501791Y-8641994D01*
X33474358Y-8609824D01*
X33460638Y-8588701D01*
X33460277Y-8586961D01*
X33445122Y-8582142D01*
X33406415Y-8581126D01*
X33377141Y-8582498D01*
X33320135Y-8582896D01*
X33282979Y-8572032D01*
X33258598Y-8552864D01*
X33228181Y-8504510D01*
X33227184Y-8456120D01*
X33251643Y-8413359D01*
X33297595Y-8381892D01*
X33361075Y-8367385D01*
X33388322Y-8367456D01*
X33436538Y-8367603D01*
X33465575Y-8355850D01*
X33489724Y-8325452D01*
X33494830Y-8317192D01*
X33528135Y-8262425D01*
X33735501Y-8267179D01*
X33735501Y-8267179D01*
G37*
X33735501Y-8267179D02*
X33942866Y-8271933D01*
X33947621Y-8479366D01*
X33952376Y-8686800D01*
X33747846Y-8686800D01*
X33661405Y-8686495D01*
X33602015Y-8684753D01*
X33562860Y-8680333D01*
X33537124Y-8671993D01*
X33517990Y-8658493D01*
X33501791Y-8641994D01*
X33474358Y-8609824D01*
X33460638Y-8588701D01*
X33460277Y-8586961D01*
X33445122Y-8582142D01*
X33406415Y-8581126D01*
X33377141Y-8582498D01*
X33320135Y-8582896D01*
X33282979Y-8572032D01*
X33258598Y-8552864D01*
X33228181Y-8504510D01*
X33227184Y-8456120D01*
X33251643Y-8413359D01*
X33297595Y-8381892D01*
X33361075Y-8367385D01*
X33388322Y-8367456D01*
X33436538Y-8367603D01*
X33465575Y-8355850D01*
X33489724Y-8325452D01*
X33494830Y-8317192D01*
X33528135Y-8262425D01*
X33735501Y-8267179D01*
G36*
X39292295Y-7773699D02*
X39320020Y-7809246D01*
X39335153Y-7833697D01*
X39336102Y-7837199D01*
X39351431Y-7843345D01*
X39391134Y-7847484D01*
X39432702Y-7848600D01*
X39489034Y-7850217D01*
X39522230Y-7857766D01*
X39542966Y-7875297D01*
X39555499Y-7895166D01*
X39572065Y-7931960D01*
X39568846Y-7961856D01*
X39555617Y-7988300D01*
X39536784Y-8015517D01*
X39512434Y-8029436D01*
X39471532Y-8034391D01*
X39437084Y-8034866D01*
X39381962Y-8036680D01*
X39348982Y-8045299D01*
X39326482Y-8065493D01*
X39312836Y-8085666D01*
X39286144Y-8123528D01*
X39263629Y-8147773D01*
X39262036Y-8148907D01*
X39238380Y-8153826D01*
X39188343Y-8157874D01*
X39119408Y-8160613D01*
X39044033Y-8161607D01*
X38845067Y-8161866D01*
X38845067Y-7721600D01*
X39248456Y-7721600D01*
X39292295Y-7773699D01*
X39292295Y-7773699D01*
G37*
X39292295Y-7773699D02*
X39320020Y-7809246D01*
X39335153Y-7833697D01*
X39336102Y-7837199D01*
X39351431Y-7843345D01*
X39391134Y-7847484D01*
X39432702Y-7848600D01*
X39489034Y-7850217D01*
X39522230Y-7857766D01*
X39542966Y-7875297D01*
X39555499Y-7895166D01*
X39572065Y-7931960D01*
X39568846Y-7961856D01*
X39555617Y-7988300D01*
X39536784Y-8015517D01*
X39512434Y-8029436D01*
X39471532Y-8034391D01*
X39437084Y-8034866D01*
X39381962Y-8036680D01*
X39348982Y-8045299D01*
X39326482Y-8065493D01*
X39312836Y-8085666D01*
X39286144Y-8123528D01*
X39263629Y-8147773D01*
X39262036Y-8148907D01*
X39238380Y-8153826D01*
X39188343Y-8157874D01*
X39119408Y-8160613D01*
X39044033Y-8161607D01*
X38845067Y-8161866D01*
X38845067Y-7721600D01*
X39248456Y-7721600D01*
X39292295Y-7773699D01*
G36*
X33765066Y-7674329D02*
X33942866Y-7679266D01*
X33942866Y-8102600D01*
X33750671Y-8107404D01*
X33558475Y-8112207D01*
X33502041Y-8052370D01*
X33462766Y-8015373D01*
X33426490Y-7997776D01*
X33376901Y-7992668D01*
X33360764Y-7992533D01*
X33304832Y-7989302D01*
X33270885Y-7977019D01*
X33249560Y-7954899D01*
X33225561Y-7901378D01*
X33234369Y-7853069D01*
X33258598Y-7821669D01*
X33289748Y-7799144D01*
X33330484Y-7790877D01*
X33375583Y-7792035D01*
X33425823Y-7793784D01*
X33454808Y-7786160D01*
X33474931Y-7763641D01*
X33487001Y-7742366D01*
X33505397Y-7712701D01*
X33527191Y-7692385D01*
X33558534Y-7679913D01*
X33605580Y-7673780D01*
X33674480Y-7672479D01*
X33765066Y-7674329D01*
X33765066Y-7674329D01*
G37*
X33765066Y-7674329D02*
X33942866Y-7679266D01*
X33942866Y-8102600D01*
X33750671Y-8107404D01*
X33558475Y-8112207D01*
X33502041Y-8052370D01*
X33462766Y-8015373D01*
X33426490Y-7997776D01*
X33376901Y-7992668D01*
X33360764Y-7992533D01*
X33304832Y-7989302D01*
X33270885Y-7977019D01*
X33249560Y-7954899D01*
X33225561Y-7901378D01*
X33234369Y-7853069D01*
X33258598Y-7821669D01*
X33289748Y-7799144D01*
X33330484Y-7790877D01*
X33375583Y-7792035D01*
X33425823Y-7793784D01*
X33454808Y-7786160D01*
X33474931Y-7763641D01*
X33487001Y-7742366D01*
X33505397Y-7712701D01*
X33527191Y-7692385D01*
X33558534Y-7679913D01*
X33605580Y-7673780D01*
X33674480Y-7672479D01*
X33765066Y-7674329D01*
G36*
X39110638Y-7130925D02*
X39177426Y-7135025D01*
X39226452Y-7141266D01*
X39240948Y-7145086D01*
X39279963Y-7171909D01*
X39307776Y-7207698D01*
X39325703Y-7235382D01*
X39348836Y-7248291D01*
X39388644Y-7250825D01*
X39417049Y-7249648D01*
X39473463Y-7249825D01*
X39509720Y-7260308D01*
X39537590Y-7283363D01*
X39570036Y-7334747D01*
X39571331Y-7381186D01*
X39544180Y-7418649D01*
X39491286Y-7443106D01*
X39425372Y-7450666D01*
X39372944Y-7452620D01*
X39341660Y-7462622D01*
X39318847Y-7486887D01*
X39304510Y-7509933D01*
X39269542Y-7569200D01*
X38845067Y-7569200D01*
X38845067Y-7359345D01*
X38845704Y-7269504D01*
X38848061Y-7208037D01*
X38852804Y-7169467D01*
X38860600Y-7148317D01*
X38871851Y-7139212D01*
X38906693Y-7133109D01*
X38964971Y-7129803D01*
X39036386Y-7129130D01*
X39110638Y-7130925D01*
X39110638Y-7130925D01*
G37*
X39110638Y-7130925D02*
X39177426Y-7135025D01*
X39226452Y-7141266D01*
X39240948Y-7145086D01*
X39279963Y-7171909D01*
X39307776Y-7207698D01*
X39325703Y-7235382D01*
X39348836Y-7248291D01*
X39388644Y-7250825D01*
X39417049Y-7249648D01*
X39473463Y-7249825D01*
X39509720Y-7260308D01*
X39537590Y-7283363D01*
X39570036Y-7334747D01*
X39571331Y-7381186D01*
X39544180Y-7418649D01*
X39491286Y-7443106D01*
X39425372Y-7450666D01*
X39372944Y-7452620D01*
X39341660Y-7462622D01*
X39318847Y-7486887D01*
X39304510Y-7509933D01*
X39269542Y-7569200D01*
X38845067Y-7569200D01*
X38845067Y-7359345D01*
X38845704Y-7269504D01*
X38848061Y-7208037D01*
X38852804Y-7169467D01*
X38860600Y-7148317D01*
X38871851Y-7139212D01*
X38906693Y-7133109D01*
X38964971Y-7129803D01*
X39036386Y-7129130D01*
X39110638Y-7130925D01*
G36*
X33790466Y-7081464D02*
X33942866Y-7086600D01*
X33947606Y-7302500D01*
X33952345Y-7518400D01*
X33526858Y-7518400D01*
X33491889Y-7459133D01*
X33468676Y-7424257D01*
X33444523Y-7406682D01*
X33407145Y-7400528D01*
X33368085Y-7399866D01*
X33293468Y-7390194D01*
X33244503Y-7362855D01*
X33223276Y-7320367D01*
X33231877Y-7265246D01*
X33240729Y-7246353D01*
X33257550Y-7227143D01*
X33287681Y-7217110D01*
X33340195Y-7213711D01*
X33357590Y-7213600D01*
X33414155Y-7212343D01*
X33447953Y-7205351D01*
X33470070Y-7187792D01*
X33491309Y-7155316D01*
X33515071Y-7122688D01*
X33545235Y-7100326D01*
X33587840Y-7086742D01*
X33648923Y-7080443D01*
X33734524Y-7079939D01*
X33790466Y-7081464D01*
X33790466Y-7081464D01*
G37*
X33790466Y-7081464D02*
X33942866Y-7086600D01*
X33947606Y-7302500D01*
X33952345Y-7518400D01*
X33526858Y-7518400D01*
X33491889Y-7459133D01*
X33468676Y-7424257D01*
X33444523Y-7406682D01*
X33407145Y-7400528D01*
X33368085Y-7399866D01*
X33293468Y-7390194D01*
X33244503Y-7362855D01*
X33223276Y-7320367D01*
X33231877Y-7265246D01*
X33240729Y-7246353D01*
X33257550Y-7227143D01*
X33287681Y-7217110D01*
X33340195Y-7213711D01*
X33357590Y-7213600D01*
X33414155Y-7212343D01*
X33447953Y-7205351D01*
X33470070Y-7187792D01*
X33491309Y-7155316D01*
X33515071Y-7122688D01*
X33545235Y-7100326D01*
X33587840Y-7086742D01*
X33648923Y-7080443D01*
X33734524Y-7079939D01*
X33790466Y-7081464D01*
G36*
X39290869Y-6607799D02*
X39332739Y-6643730D01*
X39374943Y-6659579D01*
X39423255Y-6662832D01*
X39495830Y-6673902D01*
X39546002Y-6703270D01*
X39570659Y-6746542D01*
X39566691Y-6799327D01*
X39546840Y-6837299D01*
X39523884Y-6860508D01*
X39490113Y-6871839D01*
X39434375Y-6874929D01*
X39431491Y-6874933D01*
X39376496Y-6877230D01*
X39342385Y-6887561D01*
X39316295Y-6911091D01*
X39304944Y-6925733D01*
X39267386Y-6976533D01*
X38845067Y-6976533D01*
X38845067Y-6553200D01*
X39237138Y-6553200D01*
X39290869Y-6607799D01*
X39290869Y-6607799D01*
G37*
X39290869Y-6607799D02*
X39332739Y-6643730D01*
X39374943Y-6659579D01*
X39423255Y-6662832D01*
X39495830Y-6673902D01*
X39546002Y-6703270D01*
X39570659Y-6746542D01*
X39566691Y-6799327D01*
X39546840Y-6837299D01*
X39523884Y-6860508D01*
X39490113Y-6871839D01*
X39434375Y-6874929D01*
X39431491Y-6874933D01*
X39376496Y-6877230D01*
X39342385Y-6887561D01*
X39316295Y-6911091D01*
X39304944Y-6925733D01*
X39267386Y-6976533D01*
X38845067Y-6976533D01*
X38845067Y-6553200D01*
X39237138Y-6553200D01*
X39290869Y-6607799D01*
G36*
X33951333Y-6712255D02*
X33950696Y-6802096D01*
X33948338Y-6863563D01*
X33943595Y-6902133D01*
X33935800Y-6923282D01*
X33924548Y-6932388D01*
X33887156Y-6939198D01*
X33826994Y-6942469D01*
X33754218Y-6942508D01*
X33678984Y-6939623D01*
X33611444Y-6934121D01*
X33561756Y-6926309D01*
X33545267Y-6920916D01*
X33505401Y-6889605D01*
X33483005Y-6859025D01*
X33466821Y-6835356D01*
X33441923Y-6822845D01*
X33398229Y-6817841D01*
X33367002Y-6817025D01*
X33293076Y-6808518D01*
X33246982Y-6784023D01*
X33225601Y-6741291D01*
X33223200Y-6713454D01*
X33237945Y-6665827D01*
X33281245Y-6634869D01*
X33351702Y-6621448D01*
X33372104Y-6620933D01*
X33428296Y-6617932D01*
X33460491Y-6606955D01*
X33476493Y-6588387D01*
X33497417Y-6553452D01*
X33520532Y-6529499D01*
X33552357Y-6514473D01*
X33599413Y-6506319D01*
X33668219Y-6502983D01*
X33749343Y-6502400D01*
X33951333Y-6502400D01*
X33951333Y-6712255D01*
X33951333Y-6712255D01*
G37*
X33951333Y-6712255D02*
X33950696Y-6802096D01*
X33948338Y-6863563D01*
X33943595Y-6902133D01*
X33935800Y-6923282D01*
X33924548Y-6932388D01*
X33887156Y-6939198D01*
X33826994Y-6942469D01*
X33754218Y-6942508D01*
X33678984Y-6939623D01*
X33611444Y-6934121D01*
X33561756Y-6926309D01*
X33545267Y-6920916D01*
X33505401Y-6889605D01*
X33483005Y-6859025D01*
X33466821Y-6835356D01*
X33441923Y-6822845D01*
X33398229Y-6817841D01*
X33367002Y-6817025D01*
X33293076Y-6808518D01*
X33246982Y-6784023D01*
X33225601Y-6741291D01*
X33223200Y-6713454D01*
X33237945Y-6665827D01*
X33281245Y-6634869D01*
X33351702Y-6621448D01*
X33372104Y-6620933D01*
X33428296Y-6617932D01*
X33460491Y-6606955D01*
X33476493Y-6588387D01*
X33497417Y-6553452D01*
X33520532Y-6529499D01*
X33552357Y-6514473D01*
X33599413Y-6506319D01*
X33668219Y-6502983D01*
X33749343Y-6502400D01*
X33951333Y-6502400D01*
X33951333Y-6712255D01*
G36*
X36728111Y-6375427D02*
X37024615Y-6375522D01*
X37290530Y-6375702D01*
X37527492Y-6375987D01*
X37737142Y-6376395D01*
X37921117Y-6376944D01*
X38081056Y-6377653D01*
X38218597Y-6378541D01*
X38335379Y-6379627D01*
X38433039Y-6380928D01*
X38513217Y-6382464D01*
X38577551Y-6384253D01*
X38627679Y-6386313D01*
X38665239Y-6388664D01*
X38691870Y-6391324D01*
X38709211Y-6394311D01*
X38718899Y-6397644D01*
X38722574Y-6401341D01*
X38722679Y-6401758D01*
X38713808Y-6425149D01*
X38685768Y-6464815D01*
X38643851Y-6513610D01*
X38625452Y-6532991D01*
X38523149Y-6637866D01*
X34290085Y-6637866D01*
X34179065Y-6526299D01*
X34131260Y-6475607D01*
X34095293Y-6432355D01*
X34076195Y-6402862D01*
X34074600Y-6395065D01*
X34084072Y-6392123D01*
X34111237Y-6389459D01*
X34157302Y-6387062D01*
X34223473Y-6384921D01*
X34310958Y-6383028D01*
X34420963Y-6381371D01*
X34554696Y-6379941D01*
X34713364Y-6378727D01*
X34898173Y-6377719D01*
X35110330Y-6376907D01*
X35351044Y-6376280D01*
X35621519Y-6375829D01*
X35922964Y-6375542D01*
X36256585Y-6375411D01*
X36399379Y-6375400D01*
X36728111Y-6375427D01*
X36728111Y-6375427D01*
G37*
X36728111Y-6375427D02*
X37024615Y-6375522D01*
X37290530Y-6375702D01*
X37527492Y-6375987D01*
X37737142Y-6376395D01*
X37921117Y-6376944D01*
X38081056Y-6377653D01*
X38218597Y-6378541D01*
X38335379Y-6379627D01*
X38433039Y-6380928D01*
X38513217Y-6382464D01*
X38577551Y-6384253D01*
X38627679Y-6386313D01*
X38665239Y-6388664D01*
X38691870Y-6391324D01*
X38709211Y-6394311D01*
X38718899Y-6397644D01*
X38722574Y-6401341D01*
X38722679Y-6401758D01*
X38713808Y-6425149D01*
X38685768Y-6464815D01*
X38643851Y-6513610D01*
X38625452Y-6532991D01*
X38523149Y-6637866D01*
X34290085Y-6637866D01*
X34179065Y-6526299D01*
X34131260Y-6475607D01*
X34095293Y-6432355D01*
X34076195Y-6402862D01*
X34074600Y-6395065D01*
X34084072Y-6392123D01*
X34111237Y-6389459D01*
X34157302Y-6387062D01*
X34223473Y-6384921D01*
X34310958Y-6383028D01*
X34420963Y-6381371D01*
X34554696Y-6379941D01*
X34713364Y-6378727D01*
X34898173Y-6377719D01*
X35110330Y-6376907D01*
X35351044Y-6376280D01*
X35621519Y-6375829D01*
X35922964Y-6375542D01*
X36256585Y-6375411D01*
X36399379Y-6375400D01*
X36728111Y-6375427D01*
G36*
X34448206Y-5622799D02*
X34475071Y-5648800D01*
X34488561Y-5679921D01*
X34492990Y-5728415D01*
X34493200Y-5750515D01*
X34494881Y-5804961D01*
X34502474Y-5835493D01*
X34519802Y-5851999D01*
X34535060Y-5858753D01*
X34559510Y-5871894D01*
X34576427Y-5893179D01*
X34586896Y-5927999D01*
X34592000Y-5981743D01*
X34592821Y-6059801D01*
X34591259Y-6138333D01*
X34586333Y-6324600D01*
X34390697Y-6329342D01*
X34312417Y-6330250D01*
X34246899Y-6329150D01*
X34201352Y-6326287D01*
X34183264Y-6322286D01*
X34177982Y-6300719D01*
X34174288Y-6253809D01*
X34172213Y-6190044D01*
X34171787Y-6117912D01*
X34173040Y-6045900D01*
X34176004Y-5982495D01*
X34180709Y-5936187D01*
X34181852Y-5929771D01*
X34203274Y-5883396D01*
X34238796Y-5861611D01*
X34266485Y-5849285D01*
X34278892Y-5830829D01*
X34280179Y-5795628D01*
X34277445Y-5763079D01*
X34275854Y-5704057D01*
X34286813Y-5664549D01*
X34300935Y-5644327D01*
X34350032Y-5604554D01*
X34400217Y-5598526D01*
X34448206Y-5622799D01*
X34448206Y-5622799D01*
G37*
X34448206Y-5622799D02*
X34475071Y-5648800D01*
X34488561Y-5679921D01*
X34492990Y-5728415D01*
X34493200Y-5750515D01*
X34494881Y-5804961D01*
X34502474Y-5835493D01*
X34519802Y-5851999D01*
X34535060Y-5858753D01*
X34559510Y-5871894D01*
X34576427Y-5893179D01*
X34586896Y-5927999D01*
X34592000Y-5981743D01*
X34592821Y-6059801D01*
X34591259Y-6138333D01*
X34586333Y-6324600D01*
X34390697Y-6329342D01*
X34312417Y-6330250D01*
X34246899Y-6329150D01*
X34201352Y-6326287D01*
X34183264Y-6322286D01*
X34177982Y-6300719D01*
X34174288Y-6253809D01*
X34172213Y-6190044D01*
X34171787Y-6117912D01*
X34173040Y-6045900D01*
X34176004Y-5982495D01*
X34180709Y-5936187D01*
X34181852Y-5929771D01*
X34203274Y-5883396D01*
X34238796Y-5861611D01*
X34266485Y-5849285D01*
X34278892Y-5830829D01*
X34280179Y-5795628D01*
X34277445Y-5763079D01*
X34275854Y-5704057D01*
X34286813Y-5664549D01*
X34300935Y-5644327D01*
X34350032Y-5604554D01*
X34400217Y-5598526D01*
X34448206Y-5622799D01*
G36*
X35011281Y-5605547D02*
X35033304Y-5616939D01*
X35045554Y-5635774D01*
X35050847Y-5670802D01*
X35052000Y-5730775D01*
X35052000Y-5732046D01*
X35053679Y-5794545D01*
X35059970Y-5831007D01*
X35072755Y-5849147D01*
X35081633Y-5853572D01*
X35116971Y-5868586D01*
X35141504Y-5888222D01*
X35157180Y-5918402D01*
X35165945Y-5965049D01*
X35169746Y-6034087D01*
X35170533Y-6124024D01*
X35170533Y-6333066D01*
X34747200Y-6333066D01*
X34747200Y-6124024D01*
X34748132Y-6028682D01*
X34752213Y-5961273D01*
X34761372Y-5915885D01*
X34777537Y-5886605D01*
X34802636Y-5867521D01*
X34835307Y-5853876D01*
X34851885Y-5840282D01*
X34862121Y-5809225D01*
X34867938Y-5753653D01*
X34869174Y-5729695D01*
X34872701Y-5668876D01*
X34878905Y-5633495D01*
X34891319Y-5615129D01*
X34913475Y-5605360D01*
X34922381Y-5602892D01*
X34972613Y-5598553D01*
X35011281Y-5605547D01*
X35011281Y-5605547D01*
G37*
X35011281Y-5605547D02*
X35033304Y-5616939D01*
X35045554Y-5635774D01*
X35050847Y-5670802D01*
X35052000Y-5730775D01*
X35052000Y-5732046D01*
X35053679Y-5794545D01*
X35059970Y-5831007D01*
X35072755Y-5849147D01*
X35081633Y-5853572D01*
X35116971Y-5868586D01*
X35141504Y-5888222D01*
X35157180Y-5918402D01*
X35165945Y-5965049D01*
X35169746Y-6034087D01*
X35170533Y-6124024D01*
X35170533Y-6333066D01*
X34747200Y-6333066D01*
X34747200Y-6124024D01*
X34748132Y-6028682D01*
X34752213Y-5961273D01*
X34761372Y-5915885D01*
X34777537Y-5886605D01*
X34802636Y-5867521D01*
X34835307Y-5853876D01*
X34851885Y-5840282D01*
X34862121Y-5809225D01*
X34867938Y-5753653D01*
X34869174Y-5729695D01*
X34872701Y-5668876D01*
X34878905Y-5633495D01*
X34891319Y-5615129D01*
X34913475Y-5605360D01*
X34922381Y-5602892D01*
X34972613Y-5598553D01*
X35011281Y-5605547D01*
G36*
X35583042Y-5606416D02*
X35623500Y-5635601D01*
X35635517Y-5666989D01*
X35643186Y-5718307D01*
X35644667Y-5753688D01*
X35646521Y-5808053D01*
X35654177Y-5837644D01*
X35670775Y-5851452D01*
X35679832Y-5854366D01*
X35705955Y-5867875D01*
X35724583Y-5895650D01*
X35736782Y-5942275D01*
X35743623Y-6012337D01*
X35746174Y-6110420D01*
X35746267Y-6139436D01*
X35746267Y-6333066D01*
X35545889Y-6333066D01*
X35466675Y-6332164D01*
X35400245Y-6329707D01*
X35353689Y-6326075D01*
X35334222Y-6321778D01*
X35329222Y-6300448D01*
X35325786Y-6253562D01*
X35323874Y-6189394D01*
X35323447Y-6116217D01*
X35324465Y-6042303D01*
X35326890Y-5975927D01*
X35330681Y-5925362D01*
X35335799Y-5898879D01*
X35336237Y-5898093D01*
X35360538Y-5877661D01*
X35395244Y-5860412D01*
X35421076Y-5847960D01*
X35434922Y-5829409D01*
X35440485Y-5795262D01*
X35441467Y-5741779D01*
X35443533Y-5681734D01*
X35451707Y-5645249D01*
X35468946Y-5622162D01*
X35478446Y-5614819D01*
X35528857Y-5597919D01*
X35583042Y-5606416D01*
X35583042Y-5606416D01*
G37*
X35583042Y-5606416D02*
X35623500Y-5635601D01*
X35635517Y-5666989D01*
X35643186Y-5718307D01*
X35644667Y-5753688D01*
X35646521Y-5808053D01*
X35654177Y-5837644D01*
X35670775Y-5851452D01*
X35679832Y-5854366D01*
X35705955Y-5867875D01*
X35724583Y-5895650D01*
X35736782Y-5942275D01*
X35743623Y-6012337D01*
X35746174Y-6110420D01*
X35746267Y-6139436D01*
X35746267Y-6333066D01*
X35545889Y-6333066D01*
X35466675Y-6332164D01*
X35400245Y-6329707D01*
X35353689Y-6326075D01*
X35334222Y-6321778D01*
X35329222Y-6300448D01*
X35325786Y-6253562D01*
X35323874Y-6189394D01*
X35323447Y-6116217D01*
X35324465Y-6042303D01*
X35326890Y-5975927D01*
X35330681Y-5925362D01*
X35335799Y-5898879D01*
X35336237Y-5898093D01*
X35360538Y-5877661D01*
X35395244Y-5860412D01*
X35421076Y-5847960D01*
X35434922Y-5829409D01*
X35440485Y-5795262D01*
X35441467Y-5741779D01*
X35443533Y-5681734D01*
X35451707Y-5645249D01*
X35468946Y-5622162D01*
X35478446Y-5614819D01*
X35528857Y-5597919D01*
X35583042Y-5606416D01*
G36*
X36154003Y-5605001D02*
X36184836Y-5619439D01*
X36187414Y-5622712D01*
X36195992Y-5652414D01*
X36201745Y-5703122D01*
X36203207Y-5745165D01*
X36205571Y-5803859D01*
X36213745Y-5836902D01*
X36229940Y-5852319D01*
X36233100Y-5853572D01*
X36268438Y-5868586D01*
X36292971Y-5888222D01*
X36308646Y-5918402D01*
X36317411Y-5965049D01*
X36321213Y-6034087D01*
X36322000Y-6124024D01*
X36322000Y-6333066D01*
X35898667Y-6333066D01*
X35898667Y-6128753D01*
X35900333Y-6023743D01*
X35906003Y-5948386D01*
X35916679Y-5898600D01*
X35933365Y-5870304D01*
X35957066Y-5859418D01*
X35965023Y-5858933D01*
X35982483Y-5854006D01*
X35993282Y-5834439D01*
X35999922Y-5793053D01*
X36003327Y-5748914D01*
X36009665Y-5689214D01*
X36019262Y-5642388D01*
X36028939Y-5620288D01*
X36061239Y-5605198D01*
X36107866Y-5600178D01*
X36154003Y-5605001D01*
X36154003Y-5605001D01*
G37*
X36154003Y-5605001D02*
X36184836Y-5619439D01*
X36187414Y-5622712D01*
X36195992Y-5652414D01*
X36201745Y-5703122D01*
X36203207Y-5745165D01*
X36205571Y-5803859D01*
X36213745Y-5836902D01*
X36229940Y-5852319D01*
X36233100Y-5853572D01*
X36268438Y-5868586D01*
X36292971Y-5888222D01*
X36308646Y-5918402D01*
X36317411Y-5965049D01*
X36321213Y-6034087D01*
X36322000Y-6124024D01*
X36322000Y-6333066D01*
X35898667Y-6333066D01*
X35898667Y-6128753D01*
X35900333Y-6023743D01*
X35906003Y-5948386D01*
X35916679Y-5898600D01*
X35933365Y-5870304D01*
X35957066Y-5859418D01*
X35965023Y-5858933D01*
X35982483Y-5854006D01*
X35993282Y-5834439D01*
X35999922Y-5793053D01*
X36003327Y-5748914D01*
X36009665Y-5689214D01*
X36019262Y-5642388D01*
X36028939Y-5620288D01*
X36061239Y-5605198D01*
X36107866Y-5600178D01*
X36154003Y-5605001D01*
G36*
X36746291Y-5612069D02*
X36778919Y-5655159D01*
X36791321Y-5720986D01*
X36787852Y-5770159D01*
X36783345Y-5817348D01*
X36789922Y-5841903D01*
X36807777Y-5853166D01*
X36843524Y-5868303D01*
X36868341Y-5887891D01*
X36884198Y-5917865D01*
X36893068Y-5964165D01*
X36896922Y-6032726D01*
X36897733Y-6124024D01*
X36897733Y-6333066D01*
X36474400Y-6333066D01*
X36474400Y-6124024D01*
X36475323Y-6028724D01*
X36479392Y-5961346D01*
X36488553Y-5915968D01*
X36504753Y-5886666D01*
X36529939Y-5867518D01*
X36563300Y-5853572D01*
X36579824Y-5841422D01*
X36588961Y-5814613D01*
X36592593Y-5765426D01*
X36592933Y-5732046D01*
X36594105Y-5671407D01*
X36599412Y-5635927D01*
X36611540Y-5616928D01*
X36631890Y-5606217D01*
X36696321Y-5594745D01*
X36746291Y-5612069D01*
X36746291Y-5612069D01*
G37*
X36746291Y-5612069D02*
X36778919Y-5655159D01*
X36791321Y-5720986D01*
X36787852Y-5770159D01*
X36783345Y-5817348D01*
X36789922Y-5841903D01*
X36807777Y-5853166D01*
X36843524Y-5868303D01*
X36868341Y-5887891D01*
X36884198Y-5917865D01*
X36893068Y-5964165D01*
X36896922Y-6032726D01*
X36897733Y-6124024D01*
X36897733Y-6333066D01*
X36474400Y-6333066D01*
X36474400Y-6124024D01*
X36475323Y-6028724D01*
X36479392Y-5961346D01*
X36488553Y-5915968D01*
X36504753Y-5886666D01*
X36529939Y-5867518D01*
X36563300Y-5853572D01*
X36579824Y-5841422D01*
X36588961Y-5814613D01*
X36592593Y-5765426D01*
X36592933Y-5732046D01*
X36594105Y-5671407D01*
X36599412Y-5635927D01*
X36611540Y-5616928D01*
X36631890Y-5606217D01*
X36696321Y-5594745D01*
X36746291Y-5612069D01*
G36*
X37306127Y-5609124D02*
X37341633Y-5638703D01*
X37359783Y-5693544D01*
X37363582Y-5752356D01*
X37365037Y-5807312D01*
X37371810Y-5838071D01*
X37387911Y-5854277D01*
X37409612Y-5863048D01*
X37435882Y-5876687D01*
X37454186Y-5900567D01*
X37465569Y-5939741D01*
X37471077Y-5999259D01*
X37471757Y-6084172D01*
X37470107Y-6155266D01*
X37465000Y-6324600D01*
X37269364Y-6329342D01*
X37191083Y-6330250D01*
X37125565Y-6329150D01*
X37080019Y-6326287D01*
X37061931Y-6322286D01*
X37056145Y-6299960D01*
X37052379Y-6252206D01*
X37050555Y-6187398D01*
X37050596Y-6113909D01*
X37052426Y-6040114D01*
X37055968Y-5974387D01*
X37061144Y-5925100D01*
X37065767Y-5904684D01*
X37090566Y-5869704D01*
X37116567Y-5854366D01*
X37137279Y-5844126D01*
X37147884Y-5821436D01*
X37151523Y-5777305D01*
X37151733Y-5753688D01*
X37157769Y-5678347D01*
X37177721Y-5630719D01*
X37214360Y-5606538D01*
X37250646Y-5601300D01*
X37306127Y-5609124D01*
X37306127Y-5609124D01*
G37*
X37306127Y-5609124D02*
X37341633Y-5638703D01*
X37359783Y-5693544D01*
X37363582Y-5752356D01*
X37365037Y-5807312D01*
X37371810Y-5838071D01*
X37387911Y-5854277D01*
X37409612Y-5863048D01*
X37435882Y-5876687D01*
X37454186Y-5900567D01*
X37465569Y-5939741D01*
X37471077Y-5999259D01*
X37471757Y-6084172D01*
X37470107Y-6155266D01*
X37465000Y-6324600D01*
X37269364Y-6329342D01*
X37191083Y-6330250D01*
X37125565Y-6329150D01*
X37080019Y-6326287D01*
X37061931Y-6322286D01*
X37056145Y-6299960D01*
X37052379Y-6252206D01*
X37050555Y-6187398D01*
X37050596Y-6113909D01*
X37052426Y-6040114D01*
X37055968Y-5974387D01*
X37061144Y-5925100D01*
X37065767Y-5904684D01*
X37090566Y-5869704D01*
X37116567Y-5854366D01*
X37137279Y-5844126D01*
X37147884Y-5821436D01*
X37151523Y-5777305D01*
X37151733Y-5753688D01*
X37157769Y-5678347D01*
X37177721Y-5630719D01*
X37214360Y-5606538D01*
X37250646Y-5601300D01*
X37306127Y-5609124D01*
G36*
X37878198Y-5601493D02*
X37901840Y-5612021D01*
X37915640Y-5629626D01*
X37922868Y-5662873D01*
X37926793Y-5720322D01*
X37927226Y-5729885D01*
X37932051Y-5794683D01*
X37940697Y-5832724D01*
X37955091Y-5851063D01*
X37961093Y-5853876D01*
X37996123Y-5868799D01*
X38020444Y-5888474D01*
X38035983Y-5918815D01*
X38044670Y-5965732D01*
X38048431Y-6035139D01*
X38049200Y-6124024D01*
X38049200Y-6333066D01*
X37624855Y-6333066D01*
X37634333Y-5901900D01*
X37688714Y-5867716D01*
X37718578Y-5846665D01*
X37734942Y-5824239D01*
X37741941Y-5789890D01*
X37743709Y-5733069D01*
X37743748Y-5727281D01*
X37745223Y-5668573D01*
X37750991Y-5634572D01*
X37764432Y-5616130D01*
X37788923Y-5604101D01*
X37789298Y-5603958D01*
X37847875Y-5595851D01*
X37878198Y-5601493D01*
X37878198Y-5601493D01*
G37*
X37878198Y-5601493D02*
X37901840Y-5612021D01*
X37915640Y-5629626D01*
X37922868Y-5662873D01*
X37926793Y-5720322D01*
X37927226Y-5729885D01*
X37932051Y-5794683D01*
X37940697Y-5832724D01*
X37955091Y-5851063D01*
X37961093Y-5853876D01*
X37996123Y-5868799D01*
X38020444Y-5888474D01*
X38035983Y-5918815D01*
X38044670Y-5965732D01*
X38048431Y-6035139D01*
X38049200Y-6124024D01*
X38049200Y-6333066D01*
X37624855Y-6333066D01*
X37634333Y-5901900D01*
X37688714Y-5867716D01*
X37718578Y-5846665D01*
X37734942Y-5824239D01*
X37741941Y-5789890D01*
X37743709Y-5733069D01*
X37743748Y-5727281D01*
X37745223Y-5668573D01*
X37750991Y-5634572D01*
X37764432Y-5616130D01*
X37788923Y-5604101D01*
X37789298Y-5603958D01*
X37847875Y-5595851D01*
X37878198Y-5601493D01*
G36*
X38457337Y-5608458D02*
X38491754Y-5638629D01*
X38509409Y-5693800D01*
X38513362Y-5748531D01*
X38516155Y-5804673D01*
X38524793Y-5837224D01*
X38543068Y-5856399D01*
X38556136Y-5863731D01*
X38585833Y-5887418D01*
X38606088Y-5926876D01*
X38617925Y-5986755D01*
X38622366Y-6071703D01*
X38621307Y-6159976D01*
X38616467Y-6324600D01*
X38420831Y-6329342D01*
X38342550Y-6330250D01*
X38277032Y-6329150D01*
X38231485Y-6326287D01*
X38213397Y-6322286D01*
X38208467Y-6301146D01*
X38204886Y-6254434D01*
X38202675Y-6190420D01*
X38201852Y-6117372D01*
X38202440Y-6043560D01*
X38204456Y-5977253D01*
X38207923Y-5926719D01*
X38212376Y-5901354D01*
X38235689Y-5873839D01*
X38263176Y-5858055D01*
X38286794Y-5844885D01*
X38298786Y-5822100D01*
X38302910Y-5779793D01*
X38303200Y-5752522D01*
X38309914Y-5675719D01*
X38331491Y-5627011D01*
X38370081Y-5603103D01*
X38403209Y-5599289D01*
X38457337Y-5608458D01*
X38457337Y-5608458D01*
G37*
X38457337Y-5608458D02*
X38491754Y-5638629D01*
X38509409Y-5693800D01*
X38513362Y-5748531D01*
X38516155Y-5804673D01*
X38524793Y-5837224D01*
X38543068Y-5856399D01*
X38556136Y-5863731D01*
X38585833Y-5887418D01*
X38606088Y-5926876D01*
X38617925Y-5986755D01*
X38622366Y-6071703D01*
X38621307Y-6159976D01*
X38616467Y-6324600D01*
X38420831Y-6329342D01*
X38342550Y-6330250D01*
X38277032Y-6329150D01*
X38231485Y-6326287D01*
X38213397Y-6322286D01*
X38208467Y-6301146D01*
X38204886Y-6254434D01*
X38202675Y-6190420D01*
X38201852Y-6117372D01*
X38202440Y-6043560D01*
X38204456Y-5977253D01*
X38207923Y-5926719D01*
X38212376Y-5901354D01*
X38235689Y-5873839D01*
X38263176Y-5858055D01*
X38286794Y-5844885D01*
X38298786Y-5822100D01*
X38302910Y-5779793D01*
X38303200Y-5752522D01*
X38309914Y-5675719D01*
X38331491Y-5627011D01*
X38370081Y-5603103D01*
X38403209Y-5599289D01*
X38457337Y-5608458D01*
G36*
X78028800Y6993467D02*
X-88002533Y6993467D01*
X-88002533Y14444133D01*
X78028800Y14444133D01*
X78028800Y6993467D01*
X78028800Y6993467D01*
G37*
X78028800Y6993467D02*
X-88002533Y6993467D01*
X-88002533Y14444133D01*
X78028800Y14444133D01*
X78028800Y6993467D01*
M02*
