G04 #@! TF.FileFunction,Legend,Top*
%FSLAX46Y46*%
G04 Gerber Fmt 4.6, Leading zero omitted, Abs format (unit mm)*
G04 Created by KiCad (PCBNEW 4.0.7-e2-6376~58~ubuntu16.04.1) date Fri Apr 13 19:52:24 2018*
%MOMM*%
%LPD*%
G01*
G04 APERTURE LIST*
%ADD10C,0.100000*%
%ADD11C,0.010000*%
G04 APERTURE END LIST*
D10*
D11*
G36*
X-44208700Y-7086600D02*
X-83134200Y-7086600D01*
X-83134200Y-2095500D01*
X-77165200Y-2095500D01*
X-77165200Y-2164718D01*
X-77162866Y-2209537D01*
X-77154741Y-2235511D01*
X-77142975Y-2246882D01*
X-77105559Y-2259490D01*
X-77067578Y-2249928D01*
X-77062766Y-2247453D01*
X-77047847Y-2234057D01*
X-77040357Y-2209878D01*
X-77038205Y-2167901D01*
X-77038200Y-2164903D01*
X-77038200Y-2095500D01*
X-76758800Y-2095500D01*
X-76758800Y-2158279D01*
X-76756284Y-2200047D01*
X-76746756Y-2225420D01*
X-76730575Y-2240829D01*
X-76704842Y-2255658D01*
X-76688950Y-2260600D01*
X-76669292Y-2253869D01*
X-76647326Y-2240829D01*
X-76629340Y-2222634D01*
X-76620933Y-2195553D01*
X-76619100Y-2158279D01*
X-76619100Y-2095500D01*
X-76339700Y-2095500D01*
X-76339700Y-2158092D01*
X-76332628Y-2210424D01*
X-76313556Y-2245507D01*
X-76285705Y-2261171D01*
X-76252293Y-2255244D01*
X-76225400Y-2235200D01*
X-76206188Y-2202914D01*
X-76200006Y-2154480D01*
X-76200000Y-2152650D01*
X-76200000Y-2095500D01*
X-75920600Y-2095500D01*
X-75920600Y-2164718D01*
X-75918266Y-2209537D01*
X-75910141Y-2235511D01*
X-75898375Y-2246882D01*
X-75860959Y-2259490D01*
X-75822978Y-2249928D01*
X-75818166Y-2247453D01*
X-75803247Y-2234057D01*
X-75795757Y-2209878D01*
X-75793605Y-2167901D01*
X-75793600Y-2164903D01*
X-75793600Y-2095500D01*
X-75514200Y-2095500D01*
X-75514200Y-2158279D01*
X-75511684Y-2200047D01*
X-75502156Y-2225420D01*
X-75485975Y-2240829D01*
X-75460242Y-2255658D01*
X-75444350Y-2260600D01*
X-75424692Y-2253869D01*
X-75402726Y-2240829D01*
X-75384740Y-2222634D01*
X-75376333Y-2195553D01*
X-75374500Y-2158279D01*
X-75374500Y-2095500D01*
X-75095100Y-2095500D01*
X-75095100Y-2158092D01*
X-75088028Y-2210424D01*
X-75068956Y-2245507D01*
X-75041105Y-2261171D01*
X-75007693Y-2255244D01*
X-74980800Y-2235200D01*
X-74961588Y-2202914D01*
X-74955406Y-2154480D01*
X-74955400Y-2152650D01*
X-74955400Y-2095500D01*
X-75095100Y-2095500D01*
X-75374500Y-2095500D01*
X-75514200Y-2095500D01*
X-75793600Y-2095500D01*
X-75920600Y-2095500D01*
X-76200000Y-2095500D01*
X-76339700Y-2095500D01*
X-76619100Y-2095500D01*
X-76758800Y-2095500D01*
X-77038200Y-2095500D01*
X-77165200Y-2095500D01*
X-83134200Y-2095500D01*
X-83134200Y-1752600D01*
X-77254100Y-1752600D01*
X-77254100Y-1888124D01*
X-77253307Y-1959351D01*
X-77248749Y-2009053D01*
X-77237159Y-2041100D01*
X-77215268Y-2059360D01*
X-77179810Y-2067706D01*
X-77127518Y-2070006D01*
X-77100452Y-2070100D01*
X-77045905Y-2069501D01*
X-77010856Y-2066862D01*
X-76989416Y-2060917D01*
X-76975696Y-2050400D01*
X-76969071Y-2041874D01*
X-76959122Y-2019793D01*
X-76952909Y-1984774D01*
X-76949859Y-1932224D01*
X-76949300Y-1883124D01*
X-76949300Y-1752600D01*
X-76835000Y-1752600D01*
X-76835000Y-1891392D01*
X-76834287Y-1961870D01*
X-76830086Y-2010858D01*
X-76819305Y-2042261D01*
X-76798852Y-2059987D01*
X-76765636Y-2067941D01*
X-76716565Y-2070031D01*
X-76693558Y-2070100D01*
X-76642235Y-2068503D01*
X-76598491Y-2064278D01*
X-76570435Y-2058269D01*
X-76567466Y-2056953D01*
X-76556795Y-2048907D01*
X-76549731Y-2035249D01*
X-76545548Y-2011283D01*
X-76543517Y-1972312D01*
X-76542914Y-1913641D01*
X-76542900Y-1898203D01*
X-76542900Y-1752600D01*
X-76415900Y-1752600D01*
X-76415900Y-1896110D01*
X-76414421Y-1972217D01*
X-76410019Y-2024380D01*
X-76402751Y-2052015D01*
X-76400660Y-2054860D01*
X-76377979Y-2064228D01*
X-76337885Y-2069595D01*
X-76288017Y-2071135D01*
X-76236016Y-2069022D01*
X-76189523Y-2063429D01*
X-76156179Y-2054531D01*
X-76147026Y-2049081D01*
X-76136508Y-2036065D01*
X-76129672Y-2016454D01*
X-76125776Y-1985180D01*
X-76124078Y-1937176D01*
X-76123800Y-1890331D01*
X-76123800Y-1752600D01*
X-76009500Y-1752600D01*
X-76009500Y-1888124D01*
X-76008707Y-1959351D01*
X-76004149Y-2009053D01*
X-75992559Y-2041100D01*
X-75970668Y-2059360D01*
X-75935210Y-2067706D01*
X-75882918Y-2070006D01*
X-75855852Y-2070100D01*
X-75801305Y-2069501D01*
X-75766256Y-2066862D01*
X-75744816Y-2060917D01*
X-75731096Y-2050400D01*
X-75724471Y-2041874D01*
X-75714522Y-2019793D01*
X-75708309Y-1984774D01*
X-75705259Y-1932224D01*
X-75704700Y-1883124D01*
X-75704700Y-1752600D01*
X-75590400Y-1752600D01*
X-75590400Y-1891392D01*
X-75589749Y-1961862D01*
X-75585597Y-2010840D01*
X-75574646Y-2042237D01*
X-75553598Y-2059961D01*
X-75519157Y-2067920D01*
X-75468025Y-2070022D01*
X-75439633Y-2070100D01*
X-75378160Y-2068258D01*
X-75334937Y-2063017D01*
X-75313540Y-2054860D01*
X-75305615Y-2033001D01*
X-75300543Y-1986479D01*
X-75298381Y-1915877D01*
X-75298300Y-1896110D01*
X-75298300Y-1752600D01*
X-75171300Y-1752600D01*
X-75171300Y-1896110D01*
X-75169821Y-1972217D01*
X-75165419Y-2024380D01*
X-75158151Y-2052015D01*
X-75156060Y-2054860D01*
X-75133847Y-2063892D01*
X-75094085Y-2069245D01*
X-75044336Y-2071059D01*
X-74992164Y-2069471D01*
X-74945131Y-2064620D01*
X-74910800Y-2056646D01*
X-74899158Y-2050142D01*
X-74889834Y-2035187D01*
X-74883788Y-2009587D01*
X-74880448Y-1968779D01*
X-74879238Y-1908200D01*
X-74879200Y-1891392D01*
X-74879200Y-1752600D01*
X-75171300Y-1752600D01*
X-75298300Y-1752600D01*
X-75590400Y-1752600D01*
X-75704700Y-1752600D01*
X-76009500Y-1752600D01*
X-76123800Y-1752600D01*
X-76415900Y-1752600D01*
X-76542900Y-1752600D01*
X-76835000Y-1752600D01*
X-76949300Y-1752600D01*
X-77254100Y-1752600D01*
X-83134200Y-1752600D01*
X-83134200Y-1689100D01*
X-77272283Y-1689100D01*
X-74819638Y-1689100D01*
X-74811319Y-1862558D01*
X-74807800Y-1947344D01*
X-74804693Y-2042981D01*
X-74802378Y-2136595D01*
X-74801341Y-2202283D01*
X-74800044Y-2275541D01*
X-74797767Y-2349758D01*
X-74794839Y-2415941D01*
X-74791816Y-2462455D01*
X-74783950Y-2556360D01*
X-74716042Y-2582099D01*
X-74648133Y-2607839D01*
X-74461730Y-2413000D01*
X-74275328Y-2218161D01*
X-74240194Y-2241182D01*
X-74209484Y-2256137D01*
X-74182922Y-2253790D01*
X-74175438Y-2250706D01*
X-74166340Y-2245977D01*
X-74158894Y-2242762D01*
X-74151809Y-2243363D01*
X-74143794Y-2250080D01*
X-74133557Y-2265215D01*
X-74119806Y-2291072D01*
X-74101251Y-2329950D01*
X-74076600Y-2384151D01*
X-74044561Y-2455978D01*
X-74003843Y-2547732D01*
X-73985101Y-2589934D01*
X-73852851Y-2887518D01*
X-73797701Y-2909417D01*
X-73742550Y-2931315D01*
X-73496546Y-2803886D01*
X-73419214Y-2763675D01*
X-73344954Y-2724779D01*
X-73278358Y-2689626D01*
X-73224018Y-2660642D01*
X-73186528Y-2640255D01*
X-73180358Y-2636803D01*
X-73139471Y-2611520D01*
X-73115030Y-2588709D01*
X-73100151Y-2560799D01*
X-73093884Y-2541675D01*
X-73077595Y-2486201D01*
X-73273909Y-2136695D01*
X-73321765Y-2051044D01*
X-73365073Y-1972666D01*
X-73402388Y-1904245D01*
X-73432265Y-1848463D01*
X-73453260Y-1808004D01*
X-73463929Y-1785551D01*
X-73464911Y-1781876D01*
X-73451278Y-1781060D01*
X-73417202Y-1781977D01*
X-73367561Y-1784320D01*
X-73307230Y-1787779D01*
X-73241084Y-1792045D01*
X-73173999Y-1796809D01*
X-73110852Y-1801761D01*
X-73056517Y-1806593D01*
X-73027410Y-1809616D01*
X-72972669Y-1815824D01*
X-72907491Y-1673456D01*
X-73207546Y-1373205D01*
X-73507600Y-1072955D01*
X-73507600Y-991502D01*
X-73510146Y-939800D01*
X-73482200Y-939800D01*
X-73482200Y-1079500D01*
X-73425958Y-1079500D01*
X-73381059Y-1074448D01*
X-73351168Y-1060864D01*
X-73349758Y-1059542D01*
X-73334016Y-1029799D01*
X-73330709Y-992617D01*
X-73340414Y-960771D01*
X-73345040Y-955040D01*
X-73366117Y-945981D01*
X-73402009Y-940522D01*
X-73421240Y-939800D01*
X-73482200Y-939800D01*
X-73510146Y-939800D01*
X-73510471Y-933216D01*
X-73521931Y-895628D01*
X-73546254Y-874403D01*
X-73587711Y-865208D01*
X-73633712Y-863600D01*
X-73717786Y-863600D01*
X-73901300Y-678852D01*
X-73901300Y-444500D01*
X-73825100Y-444500D01*
X-73825100Y-736600D01*
X-73689576Y-736600D01*
X-73625014Y-735789D01*
X-73580890Y-732925D01*
X-73552281Y-727354D01*
X-73534263Y-718424D01*
X-73530826Y-715581D01*
X-73518318Y-698952D01*
X-73511123Y-673105D01*
X-73508014Y-631825D01*
X-73507600Y-597757D01*
X-73508791Y-537258D01*
X-73511220Y-520700D01*
X-73482200Y-520700D01*
X-73482200Y-660400D01*
X-73421240Y-660400D01*
X-73382001Y-657395D01*
X-73352558Y-649787D01*
X-73345040Y-645160D01*
X-73331925Y-616718D01*
X-73331968Y-579684D01*
X-73344593Y-546830D01*
X-73349758Y-540657D01*
X-73378132Y-526517D01*
X-73422202Y-520731D01*
X-73425958Y-520700D01*
X-73482200Y-520700D01*
X-73511220Y-520700D01*
X-73514962Y-495205D01*
X-73530010Y-468251D01*
X-73557832Y-453051D01*
X-73602325Y-446260D01*
X-73667387Y-444533D01*
X-73686121Y-444500D01*
X-73825100Y-444500D01*
X-73901300Y-444500D01*
X-73901300Y-25400D01*
X-73825100Y-25400D01*
X-73825100Y-330200D01*
X-73691750Y-330200D01*
X-73630316Y-329629D01*
X-73588834Y-327339D01*
X-73561871Y-322459D01*
X-73543992Y-314121D01*
X-73533000Y-304800D01*
X-73519784Y-287333D01*
X-73512019Y-263329D01*
X-73508398Y-226253D01*
X-73507600Y-177800D01*
X-73508998Y-118381D01*
X-73509659Y-114300D01*
X-73482200Y-114300D01*
X-73482200Y-241300D01*
X-73421240Y-241300D01*
X-73382001Y-238295D01*
X-73352558Y-230687D01*
X-73345040Y-226060D01*
X-73333305Y-202311D01*
X-73329800Y-177800D01*
X-73336263Y-143511D01*
X-73358073Y-123410D01*
X-73398862Y-114973D01*
X-73421240Y-114300D01*
X-73482200Y-114300D01*
X-73509659Y-114300D01*
X-73515739Y-76792D01*
X-73531649Y-49868D01*
X-73560550Y-34445D01*
X-73606269Y-27358D01*
X-73672627Y-25442D01*
X-73691750Y-25400D01*
X-73825100Y-25400D01*
X-73901300Y-25400D01*
X-73901300Y381000D01*
X-73825100Y381000D01*
X-73825100Y88900D01*
X-73686121Y88900D01*
X-73624570Y89265D01*
X-73583312Y90963D01*
X-73557245Y94902D01*
X-73541264Y101989D01*
X-73530268Y113132D01*
X-73527371Y117126D01*
X-73514706Y149250D01*
X-73508462Y201743D01*
X-73507600Y239951D01*
X-73508770Y295468D01*
X-73510242Y304800D01*
X-73482200Y304800D01*
X-73482200Y165100D01*
X-73425958Y165100D01*
X-73381059Y170152D01*
X-73351168Y183736D01*
X-73349758Y185058D01*
X-73334016Y214801D01*
X-73330709Y251983D01*
X-73340414Y283829D01*
X-73345040Y289560D01*
X-73366117Y298619D01*
X-73402009Y304078D01*
X-73421240Y304800D01*
X-73482200Y304800D01*
X-73510242Y304800D01*
X-73514868Y334115D01*
X-73529779Y358939D01*
X-73557390Y372989D01*
X-73601584Y379314D01*
X-73666248Y380962D01*
X-73687369Y381000D01*
X-73825100Y381000D01*
X-73901300Y381000D01*
X-73901300Y800100D01*
X-73825100Y800100D01*
X-73825100Y508000D01*
X-73689576Y508000D01*
X-73625014Y508811D01*
X-73580890Y511675D01*
X-73552281Y517246D01*
X-73534263Y526176D01*
X-73530826Y529019D01*
X-73518318Y545648D01*
X-73511123Y571495D01*
X-73508014Y612775D01*
X-73507600Y646843D01*
X-73508791Y707342D01*
X-73511220Y723900D01*
X-73482200Y723900D01*
X-73482200Y584200D01*
X-73421240Y584200D01*
X-73382001Y587205D01*
X-73352558Y594813D01*
X-73345040Y599440D01*
X-73331925Y627882D01*
X-73331968Y664916D01*
X-73344593Y697770D01*
X-73349758Y703943D01*
X-73378132Y718083D01*
X-73422202Y723869D01*
X-73425958Y723900D01*
X-73482200Y723900D01*
X-73511220Y723900D01*
X-73514962Y749395D01*
X-73530010Y776349D01*
X-73557832Y791549D01*
X-73602325Y798340D01*
X-73667387Y800067D01*
X-73686121Y800100D01*
X-73825100Y800100D01*
X-73901300Y800100D01*
X-73901300Y876300D01*
X-72783700Y876300D01*
X-72783700Y-1346200D01*
X-72276122Y-1346200D01*
X-72269350Y-681100D01*
X-71958683Y-1013650D01*
X-71648015Y-1346200D01*
X-71041065Y-1346200D01*
X-71114468Y-1266825D01*
X-71140253Y-1239440D01*
X-71181265Y-1196510D01*
X-71234977Y-1140653D01*
X-71298861Y-1074485D01*
X-71370390Y-1000626D01*
X-71447035Y-921694D01*
X-71525411Y-841187D01*
X-71601065Y-763401D01*
X-71670993Y-691160D01*
X-71733239Y-626513D01*
X-71785845Y-571509D01*
X-71826852Y-528194D01*
X-71854302Y-498619D01*
X-71866239Y-484831D01*
X-71866573Y-484244D01*
X-71858404Y-473535D01*
X-71833569Y-447373D01*
X-71793982Y-407624D01*
X-71741552Y-356159D01*
X-71678191Y-294847D01*
X-71605810Y-225555D01*
X-71526321Y-150154D01*
X-71486858Y-112956D01*
X-71103521Y247650D01*
X-71393991Y251071D01*
X-71642685Y254000D01*
X-70840600Y254000D01*
X-70840600Y-1346200D01*
X-70332600Y-1346200D01*
X-70332600Y254000D01*
X-70041198Y254000D01*
X-70034150Y-107950D01*
X-69910325Y-111584D01*
X-69786500Y-115219D01*
X-69786280Y-448134D01*
X-69785735Y-545196D01*
X-69784319Y-640710D01*
X-69782174Y-729614D01*
X-69779440Y-806848D01*
X-69776257Y-867352D01*
X-69773792Y-897483D01*
X-69755390Y-1012180D01*
X-69725859Y-1105738D01*
X-69683869Y-1180452D01*
X-69628089Y-1238617D01*
X-69557192Y-1282527D01*
X-69548319Y-1286628D01*
X-69504803Y-1304009D01*
X-69458255Y-1317629D01*
X-69404930Y-1327927D01*
X-69341086Y-1335340D01*
X-69262980Y-1340307D01*
X-69166868Y-1343266D01*
X-69053075Y-1344632D01*
X-68795900Y-1346200D01*
X-68795900Y-977900D01*
X-68983225Y-977852D01*
X-69071842Y-976673D01*
X-69138667Y-972368D01*
X-69187240Y-963710D01*
X-69221099Y-949473D01*
X-69243782Y-928427D01*
X-69258828Y-899348D01*
X-69264950Y-880135D01*
X-69268894Y-852847D01*
X-69272286Y-803102D01*
X-69272404Y-800100D01*
X-68376800Y-800100D01*
X-68376800Y-1346200D01*
X-67868800Y-1346200D01*
X-67868800Y-800100D01*
X-68376800Y-800100D01*
X-69272404Y-800100D01*
X-69275029Y-733838D01*
X-69277025Y-647992D01*
X-69278177Y-548505D01*
X-69278430Y-473075D01*
X-69278476Y-237193D01*
X-67406451Y-237193D01*
X-67399273Y-301663D01*
X-67383930Y-374306D01*
X-67364601Y-429965D01*
X-67337481Y-477053D01*
X-67298783Y-523970D01*
X-67245317Y-571820D01*
X-67178580Y-612550D01*
X-67096042Y-647080D01*
X-66995177Y-676335D01*
X-66873456Y-701235D01*
X-66768675Y-717371D01*
X-66679625Y-730276D01*
X-66611996Y-741920D01*
X-66561916Y-753366D01*
X-66525511Y-765675D01*
X-66498910Y-779907D01*
X-66478450Y-796914D01*
X-66451483Y-840345D01*
X-66444522Y-891351D01*
X-66457390Y-942082D01*
X-66482494Y-977847D01*
X-66531551Y-1010772D01*
X-66600308Y-1033598D01*
X-66685233Y-1046490D01*
X-66782789Y-1049610D01*
X-66889444Y-1043123D01*
X-67001662Y-1027191D01*
X-67115911Y-1001979D01*
X-67228656Y-967651D01*
X-67300800Y-939964D01*
X-67386850Y-903892D01*
X-67379850Y-1289050D01*
X-67252850Y-1317623D01*
X-67122157Y-1344810D01*
X-67006196Y-1363531D01*
X-66896100Y-1374709D01*
X-66783002Y-1379267D01*
X-66668650Y-1378406D01*
X-66570074Y-1374765D01*
X-66491329Y-1368972D01*
X-66426900Y-1360465D01*
X-66371268Y-1348684D01*
X-66368053Y-1347852D01*
X-66256201Y-1311772D01*
X-66165929Y-1266855D01*
X-66094338Y-1211044D01*
X-66038529Y-1142281D01*
X-66012058Y-1095265D01*
X-65993885Y-1056979D01*
X-65981916Y-1025590D01*
X-65974875Y-994000D01*
X-65971487Y-955111D01*
X-65970477Y-901827D01*
X-65970473Y-863823D01*
X-65971340Y-796048D01*
X-65974236Y-746803D01*
X-65980127Y-709241D01*
X-65989980Y-676514D01*
X-66000487Y-651166D01*
X-66034310Y-590377D01*
X-66078743Y-538179D01*
X-66136046Y-493489D01*
X-66208478Y-455227D01*
X-66298297Y-422312D01*
X-66407762Y-393662D01*
X-66539133Y-368196D01*
X-66617850Y-355705D01*
X-66707379Y-341941D01*
X-66775573Y-330262D01*
X-66826309Y-319690D01*
X-66863466Y-309247D01*
X-66890924Y-297953D01*
X-66912561Y-284832D01*
X-66919457Y-279642D01*
X-66948839Y-242221D01*
X-66958760Y-196553D01*
X-66950209Y-149455D01*
X-66924179Y-107741D01*
X-66890810Y-82503D01*
X-66826357Y-60268D01*
X-66742969Y-48816D01*
X-66644502Y-47720D01*
X-66534812Y-56552D01*
X-66417757Y-74885D01*
X-66297192Y-102292D01*
X-66176975Y-138345D01*
X-66087625Y-171504D01*
X-66079085Y-173249D01*
X-66073056Y-168060D01*
X-66069107Y-152392D01*
X-66066805Y-122701D01*
X-66065716Y-75445D01*
X-66065407Y-7079D01*
X-66065400Y10324D01*
X-66065400Y201165D01*
X-66151686Y220790D01*
X-66284549Y248449D01*
X-66319933Y254000D01*
X-65570100Y254000D01*
X-65570100Y-1955800D01*
X-65062100Y-1955800D01*
X-65062100Y-1609558D01*
X-58013600Y-1609558D01*
X-58001718Y-1610865D01*
X-57969315Y-1611418D01*
X-57921264Y-1611200D01*
X-57862434Y-1610194D01*
X-57858995Y-1610115D01*
X-57704390Y-1606550D01*
X-57332276Y-419100D01*
X-57279773Y-251471D01*
X-57229470Y-90692D01*
X-57181882Y61580D01*
X-57137524Y203689D01*
X-57121842Y254000D01*
X-56705500Y254000D01*
X-56705500Y-1346200D01*
X-56198983Y-1346200D01*
X-56194666Y-898525D01*
X-56193376Y-777461D01*
X-56191975Y-678966D01*
X-56190312Y-600205D01*
X-56188234Y-538347D01*
X-56185588Y-490559D01*
X-56182222Y-454008D01*
X-56177983Y-425862D01*
X-56172720Y-403289D01*
X-56167069Y-385641D01*
X-56123121Y-295656D01*
X-56062180Y-220915D01*
X-55987398Y-165164D01*
X-55976601Y-159392D01*
X-55937549Y-140803D01*
X-55903758Y-129516D01*
X-55866402Y-123784D01*
X-55816653Y-121862D01*
X-55786463Y-121778D01*
X-55706029Y-125014D01*
X-55641302Y-135094D01*
X-55597425Y-147965D01*
X-55524400Y-173857D01*
X-55524400Y254000D01*
X-55270400Y254000D01*
X-55270180Y-301625D01*
X-55269961Y-448824D01*
X-55269283Y-573197D01*
X-55267927Y-677314D01*
X-55265672Y-763747D01*
X-55262298Y-835068D01*
X-55257585Y-893847D01*
X-55251312Y-942658D01*
X-55243260Y-984071D01*
X-55233208Y-1020657D01*
X-55220935Y-1054990D01*
X-55206222Y-1089640D01*
X-55201877Y-1099221D01*
X-55162481Y-1166601D01*
X-55109481Y-1231511D01*
X-55049829Y-1286495D01*
X-54993463Y-1322682D01*
X-54890850Y-1360025D01*
X-54777610Y-1380110D01*
X-54662506Y-1382084D01*
X-54555305Y-1365355D01*
X-54464495Y-1334792D01*
X-54382564Y-1291120D01*
X-54301988Y-1229981D01*
X-54267125Y-1198410D01*
X-54178200Y-1114523D01*
X-54178200Y-1346200D01*
X-53670200Y-1346200D01*
X-53670200Y254000D01*
X-54176799Y254000D01*
X-54180781Y-225425D01*
X-54181860Y-348852D01*
X-54182950Y-449633D01*
X-54184213Y-530520D01*
X-54185811Y-594264D01*
X-54187903Y-643619D01*
X-54190653Y-681337D01*
X-54194220Y-710170D01*
X-54198767Y-732872D01*
X-54204454Y-752194D01*
X-54211444Y-770889D01*
X-54212974Y-774700D01*
X-54257844Y-862298D01*
X-54313145Y-927161D01*
X-54380216Y-970270D01*
X-54460398Y-992609D01*
X-54515625Y-996453D01*
X-54567810Y-995191D01*
X-54604516Y-989162D01*
X-54635545Y-976049D01*
X-54656515Y-963158D01*
X-54679286Y-947847D01*
X-54698283Y-933110D01*
X-54713867Y-916605D01*
X-54726397Y-895989D01*
X-54736231Y-868918D01*
X-54743729Y-833049D01*
X-54749250Y-786041D01*
X-54753153Y-725549D01*
X-54755797Y-649230D01*
X-54757541Y-554743D01*
X-54758744Y-439743D01*
X-54759766Y-301887D01*
X-54759857Y-288925D01*
X-54763664Y254000D01*
X-55270400Y254000D01*
X-55524400Y254000D01*
X-55524400Y277573D01*
X-55597152Y286663D01*
X-55682651Y289033D01*
X-55777344Y278104D01*
X-55870048Y255740D01*
X-55937150Y229980D01*
X-56021962Y178664D01*
X-56102733Y106246D01*
X-56156252Y44450D01*
X-56196649Y-6350D01*
X-56197075Y123825D01*
X-56197500Y254000D01*
X-56705500Y254000D01*
X-57121842Y254000D01*
X-57096912Y333976D01*
X-57060561Y450786D01*
X-57028986Y552462D01*
X-57002704Y637345D01*
X-56982229Y703779D01*
X-56968076Y750108D01*
X-56960762Y774674D01*
X-56959831Y778266D01*
X-56971577Y781797D01*
X-57003846Y784178D01*
X-57051778Y785209D01*
X-57110511Y784689D01*
X-57113738Y784616D01*
X-57267975Y781050D01*
X-57640788Y-412192D01*
X-57693241Y-580118D01*
X-57743498Y-741092D01*
X-57791048Y-893473D01*
X-57835378Y-1035617D01*
X-57875977Y-1165881D01*
X-57912334Y-1282621D01*
X-57943936Y-1384195D01*
X-57970273Y-1468960D01*
X-57990833Y-1535272D01*
X-58005103Y-1581487D01*
X-58012573Y-1605964D01*
X-58013600Y-1609558D01*
X-65062100Y-1609558D01*
X-65062100Y-1118070D01*
X-64982558Y-1197210D01*
X-64898604Y-1270440D01*
X-64813163Y-1322690D01*
X-64719526Y-1357837D01*
X-64692700Y-1364725D01*
X-64563764Y-1383517D01*
X-64441299Y-1378547D01*
X-64326683Y-1350940D01*
X-64221295Y-1301818D01*
X-64126512Y-1232305D01*
X-64043715Y-1143524D01*
X-63974280Y-1036598D01*
X-63919586Y-912650D01*
X-63916820Y-902622D01*
X-63585838Y-902622D01*
X-63571389Y-1009593D01*
X-63539954Y-1100621D01*
X-63489531Y-1180274D01*
X-63441307Y-1232236D01*
X-63349409Y-1302011D01*
X-63244267Y-1350828D01*
X-63127586Y-1378265D01*
X-63001070Y-1383901D01*
X-62883208Y-1370535D01*
X-62772761Y-1338828D01*
X-62673349Y-1285407D01*
X-62582266Y-1208783D01*
X-62574411Y-1200725D01*
X-62538732Y-1164135D01*
X-62510027Y-1135760D01*
X-62492511Y-1119714D01*
X-62489295Y-1117600D01*
X-62486963Y-1129354D01*
X-62485156Y-1160841D01*
X-62484134Y-1206391D01*
X-62484000Y-1231900D01*
X-62484000Y-1346200D01*
X-61976000Y-1346200D01*
X-61976252Y-854075D01*
X-61976637Y-740605D01*
X-61977624Y-631665D01*
X-61979136Y-530684D01*
X-61979626Y-508280D01*
X-61607579Y-508280D01*
X-61605622Y-611464D01*
X-61596915Y-712342D01*
X-61581822Y-802882D01*
X-61565535Y-862072D01*
X-61509629Y-985682D01*
X-61433721Y-1094298D01*
X-61338896Y-1187088D01*
X-61226237Y-1263221D01*
X-61096830Y-1321863D01*
X-60951758Y-1362184D01*
X-60902356Y-1371057D01*
X-60835394Y-1377554D01*
X-60751349Y-1379719D01*
X-60658101Y-1377906D01*
X-60563533Y-1372469D01*
X-60475525Y-1363762D01*
X-60401958Y-1352138D01*
X-60382150Y-1347712D01*
X-60329614Y-1334182D01*
X-60282563Y-1321070D01*
X-60249737Y-1310832D01*
X-60245625Y-1309337D01*
X-60210700Y-1296028D01*
X-60210700Y-889559D01*
X-60271025Y-927907D01*
X-60360660Y-972696D01*
X-60463129Y-1003669D01*
X-60571517Y-1020044D01*
X-60678912Y-1021038D01*
X-60778401Y-1005867D01*
X-60826171Y-990768D01*
X-60912008Y-944554D01*
X-60981326Y-879498D01*
X-61033480Y-796590D01*
X-61067824Y-696816D01*
X-61082634Y-598136D01*
X-61082377Y-546100D01*
X-59870114Y-546100D01*
X-59862730Y-693876D01*
X-59839113Y-824020D01*
X-59798294Y-939203D01*
X-59739304Y-1042095D01*
X-59661173Y-1135367D01*
X-59653367Y-1143186D01*
X-59548125Y-1229556D01*
X-59426454Y-1297623D01*
X-59290545Y-1346354D01*
X-59167678Y-1371495D01*
X-59088283Y-1378399D01*
X-58991564Y-1380141D01*
X-58884987Y-1377100D01*
X-58776017Y-1369654D01*
X-58672118Y-1358182D01*
X-58580756Y-1343062D01*
X-58572400Y-1341322D01*
X-58503290Y-1325620D01*
X-58432792Y-1307954D01*
X-58370662Y-1290847D01*
X-58337450Y-1280581D01*
X-58248550Y-1250950D01*
X-58245051Y-1058370D01*
X-58241551Y-865790D01*
X-58372051Y-923307D01*
X-58502504Y-975747D01*
X-58622036Y-1012239D01*
X-58737991Y-1034486D01*
X-58857713Y-1044194D01*
X-58896250Y-1044920D01*
X-58994270Y-1042200D01*
X-59073239Y-1031714D01*
X-59138730Y-1011942D01*
X-59196313Y-981366D01*
X-59235168Y-952498D01*
X-59275752Y-907990D01*
X-59312949Y-847733D01*
X-59341553Y-781316D01*
X-59354197Y-733425D01*
X-59362627Y-685800D01*
X-58166000Y-685800D01*
X-58166000Y-559917D01*
X-58176258Y-401044D01*
X-58206692Y-256426D01*
X-58256792Y-126781D01*
X-58326048Y-12828D01*
X-58413950Y84717D01*
X-58519988Y165133D01*
X-58643653Y227702D01*
X-58750200Y263170D01*
X-58819303Y275943D01*
X-58905590Y283251D01*
X-59001465Y285197D01*
X-59099331Y281887D01*
X-59191590Y273425D01*
X-59270646Y259916D01*
X-59287417Y255773D01*
X-59424030Y207292D01*
X-59545627Y139107D01*
X-59650848Y51982D01*
X-59651900Y50930D01*
X-59730976Y-40837D01*
X-59791108Y-140145D01*
X-59833488Y-250255D01*
X-59859309Y-374430D01*
X-59869764Y-515935D01*
X-59870114Y-546100D01*
X-61082377Y-546100D01*
X-61082028Y-475668D01*
X-61061038Y-367141D01*
X-61019994Y-273241D01*
X-60959226Y-194656D01*
X-60879064Y-132075D01*
X-60852050Y-116922D01*
X-60816457Y-100618D01*
X-60780206Y-89952D01*
X-60735541Y-83376D01*
X-60674706Y-79339D01*
X-60660784Y-78736D01*
X-60548537Y-79992D01*
X-60450652Y-94941D01*
X-60359074Y-125330D01*
X-60289860Y-159207D01*
X-60210072Y-203064D01*
X-60217050Y209194D01*
X-60299600Y231944D01*
X-60466397Y268133D01*
X-60634367Y285963D01*
X-60798137Y285268D01*
X-60952333Y265880D01*
X-61006117Y253876D01*
X-61146157Y206918D01*
X-61269668Y141469D01*
X-61375717Y58459D01*
X-61463369Y-41183D01*
X-61531691Y-156526D01*
X-61579748Y-286640D01*
X-61589787Y-327121D01*
X-61602422Y-410822D01*
X-61607579Y-508280D01*
X-61979626Y-508280D01*
X-61981098Y-441090D01*
X-61983432Y-366313D01*
X-61986064Y-309782D01*
X-61988916Y-274926D01*
X-61989170Y-273050D01*
X-62015632Y-144725D01*
X-62056535Y-35780D01*
X-62113358Y55308D01*
X-62187579Y130060D01*
X-62280679Y190000D01*
X-62394137Y236649D01*
X-62515750Y268712D01*
X-62562882Y275266D01*
X-62629581Y279988D01*
X-62710080Y282878D01*
X-62798613Y283935D01*
X-62889415Y283160D01*
X-62976717Y280551D01*
X-63054753Y276107D01*
X-63117757Y269830D01*
X-63125350Y268760D01*
X-63189471Y258788D01*
X-63263480Y246550D01*
X-63332320Y234543D01*
X-63338075Y233499D01*
X-63449200Y213262D01*
X-63449200Y22722D01*
X-63449000Y-50469D01*
X-63448109Y-101808D01*
X-63446093Y-134841D01*
X-63442518Y-153114D01*
X-63436949Y-160173D01*
X-63428954Y-159565D01*
X-63426975Y-158815D01*
X-63310821Y-114937D01*
X-63207486Y-83665D01*
X-63108798Y-63303D01*
X-63006585Y-52154D01*
X-62895625Y-48534D01*
X-62791950Y-50994D01*
X-62709117Y-60139D01*
X-62643207Y-76971D01*
X-62590306Y-102496D01*
X-62546496Y-137717D01*
X-62546073Y-138139D01*
X-62511475Y-180512D01*
X-62493671Y-225598D01*
X-62490223Y-244075D01*
X-62486620Y-282008D01*
X-62487705Y-309934D01*
X-62489793Y-316598D01*
X-62506123Y-322009D01*
X-62547196Y-326082D01*
X-62612388Y-328784D01*
X-62701077Y-330081D01*
X-62743436Y-330200D01*
X-62881813Y-332222D01*
X-62998865Y-338589D01*
X-63098370Y-349755D01*
X-63184105Y-366170D01*
X-63259844Y-388287D01*
X-63275346Y-393890D01*
X-63378103Y-443688D01*
X-63460394Y-508526D01*
X-63522214Y-588399D01*
X-63563560Y-683302D01*
X-63584428Y-793229D01*
X-63585838Y-902622D01*
X-63916820Y-902622D01*
X-63881012Y-772804D01*
X-63867533Y-692305D01*
X-63857621Y-536836D01*
X-63868778Y-385513D01*
X-63900145Y-241413D01*
X-63950859Y-107612D01*
X-64020060Y12812D01*
X-64088734Y98076D01*
X-64179271Y177311D01*
X-64280804Y235494D01*
X-64390107Y272623D01*
X-64503959Y288694D01*
X-64619135Y283703D01*
X-64732413Y257646D01*
X-64840569Y210521D01*
X-64940380Y142323D01*
X-64987392Y99061D01*
X-65062100Y23184D01*
X-65062100Y254000D01*
X-65570100Y254000D01*
X-66319933Y254000D01*
X-66404574Y267278D01*
X-66522260Y278481D01*
X-66648106Y283259D01*
X-66700400Y283640D01*
X-66846710Y279197D01*
X-66971497Y265319D01*
X-67077058Y241389D01*
X-67165690Y206794D01*
X-67239688Y160918D01*
X-67276173Y129512D01*
X-67335001Y55924D01*
X-67377276Y-33063D01*
X-67401570Y-132438D01*
X-67406451Y-237193D01*
X-69278476Y-237193D01*
X-69278500Y-114300D01*
X-68745100Y-114300D01*
X-68745100Y254000D01*
X-69278500Y254000D01*
X-69278500Y711737D01*
X-69529325Y708294D01*
X-69780150Y704850D01*
X-69783619Y479425D01*
X-69787087Y254000D01*
X-70041198Y254000D01*
X-70332600Y254000D01*
X-70840600Y254000D01*
X-71642685Y254000D01*
X-71684460Y254492D01*
X-71980080Y-40927D01*
X-72275700Y-336347D01*
X-72275700Y876300D01*
X-70840600Y876300D01*
X-70840600Y469900D01*
X-70332600Y469900D01*
X-70332600Y876300D01*
X-53174900Y876300D01*
X-53174900Y-1346200D01*
X-52666900Y-1346200D01*
X-52666900Y-480264D01*
X-52281845Y-480264D01*
X-52281357Y-606463D01*
X-52265122Y-746388D01*
X-52234555Y-868063D01*
X-52188163Y-975153D01*
X-52124452Y-1071323D01*
X-52064822Y-1138073D01*
X-51963873Y-1224095D01*
X-51850912Y-1290789D01*
X-51723190Y-1339477D01*
X-51580556Y-1371077D01*
X-51520219Y-1376941D01*
X-51441462Y-1379303D01*
X-51350987Y-1378434D01*
X-51255492Y-1374607D01*
X-51161675Y-1368095D01*
X-51076238Y-1359171D01*
X-51005877Y-1348108D01*
X-51003200Y-1347569D01*
X-50932095Y-1331492D01*
X-50852979Y-1311126D01*
X-50780837Y-1290371D01*
X-50768250Y-1286417D01*
X-50653950Y-1249805D01*
X-50650445Y-1056702D01*
X-50649666Y-989936D01*
X-50649832Y-933171D01*
X-50650862Y-890765D01*
X-50652679Y-867076D01*
X-50653937Y-863600D01*
X-50667875Y-868902D01*
X-50698306Y-882917D01*
X-50739101Y-902805D01*
X-50746343Y-906423D01*
X-50906455Y-973521D01*
X-51079388Y-1021395D01*
X-51168300Y-1037487D01*
X-51299393Y-1048965D01*
X-51416671Y-1042502D01*
X-51518987Y-1018677D01*
X-51605192Y-978074D01*
X-51674139Y-921274D01*
X-51724678Y-848857D01*
X-51755661Y-761407D01*
X-51760137Y-737765D01*
X-51768447Y-685800D01*
X-50567751Y-685800D01*
X-50575032Y-523875D01*
X-50586184Y-389832D01*
X-50607745Y-274444D01*
X-50641451Y-172493D01*
X-50689039Y-78758D01*
X-50752243Y11977D01*
X-50753999Y14203D01*
X-50811915Y74903D01*
X-50886365Y134705D01*
X-50968956Y187832D01*
X-51051296Y228504D01*
X-51081612Y239771D01*
X-51139551Y254000D01*
X-50177700Y254000D01*
X-50177700Y-1346200D01*
X-49671150Y-1346200D01*
X-49663350Y-425450D01*
X-49627397Y-347648D01*
X-49574729Y-260218D01*
X-49506588Y-192786D01*
X-49434750Y-150169D01*
X-49370923Y-130824D01*
X-49292299Y-121566D01*
X-49207411Y-122435D01*
X-49124791Y-133474D01*
X-49069625Y-148389D01*
X-48996600Y-173857D01*
X-48996600Y276474D01*
X-49067833Y285374D01*
X-49192456Y288818D01*
X-49311523Y268301D01*
X-49422461Y224978D01*
X-49522698Y160004D01*
X-49609661Y74534D01*
X-49646809Y25286D01*
X-49656478Y12239D01*
X-49662747Y9501D01*
X-49666389Y20498D01*
X-49668176Y48654D01*
X-49668880Y97396D01*
X-49669034Y123825D01*
X-49669700Y254000D01*
X-50177700Y254000D01*
X-51139551Y254000D01*
X-51220310Y273833D01*
X-51367085Y288428D01*
X-51516279Y283968D01*
X-51662230Y260859D01*
X-51799277Y219513D01*
X-51883317Y181802D01*
X-51993802Y110523D01*
X-52088011Y20946D01*
X-52164932Y-84924D01*
X-52223552Y-205085D01*
X-52262860Y-337533D01*
X-52281845Y-480264D01*
X-52666900Y-480264D01*
X-52666900Y876300D01*
X-53174900Y876300D01*
X-70332600Y876300D01*
X-70840600Y876300D01*
X-72275700Y876300D01*
X-72783700Y876300D01*
X-73901300Y876300D01*
X-73901300Y1219200D01*
X-73825100Y1219200D01*
X-73825100Y914400D01*
X-73691750Y914400D01*
X-73630316Y914971D01*
X-73588834Y917261D01*
X-73561871Y922141D01*
X-73543992Y930479D01*
X-73533000Y939800D01*
X-73519784Y957267D01*
X-73512019Y981271D01*
X-73508398Y1018347D01*
X-73507600Y1066800D01*
X-73508998Y1126219D01*
X-73509659Y1130300D01*
X-73482200Y1130300D01*
X-73482200Y1003300D01*
X-73421240Y1003300D01*
X-73382001Y1006305D01*
X-73352558Y1013913D01*
X-73345040Y1018540D01*
X-73333305Y1042289D01*
X-73329800Y1066800D01*
X-73336263Y1101089D01*
X-73358073Y1121190D01*
X-73398862Y1129627D01*
X-73421240Y1130300D01*
X-73482200Y1130300D01*
X-73509659Y1130300D01*
X-73515739Y1167808D01*
X-73531649Y1194732D01*
X-73560550Y1210155D01*
X-73606269Y1217242D01*
X-73672627Y1219158D01*
X-73691750Y1219200D01*
X-73825100Y1219200D01*
X-73901300Y1219200D01*
X-73901300Y1625600D01*
X-73825100Y1625600D01*
X-73825100Y1333500D01*
X-73686121Y1333500D01*
X-73624570Y1333865D01*
X-73583312Y1335563D01*
X-73557245Y1339502D01*
X-73541264Y1346589D01*
X-73530268Y1357732D01*
X-73527371Y1361726D01*
X-73514706Y1393850D01*
X-73508462Y1446343D01*
X-73507600Y1484551D01*
X-73508770Y1540068D01*
X-73510242Y1549400D01*
X-73482200Y1549400D01*
X-73482200Y1409700D01*
X-73425958Y1409700D01*
X-73381059Y1414752D01*
X-73351168Y1428336D01*
X-73349758Y1429658D01*
X-73334016Y1459401D01*
X-73330709Y1496583D01*
X-73340414Y1528429D01*
X-73345040Y1534160D01*
X-73366117Y1543219D01*
X-73402009Y1548678D01*
X-73421240Y1549400D01*
X-73482200Y1549400D01*
X-73510242Y1549400D01*
X-73514868Y1578715D01*
X-73529779Y1603539D01*
X-73557390Y1617589D01*
X-73601584Y1623914D01*
X-73666248Y1625562D01*
X-73687369Y1625600D01*
X-73825100Y1625600D01*
X-73901300Y1625600D01*
X-73901300Y1681883D01*
X-73971150Y1612900D01*
X-74041000Y1543918D01*
X-74041000Y-537827D01*
X-74072675Y-508071D01*
X-74104349Y-478315D01*
X-74107600Y526018D01*
X-74110850Y1530350D01*
X-75612625Y1533578D01*
X-77114400Y1536805D01*
X-77114400Y-1473200D01*
X-74828400Y-1473200D01*
X-74828400Y-1549400D01*
X-77134318Y-1549400D01*
X-77203300Y-1619250D01*
X-77272283Y-1689100D01*
X-83134200Y-1689100D01*
X-83134200Y-1388114D01*
X-77899395Y-1388114D01*
X-77891411Y-1416050D01*
X-77880120Y-1434521D01*
X-77862941Y-1444040D01*
X-77832245Y-1447470D01*
X-77806823Y-1447800D01*
X-77736700Y-1447800D01*
X-77736700Y-1381844D01*
X-77717650Y-1381844D01*
X-77716332Y-1441937D01*
X-77709836Y-1484086D01*
X-77694355Y-1511461D01*
X-77666080Y-1527231D01*
X-77621201Y-1534565D01*
X-77555910Y-1536633D01*
X-77531532Y-1536700D01*
X-77393800Y-1536700D01*
X-77393800Y-1231900D01*
X-77525744Y-1231900D01*
X-77599336Y-1233140D01*
X-77651304Y-1238807D01*
X-77685379Y-1251814D01*
X-77705294Y-1275078D01*
X-77714778Y-1311513D01*
X-77717563Y-1364035D01*
X-77717650Y-1381844D01*
X-77736700Y-1381844D01*
X-77736700Y-1320800D01*
X-77806823Y-1320800D01*
X-77848212Y-1322101D01*
X-77871884Y-1327916D01*
X-77885471Y-1341107D01*
X-77891411Y-1352550D01*
X-77899395Y-1388114D01*
X-83134200Y-1388114D01*
X-83134200Y-958021D01*
X-77900169Y-958021D01*
X-77892469Y-995540D01*
X-77882030Y-1013174D01*
X-77863835Y-1031160D01*
X-77836754Y-1039567D01*
X-77799480Y-1041400D01*
X-77736700Y-1041400D01*
X-77736700Y-963162D01*
X-77722269Y-963162D01*
X-77721595Y-1011549D01*
X-77718783Y-1033479D01*
X-77710372Y-1067610D01*
X-77697285Y-1091066D01*
X-77675162Y-1105820D01*
X-77639641Y-1113840D01*
X-77586361Y-1117097D01*
X-77532593Y-1117600D01*
X-77393800Y-1117600D01*
X-77393800Y-825500D01*
X-77538295Y-825500D01*
X-77607066Y-826399D01*
X-77654101Y-829365D01*
X-77683008Y-834799D01*
X-77697398Y-843102D01*
X-77697485Y-843205D01*
X-77709201Y-869942D01*
X-77717800Y-912944D01*
X-77722269Y-963162D01*
X-77736700Y-963162D01*
X-77736700Y-901700D01*
X-77796025Y-901700D01*
X-77850129Y-908743D01*
X-77885450Y-928303D01*
X-77900169Y-958021D01*
X-83134200Y-958021D01*
X-83134200Y-557892D01*
X-77901800Y-557892D01*
X-77890902Y-592533D01*
X-77858580Y-614099D01*
X-77805396Y-622238D01*
X-77799293Y-622300D01*
X-77736700Y-622300D01*
X-77736700Y-534231D01*
X-77722614Y-534231D01*
X-77720762Y-584599D01*
X-77714239Y-632575D01*
X-77704059Y-669111D01*
X-77697485Y-680794D01*
X-77683227Y-689129D01*
X-77654488Y-694591D01*
X-77607661Y-697581D01*
X-77539135Y-698499D01*
X-77538295Y-698500D01*
X-77393800Y-698500D01*
X-77393800Y-406400D01*
X-77532593Y-406400D01*
X-77601920Y-407391D01*
X-77650242Y-411679D01*
X-77681921Y-421233D01*
X-77701318Y-438025D01*
X-77712794Y-464024D01*
X-77718783Y-490520D01*
X-77722614Y-534231D01*
X-77736700Y-534231D01*
X-77736700Y-482600D01*
X-77793850Y-482600D01*
X-77844851Y-490629D01*
X-77881921Y-512599D01*
X-77900503Y-545329D01*
X-77901800Y-557892D01*
X-83134200Y-557892D01*
X-83134200Y-143514D01*
X-77899395Y-143514D01*
X-77891411Y-171450D01*
X-77880120Y-189921D01*
X-77862941Y-199440D01*
X-77832245Y-202870D01*
X-77806823Y-203200D01*
X-77736700Y-203200D01*
X-77736700Y-137244D01*
X-77717650Y-137244D01*
X-77716332Y-197337D01*
X-77709836Y-239486D01*
X-77694355Y-266861D01*
X-77666080Y-282631D01*
X-77621201Y-289965D01*
X-77555910Y-292033D01*
X-77531532Y-292100D01*
X-77393800Y-292100D01*
X-77393800Y12700D01*
X-77525744Y12700D01*
X-77599336Y11460D01*
X-77651304Y5793D01*
X-77685379Y-7214D01*
X-77705294Y-30478D01*
X-77714778Y-66913D01*
X-77717563Y-119435D01*
X-77717650Y-137244D01*
X-77736700Y-137244D01*
X-77736700Y-76200D01*
X-77806823Y-76200D01*
X-77848212Y-77501D01*
X-77871884Y-83316D01*
X-77885471Y-96507D01*
X-77891411Y-107950D01*
X-77899395Y-143514D01*
X-83134200Y-143514D01*
X-83134200Y22659D01*
X-77330300Y22659D01*
X-77330300Y-1631082D01*
X-77260450Y-1562100D01*
X-77190600Y-1493117D01*
X-77190600Y1554878D01*
X-77250448Y1615639D01*
X-77282125Y1646394D01*
X-77307279Y1668248D01*
X-77320298Y1676400D01*
X-77321524Y1663949D01*
X-77322707Y1627587D01*
X-77323838Y1568806D01*
X-77324908Y1489094D01*
X-77325907Y1389943D01*
X-77326828Y1272841D01*
X-77327660Y1139280D01*
X-77328395Y990749D01*
X-77329023Y828738D01*
X-77329537Y654737D01*
X-77329926Y470236D01*
X-77330182Y276726D01*
X-77330295Y75695D01*
X-77330300Y22659D01*
X-83134200Y22659D01*
X-83134200Y286579D01*
X-77900169Y286579D01*
X-77892469Y249060D01*
X-77882030Y231426D01*
X-77863835Y213440D01*
X-77836754Y205033D01*
X-77799480Y203200D01*
X-77736700Y203200D01*
X-77736700Y281438D01*
X-77722269Y281438D01*
X-77721595Y233051D01*
X-77718783Y211121D01*
X-77710372Y176990D01*
X-77697285Y153534D01*
X-77675162Y138780D01*
X-77639641Y130760D01*
X-77586361Y127503D01*
X-77532593Y127000D01*
X-77393800Y127000D01*
X-77393800Y419100D01*
X-77538295Y419100D01*
X-77607066Y418201D01*
X-77654101Y415235D01*
X-77683008Y409801D01*
X-77697398Y401498D01*
X-77697485Y401395D01*
X-77709201Y374658D01*
X-77717800Y331656D01*
X-77722269Y281438D01*
X-77736700Y281438D01*
X-77736700Y342900D01*
X-77796025Y342900D01*
X-77850129Y335857D01*
X-77885450Y316297D01*
X-77900169Y286579D01*
X-83134200Y286579D01*
X-83134200Y692814D01*
X-77900743Y692814D01*
X-77896179Y659408D01*
X-77869857Y635603D01*
X-77823296Y623444D01*
X-77799293Y622300D01*
X-77736700Y622300D01*
X-77736700Y710369D01*
X-77722614Y710369D01*
X-77720762Y660001D01*
X-77714239Y612025D01*
X-77704059Y575489D01*
X-77697485Y563806D01*
X-77683227Y555471D01*
X-77654488Y550009D01*
X-77607661Y547019D01*
X-77539135Y546101D01*
X-77538295Y546100D01*
X-77393800Y546100D01*
X-77393800Y838200D01*
X-77532593Y838200D01*
X-77601920Y837209D01*
X-77650242Y832921D01*
X-77681921Y823367D01*
X-77701318Y806575D01*
X-77712794Y780576D01*
X-77718783Y754080D01*
X-77722614Y710369D01*
X-77736700Y710369D01*
X-77736700Y762000D01*
X-77799480Y762000D01*
X-77841248Y759484D01*
X-77866621Y749956D01*
X-77882030Y733775D01*
X-77900743Y692814D01*
X-83134200Y692814D01*
X-83134200Y1101086D01*
X-77899395Y1101086D01*
X-77891411Y1073150D01*
X-77880120Y1054679D01*
X-77862941Y1045160D01*
X-77832245Y1041730D01*
X-77806823Y1041400D01*
X-77736700Y1041400D01*
X-77736700Y1107356D01*
X-77717650Y1107356D01*
X-77716332Y1047263D01*
X-77709836Y1005114D01*
X-77694355Y977739D01*
X-77666080Y961969D01*
X-77621201Y954635D01*
X-77555910Y952567D01*
X-77531532Y952500D01*
X-77393800Y952500D01*
X-77393800Y1257300D01*
X-77525744Y1257300D01*
X-77599336Y1256060D01*
X-77651304Y1250393D01*
X-77685379Y1237386D01*
X-77705294Y1214122D01*
X-77714778Y1177687D01*
X-77717563Y1125165D01*
X-77717650Y1107356D01*
X-77736700Y1107356D01*
X-77736700Y1168400D01*
X-77806823Y1168400D01*
X-77848212Y1167099D01*
X-77871884Y1161284D01*
X-77885471Y1148093D01*
X-77891411Y1136650D01*
X-77899395Y1101086D01*
X-83134200Y1101086D01*
X-83134200Y1531398D01*
X-77901624Y1531398D01*
X-77892423Y1493220D01*
X-77882030Y1476026D01*
X-77863835Y1458040D01*
X-77836754Y1449633D01*
X-77799480Y1447800D01*
X-77736700Y1447800D01*
X-77736700Y1526038D01*
X-77722269Y1526038D01*
X-77721595Y1477651D01*
X-77718783Y1455721D01*
X-77710372Y1421590D01*
X-77697285Y1398134D01*
X-77675162Y1383380D01*
X-77639641Y1375360D01*
X-77586361Y1372103D01*
X-77532593Y1371600D01*
X-77393800Y1371600D01*
X-77393800Y1663700D01*
X-77538295Y1663700D01*
X-77607066Y1662801D01*
X-77654101Y1659835D01*
X-77683008Y1654401D01*
X-77697398Y1646098D01*
X-77697485Y1645995D01*
X-77709201Y1619258D01*
X-77717800Y1576256D01*
X-77722269Y1526038D01*
X-77736700Y1526038D01*
X-77736700Y1587500D01*
X-77799293Y1587500D01*
X-77853540Y1580585D01*
X-77888157Y1561202D01*
X-77901624Y1531398D01*
X-83134200Y1531398D01*
X-83134200Y1739900D01*
X-77272283Y1739900D01*
X-77203300Y1670050D01*
X-77134318Y1600200D01*
X-74084583Y1600200D01*
X-74015600Y1670050D01*
X-73946618Y1739900D01*
X-77272283Y1739900D01*
X-83134200Y1739900D01*
X-83134200Y1951567D01*
X-77216000Y1951567D01*
X-77215191Y1896113D01*
X-77213006Y1850422D01*
X-77209811Y1820271D01*
X-77207141Y1811475D01*
X-77191566Y1808206D01*
X-77156159Y1806148D01*
X-77106465Y1805500D01*
X-77057916Y1806183D01*
X-76917550Y1809750D01*
X-76917550Y1947482D01*
X-76796900Y1947482D01*
X-76796900Y1803400D01*
X-76504800Y1803400D01*
X-76504800Y1945275D01*
X-76504902Y1954938D01*
X-76377800Y1954938D01*
X-76377800Y1802569D01*
X-76234925Y1806160D01*
X-76092050Y1809750D01*
X-76088363Y1949450D01*
X-76088339Y1951567D01*
X-75971400Y1951567D01*
X-75970591Y1896113D01*
X-75968406Y1850422D01*
X-75965211Y1820271D01*
X-75962541Y1811475D01*
X-75946966Y1808206D01*
X-75911559Y1806148D01*
X-75861865Y1805500D01*
X-75813316Y1806183D01*
X-75672950Y1809750D01*
X-75669350Y1945850D01*
X-75669333Y1947482D01*
X-75552300Y1947482D01*
X-75552300Y1803400D01*
X-75260200Y1803400D01*
X-75260200Y1945275D01*
X-75260306Y1955354D01*
X-75133200Y1955354D01*
X-75133200Y1803400D01*
X-74841100Y1803400D01*
X-74841100Y1948730D01*
X-74841136Y1951567D01*
X-74726800Y1951567D01*
X-74725991Y1896113D01*
X-74723806Y1850422D01*
X-74720611Y1820271D01*
X-74717941Y1811475D01*
X-74702366Y1808206D01*
X-74666959Y1806148D01*
X-74617265Y1805500D01*
X-74568716Y1806183D01*
X-74428350Y1809750D01*
X-74424750Y1945850D01*
X-74424720Y1948730D01*
X-74307700Y1948730D01*
X-74307700Y1803400D01*
X-74015600Y1803400D01*
X-74015600Y1945275D01*
X-74016405Y2017956D01*
X-74020687Y2069045D01*
X-74031246Y2102340D01*
X-74050883Y2121641D01*
X-74082399Y2130747D01*
X-74128596Y2133456D01*
X-74154443Y2133600D01*
X-74214050Y2132509D01*
X-74255787Y2126680D01*
X-74282834Y2112280D01*
X-74298369Y2085473D01*
X-74305569Y2042426D01*
X-74307614Y1979305D01*
X-74307700Y1948730D01*
X-74424720Y1948730D01*
X-74423974Y2018408D01*
X-74428130Y2069416D01*
X-74440229Y2102652D01*
X-74463282Y2121896D01*
X-74500301Y2130923D01*
X-74554296Y2133514D01*
X-74574400Y2133600D01*
X-74634115Y2132166D01*
X-74675811Y2125299D01*
X-74702707Y2109156D01*
X-74718021Y2079894D01*
X-74724971Y2033669D01*
X-74726774Y1966637D01*
X-74726800Y1951567D01*
X-74841136Y1951567D01*
X-74842031Y2020642D01*
X-74846892Y2070999D01*
X-74858785Y2103632D01*
X-74880813Y2122373D01*
X-74916080Y2131054D01*
X-74967688Y2133505D01*
X-74990811Y2133600D01*
X-75047019Y2133045D01*
X-75086064Y2128769D01*
X-75111072Y2116859D01*
X-75125170Y2093400D01*
X-75131484Y2054479D01*
X-75133141Y1996182D01*
X-75133200Y1955354D01*
X-75260306Y1955354D01*
X-75260969Y2017943D01*
X-75265209Y2069018D01*
X-75275825Y2102304D01*
X-75295722Y2121601D01*
X-75327802Y2130714D01*
X-75374971Y2133442D01*
X-75404044Y2133600D01*
X-75461529Y2132643D01*
X-75501833Y2127218D01*
X-75528004Y2113502D01*
X-75543089Y2087667D01*
X-75550135Y2045887D01*
X-75552191Y1984338D01*
X-75552300Y1947482D01*
X-75669333Y1947482D01*
X-75668574Y2018408D01*
X-75672730Y2069416D01*
X-75684829Y2102652D01*
X-75707882Y2121896D01*
X-75744901Y2130923D01*
X-75798896Y2133514D01*
X-75819000Y2133600D01*
X-75878715Y2132166D01*
X-75920411Y2125299D01*
X-75947307Y2109156D01*
X-75962621Y2079894D01*
X-75969571Y2033669D01*
X-75971374Y1966637D01*
X-75971400Y1951567D01*
X-76088339Y1951567D01*
X-76087548Y2021187D01*
X-76091540Y2071407D01*
X-76103359Y2103931D01*
X-76126027Y2122580D01*
X-76162567Y2131175D01*
X-76215999Y2133536D01*
X-76233992Y2133600D01*
X-76290706Y2133062D01*
X-76330122Y2128842D01*
X-76355386Y2117030D01*
X-76369646Y2093717D01*
X-76376048Y2054994D01*
X-76377739Y1996952D01*
X-76377800Y1954938D01*
X-76504902Y1954938D01*
X-76505569Y2017943D01*
X-76509809Y2069018D01*
X-76520425Y2102304D01*
X-76540322Y2121601D01*
X-76572402Y2130714D01*
X-76619571Y2133442D01*
X-76648644Y2133600D01*
X-76706129Y2132643D01*
X-76746433Y2127218D01*
X-76772604Y2113502D01*
X-76787689Y2087667D01*
X-76794735Y2045887D01*
X-76796791Y1984338D01*
X-76796900Y1947482D01*
X-76917550Y1947482D01*
X-76917550Y1953674D01*
X-76918297Y2024431D01*
X-76922679Y2073685D01*
X-76933907Y2105328D01*
X-76955196Y2123253D01*
X-76989757Y2131353D01*
X-77040803Y2133522D01*
X-77066028Y2133600D01*
X-77124802Y2132116D01*
X-77165845Y2125103D01*
X-77192320Y2108722D01*
X-77207392Y2079131D01*
X-77214224Y2032491D01*
X-77215979Y1964963D01*
X-77216000Y1951567D01*
X-83134200Y1951567D01*
X-83134200Y2159000D01*
X-77143032Y2159000D01*
X-77000100Y2159000D01*
X-77000100Y2219960D01*
X-76720700Y2219960D01*
X-76720700Y2159000D01*
X-76581000Y2159000D01*
X-76581000Y2219960D01*
X-76301600Y2219960D01*
X-76301600Y2159000D01*
X-76161900Y2159000D01*
X-76161900Y2215243D01*
X-76163630Y2227492D01*
X-75882500Y2227492D01*
X-75882500Y2159000D01*
X-75755500Y2159000D01*
X-75755500Y2210635D01*
X-75476100Y2210635D01*
X-75476100Y2159000D01*
X-75336400Y2159000D01*
X-75336400Y2219960D01*
X-75057000Y2219960D01*
X-75057000Y2159000D01*
X-74917300Y2159000D01*
X-74917300Y2215243D01*
X-74917966Y2219960D01*
X-74637900Y2219960D01*
X-74637900Y2159000D01*
X-74510900Y2159000D01*
X-74510900Y2210635D01*
X-74231500Y2210635D01*
X-74231500Y2159000D01*
X-74091800Y2159000D01*
X-74091800Y2219960D01*
X-74095988Y2268591D01*
X-74110762Y2297102D01*
X-74139442Y2309711D01*
X-74163744Y2311400D01*
X-74199302Y2304168D01*
X-74220901Y2280491D01*
X-74230536Y2237402D01*
X-74231500Y2210635D01*
X-74510900Y2210635D01*
X-74510900Y2219960D01*
X-74515388Y2269335D01*
X-74530534Y2298281D01*
X-74558860Y2310430D01*
X-74574400Y2311400D01*
X-74608689Y2304938D01*
X-74628790Y2283128D01*
X-74637227Y2242339D01*
X-74637900Y2219960D01*
X-74917966Y2219960D01*
X-74924635Y2267168D01*
X-74946997Y2298922D01*
X-74984921Y2311197D01*
X-74991868Y2311400D01*
X-75026912Y2305198D01*
X-75047461Y2284072D01*
X-75056202Y2244248D01*
X-75057000Y2219960D01*
X-75336400Y2219960D01*
X-75340588Y2268591D01*
X-75355362Y2297102D01*
X-75384042Y2309711D01*
X-75408344Y2311400D01*
X-75443902Y2304168D01*
X-75465501Y2280491D01*
X-75475136Y2237402D01*
X-75476100Y2210635D01*
X-75755500Y2210635D01*
X-75755500Y2219960D01*
X-75760241Y2269985D01*
X-75775778Y2299269D01*
X-75804086Y2310891D01*
X-75814152Y2311400D01*
X-75851052Y2308057D01*
X-75871847Y2294484D01*
X-75880863Y2265374D01*
X-75882500Y2227492D01*
X-76163630Y2227492D01*
X-76169235Y2267168D01*
X-76191597Y2298922D01*
X-76229521Y2311197D01*
X-76236468Y2311400D01*
X-76271512Y2305198D01*
X-76292061Y2284072D01*
X-76300802Y2244248D01*
X-76301600Y2219960D01*
X-76581000Y2219960D01*
X-76585250Y2268742D01*
X-76600088Y2297345D01*
X-76628650Y2309874D01*
X-76650850Y2311400D01*
X-76688114Y2305837D01*
X-76709964Y2286413D01*
X-76719535Y2249023D01*
X-76720700Y2219960D01*
X-77000100Y2219960D01*
X-77004623Y2269428D01*
X-77019810Y2298392D01*
X-77048087Y2310374D01*
X-77062965Y2311206D01*
X-77099214Y2305802D01*
X-77121373Y2287008D01*
X-77133393Y2250152D01*
X-77136801Y2223854D01*
X-77143032Y2159000D01*
X-83134200Y2159000D01*
X-83134200Y7086600D01*
X-44208700Y7086600D01*
X-44208700Y-7086600D01*
X-44208700Y-7086600D01*
G37*
X-44208700Y-7086600D02*
X-83134200Y-7086600D01*
X-83134200Y-2095500D01*
X-77165200Y-2095500D01*
X-77165200Y-2164718D01*
X-77162866Y-2209537D01*
X-77154741Y-2235511D01*
X-77142975Y-2246882D01*
X-77105559Y-2259490D01*
X-77067578Y-2249928D01*
X-77062766Y-2247453D01*
X-77047847Y-2234057D01*
X-77040357Y-2209878D01*
X-77038205Y-2167901D01*
X-77038200Y-2164903D01*
X-77038200Y-2095500D01*
X-76758800Y-2095500D01*
X-76758800Y-2158279D01*
X-76756284Y-2200047D01*
X-76746756Y-2225420D01*
X-76730575Y-2240829D01*
X-76704842Y-2255658D01*
X-76688950Y-2260600D01*
X-76669292Y-2253869D01*
X-76647326Y-2240829D01*
X-76629340Y-2222634D01*
X-76620933Y-2195553D01*
X-76619100Y-2158279D01*
X-76619100Y-2095500D01*
X-76339700Y-2095500D01*
X-76339700Y-2158092D01*
X-76332628Y-2210424D01*
X-76313556Y-2245507D01*
X-76285705Y-2261171D01*
X-76252293Y-2255244D01*
X-76225400Y-2235200D01*
X-76206188Y-2202914D01*
X-76200006Y-2154480D01*
X-76200000Y-2152650D01*
X-76200000Y-2095500D01*
X-75920600Y-2095500D01*
X-75920600Y-2164718D01*
X-75918266Y-2209537D01*
X-75910141Y-2235511D01*
X-75898375Y-2246882D01*
X-75860959Y-2259490D01*
X-75822978Y-2249928D01*
X-75818166Y-2247453D01*
X-75803247Y-2234057D01*
X-75795757Y-2209878D01*
X-75793605Y-2167901D01*
X-75793600Y-2164903D01*
X-75793600Y-2095500D01*
X-75514200Y-2095500D01*
X-75514200Y-2158279D01*
X-75511684Y-2200047D01*
X-75502156Y-2225420D01*
X-75485975Y-2240829D01*
X-75460242Y-2255658D01*
X-75444350Y-2260600D01*
X-75424692Y-2253869D01*
X-75402726Y-2240829D01*
X-75384740Y-2222634D01*
X-75376333Y-2195553D01*
X-75374500Y-2158279D01*
X-75374500Y-2095500D01*
X-75095100Y-2095500D01*
X-75095100Y-2158092D01*
X-75088028Y-2210424D01*
X-75068956Y-2245507D01*
X-75041105Y-2261171D01*
X-75007693Y-2255244D01*
X-74980800Y-2235200D01*
X-74961588Y-2202914D01*
X-74955406Y-2154480D01*
X-74955400Y-2152650D01*
X-74955400Y-2095500D01*
X-75095100Y-2095500D01*
X-75374500Y-2095500D01*
X-75514200Y-2095500D01*
X-75793600Y-2095500D01*
X-75920600Y-2095500D01*
X-76200000Y-2095500D01*
X-76339700Y-2095500D01*
X-76619100Y-2095500D01*
X-76758800Y-2095500D01*
X-77038200Y-2095500D01*
X-77165200Y-2095500D01*
X-83134200Y-2095500D01*
X-83134200Y-1752600D01*
X-77254100Y-1752600D01*
X-77254100Y-1888124D01*
X-77253307Y-1959351D01*
X-77248749Y-2009053D01*
X-77237159Y-2041100D01*
X-77215268Y-2059360D01*
X-77179810Y-2067706D01*
X-77127518Y-2070006D01*
X-77100452Y-2070100D01*
X-77045905Y-2069501D01*
X-77010856Y-2066862D01*
X-76989416Y-2060917D01*
X-76975696Y-2050400D01*
X-76969071Y-2041874D01*
X-76959122Y-2019793D01*
X-76952909Y-1984774D01*
X-76949859Y-1932224D01*
X-76949300Y-1883124D01*
X-76949300Y-1752600D01*
X-76835000Y-1752600D01*
X-76835000Y-1891392D01*
X-76834287Y-1961870D01*
X-76830086Y-2010858D01*
X-76819305Y-2042261D01*
X-76798852Y-2059987D01*
X-76765636Y-2067941D01*
X-76716565Y-2070031D01*
X-76693558Y-2070100D01*
X-76642235Y-2068503D01*
X-76598491Y-2064278D01*
X-76570435Y-2058269D01*
X-76567466Y-2056953D01*
X-76556795Y-2048907D01*
X-76549731Y-2035249D01*
X-76545548Y-2011283D01*
X-76543517Y-1972312D01*
X-76542914Y-1913641D01*
X-76542900Y-1898203D01*
X-76542900Y-1752600D01*
X-76415900Y-1752600D01*
X-76415900Y-1896110D01*
X-76414421Y-1972217D01*
X-76410019Y-2024380D01*
X-76402751Y-2052015D01*
X-76400660Y-2054860D01*
X-76377979Y-2064228D01*
X-76337885Y-2069595D01*
X-76288017Y-2071135D01*
X-76236016Y-2069022D01*
X-76189523Y-2063429D01*
X-76156179Y-2054531D01*
X-76147026Y-2049081D01*
X-76136508Y-2036065D01*
X-76129672Y-2016454D01*
X-76125776Y-1985180D01*
X-76124078Y-1937176D01*
X-76123800Y-1890331D01*
X-76123800Y-1752600D01*
X-76009500Y-1752600D01*
X-76009500Y-1888124D01*
X-76008707Y-1959351D01*
X-76004149Y-2009053D01*
X-75992559Y-2041100D01*
X-75970668Y-2059360D01*
X-75935210Y-2067706D01*
X-75882918Y-2070006D01*
X-75855852Y-2070100D01*
X-75801305Y-2069501D01*
X-75766256Y-2066862D01*
X-75744816Y-2060917D01*
X-75731096Y-2050400D01*
X-75724471Y-2041874D01*
X-75714522Y-2019793D01*
X-75708309Y-1984774D01*
X-75705259Y-1932224D01*
X-75704700Y-1883124D01*
X-75704700Y-1752600D01*
X-75590400Y-1752600D01*
X-75590400Y-1891392D01*
X-75589749Y-1961862D01*
X-75585597Y-2010840D01*
X-75574646Y-2042237D01*
X-75553598Y-2059961D01*
X-75519157Y-2067920D01*
X-75468025Y-2070022D01*
X-75439633Y-2070100D01*
X-75378160Y-2068258D01*
X-75334937Y-2063017D01*
X-75313540Y-2054860D01*
X-75305615Y-2033001D01*
X-75300543Y-1986479D01*
X-75298381Y-1915877D01*
X-75298300Y-1896110D01*
X-75298300Y-1752600D01*
X-75171300Y-1752600D01*
X-75171300Y-1896110D01*
X-75169821Y-1972217D01*
X-75165419Y-2024380D01*
X-75158151Y-2052015D01*
X-75156060Y-2054860D01*
X-75133847Y-2063892D01*
X-75094085Y-2069245D01*
X-75044336Y-2071059D01*
X-74992164Y-2069471D01*
X-74945131Y-2064620D01*
X-74910800Y-2056646D01*
X-74899158Y-2050142D01*
X-74889834Y-2035187D01*
X-74883788Y-2009587D01*
X-74880448Y-1968779D01*
X-74879238Y-1908200D01*
X-74879200Y-1891392D01*
X-74879200Y-1752600D01*
X-75171300Y-1752600D01*
X-75298300Y-1752600D01*
X-75590400Y-1752600D01*
X-75704700Y-1752600D01*
X-76009500Y-1752600D01*
X-76123800Y-1752600D01*
X-76415900Y-1752600D01*
X-76542900Y-1752600D01*
X-76835000Y-1752600D01*
X-76949300Y-1752600D01*
X-77254100Y-1752600D01*
X-83134200Y-1752600D01*
X-83134200Y-1689100D01*
X-77272283Y-1689100D01*
X-74819638Y-1689100D01*
X-74811319Y-1862558D01*
X-74807800Y-1947344D01*
X-74804693Y-2042981D01*
X-74802378Y-2136595D01*
X-74801341Y-2202283D01*
X-74800044Y-2275541D01*
X-74797767Y-2349758D01*
X-74794839Y-2415941D01*
X-74791816Y-2462455D01*
X-74783950Y-2556360D01*
X-74716042Y-2582099D01*
X-74648133Y-2607839D01*
X-74461730Y-2413000D01*
X-74275328Y-2218161D01*
X-74240194Y-2241182D01*
X-74209484Y-2256137D01*
X-74182922Y-2253790D01*
X-74175438Y-2250706D01*
X-74166340Y-2245977D01*
X-74158894Y-2242762D01*
X-74151809Y-2243363D01*
X-74143794Y-2250080D01*
X-74133557Y-2265215D01*
X-74119806Y-2291072D01*
X-74101251Y-2329950D01*
X-74076600Y-2384151D01*
X-74044561Y-2455978D01*
X-74003843Y-2547732D01*
X-73985101Y-2589934D01*
X-73852851Y-2887518D01*
X-73797701Y-2909417D01*
X-73742550Y-2931315D01*
X-73496546Y-2803886D01*
X-73419214Y-2763675D01*
X-73344954Y-2724779D01*
X-73278358Y-2689626D01*
X-73224018Y-2660642D01*
X-73186528Y-2640255D01*
X-73180358Y-2636803D01*
X-73139471Y-2611520D01*
X-73115030Y-2588709D01*
X-73100151Y-2560799D01*
X-73093884Y-2541675D01*
X-73077595Y-2486201D01*
X-73273909Y-2136695D01*
X-73321765Y-2051044D01*
X-73365073Y-1972666D01*
X-73402388Y-1904245D01*
X-73432265Y-1848463D01*
X-73453260Y-1808004D01*
X-73463929Y-1785551D01*
X-73464911Y-1781876D01*
X-73451278Y-1781060D01*
X-73417202Y-1781977D01*
X-73367561Y-1784320D01*
X-73307230Y-1787779D01*
X-73241084Y-1792045D01*
X-73173999Y-1796809D01*
X-73110852Y-1801761D01*
X-73056517Y-1806593D01*
X-73027410Y-1809616D01*
X-72972669Y-1815824D01*
X-72907491Y-1673456D01*
X-73207546Y-1373205D01*
X-73507600Y-1072955D01*
X-73507600Y-991502D01*
X-73510146Y-939800D01*
X-73482200Y-939800D01*
X-73482200Y-1079500D01*
X-73425958Y-1079500D01*
X-73381059Y-1074448D01*
X-73351168Y-1060864D01*
X-73349758Y-1059542D01*
X-73334016Y-1029799D01*
X-73330709Y-992617D01*
X-73340414Y-960771D01*
X-73345040Y-955040D01*
X-73366117Y-945981D01*
X-73402009Y-940522D01*
X-73421240Y-939800D01*
X-73482200Y-939800D01*
X-73510146Y-939800D01*
X-73510471Y-933216D01*
X-73521931Y-895628D01*
X-73546254Y-874403D01*
X-73587711Y-865208D01*
X-73633712Y-863600D01*
X-73717786Y-863600D01*
X-73901300Y-678852D01*
X-73901300Y-444500D01*
X-73825100Y-444500D01*
X-73825100Y-736600D01*
X-73689576Y-736600D01*
X-73625014Y-735789D01*
X-73580890Y-732925D01*
X-73552281Y-727354D01*
X-73534263Y-718424D01*
X-73530826Y-715581D01*
X-73518318Y-698952D01*
X-73511123Y-673105D01*
X-73508014Y-631825D01*
X-73507600Y-597757D01*
X-73508791Y-537258D01*
X-73511220Y-520700D01*
X-73482200Y-520700D01*
X-73482200Y-660400D01*
X-73421240Y-660400D01*
X-73382001Y-657395D01*
X-73352558Y-649787D01*
X-73345040Y-645160D01*
X-73331925Y-616718D01*
X-73331968Y-579684D01*
X-73344593Y-546830D01*
X-73349758Y-540657D01*
X-73378132Y-526517D01*
X-73422202Y-520731D01*
X-73425958Y-520700D01*
X-73482200Y-520700D01*
X-73511220Y-520700D01*
X-73514962Y-495205D01*
X-73530010Y-468251D01*
X-73557832Y-453051D01*
X-73602325Y-446260D01*
X-73667387Y-444533D01*
X-73686121Y-444500D01*
X-73825100Y-444500D01*
X-73901300Y-444500D01*
X-73901300Y-25400D01*
X-73825100Y-25400D01*
X-73825100Y-330200D01*
X-73691750Y-330200D01*
X-73630316Y-329629D01*
X-73588834Y-327339D01*
X-73561871Y-322459D01*
X-73543992Y-314121D01*
X-73533000Y-304800D01*
X-73519784Y-287333D01*
X-73512019Y-263329D01*
X-73508398Y-226253D01*
X-73507600Y-177800D01*
X-73508998Y-118381D01*
X-73509659Y-114300D01*
X-73482200Y-114300D01*
X-73482200Y-241300D01*
X-73421240Y-241300D01*
X-73382001Y-238295D01*
X-73352558Y-230687D01*
X-73345040Y-226060D01*
X-73333305Y-202311D01*
X-73329800Y-177800D01*
X-73336263Y-143511D01*
X-73358073Y-123410D01*
X-73398862Y-114973D01*
X-73421240Y-114300D01*
X-73482200Y-114300D01*
X-73509659Y-114300D01*
X-73515739Y-76792D01*
X-73531649Y-49868D01*
X-73560550Y-34445D01*
X-73606269Y-27358D01*
X-73672627Y-25442D01*
X-73691750Y-25400D01*
X-73825100Y-25400D01*
X-73901300Y-25400D01*
X-73901300Y381000D01*
X-73825100Y381000D01*
X-73825100Y88900D01*
X-73686121Y88900D01*
X-73624570Y89265D01*
X-73583312Y90963D01*
X-73557245Y94902D01*
X-73541264Y101989D01*
X-73530268Y113132D01*
X-73527371Y117126D01*
X-73514706Y149250D01*
X-73508462Y201743D01*
X-73507600Y239951D01*
X-73508770Y295468D01*
X-73510242Y304800D01*
X-73482200Y304800D01*
X-73482200Y165100D01*
X-73425958Y165100D01*
X-73381059Y170152D01*
X-73351168Y183736D01*
X-73349758Y185058D01*
X-73334016Y214801D01*
X-73330709Y251983D01*
X-73340414Y283829D01*
X-73345040Y289560D01*
X-73366117Y298619D01*
X-73402009Y304078D01*
X-73421240Y304800D01*
X-73482200Y304800D01*
X-73510242Y304800D01*
X-73514868Y334115D01*
X-73529779Y358939D01*
X-73557390Y372989D01*
X-73601584Y379314D01*
X-73666248Y380962D01*
X-73687369Y381000D01*
X-73825100Y381000D01*
X-73901300Y381000D01*
X-73901300Y800100D01*
X-73825100Y800100D01*
X-73825100Y508000D01*
X-73689576Y508000D01*
X-73625014Y508811D01*
X-73580890Y511675D01*
X-73552281Y517246D01*
X-73534263Y526176D01*
X-73530826Y529019D01*
X-73518318Y545648D01*
X-73511123Y571495D01*
X-73508014Y612775D01*
X-73507600Y646843D01*
X-73508791Y707342D01*
X-73511220Y723900D01*
X-73482200Y723900D01*
X-73482200Y584200D01*
X-73421240Y584200D01*
X-73382001Y587205D01*
X-73352558Y594813D01*
X-73345040Y599440D01*
X-73331925Y627882D01*
X-73331968Y664916D01*
X-73344593Y697770D01*
X-73349758Y703943D01*
X-73378132Y718083D01*
X-73422202Y723869D01*
X-73425958Y723900D01*
X-73482200Y723900D01*
X-73511220Y723900D01*
X-73514962Y749395D01*
X-73530010Y776349D01*
X-73557832Y791549D01*
X-73602325Y798340D01*
X-73667387Y800067D01*
X-73686121Y800100D01*
X-73825100Y800100D01*
X-73901300Y800100D01*
X-73901300Y876300D01*
X-72783700Y876300D01*
X-72783700Y-1346200D01*
X-72276122Y-1346200D01*
X-72269350Y-681100D01*
X-71958683Y-1013650D01*
X-71648015Y-1346200D01*
X-71041065Y-1346200D01*
X-71114468Y-1266825D01*
X-71140253Y-1239440D01*
X-71181265Y-1196510D01*
X-71234977Y-1140653D01*
X-71298861Y-1074485D01*
X-71370390Y-1000626D01*
X-71447035Y-921694D01*
X-71525411Y-841187D01*
X-71601065Y-763401D01*
X-71670993Y-691160D01*
X-71733239Y-626513D01*
X-71785845Y-571509D01*
X-71826852Y-528194D01*
X-71854302Y-498619D01*
X-71866239Y-484831D01*
X-71866573Y-484244D01*
X-71858404Y-473535D01*
X-71833569Y-447373D01*
X-71793982Y-407624D01*
X-71741552Y-356159D01*
X-71678191Y-294847D01*
X-71605810Y-225555D01*
X-71526321Y-150154D01*
X-71486858Y-112956D01*
X-71103521Y247650D01*
X-71393991Y251071D01*
X-71642685Y254000D01*
X-70840600Y254000D01*
X-70840600Y-1346200D01*
X-70332600Y-1346200D01*
X-70332600Y254000D01*
X-70041198Y254000D01*
X-70034150Y-107950D01*
X-69910325Y-111584D01*
X-69786500Y-115219D01*
X-69786280Y-448134D01*
X-69785735Y-545196D01*
X-69784319Y-640710D01*
X-69782174Y-729614D01*
X-69779440Y-806848D01*
X-69776257Y-867352D01*
X-69773792Y-897483D01*
X-69755390Y-1012180D01*
X-69725859Y-1105738D01*
X-69683869Y-1180452D01*
X-69628089Y-1238617D01*
X-69557192Y-1282527D01*
X-69548319Y-1286628D01*
X-69504803Y-1304009D01*
X-69458255Y-1317629D01*
X-69404930Y-1327927D01*
X-69341086Y-1335340D01*
X-69262980Y-1340307D01*
X-69166868Y-1343266D01*
X-69053075Y-1344632D01*
X-68795900Y-1346200D01*
X-68795900Y-977900D01*
X-68983225Y-977852D01*
X-69071842Y-976673D01*
X-69138667Y-972368D01*
X-69187240Y-963710D01*
X-69221099Y-949473D01*
X-69243782Y-928427D01*
X-69258828Y-899348D01*
X-69264950Y-880135D01*
X-69268894Y-852847D01*
X-69272286Y-803102D01*
X-69272404Y-800100D01*
X-68376800Y-800100D01*
X-68376800Y-1346200D01*
X-67868800Y-1346200D01*
X-67868800Y-800100D01*
X-68376800Y-800100D01*
X-69272404Y-800100D01*
X-69275029Y-733838D01*
X-69277025Y-647992D01*
X-69278177Y-548505D01*
X-69278430Y-473075D01*
X-69278476Y-237193D01*
X-67406451Y-237193D01*
X-67399273Y-301663D01*
X-67383930Y-374306D01*
X-67364601Y-429965D01*
X-67337481Y-477053D01*
X-67298783Y-523970D01*
X-67245317Y-571820D01*
X-67178580Y-612550D01*
X-67096042Y-647080D01*
X-66995177Y-676335D01*
X-66873456Y-701235D01*
X-66768675Y-717371D01*
X-66679625Y-730276D01*
X-66611996Y-741920D01*
X-66561916Y-753366D01*
X-66525511Y-765675D01*
X-66498910Y-779907D01*
X-66478450Y-796914D01*
X-66451483Y-840345D01*
X-66444522Y-891351D01*
X-66457390Y-942082D01*
X-66482494Y-977847D01*
X-66531551Y-1010772D01*
X-66600308Y-1033598D01*
X-66685233Y-1046490D01*
X-66782789Y-1049610D01*
X-66889444Y-1043123D01*
X-67001662Y-1027191D01*
X-67115911Y-1001979D01*
X-67228656Y-967651D01*
X-67300800Y-939964D01*
X-67386850Y-903892D01*
X-67379850Y-1289050D01*
X-67252850Y-1317623D01*
X-67122157Y-1344810D01*
X-67006196Y-1363531D01*
X-66896100Y-1374709D01*
X-66783002Y-1379267D01*
X-66668650Y-1378406D01*
X-66570074Y-1374765D01*
X-66491329Y-1368972D01*
X-66426900Y-1360465D01*
X-66371268Y-1348684D01*
X-66368053Y-1347852D01*
X-66256201Y-1311772D01*
X-66165929Y-1266855D01*
X-66094338Y-1211044D01*
X-66038529Y-1142281D01*
X-66012058Y-1095265D01*
X-65993885Y-1056979D01*
X-65981916Y-1025590D01*
X-65974875Y-994000D01*
X-65971487Y-955111D01*
X-65970477Y-901827D01*
X-65970473Y-863823D01*
X-65971340Y-796048D01*
X-65974236Y-746803D01*
X-65980127Y-709241D01*
X-65989980Y-676514D01*
X-66000487Y-651166D01*
X-66034310Y-590377D01*
X-66078743Y-538179D01*
X-66136046Y-493489D01*
X-66208478Y-455227D01*
X-66298297Y-422312D01*
X-66407762Y-393662D01*
X-66539133Y-368196D01*
X-66617850Y-355705D01*
X-66707379Y-341941D01*
X-66775573Y-330262D01*
X-66826309Y-319690D01*
X-66863466Y-309247D01*
X-66890924Y-297953D01*
X-66912561Y-284832D01*
X-66919457Y-279642D01*
X-66948839Y-242221D01*
X-66958760Y-196553D01*
X-66950209Y-149455D01*
X-66924179Y-107741D01*
X-66890810Y-82503D01*
X-66826357Y-60268D01*
X-66742969Y-48816D01*
X-66644502Y-47720D01*
X-66534812Y-56552D01*
X-66417757Y-74885D01*
X-66297192Y-102292D01*
X-66176975Y-138345D01*
X-66087625Y-171504D01*
X-66079085Y-173249D01*
X-66073056Y-168060D01*
X-66069107Y-152392D01*
X-66066805Y-122701D01*
X-66065716Y-75445D01*
X-66065407Y-7079D01*
X-66065400Y10324D01*
X-66065400Y201165D01*
X-66151686Y220790D01*
X-66284549Y248449D01*
X-66319933Y254000D01*
X-65570100Y254000D01*
X-65570100Y-1955800D01*
X-65062100Y-1955800D01*
X-65062100Y-1609558D01*
X-58013600Y-1609558D01*
X-58001718Y-1610865D01*
X-57969315Y-1611418D01*
X-57921264Y-1611200D01*
X-57862434Y-1610194D01*
X-57858995Y-1610115D01*
X-57704390Y-1606550D01*
X-57332276Y-419100D01*
X-57279773Y-251471D01*
X-57229470Y-90692D01*
X-57181882Y61580D01*
X-57137524Y203689D01*
X-57121842Y254000D01*
X-56705500Y254000D01*
X-56705500Y-1346200D01*
X-56198983Y-1346200D01*
X-56194666Y-898525D01*
X-56193376Y-777461D01*
X-56191975Y-678966D01*
X-56190312Y-600205D01*
X-56188234Y-538347D01*
X-56185588Y-490559D01*
X-56182222Y-454008D01*
X-56177983Y-425862D01*
X-56172720Y-403289D01*
X-56167069Y-385641D01*
X-56123121Y-295656D01*
X-56062180Y-220915D01*
X-55987398Y-165164D01*
X-55976601Y-159392D01*
X-55937549Y-140803D01*
X-55903758Y-129516D01*
X-55866402Y-123784D01*
X-55816653Y-121862D01*
X-55786463Y-121778D01*
X-55706029Y-125014D01*
X-55641302Y-135094D01*
X-55597425Y-147965D01*
X-55524400Y-173857D01*
X-55524400Y254000D01*
X-55270400Y254000D01*
X-55270180Y-301625D01*
X-55269961Y-448824D01*
X-55269283Y-573197D01*
X-55267927Y-677314D01*
X-55265672Y-763747D01*
X-55262298Y-835068D01*
X-55257585Y-893847D01*
X-55251312Y-942658D01*
X-55243260Y-984071D01*
X-55233208Y-1020657D01*
X-55220935Y-1054990D01*
X-55206222Y-1089640D01*
X-55201877Y-1099221D01*
X-55162481Y-1166601D01*
X-55109481Y-1231511D01*
X-55049829Y-1286495D01*
X-54993463Y-1322682D01*
X-54890850Y-1360025D01*
X-54777610Y-1380110D01*
X-54662506Y-1382084D01*
X-54555305Y-1365355D01*
X-54464495Y-1334792D01*
X-54382564Y-1291120D01*
X-54301988Y-1229981D01*
X-54267125Y-1198410D01*
X-54178200Y-1114523D01*
X-54178200Y-1346200D01*
X-53670200Y-1346200D01*
X-53670200Y254000D01*
X-54176799Y254000D01*
X-54180781Y-225425D01*
X-54181860Y-348852D01*
X-54182950Y-449633D01*
X-54184213Y-530520D01*
X-54185811Y-594264D01*
X-54187903Y-643619D01*
X-54190653Y-681337D01*
X-54194220Y-710170D01*
X-54198767Y-732872D01*
X-54204454Y-752194D01*
X-54211444Y-770889D01*
X-54212974Y-774700D01*
X-54257844Y-862298D01*
X-54313145Y-927161D01*
X-54380216Y-970270D01*
X-54460398Y-992609D01*
X-54515625Y-996453D01*
X-54567810Y-995191D01*
X-54604516Y-989162D01*
X-54635545Y-976049D01*
X-54656515Y-963158D01*
X-54679286Y-947847D01*
X-54698283Y-933110D01*
X-54713867Y-916605D01*
X-54726397Y-895989D01*
X-54736231Y-868918D01*
X-54743729Y-833049D01*
X-54749250Y-786041D01*
X-54753153Y-725549D01*
X-54755797Y-649230D01*
X-54757541Y-554743D01*
X-54758744Y-439743D01*
X-54759766Y-301887D01*
X-54759857Y-288925D01*
X-54763664Y254000D01*
X-55270400Y254000D01*
X-55524400Y254000D01*
X-55524400Y277573D01*
X-55597152Y286663D01*
X-55682651Y289033D01*
X-55777344Y278104D01*
X-55870048Y255740D01*
X-55937150Y229980D01*
X-56021962Y178664D01*
X-56102733Y106246D01*
X-56156252Y44450D01*
X-56196649Y-6350D01*
X-56197075Y123825D01*
X-56197500Y254000D01*
X-56705500Y254000D01*
X-57121842Y254000D01*
X-57096912Y333976D01*
X-57060561Y450786D01*
X-57028986Y552462D01*
X-57002704Y637345D01*
X-56982229Y703779D01*
X-56968076Y750108D01*
X-56960762Y774674D01*
X-56959831Y778266D01*
X-56971577Y781797D01*
X-57003846Y784178D01*
X-57051778Y785209D01*
X-57110511Y784689D01*
X-57113738Y784616D01*
X-57267975Y781050D01*
X-57640788Y-412192D01*
X-57693241Y-580118D01*
X-57743498Y-741092D01*
X-57791048Y-893473D01*
X-57835378Y-1035617D01*
X-57875977Y-1165881D01*
X-57912334Y-1282621D01*
X-57943936Y-1384195D01*
X-57970273Y-1468960D01*
X-57990833Y-1535272D01*
X-58005103Y-1581487D01*
X-58012573Y-1605964D01*
X-58013600Y-1609558D01*
X-65062100Y-1609558D01*
X-65062100Y-1118070D01*
X-64982558Y-1197210D01*
X-64898604Y-1270440D01*
X-64813163Y-1322690D01*
X-64719526Y-1357837D01*
X-64692700Y-1364725D01*
X-64563764Y-1383517D01*
X-64441299Y-1378547D01*
X-64326683Y-1350940D01*
X-64221295Y-1301818D01*
X-64126512Y-1232305D01*
X-64043715Y-1143524D01*
X-63974280Y-1036598D01*
X-63919586Y-912650D01*
X-63916820Y-902622D01*
X-63585838Y-902622D01*
X-63571389Y-1009593D01*
X-63539954Y-1100621D01*
X-63489531Y-1180274D01*
X-63441307Y-1232236D01*
X-63349409Y-1302011D01*
X-63244267Y-1350828D01*
X-63127586Y-1378265D01*
X-63001070Y-1383901D01*
X-62883208Y-1370535D01*
X-62772761Y-1338828D01*
X-62673349Y-1285407D01*
X-62582266Y-1208783D01*
X-62574411Y-1200725D01*
X-62538732Y-1164135D01*
X-62510027Y-1135760D01*
X-62492511Y-1119714D01*
X-62489295Y-1117600D01*
X-62486963Y-1129354D01*
X-62485156Y-1160841D01*
X-62484134Y-1206391D01*
X-62484000Y-1231900D01*
X-62484000Y-1346200D01*
X-61976000Y-1346200D01*
X-61976252Y-854075D01*
X-61976637Y-740605D01*
X-61977624Y-631665D01*
X-61979136Y-530684D01*
X-61979626Y-508280D01*
X-61607579Y-508280D01*
X-61605622Y-611464D01*
X-61596915Y-712342D01*
X-61581822Y-802882D01*
X-61565535Y-862072D01*
X-61509629Y-985682D01*
X-61433721Y-1094298D01*
X-61338896Y-1187088D01*
X-61226237Y-1263221D01*
X-61096830Y-1321863D01*
X-60951758Y-1362184D01*
X-60902356Y-1371057D01*
X-60835394Y-1377554D01*
X-60751349Y-1379719D01*
X-60658101Y-1377906D01*
X-60563533Y-1372469D01*
X-60475525Y-1363762D01*
X-60401958Y-1352138D01*
X-60382150Y-1347712D01*
X-60329614Y-1334182D01*
X-60282563Y-1321070D01*
X-60249737Y-1310832D01*
X-60245625Y-1309337D01*
X-60210700Y-1296028D01*
X-60210700Y-889559D01*
X-60271025Y-927907D01*
X-60360660Y-972696D01*
X-60463129Y-1003669D01*
X-60571517Y-1020044D01*
X-60678912Y-1021038D01*
X-60778401Y-1005867D01*
X-60826171Y-990768D01*
X-60912008Y-944554D01*
X-60981326Y-879498D01*
X-61033480Y-796590D01*
X-61067824Y-696816D01*
X-61082634Y-598136D01*
X-61082377Y-546100D01*
X-59870114Y-546100D01*
X-59862730Y-693876D01*
X-59839113Y-824020D01*
X-59798294Y-939203D01*
X-59739304Y-1042095D01*
X-59661173Y-1135367D01*
X-59653367Y-1143186D01*
X-59548125Y-1229556D01*
X-59426454Y-1297623D01*
X-59290545Y-1346354D01*
X-59167678Y-1371495D01*
X-59088283Y-1378399D01*
X-58991564Y-1380141D01*
X-58884987Y-1377100D01*
X-58776017Y-1369654D01*
X-58672118Y-1358182D01*
X-58580756Y-1343062D01*
X-58572400Y-1341322D01*
X-58503290Y-1325620D01*
X-58432792Y-1307954D01*
X-58370662Y-1290847D01*
X-58337450Y-1280581D01*
X-58248550Y-1250950D01*
X-58245051Y-1058370D01*
X-58241551Y-865790D01*
X-58372051Y-923307D01*
X-58502504Y-975747D01*
X-58622036Y-1012239D01*
X-58737991Y-1034486D01*
X-58857713Y-1044194D01*
X-58896250Y-1044920D01*
X-58994270Y-1042200D01*
X-59073239Y-1031714D01*
X-59138730Y-1011942D01*
X-59196313Y-981366D01*
X-59235168Y-952498D01*
X-59275752Y-907990D01*
X-59312949Y-847733D01*
X-59341553Y-781316D01*
X-59354197Y-733425D01*
X-59362627Y-685800D01*
X-58166000Y-685800D01*
X-58166000Y-559917D01*
X-58176258Y-401044D01*
X-58206692Y-256426D01*
X-58256792Y-126781D01*
X-58326048Y-12828D01*
X-58413950Y84717D01*
X-58519988Y165133D01*
X-58643653Y227702D01*
X-58750200Y263170D01*
X-58819303Y275943D01*
X-58905590Y283251D01*
X-59001465Y285197D01*
X-59099331Y281887D01*
X-59191590Y273425D01*
X-59270646Y259916D01*
X-59287417Y255773D01*
X-59424030Y207292D01*
X-59545627Y139107D01*
X-59650848Y51982D01*
X-59651900Y50930D01*
X-59730976Y-40837D01*
X-59791108Y-140145D01*
X-59833488Y-250255D01*
X-59859309Y-374430D01*
X-59869764Y-515935D01*
X-59870114Y-546100D01*
X-61082377Y-546100D01*
X-61082028Y-475668D01*
X-61061038Y-367141D01*
X-61019994Y-273241D01*
X-60959226Y-194656D01*
X-60879064Y-132075D01*
X-60852050Y-116922D01*
X-60816457Y-100618D01*
X-60780206Y-89952D01*
X-60735541Y-83376D01*
X-60674706Y-79339D01*
X-60660784Y-78736D01*
X-60548537Y-79992D01*
X-60450652Y-94941D01*
X-60359074Y-125330D01*
X-60289860Y-159207D01*
X-60210072Y-203064D01*
X-60217050Y209194D01*
X-60299600Y231944D01*
X-60466397Y268133D01*
X-60634367Y285963D01*
X-60798137Y285268D01*
X-60952333Y265880D01*
X-61006117Y253876D01*
X-61146157Y206918D01*
X-61269668Y141469D01*
X-61375717Y58459D01*
X-61463369Y-41183D01*
X-61531691Y-156526D01*
X-61579748Y-286640D01*
X-61589787Y-327121D01*
X-61602422Y-410822D01*
X-61607579Y-508280D01*
X-61979626Y-508280D01*
X-61981098Y-441090D01*
X-61983432Y-366313D01*
X-61986064Y-309782D01*
X-61988916Y-274926D01*
X-61989170Y-273050D01*
X-62015632Y-144725D01*
X-62056535Y-35780D01*
X-62113358Y55308D01*
X-62187579Y130060D01*
X-62280679Y190000D01*
X-62394137Y236649D01*
X-62515750Y268712D01*
X-62562882Y275266D01*
X-62629581Y279988D01*
X-62710080Y282878D01*
X-62798613Y283935D01*
X-62889415Y283160D01*
X-62976717Y280551D01*
X-63054753Y276107D01*
X-63117757Y269830D01*
X-63125350Y268760D01*
X-63189471Y258788D01*
X-63263480Y246550D01*
X-63332320Y234543D01*
X-63338075Y233499D01*
X-63449200Y213262D01*
X-63449200Y22722D01*
X-63449000Y-50469D01*
X-63448109Y-101808D01*
X-63446093Y-134841D01*
X-63442518Y-153114D01*
X-63436949Y-160173D01*
X-63428954Y-159565D01*
X-63426975Y-158815D01*
X-63310821Y-114937D01*
X-63207486Y-83665D01*
X-63108798Y-63303D01*
X-63006585Y-52154D01*
X-62895625Y-48534D01*
X-62791950Y-50994D01*
X-62709117Y-60139D01*
X-62643207Y-76971D01*
X-62590306Y-102496D01*
X-62546496Y-137717D01*
X-62546073Y-138139D01*
X-62511475Y-180512D01*
X-62493671Y-225598D01*
X-62490223Y-244075D01*
X-62486620Y-282008D01*
X-62487705Y-309934D01*
X-62489793Y-316598D01*
X-62506123Y-322009D01*
X-62547196Y-326082D01*
X-62612388Y-328784D01*
X-62701077Y-330081D01*
X-62743436Y-330200D01*
X-62881813Y-332222D01*
X-62998865Y-338589D01*
X-63098370Y-349755D01*
X-63184105Y-366170D01*
X-63259844Y-388287D01*
X-63275346Y-393890D01*
X-63378103Y-443688D01*
X-63460394Y-508526D01*
X-63522214Y-588399D01*
X-63563560Y-683302D01*
X-63584428Y-793229D01*
X-63585838Y-902622D01*
X-63916820Y-902622D01*
X-63881012Y-772804D01*
X-63867533Y-692305D01*
X-63857621Y-536836D01*
X-63868778Y-385513D01*
X-63900145Y-241413D01*
X-63950859Y-107612D01*
X-64020060Y12812D01*
X-64088734Y98076D01*
X-64179271Y177311D01*
X-64280804Y235494D01*
X-64390107Y272623D01*
X-64503959Y288694D01*
X-64619135Y283703D01*
X-64732413Y257646D01*
X-64840569Y210521D01*
X-64940380Y142323D01*
X-64987392Y99061D01*
X-65062100Y23184D01*
X-65062100Y254000D01*
X-65570100Y254000D01*
X-66319933Y254000D01*
X-66404574Y267278D01*
X-66522260Y278481D01*
X-66648106Y283259D01*
X-66700400Y283640D01*
X-66846710Y279197D01*
X-66971497Y265319D01*
X-67077058Y241389D01*
X-67165690Y206794D01*
X-67239688Y160918D01*
X-67276173Y129512D01*
X-67335001Y55924D01*
X-67377276Y-33063D01*
X-67401570Y-132438D01*
X-67406451Y-237193D01*
X-69278476Y-237193D01*
X-69278500Y-114300D01*
X-68745100Y-114300D01*
X-68745100Y254000D01*
X-69278500Y254000D01*
X-69278500Y711737D01*
X-69529325Y708294D01*
X-69780150Y704850D01*
X-69783619Y479425D01*
X-69787087Y254000D01*
X-70041198Y254000D01*
X-70332600Y254000D01*
X-70840600Y254000D01*
X-71642685Y254000D01*
X-71684460Y254492D01*
X-71980080Y-40927D01*
X-72275700Y-336347D01*
X-72275700Y876300D01*
X-70840600Y876300D01*
X-70840600Y469900D01*
X-70332600Y469900D01*
X-70332600Y876300D01*
X-53174900Y876300D01*
X-53174900Y-1346200D01*
X-52666900Y-1346200D01*
X-52666900Y-480264D01*
X-52281845Y-480264D01*
X-52281357Y-606463D01*
X-52265122Y-746388D01*
X-52234555Y-868063D01*
X-52188163Y-975153D01*
X-52124452Y-1071323D01*
X-52064822Y-1138073D01*
X-51963873Y-1224095D01*
X-51850912Y-1290789D01*
X-51723190Y-1339477D01*
X-51580556Y-1371077D01*
X-51520219Y-1376941D01*
X-51441462Y-1379303D01*
X-51350987Y-1378434D01*
X-51255492Y-1374607D01*
X-51161675Y-1368095D01*
X-51076238Y-1359171D01*
X-51005877Y-1348108D01*
X-51003200Y-1347569D01*
X-50932095Y-1331492D01*
X-50852979Y-1311126D01*
X-50780837Y-1290371D01*
X-50768250Y-1286417D01*
X-50653950Y-1249805D01*
X-50650445Y-1056702D01*
X-50649666Y-989936D01*
X-50649832Y-933171D01*
X-50650862Y-890765D01*
X-50652679Y-867076D01*
X-50653937Y-863600D01*
X-50667875Y-868902D01*
X-50698306Y-882917D01*
X-50739101Y-902805D01*
X-50746343Y-906423D01*
X-50906455Y-973521D01*
X-51079388Y-1021395D01*
X-51168300Y-1037487D01*
X-51299393Y-1048965D01*
X-51416671Y-1042502D01*
X-51518987Y-1018677D01*
X-51605192Y-978074D01*
X-51674139Y-921274D01*
X-51724678Y-848857D01*
X-51755661Y-761407D01*
X-51760137Y-737765D01*
X-51768447Y-685800D01*
X-50567751Y-685800D01*
X-50575032Y-523875D01*
X-50586184Y-389832D01*
X-50607745Y-274444D01*
X-50641451Y-172493D01*
X-50689039Y-78758D01*
X-50752243Y11977D01*
X-50753999Y14203D01*
X-50811915Y74903D01*
X-50886365Y134705D01*
X-50968956Y187832D01*
X-51051296Y228504D01*
X-51081612Y239771D01*
X-51139551Y254000D01*
X-50177700Y254000D01*
X-50177700Y-1346200D01*
X-49671150Y-1346200D01*
X-49663350Y-425450D01*
X-49627397Y-347648D01*
X-49574729Y-260218D01*
X-49506588Y-192786D01*
X-49434750Y-150169D01*
X-49370923Y-130824D01*
X-49292299Y-121566D01*
X-49207411Y-122435D01*
X-49124791Y-133474D01*
X-49069625Y-148389D01*
X-48996600Y-173857D01*
X-48996600Y276474D01*
X-49067833Y285374D01*
X-49192456Y288818D01*
X-49311523Y268301D01*
X-49422461Y224978D01*
X-49522698Y160004D01*
X-49609661Y74534D01*
X-49646809Y25286D01*
X-49656478Y12239D01*
X-49662747Y9501D01*
X-49666389Y20498D01*
X-49668176Y48654D01*
X-49668880Y97396D01*
X-49669034Y123825D01*
X-49669700Y254000D01*
X-50177700Y254000D01*
X-51139551Y254000D01*
X-51220310Y273833D01*
X-51367085Y288428D01*
X-51516279Y283968D01*
X-51662230Y260859D01*
X-51799277Y219513D01*
X-51883317Y181802D01*
X-51993802Y110523D01*
X-52088011Y20946D01*
X-52164932Y-84924D01*
X-52223552Y-205085D01*
X-52262860Y-337533D01*
X-52281845Y-480264D01*
X-52666900Y-480264D01*
X-52666900Y876300D01*
X-53174900Y876300D01*
X-70332600Y876300D01*
X-70840600Y876300D01*
X-72275700Y876300D01*
X-72783700Y876300D01*
X-73901300Y876300D01*
X-73901300Y1219200D01*
X-73825100Y1219200D01*
X-73825100Y914400D01*
X-73691750Y914400D01*
X-73630316Y914971D01*
X-73588834Y917261D01*
X-73561871Y922141D01*
X-73543992Y930479D01*
X-73533000Y939800D01*
X-73519784Y957267D01*
X-73512019Y981271D01*
X-73508398Y1018347D01*
X-73507600Y1066800D01*
X-73508998Y1126219D01*
X-73509659Y1130300D01*
X-73482200Y1130300D01*
X-73482200Y1003300D01*
X-73421240Y1003300D01*
X-73382001Y1006305D01*
X-73352558Y1013913D01*
X-73345040Y1018540D01*
X-73333305Y1042289D01*
X-73329800Y1066800D01*
X-73336263Y1101089D01*
X-73358073Y1121190D01*
X-73398862Y1129627D01*
X-73421240Y1130300D01*
X-73482200Y1130300D01*
X-73509659Y1130300D01*
X-73515739Y1167808D01*
X-73531649Y1194732D01*
X-73560550Y1210155D01*
X-73606269Y1217242D01*
X-73672627Y1219158D01*
X-73691750Y1219200D01*
X-73825100Y1219200D01*
X-73901300Y1219200D01*
X-73901300Y1625600D01*
X-73825100Y1625600D01*
X-73825100Y1333500D01*
X-73686121Y1333500D01*
X-73624570Y1333865D01*
X-73583312Y1335563D01*
X-73557245Y1339502D01*
X-73541264Y1346589D01*
X-73530268Y1357732D01*
X-73527371Y1361726D01*
X-73514706Y1393850D01*
X-73508462Y1446343D01*
X-73507600Y1484551D01*
X-73508770Y1540068D01*
X-73510242Y1549400D01*
X-73482200Y1549400D01*
X-73482200Y1409700D01*
X-73425958Y1409700D01*
X-73381059Y1414752D01*
X-73351168Y1428336D01*
X-73349758Y1429658D01*
X-73334016Y1459401D01*
X-73330709Y1496583D01*
X-73340414Y1528429D01*
X-73345040Y1534160D01*
X-73366117Y1543219D01*
X-73402009Y1548678D01*
X-73421240Y1549400D01*
X-73482200Y1549400D01*
X-73510242Y1549400D01*
X-73514868Y1578715D01*
X-73529779Y1603539D01*
X-73557390Y1617589D01*
X-73601584Y1623914D01*
X-73666248Y1625562D01*
X-73687369Y1625600D01*
X-73825100Y1625600D01*
X-73901300Y1625600D01*
X-73901300Y1681883D01*
X-73971150Y1612900D01*
X-74041000Y1543918D01*
X-74041000Y-537827D01*
X-74072675Y-508071D01*
X-74104349Y-478315D01*
X-74107600Y526018D01*
X-74110850Y1530350D01*
X-75612625Y1533578D01*
X-77114400Y1536805D01*
X-77114400Y-1473200D01*
X-74828400Y-1473200D01*
X-74828400Y-1549400D01*
X-77134318Y-1549400D01*
X-77203300Y-1619250D01*
X-77272283Y-1689100D01*
X-83134200Y-1689100D01*
X-83134200Y-1388114D01*
X-77899395Y-1388114D01*
X-77891411Y-1416050D01*
X-77880120Y-1434521D01*
X-77862941Y-1444040D01*
X-77832245Y-1447470D01*
X-77806823Y-1447800D01*
X-77736700Y-1447800D01*
X-77736700Y-1381844D01*
X-77717650Y-1381844D01*
X-77716332Y-1441937D01*
X-77709836Y-1484086D01*
X-77694355Y-1511461D01*
X-77666080Y-1527231D01*
X-77621201Y-1534565D01*
X-77555910Y-1536633D01*
X-77531532Y-1536700D01*
X-77393800Y-1536700D01*
X-77393800Y-1231900D01*
X-77525744Y-1231900D01*
X-77599336Y-1233140D01*
X-77651304Y-1238807D01*
X-77685379Y-1251814D01*
X-77705294Y-1275078D01*
X-77714778Y-1311513D01*
X-77717563Y-1364035D01*
X-77717650Y-1381844D01*
X-77736700Y-1381844D01*
X-77736700Y-1320800D01*
X-77806823Y-1320800D01*
X-77848212Y-1322101D01*
X-77871884Y-1327916D01*
X-77885471Y-1341107D01*
X-77891411Y-1352550D01*
X-77899395Y-1388114D01*
X-83134200Y-1388114D01*
X-83134200Y-958021D01*
X-77900169Y-958021D01*
X-77892469Y-995540D01*
X-77882030Y-1013174D01*
X-77863835Y-1031160D01*
X-77836754Y-1039567D01*
X-77799480Y-1041400D01*
X-77736700Y-1041400D01*
X-77736700Y-963162D01*
X-77722269Y-963162D01*
X-77721595Y-1011549D01*
X-77718783Y-1033479D01*
X-77710372Y-1067610D01*
X-77697285Y-1091066D01*
X-77675162Y-1105820D01*
X-77639641Y-1113840D01*
X-77586361Y-1117097D01*
X-77532593Y-1117600D01*
X-77393800Y-1117600D01*
X-77393800Y-825500D01*
X-77538295Y-825500D01*
X-77607066Y-826399D01*
X-77654101Y-829365D01*
X-77683008Y-834799D01*
X-77697398Y-843102D01*
X-77697485Y-843205D01*
X-77709201Y-869942D01*
X-77717800Y-912944D01*
X-77722269Y-963162D01*
X-77736700Y-963162D01*
X-77736700Y-901700D01*
X-77796025Y-901700D01*
X-77850129Y-908743D01*
X-77885450Y-928303D01*
X-77900169Y-958021D01*
X-83134200Y-958021D01*
X-83134200Y-557892D01*
X-77901800Y-557892D01*
X-77890902Y-592533D01*
X-77858580Y-614099D01*
X-77805396Y-622238D01*
X-77799293Y-622300D01*
X-77736700Y-622300D01*
X-77736700Y-534231D01*
X-77722614Y-534231D01*
X-77720762Y-584599D01*
X-77714239Y-632575D01*
X-77704059Y-669111D01*
X-77697485Y-680794D01*
X-77683227Y-689129D01*
X-77654488Y-694591D01*
X-77607661Y-697581D01*
X-77539135Y-698499D01*
X-77538295Y-698500D01*
X-77393800Y-698500D01*
X-77393800Y-406400D01*
X-77532593Y-406400D01*
X-77601920Y-407391D01*
X-77650242Y-411679D01*
X-77681921Y-421233D01*
X-77701318Y-438025D01*
X-77712794Y-464024D01*
X-77718783Y-490520D01*
X-77722614Y-534231D01*
X-77736700Y-534231D01*
X-77736700Y-482600D01*
X-77793850Y-482600D01*
X-77844851Y-490629D01*
X-77881921Y-512599D01*
X-77900503Y-545329D01*
X-77901800Y-557892D01*
X-83134200Y-557892D01*
X-83134200Y-143514D01*
X-77899395Y-143514D01*
X-77891411Y-171450D01*
X-77880120Y-189921D01*
X-77862941Y-199440D01*
X-77832245Y-202870D01*
X-77806823Y-203200D01*
X-77736700Y-203200D01*
X-77736700Y-137244D01*
X-77717650Y-137244D01*
X-77716332Y-197337D01*
X-77709836Y-239486D01*
X-77694355Y-266861D01*
X-77666080Y-282631D01*
X-77621201Y-289965D01*
X-77555910Y-292033D01*
X-77531532Y-292100D01*
X-77393800Y-292100D01*
X-77393800Y12700D01*
X-77525744Y12700D01*
X-77599336Y11460D01*
X-77651304Y5793D01*
X-77685379Y-7214D01*
X-77705294Y-30478D01*
X-77714778Y-66913D01*
X-77717563Y-119435D01*
X-77717650Y-137244D01*
X-77736700Y-137244D01*
X-77736700Y-76200D01*
X-77806823Y-76200D01*
X-77848212Y-77501D01*
X-77871884Y-83316D01*
X-77885471Y-96507D01*
X-77891411Y-107950D01*
X-77899395Y-143514D01*
X-83134200Y-143514D01*
X-83134200Y22659D01*
X-77330300Y22659D01*
X-77330300Y-1631082D01*
X-77260450Y-1562100D01*
X-77190600Y-1493117D01*
X-77190600Y1554878D01*
X-77250448Y1615639D01*
X-77282125Y1646394D01*
X-77307279Y1668248D01*
X-77320298Y1676400D01*
X-77321524Y1663949D01*
X-77322707Y1627587D01*
X-77323838Y1568806D01*
X-77324908Y1489094D01*
X-77325907Y1389943D01*
X-77326828Y1272841D01*
X-77327660Y1139280D01*
X-77328395Y990749D01*
X-77329023Y828738D01*
X-77329537Y654737D01*
X-77329926Y470236D01*
X-77330182Y276726D01*
X-77330295Y75695D01*
X-77330300Y22659D01*
X-83134200Y22659D01*
X-83134200Y286579D01*
X-77900169Y286579D01*
X-77892469Y249060D01*
X-77882030Y231426D01*
X-77863835Y213440D01*
X-77836754Y205033D01*
X-77799480Y203200D01*
X-77736700Y203200D01*
X-77736700Y281438D01*
X-77722269Y281438D01*
X-77721595Y233051D01*
X-77718783Y211121D01*
X-77710372Y176990D01*
X-77697285Y153534D01*
X-77675162Y138780D01*
X-77639641Y130760D01*
X-77586361Y127503D01*
X-77532593Y127000D01*
X-77393800Y127000D01*
X-77393800Y419100D01*
X-77538295Y419100D01*
X-77607066Y418201D01*
X-77654101Y415235D01*
X-77683008Y409801D01*
X-77697398Y401498D01*
X-77697485Y401395D01*
X-77709201Y374658D01*
X-77717800Y331656D01*
X-77722269Y281438D01*
X-77736700Y281438D01*
X-77736700Y342900D01*
X-77796025Y342900D01*
X-77850129Y335857D01*
X-77885450Y316297D01*
X-77900169Y286579D01*
X-83134200Y286579D01*
X-83134200Y692814D01*
X-77900743Y692814D01*
X-77896179Y659408D01*
X-77869857Y635603D01*
X-77823296Y623444D01*
X-77799293Y622300D01*
X-77736700Y622300D01*
X-77736700Y710369D01*
X-77722614Y710369D01*
X-77720762Y660001D01*
X-77714239Y612025D01*
X-77704059Y575489D01*
X-77697485Y563806D01*
X-77683227Y555471D01*
X-77654488Y550009D01*
X-77607661Y547019D01*
X-77539135Y546101D01*
X-77538295Y546100D01*
X-77393800Y546100D01*
X-77393800Y838200D01*
X-77532593Y838200D01*
X-77601920Y837209D01*
X-77650242Y832921D01*
X-77681921Y823367D01*
X-77701318Y806575D01*
X-77712794Y780576D01*
X-77718783Y754080D01*
X-77722614Y710369D01*
X-77736700Y710369D01*
X-77736700Y762000D01*
X-77799480Y762000D01*
X-77841248Y759484D01*
X-77866621Y749956D01*
X-77882030Y733775D01*
X-77900743Y692814D01*
X-83134200Y692814D01*
X-83134200Y1101086D01*
X-77899395Y1101086D01*
X-77891411Y1073150D01*
X-77880120Y1054679D01*
X-77862941Y1045160D01*
X-77832245Y1041730D01*
X-77806823Y1041400D01*
X-77736700Y1041400D01*
X-77736700Y1107356D01*
X-77717650Y1107356D01*
X-77716332Y1047263D01*
X-77709836Y1005114D01*
X-77694355Y977739D01*
X-77666080Y961969D01*
X-77621201Y954635D01*
X-77555910Y952567D01*
X-77531532Y952500D01*
X-77393800Y952500D01*
X-77393800Y1257300D01*
X-77525744Y1257300D01*
X-77599336Y1256060D01*
X-77651304Y1250393D01*
X-77685379Y1237386D01*
X-77705294Y1214122D01*
X-77714778Y1177687D01*
X-77717563Y1125165D01*
X-77717650Y1107356D01*
X-77736700Y1107356D01*
X-77736700Y1168400D01*
X-77806823Y1168400D01*
X-77848212Y1167099D01*
X-77871884Y1161284D01*
X-77885471Y1148093D01*
X-77891411Y1136650D01*
X-77899395Y1101086D01*
X-83134200Y1101086D01*
X-83134200Y1531398D01*
X-77901624Y1531398D01*
X-77892423Y1493220D01*
X-77882030Y1476026D01*
X-77863835Y1458040D01*
X-77836754Y1449633D01*
X-77799480Y1447800D01*
X-77736700Y1447800D01*
X-77736700Y1526038D01*
X-77722269Y1526038D01*
X-77721595Y1477651D01*
X-77718783Y1455721D01*
X-77710372Y1421590D01*
X-77697285Y1398134D01*
X-77675162Y1383380D01*
X-77639641Y1375360D01*
X-77586361Y1372103D01*
X-77532593Y1371600D01*
X-77393800Y1371600D01*
X-77393800Y1663700D01*
X-77538295Y1663700D01*
X-77607066Y1662801D01*
X-77654101Y1659835D01*
X-77683008Y1654401D01*
X-77697398Y1646098D01*
X-77697485Y1645995D01*
X-77709201Y1619258D01*
X-77717800Y1576256D01*
X-77722269Y1526038D01*
X-77736700Y1526038D01*
X-77736700Y1587500D01*
X-77799293Y1587500D01*
X-77853540Y1580585D01*
X-77888157Y1561202D01*
X-77901624Y1531398D01*
X-83134200Y1531398D01*
X-83134200Y1739900D01*
X-77272283Y1739900D01*
X-77203300Y1670050D01*
X-77134318Y1600200D01*
X-74084583Y1600200D01*
X-74015600Y1670050D01*
X-73946618Y1739900D01*
X-77272283Y1739900D01*
X-83134200Y1739900D01*
X-83134200Y1951567D01*
X-77216000Y1951567D01*
X-77215191Y1896113D01*
X-77213006Y1850422D01*
X-77209811Y1820271D01*
X-77207141Y1811475D01*
X-77191566Y1808206D01*
X-77156159Y1806148D01*
X-77106465Y1805500D01*
X-77057916Y1806183D01*
X-76917550Y1809750D01*
X-76917550Y1947482D01*
X-76796900Y1947482D01*
X-76796900Y1803400D01*
X-76504800Y1803400D01*
X-76504800Y1945275D01*
X-76504902Y1954938D01*
X-76377800Y1954938D01*
X-76377800Y1802569D01*
X-76234925Y1806160D01*
X-76092050Y1809750D01*
X-76088363Y1949450D01*
X-76088339Y1951567D01*
X-75971400Y1951567D01*
X-75970591Y1896113D01*
X-75968406Y1850422D01*
X-75965211Y1820271D01*
X-75962541Y1811475D01*
X-75946966Y1808206D01*
X-75911559Y1806148D01*
X-75861865Y1805500D01*
X-75813316Y1806183D01*
X-75672950Y1809750D01*
X-75669350Y1945850D01*
X-75669333Y1947482D01*
X-75552300Y1947482D01*
X-75552300Y1803400D01*
X-75260200Y1803400D01*
X-75260200Y1945275D01*
X-75260306Y1955354D01*
X-75133200Y1955354D01*
X-75133200Y1803400D01*
X-74841100Y1803400D01*
X-74841100Y1948730D01*
X-74841136Y1951567D01*
X-74726800Y1951567D01*
X-74725991Y1896113D01*
X-74723806Y1850422D01*
X-74720611Y1820271D01*
X-74717941Y1811475D01*
X-74702366Y1808206D01*
X-74666959Y1806148D01*
X-74617265Y1805500D01*
X-74568716Y1806183D01*
X-74428350Y1809750D01*
X-74424750Y1945850D01*
X-74424720Y1948730D01*
X-74307700Y1948730D01*
X-74307700Y1803400D01*
X-74015600Y1803400D01*
X-74015600Y1945275D01*
X-74016405Y2017956D01*
X-74020687Y2069045D01*
X-74031246Y2102340D01*
X-74050883Y2121641D01*
X-74082399Y2130747D01*
X-74128596Y2133456D01*
X-74154443Y2133600D01*
X-74214050Y2132509D01*
X-74255787Y2126680D01*
X-74282834Y2112280D01*
X-74298369Y2085473D01*
X-74305569Y2042426D01*
X-74307614Y1979305D01*
X-74307700Y1948730D01*
X-74424720Y1948730D01*
X-74423974Y2018408D01*
X-74428130Y2069416D01*
X-74440229Y2102652D01*
X-74463282Y2121896D01*
X-74500301Y2130923D01*
X-74554296Y2133514D01*
X-74574400Y2133600D01*
X-74634115Y2132166D01*
X-74675811Y2125299D01*
X-74702707Y2109156D01*
X-74718021Y2079894D01*
X-74724971Y2033669D01*
X-74726774Y1966637D01*
X-74726800Y1951567D01*
X-74841136Y1951567D01*
X-74842031Y2020642D01*
X-74846892Y2070999D01*
X-74858785Y2103632D01*
X-74880813Y2122373D01*
X-74916080Y2131054D01*
X-74967688Y2133505D01*
X-74990811Y2133600D01*
X-75047019Y2133045D01*
X-75086064Y2128769D01*
X-75111072Y2116859D01*
X-75125170Y2093400D01*
X-75131484Y2054479D01*
X-75133141Y1996182D01*
X-75133200Y1955354D01*
X-75260306Y1955354D01*
X-75260969Y2017943D01*
X-75265209Y2069018D01*
X-75275825Y2102304D01*
X-75295722Y2121601D01*
X-75327802Y2130714D01*
X-75374971Y2133442D01*
X-75404044Y2133600D01*
X-75461529Y2132643D01*
X-75501833Y2127218D01*
X-75528004Y2113502D01*
X-75543089Y2087667D01*
X-75550135Y2045887D01*
X-75552191Y1984338D01*
X-75552300Y1947482D01*
X-75669333Y1947482D01*
X-75668574Y2018408D01*
X-75672730Y2069416D01*
X-75684829Y2102652D01*
X-75707882Y2121896D01*
X-75744901Y2130923D01*
X-75798896Y2133514D01*
X-75819000Y2133600D01*
X-75878715Y2132166D01*
X-75920411Y2125299D01*
X-75947307Y2109156D01*
X-75962621Y2079894D01*
X-75969571Y2033669D01*
X-75971374Y1966637D01*
X-75971400Y1951567D01*
X-76088339Y1951567D01*
X-76087548Y2021187D01*
X-76091540Y2071407D01*
X-76103359Y2103931D01*
X-76126027Y2122580D01*
X-76162567Y2131175D01*
X-76215999Y2133536D01*
X-76233992Y2133600D01*
X-76290706Y2133062D01*
X-76330122Y2128842D01*
X-76355386Y2117030D01*
X-76369646Y2093717D01*
X-76376048Y2054994D01*
X-76377739Y1996952D01*
X-76377800Y1954938D01*
X-76504902Y1954938D01*
X-76505569Y2017943D01*
X-76509809Y2069018D01*
X-76520425Y2102304D01*
X-76540322Y2121601D01*
X-76572402Y2130714D01*
X-76619571Y2133442D01*
X-76648644Y2133600D01*
X-76706129Y2132643D01*
X-76746433Y2127218D01*
X-76772604Y2113502D01*
X-76787689Y2087667D01*
X-76794735Y2045887D01*
X-76796791Y1984338D01*
X-76796900Y1947482D01*
X-76917550Y1947482D01*
X-76917550Y1953674D01*
X-76918297Y2024431D01*
X-76922679Y2073685D01*
X-76933907Y2105328D01*
X-76955196Y2123253D01*
X-76989757Y2131353D01*
X-77040803Y2133522D01*
X-77066028Y2133600D01*
X-77124802Y2132116D01*
X-77165845Y2125103D01*
X-77192320Y2108722D01*
X-77207392Y2079131D01*
X-77214224Y2032491D01*
X-77215979Y1964963D01*
X-77216000Y1951567D01*
X-83134200Y1951567D01*
X-83134200Y2159000D01*
X-77143032Y2159000D01*
X-77000100Y2159000D01*
X-77000100Y2219960D01*
X-76720700Y2219960D01*
X-76720700Y2159000D01*
X-76581000Y2159000D01*
X-76581000Y2219960D01*
X-76301600Y2219960D01*
X-76301600Y2159000D01*
X-76161900Y2159000D01*
X-76161900Y2215243D01*
X-76163630Y2227492D01*
X-75882500Y2227492D01*
X-75882500Y2159000D01*
X-75755500Y2159000D01*
X-75755500Y2210635D01*
X-75476100Y2210635D01*
X-75476100Y2159000D01*
X-75336400Y2159000D01*
X-75336400Y2219960D01*
X-75057000Y2219960D01*
X-75057000Y2159000D01*
X-74917300Y2159000D01*
X-74917300Y2215243D01*
X-74917966Y2219960D01*
X-74637900Y2219960D01*
X-74637900Y2159000D01*
X-74510900Y2159000D01*
X-74510900Y2210635D01*
X-74231500Y2210635D01*
X-74231500Y2159000D01*
X-74091800Y2159000D01*
X-74091800Y2219960D01*
X-74095988Y2268591D01*
X-74110762Y2297102D01*
X-74139442Y2309711D01*
X-74163744Y2311400D01*
X-74199302Y2304168D01*
X-74220901Y2280491D01*
X-74230536Y2237402D01*
X-74231500Y2210635D01*
X-74510900Y2210635D01*
X-74510900Y2219960D01*
X-74515388Y2269335D01*
X-74530534Y2298281D01*
X-74558860Y2310430D01*
X-74574400Y2311400D01*
X-74608689Y2304938D01*
X-74628790Y2283128D01*
X-74637227Y2242339D01*
X-74637900Y2219960D01*
X-74917966Y2219960D01*
X-74924635Y2267168D01*
X-74946997Y2298922D01*
X-74984921Y2311197D01*
X-74991868Y2311400D01*
X-75026912Y2305198D01*
X-75047461Y2284072D01*
X-75056202Y2244248D01*
X-75057000Y2219960D01*
X-75336400Y2219960D01*
X-75340588Y2268591D01*
X-75355362Y2297102D01*
X-75384042Y2309711D01*
X-75408344Y2311400D01*
X-75443902Y2304168D01*
X-75465501Y2280491D01*
X-75475136Y2237402D01*
X-75476100Y2210635D01*
X-75755500Y2210635D01*
X-75755500Y2219960D01*
X-75760241Y2269985D01*
X-75775778Y2299269D01*
X-75804086Y2310891D01*
X-75814152Y2311400D01*
X-75851052Y2308057D01*
X-75871847Y2294484D01*
X-75880863Y2265374D01*
X-75882500Y2227492D01*
X-76163630Y2227492D01*
X-76169235Y2267168D01*
X-76191597Y2298922D01*
X-76229521Y2311197D01*
X-76236468Y2311400D01*
X-76271512Y2305198D01*
X-76292061Y2284072D01*
X-76300802Y2244248D01*
X-76301600Y2219960D01*
X-76581000Y2219960D01*
X-76585250Y2268742D01*
X-76600088Y2297345D01*
X-76628650Y2309874D01*
X-76650850Y2311400D01*
X-76688114Y2305837D01*
X-76709964Y2286413D01*
X-76719535Y2249023D01*
X-76720700Y2219960D01*
X-77000100Y2219960D01*
X-77004623Y2269428D01*
X-77019810Y2298392D01*
X-77048087Y2310374D01*
X-77062965Y2311206D01*
X-77099214Y2305802D01*
X-77121373Y2287008D01*
X-77133393Y2250152D01*
X-77136801Y2223854D01*
X-77143032Y2159000D01*
X-83134200Y2159000D01*
X-83134200Y7086600D01*
X-44208700Y7086600D01*
X-44208700Y-7086600D01*
G36*
X-74018624Y-889189D02*
X-73910166Y-996605D01*
X-73807213Y-1098763D01*
X-73711156Y-1194272D01*
X-73623387Y-1281739D01*
X-73545297Y-1359772D01*
X-73478278Y-1426977D01*
X-73423721Y-1481962D01*
X-73383018Y-1523335D01*
X-73357558Y-1549702D01*
X-73348735Y-1559671D01*
X-73348746Y-1559707D01*
X-73362057Y-1560169D01*
X-73396087Y-1558755D01*
X-73446247Y-1555724D01*
X-73507945Y-1551334D01*
X-73534673Y-1549267D01*
X-73716812Y-1534869D01*
X-73745827Y-1570709D01*
X-73761122Y-1590279D01*
X-73771950Y-1608248D01*
X-73777397Y-1627331D01*
X-73776551Y-1650243D01*
X-73768497Y-1679698D01*
X-73752321Y-1718409D01*
X-73727109Y-1769090D01*
X-73691947Y-1834457D01*
X-73645921Y-1917222D01*
X-73604038Y-1991788D01*
X-73557301Y-2075300D01*
X-73514889Y-2151844D01*
X-73478345Y-2218575D01*
X-73449210Y-2272651D01*
X-73429026Y-2311229D01*
X-73419334Y-2331465D01*
X-73418700Y-2333602D01*
X-73429282Y-2342549D01*
X-73458118Y-2360686D01*
X-73500843Y-2385649D01*
X-73553093Y-2415069D01*
X-73610505Y-2446580D01*
X-73668714Y-2477816D01*
X-73723355Y-2506410D01*
X-73770066Y-2529995D01*
X-73804481Y-2546205D01*
X-73822236Y-2552673D01*
X-73822718Y-2552700D01*
X-73830496Y-2541522D01*
X-73846907Y-2509958D01*
X-73870562Y-2460958D01*
X-73900069Y-2397473D01*
X-73934037Y-2322454D01*
X-73971075Y-2238853D01*
X-73976845Y-2225675D01*
X-74014740Y-2139400D01*
X-74050084Y-2059717D01*
X-74081395Y-1989903D01*
X-74107193Y-1933237D01*
X-74125996Y-1892996D01*
X-74136324Y-1872459D01*
X-74136827Y-1871625D01*
X-74166441Y-1847967D01*
X-74209339Y-1836280D01*
X-74264824Y-1827959D01*
X-74411836Y-1977604D01*
X-74463929Y-2030958D01*
X-74512075Y-2080870D01*
X-74552400Y-2123281D01*
X-74581032Y-2154129D01*
X-74590944Y-2165350D01*
X-74612447Y-2187928D01*
X-74626765Y-2197574D01*
X-74628729Y-2197100D01*
X-74630029Y-2183636D01*
X-74631872Y-2146918D01*
X-74634189Y-2089083D01*
X-74636910Y-2012270D01*
X-74639966Y-1918617D01*
X-74643288Y-1810262D01*
X-74646808Y-1689343D01*
X-74650456Y-1557998D01*
X-74654164Y-1418366D01*
X-74655369Y-1371600D01*
X-74659199Y-1224156D01*
X-74663058Y-1079992D01*
X-74666864Y-941829D01*
X-74670538Y-812389D01*
X-74674001Y-694397D01*
X-74677170Y-590575D01*
X-74679968Y-503645D01*
X-74682313Y-436331D01*
X-74684125Y-391355D01*
X-74684305Y-387539D01*
X-74692290Y-222629D01*
X-74018624Y-889189D01*
X-74018624Y-889189D01*
G37*
X-74018624Y-889189D02*
X-73910166Y-996605D01*
X-73807213Y-1098763D01*
X-73711156Y-1194272D01*
X-73623387Y-1281739D01*
X-73545297Y-1359772D01*
X-73478278Y-1426977D01*
X-73423721Y-1481962D01*
X-73383018Y-1523335D01*
X-73357558Y-1549702D01*
X-73348735Y-1559671D01*
X-73348746Y-1559707D01*
X-73362057Y-1560169D01*
X-73396087Y-1558755D01*
X-73446247Y-1555724D01*
X-73507945Y-1551334D01*
X-73534673Y-1549267D01*
X-73716812Y-1534869D01*
X-73745827Y-1570709D01*
X-73761122Y-1590279D01*
X-73771950Y-1608248D01*
X-73777397Y-1627331D01*
X-73776551Y-1650243D01*
X-73768497Y-1679698D01*
X-73752321Y-1718409D01*
X-73727109Y-1769090D01*
X-73691947Y-1834457D01*
X-73645921Y-1917222D01*
X-73604038Y-1991788D01*
X-73557301Y-2075300D01*
X-73514889Y-2151844D01*
X-73478345Y-2218575D01*
X-73449210Y-2272651D01*
X-73429026Y-2311229D01*
X-73419334Y-2331465D01*
X-73418700Y-2333602D01*
X-73429282Y-2342549D01*
X-73458118Y-2360686D01*
X-73500843Y-2385649D01*
X-73553093Y-2415069D01*
X-73610505Y-2446580D01*
X-73668714Y-2477816D01*
X-73723355Y-2506410D01*
X-73770066Y-2529995D01*
X-73804481Y-2546205D01*
X-73822236Y-2552673D01*
X-73822718Y-2552700D01*
X-73830496Y-2541522D01*
X-73846907Y-2509958D01*
X-73870562Y-2460958D01*
X-73900069Y-2397473D01*
X-73934037Y-2322454D01*
X-73971075Y-2238853D01*
X-73976845Y-2225675D01*
X-74014740Y-2139400D01*
X-74050084Y-2059717D01*
X-74081395Y-1989903D01*
X-74107193Y-1933237D01*
X-74125996Y-1892996D01*
X-74136324Y-1872459D01*
X-74136827Y-1871625D01*
X-74166441Y-1847967D01*
X-74209339Y-1836280D01*
X-74264824Y-1827959D01*
X-74411836Y-1977604D01*
X-74463929Y-2030958D01*
X-74512075Y-2080870D01*
X-74552400Y-2123281D01*
X-74581032Y-2154129D01*
X-74590944Y-2165350D01*
X-74612447Y-2187928D01*
X-74626765Y-2197574D01*
X-74628729Y-2197100D01*
X-74630029Y-2183636D01*
X-74631872Y-2146918D01*
X-74634189Y-2089083D01*
X-74636910Y-2012270D01*
X-74639966Y-1918617D01*
X-74643288Y-1810262D01*
X-74646808Y-1689343D01*
X-74650456Y-1557998D01*
X-74654164Y-1418366D01*
X-74655369Y-1371600D01*
X-74659199Y-1224156D01*
X-74663058Y-1079992D01*
X-74666864Y-941829D01*
X-74670538Y-812389D01*
X-74674001Y-694397D01*
X-74677170Y-590575D01*
X-74679968Y-503645D01*
X-74682313Y-436331D01*
X-74684125Y-391355D01*
X-74684305Y-387539D01*
X-74692290Y-222629D01*
X-74018624Y-889189D01*
G36*
X-76782766Y1426182D02*
X-76719069Y1400806D01*
X-76664422Y1358666D01*
X-76622871Y1302576D01*
X-76598460Y1235353D01*
X-76593700Y1187450D01*
X-76605744Y1112181D01*
X-76639926Y1045334D01*
X-76693325Y991201D01*
X-76749041Y959457D01*
X-76812053Y942189D01*
X-76874097Y945663D01*
X-76942030Y970341D01*
X-76946991Y972778D01*
X-77010544Y1015907D01*
X-77052405Y1071761D01*
X-77073378Y1141667D01*
X-77075504Y1173939D01*
X-77010094Y1173939D01*
X-76992424Y1110269D01*
X-76991592Y1108495D01*
X-76954768Y1058469D01*
X-76901733Y1027242D01*
X-76834634Y1016061D01*
X-76832267Y1016048D01*
X-76787437Y1019966D01*
X-76752827Y1035384D01*
X-76728268Y1054735D01*
X-76686310Y1105588D01*
X-76665899Y1161619D01*
X-76665604Y1218182D01*
X-76683997Y1270631D01*
X-76719651Y1314322D01*
X-76771134Y1344609D01*
X-76820895Y1355895D01*
X-76886363Y1351282D01*
X-76940831Y1326702D01*
X-76981484Y1286233D01*
X-77005509Y1233953D01*
X-77010094Y1173939D01*
X-77075504Y1173939D01*
X-77076300Y1186022D01*
X-77065354Y1265378D01*
X-77032760Y1331522D01*
X-76978886Y1383911D01*
X-76921133Y1415377D01*
X-76851470Y1431978D01*
X-76782766Y1426182D01*
X-76782766Y1426182D01*
G37*
X-76782766Y1426182D02*
X-76719069Y1400806D01*
X-76664422Y1358666D01*
X-76622871Y1302576D01*
X-76598460Y1235353D01*
X-76593700Y1187450D01*
X-76605744Y1112181D01*
X-76639926Y1045334D01*
X-76693325Y991201D01*
X-76749041Y959457D01*
X-76812053Y942189D01*
X-76874097Y945663D01*
X-76942030Y970341D01*
X-76946991Y972778D01*
X-77010544Y1015907D01*
X-77052405Y1071761D01*
X-77073378Y1141667D01*
X-77075504Y1173939D01*
X-77010094Y1173939D01*
X-76992424Y1110269D01*
X-76991592Y1108495D01*
X-76954768Y1058469D01*
X-76901733Y1027242D01*
X-76834634Y1016061D01*
X-76832267Y1016048D01*
X-76787437Y1019966D01*
X-76752827Y1035384D01*
X-76728268Y1054735D01*
X-76686310Y1105588D01*
X-76665899Y1161619D01*
X-76665604Y1218182D01*
X-76683997Y1270631D01*
X-76719651Y1314322D01*
X-76771134Y1344609D01*
X-76820895Y1355895D01*
X-76886363Y1351282D01*
X-76940831Y1326702D01*
X-76981484Y1286233D01*
X-77005509Y1233953D01*
X-77010094Y1173939D01*
X-77075504Y1173939D01*
X-77076300Y1186022D01*
X-77065354Y1265378D01*
X-77032760Y1331522D01*
X-76978886Y1383911D01*
X-76921133Y1415377D01*
X-76851470Y1431978D01*
X-76782766Y1426182D01*
G36*
X-64645269Y-84673D02*
X-64566593Y-114982D01*
X-64499796Y-165385D01*
X-64447656Y-234419D01*
X-64417024Y-306361D01*
X-64387114Y-445690D01*
X-64382131Y-587877D01*
X-64389102Y-661913D01*
X-64412397Y-773506D01*
X-64449175Y-863684D01*
X-64499681Y-932710D01*
X-64564162Y-980847D01*
X-64642864Y-1008359D01*
X-64719882Y-1015721D01*
X-64780116Y-1012480D01*
X-64829944Y-1000184D01*
X-64870270Y-982534D01*
X-64938706Y-935810D01*
X-64992165Y-870527D01*
X-65032252Y-784719D01*
X-65032745Y-783308D01*
X-65045836Y-727351D01*
X-65053988Y-653995D01*
X-65057232Y-570749D01*
X-65055599Y-485122D01*
X-65049120Y-404625D01*
X-65037824Y-336766D01*
X-65030825Y-311267D01*
X-65001227Y-247057D01*
X-64958067Y-186448D01*
X-64906899Y-135466D01*
X-64853275Y-100138D01*
X-64827150Y-90193D01*
X-64733048Y-75922D01*
X-64645269Y-84673D01*
X-64645269Y-84673D01*
G37*
X-64645269Y-84673D02*
X-64566593Y-114982D01*
X-64499796Y-165385D01*
X-64447656Y-234419D01*
X-64417024Y-306361D01*
X-64387114Y-445690D01*
X-64382131Y-587877D01*
X-64389102Y-661913D01*
X-64412397Y-773506D01*
X-64449175Y-863684D01*
X-64499681Y-932710D01*
X-64564162Y-980847D01*
X-64642864Y-1008359D01*
X-64719882Y-1015721D01*
X-64780116Y-1012480D01*
X-64829944Y-1000184D01*
X-64870270Y-982534D01*
X-64938706Y-935810D01*
X-64992165Y-870527D01*
X-65032252Y-784719D01*
X-65032745Y-783308D01*
X-65045836Y-727351D01*
X-65053988Y-653995D01*
X-65057232Y-570749D01*
X-65055599Y-485122D01*
X-65049120Y-404625D01*
X-65037824Y-336766D01*
X-65030825Y-311267D01*
X-65001227Y-247057D01*
X-64958067Y-186448D01*
X-64906899Y-135466D01*
X-64853275Y-100138D01*
X-64827150Y-90193D01*
X-64733048Y-75922D01*
X-64645269Y-84673D01*
G36*
X-62488861Y-706680D02*
X-62509267Y-806658D01*
X-62548171Y-891808D01*
X-62603914Y-960333D01*
X-62674833Y-1010440D01*
X-62759268Y-1040333D01*
X-62803736Y-1046941D01*
X-62853699Y-1048091D01*
X-62902432Y-1044124D01*
X-62920297Y-1040736D01*
X-62989548Y-1012486D01*
X-63040026Y-968009D01*
X-63070269Y-909328D01*
X-63078814Y-838465D01*
X-63077768Y-822766D01*
X-63064107Y-760883D01*
X-63034149Y-712975D01*
X-62984075Y-673796D01*
X-62959590Y-660414D01*
X-62934153Y-648453D01*
X-62909321Y-639771D01*
X-62880234Y-633718D01*
X-62842036Y-629644D01*
X-62789865Y-626899D01*
X-62718865Y-624832D01*
X-62688484Y-624145D01*
X-62480217Y-619611D01*
X-62488861Y-706680D01*
X-62488861Y-706680D01*
G37*
X-62488861Y-706680D02*
X-62509267Y-806658D01*
X-62548171Y-891808D01*
X-62603914Y-960333D01*
X-62674833Y-1010440D01*
X-62759268Y-1040333D01*
X-62803736Y-1046941D01*
X-62853699Y-1048091D01*
X-62902432Y-1044124D01*
X-62920297Y-1040736D01*
X-62989548Y-1012486D01*
X-63040026Y-968009D01*
X-63070269Y-909328D01*
X-63078814Y-838465D01*
X-63077768Y-822766D01*
X-63064107Y-760883D01*
X-63034149Y-712975D01*
X-62984075Y-673796D01*
X-62959590Y-660414D01*
X-62934153Y-648453D01*
X-62909321Y-639771D01*
X-62880234Y-633718D01*
X-62842036Y-629644D01*
X-62789865Y-626899D01*
X-62718865Y-624832D01*
X-62688484Y-624145D01*
X-62480217Y-619611D01*
X-62488861Y-706680D01*
G36*
X-58918755Y-56073D02*
X-58846953Y-80765D01*
X-58786098Y-124686D01*
X-58764928Y-146760D01*
X-58716634Y-218315D01*
X-58690724Y-296107D01*
X-58686700Y-341198D01*
X-58686700Y-381000D01*
X-59347100Y-381000D01*
X-59347100Y-344928D01*
X-59341471Y-315091D01*
X-59326772Y-272654D01*
X-59307921Y-230451D01*
X-59258328Y-153710D01*
X-59196340Y-98553D01*
X-59120469Y-64086D01*
X-59029229Y-49413D01*
X-59006090Y-48745D01*
X-58918755Y-56073D01*
X-58918755Y-56073D01*
G37*
X-58918755Y-56073D02*
X-58846953Y-80765D01*
X-58786098Y-124686D01*
X-58764928Y-146760D01*
X-58716634Y-218315D01*
X-58690724Y-296107D01*
X-58686700Y-341198D01*
X-58686700Y-381000D01*
X-59347100Y-381000D01*
X-59347100Y-344928D01*
X-59341471Y-315091D01*
X-59326772Y-272654D01*
X-59307921Y-230451D01*
X-59258328Y-153710D01*
X-59196340Y-98553D01*
X-59120469Y-64086D01*
X-59029229Y-49413D01*
X-59006090Y-48745D01*
X-58918755Y-56073D01*
G36*
X-51320183Y-56798D02*
X-51244556Y-83726D01*
X-51195840Y-118081D01*
X-51149547Y-174149D01*
X-51116351Y-240162D01*
X-51100956Y-306445D01*
X-51100522Y-314149D01*
X-51098450Y-374650D01*
X-51423149Y-378034D01*
X-51511431Y-378682D01*
X-51591144Y-378745D01*
X-51658826Y-378264D01*
X-51711015Y-377277D01*
X-51744250Y-375825D01*
X-51755034Y-374233D01*
X-51757958Y-355946D01*
X-51752058Y-322002D01*
X-51739420Y-279682D01*
X-51722132Y-236265D01*
X-51707044Y-206805D01*
X-51652632Y-137766D01*
X-51582076Y-87558D01*
X-51497411Y-57269D01*
X-51410241Y-47936D01*
X-51320183Y-56798D01*
X-51320183Y-56798D01*
G37*
X-51320183Y-56798D02*
X-51244556Y-83726D01*
X-51195840Y-118081D01*
X-51149547Y-174149D01*
X-51116351Y-240162D01*
X-51100956Y-306445D01*
X-51100522Y-314149D01*
X-51098450Y-374650D01*
X-51423149Y-378034D01*
X-51511431Y-378682D01*
X-51591144Y-378745D01*
X-51658826Y-378264D01*
X-51711015Y-377277D01*
X-51744250Y-375825D01*
X-51755034Y-374233D01*
X-51757958Y-355946D01*
X-51752058Y-322002D01*
X-51739420Y-279682D01*
X-51722132Y-236265D01*
X-51707044Y-206805D01*
X-51652632Y-137766D01*
X-51582076Y-87558D01*
X-51497411Y-57269D01*
X-51410241Y-47936D01*
X-51320183Y-56798D01*
M02*
