G04 #@! TF.FileFunction,Soldermask,Top*
%FSLAX46Y46*%
G04 Gerber Fmt 4.6, Leading zero omitted, Abs format (unit mm)*
G04 Created by KiCad (PCBNEW 4.0.7-e2-6376~58~ubuntu16.04.1) date Fri Apr  6 20:48:23 2018*
%MOMM*%
%LPD*%
G01*
G04 APERTURE LIST*
%ADD10C,0.100000*%
%ADD11C,0.010000*%
G04 APERTURE END LIST*
D10*
D11*
G36*
X81618667Y8636000D02*
X80602667Y8636000D01*
X80602667Y105833D01*
X80602876Y-1043039D01*
X80603506Y-2109568D01*
X80604553Y-3093577D01*
X80606019Y-3994892D01*
X80607901Y-4813337D01*
X80610198Y-5548738D01*
X80612911Y-6200920D01*
X80616038Y-6769707D01*
X80619578Y-7254925D01*
X80623531Y-7656399D01*
X80627895Y-7973953D01*
X80632669Y-8207414D01*
X80637853Y-8356605D01*
X80643447Y-8421351D01*
X80645000Y-8424333D01*
X80659551Y-8466003D01*
X80671219Y-8588442D01*
X80679844Y-8787800D01*
X80685265Y-9060222D01*
X80687319Y-9401857D01*
X80687333Y-9435804D01*
X80686749Y-9758142D01*
X80684568Y-10005736D01*
X80680152Y-10188502D01*
X80672859Y-10316356D01*
X80662049Y-10399215D01*
X80647082Y-10446995D01*
X80627319Y-10469614D01*
X80620371Y-10472971D01*
X80560282Y-10479865D01*
X80428406Y-10485147D01*
X80237611Y-10488630D01*
X80000765Y-10490129D01*
X79730736Y-10489458D01*
X79572621Y-10488095D01*
X79497261Y-10487732D01*
X79338610Y-10487360D01*
X79098042Y-10486979D01*
X78776933Y-10486590D01*
X78376657Y-10486193D01*
X77898590Y-10485789D01*
X77344107Y-10485377D01*
X76714583Y-10484959D01*
X76011393Y-10484535D01*
X75235912Y-10484104D01*
X74389515Y-10483668D01*
X73473577Y-10483227D01*
X72489474Y-10482781D01*
X71438580Y-10482331D01*
X70322271Y-10481876D01*
X69141921Y-10481418D01*
X67898906Y-10480957D01*
X66594600Y-10480493D01*
X65230379Y-10480026D01*
X63807619Y-10479558D01*
X62327693Y-10479087D01*
X60791977Y-10478616D01*
X59201846Y-10478143D01*
X57558676Y-10477670D01*
X55863841Y-10477197D01*
X54118716Y-10476724D01*
X52324677Y-10476251D01*
X50483098Y-10475780D01*
X48595355Y-10475310D01*
X46662823Y-10474842D01*
X44686876Y-10474375D01*
X42668891Y-10473912D01*
X40610241Y-10473451D01*
X38512302Y-10472994D01*
X36376450Y-10472540D01*
X34204058Y-10472091D01*
X31996503Y-10471646D01*
X29755160Y-10471206D01*
X27481402Y-10470771D01*
X25176607Y-10470342D01*
X22842148Y-10469918D01*
X20479400Y-10469502D01*
X18089740Y-10469092D01*
X15674541Y-10468689D01*
X13235179Y-10468293D01*
X10773030Y-10467906D01*
X8289467Y-10467527D01*
X5785866Y-10467157D01*
X4116917Y-10466917D01*
X-70358000Y-10456309D01*
X-70358000Y-9443849D01*
X-70356492Y-9160210D01*
X-70352258Y-8906064D01*
X-70345731Y-8693218D01*
X-70337343Y-8533475D01*
X-70327528Y-8438640D01*
X-70320331Y-8417278D01*
X-70316180Y-8373989D01*
X-70311880Y-8249443D01*
X-70307458Y-8047048D01*
X-70302942Y-7770213D01*
X-70298360Y-7422348D01*
X-70293738Y-7006860D01*
X-70289104Y-6527160D01*
X-70284487Y-5986655D01*
X-70279913Y-5388756D01*
X-70275409Y-4736869D01*
X-70271005Y-4034406D01*
X-70266726Y-3284774D01*
X-70262601Y-2491382D01*
X-70258656Y-1657640D01*
X-70254921Y-786956D01*
X-70251424Y116417D01*
X-70220187Y8636000D01*
X-68241333Y8636000D01*
X-68241318Y6424083D01*
X-68241115Y6115190D01*
X-68240527Y5728702D01*
X-68239576Y5271694D01*
X-68238286Y4751237D01*
X-68236681Y4174402D01*
X-68234783Y3548264D01*
X-68232616Y2879893D01*
X-68230204Y2176362D01*
X-68227569Y1444743D01*
X-68224736Y692109D01*
X-68221727Y-74468D01*
X-68218566Y-847917D01*
X-68215276Y-1621164D01*
X-68213143Y-2106083D01*
X-68184983Y-8424333D01*
X78570667Y-8424333D01*
X78570667Y8636000D01*
X-68241333Y8636000D01*
X-70220187Y8636000D01*
X-70527333Y8636000D01*
X-70527334Y11655784D01*
X-70527334Y14675567D01*
X-17624782Y14703784D01*
X-15378286Y14704971D01*
X-13114241Y14706146D01*
X-10835335Y14707308D01*
X-8544256Y14708456D01*
X-6243693Y14709589D01*
X-3936333Y14710706D01*
X-1624865Y14711806D01*
X688023Y14712887D01*
X2999643Y14713950D01*
X5307306Y14714992D01*
X7608325Y14716013D01*
X9900011Y14717013D01*
X12179676Y14717989D01*
X14444631Y14718941D01*
X16692189Y14719868D01*
X18919661Y14720769D01*
X21124359Y14721643D01*
X23303596Y14722488D01*
X25454681Y14723305D01*
X27574928Y14724092D01*
X29661649Y14724847D01*
X31712154Y14725571D01*
X33723756Y14726261D01*
X35693767Y14726918D01*
X37619498Y14727539D01*
X39498261Y14728124D01*
X41327367Y14728673D01*
X43104130Y14729183D01*
X44825860Y14729654D01*
X46489869Y14730085D01*
X48093470Y14730476D01*
X49633973Y14730824D01*
X51108691Y14731129D01*
X52514935Y14731390D01*
X53850017Y14731606D01*
X55111249Y14731776D01*
X56295943Y14731899D01*
X57401411Y14731974D01*
X58424964Y14732000D01*
X81618667Y14732000D01*
X81618667Y8636000D01*
X81618667Y8636000D01*
G37*
X81618667Y8636000D02*
X80602667Y8636000D01*
X80602667Y105833D01*
X80602876Y-1043039D01*
X80603506Y-2109568D01*
X80604553Y-3093577D01*
X80606019Y-3994892D01*
X80607901Y-4813337D01*
X80610198Y-5548738D01*
X80612911Y-6200920D01*
X80616038Y-6769707D01*
X80619578Y-7254925D01*
X80623531Y-7656399D01*
X80627895Y-7973953D01*
X80632669Y-8207414D01*
X80637853Y-8356605D01*
X80643447Y-8421351D01*
X80645000Y-8424333D01*
X80659551Y-8466003D01*
X80671219Y-8588442D01*
X80679844Y-8787800D01*
X80685265Y-9060222D01*
X80687319Y-9401857D01*
X80687333Y-9435804D01*
X80686749Y-9758142D01*
X80684568Y-10005736D01*
X80680152Y-10188502D01*
X80672859Y-10316356D01*
X80662049Y-10399215D01*
X80647082Y-10446995D01*
X80627319Y-10469614D01*
X80620371Y-10472971D01*
X80560282Y-10479865D01*
X80428406Y-10485147D01*
X80237611Y-10488630D01*
X80000765Y-10490129D01*
X79730736Y-10489458D01*
X79572621Y-10488095D01*
X79497261Y-10487732D01*
X79338610Y-10487360D01*
X79098042Y-10486979D01*
X78776933Y-10486590D01*
X78376657Y-10486193D01*
X77898590Y-10485789D01*
X77344107Y-10485377D01*
X76714583Y-10484959D01*
X76011393Y-10484535D01*
X75235912Y-10484104D01*
X74389515Y-10483668D01*
X73473577Y-10483227D01*
X72489474Y-10482781D01*
X71438580Y-10482331D01*
X70322271Y-10481876D01*
X69141921Y-10481418D01*
X67898906Y-10480957D01*
X66594600Y-10480493D01*
X65230379Y-10480026D01*
X63807619Y-10479558D01*
X62327693Y-10479087D01*
X60791977Y-10478616D01*
X59201846Y-10478143D01*
X57558676Y-10477670D01*
X55863841Y-10477197D01*
X54118716Y-10476724D01*
X52324677Y-10476251D01*
X50483098Y-10475780D01*
X48595355Y-10475310D01*
X46662823Y-10474842D01*
X44686876Y-10474375D01*
X42668891Y-10473912D01*
X40610241Y-10473451D01*
X38512302Y-10472994D01*
X36376450Y-10472540D01*
X34204058Y-10472091D01*
X31996503Y-10471646D01*
X29755160Y-10471206D01*
X27481402Y-10470771D01*
X25176607Y-10470342D01*
X22842148Y-10469918D01*
X20479400Y-10469502D01*
X18089740Y-10469092D01*
X15674541Y-10468689D01*
X13235179Y-10468293D01*
X10773030Y-10467906D01*
X8289467Y-10467527D01*
X5785866Y-10467157D01*
X4116917Y-10466917D01*
X-70358000Y-10456309D01*
X-70358000Y-9443849D01*
X-70356492Y-9160210D01*
X-70352258Y-8906064D01*
X-70345731Y-8693218D01*
X-70337343Y-8533475D01*
X-70327528Y-8438640D01*
X-70320331Y-8417278D01*
X-70316180Y-8373989D01*
X-70311880Y-8249443D01*
X-70307458Y-8047048D01*
X-70302942Y-7770213D01*
X-70298360Y-7422348D01*
X-70293738Y-7006860D01*
X-70289104Y-6527160D01*
X-70284487Y-5986655D01*
X-70279913Y-5388756D01*
X-70275409Y-4736869D01*
X-70271005Y-4034406D01*
X-70266726Y-3284774D01*
X-70262601Y-2491382D01*
X-70258656Y-1657640D01*
X-70254921Y-786956D01*
X-70251424Y116417D01*
X-70220187Y8636000D01*
X-68241333Y8636000D01*
X-68241318Y6424083D01*
X-68241115Y6115190D01*
X-68240527Y5728702D01*
X-68239576Y5271694D01*
X-68238286Y4751237D01*
X-68236681Y4174402D01*
X-68234783Y3548264D01*
X-68232616Y2879893D01*
X-68230204Y2176362D01*
X-68227569Y1444743D01*
X-68224736Y692109D01*
X-68221727Y-74468D01*
X-68218566Y-847917D01*
X-68215276Y-1621164D01*
X-68213143Y-2106083D01*
X-68184983Y-8424333D01*
X78570667Y-8424333D01*
X78570667Y8636000D01*
X-68241333Y8636000D01*
X-70220187Y8636000D01*
X-70527333Y8636000D01*
X-70527334Y11655784D01*
X-70527334Y14675567D01*
X-17624782Y14703784D01*
X-15378286Y14704971D01*
X-13114241Y14706146D01*
X-10835335Y14707308D01*
X-8544256Y14708456D01*
X-6243693Y14709589D01*
X-3936333Y14710706D01*
X-1624865Y14711806D01*
X688023Y14712887D01*
X2999643Y14713950D01*
X5307306Y14714992D01*
X7608325Y14716013D01*
X9900011Y14717013D01*
X12179676Y14717989D01*
X14444631Y14718941D01*
X16692189Y14719868D01*
X18919661Y14720769D01*
X21124359Y14721643D01*
X23303596Y14722488D01*
X25454681Y14723305D01*
X27574928Y14724092D01*
X29661649Y14724847D01*
X31712154Y14725571D01*
X33723756Y14726261D01*
X35693767Y14726918D01*
X37619498Y14727539D01*
X39498261Y14728124D01*
X41327367Y14728673D01*
X43104130Y14729183D01*
X44825860Y14729654D01*
X46489869Y14730085D01*
X48093470Y14730476D01*
X49633973Y14730824D01*
X51108691Y14731129D01*
X52514935Y14731390D01*
X53850017Y14731606D01*
X55111249Y14731776D01*
X56295943Y14731899D01*
X57401411Y14731974D01*
X58424964Y14732000D01*
X81618667Y14732000D01*
X81618667Y8636000D01*
M02*
