G04 #@! TF.GenerationSoftware,KiCad,Pcbnew,5.0.0-rc2-dev-unknown-0d8692d~82~ubuntu16.04.1*
G04 #@! TF.CreationDate,2018-04-13T20:21:19+01:00*
G04 #@! TF.ProjectId,pcbart,7063626172742E6B696361645F706362,rev?*
G04 #@! TF.SameCoordinates,Original*
G04 #@! TF.FileFunction,Copper,L1,Top,Signal*
G04 #@! TF.FilePolarity,Positive*
%FSLAX46Y46*%
G04 Gerber Fmt 4.6, Leading zero omitted, Abs format (unit mm)*
G04 Created by KiCad (PCBNEW 5.0.0-rc2-dev-unknown-0d8692d~82~ubuntu16.04.1) date Fri Apr 13 20:21:19 2018*
%MOMM*%
%LPD*%
G01*
G04 APERTURE LIST*
%ADD10C,0.010000*%
G04 APERTURE END LIST*
D10*
G36*
X75916902Y-9528175D02*
X75916386Y-9823161D01*
X75915897Y-10093857D01*
X75915423Y-10341372D01*
X75914951Y-10566815D01*
X75914467Y-10771297D01*
X75913960Y-10955927D01*
X75913414Y-11121813D01*
X75912819Y-11270067D01*
X75912160Y-11401797D01*
X75911425Y-11518112D01*
X75910600Y-11620123D01*
X75909673Y-11708939D01*
X75908630Y-11785669D01*
X75907459Y-11851423D01*
X75906147Y-11907311D01*
X75904680Y-11954441D01*
X75903046Y-11993924D01*
X75901231Y-12026869D01*
X75899222Y-12054386D01*
X75897007Y-12077584D01*
X75894572Y-12097572D01*
X75891905Y-12115461D01*
X75888991Y-12132359D01*
X75886166Y-12147550D01*
X75823100Y-12423467D01*
X75741187Y-12682832D01*
X75639885Y-12926701D01*
X75518649Y-13156131D01*
X75376939Y-13372178D01*
X75214211Y-13575899D01*
X75078308Y-13720975D01*
X74879713Y-13903274D01*
X74671573Y-14062182D01*
X74453115Y-14198148D01*
X74223565Y-14311617D01*
X73982147Y-14403038D01*
X73812400Y-14452429D01*
X73748795Y-14468450D01*
X73692010Y-14481536D01*
X73638490Y-14491982D01*
X73584683Y-14500084D01*
X73527034Y-14506138D01*
X73461991Y-14510437D01*
X73386001Y-14513278D01*
X73295510Y-14514955D01*
X73186965Y-14515765D01*
X73056812Y-14516001D01*
X73047225Y-14516004D01*
X72593200Y-14516100D01*
X72593200Y-8623300D01*
X72313800Y-8623300D01*
X72313800Y-11569768D01*
X72313799Y-14516237D01*
X71186675Y-14512993D01*
X70059550Y-14509750D01*
X70053082Y-11861800D01*
X69773800Y-11861800D01*
X69773800Y-14516100D01*
X67525900Y-14516100D01*
X67525900Y-11861800D01*
X67246617Y-11861800D01*
X67243383Y-13185775D01*
X67240150Y-14509750D01*
X66113025Y-14512993D01*
X64985900Y-14516237D01*
X64985900Y-11861800D01*
X64706500Y-11861800D01*
X64706500Y-14516100D01*
X62458717Y-14516100D01*
X62455483Y-13192125D01*
X62452250Y-11868150D01*
X62172850Y-11868150D01*
X62166382Y-14516100D01*
X59918600Y-14516100D01*
X59918600Y-10121900D01*
X59639271Y-10121900D01*
X59636060Y-12315825D01*
X59632850Y-14509750D01*
X57384950Y-14509750D01*
X57378482Y-11861800D01*
X57099200Y-11861800D01*
X57099200Y-14516100D01*
X54851417Y-14516100D01*
X54848183Y-13192125D01*
X54844950Y-11868150D01*
X54565550Y-11868150D01*
X54559082Y-14516100D01*
X52311300Y-14516100D01*
X52311300Y-11861800D01*
X52031900Y-11861800D01*
X52031900Y-14516237D01*
X50904775Y-14512993D01*
X49777650Y-14509750D01*
X49771182Y-11861800D01*
X49491900Y-11861800D01*
X49491900Y-14516100D01*
X47244000Y-14516100D01*
X47244000Y-8921750D01*
X70152907Y-8921750D01*
X70156604Y-9063769D01*
X70167267Y-9187565D01*
X70185825Y-9299588D01*
X70213205Y-9406285D01*
X70230084Y-9458467D01*
X70286290Y-9590029D01*
X70357392Y-9703729D01*
X70441734Y-9798531D01*
X70537660Y-9873402D01*
X70643515Y-9927309D01*
X70757643Y-9959218D01*
X70878388Y-9968095D01*
X71004095Y-9952907D01*
X71017299Y-9949925D01*
X71129459Y-9910715D01*
X71231375Y-9849313D01*
X71320551Y-9767718D01*
X71394491Y-9667928D01*
X71414987Y-9631602D01*
X71456012Y-9540511D01*
X71482807Y-9447688D01*
X71497074Y-9345453D01*
X71500624Y-9245600D01*
X71492867Y-9106558D01*
X71469074Y-8985578D01*
X71428466Y-8880412D01*
X71370263Y-8788812D01*
X71324051Y-8736899D01*
X71281157Y-8698067D01*
X71235720Y-8663153D01*
X71197331Y-8639507D01*
X71196200Y-8638957D01*
X71080507Y-8596337D01*
X70961078Y-8576197D01*
X70841826Y-8578325D01*
X70726667Y-8602510D01*
X70619517Y-8648538D01*
X70580880Y-8672273D01*
X70537530Y-8701439D01*
X70511808Y-8716328D01*
X70499773Y-8716079D01*
X70497487Y-8699833D01*
X70501007Y-8666728D01*
X70502402Y-8655131D01*
X70524596Y-8526904D01*
X70559087Y-8408767D01*
X70604195Y-8305230D01*
X70658243Y-8220806D01*
X70668654Y-8208149D01*
X70736083Y-8147796D01*
X70814953Y-8107311D01*
X70900841Y-8086720D01*
X70989325Y-8086051D01*
X71075984Y-8105335D01*
X71156396Y-8144598D01*
X71226138Y-8203868D01*
X71226780Y-8204578D01*
X71253879Y-8232597D01*
X71274632Y-8250496D01*
X71281891Y-8254088D01*
X71293432Y-8244654D01*
X71317836Y-8219627D01*
X71351548Y-8182793D01*
X71391012Y-8137938D01*
X71391794Y-8137033D01*
X71492139Y-8020890D01*
X71414367Y-7949359D01*
X71327387Y-7881434D01*
X71230650Y-7826520D01*
X71132887Y-7789404D01*
X71113642Y-7784459D01*
X71070878Y-7777627D01*
X71013304Y-7772602D01*
X70951492Y-7770228D01*
X70934239Y-7770156D01*
X70801187Y-7782605D01*
X70677870Y-7818071D01*
X70565217Y-7875748D01*
X70464158Y-7954827D01*
X70375623Y-8054501D01*
X70300542Y-8173962D01*
X70239846Y-8312402D01*
X70212857Y-8396607D01*
X70188052Y-8495759D01*
X70170440Y-8595202D01*
X70159264Y-8701561D01*
X70153767Y-8821461D01*
X70152907Y-8921750D01*
X47244000Y-8921750D01*
X47244000Y-8623300D01*
X46964653Y-8623300D01*
X46961451Y-11566525D01*
X46958250Y-14509750D01*
X45831125Y-14512993D01*
X44703999Y-14516237D01*
X44704000Y-13189018D01*
X44704000Y-11861800D01*
X44424600Y-11861800D01*
X44424600Y-14516100D01*
X42176817Y-14516100D01*
X42173583Y-13192125D01*
X42170350Y-11868150D01*
X41890950Y-11868150D01*
X41884482Y-14516100D01*
X39636700Y-14516100D01*
X39636700Y-11861800D01*
X39357417Y-11861800D01*
X39354183Y-13185775D01*
X39350950Y-14509750D01*
X37103050Y-14509750D01*
X37096582Y-11861800D01*
X36817300Y-11861800D01*
X36817300Y-14516100D01*
X34569400Y-14516100D01*
X34569400Y-10121900D01*
X34277300Y-10121900D01*
X34277300Y-14516100D01*
X32029400Y-14516100D01*
X32029400Y-11861800D01*
X31750000Y-11861800D01*
X31750000Y-14516237D01*
X30622875Y-14512993D01*
X29495750Y-14509750D01*
X29489282Y-11861800D01*
X29210000Y-11861800D01*
X29210000Y-14516100D01*
X26962100Y-14516100D01*
X26962100Y-11861800D01*
X26682817Y-11861800D01*
X26679583Y-13185775D01*
X26676350Y-14509750D01*
X25549225Y-14512993D01*
X24422099Y-14516237D01*
X24422100Y-13189018D01*
X24422100Y-11861800D01*
X24142700Y-11861800D01*
X24142700Y-14516100D01*
X21894800Y-14516100D01*
X21894800Y-9631764D01*
X44792680Y-9631764D01*
X44846765Y-9687221D01*
X44897799Y-9733248D01*
X44961879Y-9782033D01*
X45030077Y-9827401D01*
X45093468Y-9863179D01*
X45116750Y-9873961D01*
X45210879Y-9905904D01*
X45316636Y-9928817D01*
X45426869Y-9942087D01*
X45534427Y-9945100D01*
X45632159Y-9937243D01*
X45695469Y-9923622D01*
X45821290Y-9873648D01*
X45932487Y-9803574D01*
X46027564Y-9715042D01*
X46105024Y-9609696D01*
X46163369Y-9489182D01*
X46197655Y-9372153D01*
X46208894Y-9290482D01*
X46212110Y-9196161D01*
X46207657Y-9099129D01*
X46195890Y-9009325D01*
X46182721Y-8953500D01*
X46135012Y-8835867D01*
X46068303Y-8733520D01*
X45984468Y-8648210D01*
X45885377Y-8581690D01*
X45772906Y-8535711D01*
X45722549Y-8523034D01*
X45648051Y-8512843D01*
X45563125Y-8509588D01*
X45478523Y-8513140D01*
X45404995Y-8523372D01*
X45389409Y-8527008D01*
X45351253Y-8536333D01*
X45324864Y-8541699D01*
X45317167Y-8542200D01*
X45317291Y-8529274D01*
X45319426Y-8495297D01*
X45323257Y-8444509D01*
X45328470Y-8381153D01*
X45332868Y-8330516D01*
X45339067Y-8260144D01*
X45344404Y-8198710D01*
X45348500Y-8150640D01*
X45350976Y-8120359D01*
X45351543Y-8112125D01*
X45363765Y-8109738D01*
X45398282Y-8107571D01*
X45451986Y-8105700D01*
X45521772Y-8104203D01*
X45604534Y-8103157D01*
X45697167Y-8102641D01*
X45732700Y-8102600D01*
X46113700Y-8102600D01*
X46113700Y-7785100D01*
X45573950Y-7785100D01*
X45459629Y-7785172D01*
X45353558Y-7785378D01*
X45258346Y-7785703D01*
X45176601Y-7786131D01*
X45110932Y-7786648D01*
X45063947Y-7787237D01*
X45038255Y-7787883D01*
X45034137Y-7788275D01*
X45033290Y-7801219D01*
X45030903Y-7836675D01*
X45027170Y-7891811D01*
X45022283Y-7963797D01*
X45016433Y-8049804D01*
X45009814Y-8147001D01*
X45002616Y-8252557D01*
X45002450Y-8255000D01*
X44995173Y-8363175D01*
X44988508Y-8465197D01*
X44982651Y-8557837D01*
X44977797Y-8637867D01*
X44974144Y-8702057D01*
X44971886Y-8747179D01*
X44971212Y-8769350D01*
X44972459Y-8794768D01*
X44978665Y-8813470D01*
X44994226Y-8830514D01*
X45023537Y-8850956D01*
X45063185Y-8875164D01*
X45108208Y-8901733D01*
X45137473Y-8916616D01*
X45156855Y-8921440D01*
X45172226Y-8917832D01*
X45186559Y-8909327D01*
X45290515Y-8851860D01*
X45392369Y-8816331D01*
X45490080Y-8802769D01*
X45581603Y-8811206D01*
X45664895Y-8841671D01*
X45737913Y-8894195D01*
X45744923Y-8901014D01*
X45793028Y-8958447D01*
X45825675Y-9021499D01*
X45844767Y-9095700D01*
X45852202Y-9186576D01*
X45852460Y-9213850D01*
X45851095Y-9274843D01*
X45846160Y-9320065D01*
X45835880Y-9359081D01*
X45818483Y-9401456D01*
X45817158Y-9404350D01*
X45767225Y-9490539D01*
X45705405Y-9555287D01*
X45628969Y-9600844D01*
X45547203Y-9626901D01*
X45461563Y-9634275D01*
X45367357Y-9621778D01*
X45269464Y-9591093D01*
X45172763Y-9543899D01*
X45082133Y-9481875D01*
X45052181Y-9456463D01*
X44974913Y-9387024D01*
X44883796Y-9509394D01*
X44792680Y-9631764D01*
X21894800Y-9631764D01*
X21894800Y-8623300D01*
X21602700Y-8623300D01*
X21602700Y-14516100D01*
X19354800Y-14516100D01*
X19354800Y-11861800D01*
X19075517Y-11861800D01*
X19072283Y-13185775D01*
X19069050Y-14509750D01*
X16821150Y-14509750D01*
X16814682Y-11861800D01*
X16535400Y-11861800D01*
X16535400Y-14516100D01*
X14287617Y-14516100D01*
X14284383Y-13192125D01*
X14281150Y-11868150D01*
X14001750Y-11868150D01*
X13995282Y-14516100D01*
X11747500Y-14516100D01*
X11747500Y-11861800D01*
X11468217Y-11861800D01*
X11464983Y-13185775D01*
X11461750Y-14509750D01*
X9213850Y-14509750D01*
X9207428Y-10121900D01*
X8928100Y-10121900D01*
X8928100Y-14516100D01*
X6680200Y-14516100D01*
X6680200Y-11861800D01*
X6400917Y-11861800D01*
X6397683Y-13185775D01*
X6394450Y-14509750D01*
X5267325Y-14512993D01*
X4140200Y-14516237D01*
X4140200Y-11861800D01*
X3860800Y-11861800D01*
X3860800Y-14516237D01*
X2733675Y-14512993D01*
X1606550Y-14509750D01*
X1600082Y-11861800D01*
X1320800Y-11861800D01*
X1320800Y-14516100D01*
X-927100Y-14516100D01*
X-927100Y-11861800D01*
X-1206383Y-11861800D01*
X-1209617Y-13185775D01*
X-1212850Y-14509750D01*
X-2339976Y-14512993D01*
X-3467101Y-14516237D01*
X-3467101Y-11569768D01*
X-3467101Y-9372600D01*
X19278600Y-9372600D01*
X20154900Y-9372600D01*
X20154900Y-9931400D01*
X20497800Y-9931400D01*
X20497800Y-9372600D01*
X20764500Y-9372600D01*
X20764500Y-9067800D01*
X20497800Y-9067800D01*
X20497800Y-7797102D01*
X20317285Y-7800626D01*
X20136771Y-7804150D01*
X19708648Y-8464550D01*
X19280526Y-9124950D01*
X19278600Y-9372600D01*
X-3467101Y-9372600D01*
X-3467100Y-8623300D01*
X-3746500Y-8623300D01*
X-3746500Y-14516100D01*
X-5994283Y-14516100D01*
X-5997517Y-13192125D01*
X-6000750Y-11868150D01*
X-6280150Y-11868150D01*
X-6286618Y-14516100D01*
X-8534400Y-14516100D01*
X-8534400Y-11861800D01*
X-8813683Y-11861800D01*
X-8816917Y-13185775D01*
X-8820150Y-14509750D01*
X-11068050Y-14509750D01*
X-11074518Y-11861800D01*
X-11353800Y-11861800D01*
X-11353800Y-14516100D01*
X-13601583Y-14516100D01*
X-13604817Y-13192125D01*
X-13608050Y-11868150D01*
X-13887450Y-11868150D01*
X-13893918Y-14516100D01*
X-16141700Y-14516100D01*
X-16141700Y-10121900D01*
X-16421100Y-10121900D01*
X-16421100Y-12319068D01*
X-16421101Y-14516237D01*
X-17548225Y-14512993D01*
X-18675350Y-14509750D01*
X-18681818Y-11861800D01*
X-18961100Y-11861800D01*
X-18961100Y-14516100D01*
X-21209000Y-14516100D01*
X-21209000Y-11861800D01*
X-21488283Y-11861800D01*
X-21491517Y-13185775D01*
X-21494750Y-14509750D01*
X-22621875Y-14512993D01*
X-23749000Y-14516237D01*
X-23749000Y-11861800D01*
X-24028400Y-11861800D01*
X-24028400Y-14516100D01*
X-26276183Y-14516100D01*
X-26279417Y-13192125D01*
X-26282650Y-11868150D01*
X-26562050Y-11868150D01*
X-26568518Y-14516100D01*
X-28816300Y-14516100D01*
X-28816300Y-9644312D01*
X-5782057Y-9644312D01*
X-5694554Y-9727685D01*
X-5582709Y-9817084D01*
X-5455423Y-9888037D01*
X-5316465Y-9938713D01*
X-5213350Y-9961291D01*
X-5167166Y-9965042D01*
X-5104209Y-9965287D01*
X-5032290Y-9962513D01*
X-4959222Y-9957208D01*
X-4892815Y-9949860D01*
X-4840879Y-9940956D01*
X-4826000Y-9937097D01*
X-4703564Y-9888207D01*
X-4597847Y-9821488D01*
X-4510132Y-9738167D01*
X-4441701Y-9639468D01*
X-4393835Y-9526618D01*
X-4392616Y-9522651D01*
X-4371845Y-9419813D01*
X-4368455Y-9311659D01*
X-4381999Y-9206280D01*
X-4412030Y-9111767D01*
X-4415738Y-9103618D01*
X-4477896Y-9000272D01*
X-4559621Y-8912991D01*
X-4637272Y-8856129D01*
X-4711067Y-8810580D01*
X-4663759Y-8776171D01*
X-4576544Y-8697890D01*
X-4509256Y-8606233D01*
X-4462654Y-8504495D01*
X-4437497Y-8395966D01*
X-4434547Y-8283939D01*
X-4454561Y-8171706D01*
X-4498300Y-8062559D01*
X-4498862Y-8061490D01*
X-4561275Y-7969536D01*
X-4642241Y-7894028D01*
X-4740376Y-7835679D01*
X-4854295Y-7795200D01*
X-4982612Y-7773303D01*
X-5067300Y-7769375D01*
X-5183877Y-7775481D01*
X-5288375Y-7796285D01*
X-5390982Y-7834259D01*
X-5446565Y-7861400D01*
X-5491919Y-7887624D01*
X-5542543Y-7920858D01*
X-5593406Y-7957297D01*
X-5639475Y-7993135D01*
X-5675720Y-8024566D01*
X-5697110Y-8047785D01*
X-5700128Y-8053195D01*
X-5693903Y-8065979D01*
X-5674718Y-8093071D01*
X-5646453Y-8129761D01*
X-5612983Y-8171339D01*
X-5578189Y-8213093D01*
X-5545945Y-8250314D01*
X-5520131Y-8278292D01*
X-5504624Y-8292315D01*
X-5502641Y-8293100D01*
X-5490460Y-8284992D01*
X-5465198Y-8263600D01*
X-5432011Y-8233317D01*
X-5427411Y-8228983D01*
X-5378400Y-8188819D01*
X-5319771Y-8149446D01*
X-5273784Y-8124208D01*
X-5226335Y-8103268D01*
X-5186766Y-8090998D01*
X-5144464Y-8085173D01*
X-5088817Y-8083565D01*
X-5080000Y-8083550D01*
X-5006518Y-8086998D01*
X-4950672Y-8099345D01*
X-4905396Y-8123597D01*
X-4863619Y-8162757D01*
X-4846772Y-8182690D01*
X-4824894Y-8213349D01*
X-4812120Y-8243788D01*
X-4805358Y-8283625D01*
X-4802679Y-8319882D01*
X-4807006Y-8412092D01*
X-4831446Y-8489977D01*
X-4876324Y-8553814D01*
X-4941967Y-8603878D01*
X-5028703Y-8640445D01*
X-5136858Y-8663790D01*
X-5219700Y-8672063D01*
X-5353050Y-8680450D01*
X-5356612Y-8827711D01*
X-5360173Y-8974973D01*
X-5216912Y-8982831D01*
X-5083212Y-8996601D01*
X-4971659Y-9022172D01*
X-4881781Y-9059784D01*
X-4813107Y-9109679D01*
X-4765167Y-9172097D01*
X-4743129Y-9225245D01*
X-4727811Y-9292920D01*
X-4726736Y-9353504D01*
X-4739943Y-9419889D01*
X-4743764Y-9433192D01*
X-4779020Y-9510795D01*
X-4833273Y-9572090D01*
X-4905418Y-9616295D01*
X-4994349Y-9642629D01*
X-5049208Y-9649160D01*
X-5165729Y-9646281D01*
X-5273952Y-9621078D01*
X-5376321Y-9572614D01*
X-5475286Y-9499950D01*
X-5502495Y-9475350D01*
X-5541449Y-9440790D01*
X-5573443Y-9416311D01*
X-5594145Y-9405047D01*
X-5599052Y-9405500D01*
X-5610432Y-9419800D01*
X-5633611Y-9449727D01*
X-5665037Y-9490673D01*
X-5695565Y-9530681D01*
X-5782057Y-9644312D01*
X-28816300Y-9644312D01*
X-28816300Y-8623300D01*
X-29095647Y-8623300D01*
X-29098849Y-11566525D01*
X-29102050Y-14509750D01*
X-31349950Y-14509750D01*
X-31356418Y-11861800D01*
X-31635700Y-11861800D01*
X-31635700Y-14516100D01*
X-33883483Y-14516100D01*
X-33886717Y-13192125D01*
X-33889950Y-11868150D01*
X-34169350Y-11868150D01*
X-34175818Y-14516100D01*
X-36423600Y-14516100D01*
X-36423600Y-11861800D01*
X-36703000Y-11861800D01*
X-36703000Y-14516237D01*
X-37830125Y-14512993D01*
X-38957250Y-14509750D01*
X-38963718Y-11861800D01*
X-39243000Y-11861800D01*
X-39243000Y-14516100D01*
X-41490900Y-14516100D01*
X-41490900Y-10121900D01*
X-41770229Y-10121900D01*
X-41773440Y-12315825D01*
X-41776650Y-14509750D01*
X-42903775Y-14512993D01*
X-44030900Y-14516237D01*
X-44030900Y-11861800D01*
X-44310300Y-11861800D01*
X-44310300Y-14516100D01*
X-46558083Y-14516100D01*
X-46561317Y-13192125D01*
X-46564550Y-11868150D01*
X-46850300Y-11860968D01*
X-46850300Y-14516100D01*
X-49098200Y-14516100D01*
X-49098200Y-11861800D01*
X-49377483Y-11861800D01*
X-49380717Y-13185775D01*
X-49383950Y-14509750D01*
X-51631850Y-14509750D01*
X-51638318Y-11861800D01*
X-51917600Y-11861800D01*
X-51917600Y-14516100D01*
X-54165500Y-14516100D01*
X-54165500Y-8623300D01*
X-54457600Y-8623300D01*
X-54457600Y-14516100D01*
X-56705500Y-14516100D01*
X-56705500Y-11861800D01*
X-56984783Y-11861800D01*
X-56988017Y-13185775D01*
X-56991250Y-14509750D01*
X-59239150Y-14509750D01*
X-59245618Y-11861800D01*
X-59524900Y-11861800D01*
X-59524900Y-14516100D01*
X-61772800Y-14516100D01*
X-61772800Y-11861800D01*
X-62052083Y-11861800D01*
X-62055317Y-13185775D01*
X-62058550Y-14509750D01*
X-63185675Y-14512993D01*
X-64312800Y-14516237D01*
X-64312800Y-11861800D01*
X-64592200Y-11861800D01*
X-64592200Y-14516237D01*
X-65719325Y-14512993D01*
X-66846450Y-14509750D01*
X-66852872Y-10121900D01*
X-67132200Y-10121900D01*
X-67132200Y-14516100D01*
X-69380100Y-14516100D01*
X-69380100Y-11861800D01*
X-69659383Y-11861800D01*
X-69662617Y-13185775D01*
X-69665850Y-14509750D01*
X-71913750Y-14509750D01*
X-71920218Y-11861800D01*
X-72199500Y-11861800D01*
X-72199500Y-14516100D01*
X-74447283Y-14516100D01*
X-74450517Y-13192125D01*
X-74453750Y-11868150D01*
X-74733150Y-11868150D01*
X-74739618Y-14516100D01*
X-76987400Y-14516100D01*
X-76987400Y-11861800D01*
X-77266683Y-11861800D01*
X-77269917Y-13185775D01*
X-77273150Y-14509750D01*
X-79521050Y-14509750D01*
X-79526722Y-9613900D01*
X-56261000Y-9613900D01*
X-56261000Y-9931400D01*
X-55054500Y-9931400D01*
X-55054500Y-9613900D01*
X-55448031Y-9613900D01*
X-55451291Y-8709025D01*
X-55453368Y-8132060D01*
X-31269179Y-8132060D01*
X-31158684Y-8243069D01*
X-31048190Y-8354078D01*
X-30957770Y-8263264D01*
X-30887733Y-8198531D01*
X-30823911Y-8153180D01*
X-30760474Y-8124230D01*
X-30691590Y-8108702D01*
X-30647495Y-8104706D01*
X-30551305Y-8109217D01*
X-30470855Y-8133550D01*
X-30406591Y-8177250D01*
X-30358960Y-8239861D01*
X-30328405Y-8320926D01*
X-30315373Y-8419990D01*
X-30314900Y-8445136D01*
X-30326518Y-8559932D01*
X-30361441Y-8681861D01*
X-30419773Y-8811081D01*
X-30501619Y-8947749D01*
X-30607083Y-9092022D01*
X-30736268Y-9244058D01*
X-30889281Y-9404012D01*
X-31058507Y-9565002D01*
X-31242000Y-9732705D01*
X-31242000Y-9836285D01*
X-31241014Y-9885359D01*
X-31238392Y-9924199D01*
X-31234642Y-9946178D01*
X-31233425Y-9948442D01*
X-31219452Y-9950008D01*
X-31182443Y-9951362D01*
X-31124759Y-9952485D01*
X-31048761Y-9953359D01*
X-30956813Y-9953966D01*
X-30851275Y-9954289D01*
X-30734510Y-9954308D01*
X-30608881Y-9954006D01*
X-30544450Y-9953734D01*
X-29864050Y-9950450D01*
X-29856932Y-9625258D01*
X-30255490Y-9629104D01*
X-30654049Y-9632950D01*
X-30540441Y-9512300D01*
X-30387099Y-9340564D01*
X-30257659Y-9176215D01*
X-30151899Y-9018686D01*
X-30069597Y-8867410D01*
X-30010533Y-8721822D01*
X-29974485Y-8581355D01*
X-29961231Y-8445443D01*
X-29970551Y-8313519D01*
X-30002222Y-8185016D01*
X-30011433Y-8159103D01*
X-30062533Y-8057761D01*
X-30134218Y-7967910D01*
X-30223018Y-7892886D01*
X-30325463Y-7836026D01*
X-30362542Y-7821510D01*
X-30438204Y-7802235D01*
X-30528252Y-7790597D01*
X-30622710Y-7787057D01*
X-30711597Y-7792076D01*
X-30772100Y-7802591D01*
X-30885670Y-7840478D01*
X-30992587Y-7896509D01*
X-31097450Y-7973346D01*
X-31154437Y-8024047D01*
X-31269179Y-8132060D01*
X-55453368Y-8132060D01*
X-55454550Y-7804150D01*
X-55577901Y-7800520D01*
X-55637416Y-7799433D01*
X-55679378Y-7801172D01*
X-55711587Y-7806982D01*
X-55741839Y-7818108D01*
X-55768401Y-7830925D01*
X-55868507Y-7874645D01*
X-55981417Y-7912240D01*
X-56086375Y-7937903D01*
X-56172100Y-7954859D01*
X-56172100Y-8216900D01*
X-55816500Y-8216900D01*
X-55816500Y-9613900D01*
X-56261000Y-9613900D01*
X-79526722Y-9613900D01*
X-79527458Y-8978900D01*
X-79806800Y-8978900D01*
X-79806800Y-14516100D01*
X-80273525Y-14514726D01*
X-80422164Y-14513871D01*
X-80546708Y-14512230D01*
X-80648453Y-14509760D01*
X-80728692Y-14506419D01*
X-80788721Y-14502165D01*
X-80829834Y-14496956D01*
X-80831124Y-14496724D01*
X-81076814Y-14439091D01*
X-81318026Y-14357579D01*
X-81552226Y-14253632D01*
X-81776878Y-14128696D01*
X-81989448Y-13984217D01*
X-82187401Y-13821640D01*
X-82368203Y-13642411D01*
X-82408876Y-13596947D01*
X-82575533Y-13389058D01*
X-82719941Y-13171944D01*
X-82842863Y-12943988D01*
X-82945060Y-12703569D01*
X-83027294Y-12449068D01*
X-83090327Y-12178865D01*
X-83099681Y-12128500D01*
X-83102797Y-12110670D01*
X-83105658Y-12092764D01*
X-83108277Y-12073666D01*
X-83110667Y-12052260D01*
X-83112840Y-12027430D01*
X-83114811Y-11998061D01*
X-83116593Y-11963037D01*
X-83118197Y-11921242D01*
X-83119638Y-11871560D01*
X-83120929Y-11812875D01*
X-83122083Y-11744073D01*
X-83123112Y-11664037D01*
X-83124030Y-11571651D01*
X-83124850Y-11465799D01*
X-83125585Y-11345367D01*
X-83126248Y-11209238D01*
X-83126853Y-11056296D01*
X-83127412Y-10885426D01*
X-83127938Y-10695512D01*
X-83128446Y-10485439D01*
X-83128947Y-10254090D01*
X-83129454Y-10000349D01*
X-83129982Y-9723102D01*
X-83130368Y-9515475D01*
X-83134936Y-7048500D01*
X75921215Y-7048500D01*
X75916902Y-9528175D01*
X75916902Y-9528175D01*
G37*
X75916902Y-9528175D02*
X75916386Y-9823161D01*
X75915897Y-10093857D01*
X75915423Y-10341372D01*
X75914951Y-10566815D01*
X75914467Y-10771297D01*
X75913960Y-10955927D01*
X75913414Y-11121813D01*
X75912819Y-11270067D01*
X75912160Y-11401797D01*
X75911425Y-11518112D01*
X75910600Y-11620123D01*
X75909673Y-11708939D01*
X75908630Y-11785669D01*
X75907459Y-11851423D01*
X75906147Y-11907311D01*
X75904680Y-11954441D01*
X75903046Y-11993924D01*
X75901231Y-12026869D01*
X75899222Y-12054386D01*
X75897007Y-12077584D01*
X75894572Y-12097572D01*
X75891905Y-12115461D01*
X75888991Y-12132359D01*
X75886166Y-12147550D01*
X75823100Y-12423467D01*
X75741187Y-12682832D01*
X75639885Y-12926701D01*
X75518649Y-13156131D01*
X75376939Y-13372178D01*
X75214211Y-13575899D01*
X75078308Y-13720975D01*
X74879713Y-13903274D01*
X74671573Y-14062182D01*
X74453115Y-14198148D01*
X74223565Y-14311617D01*
X73982147Y-14403038D01*
X73812400Y-14452429D01*
X73748795Y-14468450D01*
X73692010Y-14481536D01*
X73638490Y-14491982D01*
X73584683Y-14500084D01*
X73527034Y-14506138D01*
X73461991Y-14510437D01*
X73386001Y-14513278D01*
X73295510Y-14514955D01*
X73186965Y-14515765D01*
X73056812Y-14516001D01*
X73047225Y-14516004D01*
X72593200Y-14516100D01*
X72593200Y-8623300D01*
X72313800Y-8623300D01*
X72313800Y-11569768D01*
X72313799Y-14516237D01*
X71186675Y-14512993D01*
X70059550Y-14509750D01*
X70053082Y-11861800D01*
X69773800Y-11861800D01*
X69773800Y-14516100D01*
X67525900Y-14516100D01*
X67525900Y-11861800D01*
X67246617Y-11861800D01*
X67243383Y-13185775D01*
X67240150Y-14509750D01*
X66113025Y-14512993D01*
X64985900Y-14516237D01*
X64985900Y-11861800D01*
X64706500Y-11861800D01*
X64706500Y-14516100D01*
X62458717Y-14516100D01*
X62455483Y-13192125D01*
X62452250Y-11868150D01*
X62172850Y-11868150D01*
X62166382Y-14516100D01*
X59918600Y-14516100D01*
X59918600Y-10121900D01*
X59639271Y-10121900D01*
X59636060Y-12315825D01*
X59632850Y-14509750D01*
X57384950Y-14509750D01*
X57378482Y-11861800D01*
X57099200Y-11861800D01*
X57099200Y-14516100D01*
X54851417Y-14516100D01*
X54848183Y-13192125D01*
X54844950Y-11868150D01*
X54565550Y-11868150D01*
X54559082Y-14516100D01*
X52311300Y-14516100D01*
X52311300Y-11861800D01*
X52031900Y-11861800D01*
X52031900Y-14516237D01*
X50904775Y-14512993D01*
X49777650Y-14509750D01*
X49771182Y-11861800D01*
X49491900Y-11861800D01*
X49491900Y-14516100D01*
X47244000Y-14516100D01*
X47244000Y-8921750D01*
X70152907Y-8921750D01*
X70156604Y-9063769D01*
X70167267Y-9187565D01*
X70185825Y-9299588D01*
X70213205Y-9406285D01*
X70230084Y-9458467D01*
X70286290Y-9590029D01*
X70357392Y-9703729D01*
X70441734Y-9798531D01*
X70537660Y-9873402D01*
X70643515Y-9927309D01*
X70757643Y-9959218D01*
X70878388Y-9968095D01*
X71004095Y-9952907D01*
X71017299Y-9949925D01*
X71129459Y-9910715D01*
X71231375Y-9849313D01*
X71320551Y-9767718D01*
X71394491Y-9667928D01*
X71414987Y-9631602D01*
X71456012Y-9540511D01*
X71482807Y-9447688D01*
X71497074Y-9345453D01*
X71500624Y-9245600D01*
X71492867Y-9106558D01*
X71469074Y-8985578D01*
X71428466Y-8880412D01*
X71370263Y-8788812D01*
X71324051Y-8736899D01*
X71281157Y-8698067D01*
X71235720Y-8663153D01*
X71197331Y-8639507D01*
X71196200Y-8638957D01*
X71080507Y-8596337D01*
X70961078Y-8576197D01*
X70841826Y-8578325D01*
X70726667Y-8602510D01*
X70619517Y-8648538D01*
X70580880Y-8672273D01*
X70537530Y-8701439D01*
X70511808Y-8716328D01*
X70499773Y-8716079D01*
X70497487Y-8699833D01*
X70501007Y-8666728D01*
X70502402Y-8655131D01*
X70524596Y-8526904D01*
X70559087Y-8408767D01*
X70604195Y-8305230D01*
X70658243Y-8220806D01*
X70668654Y-8208149D01*
X70736083Y-8147796D01*
X70814953Y-8107311D01*
X70900841Y-8086720D01*
X70989325Y-8086051D01*
X71075984Y-8105335D01*
X71156396Y-8144598D01*
X71226138Y-8203868D01*
X71226780Y-8204578D01*
X71253879Y-8232597D01*
X71274632Y-8250496D01*
X71281891Y-8254088D01*
X71293432Y-8244654D01*
X71317836Y-8219627D01*
X71351548Y-8182793D01*
X71391012Y-8137938D01*
X71391794Y-8137033D01*
X71492139Y-8020890D01*
X71414367Y-7949359D01*
X71327387Y-7881434D01*
X71230650Y-7826520D01*
X71132887Y-7789404D01*
X71113642Y-7784459D01*
X71070878Y-7777627D01*
X71013304Y-7772602D01*
X70951492Y-7770228D01*
X70934239Y-7770156D01*
X70801187Y-7782605D01*
X70677870Y-7818071D01*
X70565217Y-7875748D01*
X70464158Y-7954827D01*
X70375623Y-8054501D01*
X70300542Y-8173962D01*
X70239846Y-8312402D01*
X70212857Y-8396607D01*
X70188052Y-8495759D01*
X70170440Y-8595202D01*
X70159264Y-8701561D01*
X70153767Y-8821461D01*
X70152907Y-8921750D01*
X47244000Y-8921750D01*
X47244000Y-8623300D01*
X46964653Y-8623300D01*
X46961451Y-11566525D01*
X46958250Y-14509750D01*
X45831125Y-14512993D01*
X44703999Y-14516237D01*
X44704000Y-13189018D01*
X44704000Y-11861800D01*
X44424600Y-11861800D01*
X44424600Y-14516100D01*
X42176817Y-14516100D01*
X42173583Y-13192125D01*
X42170350Y-11868150D01*
X41890950Y-11868150D01*
X41884482Y-14516100D01*
X39636700Y-14516100D01*
X39636700Y-11861800D01*
X39357417Y-11861800D01*
X39354183Y-13185775D01*
X39350950Y-14509750D01*
X37103050Y-14509750D01*
X37096582Y-11861800D01*
X36817300Y-11861800D01*
X36817300Y-14516100D01*
X34569400Y-14516100D01*
X34569400Y-10121900D01*
X34277300Y-10121900D01*
X34277300Y-14516100D01*
X32029400Y-14516100D01*
X32029400Y-11861800D01*
X31750000Y-11861800D01*
X31750000Y-14516237D01*
X30622875Y-14512993D01*
X29495750Y-14509750D01*
X29489282Y-11861800D01*
X29210000Y-11861800D01*
X29210000Y-14516100D01*
X26962100Y-14516100D01*
X26962100Y-11861800D01*
X26682817Y-11861800D01*
X26679583Y-13185775D01*
X26676350Y-14509750D01*
X25549225Y-14512993D01*
X24422099Y-14516237D01*
X24422100Y-13189018D01*
X24422100Y-11861800D01*
X24142700Y-11861800D01*
X24142700Y-14516100D01*
X21894800Y-14516100D01*
X21894800Y-9631764D01*
X44792680Y-9631764D01*
X44846765Y-9687221D01*
X44897799Y-9733248D01*
X44961879Y-9782033D01*
X45030077Y-9827401D01*
X45093468Y-9863179D01*
X45116750Y-9873961D01*
X45210879Y-9905904D01*
X45316636Y-9928817D01*
X45426869Y-9942087D01*
X45534427Y-9945100D01*
X45632159Y-9937243D01*
X45695469Y-9923622D01*
X45821290Y-9873648D01*
X45932487Y-9803574D01*
X46027564Y-9715042D01*
X46105024Y-9609696D01*
X46163369Y-9489182D01*
X46197655Y-9372153D01*
X46208894Y-9290482D01*
X46212110Y-9196161D01*
X46207657Y-9099129D01*
X46195890Y-9009325D01*
X46182721Y-8953500D01*
X46135012Y-8835867D01*
X46068303Y-8733520D01*
X45984468Y-8648210D01*
X45885377Y-8581690D01*
X45772906Y-8535711D01*
X45722549Y-8523034D01*
X45648051Y-8512843D01*
X45563125Y-8509588D01*
X45478523Y-8513140D01*
X45404995Y-8523372D01*
X45389409Y-8527008D01*
X45351253Y-8536333D01*
X45324864Y-8541699D01*
X45317167Y-8542200D01*
X45317291Y-8529274D01*
X45319426Y-8495297D01*
X45323257Y-8444509D01*
X45328470Y-8381153D01*
X45332868Y-8330516D01*
X45339067Y-8260144D01*
X45344404Y-8198710D01*
X45348500Y-8150640D01*
X45350976Y-8120359D01*
X45351543Y-8112125D01*
X45363765Y-8109738D01*
X45398282Y-8107571D01*
X45451986Y-8105700D01*
X45521772Y-8104203D01*
X45604534Y-8103157D01*
X45697167Y-8102641D01*
X45732700Y-8102600D01*
X46113700Y-8102600D01*
X46113700Y-7785100D01*
X45573950Y-7785100D01*
X45459629Y-7785172D01*
X45353558Y-7785378D01*
X45258346Y-7785703D01*
X45176601Y-7786131D01*
X45110932Y-7786648D01*
X45063947Y-7787237D01*
X45038255Y-7787883D01*
X45034137Y-7788275D01*
X45033290Y-7801219D01*
X45030903Y-7836675D01*
X45027170Y-7891811D01*
X45022283Y-7963797D01*
X45016433Y-8049804D01*
X45009814Y-8147001D01*
X45002616Y-8252557D01*
X45002450Y-8255000D01*
X44995173Y-8363175D01*
X44988508Y-8465197D01*
X44982651Y-8557837D01*
X44977797Y-8637867D01*
X44974144Y-8702057D01*
X44971886Y-8747179D01*
X44971212Y-8769350D01*
X44972459Y-8794768D01*
X44978665Y-8813470D01*
X44994226Y-8830514D01*
X45023537Y-8850956D01*
X45063185Y-8875164D01*
X45108208Y-8901733D01*
X45137473Y-8916616D01*
X45156855Y-8921440D01*
X45172226Y-8917832D01*
X45186559Y-8909327D01*
X45290515Y-8851860D01*
X45392369Y-8816331D01*
X45490080Y-8802769D01*
X45581603Y-8811206D01*
X45664895Y-8841671D01*
X45737913Y-8894195D01*
X45744923Y-8901014D01*
X45793028Y-8958447D01*
X45825675Y-9021499D01*
X45844767Y-9095700D01*
X45852202Y-9186576D01*
X45852460Y-9213850D01*
X45851095Y-9274843D01*
X45846160Y-9320065D01*
X45835880Y-9359081D01*
X45818483Y-9401456D01*
X45817158Y-9404350D01*
X45767225Y-9490539D01*
X45705405Y-9555287D01*
X45628969Y-9600844D01*
X45547203Y-9626901D01*
X45461563Y-9634275D01*
X45367357Y-9621778D01*
X45269464Y-9591093D01*
X45172763Y-9543899D01*
X45082133Y-9481875D01*
X45052181Y-9456463D01*
X44974913Y-9387024D01*
X44883796Y-9509394D01*
X44792680Y-9631764D01*
X21894800Y-9631764D01*
X21894800Y-8623300D01*
X21602700Y-8623300D01*
X21602700Y-14516100D01*
X19354800Y-14516100D01*
X19354800Y-11861800D01*
X19075517Y-11861800D01*
X19072283Y-13185775D01*
X19069050Y-14509750D01*
X16821150Y-14509750D01*
X16814682Y-11861800D01*
X16535400Y-11861800D01*
X16535400Y-14516100D01*
X14287617Y-14516100D01*
X14284383Y-13192125D01*
X14281150Y-11868150D01*
X14001750Y-11868150D01*
X13995282Y-14516100D01*
X11747500Y-14516100D01*
X11747500Y-11861800D01*
X11468217Y-11861800D01*
X11464983Y-13185775D01*
X11461750Y-14509750D01*
X9213850Y-14509750D01*
X9207428Y-10121900D01*
X8928100Y-10121900D01*
X8928100Y-14516100D01*
X6680200Y-14516100D01*
X6680200Y-11861800D01*
X6400917Y-11861800D01*
X6397683Y-13185775D01*
X6394450Y-14509750D01*
X5267325Y-14512993D01*
X4140200Y-14516237D01*
X4140200Y-11861800D01*
X3860800Y-11861800D01*
X3860800Y-14516237D01*
X2733675Y-14512993D01*
X1606550Y-14509750D01*
X1600082Y-11861800D01*
X1320800Y-11861800D01*
X1320800Y-14516100D01*
X-927100Y-14516100D01*
X-927100Y-11861800D01*
X-1206383Y-11861800D01*
X-1209617Y-13185775D01*
X-1212850Y-14509750D01*
X-2339976Y-14512993D01*
X-3467101Y-14516237D01*
X-3467101Y-11569768D01*
X-3467101Y-9372600D01*
X19278600Y-9372600D01*
X20154900Y-9372600D01*
X20154900Y-9931400D01*
X20497800Y-9931400D01*
X20497800Y-9372600D01*
X20764500Y-9372600D01*
X20764500Y-9067800D01*
X20497800Y-9067800D01*
X20497800Y-7797102D01*
X20317285Y-7800626D01*
X20136771Y-7804150D01*
X19708648Y-8464550D01*
X19280526Y-9124950D01*
X19278600Y-9372600D01*
X-3467101Y-9372600D01*
X-3467100Y-8623300D01*
X-3746500Y-8623300D01*
X-3746500Y-14516100D01*
X-5994283Y-14516100D01*
X-5997517Y-13192125D01*
X-6000750Y-11868150D01*
X-6280150Y-11868150D01*
X-6286618Y-14516100D01*
X-8534400Y-14516100D01*
X-8534400Y-11861800D01*
X-8813683Y-11861800D01*
X-8816917Y-13185775D01*
X-8820150Y-14509750D01*
X-11068050Y-14509750D01*
X-11074518Y-11861800D01*
X-11353800Y-11861800D01*
X-11353800Y-14516100D01*
X-13601583Y-14516100D01*
X-13604817Y-13192125D01*
X-13608050Y-11868150D01*
X-13887450Y-11868150D01*
X-13893918Y-14516100D01*
X-16141700Y-14516100D01*
X-16141700Y-10121900D01*
X-16421100Y-10121900D01*
X-16421100Y-12319068D01*
X-16421101Y-14516237D01*
X-17548225Y-14512993D01*
X-18675350Y-14509750D01*
X-18681818Y-11861800D01*
X-18961100Y-11861800D01*
X-18961100Y-14516100D01*
X-21209000Y-14516100D01*
X-21209000Y-11861800D01*
X-21488283Y-11861800D01*
X-21491517Y-13185775D01*
X-21494750Y-14509750D01*
X-22621875Y-14512993D01*
X-23749000Y-14516237D01*
X-23749000Y-11861800D01*
X-24028400Y-11861800D01*
X-24028400Y-14516100D01*
X-26276183Y-14516100D01*
X-26279417Y-13192125D01*
X-26282650Y-11868150D01*
X-26562050Y-11868150D01*
X-26568518Y-14516100D01*
X-28816300Y-14516100D01*
X-28816300Y-9644312D01*
X-5782057Y-9644312D01*
X-5694554Y-9727685D01*
X-5582709Y-9817084D01*
X-5455423Y-9888037D01*
X-5316465Y-9938713D01*
X-5213350Y-9961291D01*
X-5167166Y-9965042D01*
X-5104209Y-9965287D01*
X-5032290Y-9962513D01*
X-4959222Y-9957208D01*
X-4892815Y-9949860D01*
X-4840879Y-9940956D01*
X-4826000Y-9937097D01*
X-4703564Y-9888207D01*
X-4597847Y-9821488D01*
X-4510132Y-9738167D01*
X-4441701Y-9639468D01*
X-4393835Y-9526618D01*
X-4392616Y-9522651D01*
X-4371845Y-9419813D01*
X-4368455Y-9311659D01*
X-4381999Y-9206280D01*
X-4412030Y-9111767D01*
X-4415738Y-9103618D01*
X-4477896Y-9000272D01*
X-4559621Y-8912991D01*
X-4637272Y-8856129D01*
X-4711067Y-8810580D01*
X-4663759Y-8776171D01*
X-4576544Y-8697890D01*
X-4509256Y-8606233D01*
X-4462654Y-8504495D01*
X-4437497Y-8395966D01*
X-4434547Y-8283939D01*
X-4454561Y-8171706D01*
X-4498300Y-8062559D01*
X-4498862Y-8061490D01*
X-4561275Y-7969536D01*
X-4642241Y-7894028D01*
X-4740376Y-7835679D01*
X-4854295Y-7795200D01*
X-4982612Y-7773303D01*
X-5067300Y-7769375D01*
X-5183877Y-7775481D01*
X-5288375Y-7796285D01*
X-5390982Y-7834259D01*
X-5446565Y-7861400D01*
X-5491919Y-7887624D01*
X-5542543Y-7920858D01*
X-5593406Y-7957297D01*
X-5639475Y-7993135D01*
X-5675720Y-8024566D01*
X-5697110Y-8047785D01*
X-5700128Y-8053195D01*
X-5693903Y-8065979D01*
X-5674718Y-8093071D01*
X-5646453Y-8129761D01*
X-5612983Y-8171339D01*
X-5578189Y-8213093D01*
X-5545945Y-8250314D01*
X-5520131Y-8278292D01*
X-5504624Y-8292315D01*
X-5502641Y-8293100D01*
X-5490460Y-8284992D01*
X-5465198Y-8263600D01*
X-5432011Y-8233317D01*
X-5427411Y-8228983D01*
X-5378400Y-8188819D01*
X-5319771Y-8149446D01*
X-5273784Y-8124208D01*
X-5226335Y-8103268D01*
X-5186766Y-8090998D01*
X-5144464Y-8085173D01*
X-5088817Y-8083565D01*
X-5080000Y-8083550D01*
X-5006518Y-8086998D01*
X-4950672Y-8099345D01*
X-4905396Y-8123597D01*
X-4863619Y-8162757D01*
X-4846772Y-8182690D01*
X-4824894Y-8213349D01*
X-4812120Y-8243788D01*
X-4805358Y-8283625D01*
X-4802679Y-8319882D01*
X-4807006Y-8412092D01*
X-4831446Y-8489977D01*
X-4876324Y-8553814D01*
X-4941967Y-8603878D01*
X-5028703Y-8640445D01*
X-5136858Y-8663790D01*
X-5219700Y-8672063D01*
X-5353050Y-8680450D01*
X-5356612Y-8827711D01*
X-5360173Y-8974973D01*
X-5216912Y-8982831D01*
X-5083212Y-8996601D01*
X-4971659Y-9022172D01*
X-4881781Y-9059784D01*
X-4813107Y-9109679D01*
X-4765167Y-9172097D01*
X-4743129Y-9225245D01*
X-4727811Y-9292920D01*
X-4726736Y-9353504D01*
X-4739943Y-9419889D01*
X-4743764Y-9433192D01*
X-4779020Y-9510795D01*
X-4833273Y-9572090D01*
X-4905418Y-9616295D01*
X-4994349Y-9642629D01*
X-5049208Y-9649160D01*
X-5165729Y-9646281D01*
X-5273952Y-9621078D01*
X-5376321Y-9572614D01*
X-5475286Y-9499950D01*
X-5502495Y-9475350D01*
X-5541449Y-9440790D01*
X-5573443Y-9416311D01*
X-5594145Y-9405047D01*
X-5599052Y-9405500D01*
X-5610432Y-9419800D01*
X-5633611Y-9449727D01*
X-5665037Y-9490673D01*
X-5695565Y-9530681D01*
X-5782057Y-9644312D01*
X-28816300Y-9644312D01*
X-28816300Y-8623300D01*
X-29095647Y-8623300D01*
X-29098849Y-11566525D01*
X-29102050Y-14509750D01*
X-31349950Y-14509750D01*
X-31356418Y-11861800D01*
X-31635700Y-11861800D01*
X-31635700Y-14516100D01*
X-33883483Y-14516100D01*
X-33886717Y-13192125D01*
X-33889950Y-11868150D01*
X-34169350Y-11868150D01*
X-34175818Y-14516100D01*
X-36423600Y-14516100D01*
X-36423600Y-11861800D01*
X-36703000Y-11861800D01*
X-36703000Y-14516237D01*
X-37830125Y-14512993D01*
X-38957250Y-14509750D01*
X-38963718Y-11861800D01*
X-39243000Y-11861800D01*
X-39243000Y-14516100D01*
X-41490900Y-14516100D01*
X-41490900Y-10121900D01*
X-41770229Y-10121900D01*
X-41773440Y-12315825D01*
X-41776650Y-14509750D01*
X-42903775Y-14512993D01*
X-44030900Y-14516237D01*
X-44030900Y-11861800D01*
X-44310300Y-11861800D01*
X-44310300Y-14516100D01*
X-46558083Y-14516100D01*
X-46561317Y-13192125D01*
X-46564550Y-11868150D01*
X-46850300Y-11860968D01*
X-46850300Y-14516100D01*
X-49098200Y-14516100D01*
X-49098200Y-11861800D01*
X-49377483Y-11861800D01*
X-49380717Y-13185775D01*
X-49383950Y-14509750D01*
X-51631850Y-14509750D01*
X-51638318Y-11861800D01*
X-51917600Y-11861800D01*
X-51917600Y-14516100D01*
X-54165500Y-14516100D01*
X-54165500Y-8623300D01*
X-54457600Y-8623300D01*
X-54457600Y-14516100D01*
X-56705500Y-14516100D01*
X-56705500Y-11861800D01*
X-56984783Y-11861800D01*
X-56988017Y-13185775D01*
X-56991250Y-14509750D01*
X-59239150Y-14509750D01*
X-59245618Y-11861800D01*
X-59524900Y-11861800D01*
X-59524900Y-14516100D01*
X-61772800Y-14516100D01*
X-61772800Y-11861800D01*
X-62052083Y-11861800D01*
X-62055317Y-13185775D01*
X-62058550Y-14509750D01*
X-63185675Y-14512993D01*
X-64312800Y-14516237D01*
X-64312800Y-11861800D01*
X-64592200Y-11861800D01*
X-64592200Y-14516237D01*
X-65719325Y-14512993D01*
X-66846450Y-14509750D01*
X-66852872Y-10121900D01*
X-67132200Y-10121900D01*
X-67132200Y-14516100D01*
X-69380100Y-14516100D01*
X-69380100Y-11861800D01*
X-69659383Y-11861800D01*
X-69662617Y-13185775D01*
X-69665850Y-14509750D01*
X-71913750Y-14509750D01*
X-71920218Y-11861800D01*
X-72199500Y-11861800D01*
X-72199500Y-14516100D01*
X-74447283Y-14516100D01*
X-74450517Y-13192125D01*
X-74453750Y-11868150D01*
X-74733150Y-11868150D01*
X-74739618Y-14516100D01*
X-76987400Y-14516100D01*
X-76987400Y-11861800D01*
X-77266683Y-11861800D01*
X-77269917Y-13185775D01*
X-77273150Y-14509750D01*
X-79521050Y-14509750D01*
X-79526722Y-9613900D01*
X-56261000Y-9613900D01*
X-56261000Y-9931400D01*
X-55054500Y-9931400D01*
X-55054500Y-9613900D01*
X-55448031Y-9613900D01*
X-55451291Y-8709025D01*
X-55453368Y-8132060D01*
X-31269179Y-8132060D01*
X-31158684Y-8243069D01*
X-31048190Y-8354078D01*
X-30957770Y-8263264D01*
X-30887733Y-8198531D01*
X-30823911Y-8153180D01*
X-30760474Y-8124230D01*
X-30691590Y-8108702D01*
X-30647495Y-8104706D01*
X-30551305Y-8109217D01*
X-30470855Y-8133550D01*
X-30406591Y-8177250D01*
X-30358960Y-8239861D01*
X-30328405Y-8320926D01*
X-30315373Y-8419990D01*
X-30314900Y-8445136D01*
X-30326518Y-8559932D01*
X-30361441Y-8681861D01*
X-30419773Y-8811081D01*
X-30501619Y-8947749D01*
X-30607083Y-9092022D01*
X-30736268Y-9244058D01*
X-30889281Y-9404012D01*
X-31058507Y-9565002D01*
X-31242000Y-9732705D01*
X-31242000Y-9836285D01*
X-31241014Y-9885359D01*
X-31238392Y-9924199D01*
X-31234642Y-9946178D01*
X-31233425Y-9948442D01*
X-31219452Y-9950008D01*
X-31182443Y-9951362D01*
X-31124759Y-9952485D01*
X-31048761Y-9953359D01*
X-30956813Y-9953966D01*
X-30851275Y-9954289D01*
X-30734510Y-9954308D01*
X-30608881Y-9954006D01*
X-30544450Y-9953734D01*
X-29864050Y-9950450D01*
X-29856932Y-9625258D01*
X-30255490Y-9629104D01*
X-30654049Y-9632950D01*
X-30540441Y-9512300D01*
X-30387099Y-9340564D01*
X-30257659Y-9176215D01*
X-30151899Y-9018686D01*
X-30069597Y-8867410D01*
X-30010533Y-8721822D01*
X-29974485Y-8581355D01*
X-29961231Y-8445443D01*
X-29970551Y-8313519D01*
X-30002222Y-8185016D01*
X-30011433Y-8159103D01*
X-30062533Y-8057761D01*
X-30134218Y-7967910D01*
X-30223018Y-7892886D01*
X-30325463Y-7836026D01*
X-30362542Y-7821510D01*
X-30438204Y-7802235D01*
X-30528252Y-7790597D01*
X-30622710Y-7787057D01*
X-30711597Y-7792076D01*
X-30772100Y-7802591D01*
X-30885670Y-7840478D01*
X-30992587Y-7896509D01*
X-31097450Y-7973346D01*
X-31154437Y-8024047D01*
X-31269179Y-8132060D01*
X-55453368Y-8132060D01*
X-55454550Y-7804150D01*
X-55577901Y-7800520D01*
X-55637416Y-7799433D01*
X-55679378Y-7801172D01*
X-55711587Y-7806982D01*
X-55741839Y-7818108D01*
X-55768401Y-7830925D01*
X-55868507Y-7874645D01*
X-55981417Y-7912240D01*
X-56086375Y-7937903D01*
X-56172100Y-7954859D01*
X-56172100Y-8216900D01*
X-55816500Y-8216900D01*
X-55816500Y-9613900D01*
X-56261000Y-9613900D01*
X-79526722Y-9613900D01*
X-79527458Y-8978900D01*
X-79806800Y-8978900D01*
X-79806800Y-14516100D01*
X-80273525Y-14514726D01*
X-80422164Y-14513871D01*
X-80546708Y-14512230D01*
X-80648453Y-14509760D01*
X-80728692Y-14506419D01*
X-80788721Y-14502165D01*
X-80829834Y-14496956D01*
X-80831124Y-14496724D01*
X-81076814Y-14439091D01*
X-81318026Y-14357579D01*
X-81552226Y-14253632D01*
X-81776878Y-14128696D01*
X-81989448Y-13984217D01*
X-82187401Y-13821640D01*
X-82368203Y-13642411D01*
X-82408876Y-13596947D01*
X-82575533Y-13389058D01*
X-82719941Y-13171944D01*
X-82842863Y-12943988D01*
X-82945060Y-12703569D01*
X-83027294Y-12449068D01*
X-83090327Y-12178865D01*
X-83099681Y-12128500D01*
X-83102797Y-12110670D01*
X-83105658Y-12092764D01*
X-83108277Y-12073666D01*
X-83110667Y-12052260D01*
X-83112840Y-12027430D01*
X-83114811Y-11998061D01*
X-83116593Y-11963037D01*
X-83118197Y-11921242D01*
X-83119638Y-11871560D01*
X-83120929Y-11812875D01*
X-83122083Y-11744073D01*
X-83123112Y-11664037D01*
X-83124030Y-11571651D01*
X-83124850Y-11465799D01*
X-83125585Y-11345367D01*
X-83126248Y-11209238D01*
X-83126853Y-11056296D01*
X-83127412Y-10885426D01*
X-83127938Y-10695512D01*
X-83128446Y-10485439D01*
X-83128947Y-10254090D01*
X-83129454Y-10000349D01*
X-83129982Y-9723102D01*
X-83130368Y-9515475D01*
X-83134936Y-7048500D01*
X75921215Y-7048500D01*
X75916902Y-9528175D01*
G36*
X-13855700Y12300155D02*
X-13855700Y10147300D01*
X-13525500Y10147300D01*
X-13525500Y14452600D01*
X-12839825Y14452600D01*
X-12836588Y13204825D01*
X-12833350Y11957050D01*
X-12553950Y11957050D01*
X-12547476Y14452600D01*
X-11836400Y14452600D01*
X-11836400Y11950700D01*
X-11557000Y11950700D01*
X-11557000Y14452600D01*
X-10833100Y14452600D01*
X-10833100Y11950700D01*
X-10553700Y11950700D01*
X-10553700Y14452600D01*
X-9842625Y14452600D01*
X-9839388Y13204825D01*
X-9836150Y11957050D01*
X-9699625Y11953446D01*
X-9563101Y11949841D01*
X-9563100Y13201221D01*
X-9563100Y14452600D01*
X-8877300Y14452600D01*
X-8877300Y8458200D01*
X-8521700Y8458200D01*
X-8521700Y14452600D01*
X-7848725Y14452600D01*
X-7845488Y13204825D01*
X-7842250Y11957050D01*
X-7562850Y11957050D01*
X-7556376Y14452600D01*
X-6845300Y14452600D01*
X-6845300Y11950700D01*
X-6565900Y11950700D01*
X-6565900Y14452600D01*
X-5842000Y14452600D01*
X-5842000Y11950700D01*
X-5562600Y11950700D01*
X-5562600Y14452600D01*
X-4851525Y14452600D01*
X-4848288Y13204825D01*
X-4845050Y11957050D01*
X-4708525Y11953446D01*
X-4572001Y11949841D01*
X-4572000Y13201221D01*
X-4572000Y14452600D01*
X-3873500Y14452600D01*
X-3873500Y10147300D01*
X-3543300Y10147300D01*
X-3543300Y14452600D01*
X-2857625Y14452600D01*
X-2854388Y13204825D01*
X-2851150Y11957050D01*
X-2571750Y11957050D01*
X-2565276Y14452600D01*
X-1854200Y14452600D01*
X-1854200Y11950700D01*
X-1574800Y11950700D01*
X-1574800Y14452600D01*
X-850900Y14452600D01*
X-850900Y13201221D01*
X-850901Y11949841D01*
X-714375Y11953446D01*
X-577850Y11957050D01*
X-571376Y14452600D01*
X139575Y14452600D01*
X142812Y13204825D01*
X146050Y11957050D01*
X282575Y11953446D01*
X419099Y11949841D01*
X419100Y13201221D01*
X419100Y14452600D01*
X1104900Y14452600D01*
X1104900Y8470900D01*
X1460500Y8470900D01*
X1460500Y9033966D01*
X8842706Y9033966D01*
X8844040Y9004300D01*
X8858596Y8874859D01*
X8885938Y8764594D01*
X8927420Y8670000D01*
X8984394Y8587571D01*
X9019853Y8549088D01*
X9102881Y8480209D01*
X9193613Y8432499D01*
X9295315Y8404808D01*
X9411254Y8395986D01*
X9451999Y8396965D01*
X9547017Y8407268D01*
X9630998Y8430897D01*
X9712004Y8470884D01*
X9789964Y8524070D01*
X9858889Y8576109D01*
X9850053Y8494930D01*
X9826487Y8345916D01*
X9790566Y8215646D01*
X9742826Y8104952D01*
X9683806Y8014669D01*
X9614042Y7945629D01*
X9534072Y7898666D01*
X9450596Y7875470D01*
X9349964Y7872992D01*
X9252798Y7895028D01*
X9161806Y7940703D01*
X9100924Y7988389D01*
X9047674Y8037474D01*
X8957231Y7933512D01*
X8866789Y7829550D01*
X8906969Y7787472D01*
X8998573Y7709427D01*
X9104504Y7650162D01*
X9221078Y7610545D01*
X9344610Y7591446D01*
X9471418Y7593735D01*
X9597817Y7618279D01*
X9609454Y7621733D01*
X9716270Y7667453D01*
X9815201Y7735886D01*
X9904516Y7825105D01*
X9958115Y7899400D01*
X17729200Y7899400D01*
X17729200Y7620000D01*
X18897600Y7620000D01*
X18897600Y7898756D01*
X18497550Y7905750D01*
X18494973Y8621284D01*
X19152367Y8621284D01*
X19155209Y8512544D01*
X19161023Y8414529D01*
X19169813Y8334325D01*
X19170286Y8331200D01*
X19204572Y8161800D01*
X19252048Y8014097D01*
X19312731Y7888073D01*
X19386636Y7783710D01*
X19473778Y7700990D01*
X19574172Y7639895D01*
X19687833Y7600406D01*
X19799300Y7583481D01*
X19821189Y7584648D01*
X19859426Y7589066D01*
X19900900Y7595047D01*
X20014757Y7625080D01*
X20116777Y7677483D01*
X20206812Y7752072D01*
X20284711Y7848663D01*
X20333611Y7936914D01*
X27686000Y7936914D01*
X27686000Y7658100D01*
X28867100Y7658100D01*
X28867100Y7937500D01*
X29222700Y7937500D01*
X29222700Y7657847D01*
X29810075Y7661149D01*
X30397450Y7664450D01*
X30401054Y7800975D01*
X30403652Y7899400D01*
X37617400Y7899400D01*
X37617400Y7619747D01*
X38204775Y7623049D01*
X38792150Y7626350D01*
X38795754Y7762875D01*
X38799359Y7899400D01*
X38392100Y7899400D01*
X38392100Y9425126D01*
X38995350Y9425126D01*
X39093271Y9326444D01*
X39191193Y9227762D01*
X39277531Y9311114D01*
X39358736Y9381363D01*
X39435844Y9430023D01*
X39513337Y9459410D01*
X39587376Y9471314D01*
X39685143Y9468236D01*
X39768585Y9444493D01*
X39836859Y9400948D01*
X39889119Y9338462D01*
X39924520Y9257898D01*
X39942218Y9160120D01*
X39944175Y9106956D01*
X39934831Y9000324D01*
X39907020Y8891285D01*
X39859677Y8777019D01*
X39791739Y8654706D01*
X39748200Y8587404D01*
X39682636Y8497741D01*
X39599728Y8396514D01*
X39502649Y8287135D01*
X39394573Y8173012D01*
X39278670Y8057558D01*
X39158116Y7944181D01*
X39106475Y7897661D01*
X39027100Y7827118D01*
X39027100Y7620000D01*
X40360600Y7620000D01*
X40360600Y7899400D01*
X47561500Y7899400D01*
X47561500Y7620000D01*
X48742600Y7620000D01*
X48742600Y7893050D01*
X48920269Y7893050D01*
X48993359Y7825185D01*
X49109433Y7734303D01*
X49237677Y7664665D01*
X49375324Y7616968D01*
X49519611Y7591910D01*
X49667772Y7590188D01*
X49817042Y7612502D01*
X49826870Y7614838D01*
X49877442Y7630619D01*
X49936560Y7654090D01*
X49988091Y7678499D01*
X50084605Y7741961D01*
X50163172Y7819498D01*
X50223732Y7908106D01*
X50236652Y7937500D01*
X57480200Y7937500D01*
X57480200Y7657847D01*
X58067575Y7661149D01*
X58654950Y7664450D01*
X58658554Y7800975D01*
X58662159Y7937500D01*
X58254900Y7937500D01*
X58254900Y8426450D01*
X58814642Y8426450D01*
X58820050Y8223250D01*
X59261375Y8219911D01*
X59702700Y8216571D01*
X59702700Y7658100D01*
X60007500Y7658100D01*
X60007500Y7936914D01*
X67449700Y7936914D01*
X67449700Y7658100D01*
X68630800Y7658100D01*
X68630800Y7921289D01*
X68802879Y7921289D01*
X68859714Y7871435D01*
X68978528Y7779101D01*
X69098827Y7710321D01*
X69224450Y7663357D01*
X69359236Y7636473D01*
X69385229Y7633586D01*
X69505780Y7628536D01*
X69615632Y7639340D01*
X69697600Y7658530D01*
X69818117Y7705959D01*
X69924076Y7773332D01*
X70014167Y7858920D01*
X70087077Y7960995D01*
X70141497Y8077828D01*
X70176116Y8207690D01*
X70187835Y8304945D01*
X70186599Y8444711D01*
X70164893Y8573341D01*
X70123789Y8689271D01*
X70064357Y8790935D01*
X69987668Y8876766D01*
X69894793Y8945200D01*
X69786802Y8994669D01*
X69700461Y9017633D01*
X69639593Y9025264D01*
X69567927Y9027836D01*
X69493213Y9025721D01*
X69423200Y9019289D01*
X69365638Y9008911D01*
X69338825Y9000332D01*
X69291200Y8980197D01*
X69291200Y9012288D01*
X69292333Y9039622D01*
X69295392Y9086033D01*
X69299861Y9145316D01*
X69305226Y9211265D01*
X69310974Y9277676D01*
X69316588Y9338341D01*
X69321557Y9387057D01*
X69323956Y9407525D01*
X69330856Y9461500D01*
X70091300Y9461500D01*
X70091300Y9753600D01*
X69037200Y9753600D01*
X69037175Y9712325D01*
X69036322Y9689151D01*
X69033944Y9644455D01*
X69030291Y9582049D01*
X69025612Y9505751D01*
X69020157Y9419375D01*
X69014175Y9326735D01*
X69007917Y9231648D01*
X69001632Y9137926D01*
X68995569Y9049386D01*
X68989980Y8969843D01*
X68985112Y8903111D01*
X68981217Y8853006D01*
X68979931Y8837839D01*
X68972519Y8753928D01*
X69061559Y8700129D01*
X69150600Y8646330D01*
X69188512Y8673326D01*
X69277607Y8724671D01*
X69371201Y8756982D01*
X69465588Y8770556D01*
X69557063Y8765692D01*
X69641920Y8742686D01*
X69716454Y8701837D01*
X69776961Y8643442D01*
X69790216Y8625003D01*
X69831647Y8541072D01*
X69855791Y8444869D01*
X69862716Y8342664D01*
X69852492Y8240729D01*
X69825189Y8145336D01*
X69784063Y8067310D01*
X69728540Y8001627D01*
X69663978Y7955103D01*
X69587101Y7926363D01*
X69494634Y7914031D01*
X69419632Y7914390D01*
X69358776Y7918604D01*
X69312526Y7926179D01*
X69270097Y7939811D01*
X69220704Y7962191D01*
X69212961Y7966007D01*
X69155295Y7998689D01*
X69094758Y8039432D01*
X69045919Y8078184D01*
X69010047Y8107850D01*
X68980948Y8127508D01*
X68963781Y8133794D01*
X68961982Y8132910D01*
X68950428Y8118370D01*
X68927596Y8088453D01*
X68897316Y8048199D01*
X68877378Y8021470D01*
X68802879Y7921289D01*
X68630800Y7921289D01*
X68630800Y7937500D01*
X68224400Y7937500D01*
X68224400Y9753600D01*
X68111856Y9753600D01*
X68051923Y9752411D01*
X68007165Y9747524D01*
X67967418Y9736964D01*
X67922515Y9718752D01*
X67914789Y9715276D01*
X67855352Y9691341D01*
X67779865Y9665331D01*
X67697209Y9640032D01*
X67616265Y9618227D01*
X67573525Y9608262D01*
X67556574Y9603695D01*
X67546248Y9595385D01*
X67540905Y9577930D01*
X67538902Y9545930D01*
X67538600Y9493985D01*
X67538600Y9385998D01*
X67900550Y9378950D01*
X67900550Y7943850D01*
X67449700Y7936914D01*
X60007500Y7936914D01*
X60007500Y8216900D01*
X60274200Y8216900D01*
X60274200Y8496300D01*
X60007500Y8496300D01*
X60007500Y9754338D01*
X59672930Y9747250D01*
X58814642Y8426450D01*
X58254900Y8426450D01*
X58254900Y9753600D01*
X58135568Y9753600D01*
X58076494Y9752808D01*
X58033369Y9749115D01*
X57996756Y9740547D01*
X57957222Y9725131D01*
X57922278Y9708980D01*
X57863115Y9684266D01*
X57792686Y9659761D01*
X57724723Y9640176D01*
X57714585Y9637718D01*
X57662616Y9625459D01*
X57619282Y9615080D01*
X57591109Y9608151D01*
X57584975Y9606537D01*
X57576275Y9593898D01*
X57571094Y9560602D01*
X57569134Y9504523D01*
X57569100Y9493649D01*
X57569100Y9385300D01*
X57924700Y9385300D01*
X57924700Y7937500D01*
X57480200Y7937500D01*
X50236652Y7937500D01*
X50266227Y8004781D01*
X50290596Y8106519D01*
X50296779Y8210314D01*
X50284719Y8313163D01*
X50254355Y8412060D01*
X50205629Y8504001D01*
X50138479Y8585983D01*
X50052849Y8655000D01*
X50007906Y8681217D01*
X49963965Y8706276D01*
X49939961Y8724753D01*
X49937192Y8735425D01*
X49947959Y8737600D01*
X49967801Y8746178D01*
X49999486Y8768796D01*
X50037679Y8800787D01*
X50077046Y8837479D01*
X50112252Y8874205D01*
X50133480Y8899989D01*
X50184830Y8989823D01*
X50216196Y9089938D01*
X50227918Y9195630D01*
X50220333Y9302199D01*
X50193780Y9404943D01*
X50148596Y9499160D01*
X50085120Y9580147D01*
X50084521Y9580747D01*
X49998303Y9649597D01*
X49896894Y9701144D01*
X49784085Y9734963D01*
X49663669Y9750630D01*
X49539436Y9747717D01*
X49415178Y9725800D01*
X49294688Y9684452D01*
X49268358Y9672367D01*
X49217356Y9644969D01*
X49160542Y9610039D01*
X49104337Y9572002D01*
X49055163Y9535285D01*
X49019440Y9504312D01*
X49010405Y9494582D01*
X49006568Y9485520D01*
X49009298Y9472282D01*
X49020432Y9452264D01*
X49041809Y9422866D01*
X49075266Y9381483D01*
X49122641Y9325515D01*
X49162339Y9279421D01*
X49175687Y9281883D01*
X49203160Y9297750D01*
X49239596Y9323893D01*
X49252339Y9333947D01*
X49353851Y9404420D01*
X49454086Y9451683D01*
X49551701Y9475501D01*
X49645355Y9475641D01*
X49733704Y9451868D01*
X49783013Y9426398D01*
X49839915Y9379023D01*
X49877082Y9318467D01*
X49895629Y9242462D01*
X49898300Y9192395D01*
X49890058Y9102286D01*
X49864069Y9028847D01*
X49818436Y8968904D01*
X49751261Y8919278D01*
X49727489Y8906367D01*
X49668335Y8882931D01*
X49592945Y8862846D01*
X49510438Y8848005D01*
X49429935Y8840297D01*
X49405730Y8839644D01*
X49338611Y8839200D01*
X49342230Y8709025D01*
X49345850Y8578850D01*
X49485550Y8570331D01*
X49616868Y8555641D01*
X49726624Y8528672D01*
X49815707Y8489027D01*
X49885003Y8436310D01*
X49935401Y8370122D01*
X49936195Y8368707D01*
X49953145Y8333641D01*
X49962799Y8298349D01*
X49966992Y8253603D01*
X49967660Y8210550D01*
X49966318Y8154587D01*
X49960955Y8114057D01*
X49949405Y8079062D01*
X49930802Y8042056D01*
X49879700Y7972218D01*
X49813016Y7921078D01*
X49729820Y7888179D01*
X49629184Y7873067D01*
X49584281Y7871898D01*
X49470411Y7882519D01*
X49364381Y7914350D01*
X49262976Y7968746D01*
X49162982Y8047056D01*
X49158704Y8050945D01*
X49088250Y8115336D01*
X49004259Y8004193D01*
X48920269Y7893050D01*
X48742600Y7893050D01*
X48742600Y7899400D01*
X48336200Y7899400D01*
X48336200Y9715500D01*
X48223688Y9715500D01*
X48165264Y9714475D01*
X48121708Y9709904D01*
X48082526Y9699551D01*
X48037218Y9681175D01*
X48014703Y9670927D01*
X47956637Y9647179D01*
X47886098Y9622792D01*
X47815546Y9601966D01*
X47793839Y9596460D01*
X47669450Y9566567D01*
X47665785Y9457245D01*
X47662121Y9347924D01*
X47837235Y9344387D01*
X48012350Y9340850D01*
X48015629Y8620125D01*
X48018909Y7899400D01*
X47561500Y7899400D01*
X40360600Y7899400D01*
X40360600Y7914472D01*
X39537742Y7905750D01*
X39679296Y8051800D01*
X39826972Y8211820D01*
X39951706Y8363857D01*
X40054196Y8509211D01*
X40135143Y8649183D01*
X40195248Y8785071D01*
X40235210Y8918175D01*
X40255729Y9049796D01*
X40259000Y9127964D01*
X40248624Y9262435D01*
X40217726Y9382470D01*
X40166651Y9487548D01*
X40095743Y9577144D01*
X40005347Y9650735D01*
X39895808Y9707799D01*
X39870624Y9717553D01*
X39830545Y9730349D01*
X39789154Y9738674D01*
X39739354Y9743404D01*
X39674046Y9745417D01*
X39643050Y9745654D01*
X39572976Y9745183D01*
X39520660Y9742527D01*
X39478489Y9736684D01*
X39438847Y9726651D01*
X39400454Y9713722D01*
X39304381Y9671411D01*
X39211224Y9613666D01*
X39115671Y9537023D01*
X39081488Y9505853D01*
X38995350Y9425126D01*
X38392100Y9425126D01*
X38392100Y9715500D01*
X38271087Y9715500D01*
X38211382Y9714706D01*
X38168557Y9711221D01*
X38134114Y9703394D01*
X38099556Y9689574D01*
X38074330Y9677264D01*
X38020387Y9653786D01*
X37949346Y9628220D01*
X37869087Y9603097D01*
X37787487Y9580952D01*
X37741225Y9570162D01*
X37724296Y9565605D01*
X37713973Y9557317D01*
X37708622Y9539907D01*
X37706608Y9507985D01*
X37706300Y9456159D01*
X37706300Y9347200D01*
X38061900Y9347200D01*
X38061900Y7899400D01*
X37617400Y7899400D01*
X30403652Y7899400D01*
X30404659Y7937500D01*
X29997400Y7937500D01*
X29997400Y9753600D01*
X29878068Y9753600D01*
X29818834Y9752790D01*
X29775532Y9749053D01*
X29738710Y9740435D01*
X29698919Y9724978D01*
X29665343Y9709563D01*
X29606665Y9685164D01*
X29536576Y9660762D01*
X29468632Y9641008D01*
X29457650Y9638299D01*
X29405578Y9625817D01*
X29362127Y9615258D01*
X29333790Y9608206D01*
X29327475Y9606535D01*
X29318775Y9593898D01*
X29313595Y9560605D01*
X29311634Y9504530D01*
X29311600Y9493649D01*
X29311600Y9385300D01*
X29667200Y9385300D01*
X29667200Y7937500D01*
X29222700Y7937500D01*
X28867100Y7937500D01*
X28460700Y7937500D01*
X28460700Y9753600D01*
X28347825Y9753600D01*
X28288110Y9752451D01*
X28243899Y9747730D01*
X28205353Y9737529D01*
X28162630Y9719939D01*
X28154150Y9716033D01*
X28098747Y9693373D01*
X28026687Y9668335D01*
X27946227Y9643502D01*
X27865621Y9621457D01*
X27809825Y9608262D01*
X27792874Y9603695D01*
X27782548Y9595385D01*
X27777205Y9577930D01*
X27775202Y9545930D01*
X27774900Y9493985D01*
X27774900Y9385998D01*
X28136850Y9378950D01*
X28136850Y7943850D01*
X27686000Y7936914D01*
X20333611Y7936914D01*
X20350324Y7967075D01*
X20403502Y8107125D01*
X20441406Y8255363D01*
X20452193Y8324943D01*
X20460534Y8413718D01*
X20466327Y8515593D01*
X20469466Y8624472D01*
X20469850Y8734258D01*
X20467373Y8838856D01*
X20461932Y8932171D01*
X20454138Y9003370D01*
X20421409Y9170350D01*
X20375568Y9317204D01*
X20316964Y9443524D01*
X20245948Y9548901D01*
X20162868Y9632925D01*
X20068076Y9695189D01*
X19961920Y9735282D01*
X19844752Y9752796D01*
X19812000Y9753600D01*
X19692255Y9742018D01*
X19582996Y9707657D01*
X19484730Y9651097D01*
X19397966Y9572919D01*
X19323212Y9473703D01*
X19260976Y9354028D01*
X19211766Y9214476D01*
X19176092Y9055626D01*
X19170645Y9021714D01*
X19161636Y8940963D01*
X19155584Y8842582D01*
X19152493Y8733659D01*
X19152367Y8621284D01*
X18494973Y8621284D01*
X18491030Y9715500D01*
X18378603Y9715500D01*
X18320139Y9714466D01*
X18276556Y9709878D01*
X18237369Y9699508D01*
X18192094Y9681127D01*
X18170415Y9671256D01*
X18109962Y9646455D01*
X18038674Y9621782D01*
X17970679Y9602073D01*
X17962251Y9599991D01*
X17910612Y9587503D01*
X17867602Y9576961D01*
X17839784Y9569982D01*
X17833975Y9568435D01*
X17825275Y9555798D01*
X17820095Y9522505D01*
X17818134Y9466430D01*
X17818100Y9455549D01*
X17818100Y9347200D01*
X18173700Y9347200D01*
X18173700Y7899400D01*
X17729200Y7899400D01*
X9958115Y7899400D01*
X9982485Y7933179D01*
X10047376Y8058180D01*
X10082013Y8148458D01*
X10120862Y8291963D01*
X10147829Y8451293D01*
X10162647Y8619687D01*
X10165051Y8790383D01*
X10154776Y8956618D01*
X10131557Y9111632D01*
X10121605Y9156700D01*
X10078046Y9294493D01*
X10017903Y9417397D01*
X9942705Y9523732D01*
X9853979Y9611819D01*
X9753255Y9679980D01*
X9642060Y9726534D01*
X9591049Y9739566D01*
X9469208Y9753195D01*
X9353098Y9743475D01*
X9244488Y9712146D01*
X9145146Y9660949D01*
X9056838Y9591623D01*
X8981334Y9505909D01*
X8920401Y9405546D01*
X8875807Y9292274D01*
X8849319Y9167834D01*
X8842706Y9033966D01*
X1460500Y9033966D01*
X1460500Y14452600D01*
X2133475Y14452600D01*
X2136712Y13204825D01*
X2139950Y11957050D01*
X2419350Y11957050D01*
X2425824Y14452600D01*
X3136900Y14452600D01*
X3136900Y11950700D01*
X3416300Y11950700D01*
X3416300Y14452600D01*
X4140200Y14452600D01*
X4140200Y11949841D01*
X4276725Y11953446D01*
X4413250Y11957050D01*
X4419724Y14452600D01*
X5130800Y14452600D01*
X5130800Y11950700D01*
X5410200Y11950700D01*
X5410200Y14452600D01*
X6095926Y14452600D01*
X6102350Y10153650D01*
X6432550Y10153650D01*
X6435761Y12303125D01*
X6438973Y14452600D01*
X7124575Y14452600D01*
X7127812Y13204825D01*
X7131050Y11957050D01*
X7410450Y11957050D01*
X7416924Y14452600D01*
X8128000Y14452600D01*
X8128000Y11950700D01*
X8407400Y11950700D01*
X8407400Y14452600D01*
X9131300Y14452600D01*
X9131300Y11949841D01*
X9267825Y11953446D01*
X9404350Y11957050D01*
X9410824Y14452600D01*
X10121900Y14452600D01*
X10121900Y11950700D01*
X10401300Y11950700D01*
X10401300Y14452600D01*
X11074346Y14452600D01*
X11080750Y8464550D01*
X11261725Y8461027D01*
X11442700Y8457503D01*
X11442700Y14452600D01*
X12115675Y14452600D01*
X12118912Y13204825D01*
X12122150Y11957050D01*
X12401550Y11957050D01*
X12408024Y14452600D01*
X13119100Y14452600D01*
X13119100Y11950700D01*
X13398500Y11950700D01*
X13398500Y14452600D01*
X14109575Y14452600D01*
X14112812Y13204825D01*
X14116050Y11957050D01*
X14395450Y11957050D01*
X14401924Y14452600D01*
X15113000Y14452600D01*
X15113000Y11950700D01*
X15392400Y11950700D01*
X15392400Y14452600D01*
X16078200Y14452600D01*
X16078200Y10147300D01*
X16408400Y10147300D01*
X16408400Y14452600D01*
X17106775Y14452600D01*
X17110012Y13204825D01*
X17113250Y11957050D01*
X17249775Y11953446D01*
X17386300Y11949841D01*
X17386300Y14452600D01*
X18110200Y14452600D01*
X18110200Y11950700D01*
X18389600Y11950700D01*
X18389600Y14452600D01*
X19100675Y14452600D01*
X19103912Y13204825D01*
X19107150Y11957050D01*
X19386550Y11957050D01*
X19393024Y14452600D01*
X20104100Y14452600D01*
X20104100Y11950700D01*
X20383500Y11950700D01*
X20383500Y14452600D01*
X21056600Y14452600D01*
X21056600Y8458200D01*
X21424900Y8458200D01*
X21424900Y14452600D01*
X22097875Y14452600D01*
X22101112Y13204825D01*
X22104350Y11957050D01*
X22240875Y11953446D01*
X22377399Y11949841D01*
X22377400Y13201221D01*
X22377400Y14452600D01*
X23101300Y14452600D01*
X23101300Y11950700D01*
X23380700Y11950700D01*
X23380700Y14452600D01*
X24091775Y14452600D01*
X24095012Y13204825D01*
X24098250Y11957050D01*
X24377650Y11957050D01*
X24384124Y14452600D01*
X25095200Y14452600D01*
X25095200Y11950700D01*
X25374600Y11950700D01*
X25374600Y14452600D01*
X26060400Y14452600D01*
X26060400Y10147300D01*
X26390600Y10147300D01*
X26390600Y14452600D01*
X27088975Y14452600D01*
X27092212Y13204825D01*
X27095450Y11957050D01*
X27231975Y11953446D01*
X27368500Y11949841D01*
X27368500Y14452600D01*
X28092400Y14452600D01*
X28092400Y11950700D01*
X28371800Y11950700D01*
X28371800Y14452600D01*
X29082875Y14452600D01*
X29086112Y13204825D01*
X29089350Y11957050D01*
X29368750Y11957050D01*
X29375224Y14452600D01*
X30086300Y14452600D01*
X30086300Y11950700D01*
X30365700Y11950700D01*
X30365700Y14452600D01*
X31038800Y14452600D01*
X31038800Y8457503D01*
X31219775Y8461027D01*
X31400750Y8464550D01*
X31403951Y11458575D01*
X31407153Y14452600D01*
X32080200Y14452600D01*
X32080200Y11950700D01*
X32359600Y11950700D01*
X32359600Y14452600D01*
X33083500Y14452600D01*
X33083500Y11950700D01*
X33362900Y11950700D01*
X33362900Y14452600D01*
X34073975Y14452600D01*
X34077212Y13204825D01*
X34080450Y11957050D01*
X34359850Y11957050D01*
X34366324Y14452600D01*
X35077400Y14452600D01*
X35077400Y11950700D01*
X35356800Y11950700D01*
X35356800Y14452600D01*
X36029826Y14452600D01*
X36036250Y10153650D01*
X36366450Y10153650D01*
X36369661Y12303125D01*
X36372873Y14452600D01*
X37071300Y14452600D01*
X37071300Y11950700D01*
X37350700Y11950700D01*
X37350700Y14452600D01*
X38074600Y14452600D01*
X38074600Y11950700D01*
X38354000Y11950700D01*
X38354000Y14452600D01*
X39065075Y14452600D01*
X39068312Y13204825D01*
X39071550Y11957050D01*
X39350950Y11957050D01*
X39357424Y14452600D01*
X40068500Y14452600D01*
X40068500Y11950700D01*
X40347900Y11950700D01*
X40347900Y14452600D01*
X41021000Y14452600D01*
X41021000Y8458200D01*
X41376600Y8458200D01*
X41376600Y14452600D01*
X42062400Y14452600D01*
X42062400Y11950700D01*
X42341800Y11950700D01*
X42341800Y14452600D01*
X43065700Y14452600D01*
X43065700Y11950700D01*
X43345100Y11950700D01*
X43345100Y14452600D01*
X44056175Y14452600D01*
X44059412Y13204825D01*
X44062650Y11957050D01*
X44342050Y11957050D01*
X44348524Y14452600D01*
X45059600Y14452600D01*
X45059600Y11950700D01*
X45339000Y11950700D01*
X45339000Y14452600D01*
X46012100Y14452600D01*
X46012100Y10147300D01*
X46342300Y10147300D01*
X46342300Y14452600D01*
X47053500Y14452600D01*
X47053500Y11950700D01*
X47332900Y11950700D01*
X47332900Y14452600D01*
X48056800Y14452600D01*
X48056800Y11950700D01*
X48336200Y11950700D01*
X48336200Y14452600D01*
X49047275Y14452600D01*
X49050512Y13204825D01*
X49053750Y11957050D01*
X49190275Y11953446D01*
X49326800Y11949841D01*
X49326800Y14452600D01*
X50050700Y14452600D01*
X50050700Y11950700D01*
X50330100Y11950700D01*
X50330100Y14452600D01*
X51003200Y14452600D01*
X51003200Y8458200D01*
X51358800Y8458200D01*
X51358800Y14452600D01*
X52044600Y14452600D01*
X52044600Y11950700D01*
X52324000Y11950700D01*
X52324000Y14452600D01*
X53047900Y14452600D01*
X53047900Y11950700D01*
X53327300Y11950700D01*
X53327300Y14452600D01*
X54038375Y14452600D01*
X54041612Y13204825D01*
X54044850Y11957050D01*
X54181375Y11953446D01*
X54317900Y11949841D01*
X54317900Y14452600D01*
X55041800Y14452600D01*
X55041800Y11950700D01*
X55321200Y11950700D01*
X55321200Y14452600D01*
X55994300Y14452600D01*
X55994300Y10147300D01*
X56324500Y10147300D01*
X56324500Y14452600D01*
X57035700Y14452600D01*
X57035700Y11950700D01*
X57315100Y11950700D01*
X57315100Y14452600D01*
X58039000Y14452600D01*
X58039000Y11949841D01*
X58175525Y11953446D01*
X58312050Y11957050D01*
X58318524Y14452600D01*
X59029475Y14452600D01*
X59032712Y13204825D01*
X59035950Y11957050D01*
X59172475Y11953446D01*
X59309000Y11949841D01*
X59309000Y14452600D01*
X60032900Y14452600D01*
X60032900Y11950700D01*
X60312300Y11950700D01*
X60312300Y14452600D01*
X60972646Y14452600D01*
X60979050Y8464550D01*
X61160025Y8461027D01*
X61341000Y8457503D01*
X61341000Y14452600D01*
X62026800Y14452600D01*
X62026800Y11950700D01*
X62306200Y11950700D01*
X62306200Y14452600D01*
X63030100Y14452600D01*
X63030100Y11949841D01*
X63166625Y11953446D01*
X63303150Y11957050D01*
X63309624Y14452600D01*
X64020700Y14452600D01*
X64020700Y11950700D01*
X64300100Y11950700D01*
X64300100Y14452600D01*
X65024000Y14452600D01*
X65024000Y11950700D01*
X65303400Y11950700D01*
X65303400Y14452600D01*
X65963726Y14452600D01*
X65970150Y10153650D01*
X66300350Y10153650D01*
X66303561Y12303125D01*
X66306773Y14452600D01*
X67017900Y14452600D01*
X67017900Y11950700D01*
X67297300Y11950700D01*
X67297300Y14452600D01*
X68021200Y14452600D01*
X68021200Y11949841D01*
X68157725Y11953446D01*
X68294250Y11957050D01*
X68300724Y14452600D01*
X69011800Y14452600D01*
X69011800Y11950700D01*
X69291200Y11950700D01*
X69291200Y14452600D01*
X70015100Y14452600D01*
X70015100Y11950700D01*
X70294500Y11950700D01*
X70294500Y14452600D01*
X70954900Y14452600D01*
X70954900Y8458200D01*
X71323200Y8458200D01*
X71323200Y14452600D01*
X72518059Y14452600D01*
X72723860Y14452638D01*
X72906006Y14452675D01*
X73066242Y14452600D01*
X73206313Y14452303D01*
X73327964Y14451671D01*
X73432940Y14450594D01*
X73522985Y14448960D01*
X73599845Y14446657D01*
X73665264Y14443574D01*
X73720987Y14439600D01*
X73768759Y14434623D01*
X73810326Y14428533D01*
X73847431Y14421216D01*
X73881821Y14412563D01*
X73915238Y14402461D01*
X73949430Y14390800D01*
X73986140Y14377467D01*
X74027113Y14362352D01*
X74047350Y14354960D01*
X74280475Y14259332D01*
X74497544Y14146948D01*
X74701916Y14015661D01*
X74896945Y13863324D01*
X75077713Y13696070D01*
X75256562Y13501264D01*
X75414155Y13294367D01*
X75550962Y13074462D01*
X75667452Y12840637D01*
X75764096Y12591975D01*
X75841364Y12327562D01*
X75886167Y12122150D01*
X75889304Y12105241D01*
X75892184Y12088334D01*
X75894821Y12070323D01*
X75897228Y12050102D01*
X75899418Y12026564D01*
X75901403Y11998603D01*
X75903197Y11965113D01*
X75904813Y11924987D01*
X75906263Y11877118D01*
X75907560Y11820402D01*
X75908717Y11753730D01*
X75909748Y11675997D01*
X75910664Y11586096D01*
X75911480Y11482921D01*
X75912208Y11365366D01*
X75912860Y11232324D01*
X75913450Y11082689D01*
X75913991Y10915354D01*
X75914496Y10729212D01*
X75914977Y10523159D01*
X75915447Y10296087D01*
X75915920Y10046889D01*
X75916408Y9774460D01*
X75916903Y9490075D01*
X75921212Y6997700D01*
X-3600543Y6997700D01*
X-5364482Y6997701D01*
X-7103190Y6997703D01*
X-8816839Y6997707D01*
X-10505599Y6997712D01*
X-12169640Y6997718D01*
X-13809131Y6997726D01*
X-15424244Y6997736D01*
X-17015149Y6997747D01*
X-18582015Y6997760D01*
X-20125013Y6997774D01*
X-21644314Y6997790D01*
X-23140086Y6997808D01*
X-24612502Y6997828D01*
X-26061730Y6997850D01*
X-27487941Y6997873D01*
X-28891305Y6997899D01*
X-30271993Y6997926D01*
X-31630174Y6997955D01*
X-32966019Y6997986D01*
X-34279699Y6998020D01*
X-35571382Y6998055D01*
X-36841241Y6998092D01*
X-38089444Y6998132D01*
X-39316161Y6998174D01*
X-40521565Y6998218D01*
X-41705823Y6998264D01*
X-42869107Y6998313D01*
X-44011587Y6998364D01*
X-45133433Y6998417D01*
X-46234815Y6998473D01*
X-47315903Y6998531D01*
X-48376869Y6998592D01*
X-49417881Y6998655D01*
X-50439110Y6998720D01*
X-51440726Y6998789D01*
X-52422901Y6998860D01*
X-53385802Y6998933D01*
X-54329602Y6999009D01*
X-55254470Y6999088D01*
X-56160576Y6999170D01*
X-57048091Y6999255D01*
X-57917185Y6999342D01*
X-58768028Y6999432D01*
X-59600790Y6999526D01*
X-60415642Y6999622D01*
X-61212753Y6999721D01*
X-61992294Y6999823D01*
X-62754435Y6999928D01*
X-63499347Y7000037D01*
X-64227199Y7000148D01*
X-64938162Y7000263D01*
X-65632406Y7000380D01*
X-66310101Y7000501D01*
X-66971418Y7000626D01*
X-67616526Y7000753D01*
X-68245596Y7000884D01*
X-68858798Y7001019D01*
X-69456302Y7001156D01*
X-70038279Y7001298D01*
X-70604898Y7001442D01*
X-71156331Y7001591D01*
X-71692746Y7001742D01*
X-72214315Y7001898D01*
X-72721207Y7002057D01*
X-73213593Y7002219D01*
X-73691644Y7002386D01*
X-74155528Y7002556D01*
X-74605417Y7002730D01*
X-75041480Y7002908D01*
X-75463889Y7003089D01*
X-75872812Y7003275D01*
X-76268421Y7003464D01*
X-76650885Y7003658D01*
X-77020375Y7003855D01*
X-77377060Y7004057D01*
X-77721112Y7004262D01*
X-78052701Y7004472D01*
X-78371995Y7004686D01*
X-78679167Y7004904D01*
X-78974386Y7005126D01*
X-79257822Y7005352D01*
X-79529645Y7005583D01*
X-79790026Y7005818D01*
X-80039135Y7006057D01*
X-80277142Y7006301D01*
X-80504217Y7006549D01*
X-80720531Y7006802D01*
X-80926253Y7007059D01*
X-81121554Y7007321D01*
X-81306605Y7007587D01*
X-81481575Y7007858D01*
X-81646634Y7008134D01*
X-81801954Y7008414D01*
X-81947703Y7008699D01*
X-82084052Y7008989D01*
X-82211172Y7009284D01*
X-82329233Y7009583D01*
X-82438405Y7009887D01*
X-82538857Y7010196D01*
X-82630761Y7010511D01*
X-82714287Y7010830D01*
X-82789604Y7011154D01*
X-82856883Y7011483D01*
X-82916294Y7011817D01*
X-82968008Y7012157D01*
X-83012194Y7012501D01*
X-83049024Y7012851D01*
X-83078666Y7013206D01*
X-83101291Y7013566D01*
X-83117070Y7013932D01*
X-83126173Y7014302D01*
X-83128796Y7014634D01*
X-83129432Y7028865D01*
X-83130005Y7067257D01*
X-83130515Y7128571D01*
X-83130961Y7211569D01*
X-83131341Y7315012D01*
X-83131655Y7437662D01*
X-83131901Y7578278D01*
X-83132079Y7735624D01*
X-83132187Y7908460D01*
X-83132192Y7937500D01*
X-70637400Y7937500D01*
X-70637400Y7657847D01*
X-70050025Y7661149D01*
X-69462650Y7664450D01*
X-69459046Y7800975D01*
X-69455441Y7937500D01*
X-69862700Y7937500D01*
X-69862700Y9753600D01*
X-69982032Y9753600D01*
X-70041266Y9752790D01*
X-70084568Y9749053D01*
X-70121390Y9740435D01*
X-70161181Y9724978D01*
X-70194757Y9709563D01*
X-70253435Y9685164D01*
X-70323524Y9660762D01*
X-70391468Y9641008D01*
X-70402450Y9638299D01*
X-70454522Y9625817D01*
X-70497973Y9615258D01*
X-70526310Y9608206D01*
X-70532625Y9606535D01*
X-70541325Y9593898D01*
X-70546505Y9560605D01*
X-70548466Y9504530D01*
X-70548500Y9493649D01*
X-70548500Y9385300D01*
X-70192900Y9385300D01*
X-70192900Y7937500D01*
X-70637400Y7937500D01*
X-83132192Y7937500D01*
X-83132224Y8095547D01*
X-83132190Y8295647D01*
X-83132083Y8507520D01*
X-83131902Y8729929D01*
X-83131646Y8961634D01*
X-83131314Y9201397D01*
X-83130906Y9447978D01*
X-83130868Y9468909D01*
X-83126442Y11906250D01*
X-83097962Y12071350D01*
X-83055702Y12283935D01*
X-83004684Y12478920D01*
X-82942787Y12663226D01*
X-82867887Y12843772D01*
X-82847846Y12887089D01*
X-82722673Y13123675D01*
X-82577756Y13345430D01*
X-82414353Y13551299D01*
X-82233719Y13740224D01*
X-82037111Y13911150D01*
X-81825785Y14063021D01*
X-81600997Y14194781D01*
X-81364004Y14305374D01*
X-81116063Y14393744D01*
X-81024285Y14419934D01*
X-80901920Y14452600D01*
X-78740000Y14452600D01*
X-78740000Y8826500D01*
X-78371700Y8826500D01*
X-78371700Y14452600D01*
X-77711300Y14452600D01*
X-77711300Y11950700D01*
X-77431900Y11950700D01*
X-77431900Y14452600D01*
X-76720825Y14452600D01*
X-76717588Y13204825D01*
X-76714350Y11957050D01*
X-76434950Y11957050D01*
X-76428476Y14452600D01*
X-75717400Y14452600D01*
X-75717400Y11950700D01*
X-75438000Y11950700D01*
X-75438000Y14452600D01*
X-74714100Y14452600D01*
X-74714100Y11950700D01*
X-74434700Y11950700D01*
X-74434700Y14452600D01*
X-73723574Y14452600D01*
X-73717150Y10153650D01*
X-73386950Y10153650D01*
X-73383739Y12303125D01*
X-73380527Y14452600D01*
X-72720200Y14452600D01*
X-72720200Y11950700D01*
X-72440800Y11950700D01*
X-72440800Y14452600D01*
X-71729725Y14452600D01*
X-71726488Y13204825D01*
X-71723250Y11957050D01*
X-71443850Y11957050D01*
X-71437376Y14452600D01*
X-70726300Y14452600D01*
X-70726300Y11950700D01*
X-70446900Y11950700D01*
X-70446900Y14452600D01*
X-69723000Y14452600D01*
X-69723000Y11950700D01*
X-69443600Y11950700D01*
X-69443600Y14452600D01*
X-68757800Y14452600D01*
X-68757800Y8458200D01*
X-68402200Y8458200D01*
X-68402200Y9416903D01*
X-60782384Y9416903D01*
X-60773913Y9400396D01*
X-60753447Y9376334D01*
X-60718424Y9340495D01*
X-60699089Y9321243D01*
X-60605190Y9227971D01*
X-60516860Y9313247D01*
X-60443031Y9378345D01*
X-60374838Y9423575D01*
X-60306258Y9451634D01*
X-60231271Y9465222D01*
X-60172600Y9467572D01*
X-60082246Y9460811D01*
X-60010400Y9439541D01*
X-59953317Y9401497D01*
X-59907251Y9344417D01*
X-59878639Y9289892D01*
X-59863564Y9250378D01*
X-59854820Y9209101D01*
X-59851014Y9157257D01*
X-59850534Y9112250D01*
X-59859857Y9002481D01*
X-59887705Y8890638D01*
X-59935030Y8774488D01*
X-60002789Y8651798D01*
X-60091936Y8520334D01*
X-60119307Y8483689D01*
X-60153513Y8441902D01*
X-60202585Y8386305D01*
X-60262961Y8320570D01*
X-60331082Y8248371D01*
X-60403388Y8173381D01*
X-60476319Y8099272D01*
X-60546314Y8029718D01*
X-60609813Y7968392D01*
X-60663256Y7918966D01*
X-60685640Y7899400D01*
X-60767899Y7829550D01*
X-60768700Y7724775D01*
X-60769500Y7620000D01*
X-59436000Y7620000D01*
X-59436000Y7896252D01*
X-50856410Y7896252D01*
X-50774230Y7818451D01*
X-50664397Y7731581D01*
X-50540932Y7664559D01*
X-50406987Y7618168D01*
X-50265714Y7593193D01*
X-50120267Y7590417D01*
X-49973799Y7610624D01*
X-49955450Y7614836D01*
X-49834769Y7655510D01*
X-49728939Y7715106D01*
X-49639663Y7791826D01*
X-49568643Y7883873D01*
X-49517583Y7989448D01*
X-49488183Y8106754D01*
X-49487937Y8108449D01*
X-49482625Y8226398D01*
X-49500068Y8339357D01*
X-49534193Y8432021D01*
X-40944800Y8432021D01*
X-40944800Y8216900D01*
X-40068500Y8216900D01*
X-40068500Y7657319D01*
X-39912925Y7660885D01*
X-39757350Y7664450D01*
X-39754103Y7926566D01*
X-30962600Y7926566D01*
X-30953016Y7910468D01*
X-30927433Y7883784D01*
X-30890602Y7850575D01*
X-30847276Y7814900D01*
X-30802209Y7780821D01*
X-30760153Y7752396D01*
X-30755075Y7749279D01*
X-30634561Y7690459D01*
X-30501967Y7650828D01*
X-30362732Y7631183D01*
X-30222298Y7632322D01*
X-30095844Y7652621D01*
X-29981636Y7692975D01*
X-29876623Y7755358D01*
X-29783929Y7837133D01*
X-29706679Y7935664D01*
X-29660258Y8020050D01*
X-29627991Y8098761D01*
X-29606891Y8174104D01*
X-29595176Y8254997D01*
X-29591070Y8350357D01*
X-29591000Y8367257D01*
X-29601214Y8506492D01*
X-29631373Y8631810D01*
X-29680756Y8742183D01*
X-29748643Y8836585D01*
X-29834313Y8913988D01*
X-29937044Y8973366D01*
X-30042378Y9010254D01*
X-30123906Y9024503D01*
X-30216180Y9029460D01*
X-30308878Y9025260D01*
X-30391681Y9012040D01*
X-30416310Y9005339D01*
X-30494582Y8980978D01*
X-30487662Y9027564D01*
X-30484240Y9056654D01*
X-30479498Y9105231D01*
X-30473967Y9167447D01*
X-30468181Y9237458D01*
X-30465812Y9267642D01*
X-30450882Y9461134D01*
X-29686250Y9467850D01*
X-29682660Y9610725D01*
X-29679069Y9753600D01*
X-30731507Y9753600D01*
X-30739028Y9680575D01*
X-30743342Y9633479D01*
X-30748403Y9569693D01*
X-30754002Y9492693D01*
X-30759934Y9405949D01*
X-30765990Y9312937D01*
X-30771964Y9217127D01*
X-30777649Y9121994D01*
X-30782838Y9031010D01*
X-30787323Y8947648D01*
X-30790898Y8875381D01*
X-30793355Y8817682D01*
X-30794487Y8778024D01*
X-30794088Y8759880D01*
X-30793954Y8759377D01*
X-30780319Y8744649D01*
X-30750724Y8722245D01*
X-30711400Y8696852D01*
X-30708767Y8695276D01*
X-30630223Y8648488D01*
X-30558287Y8692666D01*
X-30463057Y8739245D01*
X-30365479Y8765110D01*
X-30269161Y8770527D01*
X-30177712Y8755764D01*
X-30094740Y8721084D01*
X-30023853Y8666756D01*
X-30010307Y8652271D01*
X-29966620Y8592413D01*
X-29937422Y8526125D01*
X-29920990Y8447797D01*
X-29915599Y8351814D01*
X-29915592Y8343900D01*
X-29916743Y8282229D01*
X-29920940Y8237033D01*
X-29929780Y8199428D01*
X-29944858Y8160529D01*
X-29950942Y8147050D01*
X-30004240Y8057465D01*
X-30072172Y7987220D01*
X-30143450Y7942457D01*
X-30185541Y7925593D01*
X-30229001Y7916215D01*
X-30283802Y7912517D01*
X-30310388Y7912225D01*
X-30397371Y7916549D01*
X-30475348Y7931225D01*
X-30549615Y7958472D01*
X-30625471Y8000507D01*
X-30708212Y8059552D01*
X-30758249Y8099809D01*
X-30808475Y8141468D01*
X-30885538Y8040234D01*
X-30918119Y7996261D01*
X-30943881Y7959257D01*
X-30959486Y7934150D01*
X-30962600Y7926566D01*
X-39754103Y7926566D01*
X-39753928Y7940675D01*
X-39750505Y8216900D01*
X-39483441Y8216900D01*
X-39487046Y8353425D01*
X-39490650Y8489950D01*
X-39620825Y8493570D01*
X-39751000Y8497189D01*
X-39751000Y9753600D01*
X-40090027Y9753600D01*
X-40517414Y9092811D01*
X-40944800Y8432021D01*
X-49534193Y8432021D01*
X-49538715Y8444300D01*
X-49597016Y8538198D01*
X-49673420Y8618024D01*
X-49766377Y8680749D01*
X-49786071Y8690621D01*
X-49851806Y8721864D01*
X-49798418Y8755567D01*
X-49710635Y8825273D01*
X-49640998Y8910175D01*
X-49590466Y9006766D01*
X-49559994Y9111541D01*
X-49550540Y9220995D01*
X-49563063Y9331622D01*
X-49598518Y9439916D01*
X-49606726Y9457498D01*
X-49662787Y9544243D01*
X-49738056Y9617505D01*
X-49829542Y9676143D01*
X-49934253Y9719019D01*
X-50049199Y9744993D01*
X-50171389Y9752923D01*
X-50297832Y9741672D01*
X-50334352Y9734768D01*
X-50455030Y9697816D01*
X-50575412Y9637811D01*
X-50697108Y9553885D01*
X-50747948Y9512197D01*
X-50763302Y9496251D01*
X-50768910Y9479661D01*
X-50763109Y9458735D01*
X-50744237Y9429779D01*
X-50710629Y9389100D01*
X-50673893Y9347719D01*
X-50600092Y9265687D01*
X-50531771Y9327432D01*
X-50448054Y9391450D01*
X-50360666Y9437436D01*
X-50272491Y9465685D01*
X-50186413Y9476496D01*
X-50105314Y9470163D01*
X-50032077Y9446983D01*
X-49969587Y9407252D01*
X-49920725Y9351268D01*
X-49888375Y9279326D01*
X-49883631Y9260810D01*
X-49874978Y9203996D01*
X-49877777Y9150499D01*
X-49883167Y9120859D01*
X-49910357Y9040553D01*
X-49955756Y8974606D01*
X-50020272Y8922439D01*
X-50104817Y8883469D01*
X-50210301Y8857118D01*
X-50317216Y8844199D01*
X-50431700Y8835556D01*
X-50431700Y8572500D01*
X-50335915Y8572500D01*
X-50247288Y8567643D01*
X-50155951Y8554230D01*
X-50070582Y8533999D01*
X-49999857Y8508689D01*
X-49987145Y8502622D01*
X-49928248Y8463956D01*
X-49876453Y8413768D01*
X-49838164Y8359084D01*
X-49823016Y8322574D01*
X-49809982Y8241131D01*
X-49812805Y8156356D01*
X-49830829Y8078732D01*
X-49839636Y8057251D01*
X-49886883Y7984171D01*
X-49951891Y7928866D01*
X-50033865Y7891764D01*
X-50132007Y7873297D01*
X-50183472Y7871178D01*
X-50301144Y7881213D01*
X-50408462Y7912267D01*
X-50508850Y7965765D01*
X-50605736Y8043133D01*
X-50612769Y8049759D01*
X-50647262Y8081547D01*
X-50674076Y8104308D01*
X-50688616Y8114202D01*
X-50689859Y8114148D01*
X-50698753Y8102512D01*
X-50719680Y8075131D01*
X-50749251Y8036444D01*
X-50775120Y8002601D01*
X-50856410Y7896252D01*
X-59436000Y7896252D01*
X-59436000Y7914253D01*
X-59840883Y7910002D01*
X-60245765Y7905750D01*
X-60129808Y8030345D01*
X-60006816Y8165980D01*
X-59902335Y8289032D01*
X-59814472Y8402049D01*
X-59741335Y8507577D01*
X-59681033Y8608164D01*
X-59638240Y8692138D01*
X-59581425Y8835336D01*
X-59546075Y8975213D01*
X-59532055Y9109912D01*
X-59539227Y9237579D01*
X-59567457Y9356357D01*
X-59616607Y9464392D01*
X-59686542Y9559828D01*
X-59703265Y9577498D01*
X-59791800Y9651933D01*
X-59890109Y9704352D01*
X-59993136Y9735309D01*
X-60128666Y9751841D01*
X-60262278Y9744318D01*
X-60390720Y9713160D01*
X-60488423Y9671051D01*
X-60539370Y9640822D01*
X-60596617Y9601395D01*
X-60654470Y9557299D01*
X-60707238Y9513065D01*
X-60749228Y9473221D01*
X-60773572Y9444145D01*
X-60781417Y9430079D01*
X-60782384Y9416903D01*
X-68402200Y9416903D01*
X-68402200Y14452600D01*
X-67729100Y14452600D01*
X-67729100Y11950700D01*
X-67449700Y11950700D01*
X-67449700Y14452600D01*
X-66738625Y14452600D01*
X-66735388Y13204825D01*
X-66732150Y11957050D01*
X-66452750Y11957050D01*
X-66446276Y14452600D01*
X-65735200Y14452600D01*
X-65735200Y11950700D01*
X-65455800Y11950700D01*
X-65455800Y14452600D01*
X-64731900Y14452600D01*
X-64731900Y11949841D01*
X-64595375Y11953446D01*
X-64458850Y11957050D01*
X-64452376Y14452600D01*
X-63741300Y14452600D01*
X-63741300Y10147300D01*
X-63411100Y10147300D01*
X-63411100Y14452600D01*
X-62738000Y14452600D01*
X-62738000Y11950700D01*
X-62458600Y11950700D01*
X-62458600Y14452600D01*
X-61747525Y14452600D01*
X-61744288Y13204825D01*
X-61741050Y11957050D01*
X-61461650Y11957050D01*
X-61455176Y14452600D01*
X-60744100Y14452600D01*
X-60744100Y11950700D01*
X-60464700Y11950700D01*
X-60464700Y14452600D01*
X-59740800Y14452600D01*
X-59740800Y11949841D01*
X-59604275Y11953446D01*
X-59467750Y11957050D01*
X-59461276Y14452600D01*
X-58775600Y14452600D01*
X-58775600Y8458200D01*
X-58420000Y8458200D01*
X-58420000Y14452600D01*
X-57746900Y14452600D01*
X-57746900Y11950700D01*
X-57467500Y11950700D01*
X-57467500Y14452600D01*
X-56756425Y14452600D01*
X-56753188Y13204825D01*
X-56749950Y11957050D01*
X-56470550Y11957050D01*
X-56464076Y14452600D01*
X-55753000Y14452600D01*
X-55753000Y11950700D01*
X-55473600Y11950700D01*
X-55473600Y14452600D01*
X-54749700Y14452600D01*
X-54749700Y11949841D01*
X-54613175Y11953446D01*
X-54476650Y11957050D01*
X-54470176Y14452600D01*
X-53759100Y14452600D01*
X-53759100Y10147300D01*
X-53428900Y10147300D01*
X-53428900Y14452600D01*
X-52755800Y14452600D01*
X-52755800Y11950700D01*
X-52476400Y11950700D01*
X-52476400Y14452600D01*
X-51765325Y14452600D01*
X-51762088Y13204825D01*
X-51758850Y11957050D01*
X-51479450Y11957050D01*
X-51472976Y14452600D01*
X-50761900Y14452600D01*
X-50761900Y11950700D01*
X-50482500Y11950700D01*
X-50482500Y14452996D01*
X-49764950Y14446250D01*
X-49758476Y11949842D01*
X-49485550Y11957050D01*
X-49479076Y14452600D01*
X-48806154Y14452600D01*
X-48799750Y8464550D01*
X-48618775Y8461027D01*
X-48437800Y8457503D01*
X-48437800Y14452600D01*
X-47764700Y14452600D01*
X-47764700Y11950700D01*
X-47485300Y11950700D01*
X-47485300Y14452600D01*
X-46774225Y14452600D01*
X-46770988Y13204825D01*
X-46767750Y11957050D01*
X-46488350Y11957050D01*
X-46481876Y14452600D01*
X-45770800Y14452600D01*
X-45770800Y11950700D01*
X-45491400Y11950700D01*
X-45491400Y14452600D01*
X-44780325Y14452600D01*
X-44777088Y13204825D01*
X-44773850Y11957050D01*
X-44494450Y11957050D01*
X-44487976Y14452600D01*
X-43789674Y14452600D01*
X-43783250Y10153650D01*
X-43459400Y10146542D01*
X-43459400Y14452600D01*
X-42773600Y14452600D01*
X-42773600Y11950700D01*
X-42494200Y11950700D01*
X-42494200Y14452600D01*
X-41783125Y14452600D01*
X-41779888Y13204825D01*
X-41776650Y11957050D01*
X-41640125Y11953446D01*
X-41503600Y11949841D01*
X-41503600Y14452600D01*
X-40779700Y14452600D01*
X-40779700Y11950700D01*
X-40500300Y11950700D01*
X-40500300Y14452600D01*
X-39789225Y14452600D01*
X-39785988Y13204825D01*
X-39782750Y11957050D01*
X-39503350Y11957050D01*
X-39496876Y14452600D01*
X-38823954Y14452600D01*
X-38817550Y8464550D01*
X-38636575Y8461027D01*
X-38455600Y8457503D01*
X-38455600Y14452600D01*
X-37782500Y14452600D01*
X-37782500Y11950700D01*
X-37503100Y11950700D01*
X-37503100Y14452600D01*
X-36792025Y14452600D01*
X-36788788Y13204825D01*
X-36785550Y11957050D01*
X-36649025Y11953446D01*
X-36512500Y11949841D01*
X-36512500Y14452600D01*
X-35788600Y14452600D01*
X-35788600Y11950700D01*
X-35509200Y11950700D01*
X-35509200Y14452600D01*
X-34798125Y14452600D01*
X-34794888Y13204825D01*
X-34791650Y11957050D01*
X-34512250Y11957050D01*
X-34505776Y14452600D01*
X-33807400Y14452600D01*
X-33807400Y10147300D01*
X-33477200Y10147300D01*
X-33477200Y14452600D01*
X-32791400Y14452600D01*
X-32791400Y11949841D01*
X-32654875Y11953446D01*
X-32518350Y11957050D01*
X-32511876Y14452600D01*
X-31800925Y14452600D01*
X-31797688Y13204825D01*
X-31794450Y11957050D01*
X-31657925Y11953446D01*
X-31521400Y11949841D01*
X-31521400Y14452600D01*
X-30797500Y14452600D01*
X-30797500Y11950700D01*
X-30518100Y11950700D01*
X-30518100Y14452600D01*
X-29807025Y14452600D01*
X-29803788Y13204825D01*
X-29800550Y11957050D01*
X-29521150Y11957050D01*
X-29514676Y14452600D01*
X-28841700Y14452600D01*
X-28841700Y8457503D01*
X-28660725Y8461027D01*
X-28479750Y8464550D01*
X-28479580Y8624349D01*
X-20990833Y8624349D01*
X-20983706Y8455879D01*
X-20962825Y8295923D01*
X-20928836Y8147834D01*
X-20882384Y8014964D01*
X-20824118Y7900665D01*
X-20804934Y7871227D01*
X-20723561Y7773560D01*
X-20629217Y7695467D01*
X-20524707Y7637936D01*
X-20412833Y7601950D01*
X-20296396Y7588495D01*
X-20178201Y7598558D01*
X-20093326Y7621006D01*
X-19985245Y7671264D01*
X-19889836Y7742390D01*
X-19808923Y7832289D01*
X-19744329Y7938861D01*
X-19697878Y8060009D01*
X-19691625Y8083044D01*
X-19681275Y8142357D01*
X-19674928Y8217999D01*
X-19672701Y8301195D01*
X-19674711Y8383173D01*
X-19681076Y8455160D01*
X-19686232Y8486150D01*
X-19717864Y8589481D01*
X-19766934Y8685982D01*
X-19830109Y8771373D01*
X-19904054Y8841376D01*
X-19985436Y8891713D01*
X-20010392Y8902187D01*
X-20135614Y8936842D01*
X-20258228Y8946246D01*
X-20377890Y8930448D01*
X-20494256Y8889496D01*
X-20606980Y8823437D01*
X-20615275Y8817474D01*
X-20675600Y8773537D01*
X-20675434Y8828594D01*
X-20670542Y8890916D01*
X-20657581Y8967523D01*
X-20638649Y9049426D01*
X-20615844Y9127633D01*
X-20591264Y9193153D01*
X-20589374Y9197379D01*
X-20533500Y9295986D01*
X-20465574Y9372479D01*
X-20385915Y9426635D01*
X-20294839Y9458230D01*
X-20205700Y9467193D01*
X-20111120Y9458415D01*
X-20029545Y9430245D01*
X-19955164Y9380354D01*
X-19928503Y9356118D01*
X-19873556Y9302750D01*
X-19816786Y9366250D01*
X-19781122Y9406902D01*
X-19747019Y9447015D01*
X-19726854Y9471677D01*
X-19693691Y9513604D01*
X-19749671Y9570902D01*
X-19801831Y9614397D01*
X-19870411Y9657803D01*
X-19946808Y9696654D01*
X-20022422Y9726483D01*
X-20077259Y9740980D01*
X-20201389Y9752861D01*
X-20326461Y9741927D01*
X-20389900Y9728188D01*
X-20513779Y9684107D01*
X-20623724Y9618904D01*
X-20719611Y9532772D01*
X-20801314Y9425909D01*
X-20868710Y9298507D01*
X-20921673Y9150764D01*
X-20960080Y8982873D01*
X-20983560Y8797983D01*
X-20990833Y8624349D01*
X-28479580Y8624349D01*
X-28476549Y11458575D01*
X-28473347Y14452600D01*
X-27800300Y14452600D01*
X-27800300Y11949841D01*
X-27663775Y11953446D01*
X-27527250Y11957050D01*
X-27520776Y14452600D01*
X-26809700Y14452600D01*
X-26809700Y11950700D01*
X-26530300Y11950700D01*
X-26530300Y14452600D01*
X-25806400Y14452600D01*
X-25806400Y11950700D01*
X-25527000Y11950700D01*
X-25527000Y14452600D01*
X-24815925Y14452600D01*
X-24812688Y13204825D01*
X-24809450Y11957050D01*
X-24530050Y11957050D01*
X-24523576Y14452600D01*
X-23837974Y14452600D01*
X-23831550Y10153650D01*
X-23501350Y10153650D01*
X-23498139Y12303125D01*
X-23494927Y14452600D01*
X-22809200Y14452600D01*
X-22809200Y11949841D01*
X-22672675Y11953446D01*
X-22536150Y11957050D01*
X-22529676Y14452600D01*
X-21818600Y14452600D01*
X-21818600Y11950700D01*
X-21539200Y11950700D01*
X-21539200Y14452600D01*
X-20815300Y14452600D01*
X-20815300Y11950700D01*
X-20535900Y11950700D01*
X-20535900Y14452600D01*
X-19824825Y14452600D01*
X-19821588Y13204825D01*
X-19818350Y11957050D01*
X-19538950Y11957050D01*
X-19532476Y14452600D01*
X-18859500Y14452600D01*
X-18859500Y8458200D01*
X-18503900Y8458200D01*
X-18503900Y9753600D01*
X-11049000Y9753600D01*
X-11049000Y9461500D01*
X-10110134Y9461500D01*
X-10186408Y9344025D01*
X-10296877Y9156697D01*
X-10391132Y8959226D01*
X-10469765Y8749583D01*
X-10533369Y8525737D01*
X-10582537Y8285655D01*
X-10617861Y8027306D01*
X-10636878Y7800975D01*
X-10645868Y7658100D01*
X-10314771Y7658100D01*
X-10307191Y7781925D01*
X-10290155Y8012038D01*
X-10275944Y8146054D01*
X-1114102Y8146054D01*
X-1097577Y8038536D01*
X-1059088Y7937712D01*
X-1000299Y7845762D01*
X-922872Y7764867D01*
X-828471Y7697208D01*
X-718762Y7644964D01*
X-615950Y7614579D01*
X-540173Y7603633D01*
X-451164Y7599793D01*
X-358507Y7602766D01*
X-271787Y7612258D01*
X-203200Y7627179D01*
X-80608Y7674683D01*
X22397Y7737220D01*
X105156Y7814338D01*
X142673Y7864121D01*
X187829Y7944722D01*
X215167Y8025315D01*
X227350Y8115147D01*
X228600Y8162413D01*
X217472Y8286019D01*
X183963Y8397649D01*
X127879Y8497679D01*
X49031Y8586485D01*
X-13360Y8637526D01*
X-87032Y8691175D01*
X-17665Y8768363D01*
X61547Y8872649D01*
X118170Y8983130D01*
X151453Y9097534D01*
X160645Y9213590D01*
X153680Y9286826D01*
X122859Y9404480D01*
X72307Y9506669D01*
X3159Y9592409D01*
X-83450Y9660719D01*
X-186384Y9710615D01*
X-304508Y9741115D01*
X-381000Y9749623D01*
X-507241Y9746748D01*
X-624095Y9723078D01*
X-729502Y9680223D01*
X-821403Y9619799D01*
X-897737Y9543418D01*
X-956445Y9452692D01*
X-995467Y9349236D01*
X-1011333Y9256008D01*
X-1009637Y9137990D01*
X-983820Y9027411D01*
X-933702Y8923797D01*
X-859099Y8826669D01*
X-840409Y8807157D01*
X-768951Y8735127D01*
X-806751Y8708824D01*
X-832849Y8687888D01*
X-870065Y8654584D01*
X-911884Y8614821D01*
X-928272Y8598600D01*
X-1009494Y8501544D01*
X-1067329Y8395907D01*
X-1103015Y8279327D01*
X-1106997Y8258086D01*
X-1114102Y8146054D01*
X-10275944Y8146054D01*
X-10268102Y8219999D01*
X-10240141Y8408720D01*
X-10205383Y8581111D01*
X-10162937Y8740084D01*
X-10111912Y8888550D01*
X-10051419Y9029421D01*
X-9980567Y9165606D01*
X-9898465Y9300017D01*
X-9804224Y9435565D01*
X-9799468Y9442030D01*
X-9715500Y9555910D01*
X-9715500Y9753600D01*
X-11049000Y9753600D01*
X-18503900Y9753600D01*
X-18503900Y14452600D01*
X-17830925Y14452600D01*
X-17827688Y13204825D01*
X-17824450Y11957050D01*
X-17545050Y11957050D01*
X-17538576Y14452600D01*
X-16827500Y14452600D01*
X-16827500Y11950700D01*
X-16548100Y11950700D01*
X-16548100Y14452600D01*
X-15824200Y14452600D01*
X-15824200Y11950700D01*
X-15544800Y11950700D01*
X-15544800Y14452600D01*
X-14833725Y14452600D01*
X-14830488Y13204825D01*
X-14827250Y11957050D01*
X-14690788Y11953446D01*
X-14554325Y11949842D01*
X-14551088Y13198046D01*
X-14547850Y14446250D01*
X-14201775Y14449630D01*
X-13855701Y14453009D01*
X-13855700Y12300155D01*
X-13855700Y12300155D01*
G37*
X-13855700Y12300155D02*
X-13855700Y10147300D01*
X-13525500Y10147300D01*
X-13525500Y14452600D01*
X-12839825Y14452600D01*
X-12836588Y13204825D01*
X-12833350Y11957050D01*
X-12553950Y11957050D01*
X-12547476Y14452600D01*
X-11836400Y14452600D01*
X-11836400Y11950700D01*
X-11557000Y11950700D01*
X-11557000Y14452600D01*
X-10833100Y14452600D01*
X-10833100Y11950700D01*
X-10553700Y11950700D01*
X-10553700Y14452600D01*
X-9842625Y14452600D01*
X-9839388Y13204825D01*
X-9836150Y11957050D01*
X-9699625Y11953446D01*
X-9563101Y11949841D01*
X-9563100Y13201221D01*
X-9563100Y14452600D01*
X-8877300Y14452600D01*
X-8877300Y8458200D01*
X-8521700Y8458200D01*
X-8521700Y14452600D01*
X-7848725Y14452600D01*
X-7845488Y13204825D01*
X-7842250Y11957050D01*
X-7562850Y11957050D01*
X-7556376Y14452600D01*
X-6845300Y14452600D01*
X-6845300Y11950700D01*
X-6565900Y11950700D01*
X-6565900Y14452600D01*
X-5842000Y14452600D01*
X-5842000Y11950700D01*
X-5562600Y11950700D01*
X-5562600Y14452600D01*
X-4851525Y14452600D01*
X-4848288Y13204825D01*
X-4845050Y11957050D01*
X-4708525Y11953446D01*
X-4572001Y11949841D01*
X-4572000Y13201221D01*
X-4572000Y14452600D01*
X-3873500Y14452600D01*
X-3873500Y10147300D01*
X-3543300Y10147300D01*
X-3543300Y14452600D01*
X-2857625Y14452600D01*
X-2854388Y13204825D01*
X-2851150Y11957050D01*
X-2571750Y11957050D01*
X-2565276Y14452600D01*
X-1854200Y14452600D01*
X-1854200Y11950700D01*
X-1574800Y11950700D01*
X-1574800Y14452600D01*
X-850900Y14452600D01*
X-850900Y13201221D01*
X-850901Y11949841D01*
X-714375Y11953446D01*
X-577850Y11957050D01*
X-571376Y14452600D01*
X139575Y14452600D01*
X142812Y13204825D01*
X146050Y11957050D01*
X282575Y11953446D01*
X419099Y11949841D01*
X419100Y13201221D01*
X419100Y14452600D01*
X1104900Y14452600D01*
X1104900Y8470900D01*
X1460500Y8470900D01*
X1460500Y9033966D01*
X8842706Y9033966D01*
X8844040Y9004300D01*
X8858596Y8874859D01*
X8885938Y8764594D01*
X8927420Y8670000D01*
X8984394Y8587571D01*
X9019853Y8549088D01*
X9102881Y8480209D01*
X9193613Y8432499D01*
X9295315Y8404808D01*
X9411254Y8395986D01*
X9451999Y8396965D01*
X9547017Y8407268D01*
X9630998Y8430897D01*
X9712004Y8470884D01*
X9789964Y8524070D01*
X9858889Y8576109D01*
X9850053Y8494930D01*
X9826487Y8345916D01*
X9790566Y8215646D01*
X9742826Y8104952D01*
X9683806Y8014669D01*
X9614042Y7945629D01*
X9534072Y7898666D01*
X9450596Y7875470D01*
X9349964Y7872992D01*
X9252798Y7895028D01*
X9161806Y7940703D01*
X9100924Y7988389D01*
X9047674Y8037474D01*
X8957231Y7933512D01*
X8866789Y7829550D01*
X8906969Y7787472D01*
X8998573Y7709427D01*
X9104504Y7650162D01*
X9221078Y7610545D01*
X9344610Y7591446D01*
X9471418Y7593735D01*
X9597817Y7618279D01*
X9609454Y7621733D01*
X9716270Y7667453D01*
X9815201Y7735886D01*
X9904516Y7825105D01*
X9958115Y7899400D01*
X17729200Y7899400D01*
X17729200Y7620000D01*
X18897600Y7620000D01*
X18897600Y7898756D01*
X18497550Y7905750D01*
X18494973Y8621284D01*
X19152367Y8621284D01*
X19155209Y8512544D01*
X19161023Y8414529D01*
X19169813Y8334325D01*
X19170286Y8331200D01*
X19204572Y8161800D01*
X19252048Y8014097D01*
X19312731Y7888073D01*
X19386636Y7783710D01*
X19473778Y7700990D01*
X19574172Y7639895D01*
X19687833Y7600406D01*
X19799300Y7583481D01*
X19821189Y7584648D01*
X19859426Y7589066D01*
X19900900Y7595047D01*
X20014757Y7625080D01*
X20116777Y7677483D01*
X20206812Y7752072D01*
X20284711Y7848663D01*
X20333611Y7936914D01*
X27686000Y7936914D01*
X27686000Y7658100D01*
X28867100Y7658100D01*
X28867100Y7937500D01*
X29222700Y7937500D01*
X29222700Y7657847D01*
X29810075Y7661149D01*
X30397450Y7664450D01*
X30401054Y7800975D01*
X30403652Y7899400D01*
X37617400Y7899400D01*
X37617400Y7619747D01*
X38204775Y7623049D01*
X38792150Y7626350D01*
X38795754Y7762875D01*
X38799359Y7899400D01*
X38392100Y7899400D01*
X38392100Y9425126D01*
X38995350Y9425126D01*
X39093271Y9326444D01*
X39191193Y9227762D01*
X39277531Y9311114D01*
X39358736Y9381363D01*
X39435844Y9430023D01*
X39513337Y9459410D01*
X39587376Y9471314D01*
X39685143Y9468236D01*
X39768585Y9444493D01*
X39836859Y9400948D01*
X39889119Y9338462D01*
X39924520Y9257898D01*
X39942218Y9160120D01*
X39944175Y9106956D01*
X39934831Y9000324D01*
X39907020Y8891285D01*
X39859677Y8777019D01*
X39791739Y8654706D01*
X39748200Y8587404D01*
X39682636Y8497741D01*
X39599728Y8396514D01*
X39502649Y8287135D01*
X39394573Y8173012D01*
X39278670Y8057558D01*
X39158116Y7944181D01*
X39106475Y7897661D01*
X39027100Y7827118D01*
X39027100Y7620000D01*
X40360600Y7620000D01*
X40360600Y7899400D01*
X47561500Y7899400D01*
X47561500Y7620000D01*
X48742600Y7620000D01*
X48742600Y7893050D01*
X48920269Y7893050D01*
X48993359Y7825185D01*
X49109433Y7734303D01*
X49237677Y7664665D01*
X49375324Y7616968D01*
X49519611Y7591910D01*
X49667772Y7590188D01*
X49817042Y7612502D01*
X49826870Y7614838D01*
X49877442Y7630619D01*
X49936560Y7654090D01*
X49988091Y7678499D01*
X50084605Y7741961D01*
X50163172Y7819498D01*
X50223732Y7908106D01*
X50236652Y7937500D01*
X57480200Y7937500D01*
X57480200Y7657847D01*
X58067575Y7661149D01*
X58654950Y7664450D01*
X58658554Y7800975D01*
X58662159Y7937500D01*
X58254900Y7937500D01*
X58254900Y8426450D01*
X58814642Y8426450D01*
X58820050Y8223250D01*
X59261375Y8219911D01*
X59702700Y8216571D01*
X59702700Y7658100D01*
X60007500Y7658100D01*
X60007500Y7936914D01*
X67449700Y7936914D01*
X67449700Y7658100D01*
X68630800Y7658100D01*
X68630800Y7921289D01*
X68802879Y7921289D01*
X68859714Y7871435D01*
X68978528Y7779101D01*
X69098827Y7710321D01*
X69224450Y7663357D01*
X69359236Y7636473D01*
X69385229Y7633586D01*
X69505780Y7628536D01*
X69615632Y7639340D01*
X69697600Y7658530D01*
X69818117Y7705959D01*
X69924076Y7773332D01*
X70014167Y7858920D01*
X70087077Y7960995D01*
X70141497Y8077828D01*
X70176116Y8207690D01*
X70187835Y8304945D01*
X70186599Y8444711D01*
X70164893Y8573341D01*
X70123789Y8689271D01*
X70064357Y8790935D01*
X69987668Y8876766D01*
X69894793Y8945200D01*
X69786802Y8994669D01*
X69700461Y9017633D01*
X69639593Y9025264D01*
X69567927Y9027836D01*
X69493213Y9025721D01*
X69423200Y9019289D01*
X69365638Y9008911D01*
X69338825Y9000332D01*
X69291200Y8980197D01*
X69291200Y9012288D01*
X69292333Y9039622D01*
X69295392Y9086033D01*
X69299861Y9145316D01*
X69305226Y9211265D01*
X69310974Y9277676D01*
X69316588Y9338341D01*
X69321557Y9387057D01*
X69323956Y9407525D01*
X69330856Y9461500D01*
X70091300Y9461500D01*
X70091300Y9753600D01*
X69037200Y9753600D01*
X69037175Y9712325D01*
X69036322Y9689151D01*
X69033944Y9644455D01*
X69030291Y9582049D01*
X69025612Y9505751D01*
X69020157Y9419375D01*
X69014175Y9326735D01*
X69007917Y9231648D01*
X69001632Y9137926D01*
X68995569Y9049386D01*
X68989980Y8969843D01*
X68985112Y8903111D01*
X68981217Y8853006D01*
X68979931Y8837839D01*
X68972519Y8753928D01*
X69061559Y8700129D01*
X69150600Y8646330D01*
X69188512Y8673326D01*
X69277607Y8724671D01*
X69371201Y8756982D01*
X69465588Y8770556D01*
X69557063Y8765692D01*
X69641920Y8742686D01*
X69716454Y8701837D01*
X69776961Y8643442D01*
X69790216Y8625003D01*
X69831647Y8541072D01*
X69855791Y8444869D01*
X69862716Y8342664D01*
X69852492Y8240729D01*
X69825189Y8145336D01*
X69784063Y8067310D01*
X69728540Y8001627D01*
X69663978Y7955103D01*
X69587101Y7926363D01*
X69494634Y7914031D01*
X69419632Y7914390D01*
X69358776Y7918604D01*
X69312526Y7926179D01*
X69270097Y7939811D01*
X69220704Y7962191D01*
X69212961Y7966007D01*
X69155295Y7998689D01*
X69094758Y8039432D01*
X69045919Y8078184D01*
X69010047Y8107850D01*
X68980948Y8127508D01*
X68963781Y8133794D01*
X68961982Y8132910D01*
X68950428Y8118370D01*
X68927596Y8088453D01*
X68897316Y8048199D01*
X68877378Y8021470D01*
X68802879Y7921289D01*
X68630800Y7921289D01*
X68630800Y7937500D01*
X68224400Y7937500D01*
X68224400Y9753600D01*
X68111856Y9753600D01*
X68051923Y9752411D01*
X68007165Y9747524D01*
X67967418Y9736964D01*
X67922515Y9718752D01*
X67914789Y9715276D01*
X67855352Y9691341D01*
X67779865Y9665331D01*
X67697209Y9640032D01*
X67616265Y9618227D01*
X67573525Y9608262D01*
X67556574Y9603695D01*
X67546248Y9595385D01*
X67540905Y9577930D01*
X67538902Y9545930D01*
X67538600Y9493985D01*
X67538600Y9385998D01*
X67900550Y9378950D01*
X67900550Y7943850D01*
X67449700Y7936914D01*
X60007500Y7936914D01*
X60007500Y8216900D01*
X60274200Y8216900D01*
X60274200Y8496300D01*
X60007500Y8496300D01*
X60007500Y9754338D01*
X59672930Y9747250D01*
X58814642Y8426450D01*
X58254900Y8426450D01*
X58254900Y9753600D01*
X58135568Y9753600D01*
X58076494Y9752808D01*
X58033369Y9749115D01*
X57996756Y9740547D01*
X57957222Y9725131D01*
X57922278Y9708980D01*
X57863115Y9684266D01*
X57792686Y9659761D01*
X57724723Y9640176D01*
X57714585Y9637718D01*
X57662616Y9625459D01*
X57619282Y9615080D01*
X57591109Y9608151D01*
X57584975Y9606537D01*
X57576275Y9593898D01*
X57571094Y9560602D01*
X57569134Y9504523D01*
X57569100Y9493649D01*
X57569100Y9385300D01*
X57924700Y9385300D01*
X57924700Y7937500D01*
X57480200Y7937500D01*
X50236652Y7937500D01*
X50266227Y8004781D01*
X50290596Y8106519D01*
X50296779Y8210314D01*
X50284719Y8313163D01*
X50254355Y8412060D01*
X50205629Y8504001D01*
X50138479Y8585983D01*
X50052849Y8655000D01*
X50007906Y8681217D01*
X49963965Y8706276D01*
X49939961Y8724753D01*
X49937192Y8735425D01*
X49947959Y8737600D01*
X49967801Y8746178D01*
X49999486Y8768796D01*
X50037679Y8800787D01*
X50077046Y8837479D01*
X50112252Y8874205D01*
X50133480Y8899989D01*
X50184830Y8989823D01*
X50216196Y9089938D01*
X50227918Y9195630D01*
X50220333Y9302199D01*
X50193780Y9404943D01*
X50148596Y9499160D01*
X50085120Y9580147D01*
X50084521Y9580747D01*
X49998303Y9649597D01*
X49896894Y9701144D01*
X49784085Y9734963D01*
X49663669Y9750630D01*
X49539436Y9747717D01*
X49415178Y9725800D01*
X49294688Y9684452D01*
X49268358Y9672367D01*
X49217356Y9644969D01*
X49160542Y9610039D01*
X49104337Y9572002D01*
X49055163Y9535285D01*
X49019440Y9504312D01*
X49010405Y9494582D01*
X49006568Y9485520D01*
X49009298Y9472282D01*
X49020432Y9452264D01*
X49041809Y9422866D01*
X49075266Y9381483D01*
X49122641Y9325515D01*
X49162339Y9279421D01*
X49175687Y9281883D01*
X49203160Y9297750D01*
X49239596Y9323893D01*
X49252339Y9333947D01*
X49353851Y9404420D01*
X49454086Y9451683D01*
X49551701Y9475501D01*
X49645355Y9475641D01*
X49733704Y9451868D01*
X49783013Y9426398D01*
X49839915Y9379023D01*
X49877082Y9318467D01*
X49895629Y9242462D01*
X49898300Y9192395D01*
X49890058Y9102286D01*
X49864069Y9028847D01*
X49818436Y8968904D01*
X49751261Y8919278D01*
X49727489Y8906367D01*
X49668335Y8882931D01*
X49592945Y8862846D01*
X49510438Y8848005D01*
X49429935Y8840297D01*
X49405730Y8839644D01*
X49338611Y8839200D01*
X49342230Y8709025D01*
X49345850Y8578850D01*
X49485550Y8570331D01*
X49616868Y8555641D01*
X49726624Y8528672D01*
X49815707Y8489027D01*
X49885003Y8436310D01*
X49935401Y8370122D01*
X49936195Y8368707D01*
X49953145Y8333641D01*
X49962799Y8298349D01*
X49966992Y8253603D01*
X49967660Y8210550D01*
X49966318Y8154587D01*
X49960955Y8114057D01*
X49949405Y8079062D01*
X49930802Y8042056D01*
X49879700Y7972218D01*
X49813016Y7921078D01*
X49729820Y7888179D01*
X49629184Y7873067D01*
X49584281Y7871898D01*
X49470411Y7882519D01*
X49364381Y7914350D01*
X49262976Y7968746D01*
X49162982Y8047056D01*
X49158704Y8050945D01*
X49088250Y8115336D01*
X49004259Y8004193D01*
X48920269Y7893050D01*
X48742600Y7893050D01*
X48742600Y7899400D01*
X48336200Y7899400D01*
X48336200Y9715500D01*
X48223688Y9715500D01*
X48165264Y9714475D01*
X48121708Y9709904D01*
X48082526Y9699551D01*
X48037218Y9681175D01*
X48014703Y9670927D01*
X47956637Y9647179D01*
X47886098Y9622792D01*
X47815546Y9601966D01*
X47793839Y9596460D01*
X47669450Y9566567D01*
X47665785Y9457245D01*
X47662121Y9347924D01*
X47837235Y9344387D01*
X48012350Y9340850D01*
X48015629Y8620125D01*
X48018909Y7899400D01*
X47561500Y7899400D01*
X40360600Y7899400D01*
X40360600Y7914472D01*
X39537742Y7905750D01*
X39679296Y8051800D01*
X39826972Y8211820D01*
X39951706Y8363857D01*
X40054196Y8509211D01*
X40135143Y8649183D01*
X40195248Y8785071D01*
X40235210Y8918175D01*
X40255729Y9049796D01*
X40259000Y9127964D01*
X40248624Y9262435D01*
X40217726Y9382470D01*
X40166651Y9487548D01*
X40095743Y9577144D01*
X40005347Y9650735D01*
X39895808Y9707799D01*
X39870624Y9717553D01*
X39830545Y9730349D01*
X39789154Y9738674D01*
X39739354Y9743404D01*
X39674046Y9745417D01*
X39643050Y9745654D01*
X39572976Y9745183D01*
X39520660Y9742527D01*
X39478489Y9736684D01*
X39438847Y9726651D01*
X39400454Y9713722D01*
X39304381Y9671411D01*
X39211224Y9613666D01*
X39115671Y9537023D01*
X39081488Y9505853D01*
X38995350Y9425126D01*
X38392100Y9425126D01*
X38392100Y9715500D01*
X38271087Y9715500D01*
X38211382Y9714706D01*
X38168557Y9711221D01*
X38134114Y9703394D01*
X38099556Y9689574D01*
X38074330Y9677264D01*
X38020387Y9653786D01*
X37949346Y9628220D01*
X37869087Y9603097D01*
X37787487Y9580952D01*
X37741225Y9570162D01*
X37724296Y9565605D01*
X37713973Y9557317D01*
X37708622Y9539907D01*
X37706608Y9507985D01*
X37706300Y9456159D01*
X37706300Y9347200D01*
X38061900Y9347200D01*
X38061900Y7899400D01*
X37617400Y7899400D01*
X30403652Y7899400D01*
X30404659Y7937500D01*
X29997400Y7937500D01*
X29997400Y9753600D01*
X29878068Y9753600D01*
X29818834Y9752790D01*
X29775532Y9749053D01*
X29738710Y9740435D01*
X29698919Y9724978D01*
X29665343Y9709563D01*
X29606665Y9685164D01*
X29536576Y9660762D01*
X29468632Y9641008D01*
X29457650Y9638299D01*
X29405578Y9625817D01*
X29362127Y9615258D01*
X29333790Y9608206D01*
X29327475Y9606535D01*
X29318775Y9593898D01*
X29313595Y9560605D01*
X29311634Y9504530D01*
X29311600Y9493649D01*
X29311600Y9385300D01*
X29667200Y9385300D01*
X29667200Y7937500D01*
X29222700Y7937500D01*
X28867100Y7937500D01*
X28460700Y7937500D01*
X28460700Y9753600D01*
X28347825Y9753600D01*
X28288110Y9752451D01*
X28243899Y9747730D01*
X28205353Y9737529D01*
X28162630Y9719939D01*
X28154150Y9716033D01*
X28098747Y9693373D01*
X28026687Y9668335D01*
X27946227Y9643502D01*
X27865621Y9621457D01*
X27809825Y9608262D01*
X27792874Y9603695D01*
X27782548Y9595385D01*
X27777205Y9577930D01*
X27775202Y9545930D01*
X27774900Y9493985D01*
X27774900Y9385998D01*
X28136850Y9378950D01*
X28136850Y7943850D01*
X27686000Y7936914D01*
X20333611Y7936914D01*
X20350324Y7967075D01*
X20403502Y8107125D01*
X20441406Y8255363D01*
X20452193Y8324943D01*
X20460534Y8413718D01*
X20466327Y8515593D01*
X20469466Y8624472D01*
X20469850Y8734258D01*
X20467373Y8838856D01*
X20461932Y8932171D01*
X20454138Y9003370D01*
X20421409Y9170350D01*
X20375568Y9317204D01*
X20316964Y9443524D01*
X20245948Y9548901D01*
X20162868Y9632925D01*
X20068076Y9695189D01*
X19961920Y9735282D01*
X19844752Y9752796D01*
X19812000Y9753600D01*
X19692255Y9742018D01*
X19582996Y9707657D01*
X19484730Y9651097D01*
X19397966Y9572919D01*
X19323212Y9473703D01*
X19260976Y9354028D01*
X19211766Y9214476D01*
X19176092Y9055626D01*
X19170645Y9021714D01*
X19161636Y8940963D01*
X19155584Y8842582D01*
X19152493Y8733659D01*
X19152367Y8621284D01*
X18494973Y8621284D01*
X18491030Y9715500D01*
X18378603Y9715500D01*
X18320139Y9714466D01*
X18276556Y9709878D01*
X18237369Y9699508D01*
X18192094Y9681127D01*
X18170415Y9671256D01*
X18109962Y9646455D01*
X18038674Y9621782D01*
X17970679Y9602073D01*
X17962251Y9599991D01*
X17910612Y9587503D01*
X17867602Y9576961D01*
X17839784Y9569982D01*
X17833975Y9568435D01*
X17825275Y9555798D01*
X17820095Y9522505D01*
X17818134Y9466430D01*
X17818100Y9455549D01*
X17818100Y9347200D01*
X18173700Y9347200D01*
X18173700Y7899400D01*
X17729200Y7899400D01*
X9958115Y7899400D01*
X9982485Y7933179D01*
X10047376Y8058180D01*
X10082013Y8148458D01*
X10120862Y8291963D01*
X10147829Y8451293D01*
X10162647Y8619687D01*
X10165051Y8790383D01*
X10154776Y8956618D01*
X10131557Y9111632D01*
X10121605Y9156700D01*
X10078046Y9294493D01*
X10017903Y9417397D01*
X9942705Y9523732D01*
X9853979Y9611819D01*
X9753255Y9679980D01*
X9642060Y9726534D01*
X9591049Y9739566D01*
X9469208Y9753195D01*
X9353098Y9743475D01*
X9244488Y9712146D01*
X9145146Y9660949D01*
X9056838Y9591623D01*
X8981334Y9505909D01*
X8920401Y9405546D01*
X8875807Y9292274D01*
X8849319Y9167834D01*
X8842706Y9033966D01*
X1460500Y9033966D01*
X1460500Y14452600D01*
X2133475Y14452600D01*
X2136712Y13204825D01*
X2139950Y11957050D01*
X2419350Y11957050D01*
X2425824Y14452600D01*
X3136900Y14452600D01*
X3136900Y11950700D01*
X3416300Y11950700D01*
X3416300Y14452600D01*
X4140200Y14452600D01*
X4140200Y11949841D01*
X4276725Y11953446D01*
X4413250Y11957050D01*
X4419724Y14452600D01*
X5130800Y14452600D01*
X5130800Y11950700D01*
X5410200Y11950700D01*
X5410200Y14452600D01*
X6095926Y14452600D01*
X6102350Y10153650D01*
X6432550Y10153650D01*
X6435761Y12303125D01*
X6438973Y14452600D01*
X7124575Y14452600D01*
X7127812Y13204825D01*
X7131050Y11957050D01*
X7410450Y11957050D01*
X7416924Y14452600D01*
X8128000Y14452600D01*
X8128000Y11950700D01*
X8407400Y11950700D01*
X8407400Y14452600D01*
X9131300Y14452600D01*
X9131300Y11949841D01*
X9267825Y11953446D01*
X9404350Y11957050D01*
X9410824Y14452600D01*
X10121900Y14452600D01*
X10121900Y11950700D01*
X10401300Y11950700D01*
X10401300Y14452600D01*
X11074346Y14452600D01*
X11080750Y8464550D01*
X11261725Y8461027D01*
X11442700Y8457503D01*
X11442700Y14452600D01*
X12115675Y14452600D01*
X12118912Y13204825D01*
X12122150Y11957050D01*
X12401550Y11957050D01*
X12408024Y14452600D01*
X13119100Y14452600D01*
X13119100Y11950700D01*
X13398500Y11950700D01*
X13398500Y14452600D01*
X14109575Y14452600D01*
X14112812Y13204825D01*
X14116050Y11957050D01*
X14395450Y11957050D01*
X14401924Y14452600D01*
X15113000Y14452600D01*
X15113000Y11950700D01*
X15392400Y11950700D01*
X15392400Y14452600D01*
X16078200Y14452600D01*
X16078200Y10147300D01*
X16408400Y10147300D01*
X16408400Y14452600D01*
X17106775Y14452600D01*
X17110012Y13204825D01*
X17113250Y11957050D01*
X17249775Y11953446D01*
X17386300Y11949841D01*
X17386300Y14452600D01*
X18110200Y14452600D01*
X18110200Y11950700D01*
X18389600Y11950700D01*
X18389600Y14452600D01*
X19100675Y14452600D01*
X19103912Y13204825D01*
X19107150Y11957050D01*
X19386550Y11957050D01*
X19393024Y14452600D01*
X20104100Y14452600D01*
X20104100Y11950700D01*
X20383500Y11950700D01*
X20383500Y14452600D01*
X21056600Y14452600D01*
X21056600Y8458200D01*
X21424900Y8458200D01*
X21424900Y14452600D01*
X22097875Y14452600D01*
X22101112Y13204825D01*
X22104350Y11957050D01*
X22240875Y11953446D01*
X22377399Y11949841D01*
X22377400Y13201221D01*
X22377400Y14452600D01*
X23101300Y14452600D01*
X23101300Y11950700D01*
X23380700Y11950700D01*
X23380700Y14452600D01*
X24091775Y14452600D01*
X24095012Y13204825D01*
X24098250Y11957050D01*
X24377650Y11957050D01*
X24384124Y14452600D01*
X25095200Y14452600D01*
X25095200Y11950700D01*
X25374600Y11950700D01*
X25374600Y14452600D01*
X26060400Y14452600D01*
X26060400Y10147300D01*
X26390600Y10147300D01*
X26390600Y14452600D01*
X27088975Y14452600D01*
X27092212Y13204825D01*
X27095450Y11957050D01*
X27231975Y11953446D01*
X27368500Y11949841D01*
X27368500Y14452600D01*
X28092400Y14452600D01*
X28092400Y11950700D01*
X28371800Y11950700D01*
X28371800Y14452600D01*
X29082875Y14452600D01*
X29086112Y13204825D01*
X29089350Y11957050D01*
X29368750Y11957050D01*
X29375224Y14452600D01*
X30086300Y14452600D01*
X30086300Y11950700D01*
X30365700Y11950700D01*
X30365700Y14452600D01*
X31038800Y14452600D01*
X31038800Y8457503D01*
X31219775Y8461027D01*
X31400750Y8464550D01*
X31403951Y11458575D01*
X31407153Y14452600D01*
X32080200Y14452600D01*
X32080200Y11950700D01*
X32359600Y11950700D01*
X32359600Y14452600D01*
X33083500Y14452600D01*
X33083500Y11950700D01*
X33362900Y11950700D01*
X33362900Y14452600D01*
X34073975Y14452600D01*
X34077212Y13204825D01*
X34080450Y11957050D01*
X34359850Y11957050D01*
X34366324Y14452600D01*
X35077400Y14452600D01*
X35077400Y11950700D01*
X35356800Y11950700D01*
X35356800Y14452600D01*
X36029826Y14452600D01*
X36036250Y10153650D01*
X36366450Y10153650D01*
X36369661Y12303125D01*
X36372873Y14452600D01*
X37071300Y14452600D01*
X37071300Y11950700D01*
X37350700Y11950700D01*
X37350700Y14452600D01*
X38074600Y14452600D01*
X38074600Y11950700D01*
X38354000Y11950700D01*
X38354000Y14452600D01*
X39065075Y14452600D01*
X39068312Y13204825D01*
X39071550Y11957050D01*
X39350950Y11957050D01*
X39357424Y14452600D01*
X40068500Y14452600D01*
X40068500Y11950700D01*
X40347900Y11950700D01*
X40347900Y14452600D01*
X41021000Y14452600D01*
X41021000Y8458200D01*
X41376600Y8458200D01*
X41376600Y14452600D01*
X42062400Y14452600D01*
X42062400Y11950700D01*
X42341800Y11950700D01*
X42341800Y14452600D01*
X43065700Y14452600D01*
X43065700Y11950700D01*
X43345100Y11950700D01*
X43345100Y14452600D01*
X44056175Y14452600D01*
X44059412Y13204825D01*
X44062650Y11957050D01*
X44342050Y11957050D01*
X44348524Y14452600D01*
X45059600Y14452600D01*
X45059600Y11950700D01*
X45339000Y11950700D01*
X45339000Y14452600D01*
X46012100Y14452600D01*
X46012100Y10147300D01*
X46342300Y10147300D01*
X46342300Y14452600D01*
X47053500Y14452600D01*
X47053500Y11950700D01*
X47332900Y11950700D01*
X47332900Y14452600D01*
X48056800Y14452600D01*
X48056800Y11950700D01*
X48336200Y11950700D01*
X48336200Y14452600D01*
X49047275Y14452600D01*
X49050512Y13204825D01*
X49053750Y11957050D01*
X49190275Y11953446D01*
X49326800Y11949841D01*
X49326800Y14452600D01*
X50050700Y14452600D01*
X50050700Y11950700D01*
X50330100Y11950700D01*
X50330100Y14452600D01*
X51003200Y14452600D01*
X51003200Y8458200D01*
X51358800Y8458200D01*
X51358800Y14452600D01*
X52044600Y14452600D01*
X52044600Y11950700D01*
X52324000Y11950700D01*
X52324000Y14452600D01*
X53047900Y14452600D01*
X53047900Y11950700D01*
X53327300Y11950700D01*
X53327300Y14452600D01*
X54038375Y14452600D01*
X54041612Y13204825D01*
X54044850Y11957050D01*
X54181375Y11953446D01*
X54317900Y11949841D01*
X54317900Y14452600D01*
X55041800Y14452600D01*
X55041800Y11950700D01*
X55321200Y11950700D01*
X55321200Y14452600D01*
X55994300Y14452600D01*
X55994300Y10147300D01*
X56324500Y10147300D01*
X56324500Y14452600D01*
X57035700Y14452600D01*
X57035700Y11950700D01*
X57315100Y11950700D01*
X57315100Y14452600D01*
X58039000Y14452600D01*
X58039000Y11949841D01*
X58175525Y11953446D01*
X58312050Y11957050D01*
X58318524Y14452600D01*
X59029475Y14452600D01*
X59032712Y13204825D01*
X59035950Y11957050D01*
X59172475Y11953446D01*
X59309000Y11949841D01*
X59309000Y14452600D01*
X60032900Y14452600D01*
X60032900Y11950700D01*
X60312300Y11950700D01*
X60312300Y14452600D01*
X60972646Y14452600D01*
X60979050Y8464550D01*
X61160025Y8461027D01*
X61341000Y8457503D01*
X61341000Y14452600D01*
X62026800Y14452600D01*
X62026800Y11950700D01*
X62306200Y11950700D01*
X62306200Y14452600D01*
X63030100Y14452600D01*
X63030100Y11949841D01*
X63166625Y11953446D01*
X63303150Y11957050D01*
X63309624Y14452600D01*
X64020700Y14452600D01*
X64020700Y11950700D01*
X64300100Y11950700D01*
X64300100Y14452600D01*
X65024000Y14452600D01*
X65024000Y11950700D01*
X65303400Y11950700D01*
X65303400Y14452600D01*
X65963726Y14452600D01*
X65970150Y10153650D01*
X66300350Y10153650D01*
X66303561Y12303125D01*
X66306773Y14452600D01*
X67017900Y14452600D01*
X67017900Y11950700D01*
X67297300Y11950700D01*
X67297300Y14452600D01*
X68021200Y14452600D01*
X68021200Y11949841D01*
X68157725Y11953446D01*
X68294250Y11957050D01*
X68300724Y14452600D01*
X69011800Y14452600D01*
X69011800Y11950700D01*
X69291200Y11950700D01*
X69291200Y14452600D01*
X70015100Y14452600D01*
X70015100Y11950700D01*
X70294500Y11950700D01*
X70294500Y14452600D01*
X70954900Y14452600D01*
X70954900Y8458200D01*
X71323200Y8458200D01*
X71323200Y14452600D01*
X72518059Y14452600D01*
X72723860Y14452638D01*
X72906006Y14452675D01*
X73066242Y14452600D01*
X73206313Y14452303D01*
X73327964Y14451671D01*
X73432940Y14450594D01*
X73522985Y14448960D01*
X73599845Y14446657D01*
X73665264Y14443574D01*
X73720987Y14439600D01*
X73768759Y14434623D01*
X73810326Y14428533D01*
X73847431Y14421216D01*
X73881821Y14412563D01*
X73915238Y14402461D01*
X73949430Y14390800D01*
X73986140Y14377467D01*
X74027113Y14362352D01*
X74047350Y14354960D01*
X74280475Y14259332D01*
X74497544Y14146948D01*
X74701916Y14015661D01*
X74896945Y13863324D01*
X75077713Y13696070D01*
X75256562Y13501264D01*
X75414155Y13294367D01*
X75550962Y13074462D01*
X75667452Y12840637D01*
X75764096Y12591975D01*
X75841364Y12327562D01*
X75886167Y12122150D01*
X75889304Y12105241D01*
X75892184Y12088334D01*
X75894821Y12070323D01*
X75897228Y12050102D01*
X75899418Y12026564D01*
X75901403Y11998603D01*
X75903197Y11965113D01*
X75904813Y11924987D01*
X75906263Y11877118D01*
X75907560Y11820402D01*
X75908717Y11753730D01*
X75909748Y11675997D01*
X75910664Y11586096D01*
X75911480Y11482921D01*
X75912208Y11365366D01*
X75912860Y11232324D01*
X75913450Y11082689D01*
X75913991Y10915354D01*
X75914496Y10729212D01*
X75914977Y10523159D01*
X75915447Y10296087D01*
X75915920Y10046889D01*
X75916408Y9774460D01*
X75916903Y9490075D01*
X75921212Y6997700D01*
X-3600543Y6997700D01*
X-5364482Y6997701D01*
X-7103190Y6997703D01*
X-8816839Y6997707D01*
X-10505599Y6997712D01*
X-12169640Y6997718D01*
X-13809131Y6997726D01*
X-15424244Y6997736D01*
X-17015149Y6997747D01*
X-18582015Y6997760D01*
X-20125013Y6997774D01*
X-21644314Y6997790D01*
X-23140086Y6997808D01*
X-24612502Y6997828D01*
X-26061730Y6997850D01*
X-27487941Y6997873D01*
X-28891305Y6997899D01*
X-30271993Y6997926D01*
X-31630174Y6997955D01*
X-32966019Y6997986D01*
X-34279699Y6998020D01*
X-35571382Y6998055D01*
X-36841241Y6998092D01*
X-38089444Y6998132D01*
X-39316161Y6998174D01*
X-40521565Y6998218D01*
X-41705823Y6998264D01*
X-42869107Y6998313D01*
X-44011587Y6998364D01*
X-45133433Y6998417D01*
X-46234815Y6998473D01*
X-47315903Y6998531D01*
X-48376869Y6998592D01*
X-49417881Y6998655D01*
X-50439110Y6998720D01*
X-51440726Y6998789D01*
X-52422901Y6998860D01*
X-53385802Y6998933D01*
X-54329602Y6999009D01*
X-55254470Y6999088D01*
X-56160576Y6999170D01*
X-57048091Y6999255D01*
X-57917185Y6999342D01*
X-58768028Y6999432D01*
X-59600790Y6999526D01*
X-60415642Y6999622D01*
X-61212753Y6999721D01*
X-61992294Y6999823D01*
X-62754435Y6999928D01*
X-63499347Y7000037D01*
X-64227199Y7000148D01*
X-64938162Y7000263D01*
X-65632406Y7000380D01*
X-66310101Y7000501D01*
X-66971418Y7000626D01*
X-67616526Y7000753D01*
X-68245596Y7000884D01*
X-68858798Y7001019D01*
X-69456302Y7001156D01*
X-70038279Y7001298D01*
X-70604898Y7001442D01*
X-71156331Y7001591D01*
X-71692746Y7001742D01*
X-72214315Y7001898D01*
X-72721207Y7002057D01*
X-73213593Y7002219D01*
X-73691644Y7002386D01*
X-74155528Y7002556D01*
X-74605417Y7002730D01*
X-75041480Y7002908D01*
X-75463889Y7003089D01*
X-75872812Y7003275D01*
X-76268421Y7003464D01*
X-76650885Y7003658D01*
X-77020375Y7003855D01*
X-77377060Y7004057D01*
X-77721112Y7004262D01*
X-78052701Y7004472D01*
X-78371995Y7004686D01*
X-78679167Y7004904D01*
X-78974386Y7005126D01*
X-79257822Y7005352D01*
X-79529645Y7005583D01*
X-79790026Y7005818D01*
X-80039135Y7006057D01*
X-80277142Y7006301D01*
X-80504217Y7006549D01*
X-80720531Y7006802D01*
X-80926253Y7007059D01*
X-81121554Y7007321D01*
X-81306605Y7007587D01*
X-81481575Y7007858D01*
X-81646634Y7008134D01*
X-81801954Y7008414D01*
X-81947703Y7008699D01*
X-82084052Y7008989D01*
X-82211172Y7009284D01*
X-82329233Y7009583D01*
X-82438405Y7009887D01*
X-82538857Y7010196D01*
X-82630761Y7010511D01*
X-82714287Y7010830D01*
X-82789604Y7011154D01*
X-82856883Y7011483D01*
X-82916294Y7011817D01*
X-82968008Y7012157D01*
X-83012194Y7012501D01*
X-83049024Y7012851D01*
X-83078666Y7013206D01*
X-83101291Y7013566D01*
X-83117070Y7013932D01*
X-83126173Y7014302D01*
X-83128796Y7014634D01*
X-83129432Y7028865D01*
X-83130005Y7067257D01*
X-83130515Y7128571D01*
X-83130961Y7211569D01*
X-83131341Y7315012D01*
X-83131655Y7437662D01*
X-83131901Y7578278D01*
X-83132079Y7735624D01*
X-83132187Y7908460D01*
X-83132192Y7937500D01*
X-70637400Y7937500D01*
X-70637400Y7657847D01*
X-70050025Y7661149D01*
X-69462650Y7664450D01*
X-69459046Y7800975D01*
X-69455441Y7937500D01*
X-69862700Y7937500D01*
X-69862700Y9753600D01*
X-69982032Y9753600D01*
X-70041266Y9752790D01*
X-70084568Y9749053D01*
X-70121390Y9740435D01*
X-70161181Y9724978D01*
X-70194757Y9709563D01*
X-70253435Y9685164D01*
X-70323524Y9660762D01*
X-70391468Y9641008D01*
X-70402450Y9638299D01*
X-70454522Y9625817D01*
X-70497973Y9615258D01*
X-70526310Y9608206D01*
X-70532625Y9606535D01*
X-70541325Y9593898D01*
X-70546505Y9560605D01*
X-70548466Y9504530D01*
X-70548500Y9493649D01*
X-70548500Y9385300D01*
X-70192900Y9385300D01*
X-70192900Y7937500D01*
X-70637400Y7937500D01*
X-83132192Y7937500D01*
X-83132224Y8095547D01*
X-83132190Y8295647D01*
X-83132083Y8507520D01*
X-83131902Y8729929D01*
X-83131646Y8961634D01*
X-83131314Y9201397D01*
X-83130906Y9447978D01*
X-83130868Y9468909D01*
X-83126442Y11906250D01*
X-83097962Y12071350D01*
X-83055702Y12283935D01*
X-83004684Y12478920D01*
X-82942787Y12663226D01*
X-82867887Y12843772D01*
X-82847846Y12887089D01*
X-82722673Y13123675D01*
X-82577756Y13345430D01*
X-82414353Y13551299D01*
X-82233719Y13740224D01*
X-82037111Y13911150D01*
X-81825785Y14063021D01*
X-81600997Y14194781D01*
X-81364004Y14305374D01*
X-81116063Y14393744D01*
X-81024285Y14419934D01*
X-80901920Y14452600D01*
X-78740000Y14452600D01*
X-78740000Y8826500D01*
X-78371700Y8826500D01*
X-78371700Y14452600D01*
X-77711300Y14452600D01*
X-77711300Y11950700D01*
X-77431900Y11950700D01*
X-77431900Y14452600D01*
X-76720825Y14452600D01*
X-76717588Y13204825D01*
X-76714350Y11957050D01*
X-76434950Y11957050D01*
X-76428476Y14452600D01*
X-75717400Y14452600D01*
X-75717400Y11950700D01*
X-75438000Y11950700D01*
X-75438000Y14452600D01*
X-74714100Y14452600D01*
X-74714100Y11950700D01*
X-74434700Y11950700D01*
X-74434700Y14452600D01*
X-73723574Y14452600D01*
X-73717150Y10153650D01*
X-73386950Y10153650D01*
X-73383739Y12303125D01*
X-73380527Y14452600D01*
X-72720200Y14452600D01*
X-72720200Y11950700D01*
X-72440800Y11950700D01*
X-72440800Y14452600D01*
X-71729725Y14452600D01*
X-71726488Y13204825D01*
X-71723250Y11957050D01*
X-71443850Y11957050D01*
X-71437376Y14452600D01*
X-70726300Y14452600D01*
X-70726300Y11950700D01*
X-70446900Y11950700D01*
X-70446900Y14452600D01*
X-69723000Y14452600D01*
X-69723000Y11950700D01*
X-69443600Y11950700D01*
X-69443600Y14452600D01*
X-68757800Y14452600D01*
X-68757800Y8458200D01*
X-68402200Y8458200D01*
X-68402200Y9416903D01*
X-60782384Y9416903D01*
X-60773913Y9400396D01*
X-60753447Y9376334D01*
X-60718424Y9340495D01*
X-60699089Y9321243D01*
X-60605190Y9227971D01*
X-60516860Y9313247D01*
X-60443031Y9378345D01*
X-60374838Y9423575D01*
X-60306258Y9451634D01*
X-60231271Y9465222D01*
X-60172600Y9467572D01*
X-60082246Y9460811D01*
X-60010400Y9439541D01*
X-59953317Y9401497D01*
X-59907251Y9344417D01*
X-59878639Y9289892D01*
X-59863564Y9250378D01*
X-59854820Y9209101D01*
X-59851014Y9157257D01*
X-59850534Y9112250D01*
X-59859857Y9002481D01*
X-59887705Y8890638D01*
X-59935030Y8774488D01*
X-60002789Y8651798D01*
X-60091936Y8520334D01*
X-60119307Y8483689D01*
X-60153513Y8441902D01*
X-60202585Y8386305D01*
X-60262961Y8320570D01*
X-60331082Y8248371D01*
X-60403388Y8173381D01*
X-60476319Y8099272D01*
X-60546314Y8029718D01*
X-60609813Y7968392D01*
X-60663256Y7918966D01*
X-60685640Y7899400D01*
X-60767899Y7829550D01*
X-60768700Y7724775D01*
X-60769500Y7620000D01*
X-59436000Y7620000D01*
X-59436000Y7896252D01*
X-50856410Y7896252D01*
X-50774230Y7818451D01*
X-50664397Y7731581D01*
X-50540932Y7664559D01*
X-50406987Y7618168D01*
X-50265714Y7593193D01*
X-50120267Y7590417D01*
X-49973799Y7610624D01*
X-49955450Y7614836D01*
X-49834769Y7655510D01*
X-49728939Y7715106D01*
X-49639663Y7791826D01*
X-49568643Y7883873D01*
X-49517583Y7989448D01*
X-49488183Y8106754D01*
X-49487937Y8108449D01*
X-49482625Y8226398D01*
X-49500068Y8339357D01*
X-49534193Y8432021D01*
X-40944800Y8432021D01*
X-40944800Y8216900D01*
X-40068500Y8216900D01*
X-40068500Y7657319D01*
X-39912925Y7660885D01*
X-39757350Y7664450D01*
X-39754103Y7926566D01*
X-30962600Y7926566D01*
X-30953016Y7910468D01*
X-30927433Y7883784D01*
X-30890602Y7850575D01*
X-30847276Y7814900D01*
X-30802209Y7780821D01*
X-30760153Y7752396D01*
X-30755075Y7749279D01*
X-30634561Y7690459D01*
X-30501967Y7650828D01*
X-30362732Y7631183D01*
X-30222298Y7632322D01*
X-30095844Y7652621D01*
X-29981636Y7692975D01*
X-29876623Y7755358D01*
X-29783929Y7837133D01*
X-29706679Y7935664D01*
X-29660258Y8020050D01*
X-29627991Y8098761D01*
X-29606891Y8174104D01*
X-29595176Y8254997D01*
X-29591070Y8350357D01*
X-29591000Y8367257D01*
X-29601214Y8506492D01*
X-29631373Y8631810D01*
X-29680756Y8742183D01*
X-29748643Y8836585D01*
X-29834313Y8913988D01*
X-29937044Y8973366D01*
X-30042378Y9010254D01*
X-30123906Y9024503D01*
X-30216180Y9029460D01*
X-30308878Y9025260D01*
X-30391681Y9012040D01*
X-30416310Y9005339D01*
X-30494582Y8980978D01*
X-30487662Y9027564D01*
X-30484240Y9056654D01*
X-30479498Y9105231D01*
X-30473967Y9167447D01*
X-30468181Y9237458D01*
X-30465812Y9267642D01*
X-30450882Y9461134D01*
X-29686250Y9467850D01*
X-29682660Y9610725D01*
X-29679069Y9753600D01*
X-30731507Y9753600D01*
X-30739028Y9680575D01*
X-30743342Y9633479D01*
X-30748403Y9569693D01*
X-30754002Y9492693D01*
X-30759934Y9405949D01*
X-30765990Y9312937D01*
X-30771964Y9217127D01*
X-30777649Y9121994D01*
X-30782838Y9031010D01*
X-30787323Y8947648D01*
X-30790898Y8875381D01*
X-30793355Y8817682D01*
X-30794487Y8778024D01*
X-30794088Y8759880D01*
X-30793954Y8759377D01*
X-30780319Y8744649D01*
X-30750724Y8722245D01*
X-30711400Y8696852D01*
X-30708767Y8695276D01*
X-30630223Y8648488D01*
X-30558287Y8692666D01*
X-30463057Y8739245D01*
X-30365479Y8765110D01*
X-30269161Y8770527D01*
X-30177712Y8755764D01*
X-30094740Y8721084D01*
X-30023853Y8666756D01*
X-30010307Y8652271D01*
X-29966620Y8592413D01*
X-29937422Y8526125D01*
X-29920990Y8447797D01*
X-29915599Y8351814D01*
X-29915592Y8343900D01*
X-29916743Y8282229D01*
X-29920940Y8237033D01*
X-29929780Y8199428D01*
X-29944858Y8160529D01*
X-29950942Y8147050D01*
X-30004240Y8057465D01*
X-30072172Y7987220D01*
X-30143450Y7942457D01*
X-30185541Y7925593D01*
X-30229001Y7916215D01*
X-30283802Y7912517D01*
X-30310388Y7912225D01*
X-30397371Y7916549D01*
X-30475348Y7931225D01*
X-30549615Y7958472D01*
X-30625471Y8000507D01*
X-30708212Y8059552D01*
X-30758249Y8099809D01*
X-30808475Y8141468D01*
X-30885538Y8040234D01*
X-30918119Y7996261D01*
X-30943881Y7959257D01*
X-30959486Y7934150D01*
X-30962600Y7926566D01*
X-39754103Y7926566D01*
X-39753928Y7940675D01*
X-39750505Y8216900D01*
X-39483441Y8216900D01*
X-39487046Y8353425D01*
X-39490650Y8489950D01*
X-39620825Y8493570D01*
X-39751000Y8497189D01*
X-39751000Y9753600D01*
X-40090027Y9753600D01*
X-40517414Y9092811D01*
X-40944800Y8432021D01*
X-49534193Y8432021D01*
X-49538715Y8444300D01*
X-49597016Y8538198D01*
X-49673420Y8618024D01*
X-49766377Y8680749D01*
X-49786071Y8690621D01*
X-49851806Y8721864D01*
X-49798418Y8755567D01*
X-49710635Y8825273D01*
X-49640998Y8910175D01*
X-49590466Y9006766D01*
X-49559994Y9111541D01*
X-49550540Y9220995D01*
X-49563063Y9331622D01*
X-49598518Y9439916D01*
X-49606726Y9457498D01*
X-49662787Y9544243D01*
X-49738056Y9617505D01*
X-49829542Y9676143D01*
X-49934253Y9719019D01*
X-50049199Y9744993D01*
X-50171389Y9752923D01*
X-50297832Y9741672D01*
X-50334352Y9734768D01*
X-50455030Y9697816D01*
X-50575412Y9637811D01*
X-50697108Y9553885D01*
X-50747948Y9512197D01*
X-50763302Y9496251D01*
X-50768910Y9479661D01*
X-50763109Y9458735D01*
X-50744237Y9429779D01*
X-50710629Y9389100D01*
X-50673893Y9347719D01*
X-50600092Y9265687D01*
X-50531771Y9327432D01*
X-50448054Y9391450D01*
X-50360666Y9437436D01*
X-50272491Y9465685D01*
X-50186413Y9476496D01*
X-50105314Y9470163D01*
X-50032077Y9446983D01*
X-49969587Y9407252D01*
X-49920725Y9351268D01*
X-49888375Y9279326D01*
X-49883631Y9260810D01*
X-49874978Y9203996D01*
X-49877777Y9150499D01*
X-49883167Y9120859D01*
X-49910357Y9040553D01*
X-49955756Y8974606D01*
X-50020272Y8922439D01*
X-50104817Y8883469D01*
X-50210301Y8857118D01*
X-50317216Y8844199D01*
X-50431700Y8835556D01*
X-50431700Y8572500D01*
X-50335915Y8572500D01*
X-50247288Y8567643D01*
X-50155951Y8554230D01*
X-50070582Y8533999D01*
X-49999857Y8508689D01*
X-49987145Y8502622D01*
X-49928248Y8463956D01*
X-49876453Y8413768D01*
X-49838164Y8359084D01*
X-49823016Y8322574D01*
X-49809982Y8241131D01*
X-49812805Y8156356D01*
X-49830829Y8078732D01*
X-49839636Y8057251D01*
X-49886883Y7984171D01*
X-49951891Y7928866D01*
X-50033865Y7891764D01*
X-50132007Y7873297D01*
X-50183472Y7871178D01*
X-50301144Y7881213D01*
X-50408462Y7912267D01*
X-50508850Y7965765D01*
X-50605736Y8043133D01*
X-50612769Y8049759D01*
X-50647262Y8081547D01*
X-50674076Y8104308D01*
X-50688616Y8114202D01*
X-50689859Y8114148D01*
X-50698753Y8102512D01*
X-50719680Y8075131D01*
X-50749251Y8036444D01*
X-50775120Y8002601D01*
X-50856410Y7896252D01*
X-59436000Y7896252D01*
X-59436000Y7914253D01*
X-59840883Y7910002D01*
X-60245765Y7905750D01*
X-60129808Y8030345D01*
X-60006816Y8165980D01*
X-59902335Y8289032D01*
X-59814472Y8402049D01*
X-59741335Y8507577D01*
X-59681033Y8608164D01*
X-59638240Y8692138D01*
X-59581425Y8835336D01*
X-59546075Y8975213D01*
X-59532055Y9109912D01*
X-59539227Y9237579D01*
X-59567457Y9356357D01*
X-59616607Y9464392D01*
X-59686542Y9559828D01*
X-59703265Y9577498D01*
X-59791800Y9651933D01*
X-59890109Y9704352D01*
X-59993136Y9735309D01*
X-60128666Y9751841D01*
X-60262278Y9744318D01*
X-60390720Y9713160D01*
X-60488423Y9671051D01*
X-60539370Y9640822D01*
X-60596617Y9601395D01*
X-60654470Y9557299D01*
X-60707238Y9513065D01*
X-60749228Y9473221D01*
X-60773572Y9444145D01*
X-60781417Y9430079D01*
X-60782384Y9416903D01*
X-68402200Y9416903D01*
X-68402200Y14452600D01*
X-67729100Y14452600D01*
X-67729100Y11950700D01*
X-67449700Y11950700D01*
X-67449700Y14452600D01*
X-66738625Y14452600D01*
X-66735388Y13204825D01*
X-66732150Y11957050D01*
X-66452750Y11957050D01*
X-66446276Y14452600D01*
X-65735200Y14452600D01*
X-65735200Y11950700D01*
X-65455800Y11950700D01*
X-65455800Y14452600D01*
X-64731900Y14452600D01*
X-64731900Y11949841D01*
X-64595375Y11953446D01*
X-64458850Y11957050D01*
X-64452376Y14452600D01*
X-63741300Y14452600D01*
X-63741300Y10147300D01*
X-63411100Y10147300D01*
X-63411100Y14452600D01*
X-62738000Y14452600D01*
X-62738000Y11950700D01*
X-62458600Y11950700D01*
X-62458600Y14452600D01*
X-61747525Y14452600D01*
X-61744288Y13204825D01*
X-61741050Y11957050D01*
X-61461650Y11957050D01*
X-61455176Y14452600D01*
X-60744100Y14452600D01*
X-60744100Y11950700D01*
X-60464700Y11950700D01*
X-60464700Y14452600D01*
X-59740800Y14452600D01*
X-59740800Y11949841D01*
X-59604275Y11953446D01*
X-59467750Y11957050D01*
X-59461276Y14452600D01*
X-58775600Y14452600D01*
X-58775600Y8458200D01*
X-58420000Y8458200D01*
X-58420000Y14452600D01*
X-57746900Y14452600D01*
X-57746900Y11950700D01*
X-57467500Y11950700D01*
X-57467500Y14452600D01*
X-56756425Y14452600D01*
X-56753188Y13204825D01*
X-56749950Y11957050D01*
X-56470550Y11957050D01*
X-56464076Y14452600D01*
X-55753000Y14452600D01*
X-55753000Y11950700D01*
X-55473600Y11950700D01*
X-55473600Y14452600D01*
X-54749700Y14452600D01*
X-54749700Y11949841D01*
X-54613175Y11953446D01*
X-54476650Y11957050D01*
X-54470176Y14452600D01*
X-53759100Y14452600D01*
X-53759100Y10147300D01*
X-53428900Y10147300D01*
X-53428900Y14452600D01*
X-52755800Y14452600D01*
X-52755800Y11950700D01*
X-52476400Y11950700D01*
X-52476400Y14452600D01*
X-51765325Y14452600D01*
X-51762088Y13204825D01*
X-51758850Y11957050D01*
X-51479450Y11957050D01*
X-51472976Y14452600D01*
X-50761900Y14452600D01*
X-50761900Y11950700D01*
X-50482500Y11950700D01*
X-50482500Y14452996D01*
X-49764950Y14446250D01*
X-49758476Y11949842D01*
X-49485550Y11957050D01*
X-49479076Y14452600D01*
X-48806154Y14452600D01*
X-48799750Y8464550D01*
X-48618775Y8461027D01*
X-48437800Y8457503D01*
X-48437800Y14452600D01*
X-47764700Y14452600D01*
X-47764700Y11950700D01*
X-47485300Y11950700D01*
X-47485300Y14452600D01*
X-46774225Y14452600D01*
X-46770988Y13204825D01*
X-46767750Y11957050D01*
X-46488350Y11957050D01*
X-46481876Y14452600D01*
X-45770800Y14452600D01*
X-45770800Y11950700D01*
X-45491400Y11950700D01*
X-45491400Y14452600D01*
X-44780325Y14452600D01*
X-44777088Y13204825D01*
X-44773850Y11957050D01*
X-44494450Y11957050D01*
X-44487976Y14452600D01*
X-43789674Y14452600D01*
X-43783250Y10153650D01*
X-43459400Y10146542D01*
X-43459400Y14452600D01*
X-42773600Y14452600D01*
X-42773600Y11950700D01*
X-42494200Y11950700D01*
X-42494200Y14452600D01*
X-41783125Y14452600D01*
X-41779888Y13204825D01*
X-41776650Y11957050D01*
X-41640125Y11953446D01*
X-41503600Y11949841D01*
X-41503600Y14452600D01*
X-40779700Y14452600D01*
X-40779700Y11950700D01*
X-40500300Y11950700D01*
X-40500300Y14452600D01*
X-39789225Y14452600D01*
X-39785988Y13204825D01*
X-39782750Y11957050D01*
X-39503350Y11957050D01*
X-39496876Y14452600D01*
X-38823954Y14452600D01*
X-38817550Y8464550D01*
X-38636575Y8461027D01*
X-38455600Y8457503D01*
X-38455600Y14452600D01*
X-37782500Y14452600D01*
X-37782500Y11950700D01*
X-37503100Y11950700D01*
X-37503100Y14452600D01*
X-36792025Y14452600D01*
X-36788788Y13204825D01*
X-36785550Y11957050D01*
X-36649025Y11953446D01*
X-36512500Y11949841D01*
X-36512500Y14452600D01*
X-35788600Y14452600D01*
X-35788600Y11950700D01*
X-35509200Y11950700D01*
X-35509200Y14452600D01*
X-34798125Y14452600D01*
X-34794888Y13204825D01*
X-34791650Y11957050D01*
X-34512250Y11957050D01*
X-34505776Y14452600D01*
X-33807400Y14452600D01*
X-33807400Y10147300D01*
X-33477200Y10147300D01*
X-33477200Y14452600D01*
X-32791400Y14452600D01*
X-32791400Y11949841D01*
X-32654875Y11953446D01*
X-32518350Y11957050D01*
X-32511876Y14452600D01*
X-31800925Y14452600D01*
X-31797688Y13204825D01*
X-31794450Y11957050D01*
X-31657925Y11953446D01*
X-31521400Y11949841D01*
X-31521400Y14452600D01*
X-30797500Y14452600D01*
X-30797500Y11950700D01*
X-30518100Y11950700D01*
X-30518100Y14452600D01*
X-29807025Y14452600D01*
X-29803788Y13204825D01*
X-29800550Y11957050D01*
X-29521150Y11957050D01*
X-29514676Y14452600D01*
X-28841700Y14452600D01*
X-28841700Y8457503D01*
X-28660725Y8461027D01*
X-28479750Y8464550D01*
X-28479580Y8624349D01*
X-20990833Y8624349D01*
X-20983706Y8455879D01*
X-20962825Y8295923D01*
X-20928836Y8147834D01*
X-20882384Y8014964D01*
X-20824118Y7900665D01*
X-20804934Y7871227D01*
X-20723561Y7773560D01*
X-20629217Y7695467D01*
X-20524707Y7637936D01*
X-20412833Y7601950D01*
X-20296396Y7588495D01*
X-20178201Y7598558D01*
X-20093326Y7621006D01*
X-19985245Y7671264D01*
X-19889836Y7742390D01*
X-19808923Y7832289D01*
X-19744329Y7938861D01*
X-19697878Y8060009D01*
X-19691625Y8083044D01*
X-19681275Y8142357D01*
X-19674928Y8217999D01*
X-19672701Y8301195D01*
X-19674711Y8383173D01*
X-19681076Y8455160D01*
X-19686232Y8486150D01*
X-19717864Y8589481D01*
X-19766934Y8685982D01*
X-19830109Y8771373D01*
X-19904054Y8841376D01*
X-19985436Y8891713D01*
X-20010392Y8902187D01*
X-20135614Y8936842D01*
X-20258228Y8946246D01*
X-20377890Y8930448D01*
X-20494256Y8889496D01*
X-20606980Y8823437D01*
X-20615275Y8817474D01*
X-20675600Y8773537D01*
X-20675434Y8828594D01*
X-20670542Y8890916D01*
X-20657581Y8967523D01*
X-20638649Y9049426D01*
X-20615844Y9127633D01*
X-20591264Y9193153D01*
X-20589374Y9197379D01*
X-20533500Y9295986D01*
X-20465574Y9372479D01*
X-20385915Y9426635D01*
X-20294839Y9458230D01*
X-20205700Y9467193D01*
X-20111120Y9458415D01*
X-20029545Y9430245D01*
X-19955164Y9380354D01*
X-19928503Y9356118D01*
X-19873556Y9302750D01*
X-19816786Y9366250D01*
X-19781122Y9406902D01*
X-19747019Y9447015D01*
X-19726854Y9471677D01*
X-19693691Y9513604D01*
X-19749671Y9570902D01*
X-19801831Y9614397D01*
X-19870411Y9657803D01*
X-19946808Y9696654D01*
X-20022422Y9726483D01*
X-20077259Y9740980D01*
X-20201389Y9752861D01*
X-20326461Y9741927D01*
X-20389900Y9728188D01*
X-20513779Y9684107D01*
X-20623724Y9618904D01*
X-20719611Y9532772D01*
X-20801314Y9425909D01*
X-20868710Y9298507D01*
X-20921673Y9150764D01*
X-20960080Y8982873D01*
X-20983560Y8797983D01*
X-20990833Y8624349D01*
X-28479580Y8624349D01*
X-28476549Y11458575D01*
X-28473347Y14452600D01*
X-27800300Y14452600D01*
X-27800300Y11949841D01*
X-27663775Y11953446D01*
X-27527250Y11957050D01*
X-27520776Y14452600D01*
X-26809700Y14452600D01*
X-26809700Y11950700D01*
X-26530300Y11950700D01*
X-26530300Y14452600D01*
X-25806400Y14452600D01*
X-25806400Y11950700D01*
X-25527000Y11950700D01*
X-25527000Y14452600D01*
X-24815925Y14452600D01*
X-24812688Y13204825D01*
X-24809450Y11957050D01*
X-24530050Y11957050D01*
X-24523576Y14452600D01*
X-23837974Y14452600D01*
X-23831550Y10153650D01*
X-23501350Y10153650D01*
X-23498139Y12303125D01*
X-23494927Y14452600D01*
X-22809200Y14452600D01*
X-22809200Y11949841D01*
X-22672675Y11953446D01*
X-22536150Y11957050D01*
X-22529676Y14452600D01*
X-21818600Y14452600D01*
X-21818600Y11950700D01*
X-21539200Y11950700D01*
X-21539200Y14452600D01*
X-20815300Y14452600D01*
X-20815300Y11950700D01*
X-20535900Y11950700D01*
X-20535900Y14452600D01*
X-19824825Y14452600D01*
X-19821588Y13204825D01*
X-19818350Y11957050D01*
X-19538950Y11957050D01*
X-19532476Y14452600D01*
X-18859500Y14452600D01*
X-18859500Y8458200D01*
X-18503900Y8458200D01*
X-18503900Y9753600D01*
X-11049000Y9753600D01*
X-11049000Y9461500D01*
X-10110134Y9461500D01*
X-10186408Y9344025D01*
X-10296877Y9156697D01*
X-10391132Y8959226D01*
X-10469765Y8749583D01*
X-10533369Y8525737D01*
X-10582537Y8285655D01*
X-10617861Y8027306D01*
X-10636878Y7800975D01*
X-10645868Y7658100D01*
X-10314771Y7658100D01*
X-10307191Y7781925D01*
X-10290155Y8012038D01*
X-10275944Y8146054D01*
X-1114102Y8146054D01*
X-1097577Y8038536D01*
X-1059088Y7937712D01*
X-1000299Y7845762D01*
X-922872Y7764867D01*
X-828471Y7697208D01*
X-718762Y7644964D01*
X-615950Y7614579D01*
X-540173Y7603633D01*
X-451164Y7599793D01*
X-358507Y7602766D01*
X-271787Y7612258D01*
X-203200Y7627179D01*
X-80608Y7674683D01*
X22397Y7737220D01*
X105156Y7814338D01*
X142673Y7864121D01*
X187829Y7944722D01*
X215167Y8025315D01*
X227350Y8115147D01*
X228600Y8162413D01*
X217472Y8286019D01*
X183963Y8397649D01*
X127879Y8497679D01*
X49031Y8586485D01*
X-13360Y8637526D01*
X-87032Y8691175D01*
X-17665Y8768363D01*
X61547Y8872649D01*
X118170Y8983130D01*
X151453Y9097534D01*
X160645Y9213590D01*
X153680Y9286826D01*
X122859Y9404480D01*
X72307Y9506669D01*
X3159Y9592409D01*
X-83450Y9660719D01*
X-186384Y9710615D01*
X-304508Y9741115D01*
X-381000Y9749623D01*
X-507241Y9746748D01*
X-624095Y9723078D01*
X-729502Y9680223D01*
X-821403Y9619799D01*
X-897737Y9543418D01*
X-956445Y9452692D01*
X-995467Y9349236D01*
X-1011333Y9256008D01*
X-1009637Y9137990D01*
X-983820Y9027411D01*
X-933702Y8923797D01*
X-859099Y8826669D01*
X-840409Y8807157D01*
X-768951Y8735127D01*
X-806751Y8708824D01*
X-832849Y8687888D01*
X-870065Y8654584D01*
X-911884Y8614821D01*
X-928272Y8598600D01*
X-1009494Y8501544D01*
X-1067329Y8395907D01*
X-1103015Y8279327D01*
X-1106997Y8258086D01*
X-1114102Y8146054D01*
X-10275944Y8146054D01*
X-10268102Y8219999D01*
X-10240141Y8408720D01*
X-10205383Y8581111D01*
X-10162937Y8740084D01*
X-10111912Y8888550D01*
X-10051419Y9029421D01*
X-9980567Y9165606D01*
X-9898465Y9300017D01*
X-9804224Y9435565D01*
X-9799468Y9442030D01*
X-9715500Y9555910D01*
X-9715500Y9753600D01*
X-11049000Y9753600D01*
X-18503900Y9753600D01*
X-18503900Y14452600D01*
X-17830925Y14452600D01*
X-17827688Y13204825D01*
X-17824450Y11957050D01*
X-17545050Y11957050D01*
X-17538576Y14452600D01*
X-16827500Y14452600D01*
X-16827500Y11950700D01*
X-16548100Y11950700D01*
X-16548100Y14452600D01*
X-15824200Y14452600D01*
X-15824200Y11950700D01*
X-15544800Y11950700D01*
X-15544800Y14452600D01*
X-14833725Y14452600D01*
X-14830488Y13204825D01*
X-14827250Y11957050D01*
X-14690788Y11953446D01*
X-14554325Y11949842D01*
X-14551088Y13198046D01*
X-14547850Y14446250D01*
X-14201775Y14449630D01*
X-13855701Y14453009D01*
X-13855700Y12300155D01*
G36*
X70938462Y-8876605D02*
X71012634Y-8906014D01*
X71071382Y-8954194D01*
X71116358Y-9020962D01*
X71132501Y-9055567D01*
X71143192Y-9089507D01*
X71149877Y-9130178D01*
X71154001Y-9184975D01*
X71155625Y-9221824D01*
X71154587Y-9331929D01*
X71141298Y-9422883D01*
X71114410Y-9498476D01*
X71072580Y-9562496D01*
X71014752Y-9618499D01*
X70981806Y-9641516D01*
X70948972Y-9653961D01*
X70905249Y-9659457D01*
X70887752Y-9660316D01*
X70837052Y-9659578D01*
X70789469Y-9654399D01*
X70764530Y-9648653D01*
X70703662Y-9615574D01*
X70647687Y-9559932D01*
X70598272Y-9484358D01*
X70557082Y-9391483D01*
X70525786Y-9283939D01*
X70521802Y-9265516D01*
X70507979Y-9195959D01*
X70500561Y-9145488D01*
X70500467Y-9108390D01*
X70508621Y-9078950D01*
X70525941Y-9051454D01*
X70553349Y-9020188D01*
X70562984Y-9009950D01*
X70641354Y-8941836D01*
X70726099Y-8895039D01*
X70814136Y-8870655D01*
X70902382Y-8869777D01*
X70938462Y-8876605D01*
X70938462Y-8876605D01*
G37*
X70938462Y-8876605D02*
X71012634Y-8906014D01*
X71071382Y-8954194D01*
X71116358Y-9020962D01*
X71132501Y-9055567D01*
X71143192Y-9089507D01*
X71149877Y-9130178D01*
X71154001Y-9184975D01*
X71155625Y-9221824D01*
X71154587Y-9331929D01*
X71141298Y-9422883D01*
X71114410Y-9498476D01*
X71072580Y-9562496D01*
X71014752Y-9618499D01*
X70981806Y-9641516D01*
X70948972Y-9653961D01*
X70905249Y-9659457D01*
X70887752Y-9660316D01*
X70837052Y-9659578D01*
X70789469Y-9654399D01*
X70764530Y-9648653D01*
X70703662Y-9615574D01*
X70647687Y-9559932D01*
X70598272Y-9484358D01*
X70557082Y-9391483D01*
X70525786Y-9283939D01*
X70521802Y-9265516D01*
X70507979Y-9195959D01*
X70500561Y-9145488D01*
X70500467Y-9108390D01*
X70508621Y-9078950D01*
X70525941Y-9051454D01*
X70553349Y-9020188D01*
X70562984Y-9009950D01*
X70641354Y-8941836D01*
X70726099Y-8895039D01*
X70814136Y-8870655D01*
X70902382Y-8869777D01*
X70938462Y-8876605D01*
G36*
X20154900Y-9067800D02*
X19924941Y-9067800D01*
X19842207Y-9067532D01*
X19781788Y-9066561D01*
X19740601Y-9064637D01*
X19715565Y-9061509D01*
X19703598Y-9056926D01*
X19701618Y-9050639D01*
X19701940Y-9049668D01*
X19710605Y-9034669D01*
X19731537Y-9001510D01*
X19762835Y-8953111D01*
X19802595Y-8892391D01*
X19848916Y-8822271D01*
X19899897Y-8745670D01*
X19902554Y-8741693D01*
X19955162Y-8662697D01*
X20004527Y-8588088D01*
X20048451Y-8521224D01*
X20084738Y-8465462D01*
X20111192Y-8424160D01*
X20125401Y-8401050D01*
X20154594Y-8350250D01*
X20154900Y-9067800D01*
X20154900Y-9067800D01*
G37*
X20154900Y-9067800D02*
X19924941Y-9067800D01*
X19842207Y-9067532D01*
X19781788Y-9066561D01*
X19740601Y-9064637D01*
X19715565Y-9061509D01*
X19703598Y-9056926D01*
X19701618Y-9050639D01*
X19701940Y-9049668D01*
X19710605Y-9034669D01*
X19731537Y-9001510D01*
X19762835Y-8953111D01*
X19802595Y-8892391D01*
X19848916Y-8822271D01*
X19899897Y-8745670D01*
X19902554Y-8741693D01*
X19955162Y-8662697D01*
X20004527Y-8588088D01*
X20048451Y-8521224D01*
X20084738Y-8465462D01*
X20111192Y-8424160D01*
X20125401Y-8401050D01*
X20154594Y-8350250D01*
X20154900Y-9067800D01*
G36*
X-20195932Y8674115D02*
X-20125116Y8640450D01*
X-20064744Y8587012D01*
X-20017635Y8513964D01*
X-20013821Y8505719D01*
X-20000666Y8473149D01*
X-19991994Y8441146D01*
X-19986910Y8403147D01*
X-19984515Y8352583D01*
X-19983915Y8286750D01*
X-19984619Y8216414D01*
X-19987409Y8164606D01*
X-19993160Y8124484D01*
X-20002747Y8089203D01*
X-20012511Y8062966D01*
X-20055847Y7982578D01*
X-20112511Y7920221D01*
X-20179570Y7877648D01*
X-20254089Y7856607D01*
X-20333135Y7858851D01*
X-20348988Y7862190D01*
X-20391501Y7875107D01*
X-20430051Y7890882D01*
X-20432493Y7892116D01*
X-20471853Y7920351D01*
X-20515343Y7963730D01*
X-20556025Y8014533D01*
X-20585746Y8062630D01*
X-20610615Y8121999D01*
X-20634303Y8197274D01*
X-20654300Y8278994D01*
X-20668093Y8357700D01*
X-20671130Y8384265D01*
X-20679079Y8469079D01*
X-20608038Y8540120D01*
X-20527274Y8607771D01*
X-20442864Y8654834D01*
X-20357624Y8681469D01*
X-20274375Y8687842D01*
X-20195932Y8674115D01*
X-20195932Y8674115D01*
G37*
X-20195932Y8674115D02*
X-20125116Y8640450D01*
X-20064744Y8587012D01*
X-20017635Y8513964D01*
X-20013821Y8505719D01*
X-20000666Y8473149D01*
X-19991994Y8441146D01*
X-19986910Y8403147D01*
X-19984515Y8352583D01*
X-19983915Y8286750D01*
X-19984619Y8216414D01*
X-19987409Y8164606D01*
X-19993160Y8124484D01*
X-20002747Y8089203D01*
X-20012511Y8062966D01*
X-20055847Y7982578D01*
X-20112511Y7920221D01*
X-20179570Y7877648D01*
X-20254089Y7856607D01*
X-20333135Y7858851D01*
X-20348988Y7862190D01*
X-20391501Y7875107D01*
X-20430051Y7890882D01*
X-20432493Y7892116D01*
X-20471853Y7920351D01*
X-20515343Y7963730D01*
X-20556025Y8014533D01*
X-20585746Y8062630D01*
X-20610615Y8121999D01*
X-20634303Y8197274D01*
X-20654300Y8278994D01*
X-20668093Y8357700D01*
X-20671130Y8384265D01*
X-20679079Y8469079D01*
X-20608038Y8540120D01*
X-20527274Y8607771D01*
X-20442864Y8654834D01*
X-20357624Y8681469D01*
X-20274375Y8687842D01*
X-20195932Y8674115D01*
G36*
X9555427Y9468934D02*
X9559845Y9467640D01*
X9632088Y9433252D01*
X9696490Y9376555D01*
X9751769Y9299780D01*
X9796643Y9205158D01*
X9829830Y9094920D01*
X9850048Y8971295D01*
X9851050Y8961074D01*
X9858497Y8881318D01*
X9783685Y8804862D01*
X9702298Y8733089D01*
X9620584Y8684889D01*
X9535302Y8658603D01*
X9486900Y8652952D01*
X9414334Y8654231D01*
X9355936Y8666160D01*
X9353550Y8667018D01*
X9316016Y8687140D01*
X9274105Y8718703D01*
X9249597Y8741828D01*
X9206122Y8798783D01*
X9176302Y8865517D01*
X9158857Y8946331D01*
X9152504Y9045523D01*
X9152451Y9067800D01*
X9159187Y9171679D01*
X9179141Y9257721D01*
X9214008Y9330724D01*
X9265481Y9395487D01*
X9269656Y9399741D01*
X9332626Y9451011D01*
X9398605Y9479015D01*
X9471553Y9484681D01*
X9555427Y9468934D01*
X9555427Y9468934D01*
G37*
X9555427Y9468934D02*
X9559845Y9467640D01*
X9632088Y9433252D01*
X9696490Y9376555D01*
X9751769Y9299780D01*
X9796643Y9205158D01*
X9829830Y9094920D01*
X9850048Y8971295D01*
X9851050Y8961074D01*
X9858497Y8881318D01*
X9783685Y8804862D01*
X9702298Y8733089D01*
X9620584Y8684889D01*
X9535302Y8658603D01*
X9486900Y8652952D01*
X9414334Y8654231D01*
X9355936Y8666160D01*
X9353550Y8667018D01*
X9316016Y8687140D01*
X9274105Y8718703D01*
X9249597Y8741828D01*
X9206122Y8798783D01*
X9176302Y8865517D01*
X9158857Y8946331D01*
X9152504Y9045523D01*
X9152451Y9067800D01*
X9159187Y9171679D01*
X9179141Y9257721D01*
X9214008Y9330724D01*
X9265481Y9395487D01*
X9269656Y9399741D01*
X9332626Y9451011D01*
X9398605Y9479015D01*
X9471553Y9484681D01*
X9555427Y9468934D01*
G36*
X19892175Y9462488D02*
X19959191Y9427381D01*
X20016384Y9368924D01*
X20063736Y9287163D01*
X20101228Y9182144D01*
X20128840Y9053911D01*
X20146553Y8902511D01*
X20154347Y8727988D01*
X20154750Y8674100D01*
X20150669Y8501400D01*
X20138210Y8351467D01*
X20117046Y8222980D01*
X20086850Y8114618D01*
X20047295Y8025057D01*
X19998055Y7952977D01*
X19969014Y7922433D01*
X19908959Y7882586D01*
X19838995Y7862771D01*
X19766285Y7864214D01*
X19716145Y7879154D01*
X19663178Y7914580D01*
X19612987Y7971608D01*
X19567742Y8046448D01*
X19529610Y8135310D01*
X19500761Y8234403D01*
X19493835Y8267700D01*
X19481578Y8351708D01*
X19472339Y8453321D01*
X19466437Y8564889D01*
X19464194Y8678762D01*
X19465928Y8787290D01*
X19469380Y8851900D01*
X19485855Y9009180D01*
X19511010Y9142895D01*
X19545059Y9253428D01*
X19588214Y9341161D01*
X19640688Y9406477D01*
X19702692Y9449757D01*
X19774440Y9471384D01*
X19815357Y9474200D01*
X19892175Y9462488D01*
X19892175Y9462488D01*
G37*
X19892175Y9462488D02*
X19959191Y9427381D01*
X20016384Y9368924D01*
X20063736Y9287163D01*
X20101228Y9182144D01*
X20128840Y9053911D01*
X20146553Y8902511D01*
X20154347Y8727988D01*
X20154750Y8674100D01*
X20150669Y8501400D01*
X20138210Y8351467D01*
X20117046Y8222980D01*
X20086850Y8114618D01*
X20047295Y8025057D01*
X19998055Y7952977D01*
X19969014Y7922433D01*
X19908959Y7882586D01*
X19838995Y7862771D01*
X19766285Y7864214D01*
X19716145Y7879154D01*
X19663178Y7914580D01*
X19612987Y7971608D01*
X19567742Y8046448D01*
X19529610Y8135310D01*
X19500761Y8234403D01*
X19493835Y8267700D01*
X19481578Y8351708D01*
X19472339Y8453321D01*
X19466437Y8564889D01*
X19464194Y8678762D01*
X19465928Y8787290D01*
X19469380Y8851900D01*
X19485855Y9009180D01*
X19511010Y9142895D01*
X19545059Y9253428D01*
X19588214Y9341161D01*
X19640688Y9406477D01*
X19702692Y9449757D01*
X19774440Y9471384D01*
X19815357Y9474200D01*
X19892175Y9462488D01*
G36*
X-465830Y8564408D02*
X-366419Y8518995D01*
X-287240Y8475973D01*
X-223661Y8432550D01*
X-172908Y8387803D01*
X-119570Y8318884D01*
X-87750Y8243456D01*
X-76657Y8165426D01*
X-85497Y8088700D01*
X-113479Y8017186D01*
X-159809Y7954791D01*
X-223696Y7905421D01*
X-275560Y7881706D01*
X-348056Y7863578D01*
X-427549Y7855577D01*
X-501265Y7858749D01*
X-519027Y7861760D01*
X-602692Y7888888D01*
X-677840Y7932135D01*
X-739724Y7987657D01*
X-783592Y8051611D01*
X-797865Y8087447D01*
X-812654Y8179384D01*
X-804881Y8274503D01*
X-776180Y8368252D01*
X-728183Y8456079D01*
X-662521Y8533431D01*
X-626892Y8564198D01*
X-569608Y8608827D01*
X-465830Y8564408D01*
X-465830Y8564408D01*
G37*
X-465830Y8564408D02*
X-366419Y8518995D01*
X-287240Y8475973D01*
X-223661Y8432550D01*
X-172908Y8387803D01*
X-119570Y8318884D01*
X-87750Y8243456D01*
X-76657Y8165426D01*
X-85497Y8088700D01*
X-113479Y8017186D01*
X-159809Y7954791D01*
X-223696Y7905421D01*
X-275560Y7881706D01*
X-348056Y7863578D01*
X-427549Y7855577D01*
X-501265Y7858749D01*
X-519027Y7861760D01*
X-602692Y7888888D01*
X-677840Y7932135D01*
X-739724Y7987657D01*
X-783592Y8051611D01*
X-797865Y8087447D01*
X-812654Y8179384D01*
X-804881Y8274503D01*
X-776180Y8368252D01*
X-728183Y8456079D01*
X-662521Y8533431D01*
X-626892Y8564198D01*
X-569608Y8608827D01*
X-465830Y8564408D01*
G36*
X-391357Y9494394D02*
X-314888Y9474454D01*
X-245601Y9435885D01*
X-188369Y9379585D01*
X-169388Y9351361D01*
X-151717Y9318674D01*
X-140962Y9288968D01*
X-135449Y9254091D01*
X-133506Y9205889D01*
X-133350Y9175750D01*
X-134563Y9114818D01*
X-139308Y9069987D01*
X-149249Y9032029D01*
X-166050Y8991716D01*
X-166817Y8990076D01*
X-193932Y8940597D01*
X-226620Y8893198D01*
X-260590Y8852950D01*
X-291547Y8824921D01*
X-315199Y8814179D01*
X-315803Y8814178D01*
X-335937Y8819745D01*
X-372263Y8834319D01*
X-418405Y8855252D01*
X-440838Y8866123D01*
X-538488Y8920798D01*
X-612492Y8977464D01*
X-664605Y9038343D01*
X-696580Y9105656D01*
X-710170Y9181626D01*
X-710922Y9208335D01*
X-701715Y9294806D01*
X-673913Y9365657D01*
X-626268Y9423822D01*
X-615135Y9433463D01*
X-546353Y9474796D01*
X-470136Y9494807D01*
X-391357Y9494394D01*
X-391357Y9494394D01*
G37*
X-391357Y9494394D02*
X-314888Y9474454D01*
X-245601Y9435885D01*
X-188369Y9379585D01*
X-169388Y9351361D01*
X-151717Y9318674D01*
X-140962Y9288968D01*
X-135449Y9254091D01*
X-133506Y9205889D01*
X-133350Y9175750D01*
X-134563Y9114818D01*
X-139308Y9069987D01*
X-149249Y9032029D01*
X-166050Y8991716D01*
X-166817Y8990076D01*
X-193932Y8940597D01*
X-226620Y8893198D01*
X-260590Y8852950D01*
X-291547Y8824921D01*
X-315199Y8814179D01*
X-315803Y8814178D01*
X-335937Y8819745D01*
X-372263Y8834319D01*
X-418405Y8855252D01*
X-440838Y8866123D01*
X-538488Y8920798D01*
X-612492Y8977464D01*
X-664605Y9038343D01*
X-696580Y9105656D01*
X-710170Y9181626D01*
X-710922Y9208335D01*
X-701715Y9294806D01*
X-673913Y9365657D01*
X-626268Y9423822D01*
X-615135Y9433463D01*
X-546353Y9474796D01*
X-470136Y9494807D01*
X-391357Y9494394D01*
G36*
X-40061007Y9251950D02*
X-40062918Y9225978D01*
X-40064648Y9178483D01*
X-40066128Y9113343D01*
X-40067288Y9034437D01*
X-40068055Y8945642D01*
X-40068360Y8850836D01*
X-40068361Y8848725D01*
X-40068500Y8496300D01*
X-40323250Y8496300D01*
X-40412625Y8496619D01*
X-40479167Y8497684D01*
X-40525434Y8499662D01*
X-40553985Y8502717D01*
X-40567380Y8507017D01*
X-40568541Y8512175D01*
X-40559288Y8526491D01*
X-40537804Y8559114D01*
X-40505958Y8607228D01*
X-40465619Y8668012D01*
X-40418657Y8738648D01*
X-40366940Y8816318D01*
X-40355922Y8832850D01*
X-40300802Y8915840D01*
X-40247752Y8996256D01*
X-40199162Y9070437D01*
X-40157421Y9134717D01*
X-40124919Y9185434D01*
X-40104045Y9218924D01*
X-40103278Y9220200D01*
X-40053794Y9302750D01*
X-40061007Y9251950D01*
X-40061007Y9251950D01*
G37*
X-40061007Y9251950D02*
X-40062918Y9225978D01*
X-40064648Y9178483D01*
X-40066128Y9113343D01*
X-40067288Y9034437D01*
X-40068055Y8945642D01*
X-40068360Y8850836D01*
X-40068361Y8848725D01*
X-40068500Y8496300D01*
X-40323250Y8496300D01*
X-40412625Y8496619D01*
X-40479167Y8497684D01*
X-40525434Y8499662D01*
X-40553985Y8502717D01*
X-40567380Y8507017D01*
X-40568541Y8512175D01*
X-40559288Y8526491D01*
X-40537804Y8559114D01*
X-40505958Y8607228D01*
X-40465619Y8668012D01*
X-40418657Y8738648D01*
X-40366940Y8816318D01*
X-40355922Y8832850D01*
X-40300802Y8915840D01*
X-40247752Y8996256D01*
X-40199162Y9070437D01*
X-40157421Y9134717D01*
X-40124919Y9185434D01*
X-40104045Y9218924D01*
X-40103278Y9220200D01*
X-40053794Y9302750D01*
X-40061007Y9251950D01*
G36*
X59702700Y8496300D02*
X59448700Y8496300D01*
X59371500Y8496611D01*
X59303747Y8497479D01*
X59249242Y8498805D01*
X59211787Y8500491D01*
X59195184Y8502440D01*
X59194700Y8502845D01*
X59201482Y8514667D01*
X59220659Y8544894D01*
X59250471Y8590837D01*
X59289162Y8649808D01*
X59334973Y8719119D01*
X59386147Y8796081D01*
X59400219Y8817170D01*
X59455604Y8900471D01*
X59508818Y8981174D01*
X59557500Y9055648D01*
X59599291Y9120265D01*
X59631832Y9171394D01*
X59652763Y9205407D01*
X59653994Y9207500D01*
X59702250Y9290050D01*
X59702700Y8496300D01*
X59702700Y8496300D01*
G37*
X59702700Y8496300D02*
X59448700Y8496300D01*
X59371500Y8496611D01*
X59303747Y8497479D01*
X59249242Y8498805D01*
X59211787Y8500491D01*
X59195184Y8502440D01*
X59194700Y8502845D01*
X59201482Y8514667D01*
X59220659Y8544894D01*
X59250471Y8590837D01*
X59289162Y8649808D01*
X59334973Y8719119D01*
X59386147Y8796081D01*
X59400219Y8817170D01*
X59455604Y8900471D01*
X59508818Y8981174D01*
X59557500Y9055648D01*
X59599291Y9120265D01*
X59631832Y9171394D01*
X59652763Y9205407D01*
X59653994Y9207500D01*
X59702250Y9290050D01*
X59702700Y8496300D01*
M02*
