G04 #@! TF.GenerationSoftware,KiCad,Pcbnew,5.0.0-fee4fd1~66~ubuntu16.04.1*
G04 #@! TF.CreationDate,2018-08-16T23:33:47+01:00*
G04 #@! TF.ProjectId,ruler,72756C65722E6B696361645F70636200,rev?*
G04 #@! TF.SameCoordinates,Original*
G04 #@! TF.FileFunction,Soldermask,Top*
G04 #@! TF.FilePolarity,Negative*
%FSLAX45Y45*%
G04 Gerber Fmt 4.5, Leading zero omitted, Abs format (unit mm)*
G04 Created by KiCad (PCBNEW 5.0.0-fee4fd1~66~ubuntu16.04.1) date Thu Aug 16 23:33:47 2018*
%MOMM*%
%LPD*%
G01*
G04 APERTURE LIST*
%ADD10C,0.010000*%
%ADD11C,0.150000*%
%ADD12C,0.900000*%
%ADD13C,1.000000*%
%ADD14C,1.275000*%
%ADD15C,1.550000*%
%ADD16C,1.650000*%
%ADD17R,2.900000X3.700000*%
%ADD18R,0.900000X1.100000*%
%ADD19R,0.600000X1.500000*%
%ADD20R,1.800000X1.400000*%
%ADD21R,1.000000X0.850000*%
%ADD22R,2.900000X2.700000*%
%ADD23R,0.800000X1.000000*%
%ADD24R,1.000000X1.100000*%
%ADD25R,1.300000X2.100000*%
%ADD26C,0.700000*%
%ADD27R,1.800000X2.500000*%
%ADD28R,2.000000X2.400000*%
%ADD29R,1.200000X2.100000*%
%ADD30R,1.100000X1.700000*%
%ADD31C,0.800000*%
%ADD32R,1.300000X1.400000*%
%ADD33R,1.400760X1.400760*%
%ADD34R,0.680000X0.830000*%
%ADD35R,2.297380X1.573480*%
%ADD36R,2.297380X2.774900*%
%ADD37R,2.500580X1.873200*%
%ADD38R,1.779220X0.849580*%
%ADD39R,2.900000X2.200000*%
%ADD40R,1.600000X2.900000*%
%ADD41R,0.900000X1.300000*%
%ADD42R,1.300000X1.600000*%
G04 APERTURE END LIST*
D10*
G04 #@! TO.C,DRAWING1*
G36*
X22220390Y-13121188D02*
X22243744Y-13128388D01*
X22266624Y-13137947D01*
X22288784Y-13149698D01*
X22309980Y-13163469D01*
X22329966Y-13179093D01*
X22348495Y-13196399D01*
X22365324Y-13215218D01*
X22375065Y-13227946D01*
X22389144Y-13249334D01*
X22401085Y-13271379D01*
X22411019Y-13294393D01*
X22419075Y-13318688D01*
X22425384Y-13344575D01*
X22426781Y-13351750D01*
X22429485Y-13366355D01*
X22429895Y-14566505D01*
X22429917Y-14633101D01*
X22429938Y-14697205D01*
X22429958Y-14758865D01*
X22429977Y-14818129D01*
X22429994Y-14875046D01*
X22430009Y-14929662D01*
X22430023Y-14982027D01*
X22430035Y-15032188D01*
X22430045Y-15080193D01*
X22430053Y-15126090D01*
X22430060Y-15169928D01*
X22430064Y-15211754D01*
X22430066Y-15251617D01*
X22430067Y-15289564D01*
X22430065Y-15325643D01*
X22430061Y-15359903D01*
X22430054Y-15392392D01*
X22430045Y-15423157D01*
X22430034Y-15452246D01*
X22430020Y-15479708D01*
X22430004Y-15505591D01*
X22429985Y-15529943D01*
X22429963Y-15552811D01*
X22429938Y-15574244D01*
X22429911Y-15594290D01*
X22429881Y-15612997D01*
X22429847Y-15630412D01*
X22429811Y-15646585D01*
X22429771Y-15661562D01*
X22429728Y-15675392D01*
X22429682Y-15688123D01*
X22429633Y-15699804D01*
X22429580Y-15710481D01*
X22429524Y-15720203D01*
X22429464Y-15729019D01*
X22429401Y-15736976D01*
X22429334Y-15744121D01*
X22429263Y-15750504D01*
X22429188Y-15756173D01*
X22429110Y-15761174D01*
X22429027Y-15765557D01*
X22428941Y-15769369D01*
X22428850Y-15772659D01*
X22428756Y-15775474D01*
X22428657Y-15777862D01*
X22428554Y-15779872D01*
X22428446Y-15781552D01*
X22428334Y-15782949D01*
X22428218Y-15784111D01*
X22428180Y-15784435D01*
X22423706Y-15811437D01*
X22416864Y-15837607D01*
X22407709Y-15862833D01*
X22396298Y-15887001D01*
X22382687Y-15910000D01*
X22366933Y-15931718D01*
X22349091Y-15952043D01*
X22339225Y-15961818D01*
X22319379Y-15978888D01*
X22298143Y-15993869D01*
X22275467Y-16006788D01*
X22251304Y-16017673D01*
X22225604Y-16026550D01*
X22218080Y-16028692D01*
X22200935Y-16033355D01*
X14481240Y-16033558D01*
X14307064Y-16033563D01*
X14135411Y-16033567D01*
X13966263Y-16033571D01*
X13799604Y-16033575D01*
X13635417Y-16033578D01*
X13473684Y-16033582D01*
X13314389Y-16033585D01*
X13157513Y-16033588D01*
X13003041Y-16033591D01*
X12850955Y-16033593D01*
X12701237Y-16033595D01*
X12553871Y-16033597D01*
X12408840Y-16033599D01*
X12266127Y-16033600D01*
X12125713Y-16033602D01*
X11987584Y-16033602D01*
X11851720Y-16033603D01*
X11718105Y-16033604D01*
X11586722Y-16033604D01*
X11457554Y-16033603D01*
X11330584Y-16033603D01*
X11205794Y-16033602D01*
X11083168Y-16033601D01*
X10962688Y-16033600D01*
X10844337Y-16033598D01*
X10728099Y-16033597D01*
X10613955Y-16033594D01*
X10501889Y-16033592D01*
X10391885Y-16033589D01*
X10283923Y-16033586D01*
X10177989Y-16033583D01*
X10074063Y-16033579D01*
X9972130Y-16033575D01*
X9872173Y-16033571D01*
X9774173Y-16033566D01*
X9678114Y-16033561D01*
X9583979Y-16033556D01*
X9491751Y-16033550D01*
X9401413Y-16033544D01*
X9312947Y-16033537D01*
X9226336Y-16033531D01*
X9141564Y-16033524D01*
X9058613Y-16033516D01*
X8977465Y-16033509D01*
X8898105Y-16033501D01*
X8820515Y-16033492D01*
X8744677Y-16033483D01*
X8670575Y-16033474D01*
X8598191Y-16033465D01*
X8527509Y-16033455D01*
X8458511Y-16033444D01*
X8391180Y-16033434D01*
X8325499Y-16033423D01*
X8261451Y-16033411D01*
X8199019Y-16033399D01*
X8138185Y-16033387D01*
X8078933Y-16033374D01*
X8021246Y-16033361D01*
X7965105Y-16033348D01*
X7910495Y-16033334D01*
X7857398Y-16033320D01*
X7805797Y-16033305D01*
X7755675Y-16033290D01*
X7707015Y-16033275D01*
X7659799Y-16033259D01*
X7614011Y-16033242D01*
X7569633Y-16033226D01*
X7526648Y-16033209D01*
X7485040Y-16033191D01*
X7444790Y-16033173D01*
X7405883Y-16033154D01*
X7368300Y-16033135D01*
X7332025Y-16033116D01*
X7297041Y-16033096D01*
X7263330Y-16033076D01*
X7230875Y-16033055D01*
X7199660Y-16033034D01*
X7169667Y-16033012D01*
X7140879Y-16032990D01*
X7113278Y-16032967D01*
X7086849Y-16032944D01*
X7061573Y-16032921D01*
X7037434Y-16032897D01*
X7014414Y-16032872D01*
X6992497Y-16032847D01*
X6971664Y-16032822D01*
X6951900Y-16032796D01*
X6933187Y-16032769D01*
X6915508Y-16032742D01*
X6898845Y-16032715D01*
X6883182Y-16032687D01*
X6868501Y-16032658D01*
X6854786Y-16032629D01*
X6842020Y-16032600D01*
X6830184Y-16032570D01*
X6819262Y-16032539D01*
X6809238Y-16032508D01*
X6800093Y-16032476D01*
X6791811Y-16032444D01*
X6784374Y-16032411D01*
X6777766Y-16032378D01*
X6771970Y-16032344D01*
X6766967Y-16032310D01*
X6762742Y-16032275D01*
X6759277Y-16032240D01*
X6756554Y-16032204D01*
X6754558Y-16032167D01*
X6753270Y-16032130D01*
X6752673Y-16032092D01*
X6752655Y-16032089D01*
X6728988Y-16026404D01*
X6705442Y-16018330D01*
X6682335Y-16008010D01*
X6659982Y-15995587D01*
X6638701Y-15981205D01*
X6636450Y-15979518D01*
X6629386Y-15973760D01*
X6621294Y-15966489D01*
X6612679Y-15958218D01*
X6604045Y-15949459D01*
X6595899Y-15940724D01*
X6588745Y-15932526D01*
X6583251Y-15925595D01*
X6570233Y-15906711D01*
X6559071Y-15887700D01*
X6549583Y-15868132D01*
X6541585Y-15847580D01*
X6534896Y-15825612D01*
X6529334Y-15801801D01*
X6528166Y-15795865D01*
X6527845Y-15794149D01*
X6527551Y-15792439D01*
X6527282Y-15790623D01*
X6527037Y-15788588D01*
X6526814Y-15786222D01*
X6526613Y-15783411D01*
X6526431Y-15780043D01*
X6526268Y-15776006D01*
X6526121Y-15771186D01*
X6525991Y-15765471D01*
X6525875Y-15758748D01*
X6525771Y-15750904D01*
X6525679Y-15741827D01*
X6525598Y-15731404D01*
X6525525Y-15719523D01*
X6525459Y-15706069D01*
X6525400Y-15690932D01*
X6525345Y-15673998D01*
X6525293Y-15655154D01*
X6525244Y-15634288D01*
X6525194Y-15611286D01*
X6525145Y-15586037D01*
X6525092Y-15558428D01*
X6525060Y-15540912D01*
X6525006Y-15511863D01*
X6524955Y-15485246D01*
X6524906Y-15460957D01*
X6524858Y-15438888D01*
X6524809Y-15418934D01*
X6524757Y-15400987D01*
X6524703Y-15384942D01*
X6524643Y-15370692D01*
X6524578Y-15358130D01*
X6524505Y-15347150D01*
X6524424Y-15337646D01*
X6524333Y-15329510D01*
X6524231Y-15322638D01*
X6524116Y-15316921D01*
X6523988Y-15312254D01*
X6523845Y-15308531D01*
X6523685Y-15305645D01*
X6523507Y-15303489D01*
X6523310Y-15301957D01*
X6523094Y-15300942D01*
X6522855Y-15300339D01*
X6522594Y-15300040D01*
X6522308Y-15299939D01*
X6522112Y-15299930D01*
X6521934Y-15299912D01*
X6521765Y-15299816D01*
X6521604Y-15299581D01*
X6521452Y-15299145D01*
X6521307Y-15298446D01*
X6521170Y-15297424D01*
X6521041Y-15296015D01*
X6520919Y-15294159D01*
X6520804Y-15291793D01*
X6520696Y-15288857D01*
X6520595Y-15285288D01*
X6520500Y-15281025D01*
X6520412Y-15276006D01*
X6520330Y-15270169D01*
X6520253Y-15263453D01*
X6520182Y-15255797D01*
X6520117Y-15247138D01*
X6520056Y-15237414D01*
X6520001Y-15226565D01*
X6519951Y-15214528D01*
X6519905Y-15201242D01*
X6519863Y-15186645D01*
X6519825Y-15170676D01*
X6519792Y-15153273D01*
X6519762Y-15134373D01*
X6519735Y-15113916D01*
X6519712Y-15091840D01*
X6519692Y-15068083D01*
X6519675Y-15042584D01*
X6519660Y-15015280D01*
X6519648Y-14986111D01*
X6519638Y-14955014D01*
X6519630Y-14921928D01*
X6519623Y-14886791D01*
X6519618Y-14849541D01*
X6519615Y-14810118D01*
X6519613Y-14768458D01*
X6519611Y-14724502D01*
X6519610Y-14678186D01*
X6519610Y-14629449D01*
X6519610Y-14530694D01*
X6519610Y-14482122D01*
X6519611Y-14435966D01*
X6519613Y-14392165D01*
X6519615Y-14350658D01*
X6519619Y-14311382D01*
X6519624Y-14274276D01*
X6519630Y-14239279D01*
X6519638Y-14206328D01*
X6519648Y-14175363D01*
X6519661Y-14146320D01*
X6519676Y-14119140D01*
X6519693Y-14093759D01*
X6519714Y-14070117D01*
X6519737Y-14048152D01*
X6519764Y-14027801D01*
X6519794Y-14009004D01*
X6519828Y-13991699D01*
X6519865Y-13975823D01*
X6519907Y-13961316D01*
X6519954Y-13948116D01*
X6520004Y-13936161D01*
X6520060Y-13925389D01*
X6520121Y-13915739D01*
X6520187Y-13907149D01*
X6520258Y-13899558D01*
X6520335Y-13892903D01*
X6520418Y-13887123D01*
X6520506Y-13882157D01*
X6520602Y-13877942D01*
X6520703Y-13874417D01*
X6520812Y-13871521D01*
X6520927Y-13869192D01*
X6521049Y-13867368D01*
X6521179Y-13865987D01*
X6521316Y-13864988D01*
X6521462Y-13864308D01*
X6521615Y-13863888D01*
X6521776Y-13863664D01*
X6521946Y-13863575D01*
X6522113Y-13863560D01*
X9820340Y-13863560D01*
X9820340Y-15288500D01*
X19121820Y-15288500D01*
X19121820Y-14074380D01*
X21815490Y-14074380D01*
X21815490Y-15049740D01*
X22428900Y-15049740D01*
X22428900Y-14074380D01*
X21815490Y-14074380D01*
X19121820Y-14074380D01*
X19121820Y-13863560D01*
X9820340Y-13863560D01*
X6522113Y-13863560D01*
X6522411Y-13863531D01*
X6522684Y-13863374D01*
X6522935Y-13862984D01*
X6523163Y-13862256D01*
X6523371Y-13861086D01*
X6523559Y-13859367D01*
X6523730Y-13856996D01*
X6523884Y-13853868D01*
X6524022Y-13849877D01*
X6524145Y-13844918D01*
X6524256Y-13838887D01*
X6524355Y-13831679D01*
X6524443Y-13823188D01*
X6524522Y-13813311D01*
X6524593Y-13801941D01*
X6524657Y-13788974D01*
X6524715Y-13774305D01*
X6524769Y-13757829D01*
X6524820Y-13739441D01*
X6524870Y-13719036D01*
X6524918Y-13696510D01*
X6524968Y-13671756D01*
X6525019Y-13644672D01*
X6525073Y-13615592D01*
X6525128Y-13586086D01*
X6525180Y-13559008D01*
X6525230Y-13534247D01*
X6525280Y-13511693D01*
X6525331Y-13491234D01*
X6525384Y-13472758D01*
X6525441Y-13456155D01*
X6525503Y-13441313D01*
X6525571Y-13428121D01*
X6525646Y-13416468D01*
X6525731Y-13406242D01*
X6525825Y-13397333D01*
X6525931Y-13389628D01*
X6526049Y-13383017D01*
X6526182Y-13377389D01*
X6526330Y-13372631D01*
X6526494Y-13368634D01*
X6526677Y-13365285D01*
X6526878Y-13362474D01*
X6527100Y-13360089D01*
X6527344Y-13358019D01*
X6527611Y-13356152D01*
X6527902Y-13354378D01*
X6528142Y-13353020D01*
X6534271Y-13325283D01*
X6542486Y-13298982D01*
X6552806Y-13274080D01*
X6565248Y-13250541D01*
X6579828Y-13228327D01*
X6596563Y-13207404D01*
X6596912Y-13207007D01*
X6615670Y-13187576D01*
X6635811Y-13170263D01*
X6657291Y-13155098D01*
X6680065Y-13142107D01*
X6704089Y-13131319D01*
X6729317Y-13122762D01*
X6732970Y-13121736D01*
X6746305Y-13118085D01*
X14477200Y-13118077D01*
X22208095Y-13118070D01*
X22220390Y-13121188D01*
X22220390Y-13121188D01*
G37*
X22220390Y-13121188D02*
X22243744Y-13128388D01*
X22266624Y-13137947D01*
X22288784Y-13149698D01*
X22309980Y-13163469D01*
X22329966Y-13179093D01*
X22348495Y-13196399D01*
X22365324Y-13215218D01*
X22375065Y-13227946D01*
X22389144Y-13249334D01*
X22401085Y-13271379D01*
X22411019Y-13294393D01*
X22419075Y-13318688D01*
X22425384Y-13344575D01*
X22426781Y-13351750D01*
X22429485Y-13366355D01*
X22429895Y-14566505D01*
X22429917Y-14633101D01*
X22429938Y-14697205D01*
X22429958Y-14758865D01*
X22429977Y-14818129D01*
X22429994Y-14875046D01*
X22430009Y-14929662D01*
X22430023Y-14982027D01*
X22430035Y-15032188D01*
X22430045Y-15080193D01*
X22430053Y-15126090D01*
X22430060Y-15169928D01*
X22430064Y-15211754D01*
X22430066Y-15251617D01*
X22430067Y-15289564D01*
X22430065Y-15325643D01*
X22430061Y-15359903D01*
X22430054Y-15392392D01*
X22430045Y-15423157D01*
X22430034Y-15452246D01*
X22430020Y-15479708D01*
X22430004Y-15505591D01*
X22429985Y-15529943D01*
X22429963Y-15552811D01*
X22429938Y-15574244D01*
X22429911Y-15594290D01*
X22429881Y-15612997D01*
X22429847Y-15630412D01*
X22429811Y-15646585D01*
X22429771Y-15661562D01*
X22429728Y-15675392D01*
X22429682Y-15688123D01*
X22429633Y-15699804D01*
X22429580Y-15710481D01*
X22429524Y-15720203D01*
X22429464Y-15729019D01*
X22429401Y-15736976D01*
X22429334Y-15744121D01*
X22429263Y-15750504D01*
X22429188Y-15756173D01*
X22429110Y-15761174D01*
X22429027Y-15765557D01*
X22428941Y-15769369D01*
X22428850Y-15772659D01*
X22428756Y-15775474D01*
X22428657Y-15777862D01*
X22428554Y-15779872D01*
X22428446Y-15781552D01*
X22428334Y-15782949D01*
X22428218Y-15784111D01*
X22428180Y-15784435D01*
X22423706Y-15811437D01*
X22416864Y-15837607D01*
X22407709Y-15862833D01*
X22396298Y-15887001D01*
X22382687Y-15910000D01*
X22366933Y-15931718D01*
X22349091Y-15952043D01*
X22339225Y-15961818D01*
X22319379Y-15978888D01*
X22298143Y-15993869D01*
X22275467Y-16006788D01*
X22251304Y-16017673D01*
X22225604Y-16026550D01*
X22218080Y-16028692D01*
X22200935Y-16033355D01*
X14481240Y-16033558D01*
X14307064Y-16033563D01*
X14135411Y-16033567D01*
X13966263Y-16033571D01*
X13799604Y-16033575D01*
X13635417Y-16033578D01*
X13473684Y-16033582D01*
X13314389Y-16033585D01*
X13157513Y-16033588D01*
X13003041Y-16033591D01*
X12850955Y-16033593D01*
X12701237Y-16033595D01*
X12553871Y-16033597D01*
X12408840Y-16033599D01*
X12266127Y-16033600D01*
X12125713Y-16033602D01*
X11987584Y-16033602D01*
X11851720Y-16033603D01*
X11718105Y-16033604D01*
X11586722Y-16033604D01*
X11457554Y-16033603D01*
X11330584Y-16033603D01*
X11205794Y-16033602D01*
X11083168Y-16033601D01*
X10962688Y-16033600D01*
X10844337Y-16033598D01*
X10728099Y-16033597D01*
X10613955Y-16033594D01*
X10501889Y-16033592D01*
X10391885Y-16033589D01*
X10283923Y-16033586D01*
X10177989Y-16033583D01*
X10074063Y-16033579D01*
X9972130Y-16033575D01*
X9872173Y-16033571D01*
X9774173Y-16033566D01*
X9678114Y-16033561D01*
X9583979Y-16033556D01*
X9491751Y-16033550D01*
X9401413Y-16033544D01*
X9312947Y-16033537D01*
X9226336Y-16033531D01*
X9141564Y-16033524D01*
X9058613Y-16033516D01*
X8977465Y-16033509D01*
X8898105Y-16033501D01*
X8820515Y-16033492D01*
X8744677Y-16033483D01*
X8670575Y-16033474D01*
X8598191Y-16033465D01*
X8527509Y-16033455D01*
X8458511Y-16033444D01*
X8391180Y-16033434D01*
X8325499Y-16033423D01*
X8261451Y-16033411D01*
X8199019Y-16033399D01*
X8138185Y-16033387D01*
X8078933Y-16033374D01*
X8021246Y-16033361D01*
X7965105Y-16033348D01*
X7910495Y-16033334D01*
X7857398Y-16033320D01*
X7805797Y-16033305D01*
X7755675Y-16033290D01*
X7707015Y-16033275D01*
X7659799Y-16033259D01*
X7614011Y-16033242D01*
X7569633Y-16033226D01*
X7526648Y-16033209D01*
X7485040Y-16033191D01*
X7444790Y-16033173D01*
X7405883Y-16033154D01*
X7368300Y-16033135D01*
X7332025Y-16033116D01*
X7297041Y-16033096D01*
X7263330Y-16033076D01*
X7230875Y-16033055D01*
X7199660Y-16033034D01*
X7169667Y-16033012D01*
X7140879Y-16032990D01*
X7113278Y-16032967D01*
X7086849Y-16032944D01*
X7061573Y-16032921D01*
X7037434Y-16032897D01*
X7014414Y-16032872D01*
X6992497Y-16032847D01*
X6971664Y-16032822D01*
X6951900Y-16032796D01*
X6933187Y-16032769D01*
X6915508Y-16032742D01*
X6898845Y-16032715D01*
X6883182Y-16032687D01*
X6868501Y-16032658D01*
X6854786Y-16032629D01*
X6842020Y-16032600D01*
X6830184Y-16032570D01*
X6819262Y-16032539D01*
X6809238Y-16032508D01*
X6800093Y-16032476D01*
X6791811Y-16032444D01*
X6784374Y-16032411D01*
X6777766Y-16032378D01*
X6771970Y-16032344D01*
X6766967Y-16032310D01*
X6762742Y-16032275D01*
X6759277Y-16032240D01*
X6756554Y-16032204D01*
X6754558Y-16032167D01*
X6753270Y-16032130D01*
X6752673Y-16032092D01*
X6752655Y-16032089D01*
X6728988Y-16026404D01*
X6705442Y-16018330D01*
X6682335Y-16008010D01*
X6659982Y-15995587D01*
X6638701Y-15981205D01*
X6636450Y-15979518D01*
X6629386Y-15973760D01*
X6621294Y-15966489D01*
X6612679Y-15958218D01*
X6604045Y-15949459D01*
X6595899Y-15940724D01*
X6588745Y-15932526D01*
X6583251Y-15925595D01*
X6570233Y-15906711D01*
X6559071Y-15887700D01*
X6549583Y-15868132D01*
X6541585Y-15847580D01*
X6534896Y-15825612D01*
X6529334Y-15801801D01*
X6528166Y-15795865D01*
X6527845Y-15794149D01*
X6527551Y-15792439D01*
X6527282Y-15790623D01*
X6527037Y-15788588D01*
X6526814Y-15786222D01*
X6526613Y-15783411D01*
X6526431Y-15780043D01*
X6526268Y-15776006D01*
X6526121Y-15771186D01*
X6525991Y-15765471D01*
X6525875Y-15758748D01*
X6525771Y-15750904D01*
X6525679Y-15741827D01*
X6525598Y-15731404D01*
X6525525Y-15719523D01*
X6525459Y-15706069D01*
X6525400Y-15690932D01*
X6525345Y-15673998D01*
X6525293Y-15655154D01*
X6525244Y-15634288D01*
X6525194Y-15611286D01*
X6525145Y-15586037D01*
X6525092Y-15558428D01*
X6525060Y-15540912D01*
X6525006Y-15511863D01*
X6524955Y-15485246D01*
X6524906Y-15460957D01*
X6524858Y-15438888D01*
X6524809Y-15418934D01*
X6524757Y-15400987D01*
X6524703Y-15384942D01*
X6524643Y-15370692D01*
X6524578Y-15358130D01*
X6524505Y-15347150D01*
X6524424Y-15337646D01*
X6524333Y-15329510D01*
X6524231Y-15322638D01*
X6524116Y-15316921D01*
X6523988Y-15312254D01*
X6523845Y-15308531D01*
X6523685Y-15305645D01*
X6523507Y-15303489D01*
X6523310Y-15301957D01*
X6523094Y-15300942D01*
X6522855Y-15300339D01*
X6522594Y-15300040D01*
X6522308Y-15299939D01*
X6522112Y-15299930D01*
X6521934Y-15299912D01*
X6521765Y-15299816D01*
X6521604Y-15299581D01*
X6521452Y-15299145D01*
X6521307Y-15298446D01*
X6521170Y-15297424D01*
X6521041Y-15296015D01*
X6520919Y-15294159D01*
X6520804Y-15291793D01*
X6520696Y-15288857D01*
X6520595Y-15285288D01*
X6520500Y-15281025D01*
X6520412Y-15276006D01*
X6520330Y-15270169D01*
X6520253Y-15263453D01*
X6520182Y-15255797D01*
X6520117Y-15247138D01*
X6520056Y-15237414D01*
X6520001Y-15226565D01*
X6519951Y-15214528D01*
X6519905Y-15201242D01*
X6519863Y-15186645D01*
X6519825Y-15170676D01*
X6519792Y-15153273D01*
X6519762Y-15134373D01*
X6519735Y-15113916D01*
X6519712Y-15091840D01*
X6519692Y-15068083D01*
X6519675Y-15042584D01*
X6519660Y-15015280D01*
X6519648Y-14986111D01*
X6519638Y-14955014D01*
X6519630Y-14921928D01*
X6519623Y-14886791D01*
X6519618Y-14849541D01*
X6519615Y-14810118D01*
X6519613Y-14768458D01*
X6519611Y-14724502D01*
X6519610Y-14678186D01*
X6519610Y-14629449D01*
X6519610Y-14530694D01*
X6519610Y-14482122D01*
X6519611Y-14435966D01*
X6519613Y-14392165D01*
X6519615Y-14350658D01*
X6519619Y-14311382D01*
X6519624Y-14274276D01*
X6519630Y-14239279D01*
X6519638Y-14206328D01*
X6519648Y-14175363D01*
X6519661Y-14146320D01*
X6519676Y-14119140D01*
X6519693Y-14093759D01*
X6519714Y-14070117D01*
X6519737Y-14048152D01*
X6519764Y-14027801D01*
X6519794Y-14009004D01*
X6519828Y-13991699D01*
X6519865Y-13975823D01*
X6519907Y-13961316D01*
X6519954Y-13948116D01*
X6520004Y-13936161D01*
X6520060Y-13925389D01*
X6520121Y-13915739D01*
X6520187Y-13907149D01*
X6520258Y-13899558D01*
X6520335Y-13892903D01*
X6520418Y-13887123D01*
X6520506Y-13882157D01*
X6520602Y-13877942D01*
X6520703Y-13874417D01*
X6520812Y-13871521D01*
X6520927Y-13869192D01*
X6521049Y-13867368D01*
X6521179Y-13865987D01*
X6521316Y-13864988D01*
X6521462Y-13864308D01*
X6521615Y-13863888D01*
X6521776Y-13863664D01*
X6521946Y-13863575D01*
X6522113Y-13863560D01*
X9820340Y-13863560D01*
X9820340Y-15288500D01*
X19121820Y-15288500D01*
X19121820Y-14074380D01*
X21815490Y-14074380D01*
X21815490Y-15049740D01*
X22428900Y-15049740D01*
X22428900Y-14074380D01*
X21815490Y-14074380D01*
X19121820Y-14074380D01*
X19121820Y-13863560D01*
X9820340Y-13863560D01*
X6522113Y-13863560D01*
X6522411Y-13863531D01*
X6522684Y-13863374D01*
X6522935Y-13862984D01*
X6523163Y-13862256D01*
X6523371Y-13861086D01*
X6523559Y-13859367D01*
X6523730Y-13856996D01*
X6523884Y-13853868D01*
X6524022Y-13849877D01*
X6524145Y-13844918D01*
X6524256Y-13838887D01*
X6524355Y-13831679D01*
X6524443Y-13823188D01*
X6524522Y-13813311D01*
X6524593Y-13801941D01*
X6524657Y-13788974D01*
X6524715Y-13774305D01*
X6524769Y-13757829D01*
X6524820Y-13739441D01*
X6524870Y-13719036D01*
X6524918Y-13696510D01*
X6524968Y-13671756D01*
X6525019Y-13644672D01*
X6525073Y-13615592D01*
X6525128Y-13586086D01*
X6525180Y-13559008D01*
X6525230Y-13534247D01*
X6525280Y-13511693D01*
X6525331Y-13491234D01*
X6525384Y-13472758D01*
X6525441Y-13456155D01*
X6525503Y-13441313D01*
X6525571Y-13428121D01*
X6525646Y-13416468D01*
X6525731Y-13406242D01*
X6525825Y-13397333D01*
X6525931Y-13389628D01*
X6526049Y-13383017D01*
X6526182Y-13377389D01*
X6526330Y-13372631D01*
X6526494Y-13368634D01*
X6526677Y-13365285D01*
X6526878Y-13362474D01*
X6527100Y-13360089D01*
X6527344Y-13358019D01*
X6527611Y-13356152D01*
X6527902Y-13354378D01*
X6528142Y-13353020D01*
X6534271Y-13325283D01*
X6542486Y-13298982D01*
X6552806Y-13274080D01*
X6565248Y-13250541D01*
X6579828Y-13228327D01*
X6596563Y-13207404D01*
X6596912Y-13207007D01*
X6615670Y-13187576D01*
X6635811Y-13170263D01*
X6657291Y-13155098D01*
X6680065Y-13142107D01*
X6704089Y-13131319D01*
X6729317Y-13122762D01*
X6732970Y-13121736D01*
X6746305Y-13118085D01*
X14477200Y-13118077D01*
X22208095Y-13118070D01*
X22220390Y-13121188D01*
G36*
X22219390Y-9175788D02*
X22242744Y-9182988D01*
X22265624Y-9192547D01*
X22287784Y-9204298D01*
X22308980Y-9218069D01*
X22328966Y-9233693D01*
X22347495Y-9250999D01*
X22364324Y-9269818D01*
X22374065Y-9282546D01*
X22388144Y-9303934D01*
X22400085Y-9325979D01*
X22410019Y-9348993D01*
X22418075Y-9373288D01*
X22424384Y-9399176D01*
X22425781Y-9406350D01*
X22428485Y-9420955D01*
X22428895Y-10621105D01*
X22428917Y-10687701D01*
X22428938Y-10751805D01*
X22428958Y-10813465D01*
X22428977Y-10872729D01*
X22428994Y-10929646D01*
X22429009Y-10984262D01*
X22429023Y-11036627D01*
X22429035Y-11086788D01*
X22429045Y-11134793D01*
X22429053Y-11180690D01*
X22429060Y-11224528D01*
X22429064Y-11266354D01*
X22429066Y-11306217D01*
X22429067Y-11344164D01*
X22429065Y-11380243D01*
X22429061Y-11414503D01*
X22429054Y-11446992D01*
X22429045Y-11477757D01*
X22429034Y-11506846D01*
X22429020Y-11534308D01*
X22429004Y-11560191D01*
X22428985Y-11584543D01*
X22428963Y-11607411D01*
X22428938Y-11628844D01*
X22428911Y-11648890D01*
X22428881Y-11667597D01*
X22428847Y-11685012D01*
X22428811Y-11701185D01*
X22428771Y-11716162D01*
X22428728Y-11729992D01*
X22428682Y-11742723D01*
X22428633Y-11754404D01*
X22428580Y-11765081D01*
X22428524Y-11774803D01*
X22428464Y-11783619D01*
X22428401Y-11791576D01*
X22428334Y-11798721D01*
X22428263Y-11805104D01*
X22428188Y-11810773D01*
X22428110Y-11815774D01*
X22428027Y-11820157D01*
X22427941Y-11823969D01*
X22427850Y-11827259D01*
X22427756Y-11830074D01*
X22427657Y-11832462D01*
X22427554Y-11834472D01*
X22427446Y-11836152D01*
X22427334Y-11837549D01*
X22427218Y-11838711D01*
X22427180Y-11839035D01*
X22422706Y-11866037D01*
X22415864Y-11892207D01*
X22406709Y-11917433D01*
X22395298Y-11941601D01*
X22381687Y-11964600D01*
X22365933Y-11986318D01*
X22348091Y-12006643D01*
X22338225Y-12016418D01*
X22318379Y-12033488D01*
X22297143Y-12048469D01*
X22274467Y-12061388D01*
X22250304Y-12072273D01*
X22224604Y-12081150D01*
X22217080Y-12083292D01*
X22199935Y-12087955D01*
X14480240Y-12088158D01*
X14306064Y-12088163D01*
X14134411Y-12088167D01*
X13965263Y-12088171D01*
X13798604Y-12088175D01*
X13634417Y-12088178D01*
X13472684Y-12088182D01*
X13313389Y-12088185D01*
X13156513Y-12088188D01*
X13002041Y-12088191D01*
X12849955Y-12088193D01*
X12700237Y-12088195D01*
X12552871Y-12088197D01*
X12407840Y-12088199D01*
X12265127Y-12088200D01*
X12124713Y-12088202D01*
X11986584Y-12088202D01*
X11850720Y-12088203D01*
X11717105Y-12088204D01*
X11585722Y-12088204D01*
X11456554Y-12088203D01*
X11329584Y-12088203D01*
X11204794Y-12088202D01*
X11082168Y-12088201D01*
X10961688Y-12088200D01*
X10843337Y-12088198D01*
X10727099Y-12088197D01*
X10612955Y-12088194D01*
X10500889Y-12088192D01*
X10390885Y-12088189D01*
X10282923Y-12088186D01*
X10176989Y-12088183D01*
X10073063Y-12088179D01*
X9971130Y-12088175D01*
X9871173Y-12088171D01*
X9773173Y-12088166D01*
X9677114Y-12088161D01*
X9582979Y-12088156D01*
X9490751Y-12088150D01*
X9400413Y-12088144D01*
X9311947Y-12088137D01*
X9225336Y-12088131D01*
X9140564Y-12088124D01*
X9057613Y-12088116D01*
X8976465Y-12088109D01*
X8897105Y-12088101D01*
X8819515Y-12088092D01*
X8743677Y-12088083D01*
X8669575Y-12088074D01*
X8597191Y-12088065D01*
X8526509Y-12088055D01*
X8457511Y-12088044D01*
X8390180Y-12088034D01*
X8324499Y-12088023D01*
X8260451Y-12088011D01*
X8198019Y-12087999D01*
X8137185Y-12087987D01*
X8077933Y-12087974D01*
X8020246Y-12087961D01*
X7964105Y-12087948D01*
X7909495Y-12087934D01*
X7856398Y-12087920D01*
X7804797Y-12087905D01*
X7754675Y-12087890D01*
X7706015Y-12087875D01*
X7658799Y-12087859D01*
X7613011Y-12087842D01*
X7568633Y-12087826D01*
X7525648Y-12087809D01*
X7484040Y-12087791D01*
X7443790Y-12087773D01*
X7404883Y-12087754D01*
X7367300Y-12087735D01*
X7331025Y-12087716D01*
X7296041Y-12087696D01*
X7262330Y-12087676D01*
X7229875Y-12087655D01*
X7198660Y-12087634D01*
X7168667Y-12087612D01*
X7139879Y-12087590D01*
X7112278Y-12087567D01*
X7085849Y-12087544D01*
X7060573Y-12087521D01*
X7036434Y-12087497D01*
X7013414Y-12087472D01*
X6991497Y-12087447D01*
X6970664Y-12087422D01*
X6950900Y-12087396D01*
X6932187Y-12087369D01*
X6914508Y-12087342D01*
X6897845Y-12087315D01*
X6882182Y-12087287D01*
X6867501Y-12087258D01*
X6853786Y-12087229D01*
X6841020Y-12087200D01*
X6829184Y-12087170D01*
X6818262Y-12087139D01*
X6808238Y-12087108D01*
X6799093Y-12087076D01*
X6790811Y-12087044D01*
X6783374Y-12087011D01*
X6776766Y-12086978D01*
X6770970Y-12086944D01*
X6765967Y-12086910D01*
X6761742Y-12086875D01*
X6758277Y-12086840D01*
X6755554Y-12086804D01*
X6753558Y-12086767D01*
X6752270Y-12086730D01*
X6751673Y-12086692D01*
X6751655Y-12086689D01*
X6727988Y-12081004D01*
X6704442Y-12072930D01*
X6681335Y-12062610D01*
X6658982Y-12050187D01*
X6637701Y-12035805D01*
X6635450Y-12034118D01*
X6628386Y-12028360D01*
X6620294Y-12021089D01*
X6611679Y-12012818D01*
X6603045Y-12004059D01*
X6594899Y-11995324D01*
X6587745Y-11987126D01*
X6582251Y-11980195D01*
X6569233Y-11961311D01*
X6558071Y-11942300D01*
X6548583Y-11922732D01*
X6540585Y-11902180D01*
X6533896Y-11880212D01*
X6528334Y-11856401D01*
X6527166Y-11850465D01*
X6526845Y-11848749D01*
X6526551Y-11847039D01*
X6526282Y-11845223D01*
X6526037Y-11843188D01*
X6525814Y-11840822D01*
X6525613Y-11838011D01*
X6525431Y-11834643D01*
X6525268Y-11830606D01*
X6525121Y-11825786D01*
X6524991Y-11820071D01*
X6524875Y-11813348D01*
X6524771Y-11805504D01*
X6524679Y-11796427D01*
X6524598Y-11786004D01*
X6524525Y-11774123D01*
X6524459Y-11760669D01*
X6524400Y-11745532D01*
X6524345Y-11728598D01*
X6524293Y-11709754D01*
X6524244Y-11688888D01*
X6524194Y-11665886D01*
X6524145Y-11640637D01*
X6524092Y-11613028D01*
X6524060Y-11595512D01*
X6524006Y-11566463D01*
X6523955Y-11539846D01*
X6523906Y-11515557D01*
X6523858Y-11493488D01*
X6523809Y-11473534D01*
X6523757Y-11455587D01*
X6523703Y-11439542D01*
X6523643Y-11425292D01*
X6523578Y-11412730D01*
X6523505Y-11401750D01*
X6523424Y-11392246D01*
X6523333Y-11384110D01*
X6523231Y-11377238D01*
X6523116Y-11371521D01*
X6522988Y-11366854D01*
X6522845Y-11363131D01*
X6522685Y-11360245D01*
X6522507Y-11358089D01*
X6522310Y-11356557D01*
X6522094Y-11355542D01*
X6521855Y-11354939D01*
X6521594Y-11354640D01*
X6521308Y-11354539D01*
X6521112Y-11354530D01*
X6520934Y-11354512D01*
X6520765Y-11354416D01*
X6520604Y-11354181D01*
X6520452Y-11353745D01*
X6520307Y-11353046D01*
X6520170Y-11352024D01*
X6520041Y-11350615D01*
X6519919Y-11348759D01*
X6519804Y-11346393D01*
X6519696Y-11343457D01*
X6519595Y-11339888D01*
X6519500Y-11335625D01*
X6519412Y-11330606D01*
X6519330Y-11324769D01*
X6519253Y-11318053D01*
X6519182Y-11310397D01*
X6519117Y-11301738D01*
X6519056Y-11292014D01*
X6519001Y-11281165D01*
X6518951Y-11269128D01*
X6518905Y-11255842D01*
X6518863Y-11241245D01*
X6518825Y-11225276D01*
X6518792Y-11207873D01*
X6518762Y-11188973D01*
X6518735Y-11168516D01*
X6518712Y-11146440D01*
X6518692Y-11122683D01*
X6518675Y-11097184D01*
X6518660Y-11069880D01*
X6518648Y-11040711D01*
X6518638Y-11009614D01*
X6518630Y-10976528D01*
X6518623Y-10941391D01*
X6518618Y-10904142D01*
X6518615Y-10864718D01*
X6518613Y-10823059D01*
X6518611Y-10779102D01*
X6518610Y-10732786D01*
X6518610Y-10684049D01*
X6518610Y-10585294D01*
X6518610Y-10536722D01*
X6518611Y-10490566D01*
X6518613Y-10446765D01*
X6518615Y-10405258D01*
X6518619Y-10365982D01*
X6518624Y-10328877D01*
X6518630Y-10293879D01*
X6518638Y-10260928D01*
X6518648Y-10229963D01*
X6518661Y-10200921D01*
X6518676Y-10173740D01*
X6518693Y-10148359D01*
X6518714Y-10124717D01*
X6518737Y-10102752D01*
X6518764Y-10082401D01*
X6518794Y-10063604D01*
X6518828Y-10046299D01*
X6518865Y-10030424D01*
X6518907Y-10015917D01*
X6518954Y-10002716D01*
X6519004Y-9990761D01*
X6519060Y-9979989D01*
X6519121Y-9970339D01*
X6519187Y-9961749D01*
X6519258Y-9954158D01*
X6519335Y-9947503D01*
X6519418Y-9941723D01*
X6519506Y-9936757D01*
X6519602Y-9932542D01*
X6519703Y-9929018D01*
X6519812Y-9926121D01*
X6519927Y-9923792D01*
X6520049Y-9921968D01*
X6520179Y-9920587D01*
X6520316Y-9919588D01*
X6520462Y-9918909D01*
X6520615Y-9918488D01*
X6520776Y-9918264D01*
X6520946Y-9918175D01*
X6521113Y-9918160D01*
X9819340Y-9918160D01*
X9819340Y-11343100D01*
X19120820Y-11343100D01*
X19120820Y-10128980D01*
X21814490Y-10128980D01*
X21814490Y-11104340D01*
X22427900Y-11104340D01*
X22427900Y-10128980D01*
X21814490Y-10128980D01*
X19120820Y-10128980D01*
X19120820Y-9918160D01*
X9819340Y-9918160D01*
X6521113Y-9918160D01*
X6521411Y-9918131D01*
X6521684Y-9917974D01*
X6521935Y-9917584D01*
X6522163Y-9916856D01*
X6522371Y-9915686D01*
X6522559Y-9913967D01*
X6522730Y-9911596D01*
X6522884Y-9908468D01*
X6523022Y-9904477D01*
X6523145Y-9899518D01*
X6523256Y-9893487D01*
X6523355Y-9886279D01*
X6523443Y-9877788D01*
X6523522Y-9867911D01*
X6523593Y-9856541D01*
X6523657Y-9843574D01*
X6523715Y-9828905D01*
X6523769Y-9812429D01*
X6523820Y-9794041D01*
X6523870Y-9773636D01*
X6523918Y-9751110D01*
X6523968Y-9726356D01*
X6524019Y-9699272D01*
X6524073Y-9670193D01*
X6524128Y-9640686D01*
X6524180Y-9613608D01*
X6524230Y-9588847D01*
X6524280Y-9566293D01*
X6524331Y-9545834D01*
X6524384Y-9527358D01*
X6524441Y-9510755D01*
X6524503Y-9495913D01*
X6524571Y-9482721D01*
X6524646Y-9471068D01*
X6524731Y-9460842D01*
X6524825Y-9451933D01*
X6524931Y-9444228D01*
X6525049Y-9437617D01*
X6525182Y-9431989D01*
X6525330Y-9427231D01*
X6525494Y-9423234D01*
X6525677Y-9419885D01*
X6525878Y-9417074D01*
X6526100Y-9414689D01*
X6526344Y-9412619D01*
X6526611Y-9410752D01*
X6526902Y-9408978D01*
X6527142Y-9407620D01*
X6533271Y-9379883D01*
X6541486Y-9353582D01*
X6551806Y-9328680D01*
X6564248Y-9305141D01*
X6578828Y-9282928D01*
X6595563Y-9262004D01*
X6595912Y-9261607D01*
X6614670Y-9242176D01*
X6634811Y-9224863D01*
X6656291Y-9209698D01*
X6679065Y-9196707D01*
X6703089Y-9185919D01*
X6728317Y-9177362D01*
X6731970Y-9176336D01*
X6745305Y-9172685D01*
X14476200Y-9172677D01*
X22207095Y-9172670D01*
X22219390Y-9175788D01*
X22219390Y-9175788D01*
G37*
X22219390Y-9175788D02*
X22242744Y-9182988D01*
X22265624Y-9192547D01*
X22287784Y-9204298D01*
X22308980Y-9218069D01*
X22328966Y-9233693D01*
X22347495Y-9250999D01*
X22364324Y-9269818D01*
X22374065Y-9282546D01*
X22388144Y-9303934D01*
X22400085Y-9325979D01*
X22410019Y-9348993D01*
X22418075Y-9373288D01*
X22424384Y-9399176D01*
X22425781Y-9406350D01*
X22428485Y-9420955D01*
X22428895Y-10621105D01*
X22428917Y-10687701D01*
X22428938Y-10751805D01*
X22428958Y-10813465D01*
X22428977Y-10872729D01*
X22428994Y-10929646D01*
X22429009Y-10984262D01*
X22429023Y-11036627D01*
X22429035Y-11086788D01*
X22429045Y-11134793D01*
X22429053Y-11180690D01*
X22429060Y-11224528D01*
X22429064Y-11266354D01*
X22429066Y-11306217D01*
X22429067Y-11344164D01*
X22429065Y-11380243D01*
X22429061Y-11414503D01*
X22429054Y-11446992D01*
X22429045Y-11477757D01*
X22429034Y-11506846D01*
X22429020Y-11534308D01*
X22429004Y-11560191D01*
X22428985Y-11584543D01*
X22428963Y-11607411D01*
X22428938Y-11628844D01*
X22428911Y-11648890D01*
X22428881Y-11667597D01*
X22428847Y-11685012D01*
X22428811Y-11701185D01*
X22428771Y-11716162D01*
X22428728Y-11729992D01*
X22428682Y-11742723D01*
X22428633Y-11754404D01*
X22428580Y-11765081D01*
X22428524Y-11774803D01*
X22428464Y-11783619D01*
X22428401Y-11791576D01*
X22428334Y-11798721D01*
X22428263Y-11805104D01*
X22428188Y-11810773D01*
X22428110Y-11815774D01*
X22428027Y-11820157D01*
X22427941Y-11823969D01*
X22427850Y-11827259D01*
X22427756Y-11830074D01*
X22427657Y-11832462D01*
X22427554Y-11834472D01*
X22427446Y-11836152D01*
X22427334Y-11837549D01*
X22427218Y-11838711D01*
X22427180Y-11839035D01*
X22422706Y-11866037D01*
X22415864Y-11892207D01*
X22406709Y-11917433D01*
X22395298Y-11941601D01*
X22381687Y-11964600D01*
X22365933Y-11986318D01*
X22348091Y-12006643D01*
X22338225Y-12016418D01*
X22318379Y-12033488D01*
X22297143Y-12048469D01*
X22274467Y-12061388D01*
X22250304Y-12072273D01*
X22224604Y-12081150D01*
X22217080Y-12083292D01*
X22199935Y-12087955D01*
X14480240Y-12088158D01*
X14306064Y-12088163D01*
X14134411Y-12088167D01*
X13965263Y-12088171D01*
X13798604Y-12088175D01*
X13634417Y-12088178D01*
X13472684Y-12088182D01*
X13313389Y-12088185D01*
X13156513Y-12088188D01*
X13002041Y-12088191D01*
X12849955Y-12088193D01*
X12700237Y-12088195D01*
X12552871Y-12088197D01*
X12407840Y-12088199D01*
X12265127Y-12088200D01*
X12124713Y-12088202D01*
X11986584Y-12088202D01*
X11850720Y-12088203D01*
X11717105Y-12088204D01*
X11585722Y-12088204D01*
X11456554Y-12088203D01*
X11329584Y-12088203D01*
X11204794Y-12088202D01*
X11082168Y-12088201D01*
X10961688Y-12088200D01*
X10843337Y-12088198D01*
X10727099Y-12088197D01*
X10612955Y-12088194D01*
X10500889Y-12088192D01*
X10390885Y-12088189D01*
X10282923Y-12088186D01*
X10176989Y-12088183D01*
X10073063Y-12088179D01*
X9971130Y-12088175D01*
X9871173Y-12088171D01*
X9773173Y-12088166D01*
X9677114Y-12088161D01*
X9582979Y-12088156D01*
X9490751Y-12088150D01*
X9400413Y-12088144D01*
X9311947Y-12088137D01*
X9225336Y-12088131D01*
X9140564Y-12088124D01*
X9057613Y-12088116D01*
X8976465Y-12088109D01*
X8897105Y-12088101D01*
X8819515Y-12088092D01*
X8743677Y-12088083D01*
X8669575Y-12088074D01*
X8597191Y-12088065D01*
X8526509Y-12088055D01*
X8457511Y-12088044D01*
X8390180Y-12088034D01*
X8324499Y-12088023D01*
X8260451Y-12088011D01*
X8198019Y-12087999D01*
X8137185Y-12087987D01*
X8077933Y-12087974D01*
X8020246Y-12087961D01*
X7964105Y-12087948D01*
X7909495Y-12087934D01*
X7856398Y-12087920D01*
X7804797Y-12087905D01*
X7754675Y-12087890D01*
X7706015Y-12087875D01*
X7658799Y-12087859D01*
X7613011Y-12087842D01*
X7568633Y-12087826D01*
X7525648Y-12087809D01*
X7484040Y-12087791D01*
X7443790Y-12087773D01*
X7404883Y-12087754D01*
X7367300Y-12087735D01*
X7331025Y-12087716D01*
X7296041Y-12087696D01*
X7262330Y-12087676D01*
X7229875Y-12087655D01*
X7198660Y-12087634D01*
X7168667Y-12087612D01*
X7139879Y-12087590D01*
X7112278Y-12087567D01*
X7085849Y-12087544D01*
X7060573Y-12087521D01*
X7036434Y-12087497D01*
X7013414Y-12087472D01*
X6991497Y-12087447D01*
X6970664Y-12087422D01*
X6950900Y-12087396D01*
X6932187Y-12087369D01*
X6914508Y-12087342D01*
X6897845Y-12087315D01*
X6882182Y-12087287D01*
X6867501Y-12087258D01*
X6853786Y-12087229D01*
X6841020Y-12087200D01*
X6829184Y-12087170D01*
X6818262Y-12087139D01*
X6808238Y-12087108D01*
X6799093Y-12087076D01*
X6790811Y-12087044D01*
X6783374Y-12087011D01*
X6776766Y-12086978D01*
X6770970Y-12086944D01*
X6765967Y-12086910D01*
X6761742Y-12086875D01*
X6758277Y-12086840D01*
X6755554Y-12086804D01*
X6753558Y-12086767D01*
X6752270Y-12086730D01*
X6751673Y-12086692D01*
X6751655Y-12086689D01*
X6727988Y-12081004D01*
X6704442Y-12072930D01*
X6681335Y-12062610D01*
X6658982Y-12050187D01*
X6637701Y-12035805D01*
X6635450Y-12034118D01*
X6628386Y-12028360D01*
X6620294Y-12021089D01*
X6611679Y-12012818D01*
X6603045Y-12004059D01*
X6594899Y-11995324D01*
X6587745Y-11987126D01*
X6582251Y-11980195D01*
X6569233Y-11961311D01*
X6558071Y-11942300D01*
X6548583Y-11922732D01*
X6540585Y-11902180D01*
X6533896Y-11880212D01*
X6528334Y-11856401D01*
X6527166Y-11850465D01*
X6526845Y-11848749D01*
X6526551Y-11847039D01*
X6526282Y-11845223D01*
X6526037Y-11843188D01*
X6525814Y-11840822D01*
X6525613Y-11838011D01*
X6525431Y-11834643D01*
X6525268Y-11830606D01*
X6525121Y-11825786D01*
X6524991Y-11820071D01*
X6524875Y-11813348D01*
X6524771Y-11805504D01*
X6524679Y-11796427D01*
X6524598Y-11786004D01*
X6524525Y-11774123D01*
X6524459Y-11760669D01*
X6524400Y-11745532D01*
X6524345Y-11728598D01*
X6524293Y-11709754D01*
X6524244Y-11688888D01*
X6524194Y-11665886D01*
X6524145Y-11640637D01*
X6524092Y-11613028D01*
X6524060Y-11595512D01*
X6524006Y-11566463D01*
X6523955Y-11539846D01*
X6523906Y-11515557D01*
X6523858Y-11493488D01*
X6523809Y-11473534D01*
X6523757Y-11455587D01*
X6523703Y-11439542D01*
X6523643Y-11425292D01*
X6523578Y-11412730D01*
X6523505Y-11401750D01*
X6523424Y-11392246D01*
X6523333Y-11384110D01*
X6523231Y-11377238D01*
X6523116Y-11371521D01*
X6522988Y-11366854D01*
X6522845Y-11363131D01*
X6522685Y-11360245D01*
X6522507Y-11358089D01*
X6522310Y-11356557D01*
X6522094Y-11355542D01*
X6521855Y-11354939D01*
X6521594Y-11354640D01*
X6521308Y-11354539D01*
X6521112Y-11354530D01*
X6520934Y-11354512D01*
X6520765Y-11354416D01*
X6520604Y-11354181D01*
X6520452Y-11353745D01*
X6520307Y-11353046D01*
X6520170Y-11352024D01*
X6520041Y-11350615D01*
X6519919Y-11348759D01*
X6519804Y-11346393D01*
X6519696Y-11343457D01*
X6519595Y-11339888D01*
X6519500Y-11335625D01*
X6519412Y-11330606D01*
X6519330Y-11324769D01*
X6519253Y-11318053D01*
X6519182Y-11310397D01*
X6519117Y-11301738D01*
X6519056Y-11292014D01*
X6519001Y-11281165D01*
X6518951Y-11269128D01*
X6518905Y-11255842D01*
X6518863Y-11241245D01*
X6518825Y-11225276D01*
X6518792Y-11207873D01*
X6518762Y-11188973D01*
X6518735Y-11168516D01*
X6518712Y-11146440D01*
X6518692Y-11122683D01*
X6518675Y-11097184D01*
X6518660Y-11069880D01*
X6518648Y-11040711D01*
X6518638Y-11009614D01*
X6518630Y-10976528D01*
X6518623Y-10941391D01*
X6518618Y-10904142D01*
X6518615Y-10864718D01*
X6518613Y-10823059D01*
X6518611Y-10779102D01*
X6518610Y-10732786D01*
X6518610Y-10684049D01*
X6518610Y-10585294D01*
X6518610Y-10536722D01*
X6518611Y-10490566D01*
X6518613Y-10446765D01*
X6518615Y-10405258D01*
X6518619Y-10365982D01*
X6518624Y-10328877D01*
X6518630Y-10293879D01*
X6518638Y-10260928D01*
X6518648Y-10229963D01*
X6518661Y-10200921D01*
X6518676Y-10173740D01*
X6518693Y-10148359D01*
X6518714Y-10124717D01*
X6518737Y-10102752D01*
X6518764Y-10082401D01*
X6518794Y-10063604D01*
X6518828Y-10046299D01*
X6518865Y-10030424D01*
X6518907Y-10015917D01*
X6518954Y-10002716D01*
X6519004Y-9990761D01*
X6519060Y-9979989D01*
X6519121Y-9970339D01*
X6519187Y-9961749D01*
X6519258Y-9954158D01*
X6519335Y-9947503D01*
X6519418Y-9941723D01*
X6519506Y-9936757D01*
X6519602Y-9932542D01*
X6519703Y-9929018D01*
X6519812Y-9926121D01*
X6519927Y-9923792D01*
X6520049Y-9921968D01*
X6520179Y-9920587D01*
X6520316Y-9919588D01*
X6520462Y-9918909D01*
X6520615Y-9918488D01*
X6520776Y-9918264D01*
X6520946Y-9918175D01*
X6521113Y-9918160D01*
X9819340Y-9918160D01*
X9819340Y-11343100D01*
X19120820Y-11343100D01*
X19120820Y-10128980D01*
X21814490Y-10128980D01*
X21814490Y-11104340D01*
X22427900Y-11104340D01*
X22427900Y-10128980D01*
X21814490Y-10128980D01*
X19120820Y-10128980D01*
X19120820Y-9918160D01*
X9819340Y-9918160D01*
X6521113Y-9918160D01*
X6521411Y-9918131D01*
X6521684Y-9917974D01*
X6521935Y-9917584D01*
X6522163Y-9916856D01*
X6522371Y-9915686D01*
X6522559Y-9913967D01*
X6522730Y-9911596D01*
X6522884Y-9908468D01*
X6523022Y-9904477D01*
X6523145Y-9899518D01*
X6523256Y-9893487D01*
X6523355Y-9886279D01*
X6523443Y-9877788D01*
X6523522Y-9867911D01*
X6523593Y-9856541D01*
X6523657Y-9843574D01*
X6523715Y-9828905D01*
X6523769Y-9812429D01*
X6523820Y-9794041D01*
X6523870Y-9773636D01*
X6523918Y-9751110D01*
X6523968Y-9726356D01*
X6524019Y-9699272D01*
X6524073Y-9670193D01*
X6524128Y-9640686D01*
X6524180Y-9613608D01*
X6524230Y-9588847D01*
X6524280Y-9566293D01*
X6524331Y-9545834D01*
X6524384Y-9527358D01*
X6524441Y-9510755D01*
X6524503Y-9495913D01*
X6524571Y-9482721D01*
X6524646Y-9471068D01*
X6524731Y-9460842D01*
X6524825Y-9451933D01*
X6524931Y-9444228D01*
X6525049Y-9437617D01*
X6525182Y-9431989D01*
X6525330Y-9427231D01*
X6525494Y-9423234D01*
X6525677Y-9419885D01*
X6525878Y-9417074D01*
X6526100Y-9414689D01*
X6526344Y-9412619D01*
X6526611Y-9410752D01*
X6526902Y-9408978D01*
X6527142Y-9407620D01*
X6533271Y-9379883D01*
X6541486Y-9353582D01*
X6551806Y-9328680D01*
X6564248Y-9305141D01*
X6578828Y-9282928D01*
X6595563Y-9262004D01*
X6595912Y-9261607D01*
X6614670Y-9242176D01*
X6634811Y-9224863D01*
X6656291Y-9209698D01*
X6679065Y-9196707D01*
X6703089Y-9185919D01*
X6728317Y-9177362D01*
X6731970Y-9176336D01*
X6745305Y-9172685D01*
X14476200Y-9172677D01*
X22207095Y-9172670D01*
X22219390Y-9175788D01*
D11*
G04 #@! TO.C,LED1*
G36*
X10224084Y-14345400D02*
X10256084Y-14345400D01*
X10256084Y-14845400D01*
X10224084Y-14845400D01*
X10224084Y-14345400D01*
G37*
X10224084Y-14345400D02*
X10256084Y-14345400D01*
X10256084Y-14845400D01*
X10224084Y-14845400D01*
X10224084Y-14345400D01*
G36*
X10484084Y-14725400D02*
X10484084Y-14345400D01*
X10254084Y-14345400D01*
X10254084Y-14845400D01*
X10484084Y-14845400D01*
X10484084Y-14725400D01*
G37*
X10484084Y-14725400D02*
X10484084Y-14345400D01*
X10254084Y-14345400D01*
X10254084Y-14845400D01*
X10484084Y-14845400D01*
X10484084Y-14725400D01*
G36*
X10224084Y-14845400D02*
X9884084Y-14595400D01*
X10224084Y-14345400D01*
X10224084Y-14845400D01*
G37*
X10224084Y-14845400D02*
X9884084Y-14595400D01*
X10224084Y-14345400D01*
X10224084Y-14845400D01*
G36*
X10223084Y-10900000D02*
X9883084Y-10650000D01*
X10223084Y-10400000D01*
X10223084Y-10900000D01*
G37*
X10223084Y-10900000D02*
X9883084Y-10650000D01*
X10223084Y-10400000D01*
X10223084Y-10900000D01*
G36*
X10483084Y-10780000D02*
X10483084Y-10400000D01*
X10253084Y-10400000D01*
X10253084Y-10900000D01*
X10483084Y-10900000D01*
X10483084Y-10780000D01*
G37*
X10483084Y-10780000D02*
X10483084Y-10400000D01*
X10253084Y-10400000D01*
X10253084Y-10900000D01*
X10483084Y-10900000D01*
X10483084Y-10780000D01*
G36*
X10223084Y-10400000D02*
X10255084Y-10400000D01*
X10255084Y-10900000D01*
X10223084Y-10900000D01*
X10223084Y-10400000D01*
G37*
X10223084Y-10400000D02*
X10255084Y-10400000D01*
X10255084Y-10900000D01*
X10223084Y-10900000D01*
X10223084Y-10400000D01*
G04 #@! TD*
D12*
G04 #@! TO.C,DRAWING1*
X22425691Y-16496270D03*
X22425691Y-12551194D03*
X22424444Y-12624782D03*
X22424147Y-15197135D03*
X22424147Y-15114101D03*
X22424147Y-15031068D03*
X22424147Y-14083299D03*
X22424147Y-14000264D03*
X22424147Y-13917231D03*
X22424147Y-16281562D03*
X22424147Y-16426136D03*
X22424147Y-16353849D03*
X22424147Y-12695502D03*
X22424147Y-12840076D03*
X22424147Y-12767789D03*
G04 #@! TD*
G04 #@! TO.C,DRAWING1*
X22424691Y-12550870D03*
X22424691Y-8605794D03*
X22423444Y-8679382D03*
X22423147Y-11251735D03*
X22423147Y-11168701D03*
X22423147Y-11085668D03*
X22423147Y-10137899D03*
X22423147Y-10054864D03*
X22423147Y-9971831D03*
X22423147Y-12336162D03*
X22423147Y-12480736D03*
X22423147Y-12408449D03*
X22423147Y-8750102D03*
X22423147Y-8894676D03*
X22423147Y-8822389D03*
G04 #@! TD*
D11*
G04 #@! TO.C,LED2*
G36*
X11089850Y-14838520D02*
X11092277Y-14838880D01*
X11094657Y-14839476D01*
X11096967Y-14840303D01*
X11099185Y-14841352D01*
X11101289Y-14842613D01*
X11103260Y-14844075D01*
X11105078Y-14845722D01*
X11106725Y-14847540D01*
X11108187Y-14849511D01*
X11109448Y-14851615D01*
X11110497Y-14853833D01*
X11111324Y-14856143D01*
X11111920Y-14858523D01*
X11112280Y-14860950D01*
X11112400Y-14863400D01*
X11112400Y-14917400D01*
X11112280Y-14919850D01*
X11111920Y-14922277D01*
X11111324Y-14924657D01*
X11110497Y-14926967D01*
X11109448Y-14929185D01*
X11108187Y-14931289D01*
X11106725Y-14933260D01*
X11105078Y-14935078D01*
X11103260Y-14936725D01*
X11101289Y-14938187D01*
X11099185Y-14939448D01*
X11096967Y-14940497D01*
X11094657Y-14941323D01*
X11092277Y-14941920D01*
X11089850Y-14942280D01*
X11087400Y-14942400D01*
X11037400Y-14942400D01*
X11034950Y-14942280D01*
X11032523Y-14941920D01*
X11030143Y-14941323D01*
X11027833Y-14940497D01*
X11025615Y-14939448D01*
X11023511Y-14938187D01*
X11021540Y-14936725D01*
X11019722Y-14935078D01*
X11018075Y-14933260D01*
X11016613Y-14931289D01*
X11015352Y-14929185D01*
X11014303Y-14926967D01*
X11013477Y-14924657D01*
X11012880Y-14922277D01*
X11012520Y-14919850D01*
X11012400Y-14917400D01*
X11012400Y-14863400D01*
X11012520Y-14860950D01*
X11012880Y-14858523D01*
X11013477Y-14856143D01*
X11014303Y-14853833D01*
X11015352Y-14851615D01*
X11016613Y-14849511D01*
X11018075Y-14847540D01*
X11019722Y-14845722D01*
X11021540Y-14844075D01*
X11023511Y-14842613D01*
X11025615Y-14841352D01*
X11027833Y-14840303D01*
X11030143Y-14839476D01*
X11032523Y-14838880D01*
X11034950Y-14838520D01*
X11037400Y-14838400D01*
X11087400Y-14838400D01*
X11089850Y-14838520D01*
X11089850Y-14838520D01*
G37*
D13*
X11062400Y-14890400D03*
D11*
G36*
X10993850Y-14838520D02*
X10996277Y-14838880D01*
X10998657Y-14839476D01*
X11000967Y-14840303D01*
X11003185Y-14841352D01*
X11005289Y-14842613D01*
X11007260Y-14844075D01*
X11009078Y-14845722D01*
X11010725Y-14847540D01*
X11012187Y-14849511D01*
X11013448Y-14851615D01*
X11014497Y-14853833D01*
X11015324Y-14856143D01*
X11015920Y-14858523D01*
X11016280Y-14860950D01*
X11016400Y-14863400D01*
X11016400Y-14917400D01*
X11016280Y-14919850D01*
X11015920Y-14922277D01*
X11015324Y-14924657D01*
X11014497Y-14926967D01*
X11013448Y-14929185D01*
X11012187Y-14931289D01*
X11010725Y-14933260D01*
X11009078Y-14935078D01*
X11007260Y-14936725D01*
X11005289Y-14938187D01*
X11003185Y-14939448D01*
X11000967Y-14940497D01*
X10998657Y-14941323D01*
X10996277Y-14941920D01*
X10993850Y-14942280D01*
X10991400Y-14942400D01*
X10941400Y-14942400D01*
X10938950Y-14942280D01*
X10936523Y-14941920D01*
X10934143Y-14941323D01*
X10931833Y-14940497D01*
X10929615Y-14939448D01*
X10927511Y-14938187D01*
X10925540Y-14936725D01*
X10923722Y-14935078D01*
X10922075Y-14933260D01*
X10920613Y-14931289D01*
X10919352Y-14929185D01*
X10918303Y-14926967D01*
X10917477Y-14924657D01*
X10916880Y-14922277D01*
X10916520Y-14919850D01*
X10916400Y-14917400D01*
X10916400Y-14863400D01*
X10916520Y-14860950D01*
X10916880Y-14858523D01*
X10917477Y-14856143D01*
X10918303Y-14853833D01*
X10919352Y-14851615D01*
X10920613Y-14849511D01*
X10922075Y-14847540D01*
X10923722Y-14845722D01*
X10925540Y-14844075D01*
X10927511Y-14842613D01*
X10929615Y-14841352D01*
X10931833Y-14840303D01*
X10934143Y-14839476D01*
X10936523Y-14838880D01*
X10938950Y-14838520D01*
X10941400Y-14838400D01*
X10991400Y-14838400D01*
X10993850Y-14838520D01*
X10993850Y-14838520D01*
G37*
D13*
X10966400Y-14890400D03*
G04 #@! TD*
D11*
G04 #@! TO.C,LED3*
G36*
X11083149Y-14635603D02*
X11086244Y-14636062D01*
X11089278Y-14636822D01*
X11092223Y-14637876D01*
X11095051Y-14639214D01*
X11097734Y-14640822D01*
X11100246Y-14642685D01*
X11102564Y-14644786D01*
X11104665Y-14647104D01*
X11106528Y-14649616D01*
X11108136Y-14652299D01*
X11109474Y-14655127D01*
X11110528Y-14658072D01*
X11111288Y-14661106D01*
X11111747Y-14664201D01*
X11111900Y-14667325D01*
X11111900Y-14738575D01*
X11111747Y-14741699D01*
X11111288Y-14744793D01*
X11110528Y-14747828D01*
X11109474Y-14750773D01*
X11108136Y-14753601D01*
X11106528Y-14756284D01*
X11104665Y-14758796D01*
X11102564Y-14761114D01*
X11100246Y-14763215D01*
X11097734Y-14765078D01*
X11095051Y-14766686D01*
X11092223Y-14768024D01*
X11089278Y-14769077D01*
X11086244Y-14769837D01*
X11083149Y-14770296D01*
X11080025Y-14770450D01*
X11016275Y-14770450D01*
X11013151Y-14770296D01*
X11010057Y-14769837D01*
X11007022Y-14769077D01*
X11004077Y-14768024D01*
X11001249Y-14766686D01*
X10998566Y-14765078D01*
X10996054Y-14763215D01*
X10993736Y-14761114D01*
X10991635Y-14758796D01*
X10989772Y-14756284D01*
X10988164Y-14753601D01*
X10986826Y-14750773D01*
X10985773Y-14747828D01*
X10985013Y-14744793D01*
X10984554Y-14741699D01*
X10984400Y-14738575D01*
X10984400Y-14667325D01*
X10984554Y-14664201D01*
X10985013Y-14661106D01*
X10985773Y-14658072D01*
X10986826Y-14655127D01*
X10988164Y-14652299D01*
X10989772Y-14649616D01*
X10991635Y-14647104D01*
X10993736Y-14644786D01*
X10996054Y-14642685D01*
X10998566Y-14640822D01*
X11001249Y-14639214D01*
X11004077Y-14637876D01*
X11007022Y-14636822D01*
X11010057Y-14636062D01*
X11013151Y-14635603D01*
X11016275Y-14635450D01*
X11080025Y-14635450D01*
X11083149Y-14635603D01*
X11083149Y-14635603D01*
G37*
D14*
X11048150Y-14702950D03*
D11*
G36*
X10925649Y-14635603D02*
X10928744Y-14636062D01*
X10931778Y-14636822D01*
X10934723Y-14637876D01*
X10937551Y-14639214D01*
X10940234Y-14640822D01*
X10942746Y-14642685D01*
X10945064Y-14644786D01*
X10947165Y-14647104D01*
X10949028Y-14649616D01*
X10950636Y-14652299D01*
X10951974Y-14655127D01*
X10953028Y-14658072D01*
X10953788Y-14661106D01*
X10954247Y-14664201D01*
X10954400Y-14667325D01*
X10954400Y-14738575D01*
X10954247Y-14741699D01*
X10953788Y-14744793D01*
X10953028Y-14747828D01*
X10951974Y-14750773D01*
X10950636Y-14753601D01*
X10949028Y-14756284D01*
X10947165Y-14758796D01*
X10945064Y-14761114D01*
X10942746Y-14763215D01*
X10940234Y-14765078D01*
X10937551Y-14766686D01*
X10934723Y-14768024D01*
X10931778Y-14769077D01*
X10928744Y-14769837D01*
X10925649Y-14770296D01*
X10922525Y-14770450D01*
X10858775Y-14770450D01*
X10855651Y-14770296D01*
X10852557Y-14769837D01*
X10849522Y-14769077D01*
X10846577Y-14768024D01*
X10843749Y-14766686D01*
X10841066Y-14765078D01*
X10838554Y-14763215D01*
X10836236Y-14761114D01*
X10834135Y-14758796D01*
X10832272Y-14756284D01*
X10830664Y-14753601D01*
X10829326Y-14750773D01*
X10828273Y-14747828D01*
X10827513Y-14744793D01*
X10827054Y-14741699D01*
X10826900Y-14738575D01*
X10826900Y-14667325D01*
X10827054Y-14664201D01*
X10827513Y-14661106D01*
X10828273Y-14658072D01*
X10829326Y-14655127D01*
X10830664Y-14652299D01*
X10832272Y-14649616D01*
X10834135Y-14647104D01*
X10836236Y-14644786D01*
X10838554Y-14642685D01*
X10841066Y-14640822D01*
X10843749Y-14639214D01*
X10846577Y-14637876D01*
X10849522Y-14636822D01*
X10852557Y-14636062D01*
X10855651Y-14635603D01*
X10858775Y-14635450D01*
X10922525Y-14635450D01*
X10925649Y-14635603D01*
X10925649Y-14635603D01*
G37*
D14*
X10890650Y-14702950D03*
G04 #@! TD*
D11*
G04 #@! TO.C,LED4*
G36*
X11051507Y-14405962D02*
X11054778Y-14406447D01*
X11057986Y-14407251D01*
X11061099Y-14408365D01*
X11064088Y-14409779D01*
X11066925Y-14411479D01*
X11069581Y-14413448D01*
X11072031Y-14415669D01*
X11074252Y-14418119D01*
X11076221Y-14420775D01*
X11077921Y-14423612D01*
X11079335Y-14426601D01*
X11080449Y-14429714D01*
X11081253Y-14432922D01*
X11081738Y-14436193D01*
X11081900Y-14439496D01*
X11081900Y-14552104D01*
X11081738Y-14555407D01*
X11081253Y-14558678D01*
X11080449Y-14561886D01*
X11079335Y-14564999D01*
X11077921Y-14567988D01*
X11076221Y-14570825D01*
X11074252Y-14573481D01*
X11072031Y-14575931D01*
X11069581Y-14578151D01*
X11066925Y-14580121D01*
X11064088Y-14581821D01*
X11061099Y-14583235D01*
X11057986Y-14584349D01*
X11054778Y-14585152D01*
X11051507Y-14585638D01*
X11048204Y-14585800D01*
X10960596Y-14585800D01*
X10957293Y-14585638D01*
X10954022Y-14585152D01*
X10950814Y-14584349D01*
X10947701Y-14583235D01*
X10944712Y-14581821D01*
X10941875Y-14580121D01*
X10939219Y-14578151D01*
X10936769Y-14575931D01*
X10934549Y-14573481D01*
X10932579Y-14570825D01*
X10930879Y-14567988D01*
X10929465Y-14564999D01*
X10928351Y-14561886D01*
X10927548Y-14558678D01*
X10927062Y-14555407D01*
X10926900Y-14552104D01*
X10926900Y-14439496D01*
X10927062Y-14436193D01*
X10927548Y-14432922D01*
X10928351Y-14429714D01*
X10929465Y-14426601D01*
X10930879Y-14423612D01*
X10932579Y-14420775D01*
X10934549Y-14418119D01*
X10936769Y-14415669D01*
X10939219Y-14413448D01*
X10941875Y-14411479D01*
X10944712Y-14409779D01*
X10947701Y-14408365D01*
X10950814Y-14407251D01*
X10954022Y-14406447D01*
X10957293Y-14405962D01*
X10960596Y-14405800D01*
X11048204Y-14405800D01*
X11051507Y-14405962D01*
X11051507Y-14405962D01*
G37*
D15*
X11004400Y-14495800D03*
D11*
G36*
X10881507Y-14405962D02*
X10884778Y-14406447D01*
X10887986Y-14407251D01*
X10891099Y-14408365D01*
X10894088Y-14409779D01*
X10896925Y-14411479D01*
X10899581Y-14413448D01*
X10902031Y-14415669D01*
X10904252Y-14418119D01*
X10906221Y-14420775D01*
X10907921Y-14423612D01*
X10909335Y-14426601D01*
X10910449Y-14429714D01*
X10911253Y-14432922D01*
X10911738Y-14436193D01*
X10911900Y-14439496D01*
X10911900Y-14552104D01*
X10911738Y-14555407D01*
X10911253Y-14558678D01*
X10910449Y-14561886D01*
X10909335Y-14564999D01*
X10907921Y-14567988D01*
X10906221Y-14570825D01*
X10904252Y-14573481D01*
X10902031Y-14575931D01*
X10899581Y-14578151D01*
X10896925Y-14580121D01*
X10894088Y-14581821D01*
X10891099Y-14583235D01*
X10887986Y-14584349D01*
X10884778Y-14585152D01*
X10881507Y-14585638D01*
X10878204Y-14585800D01*
X10790596Y-14585800D01*
X10787293Y-14585638D01*
X10784022Y-14585152D01*
X10780814Y-14584349D01*
X10777701Y-14583235D01*
X10774712Y-14581821D01*
X10771875Y-14580121D01*
X10769219Y-14578151D01*
X10766769Y-14575931D01*
X10764549Y-14573481D01*
X10762579Y-14570825D01*
X10760879Y-14567988D01*
X10759465Y-14564999D01*
X10758351Y-14561886D01*
X10757548Y-14558678D01*
X10757062Y-14555407D01*
X10756900Y-14552104D01*
X10756900Y-14439496D01*
X10757062Y-14436193D01*
X10757548Y-14432922D01*
X10758351Y-14429714D01*
X10759465Y-14426601D01*
X10760879Y-14423612D01*
X10762579Y-14420775D01*
X10764549Y-14418119D01*
X10766769Y-14415669D01*
X10769219Y-14413448D01*
X10771875Y-14411479D01*
X10774712Y-14409779D01*
X10777701Y-14408365D01*
X10780814Y-14407251D01*
X10784022Y-14406447D01*
X10787293Y-14405962D01*
X10790596Y-14405800D01*
X10878204Y-14405800D01*
X10881507Y-14405962D01*
X10881507Y-14405962D01*
G37*
D15*
X10834400Y-14495800D03*
G04 #@! TD*
D11*
G04 #@! TO.C,LED5*
G36*
X11042135Y-14134709D02*
X11045338Y-14135184D01*
X11048479Y-14135971D01*
X11051529Y-14137062D01*
X11054456Y-14138447D01*
X11057234Y-14140111D01*
X11059835Y-14142041D01*
X11062235Y-14144215D01*
X11064409Y-14146615D01*
X11066339Y-14149216D01*
X11068003Y-14151994D01*
X11069388Y-14154921D01*
X11070479Y-14157971D01*
X11071266Y-14161112D01*
X11071741Y-14164315D01*
X11071900Y-14167550D01*
X11071900Y-14316550D01*
X11071741Y-14319785D01*
X11071266Y-14322988D01*
X11070479Y-14326129D01*
X11069388Y-14329179D01*
X11068003Y-14332106D01*
X11066339Y-14334884D01*
X11064409Y-14337485D01*
X11062235Y-14339884D01*
X11059835Y-14342059D01*
X11057234Y-14343988D01*
X11054456Y-14345653D01*
X11051529Y-14347038D01*
X11048479Y-14348129D01*
X11045338Y-14348916D01*
X11042135Y-14349391D01*
X11038900Y-14349550D01*
X10939900Y-14349550D01*
X10936665Y-14349391D01*
X10933462Y-14348916D01*
X10930321Y-14348129D01*
X10927271Y-14347038D01*
X10924344Y-14345653D01*
X10921566Y-14343988D01*
X10918965Y-14342059D01*
X10916566Y-14339884D01*
X10914391Y-14337485D01*
X10912462Y-14334884D01*
X10910797Y-14332106D01*
X10909412Y-14329179D01*
X10908321Y-14326129D01*
X10907534Y-14322988D01*
X10907059Y-14319785D01*
X10906900Y-14316550D01*
X10906900Y-14167550D01*
X10907059Y-14164315D01*
X10907534Y-14161112D01*
X10908321Y-14157971D01*
X10909412Y-14154921D01*
X10910797Y-14151994D01*
X10912462Y-14149216D01*
X10914391Y-14146615D01*
X10916566Y-14144215D01*
X10918965Y-14142041D01*
X10921566Y-14140111D01*
X10924344Y-14138447D01*
X10927271Y-14137062D01*
X10930321Y-14135971D01*
X10933462Y-14135184D01*
X10936665Y-14134709D01*
X10939900Y-14134550D01*
X11038900Y-14134550D01*
X11042135Y-14134709D01*
X11042135Y-14134709D01*
G37*
D16*
X10989400Y-14242050D03*
D11*
G36*
X10762135Y-14134709D02*
X10765338Y-14135184D01*
X10768479Y-14135971D01*
X10771529Y-14137062D01*
X10774456Y-14138447D01*
X10777234Y-14140111D01*
X10779835Y-14142041D01*
X10782235Y-14144215D01*
X10784409Y-14146615D01*
X10786339Y-14149216D01*
X10788003Y-14151994D01*
X10789388Y-14154921D01*
X10790479Y-14157971D01*
X10791266Y-14161112D01*
X10791741Y-14164315D01*
X10791900Y-14167550D01*
X10791900Y-14316550D01*
X10791741Y-14319785D01*
X10791266Y-14322988D01*
X10790479Y-14326129D01*
X10789388Y-14329179D01*
X10788003Y-14332106D01*
X10786339Y-14334884D01*
X10784409Y-14337485D01*
X10782235Y-14339884D01*
X10779835Y-14342059D01*
X10777234Y-14343988D01*
X10774456Y-14345653D01*
X10771529Y-14347038D01*
X10768479Y-14348129D01*
X10765338Y-14348916D01*
X10762135Y-14349391D01*
X10758900Y-14349550D01*
X10659900Y-14349550D01*
X10656665Y-14349391D01*
X10653462Y-14348916D01*
X10650321Y-14348129D01*
X10647271Y-14347038D01*
X10644344Y-14345653D01*
X10641566Y-14343988D01*
X10638965Y-14342059D01*
X10636566Y-14339884D01*
X10634391Y-14337485D01*
X10632462Y-14334884D01*
X10630797Y-14332106D01*
X10629412Y-14329179D01*
X10628321Y-14326129D01*
X10627534Y-14322988D01*
X10627059Y-14319785D01*
X10626900Y-14316550D01*
X10626900Y-14167550D01*
X10627059Y-14164315D01*
X10627534Y-14161112D01*
X10628321Y-14157971D01*
X10629412Y-14154921D01*
X10630797Y-14151994D01*
X10632462Y-14149216D01*
X10634391Y-14146615D01*
X10636566Y-14144215D01*
X10638965Y-14142041D01*
X10641566Y-14140111D01*
X10644344Y-14138447D01*
X10647271Y-14137062D01*
X10650321Y-14135971D01*
X10653462Y-14135184D01*
X10656665Y-14134709D01*
X10659900Y-14134550D01*
X10758900Y-14134550D01*
X10762135Y-14134709D01*
X10762135Y-14134709D01*
G37*
D16*
X10709400Y-14242050D03*
G04 #@! TD*
D17*
G04 #@! TO.C,D3*
X13128000Y-14864400D03*
X12448000Y-14864400D03*
G04 #@! TD*
D18*
G04 #@! TO.C,SW5*
X18466100Y-14679800D03*
X18891100Y-14679800D03*
X18466100Y-15029800D03*
X18891100Y-15029800D03*
D19*
X18431100Y-15029800D03*
X18926100Y-14679800D03*
X18431100Y-14679800D03*
X18926100Y-15029800D03*
G04 #@! TD*
D20*
G04 #@! TO.C,SW8*
X17342900Y-14881200D03*
X17342900Y-14181200D03*
G04 #@! TD*
D21*
G04 #@! TO.C,D5*
X13732800Y-14945600D03*
X13522800Y-14945600D03*
G04 #@! TD*
D22*
G04 #@! TO.C,D2*
X14046000Y-14336000D03*
X13616000Y-14336000D03*
G04 #@! TD*
D23*
G04 #@! TO.C,R2*
X11665200Y-14890400D03*
X11755200Y-14890400D03*
G04 #@! TD*
D24*
G04 #@! TO.C,D6*
X13583200Y-15148800D03*
X13723200Y-15148800D03*
G04 #@! TD*
D25*
G04 #@! TO.C,R5*
X11700200Y-14241800D03*
X11990200Y-14241800D03*
G04 #@! TD*
D11*
G04 #@! TO.C,R6*
G36*
X11691415Y-15170484D02*
X11693114Y-15170736D01*
X11694780Y-15171153D01*
X11696397Y-15171732D01*
X11697949Y-15172466D01*
X11699422Y-15173349D01*
X11700802Y-15174372D01*
X11702074Y-15175526D01*
X11703228Y-15176798D01*
X11704251Y-15178177D01*
X11705134Y-15179651D01*
X11705868Y-15181203D01*
X11706446Y-15182820D01*
X11706864Y-15184486D01*
X11707116Y-15186185D01*
X11707200Y-15187900D01*
X11707200Y-15222900D01*
X11707116Y-15224615D01*
X11706864Y-15226314D01*
X11706446Y-15227980D01*
X11705868Y-15229597D01*
X11705134Y-15231149D01*
X11704251Y-15232622D01*
X11703228Y-15234002D01*
X11702074Y-15235274D01*
X11700802Y-15236428D01*
X11699422Y-15237451D01*
X11697949Y-15238334D01*
X11696397Y-15239068D01*
X11694780Y-15239646D01*
X11693114Y-15240064D01*
X11691415Y-15240316D01*
X11689700Y-15240400D01*
X11642700Y-15240400D01*
X11640985Y-15240316D01*
X11639286Y-15240064D01*
X11637620Y-15239646D01*
X11636003Y-15239068D01*
X11634451Y-15238334D01*
X11632977Y-15237451D01*
X11631598Y-15236428D01*
X11630326Y-15235274D01*
X11629172Y-15234002D01*
X11628149Y-15232622D01*
X11627266Y-15231149D01*
X11626532Y-15229597D01*
X11625953Y-15227980D01*
X11625536Y-15226314D01*
X11625284Y-15224615D01*
X11625200Y-15222900D01*
X11625200Y-15187900D01*
X11625284Y-15186185D01*
X11625536Y-15184486D01*
X11625953Y-15182820D01*
X11626532Y-15181203D01*
X11627266Y-15179651D01*
X11628149Y-15178177D01*
X11629172Y-15176798D01*
X11630326Y-15175526D01*
X11631598Y-15174372D01*
X11632977Y-15173349D01*
X11634451Y-15172466D01*
X11636003Y-15171732D01*
X11637620Y-15171153D01*
X11639286Y-15170736D01*
X11640985Y-15170484D01*
X11642700Y-15170400D01*
X11689700Y-15170400D01*
X11691415Y-15170484D01*
X11691415Y-15170484D01*
G37*
D26*
X11666200Y-15205400D03*
D11*
G36*
X11739415Y-15170484D02*
X11741114Y-15170736D01*
X11742780Y-15171153D01*
X11744397Y-15171732D01*
X11745949Y-15172466D01*
X11747422Y-15173349D01*
X11748802Y-15174372D01*
X11750074Y-15175526D01*
X11751228Y-15176798D01*
X11752251Y-15178177D01*
X11753134Y-15179651D01*
X11753868Y-15181203D01*
X11754446Y-15182820D01*
X11754864Y-15184486D01*
X11755116Y-15186185D01*
X11755200Y-15187900D01*
X11755200Y-15222900D01*
X11755116Y-15224615D01*
X11754864Y-15226314D01*
X11754446Y-15227980D01*
X11753868Y-15229597D01*
X11753134Y-15231149D01*
X11752251Y-15232622D01*
X11751228Y-15234002D01*
X11750074Y-15235274D01*
X11748802Y-15236428D01*
X11747422Y-15237451D01*
X11745949Y-15238334D01*
X11744397Y-15239068D01*
X11742780Y-15239646D01*
X11741114Y-15240064D01*
X11739415Y-15240316D01*
X11737700Y-15240400D01*
X11690700Y-15240400D01*
X11688985Y-15240316D01*
X11687286Y-15240064D01*
X11685620Y-15239646D01*
X11684003Y-15239068D01*
X11682451Y-15238334D01*
X11680977Y-15237451D01*
X11679598Y-15236428D01*
X11678326Y-15235274D01*
X11677172Y-15234002D01*
X11676149Y-15232622D01*
X11675266Y-15231149D01*
X11674532Y-15229597D01*
X11673953Y-15227980D01*
X11673536Y-15226314D01*
X11673284Y-15224615D01*
X11673200Y-15222900D01*
X11673200Y-15187900D01*
X11673284Y-15186185D01*
X11673536Y-15184486D01*
X11673953Y-15182820D01*
X11674532Y-15181203D01*
X11675266Y-15179651D01*
X11676149Y-15178177D01*
X11677172Y-15176798D01*
X11678326Y-15175526D01*
X11679598Y-15174372D01*
X11680977Y-15173349D01*
X11682451Y-15172466D01*
X11684003Y-15171732D01*
X11685620Y-15171153D01*
X11687286Y-15170736D01*
X11688985Y-15170484D01*
X11690700Y-15170400D01*
X11737700Y-15170400D01*
X11739415Y-15170484D01*
X11739415Y-15170484D01*
G37*
D26*
X11714200Y-15205400D03*
G04 #@! TD*
D27*
G04 #@! TO.C,SW6*
X15908500Y-14986200D03*
X16358500Y-14076200D03*
X15908500Y-14076200D03*
X16358500Y-14986200D03*
G04 #@! TD*
D13*
G04 #@! TO.C,LED1*
X10324000Y-14595400D03*
D11*
G36*
X10319586Y-14665243D02*
X10314703Y-14664762D01*
X10312762Y-14664475D01*
X10307950Y-14663517D01*
X10306045Y-14663040D01*
X10301350Y-14661616D01*
X10299502Y-14660955D01*
X10294969Y-14659077D01*
X10293194Y-14658238D01*
X10288867Y-14655925D01*
X10287184Y-14654916D01*
X10283104Y-14652190D01*
X10281527Y-14651020D01*
X10277734Y-14647908D01*
X10276280Y-14646590D01*
X10272810Y-14643120D01*
X10271492Y-14641666D01*
X10268380Y-14637873D01*
X10267210Y-14636296D01*
X10264484Y-14632216D01*
X10263475Y-14630533D01*
X10261162Y-14626206D01*
X10260323Y-14624431D01*
X10258445Y-14619898D01*
X10257784Y-14618050D01*
X10256360Y-14613355D01*
X10255883Y-14611450D01*
X10254925Y-14606638D01*
X10254638Y-14604697D01*
X10254157Y-14599814D01*
X10254060Y-14597853D01*
X10254060Y-14592947D01*
X10254157Y-14590986D01*
X10254638Y-14586103D01*
X10254925Y-14584162D01*
X10255883Y-14579349D01*
X10256360Y-14577445D01*
X10257784Y-14572750D01*
X10258445Y-14570902D01*
X10260323Y-14566369D01*
X10261162Y-14564594D01*
X10263475Y-14560267D01*
X10264484Y-14558584D01*
X10267210Y-14554504D01*
X10268380Y-14552927D01*
X10271492Y-14549134D01*
X10272810Y-14547680D01*
X10276280Y-14544210D01*
X10277734Y-14542892D01*
X10281527Y-14539779D01*
X10283104Y-14538610D01*
X10287184Y-14535884D01*
X10288867Y-14534875D01*
X10293194Y-14532562D01*
X10294969Y-14531723D01*
X10299502Y-14529845D01*
X10301350Y-14529184D01*
X10306045Y-14527760D01*
X10307950Y-14527283D01*
X10312762Y-14526325D01*
X10314703Y-14526037D01*
X10319586Y-14525556D01*
X10321547Y-14525460D01*
X10326453Y-14525460D01*
X10328414Y-14525556D01*
X10333297Y-14526037D01*
X10335238Y-14526325D01*
X10340051Y-14527283D01*
X10341955Y-14527760D01*
X10346650Y-14529184D01*
X10348498Y-14529845D01*
X10353031Y-14531723D01*
X10354806Y-14532562D01*
X10359133Y-14534875D01*
X10360816Y-14535884D01*
X10364896Y-14538610D01*
X10366473Y-14539779D01*
X10370266Y-14542892D01*
X10371720Y-14544210D01*
X10375190Y-14547680D01*
X10376508Y-14549134D01*
X10379621Y-14552927D01*
X10380790Y-14554504D01*
X10383516Y-14558584D01*
X10384525Y-14560267D01*
X10386838Y-14564594D01*
X10387677Y-14566369D01*
X10389555Y-14570902D01*
X10390216Y-14572750D01*
X10391640Y-14577445D01*
X10392117Y-14579349D01*
X10393075Y-14584162D01*
X10393363Y-14586103D01*
X10393844Y-14590986D01*
X10393940Y-14592947D01*
X10393940Y-14597853D01*
X10393844Y-14599814D01*
X10393363Y-14604697D01*
X10393075Y-14606638D01*
X10392117Y-14611450D01*
X10391640Y-14613355D01*
X10390216Y-14618050D01*
X10389555Y-14619898D01*
X10387677Y-14624431D01*
X10386838Y-14626206D01*
X10384525Y-14630533D01*
X10383516Y-14632216D01*
X10380790Y-14636296D01*
X10379621Y-14637873D01*
X10376508Y-14641666D01*
X10375190Y-14643120D01*
X10371720Y-14646590D01*
X10370266Y-14647908D01*
X10366473Y-14651020D01*
X10364896Y-14652190D01*
X10360816Y-14654916D01*
X10359133Y-14655925D01*
X10354806Y-14658238D01*
X10353031Y-14659077D01*
X10348498Y-14660955D01*
X10346650Y-14661616D01*
X10341955Y-14663040D01*
X10340051Y-14663517D01*
X10335238Y-14664475D01*
X10333297Y-14664762D01*
X10328414Y-14665243D01*
X10326453Y-14665340D01*
X10321547Y-14665340D01*
X10319586Y-14665243D01*
X10319586Y-14665243D01*
G37*
D13*
X10154074Y-14595400D03*
D11*
G36*
X10100172Y-14665016D02*
X10096420Y-14663878D01*
X10092963Y-14662029D01*
X10089932Y-14659542D01*
X10087445Y-14656511D01*
X10085596Y-14653054D01*
X10084458Y-14649302D01*
X10084074Y-14645400D01*
X10084074Y-14545400D01*
X10084458Y-14541498D01*
X10085596Y-14537746D01*
X10087445Y-14534289D01*
X10089932Y-14531258D01*
X10092963Y-14528771D01*
X10096420Y-14526922D01*
X10100172Y-14525784D01*
X10104074Y-14525400D01*
X10204074Y-14525400D01*
X10207976Y-14525784D01*
X10211728Y-14526922D01*
X10215185Y-14528771D01*
X10218216Y-14531258D01*
X10220703Y-14534289D01*
X10222552Y-14537746D01*
X10223690Y-14541498D01*
X10224074Y-14545400D01*
X10224074Y-14645400D01*
X10223690Y-14649302D01*
X10222552Y-14653054D01*
X10220703Y-14656511D01*
X10218216Y-14659542D01*
X10215185Y-14662029D01*
X10211728Y-14663878D01*
X10207976Y-14665016D01*
X10204074Y-14665400D01*
X10104074Y-14665400D01*
X10100172Y-14665016D01*
X10100172Y-14665016D01*
G37*
G04 #@! TD*
D28*
G04 #@! TO.C,SW2*
X16825800Y-14261200D03*
X16825800Y-14801200D03*
G04 #@! TD*
D29*
G04 #@! TO.C,SW3*
X17737400Y-14881600D03*
X18077400Y-14881600D03*
G04 #@! TD*
D30*
G04 #@! TO.C,R4*
X11690200Y-14495800D03*
X11880200Y-14495800D03*
G04 #@! TD*
D11*
G04 #@! TO.C,LED6*
G36*
X11101360Y-15015496D02*
X11103302Y-15015784D01*
X11105206Y-15016261D01*
X11107054Y-15016922D01*
X11108828Y-15017762D01*
X11110511Y-15018771D01*
X11112088Y-15019940D01*
X11113542Y-15021258D01*
X11114860Y-15022712D01*
X11116029Y-15024289D01*
X11117038Y-15025972D01*
X11117878Y-15027746D01*
X11118539Y-15029594D01*
X11119016Y-15031498D01*
X11119304Y-15033440D01*
X11119400Y-15035400D01*
X11119400Y-15075400D01*
X11119304Y-15077360D01*
X11119016Y-15079302D01*
X11118539Y-15081206D01*
X11117878Y-15083054D01*
X11117038Y-15084828D01*
X11116029Y-15086511D01*
X11114860Y-15088088D01*
X11113542Y-15089542D01*
X11112088Y-15090860D01*
X11110511Y-15092029D01*
X11108828Y-15093038D01*
X11107054Y-15093878D01*
X11105206Y-15094539D01*
X11103302Y-15095016D01*
X11101360Y-15095304D01*
X11099400Y-15095400D01*
X11050400Y-15095400D01*
X11048440Y-15095304D01*
X11046498Y-15095016D01*
X11044594Y-15094539D01*
X11042746Y-15093878D01*
X11040972Y-15093038D01*
X11039289Y-15092029D01*
X11037712Y-15090860D01*
X11036258Y-15089542D01*
X11034940Y-15088088D01*
X11033771Y-15086511D01*
X11032762Y-15084828D01*
X11031922Y-15083054D01*
X11031261Y-15081206D01*
X11030784Y-15079302D01*
X11030496Y-15077360D01*
X11030400Y-15075400D01*
X11030400Y-15035400D01*
X11030496Y-15033440D01*
X11030784Y-15031498D01*
X11031261Y-15029594D01*
X11031922Y-15027746D01*
X11032762Y-15025972D01*
X11033771Y-15024289D01*
X11034940Y-15022712D01*
X11036258Y-15021258D01*
X11037712Y-15019940D01*
X11039289Y-15018771D01*
X11040972Y-15017762D01*
X11042746Y-15016922D01*
X11044594Y-15016261D01*
X11046498Y-15015784D01*
X11048440Y-15015496D01*
X11050400Y-15015400D01*
X11099400Y-15015400D01*
X11101360Y-15015496D01*
X11101360Y-15015496D01*
G37*
D31*
X11074900Y-15055400D03*
D11*
G36*
X11040360Y-15015496D02*
X11042302Y-15015784D01*
X11044206Y-15016261D01*
X11046054Y-15016922D01*
X11047828Y-15017762D01*
X11049511Y-15018771D01*
X11051088Y-15019940D01*
X11052542Y-15021258D01*
X11053860Y-15022712D01*
X11055029Y-15024289D01*
X11056038Y-15025972D01*
X11056878Y-15027746D01*
X11057539Y-15029594D01*
X11058016Y-15031498D01*
X11058304Y-15033440D01*
X11058400Y-15035400D01*
X11058400Y-15075400D01*
X11058304Y-15077360D01*
X11058016Y-15079302D01*
X11057539Y-15081206D01*
X11056878Y-15083054D01*
X11056038Y-15084828D01*
X11055029Y-15086511D01*
X11053860Y-15088088D01*
X11052542Y-15089542D01*
X11051088Y-15090860D01*
X11049511Y-15092029D01*
X11047828Y-15093038D01*
X11046054Y-15093878D01*
X11044206Y-15094539D01*
X11042302Y-15095016D01*
X11040360Y-15095304D01*
X11038400Y-15095400D01*
X10989400Y-15095400D01*
X10987440Y-15095304D01*
X10985498Y-15095016D01*
X10983594Y-15094539D01*
X10981746Y-15093878D01*
X10979972Y-15093038D01*
X10978289Y-15092029D01*
X10976712Y-15090860D01*
X10975258Y-15089542D01*
X10973940Y-15088088D01*
X10972771Y-15086511D01*
X10971762Y-15084828D01*
X10970922Y-15083054D01*
X10970261Y-15081206D01*
X10969784Y-15079302D01*
X10969496Y-15077360D01*
X10969400Y-15075400D01*
X10969400Y-15035400D01*
X10969496Y-15033440D01*
X10969784Y-15031498D01*
X10970261Y-15029594D01*
X10970922Y-15027746D01*
X10971762Y-15025972D01*
X10972771Y-15024289D01*
X10973940Y-15022712D01*
X10975258Y-15021258D01*
X10976712Y-15019940D01*
X10978289Y-15018771D01*
X10979972Y-15017762D01*
X10981746Y-15016922D01*
X10983594Y-15016261D01*
X10985498Y-15015784D01*
X10987440Y-15015496D01*
X10989400Y-15015400D01*
X11038400Y-15015400D01*
X11040360Y-15015496D01*
X11040360Y-15015496D01*
G37*
D31*
X11013900Y-15055400D03*
G04 #@! TD*
D32*
G04 #@! TO.C,SW1*
X17718900Y-14229800D03*
X17718900Y-14389800D03*
X18128900Y-14229800D03*
X18128900Y-14389800D03*
G04 #@! TD*
D33*
G04 #@! TO.C,SW4*
X18988574Y-14365712D03*
X18388626Y-13995888D03*
X18988574Y-13995888D03*
X18388626Y-14365712D03*
G04 #@! TD*
D34*
G04 #@! TO.C,R1*
X11659200Y-15055400D03*
X11711200Y-15055400D03*
G04 #@! TD*
D35*
G04 #@! TO.C,J1*
X22213000Y-14639540D03*
X22213000Y-14471900D03*
D36*
X22213000Y-14264382D03*
X22213000Y-14847058D03*
D37*
X21983130Y-14309594D03*
X21983130Y-14801846D03*
D38*
X21947062Y-14685768D03*
X21947062Y-14620744D03*
X21947062Y-14555720D03*
X21947062Y-14490696D03*
X21947062Y-14425672D03*
G04 #@! TD*
D39*
G04 #@! TO.C,D1*
X13058000Y-14294400D03*
X12658000Y-14294400D03*
G04 #@! TD*
D40*
G04 #@! TO.C,SW7*
X14871000Y-14885400D03*
X15121000Y-14885400D03*
X15371000Y-14885400D03*
X15371000Y-14335400D03*
X15121000Y-14335400D03*
X14871000Y-14335400D03*
G04 #@! TD*
D41*
G04 #@! TO.C,R3*
X11680200Y-14702950D03*
X11830200Y-14702950D03*
G04 #@! TD*
D42*
G04 #@! TO.C,D4*
X13716600Y-14717000D03*
X13386600Y-14717000D03*
G04 #@! TD*
D11*
G04 #@! TO.C,LED2*
G36*
X10992850Y-10893120D02*
X10995277Y-10893480D01*
X10997657Y-10894077D01*
X10999967Y-10894903D01*
X11002185Y-10895952D01*
X11004289Y-10897213D01*
X11006260Y-10898675D01*
X11008078Y-10900322D01*
X11009725Y-10902140D01*
X11011187Y-10904111D01*
X11012448Y-10906215D01*
X11013497Y-10908433D01*
X11014324Y-10910743D01*
X11014920Y-10913123D01*
X11015280Y-10915550D01*
X11015400Y-10918000D01*
X11015400Y-10972000D01*
X11015280Y-10974450D01*
X11014920Y-10976877D01*
X11014324Y-10979257D01*
X11013497Y-10981567D01*
X11012448Y-10983785D01*
X11011187Y-10985889D01*
X11009725Y-10987860D01*
X11008078Y-10989678D01*
X11006260Y-10991325D01*
X11004289Y-10992787D01*
X11002185Y-10994048D01*
X10999967Y-10995097D01*
X10997657Y-10995924D01*
X10995277Y-10996520D01*
X10992850Y-10996880D01*
X10990400Y-10997000D01*
X10940400Y-10997000D01*
X10937950Y-10996880D01*
X10935523Y-10996520D01*
X10933143Y-10995924D01*
X10930833Y-10995097D01*
X10928615Y-10994048D01*
X10926511Y-10992787D01*
X10924540Y-10991325D01*
X10922722Y-10989678D01*
X10921075Y-10987860D01*
X10919613Y-10985889D01*
X10918352Y-10983785D01*
X10917303Y-10981567D01*
X10916477Y-10979257D01*
X10915880Y-10976877D01*
X10915520Y-10974450D01*
X10915400Y-10972000D01*
X10915400Y-10918000D01*
X10915520Y-10915550D01*
X10915880Y-10913123D01*
X10916477Y-10910743D01*
X10917303Y-10908433D01*
X10918352Y-10906215D01*
X10919613Y-10904111D01*
X10921075Y-10902140D01*
X10922722Y-10900322D01*
X10924540Y-10898675D01*
X10926511Y-10897213D01*
X10928615Y-10895952D01*
X10930833Y-10894903D01*
X10933143Y-10894077D01*
X10935523Y-10893480D01*
X10937950Y-10893120D01*
X10940400Y-10893000D01*
X10990400Y-10893000D01*
X10992850Y-10893120D01*
X10992850Y-10893120D01*
G37*
D13*
X10965400Y-10945000D03*
D11*
G36*
X11088850Y-10893120D02*
X11091277Y-10893480D01*
X11093657Y-10894077D01*
X11095967Y-10894903D01*
X11098185Y-10895952D01*
X11100289Y-10897213D01*
X11102260Y-10898675D01*
X11104078Y-10900322D01*
X11105725Y-10902140D01*
X11107187Y-10904111D01*
X11108448Y-10906215D01*
X11109497Y-10908433D01*
X11110324Y-10910743D01*
X11110920Y-10913123D01*
X11111280Y-10915550D01*
X11111400Y-10918000D01*
X11111400Y-10972000D01*
X11111280Y-10974450D01*
X11110920Y-10976877D01*
X11110324Y-10979257D01*
X11109497Y-10981567D01*
X11108448Y-10983785D01*
X11107187Y-10985889D01*
X11105725Y-10987860D01*
X11104078Y-10989678D01*
X11102260Y-10991325D01*
X11100289Y-10992787D01*
X11098185Y-10994048D01*
X11095967Y-10995097D01*
X11093657Y-10995924D01*
X11091277Y-10996520D01*
X11088850Y-10996880D01*
X11086400Y-10997000D01*
X11036400Y-10997000D01*
X11033950Y-10996880D01*
X11031523Y-10996520D01*
X11029143Y-10995924D01*
X11026833Y-10995097D01*
X11024615Y-10994048D01*
X11022511Y-10992787D01*
X11020540Y-10991325D01*
X11018722Y-10989678D01*
X11017075Y-10987860D01*
X11015613Y-10985889D01*
X11014352Y-10983785D01*
X11013303Y-10981567D01*
X11012477Y-10979257D01*
X11011880Y-10976877D01*
X11011520Y-10974450D01*
X11011400Y-10972000D01*
X11011400Y-10918000D01*
X11011520Y-10915550D01*
X11011880Y-10913123D01*
X11012477Y-10910743D01*
X11013303Y-10908433D01*
X11014352Y-10906215D01*
X11015613Y-10904111D01*
X11017075Y-10902140D01*
X11018722Y-10900322D01*
X11020540Y-10898675D01*
X11022511Y-10897213D01*
X11024615Y-10895952D01*
X11026833Y-10894903D01*
X11029143Y-10894077D01*
X11031523Y-10893480D01*
X11033950Y-10893120D01*
X11036400Y-10893000D01*
X11086400Y-10893000D01*
X11088850Y-10893120D01*
X11088850Y-10893120D01*
G37*
D13*
X11061400Y-10945000D03*
G04 #@! TD*
D11*
G04 #@! TO.C,LED3*
G36*
X10924649Y-10690204D02*
X10927744Y-10690663D01*
X10930778Y-10691423D01*
X10933723Y-10692476D01*
X10936551Y-10693814D01*
X10939234Y-10695422D01*
X10941746Y-10697285D01*
X10944064Y-10699386D01*
X10946165Y-10701704D01*
X10948028Y-10704216D01*
X10949636Y-10706899D01*
X10950974Y-10709727D01*
X10952028Y-10712672D01*
X10952788Y-10715707D01*
X10953247Y-10718801D01*
X10953400Y-10721925D01*
X10953400Y-10793175D01*
X10953247Y-10796299D01*
X10952788Y-10799394D01*
X10952028Y-10802428D01*
X10950974Y-10805373D01*
X10949636Y-10808201D01*
X10948028Y-10810884D01*
X10946165Y-10813396D01*
X10944064Y-10815714D01*
X10941746Y-10817815D01*
X10939234Y-10819678D01*
X10936551Y-10821286D01*
X10933723Y-10822624D01*
X10930778Y-10823678D01*
X10927744Y-10824438D01*
X10924649Y-10824897D01*
X10921525Y-10825050D01*
X10857775Y-10825050D01*
X10854651Y-10824897D01*
X10851557Y-10824438D01*
X10848522Y-10823678D01*
X10845577Y-10822624D01*
X10842749Y-10821286D01*
X10840066Y-10819678D01*
X10837554Y-10817815D01*
X10835236Y-10815714D01*
X10833135Y-10813396D01*
X10831272Y-10810884D01*
X10829664Y-10808201D01*
X10828326Y-10805373D01*
X10827273Y-10802428D01*
X10826513Y-10799394D01*
X10826054Y-10796299D01*
X10825900Y-10793175D01*
X10825900Y-10721925D01*
X10826054Y-10718801D01*
X10826513Y-10715707D01*
X10827273Y-10712672D01*
X10828326Y-10709727D01*
X10829664Y-10706899D01*
X10831272Y-10704216D01*
X10833135Y-10701704D01*
X10835236Y-10699386D01*
X10837554Y-10697285D01*
X10840066Y-10695422D01*
X10842749Y-10693814D01*
X10845577Y-10692476D01*
X10848522Y-10691423D01*
X10851557Y-10690663D01*
X10854651Y-10690204D01*
X10857775Y-10690050D01*
X10921525Y-10690050D01*
X10924649Y-10690204D01*
X10924649Y-10690204D01*
G37*
D14*
X10889650Y-10757550D03*
D11*
G36*
X11082149Y-10690204D02*
X11085244Y-10690663D01*
X11088278Y-10691423D01*
X11091223Y-10692476D01*
X11094051Y-10693814D01*
X11096734Y-10695422D01*
X11099246Y-10697285D01*
X11101564Y-10699386D01*
X11103665Y-10701704D01*
X11105528Y-10704216D01*
X11107136Y-10706899D01*
X11108474Y-10709727D01*
X11109528Y-10712672D01*
X11110288Y-10715707D01*
X11110747Y-10718801D01*
X11110900Y-10721925D01*
X11110900Y-10793175D01*
X11110747Y-10796299D01*
X11110288Y-10799394D01*
X11109528Y-10802428D01*
X11108474Y-10805373D01*
X11107136Y-10808201D01*
X11105528Y-10810884D01*
X11103665Y-10813396D01*
X11101564Y-10815714D01*
X11099246Y-10817815D01*
X11096734Y-10819678D01*
X11094051Y-10821286D01*
X11091223Y-10822624D01*
X11088278Y-10823678D01*
X11085244Y-10824438D01*
X11082149Y-10824897D01*
X11079025Y-10825050D01*
X11015275Y-10825050D01*
X11012151Y-10824897D01*
X11009057Y-10824438D01*
X11006022Y-10823678D01*
X11003077Y-10822624D01*
X11000249Y-10821286D01*
X10997566Y-10819678D01*
X10995054Y-10817815D01*
X10992736Y-10815714D01*
X10990635Y-10813396D01*
X10988772Y-10810884D01*
X10987164Y-10808201D01*
X10985826Y-10805373D01*
X10984773Y-10802428D01*
X10984013Y-10799394D01*
X10983554Y-10796299D01*
X10983400Y-10793175D01*
X10983400Y-10721925D01*
X10983554Y-10718801D01*
X10984013Y-10715707D01*
X10984773Y-10712672D01*
X10985826Y-10709727D01*
X10987164Y-10706899D01*
X10988772Y-10704216D01*
X10990635Y-10701704D01*
X10992736Y-10699386D01*
X10995054Y-10697285D01*
X10997566Y-10695422D01*
X11000249Y-10693814D01*
X11003077Y-10692476D01*
X11006022Y-10691423D01*
X11009057Y-10690663D01*
X11012151Y-10690204D01*
X11015275Y-10690050D01*
X11079025Y-10690050D01*
X11082149Y-10690204D01*
X11082149Y-10690204D01*
G37*
D14*
X11047150Y-10757550D03*
G04 #@! TD*
D11*
G04 #@! TO.C,LED4*
G36*
X10880507Y-10460562D02*
X10883778Y-10461048D01*
X10886986Y-10461851D01*
X10890099Y-10462965D01*
X10893088Y-10464379D01*
X10895925Y-10466079D01*
X10898581Y-10468049D01*
X10901031Y-10470269D01*
X10903252Y-10472719D01*
X10905221Y-10475375D01*
X10906921Y-10478212D01*
X10908335Y-10481201D01*
X10909449Y-10484314D01*
X10910253Y-10487522D01*
X10910738Y-10490793D01*
X10910900Y-10494096D01*
X10910900Y-10606704D01*
X10910738Y-10610007D01*
X10910253Y-10613278D01*
X10909449Y-10616486D01*
X10908335Y-10619599D01*
X10906921Y-10622588D01*
X10905221Y-10625425D01*
X10903252Y-10628081D01*
X10901031Y-10630531D01*
X10898581Y-10632752D01*
X10895925Y-10634721D01*
X10893088Y-10636421D01*
X10890099Y-10637835D01*
X10886986Y-10638949D01*
X10883778Y-10639753D01*
X10880507Y-10640238D01*
X10877204Y-10640400D01*
X10789596Y-10640400D01*
X10786293Y-10640238D01*
X10783022Y-10639753D01*
X10779814Y-10638949D01*
X10776701Y-10637835D01*
X10773712Y-10636421D01*
X10770875Y-10634721D01*
X10768219Y-10632752D01*
X10765769Y-10630531D01*
X10763549Y-10628081D01*
X10761579Y-10625425D01*
X10759879Y-10622588D01*
X10758465Y-10619599D01*
X10757351Y-10616486D01*
X10756548Y-10613278D01*
X10756062Y-10610007D01*
X10755900Y-10606704D01*
X10755900Y-10494096D01*
X10756062Y-10490793D01*
X10756548Y-10487522D01*
X10757351Y-10484314D01*
X10758465Y-10481201D01*
X10759879Y-10478212D01*
X10761579Y-10475375D01*
X10763549Y-10472719D01*
X10765769Y-10470269D01*
X10768219Y-10468049D01*
X10770875Y-10466079D01*
X10773712Y-10464379D01*
X10776701Y-10462965D01*
X10779814Y-10461851D01*
X10783022Y-10461048D01*
X10786293Y-10460562D01*
X10789596Y-10460400D01*
X10877204Y-10460400D01*
X10880507Y-10460562D01*
X10880507Y-10460562D01*
G37*
D15*
X10833400Y-10550400D03*
D11*
G36*
X11050507Y-10460562D02*
X11053778Y-10461048D01*
X11056986Y-10461851D01*
X11060099Y-10462965D01*
X11063088Y-10464379D01*
X11065925Y-10466079D01*
X11068581Y-10468049D01*
X11071031Y-10470269D01*
X11073252Y-10472719D01*
X11075221Y-10475375D01*
X11076921Y-10478212D01*
X11078335Y-10481201D01*
X11079449Y-10484314D01*
X11080253Y-10487522D01*
X11080738Y-10490793D01*
X11080900Y-10494096D01*
X11080900Y-10606704D01*
X11080738Y-10610007D01*
X11080253Y-10613278D01*
X11079449Y-10616486D01*
X11078335Y-10619599D01*
X11076921Y-10622588D01*
X11075221Y-10625425D01*
X11073252Y-10628081D01*
X11071031Y-10630531D01*
X11068581Y-10632752D01*
X11065925Y-10634721D01*
X11063088Y-10636421D01*
X11060099Y-10637835D01*
X11056986Y-10638949D01*
X11053778Y-10639753D01*
X11050507Y-10640238D01*
X11047204Y-10640400D01*
X10959596Y-10640400D01*
X10956293Y-10640238D01*
X10953022Y-10639753D01*
X10949814Y-10638949D01*
X10946701Y-10637835D01*
X10943712Y-10636421D01*
X10940875Y-10634721D01*
X10938219Y-10632752D01*
X10935769Y-10630531D01*
X10933549Y-10628081D01*
X10931579Y-10625425D01*
X10929879Y-10622588D01*
X10928465Y-10619599D01*
X10927351Y-10616486D01*
X10926548Y-10613278D01*
X10926062Y-10610007D01*
X10925900Y-10606704D01*
X10925900Y-10494096D01*
X10926062Y-10490793D01*
X10926548Y-10487522D01*
X10927351Y-10484314D01*
X10928465Y-10481201D01*
X10929879Y-10478212D01*
X10931579Y-10475375D01*
X10933549Y-10472719D01*
X10935769Y-10470269D01*
X10938219Y-10468049D01*
X10940875Y-10466079D01*
X10943712Y-10464379D01*
X10946701Y-10462965D01*
X10949814Y-10461851D01*
X10953022Y-10461048D01*
X10956293Y-10460562D01*
X10959596Y-10460400D01*
X11047204Y-10460400D01*
X11050507Y-10460562D01*
X11050507Y-10460562D01*
G37*
D15*
X11003400Y-10550400D03*
G04 #@! TD*
D11*
G04 #@! TO.C,LED5*
G36*
X10761135Y-10189309D02*
X10764338Y-10189784D01*
X10767479Y-10190571D01*
X10770529Y-10191662D01*
X10773456Y-10193047D01*
X10776234Y-10194712D01*
X10778835Y-10196641D01*
X10781235Y-10198816D01*
X10783409Y-10201215D01*
X10785339Y-10203816D01*
X10787003Y-10206594D01*
X10788388Y-10209521D01*
X10789479Y-10212571D01*
X10790266Y-10215712D01*
X10790741Y-10218915D01*
X10790900Y-10222150D01*
X10790900Y-10371150D01*
X10790741Y-10374385D01*
X10790266Y-10377588D01*
X10789479Y-10380729D01*
X10788388Y-10383779D01*
X10787003Y-10386706D01*
X10785339Y-10389484D01*
X10783409Y-10392085D01*
X10781235Y-10394485D01*
X10778835Y-10396659D01*
X10776234Y-10398589D01*
X10773456Y-10400253D01*
X10770529Y-10401638D01*
X10767479Y-10402729D01*
X10764338Y-10403516D01*
X10761135Y-10403991D01*
X10757900Y-10404150D01*
X10658900Y-10404150D01*
X10655665Y-10403991D01*
X10652462Y-10403516D01*
X10649321Y-10402729D01*
X10646271Y-10401638D01*
X10643344Y-10400253D01*
X10640566Y-10398589D01*
X10637965Y-10396659D01*
X10635566Y-10394485D01*
X10633391Y-10392085D01*
X10631462Y-10389484D01*
X10629797Y-10386706D01*
X10628412Y-10383779D01*
X10627321Y-10380729D01*
X10626534Y-10377588D01*
X10626059Y-10374385D01*
X10625900Y-10371150D01*
X10625900Y-10222150D01*
X10626059Y-10218915D01*
X10626534Y-10215712D01*
X10627321Y-10212571D01*
X10628412Y-10209521D01*
X10629797Y-10206594D01*
X10631462Y-10203816D01*
X10633391Y-10201215D01*
X10635566Y-10198816D01*
X10637965Y-10196641D01*
X10640566Y-10194712D01*
X10643344Y-10193047D01*
X10646271Y-10191662D01*
X10649321Y-10190571D01*
X10652462Y-10189784D01*
X10655665Y-10189309D01*
X10658900Y-10189150D01*
X10757900Y-10189150D01*
X10761135Y-10189309D01*
X10761135Y-10189309D01*
G37*
D16*
X10708400Y-10296650D03*
D11*
G36*
X11041135Y-10189309D02*
X11044338Y-10189784D01*
X11047479Y-10190571D01*
X11050529Y-10191662D01*
X11053456Y-10193047D01*
X11056234Y-10194712D01*
X11058835Y-10196641D01*
X11061235Y-10198816D01*
X11063409Y-10201215D01*
X11065339Y-10203816D01*
X11067003Y-10206594D01*
X11068388Y-10209521D01*
X11069479Y-10212571D01*
X11070266Y-10215712D01*
X11070741Y-10218915D01*
X11070900Y-10222150D01*
X11070900Y-10371150D01*
X11070741Y-10374385D01*
X11070266Y-10377588D01*
X11069479Y-10380729D01*
X11068388Y-10383779D01*
X11067003Y-10386706D01*
X11065339Y-10389484D01*
X11063409Y-10392085D01*
X11061235Y-10394485D01*
X11058835Y-10396659D01*
X11056234Y-10398589D01*
X11053456Y-10400253D01*
X11050529Y-10401638D01*
X11047479Y-10402729D01*
X11044338Y-10403516D01*
X11041135Y-10403991D01*
X11037900Y-10404150D01*
X10938900Y-10404150D01*
X10935665Y-10403991D01*
X10932462Y-10403516D01*
X10929321Y-10402729D01*
X10926271Y-10401638D01*
X10923344Y-10400253D01*
X10920566Y-10398589D01*
X10917965Y-10396659D01*
X10915566Y-10394485D01*
X10913391Y-10392085D01*
X10911462Y-10389484D01*
X10909797Y-10386706D01*
X10908412Y-10383779D01*
X10907321Y-10380729D01*
X10906534Y-10377588D01*
X10906059Y-10374385D01*
X10905900Y-10371150D01*
X10905900Y-10222150D01*
X10906059Y-10218915D01*
X10906534Y-10215712D01*
X10907321Y-10212571D01*
X10908412Y-10209521D01*
X10909797Y-10206594D01*
X10911462Y-10203816D01*
X10913391Y-10201215D01*
X10915566Y-10198816D01*
X10917965Y-10196641D01*
X10920566Y-10194712D01*
X10923344Y-10193047D01*
X10926271Y-10191662D01*
X10929321Y-10190571D01*
X10932462Y-10189784D01*
X10935665Y-10189309D01*
X10938900Y-10189150D01*
X11037900Y-10189150D01*
X11041135Y-10189309D01*
X11041135Y-10189309D01*
G37*
D16*
X10988400Y-10296650D03*
G04 #@! TD*
D33*
G04 #@! TO.C,SW4*
X18387626Y-10420312D03*
X18987574Y-10050488D03*
X18387626Y-10050488D03*
X18987574Y-10420312D03*
G04 #@! TD*
D13*
G04 #@! TO.C,LED1*
X10153074Y-10650000D03*
D11*
G36*
X10099172Y-10719616D02*
X10095420Y-10718478D01*
X10091963Y-10716629D01*
X10088932Y-10714142D01*
X10086445Y-10711111D01*
X10084596Y-10707654D01*
X10083458Y-10703902D01*
X10083074Y-10700000D01*
X10083074Y-10600000D01*
X10083458Y-10596098D01*
X10084596Y-10592346D01*
X10086445Y-10588889D01*
X10088932Y-10585858D01*
X10091963Y-10583371D01*
X10095420Y-10581522D01*
X10099172Y-10580384D01*
X10103074Y-10580000D01*
X10203074Y-10580000D01*
X10206976Y-10580384D01*
X10210728Y-10581522D01*
X10214185Y-10583371D01*
X10217216Y-10585858D01*
X10219703Y-10588889D01*
X10221552Y-10592346D01*
X10222690Y-10596098D01*
X10223074Y-10600000D01*
X10223074Y-10700000D01*
X10222690Y-10703902D01*
X10221552Y-10707654D01*
X10219703Y-10711111D01*
X10217216Y-10714142D01*
X10214185Y-10716629D01*
X10210728Y-10718478D01*
X10206976Y-10719616D01*
X10203074Y-10720000D01*
X10103074Y-10720000D01*
X10099172Y-10719616D01*
X10099172Y-10719616D01*
G37*
D13*
X10323000Y-10650000D03*
D11*
G36*
X10318586Y-10719844D02*
X10313703Y-10719363D01*
X10311762Y-10719075D01*
X10306950Y-10718117D01*
X10305045Y-10717640D01*
X10300350Y-10716216D01*
X10298502Y-10715555D01*
X10293969Y-10713677D01*
X10292194Y-10712838D01*
X10287867Y-10710525D01*
X10286184Y-10709516D01*
X10282104Y-10706790D01*
X10280527Y-10705621D01*
X10276734Y-10702508D01*
X10275280Y-10701190D01*
X10271810Y-10697720D01*
X10270492Y-10696266D01*
X10267380Y-10692473D01*
X10266210Y-10690896D01*
X10263484Y-10686816D01*
X10262475Y-10685133D01*
X10260162Y-10680806D01*
X10259323Y-10679031D01*
X10257445Y-10674498D01*
X10256784Y-10672650D01*
X10255360Y-10667955D01*
X10254883Y-10666051D01*
X10253925Y-10661238D01*
X10253638Y-10659297D01*
X10253157Y-10654414D01*
X10253060Y-10652453D01*
X10253060Y-10647547D01*
X10253157Y-10645586D01*
X10253638Y-10640703D01*
X10253925Y-10638762D01*
X10254883Y-10633950D01*
X10255360Y-10632045D01*
X10256784Y-10627350D01*
X10257445Y-10625502D01*
X10259323Y-10620969D01*
X10260162Y-10619194D01*
X10262475Y-10614867D01*
X10263484Y-10613184D01*
X10266210Y-10609104D01*
X10267380Y-10607527D01*
X10270492Y-10603734D01*
X10271810Y-10602280D01*
X10275280Y-10598810D01*
X10276734Y-10597492D01*
X10280527Y-10594380D01*
X10282104Y-10593210D01*
X10286184Y-10590484D01*
X10287867Y-10589475D01*
X10292194Y-10587162D01*
X10293969Y-10586323D01*
X10298502Y-10584445D01*
X10300350Y-10583784D01*
X10305045Y-10582360D01*
X10306950Y-10581883D01*
X10311762Y-10580925D01*
X10313703Y-10580638D01*
X10318586Y-10580157D01*
X10320547Y-10580060D01*
X10325453Y-10580060D01*
X10327414Y-10580157D01*
X10332297Y-10580638D01*
X10334238Y-10580925D01*
X10339051Y-10581883D01*
X10340955Y-10582360D01*
X10345650Y-10583784D01*
X10347498Y-10584445D01*
X10352031Y-10586323D01*
X10353806Y-10587162D01*
X10358133Y-10589475D01*
X10359816Y-10590484D01*
X10363896Y-10593210D01*
X10365473Y-10594380D01*
X10369266Y-10597492D01*
X10370720Y-10598810D01*
X10374190Y-10602280D01*
X10375508Y-10603734D01*
X10378621Y-10607527D01*
X10379790Y-10609104D01*
X10382516Y-10613184D01*
X10383525Y-10614867D01*
X10385838Y-10619194D01*
X10386677Y-10620969D01*
X10388555Y-10625502D01*
X10389216Y-10627350D01*
X10390640Y-10632045D01*
X10391117Y-10633950D01*
X10392075Y-10638762D01*
X10392363Y-10640703D01*
X10392844Y-10645586D01*
X10392940Y-10647547D01*
X10392940Y-10652453D01*
X10392844Y-10654414D01*
X10392363Y-10659297D01*
X10392075Y-10661238D01*
X10391117Y-10666051D01*
X10390640Y-10667955D01*
X10389216Y-10672650D01*
X10388555Y-10674498D01*
X10386677Y-10679031D01*
X10385838Y-10680806D01*
X10383525Y-10685133D01*
X10382516Y-10686816D01*
X10379790Y-10690896D01*
X10378621Y-10692473D01*
X10375508Y-10696266D01*
X10374190Y-10697720D01*
X10370720Y-10701190D01*
X10369266Y-10702508D01*
X10365473Y-10705621D01*
X10363896Y-10706790D01*
X10359816Y-10709516D01*
X10358133Y-10710525D01*
X10353806Y-10712838D01*
X10352031Y-10713677D01*
X10347498Y-10715555D01*
X10345650Y-10716216D01*
X10340955Y-10717640D01*
X10339051Y-10718117D01*
X10334238Y-10719075D01*
X10332297Y-10719363D01*
X10327414Y-10719844D01*
X10325453Y-10719940D01*
X10320547Y-10719940D01*
X10318586Y-10719844D01*
X10318586Y-10719844D01*
G37*
G04 #@! TD*
D28*
G04 #@! TO.C,SW2*
X16824800Y-10855800D03*
X16824800Y-10315800D03*
G04 #@! TD*
D40*
G04 #@! TO.C,SW7*
X14870000Y-10390000D03*
X15120000Y-10390000D03*
X15370000Y-10390000D03*
X15370000Y-10940000D03*
X15120000Y-10940000D03*
X14870000Y-10940000D03*
G04 #@! TD*
D39*
G04 #@! TO.C,D1*
X12657000Y-10349000D03*
X13057000Y-10349000D03*
G04 #@! TD*
D22*
G04 #@! TO.C,D2*
X13615000Y-10390600D03*
X14045000Y-10390600D03*
G04 #@! TD*
D17*
G04 #@! TO.C,D3*
X12447000Y-10919000D03*
X13127000Y-10919000D03*
G04 #@! TD*
D42*
G04 #@! TO.C,D4*
X13385600Y-10771600D03*
X13715600Y-10771600D03*
G04 #@! TD*
D21*
G04 #@! TO.C,D5*
X13521800Y-11000200D03*
X13731800Y-11000200D03*
G04 #@! TD*
D24*
G04 #@! TO.C,D6*
X13722200Y-11203400D03*
X13582200Y-11203400D03*
G04 #@! TD*
D25*
G04 #@! TO.C,R5*
X11989200Y-10296400D03*
X11699200Y-10296400D03*
G04 #@! TD*
D32*
G04 #@! TO.C,SW1*
X18127900Y-10444400D03*
X18127900Y-10284400D03*
X17717900Y-10444400D03*
X17717900Y-10284400D03*
G04 #@! TD*
D29*
G04 #@! TO.C,SW3*
X18076400Y-10936200D03*
X17736400Y-10936200D03*
G04 #@! TD*
D34*
G04 #@! TO.C,R1*
X11710200Y-11110000D03*
X11658200Y-11110000D03*
G04 #@! TD*
D23*
G04 #@! TO.C,R2*
X11754200Y-10945000D03*
X11664200Y-10945000D03*
G04 #@! TD*
D41*
G04 #@! TO.C,R3*
X11829200Y-10757550D03*
X11679200Y-10757550D03*
G04 #@! TD*
D30*
G04 #@! TO.C,R4*
X11879200Y-10550400D03*
X11689200Y-10550400D03*
G04 #@! TD*
D38*
G04 #@! TO.C,J1*
X21946062Y-10480272D03*
X21946062Y-10545296D03*
X21946062Y-10610320D03*
X21946062Y-10675344D03*
X21946062Y-10740368D03*
D37*
X21982130Y-10856446D03*
X21982130Y-10364194D03*
D36*
X22212000Y-10901658D03*
X22212000Y-10318982D03*
D35*
X22212000Y-10526500D03*
X22212000Y-10694140D03*
G04 #@! TD*
D27*
G04 #@! TO.C,SW6*
X16357500Y-11040800D03*
X15907500Y-10130800D03*
X16357500Y-10130800D03*
X15907500Y-11040800D03*
G04 #@! TD*
D11*
G04 #@! TO.C,R6*
G36*
X11738415Y-11225084D02*
X11740114Y-11225336D01*
X11741780Y-11225753D01*
X11743397Y-11226332D01*
X11744949Y-11227066D01*
X11746422Y-11227949D01*
X11747802Y-11228972D01*
X11749074Y-11230126D01*
X11750228Y-11231398D01*
X11751251Y-11232777D01*
X11752134Y-11234251D01*
X11752868Y-11235803D01*
X11753446Y-11237420D01*
X11753864Y-11239086D01*
X11754116Y-11240785D01*
X11754200Y-11242500D01*
X11754200Y-11277500D01*
X11754116Y-11279215D01*
X11753864Y-11280914D01*
X11753446Y-11282580D01*
X11752868Y-11284197D01*
X11752134Y-11285749D01*
X11751251Y-11287222D01*
X11750228Y-11288602D01*
X11749074Y-11289874D01*
X11747802Y-11291028D01*
X11746422Y-11292051D01*
X11744949Y-11292934D01*
X11743397Y-11293668D01*
X11741780Y-11294246D01*
X11740114Y-11294664D01*
X11738415Y-11294916D01*
X11736700Y-11295000D01*
X11689700Y-11295000D01*
X11687985Y-11294916D01*
X11686286Y-11294664D01*
X11684620Y-11294246D01*
X11683003Y-11293668D01*
X11681451Y-11292934D01*
X11679977Y-11292051D01*
X11678598Y-11291028D01*
X11677326Y-11289874D01*
X11676172Y-11288602D01*
X11675149Y-11287222D01*
X11674266Y-11285749D01*
X11673532Y-11284197D01*
X11672953Y-11282580D01*
X11672536Y-11280914D01*
X11672284Y-11279215D01*
X11672200Y-11277500D01*
X11672200Y-11242500D01*
X11672284Y-11240785D01*
X11672536Y-11239086D01*
X11672953Y-11237420D01*
X11673532Y-11235803D01*
X11674266Y-11234251D01*
X11675149Y-11232777D01*
X11676172Y-11231398D01*
X11677326Y-11230126D01*
X11678598Y-11228972D01*
X11679977Y-11227949D01*
X11681451Y-11227066D01*
X11683003Y-11226332D01*
X11684620Y-11225753D01*
X11686286Y-11225336D01*
X11687985Y-11225084D01*
X11689700Y-11225000D01*
X11736700Y-11225000D01*
X11738415Y-11225084D01*
X11738415Y-11225084D01*
G37*
D26*
X11713200Y-11260000D03*
D11*
G36*
X11690415Y-11225084D02*
X11692114Y-11225336D01*
X11693780Y-11225753D01*
X11695397Y-11226332D01*
X11696949Y-11227066D01*
X11698422Y-11227949D01*
X11699802Y-11228972D01*
X11701074Y-11230126D01*
X11702228Y-11231398D01*
X11703251Y-11232777D01*
X11704134Y-11234251D01*
X11704868Y-11235803D01*
X11705446Y-11237420D01*
X11705864Y-11239086D01*
X11706116Y-11240785D01*
X11706200Y-11242500D01*
X11706200Y-11277500D01*
X11706116Y-11279215D01*
X11705864Y-11280914D01*
X11705446Y-11282580D01*
X11704868Y-11284197D01*
X11704134Y-11285749D01*
X11703251Y-11287222D01*
X11702228Y-11288602D01*
X11701074Y-11289874D01*
X11699802Y-11291028D01*
X11698422Y-11292051D01*
X11696949Y-11292934D01*
X11695397Y-11293668D01*
X11693780Y-11294246D01*
X11692114Y-11294664D01*
X11690415Y-11294916D01*
X11688700Y-11295000D01*
X11641700Y-11295000D01*
X11639985Y-11294916D01*
X11638286Y-11294664D01*
X11636620Y-11294246D01*
X11635003Y-11293668D01*
X11633451Y-11292934D01*
X11631977Y-11292051D01*
X11630598Y-11291028D01*
X11629326Y-11289874D01*
X11628172Y-11288602D01*
X11627149Y-11287222D01*
X11626266Y-11285749D01*
X11625532Y-11284197D01*
X11624953Y-11282580D01*
X11624536Y-11280914D01*
X11624284Y-11279215D01*
X11624200Y-11277500D01*
X11624200Y-11242500D01*
X11624284Y-11240785D01*
X11624536Y-11239086D01*
X11624953Y-11237420D01*
X11625532Y-11235803D01*
X11626266Y-11234251D01*
X11627149Y-11232777D01*
X11628172Y-11231398D01*
X11629326Y-11230126D01*
X11630598Y-11228972D01*
X11631977Y-11227949D01*
X11633451Y-11227066D01*
X11635003Y-11226332D01*
X11636620Y-11225753D01*
X11638286Y-11225336D01*
X11639985Y-11225084D01*
X11641700Y-11225000D01*
X11688700Y-11225000D01*
X11690415Y-11225084D01*
X11690415Y-11225084D01*
G37*
D26*
X11665200Y-11260000D03*
G04 #@! TD*
D11*
G04 #@! TO.C,LED6*
G36*
X11039360Y-11070096D02*
X11041302Y-11070384D01*
X11043206Y-11070861D01*
X11045054Y-11071522D01*
X11046828Y-11072362D01*
X11048511Y-11073371D01*
X11050088Y-11074540D01*
X11051542Y-11075858D01*
X11052860Y-11077312D01*
X11054029Y-11078889D01*
X11055038Y-11080572D01*
X11055878Y-11082346D01*
X11056539Y-11084194D01*
X11057016Y-11086098D01*
X11057304Y-11088040D01*
X11057400Y-11090000D01*
X11057400Y-11130000D01*
X11057304Y-11131960D01*
X11057016Y-11133902D01*
X11056539Y-11135806D01*
X11055878Y-11137654D01*
X11055038Y-11139428D01*
X11054029Y-11141111D01*
X11052860Y-11142688D01*
X11051542Y-11144142D01*
X11050088Y-11145460D01*
X11048511Y-11146629D01*
X11046828Y-11147638D01*
X11045054Y-11148478D01*
X11043206Y-11149139D01*
X11041302Y-11149616D01*
X11039360Y-11149904D01*
X11037400Y-11150000D01*
X10988400Y-11150000D01*
X10986440Y-11149904D01*
X10984498Y-11149616D01*
X10982594Y-11149139D01*
X10980746Y-11148478D01*
X10978972Y-11147638D01*
X10977289Y-11146629D01*
X10975712Y-11145460D01*
X10974258Y-11144142D01*
X10972940Y-11142688D01*
X10971771Y-11141111D01*
X10970762Y-11139428D01*
X10969922Y-11137654D01*
X10969261Y-11135806D01*
X10968784Y-11133902D01*
X10968496Y-11131960D01*
X10968400Y-11130000D01*
X10968400Y-11090000D01*
X10968496Y-11088040D01*
X10968784Y-11086098D01*
X10969261Y-11084194D01*
X10969922Y-11082346D01*
X10970762Y-11080572D01*
X10971771Y-11078889D01*
X10972940Y-11077312D01*
X10974258Y-11075858D01*
X10975712Y-11074540D01*
X10977289Y-11073371D01*
X10978972Y-11072362D01*
X10980746Y-11071522D01*
X10982594Y-11070861D01*
X10984498Y-11070384D01*
X10986440Y-11070096D01*
X10988400Y-11070000D01*
X11037400Y-11070000D01*
X11039360Y-11070096D01*
X11039360Y-11070096D01*
G37*
D31*
X11012900Y-11110000D03*
D11*
G36*
X11100360Y-11070096D02*
X11102302Y-11070384D01*
X11104206Y-11070861D01*
X11106054Y-11071522D01*
X11107828Y-11072362D01*
X11109511Y-11073371D01*
X11111088Y-11074540D01*
X11112542Y-11075858D01*
X11113860Y-11077312D01*
X11115029Y-11078889D01*
X11116038Y-11080572D01*
X11116878Y-11082346D01*
X11117539Y-11084194D01*
X11118016Y-11086098D01*
X11118304Y-11088040D01*
X11118400Y-11090000D01*
X11118400Y-11130000D01*
X11118304Y-11131960D01*
X11118016Y-11133902D01*
X11117539Y-11135806D01*
X11116878Y-11137654D01*
X11116038Y-11139428D01*
X11115029Y-11141111D01*
X11113860Y-11142688D01*
X11112542Y-11144142D01*
X11111088Y-11145460D01*
X11109511Y-11146629D01*
X11107828Y-11147638D01*
X11106054Y-11148478D01*
X11104206Y-11149139D01*
X11102302Y-11149616D01*
X11100360Y-11149904D01*
X11098400Y-11150000D01*
X11049400Y-11150000D01*
X11047440Y-11149904D01*
X11045498Y-11149616D01*
X11043594Y-11149139D01*
X11041746Y-11148478D01*
X11039972Y-11147638D01*
X11038289Y-11146629D01*
X11036712Y-11145460D01*
X11035258Y-11144142D01*
X11033940Y-11142688D01*
X11032771Y-11141111D01*
X11031762Y-11139428D01*
X11030922Y-11137654D01*
X11030261Y-11135806D01*
X11029784Y-11133902D01*
X11029496Y-11131960D01*
X11029400Y-11130000D01*
X11029400Y-11090000D01*
X11029496Y-11088040D01*
X11029784Y-11086098D01*
X11030261Y-11084194D01*
X11030922Y-11082346D01*
X11031762Y-11080572D01*
X11032771Y-11078889D01*
X11033940Y-11077312D01*
X11035258Y-11075858D01*
X11036712Y-11074540D01*
X11038289Y-11073371D01*
X11039972Y-11072362D01*
X11041746Y-11071522D01*
X11043594Y-11070861D01*
X11045498Y-11070384D01*
X11047440Y-11070096D01*
X11049400Y-11070000D01*
X11098400Y-11070000D01*
X11100360Y-11070096D01*
X11100360Y-11070096D01*
G37*
D31*
X11073900Y-11110000D03*
G04 #@! TD*
D20*
G04 #@! TO.C,SW8*
X17341900Y-10235800D03*
X17341900Y-10935800D03*
G04 #@! TD*
D19*
G04 #@! TO.C,SW5*
X18925100Y-11084400D03*
X18430100Y-10734400D03*
X18925100Y-10734400D03*
X18430100Y-11084400D03*
D18*
X18890100Y-11084400D03*
X18465100Y-11084400D03*
X18890100Y-10734400D03*
X18465100Y-10734400D03*
G04 #@! TD*
M02*
