G04 #@! TF.GenerationSoftware,KiCad,Pcbnew,8.0.2*
G04 #@! TF.CreationDate,2024-05-24T18:23:09+01:00*
G04 #@! TF.ProjectId,ruler,72756c65-722e-46b6-9963-61645f706362,rev?*
G04 #@! TF.SameCoordinates,Original*
G04 #@! TF.FileFunction,Soldermask,Top*
G04 #@! TF.FilePolarity,Negative*
%FSLAX45Y45*%
G04 Gerber Fmt 4.5, Leading zero omitted, Abs format (unit mm)*
G04 Created by KiCad (PCBNEW 8.0.2) date 2024-05-24 18:23:09*
%MOMM*%
%LPD*%
G01*
G04 APERTURE LIST*
G04 Aperture macros list*
%AMRoundRect*
0 Rectangle with rounded corners*
0 $1 Rounding radius*
0 $2 $3 $4 $5 $6 $7 $8 $9 X,Y pos of 4 corners*
0 Add a 4 corners polygon primitive as box body*
4,1,4,$2,$3,$4,$5,$6,$7,$8,$9,$2,$3,0*
0 Add four circle primitives for the rounded corners*
1,1,$1+$1,$2,$3*
1,1,$1+$1,$4,$5*
1,1,$1+$1,$6,$7*
1,1,$1+$1,$8,$9*
0 Add four rect primitives between the rounded corners*
20,1,$1+$1,$2,$3,$4,$5,0*
20,1,$1+$1,$4,$5,$6,$7,0*
20,1,$1+$1,$6,$7,$8,$9,0*
20,1,$1+$1,$8,$9,$2,$3,0*%
%AMFreePoly0*
4,1,21,0.586777,0.680194,0.656366,0.624698,0.694986,0.544504,0.700000,0.500000,0.700000,-0.500000,0.680194,-0.586777,0.624698,-0.656366,0.544504,-0.694986,0.500000,-0.700000,-0.500000,-0.700000,-0.586777,-0.680194,-0.656366,-0.624698,-0.694986,-0.544504,-0.700000,-0.500000,-0.700000,0.500000,-0.680194,0.586777,-0.624698,0.656366,-0.544504,0.694986,-0.500000,0.700000,0.500000,0.700000,
0.586777,0.680194,0.586777,0.680194,$1*%
%AMFreePoly1*
4,1,45,0.127504,0.686810,0.264055,0.646715,0.315837,0.623066,0.435559,0.546125,0.478580,0.508847,0.571777,0.401292,0.602554,0.353402,0.661673,0.223948,0.677710,0.169330,0.697964,0.028464,0.697964,-0.028464,0.677710,-0.169330,0.661673,-0.223948,0.602554,-0.353402,0.571777,-0.401292,0.478580,-0.508847,0.435559,-0.546125,0.315837,-0.623066,0.264055,-0.646715,0.127504,-0.686810,
0.071157,-0.694911,-0.071157,-0.694911,-0.127504,-0.686810,-0.264055,-0.646715,-0.315837,-0.623066,-0.435559,-0.546125,-0.478580,-0.508847,-0.571777,-0.401292,-0.602554,-0.353402,-0.661673,-0.223948,-0.677710,-0.169330,-0.697964,-0.028464,-0.697964,0.028464,-0.677710,0.169330,-0.661673,0.223948,-0.602554,0.353402,-0.571777,0.401292,-0.478580,0.508847,-0.435559,0.546125,-0.315837,0.623066,
-0.264055,0.646715,-0.127504,0.686810,-0.071157,0.694911,0.071157,0.694911,0.127504,0.686810,0.127504,0.686810,$1*%
G04 Aperture macros list end*
%ADD10C,0.010000*%
%ADD11C,0.150000*%
%ADD12C,0.900000*%
%ADD13RoundRect,0.200000X-0.450000X-0.600000X0.450000X-0.600000X0.450000X0.600000X-0.450000X0.600000X0*%
%ADD14RoundRect,0.200000X0.200000X0.300000X-0.200000X0.300000X-0.200000X-0.300000X0.200000X-0.300000X0*%
%ADD15FreePoly0,180.000000*%
%ADD16FreePoly1,180.000000*%
%ADD17RoundRect,0.200000X0.450000X0.850000X-0.450000X0.850000X-0.450000X-0.850000X0.450000X-0.850000X0*%
%ADD18RoundRect,0.200000X0.140000X0.215000X-0.140000X0.215000X-0.140000X-0.215000X0.140000X-0.215000X0*%
%ADD19RoundRect,0.200000X0.350000X0.650000X-0.350000X0.650000X-0.350000X-0.650000X0.350000X-0.650000X0*%
%ADD20RoundRect,0.200000X0.250000X0.450000X-0.250000X0.450000X-0.250000X-0.450000X0.250000X-0.450000X0*%
%ADD21RoundRect,0.200000X0.948690X-1.187450X0.948690X1.187450X-0.948690X1.187450X-0.948690X-1.187450X0*%
%ADD22RoundRect,0.200000X1.050290X-0.736600X1.050290X0.736600X-1.050290X0.736600X-1.050290X-0.736600X0*%
%ADD23RoundRect,0.200000X0.948690X-0.586740X0.948690X0.586740X-0.948690X0.586740X-0.948690X-0.586740X0*%
%ADD24RoundRect,0.200000X0.689610X-0.224790X0.689610X0.224790X-0.689610X0.224790X-0.689610X-0.224790X0*%
%ADD25RoundRect,0.175000X0.235000X0.175000X-0.235000X0.175000X-0.235000X-0.175000X0.235000X-0.175000X0*%
%ADD26RoundRect,0.200000X-0.245000X-0.200000X0.245000X-0.200000X0.245000X0.200000X-0.245000X0.200000X0*%
%ADD27RoundRect,0.200000X0.400000X0.850000X-0.400000X0.850000X-0.400000X-0.850000X0.400000X-0.850000X0*%
%ADD28RoundRect,0.200000X0.100000X0.550000X-0.100000X0.550000X-0.100000X-0.550000X0.100000X-0.550000X0*%
%ADD29RoundRect,0.200000X0.250000X0.350000X-0.250000X0.350000X-0.250000X-0.350000X0.250000X-0.350000X0*%
%ADD30RoundRect,0.200000X-0.800000X1.000000X-0.800000X-1.000000X0.800000X-1.000000X0.800000X1.000000X0*%
%ADD31RoundRect,0.200000X0.700000X1.050000X-0.700000X1.050000X-0.700000X-1.050000X0.700000X-1.050000X0*%
%ADD32RoundRect,0.200000X0.500380X0.500380X-0.500380X0.500380X-0.500380X-0.500380X0.500380X-0.500380X0*%
%ADD33RoundRect,0.200000X0.300000X0.350000X-0.300000X0.350000X-0.300000X-0.350000X0.300000X-0.350000X0*%
%ADD34RoundRect,0.200000X-1.250000X-0.900000X1.250000X-0.900000X1.250000X0.900000X-1.250000X0.900000X0*%
%ADD35RoundRect,0.200000X0.450000X0.500000X-0.450000X0.500000X-0.450000X-0.500000X0.450000X-0.500000X0*%
%ADD36RoundRect,0.200000X-1.250000X-1.150000X1.250000X-1.150000X1.250000X1.150000X-1.250000X1.150000X0*%
%ADD37RoundRect,0.200000X0.600000X1.250000X-0.600000X1.250000X-0.600000X-1.250000X0.600000X-1.250000X0*%
%ADD38RoundRect,0.200000X1.250000X-1.650000X1.250000X1.650000X-1.250000X1.650000X-1.250000X-1.650000X0*%
%ADD39RoundRect,0.200000X-0.300000X-0.225000X0.300000X-0.225000X0.300000X0.225000X-0.300000X0.225000X0*%
%ADD40RoundRect,0.200000X-0.700000X0.500000X-0.700000X-0.500000X0.700000X-0.500000X0.700000X0.500000X0*%
%ADD41RoundRect,0.330000X-0.495000X-0.745000X0.495000X-0.745000X0.495000X0.745000X-0.495000X0.745000X0*%
%ADD42RoundRect,0.336955X-0.438045X-0.563045X0.438045X-0.563045X0.438045X0.563045X-0.438045X0.563045X0*%
%ADD43RoundRect,0.318750X-0.318750X-0.356250X0.318750X-0.356250X0.318750X0.356250X-0.318750X0.356250X0*%
%ADD44RoundRect,0.250000X-0.250000X-0.270000X0.250000X-0.270000X0.250000X0.270000X-0.250000X0.270000X0*%
G04 APERTURE END LIST*
D10*
X22227452Y-9178421D02*
X22242759Y-9183574D01*
X22259913Y-9190723D01*
X22277569Y-9199205D01*
X22294386Y-9208357D01*
X22309021Y-9217516D01*
X22314498Y-9221433D01*
X22341246Y-9244190D01*
X22364837Y-9269694D01*
X22385141Y-9297734D01*
X22402026Y-9328096D01*
X22415363Y-9360568D01*
X22425020Y-9394938D01*
X22426957Y-9404395D01*
X22427219Y-9405931D01*
X22427469Y-9407770D01*
X22427706Y-9410014D01*
X22427931Y-9412767D01*
X22428145Y-9416133D01*
X22428347Y-9420216D01*
X22428538Y-9425119D01*
X22428718Y-9430946D01*
X22428887Y-9437800D01*
X22429047Y-9445785D01*
X22429196Y-9455004D01*
X22429336Y-9465562D01*
X22429467Y-9477561D01*
X22429589Y-9491105D01*
X22429702Y-9506299D01*
X22429807Y-9523245D01*
X22429904Y-9542046D01*
X22429994Y-9562808D01*
X22430076Y-9585632D01*
X22430151Y-9610624D01*
X22430219Y-9637886D01*
X22430281Y-9667522D01*
X22430337Y-9699635D01*
X22430386Y-9734330D01*
X22430431Y-9771709D01*
X22430470Y-9811877D01*
X22430504Y-9854937D01*
X22430534Y-9900992D01*
X22430560Y-9950147D01*
X22430582Y-10002504D01*
X22430600Y-10058168D01*
X22430614Y-10117241D01*
X22430626Y-10179828D01*
X22430635Y-10246032D01*
X22430642Y-10315957D01*
X22430647Y-10389706D01*
X22430650Y-10467383D01*
X22430651Y-10549092D01*
X22430652Y-10630418D01*
X22430651Y-10715986D01*
X22430650Y-10797424D01*
X22430647Y-10874837D01*
X22430643Y-10948328D01*
X22430636Y-11018000D01*
X22430628Y-11083959D01*
X22430617Y-11146307D01*
X22430603Y-11205148D01*
X22430585Y-11260587D01*
X22430564Y-11312727D01*
X22430540Y-11361672D01*
X22430511Y-11407525D01*
X22430477Y-11450391D01*
X22430439Y-11490374D01*
X22430395Y-11527576D01*
X22430346Y-11562103D01*
X22430291Y-11594057D01*
X22430230Y-11623544D01*
X22430163Y-11650665D01*
X22430089Y-11675526D01*
X22430007Y-11698230D01*
X22429919Y-11718882D01*
X22429822Y-11737583D01*
X22429718Y-11754440D01*
X22429605Y-11769555D01*
X22429483Y-11783032D01*
X22429352Y-11794975D01*
X22429212Y-11805489D01*
X22429063Y-11814676D01*
X22428903Y-11822640D01*
X22428733Y-11829486D01*
X22428553Y-11835317D01*
X22428361Y-11840237D01*
X22428158Y-11844351D01*
X22427944Y-11847760D01*
X22427718Y-11850570D01*
X22427479Y-11852885D01*
X22427228Y-11854808D01*
X22426964Y-11856442D01*
X22426857Y-11857027D01*
X22419289Y-11887667D01*
X22408374Y-11918052D01*
X22394598Y-11947031D01*
X22378445Y-11973449D01*
X22377026Y-11975472D01*
X22367546Y-11987647D01*
X22355760Y-12000965D01*
X22342740Y-12014342D01*
X22329557Y-12026691D01*
X22317283Y-12036928D01*
X22313765Y-12039550D01*
X22286877Y-12056939D01*
X22259389Y-12070675D01*
X22230153Y-12081300D01*
X22218224Y-12084667D01*
X22198413Y-12089860D01*
X14477574Y-12089720D01*
X6756735Y-12089581D01*
X6737685Y-12084764D01*
X6705407Y-12074476D01*
X6675008Y-12060533D01*
X6646717Y-12043182D01*
X6620767Y-12022667D01*
X6597388Y-11999234D01*
X6576811Y-11973129D01*
X6559268Y-11944597D01*
X6544990Y-11913884D01*
X6534208Y-11881235D01*
X6530236Y-11864435D01*
X6529124Y-11858660D01*
X6528129Y-11852537D01*
X6527246Y-11845812D01*
X6526466Y-11838232D01*
X6525785Y-11829543D01*
X6525195Y-11819490D01*
X6524690Y-11807819D01*
X6524264Y-11794277D01*
X6523910Y-11778609D01*
X6523622Y-11760562D01*
X6523393Y-11739882D01*
X6523217Y-11716314D01*
X6523088Y-11689604D01*
X6522998Y-11659499D01*
X6522942Y-11625745D01*
X6522913Y-11588087D01*
X6522908Y-11576039D01*
X6522876Y-11535658D01*
X6522805Y-11499288D01*
X6522694Y-11466952D01*
X6522545Y-11438675D01*
X6522358Y-11414481D01*
X6522132Y-11394393D01*
X6521868Y-11378435D01*
X6521567Y-11366631D01*
X6521228Y-11359005D01*
X6520851Y-11355581D01*
X6520727Y-11355377D01*
X6520504Y-11353261D01*
X6520294Y-11346915D01*
X6520215Y-11342677D01*
X9820610Y-11342677D01*
X19121243Y-11342677D01*
X19121243Y-11105610D01*
X21817877Y-11105610D01*
X22427477Y-11105610D01*
X22427477Y-10129827D01*
X21817877Y-10129827D01*
X21817877Y-11105610D01*
X19121243Y-11105610D01*
X19121243Y-10129827D01*
X19121243Y-9920277D01*
X9820610Y-9920277D01*
X9820610Y-11342677D01*
X6520215Y-11342677D01*
X6520097Y-11336345D01*
X6519911Y-11321553D01*
X6519738Y-11302544D01*
X6519577Y-11279322D01*
X6519429Y-11251890D01*
X6519292Y-11220254D01*
X6519169Y-11184416D01*
X6519057Y-11144382D01*
X6518958Y-11100154D01*
X6518871Y-11051737D01*
X6518797Y-10999135D01*
X6518735Y-10942352D01*
X6518685Y-10881393D01*
X6518648Y-10816260D01*
X6518624Y-10746958D01*
X6518611Y-10673492D01*
X6518610Y-10636768D01*
X6518616Y-10561305D01*
X6518635Y-10490005D01*
X6518666Y-10422871D01*
X6518710Y-10359909D01*
X6518766Y-10301122D01*
X6518834Y-10246514D01*
X6518915Y-10196089D01*
X6519008Y-10149851D01*
X6519113Y-10107804D01*
X6519231Y-10069952D01*
X6519362Y-10036299D01*
X6519504Y-10006850D01*
X6519659Y-9981608D01*
X6519826Y-9960577D01*
X6520006Y-9943762D01*
X6520198Y-9931166D01*
X6520402Y-9922793D01*
X6520533Y-9920277D01*
X6520618Y-9918647D01*
X6520727Y-9918160D01*
X6521110Y-9916047D01*
X6521456Y-9909724D01*
X6521766Y-9899214D01*
X6522040Y-9884539D01*
X6522276Y-9865722D01*
X6522475Y-9842786D01*
X6522637Y-9815755D01*
X6522761Y-9784650D01*
X6522847Y-9749495D01*
X6522896Y-9710313D01*
X6522905Y-9691148D01*
X6522932Y-9659877D01*
X6522994Y-9629374D01*
X6523088Y-9599958D01*
X6523212Y-9571948D01*
X6523364Y-9545662D01*
X6523540Y-9521419D01*
X6523739Y-9499538D01*
X6523957Y-9480337D01*
X6524193Y-9464135D01*
X6524443Y-9451251D01*
X6524704Y-9442003D01*
X6524941Y-9437153D01*
X6529138Y-9402860D01*
X6536626Y-9370799D01*
X6547566Y-9340350D01*
X6553576Y-9327177D01*
X6570735Y-9296632D01*
X6591101Y-9268782D01*
X6614487Y-9243796D01*
X6640704Y-9221840D01*
X6669565Y-9203082D01*
X6700881Y-9187688D01*
X6717577Y-9181243D01*
X6737685Y-9174152D01*
X14473043Y-9173599D01*
X22208402Y-9173046D01*
X22227452Y-9178421D01*
G36*
X22227452Y-9178421D02*
G01*
X22242759Y-9183574D01*
X22259913Y-9190723D01*
X22277569Y-9199205D01*
X22294386Y-9208357D01*
X22309021Y-9217516D01*
X22314498Y-9221433D01*
X22341246Y-9244190D01*
X22364837Y-9269694D01*
X22385141Y-9297734D01*
X22402026Y-9328096D01*
X22415363Y-9360568D01*
X22425020Y-9394938D01*
X22426957Y-9404395D01*
X22427219Y-9405931D01*
X22427469Y-9407770D01*
X22427706Y-9410014D01*
X22427931Y-9412767D01*
X22428145Y-9416133D01*
X22428347Y-9420216D01*
X22428538Y-9425119D01*
X22428718Y-9430946D01*
X22428887Y-9437800D01*
X22429047Y-9445785D01*
X22429196Y-9455004D01*
X22429336Y-9465562D01*
X22429467Y-9477561D01*
X22429589Y-9491105D01*
X22429702Y-9506299D01*
X22429807Y-9523245D01*
X22429904Y-9542046D01*
X22429994Y-9562808D01*
X22430076Y-9585632D01*
X22430151Y-9610624D01*
X22430219Y-9637886D01*
X22430281Y-9667522D01*
X22430337Y-9699635D01*
X22430386Y-9734330D01*
X22430431Y-9771709D01*
X22430470Y-9811877D01*
X22430504Y-9854937D01*
X22430534Y-9900992D01*
X22430560Y-9950147D01*
X22430582Y-10002504D01*
X22430600Y-10058168D01*
X22430614Y-10117241D01*
X22430626Y-10179828D01*
X22430635Y-10246032D01*
X22430642Y-10315957D01*
X22430647Y-10389706D01*
X22430650Y-10467383D01*
X22430651Y-10549092D01*
X22430652Y-10630418D01*
X22430651Y-10715986D01*
X22430650Y-10797424D01*
X22430647Y-10874837D01*
X22430643Y-10948328D01*
X22430636Y-11018000D01*
X22430628Y-11083959D01*
X22430617Y-11146307D01*
X22430603Y-11205148D01*
X22430585Y-11260587D01*
X22430564Y-11312727D01*
X22430540Y-11361672D01*
X22430511Y-11407525D01*
X22430477Y-11450391D01*
X22430439Y-11490374D01*
X22430395Y-11527576D01*
X22430346Y-11562103D01*
X22430291Y-11594057D01*
X22430230Y-11623544D01*
X22430163Y-11650665D01*
X22430089Y-11675526D01*
X22430007Y-11698230D01*
X22429919Y-11718882D01*
X22429822Y-11737583D01*
X22429718Y-11754440D01*
X22429605Y-11769555D01*
X22429483Y-11783032D01*
X22429352Y-11794975D01*
X22429212Y-11805489D01*
X22429063Y-11814676D01*
X22428903Y-11822640D01*
X22428733Y-11829486D01*
X22428553Y-11835317D01*
X22428361Y-11840237D01*
X22428158Y-11844351D01*
X22427944Y-11847760D01*
X22427718Y-11850570D01*
X22427479Y-11852885D01*
X22427228Y-11854808D01*
X22426964Y-11856442D01*
X22426857Y-11857027D01*
X22419289Y-11887667D01*
X22408374Y-11918052D01*
X22394598Y-11947031D01*
X22378445Y-11973449D01*
X22377026Y-11975472D01*
X22367546Y-11987647D01*
X22355760Y-12000965D01*
X22342740Y-12014342D01*
X22329557Y-12026691D01*
X22317283Y-12036928D01*
X22313765Y-12039550D01*
X22286877Y-12056939D01*
X22259389Y-12070675D01*
X22230153Y-12081300D01*
X22218224Y-12084667D01*
X22198413Y-12089860D01*
X14477574Y-12089720D01*
X6756735Y-12089581D01*
X6737685Y-12084764D01*
X6705407Y-12074476D01*
X6675008Y-12060533D01*
X6646717Y-12043182D01*
X6620767Y-12022667D01*
X6597388Y-11999234D01*
X6576811Y-11973129D01*
X6559268Y-11944597D01*
X6544990Y-11913884D01*
X6534208Y-11881235D01*
X6530236Y-11864435D01*
X6529124Y-11858660D01*
X6528129Y-11852537D01*
X6527246Y-11845812D01*
X6526466Y-11838232D01*
X6525785Y-11829543D01*
X6525195Y-11819490D01*
X6524690Y-11807819D01*
X6524264Y-11794277D01*
X6523910Y-11778609D01*
X6523622Y-11760562D01*
X6523393Y-11739882D01*
X6523217Y-11716314D01*
X6523088Y-11689604D01*
X6522998Y-11659499D01*
X6522942Y-11625745D01*
X6522913Y-11588087D01*
X6522908Y-11576039D01*
X6522876Y-11535658D01*
X6522805Y-11499288D01*
X6522694Y-11466952D01*
X6522545Y-11438675D01*
X6522358Y-11414481D01*
X6522132Y-11394393D01*
X6521868Y-11378435D01*
X6521567Y-11366631D01*
X6521228Y-11359005D01*
X6520851Y-11355581D01*
X6520727Y-11355377D01*
X6520504Y-11353261D01*
X6520294Y-11346915D01*
X6520215Y-11342677D01*
X9820610Y-11342677D01*
X19121243Y-11342677D01*
X19121243Y-11105610D01*
X21817877Y-11105610D01*
X22427477Y-11105610D01*
X22427477Y-10129827D01*
X21817877Y-10129827D01*
X21817877Y-11105610D01*
X19121243Y-11105610D01*
X19121243Y-10129827D01*
X19121243Y-9920277D01*
X9820610Y-9920277D01*
X9820610Y-11342677D01*
X6520215Y-11342677D01*
X6520097Y-11336345D01*
X6519911Y-11321553D01*
X6519738Y-11302544D01*
X6519577Y-11279322D01*
X6519429Y-11251890D01*
X6519292Y-11220254D01*
X6519169Y-11184416D01*
X6519057Y-11144382D01*
X6518958Y-11100154D01*
X6518871Y-11051737D01*
X6518797Y-10999135D01*
X6518735Y-10942352D01*
X6518685Y-10881393D01*
X6518648Y-10816260D01*
X6518624Y-10746958D01*
X6518611Y-10673492D01*
X6518610Y-10636768D01*
X6518616Y-10561305D01*
X6518635Y-10490005D01*
X6518666Y-10422871D01*
X6518710Y-10359909D01*
X6518766Y-10301122D01*
X6518834Y-10246514D01*
X6518915Y-10196089D01*
X6519008Y-10149851D01*
X6519113Y-10107804D01*
X6519231Y-10069952D01*
X6519362Y-10036299D01*
X6519504Y-10006850D01*
X6519659Y-9981608D01*
X6519826Y-9960577D01*
X6520006Y-9943762D01*
X6520198Y-9931166D01*
X6520402Y-9922793D01*
X6520533Y-9920277D01*
X6520618Y-9918647D01*
X6520727Y-9918160D01*
X6521110Y-9916047D01*
X6521456Y-9909724D01*
X6521766Y-9899214D01*
X6522040Y-9884539D01*
X6522276Y-9865722D01*
X6522475Y-9842786D01*
X6522637Y-9815755D01*
X6522761Y-9784650D01*
X6522847Y-9749495D01*
X6522896Y-9710313D01*
X6522905Y-9691148D01*
X6522932Y-9659877D01*
X6522994Y-9629374D01*
X6523088Y-9599958D01*
X6523212Y-9571948D01*
X6523364Y-9545662D01*
X6523540Y-9521419D01*
X6523739Y-9499538D01*
X6523957Y-9480337D01*
X6524193Y-9464135D01*
X6524443Y-9451251D01*
X6524704Y-9442003D01*
X6524941Y-9437153D01*
X6529138Y-9402860D01*
X6536626Y-9370799D01*
X6547566Y-9340350D01*
X6553576Y-9327177D01*
X6570735Y-9296632D01*
X6591101Y-9268782D01*
X6614487Y-9243796D01*
X6640704Y-9221840D01*
X6669565Y-9203082D01*
X6700881Y-9187688D01*
X6717577Y-9181243D01*
X6737685Y-9174152D01*
X14473043Y-9173599D01*
X22208402Y-9173046D01*
X22227452Y-9178421D01*
G37*
X22228452Y-13123821D02*
X22243759Y-13128973D01*
X22260913Y-13136122D01*
X22278569Y-13144605D01*
X22295386Y-13153757D01*
X22310021Y-13162916D01*
X22315498Y-13166833D01*
X22342246Y-13189590D01*
X22365837Y-13215094D01*
X22386141Y-13243133D01*
X22403026Y-13273495D01*
X22416363Y-13305968D01*
X22426020Y-13340338D01*
X22427957Y-13349795D01*
X22428219Y-13351331D01*
X22428469Y-13353170D01*
X22428706Y-13355414D01*
X22428931Y-13358167D01*
X22429145Y-13361533D01*
X22429347Y-13365616D01*
X22429538Y-13370519D01*
X22429718Y-13376346D01*
X22429887Y-13383200D01*
X22430047Y-13391185D01*
X22430196Y-13400404D01*
X22430336Y-13410962D01*
X22430467Y-13422961D01*
X22430589Y-13436505D01*
X22430702Y-13451699D01*
X22430807Y-13468644D01*
X22430904Y-13487446D01*
X22430994Y-13508208D01*
X22431076Y-13531032D01*
X22431151Y-13556024D01*
X22431219Y-13583286D01*
X22431281Y-13612922D01*
X22431337Y-13645035D01*
X22431386Y-13679730D01*
X22431431Y-13717109D01*
X22431470Y-13757277D01*
X22431504Y-13800337D01*
X22431534Y-13846392D01*
X22431560Y-13895547D01*
X22431582Y-13947904D01*
X22431600Y-14003567D01*
X22431614Y-14062641D01*
X22431626Y-14125228D01*
X22431635Y-14191432D01*
X22431642Y-14261357D01*
X22431647Y-14335106D01*
X22431650Y-14412783D01*
X22431651Y-14494492D01*
X22431652Y-14575818D01*
X22431651Y-14661386D01*
X22431650Y-14742824D01*
X22431647Y-14820237D01*
X22431643Y-14893728D01*
X22431636Y-14963400D01*
X22431628Y-15029359D01*
X22431617Y-15091707D01*
X22431603Y-15150548D01*
X22431585Y-15205987D01*
X22431564Y-15258127D01*
X22431540Y-15307072D01*
X22431511Y-15352925D01*
X22431477Y-15395791D01*
X22431439Y-15435774D01*
X22431395Y-15472976D01*
X22431346Y-15507503D01*
X22431291Y-15539457D01*
X22431230Y-15568944D01*
X22431163Y-15596065D01*
X22431089Y-15620926D01*
X22431007Y-15643630D01*
X22430919Y-15664282D01*
X22430822Y-15682983D01*
X22430718Y-15699840D01*
X22430605Y-15714955D01*
X22430483Y-15728432D01*
X22430352Y-15740375D01*
X22430212Y-15750889D01*
X22430063Y-15760076D01*
X22429903Y-15768040D01*
X22429733Y-15774886D01*
X22429553Y-15780717D01*
X22429361Y-15785637D01*
X22429158Y-15789751D01*
X22428944Y-15793160D01*
X22428718Y-15795970D01*
X22428479Y-15798285D01*
X22428228Y-15800208D01*
X22427964Y-15801842D01*
X22427857Y-15802427D01*
X22420289Y-15833067D01*
X22409374Y-15863452D01*
X22395598Y-15892431D01*
X22379445Y-15918849D01*
X22378026Y-15920872D01*
X22368546Y-15933047D01*
X22356760Y-15946365D01*
X22343740Y-15959742D01*
X22330557Y-15972091D01*
X22318283Y-15982328D01*
X22314765Y-15984950D01*
X22287877Y-16002339D01*
X22260389Y-16016075D01*
X22231153Y-16026700D01*
X22219224Y-16030067D01*
X22199413Y-16035260D01*
X14478574Y-16035120D01*
X6757735Y-16034981D01*
X6738685Y-16030164D01*
X6706407Y-16019876D01*
X6676008Y-16005933D01*
X6647717Y-15988582D01*
X6621767Y-15968067D01*
X6598388Y-15944634D01*
X6577811Y-15918529D01*
X6560268Y-15889997D01*
X6545990Y-15859284D01*
X6535208Y-15826635D01*
X6531236Y-15809835D01*
X6530124Y-15804060D01*
X6529129Y-15797937D01*
X6528246Y-15791212D01*
X6527466Y-15783632D01*
X6526785Y-15774943D01*
X6526195Y-15764890D01*
X6525690Y-15753219D01*
X6525264Y-15739677D01*
X6524910Y-15724009D01*
X6524622Y-15705962D01*
X6524393Y-15685282D01*
X6524217Y-15661714D01*
X6524088Y-15635004D01*
X6523998Y-15604899D01*
X6523942Y-15571145D01*
X6523913Y-15533487D01*
X6523908Y-15521439D01*
X6523876Y-15481058D01*
X6523805Y-15444688D01*
X6523694Y-15412352D01*
X6523545Y-15384075D01*
X6523358Y-15359881D01*
X6523132Y-15339793D01*
X6522868Y-15323835D01*
X6522567Y-15312031D01*
X6522228Y-15304405D01*
X6521851Y-15300981D01*
X6521727Y-15300777D01*
X6521504Y-15298661D01*
X6521294Y-15292315D01*
X6521215Y-15288077D01*
X9821610Y-15288077D01*
X19122243Y-15288077D01*
X19122243Y-15051010D01*
X21818877Y-15051010D01*
X22428477Y-15051010D01*
X22428477Y-14075227D01*
X21818877Y-14075227D01*
X21818877Y-15051010D01*
X19122243Y-15051010D01*
X19122243Y-14075227D01*
X19122243Y-13865677D01*
X9821610Y-13865677D01*
X9821610Y-15288077D01*
X6521215Y-15288077D01*
X6521097Y-15281745D01*
X6520911Y-15266953D01*
X6520738Y-15247944D01*
X6520577Y-15224722D01*
X6520429Y-15197290D01*
X6520292Y-15165654D01*
X6520169Y-15129816D01*
X6520057Y-15089782D01*
X6519958Y-15045554D01*
X6519871Y-14997137D01*
X6519797Y-14944535D01*
X6519735Y-14887752D01*
X6519685Y-14826793D01*
X6519648Y-14761660D01*
X6519624Y-14692358D01*
X6519611Y-14618892D01*
X6519610Y-14582168D01*
X6519616Y-14506705D01*
X6519635Y-14435405D01*
X6519666Y-14368271D01*
X6519710Y-14305309D01*
X6519766Y-14246522D01*
X6519834Y-14191914D01*
X6519915Y-14141488D01*
X6520008Y-14095250D01*
X6520113Y-14053204D01*
X6520231Y-14015352D01*
X6520362Y-13981699D01*
X6520504Y-13952250D01*
X6520659Y-13927008D01*
X6520826Y-13905977D01*
X6521006Y-13889162D01*
X6521198Y-13876565D01*
X6521402Y-13868193D01*
X6521533Y-13865677D01*
X6521618Y-13864047D01*
X6521727Y-13863560D01*
X6522110Y-13861447D01*
X6522456Y-13855124D01*
X6522766Y-13844614D01*
X6523040Y-13829938D01*
X6523276Y-13811122D01*
X6523475Y-13788186D01*
X6523637Y-13761155D01*
X6523761Y-13730050D01*
X6523847Y-13694895D01*
X6523896Y-13655713D01*
X6523905Y-13636547D01*
X6523932Y-13605277D01*
X6523994Y-13574774D01*
X6524088Y-13545358D01*
X6524212Y-13517348D01*
X6524364Y-13491062D01*
X6524540Y-13466819D01*
X6524739Y-13444938D01*
X6524957Y-13425737D01*
X6525193Y-13409535D01*
X6525443Y-13396651D01*
X6525704Y-13387403D01*
X6525941Y-13382553D01*
X6530138Y-13348260D01*
X6537626Y-13316199D01*
X6548566Y-13285750D01*
X6554576Y-13272576D01*
X6571735Y-13242032D01*
X6592101Y-13214182D01*
X6615487Y-13189196D01*
X6641704Y-13167240D01*
X6670565Y-13148482D01*
X6701881Y-13133088D01*
X6718577Y-13126643D01*
X6738685Y-13119552D01*
X14474043Y-13118999D01*
X22209402Y-13118446D01*
X22228452Y-13123821D01*
G36*
X22228452Y-13123821D02*
G01*
X22243759Y-13128973D01*
X22260913Y-13136122D01*
X22278569Y-13144605D01*
X22295386Y-13153757D01*
X22310021Y-13162916D01*
X22315498Y-13166833D01*
X22342246Y-13189590D01*
X22365837Y-13215094D01*
X22386141Y-13243133D01*
X22403026Y-13273495D01*
X22416363Y-13305968D01*
X22426020Y-13340338D01*
X22427957Y-13349795D01*
X22428219Y-13351331D01*
X22428469Y-13353170D01*
X22428706Y-13355414D01*
X22428931Y-13358167D01*
X22429145Y-13361533D01*
X22429347Y-13365616D01*
X22429538Y-13370519D01*
X22429718Y-13376346D01*
X22429887Y-13383200D01*
X22430047Y-13391185D01*
X22430196Y-13400404D01*
X22430336Y-13410962D01*
X22430467Y-13422961D01*
X22430589Y-13436505D01*
X22430702Y-13451699D01*
X22430807Y-13468644D01*
X22430904Y-13487446D01*
X22430994Y-13508208D01*
X22431076Y-13531032D01*
X22431151Y-13556024D01*
X22431219Y-13583286D01*
X22431281Y-13612922D01*
X22431337Y-13645035D01*
X22431386Y-13679730D01*
X22431431Y-13717109D01*
X22431470Y-13757277D01*
X22431504Y-13800337D01*
X22431534Y-13846392D01*
X22431560Y-13895547D01*
X22431582Y-13947904D01*
X22431600Y-14003567D01*
X22431614Y-14062641D01*
X22431626Y-14125228D01*
X22431635Y-14191432D01*
X22431642Y-14261357D01*
X22431647Y-14335106D01*
X22431650Y-14412783D01*
X22431651Y-14494492D01*
X22431652Y-14575818D01*
X22431651Y-14661386D01*
X22431650Y-14742824D01*
X22431647Y-14820237D01*
X22431643Y-14893728D01*
X22431636Y-14963400D01*
X22431628Y-15029359D01*
X22431617Y-15091707D01*
X22431603Y-15150548D01*
X22431585Y-15205987D01*
X22431564Y-15258127D01*
X22431540Y-15307072D01*
X22431511Y-15352925D01*
X22431477Y-15395791D01*
X22431439Y-15435774D01*
X22431395Y-15472976D01*
X22431346Y-15507503D01*
X22431291Y-15539457D01*
X22431230Y-15568944D01*
X22431163Y-15596065D01*
X22431089Y-15620926D01*
X22431007Y-15643630D01*
X22430919Y-15664282D01*
X22430822Y-15682983D01*
X22430718Y-15699840D01*
X22430605Y-15714955D01*
X22430483Y-15728432D01*
X22430352Y-15740375D01*
X22430212Y-15750889D01*
X22430063Y-15760076D01*
X22429903Y-15768040D01*
X22429733Y-15774886D01*
X22429553Y-15780717D01*
X22429361Y-15785637D01*
X22429158Y-15789751D01*
X22428944Y-15793160D01*
X22428718Y-15795970D01*
X22428479Y-15798285D01*
X22428228Y-15800208D01*
X22427964Y-15801842D01*
X22427857Y-15802427D01*
X22420289Y-15833067D01*
X22409374Y-15863452D01*
X22395598Y-15892431D01*
X22379445Y-15918849D01*
X22378026Y-15920872D01*
X22368546Y-15933047D01*
X22356760Y-15946365D01*
X22343740Y-15959742D01*
X22330557Y-15972091D01*
X22318283Y-15982328D01*
X22314765Y-15984950D01*
X22287877Y-16002339D01*
X22260389Y-16016075D01*
X22231153Y-16026700D01*
X22219224Y-16030067D01*
X22199413Y-16035260D01*
X14478574Y-16035120D01*
X6757735Y-16034981D01*
X6738685Y-16030164D01*
X6706407Y-16019876D01*
X6676008Y-16005933D01*
X6647717Y-15988582D01*
X6621767Y-15968067D01*
X6598388Y-15944634D01*
X6577811Y-15918529D01*
X6560268Y-15889997D01*
X6545990Y-15859284D01*
X6535208Y-15826635D01*
X6531236Y-15809835D01*
X6530124Y-15804060D01*
X6529129Y-15797937D01*
X6528246Y-15791212D01*
X6527466Y-15783632D01*
X6526785Y-15774943D01*
X6526195Y-15764890D01*
X6525690Y-15753219D01*
X6525264Y-15739677D01*
X6524910Y-15724009D01*
X6524622Y-15705962D01*
X6524393Y-15685282D01*
X6524217Y-15661714D01*
X6524088Y-15635004D01*
X6523998Y-15604899D01*
X6523942Y-15571145D01*
X6523913Y-15533487D01*
X6523908Y-15521439D01*
X6523876Y-15481058D01*
X6523805Y-15444688D01*
X6523694Y-15412352D01*
X6523545Y-15384075D01*
X6523358Y-15359881D01*
X6523132Y-15339793D01*
X6522868Y-15323835D01*
X6522567Y-15312031D01*
X6522228Y-15304405D01*
X6521851Y-15300981D01*
X6521727Y-15300777D01*
X6521504Y-15298661D01*
X6521294Y-15292315D01*
X6521215Y-15288077D01*
X9821610Y-15288077D01*
X19122243Y-15288077D01*
X19122243Y-15051010D01*
X21818877Y-15051010D01*
X22428477Y-15051010D01*
X22428477Y-14075227D01*
X21818877Y-14075227D01*
X21818877Y-15051010D01*
X19122243Y-15051010D01*
X19122243Y-14075227D01*
X19122243Y-13865677D01*
X9821610Y-13865677D01*
X9821610Y-15288077D01*
X6521215Y-15288077D01*
X6521097Y-15281745D01*
X6520911Y-15266953D01*
X6520738Y-15247944D01*
X6520577Y-15224722D01*
X6520429Y-15197290D01*
X6520292Y-15165654D01*
X6520169Y-15129816D01*
X6520057Y-15089782D01*
X6519958Y-15045554D01*
X6519871Y-14997137D01*
X6519797Y-14944535D01*
X6519735Y-14887752D01*
X6519685Y-14826793D01*
X6519648Y-14761660D01*
X6519624Y-14692358D01*
X6519611Y-14618892D01*
X6519610Y-14582168D01*
X6519616Y-14506705D01*
X6519635Y-14435405D01*
X6519666Y-14368271D01*
X6519710Y-14305309D01*
X6519766Y-14246522D01*
X6519834Y-14191914D01*
X6519915Y-14141488D01*
X6520008Y-14095250D01*
X6520113Y-14053204D01*
X6520231Y-14015352D01*
X6520362Y-13981699D01*
X6520504Y-13952250D01*
X6520659Y-13927008D01*
X6520826Y-13905977D01*
X6521006Y-13889162D01*
X6521198Y-13876565D01*
X6521402Y-13868193D01*
X6521533Y-13865677D01*
X6521618Y-13864047D01*
X6521727Y-13863560D01*
X6522110Y-13861447D01*
X6522456Y-13855124D01*
X6522766Y-13844614D01*
X6523040Y-13829938D01*
X6523276Y-13811122D01*
X6523475Y-13788186D01*
X6523637Y-13761155D01*
X6523761Y-13730050D01*
X6523847Y-13694895D01*
X6523896Y-13655713D01*
X6523905Y-13636547D01*
X6523932Y-13605277D01*
X6523994Y-13574774D01*
X6524088Y-13545358D01*
X6524212Y-13517348D01*
X6524364Y-13491062D01*
X6524540Y-13466819D01*
X6524739Y-13444938D01*
X6524957Y-13425737D01*
X6525193Y-13409535D01*
X6525443Y-13396651D01*
X6525704Y-13387403D01*
X6525941Y-13382553D01*
X6530138Y-13348260D01*
X6537626Y-13316199D01*
X6548566Y-13285750D01*
X6554576Y-13272576D01*
X6571735Y-13242032D01*
X6592101Y-13214182D01*
X6615487Y-13189196D01*
X6641704Y-13167240D01*
X6670565Y-13148482D01*
X6701881Y-13133088D01*
X6718577Y-13126643D01*
X6738685Y-13119552D01*
X14474043Y-13118999D01*
X22209402Y-13118446D01*
X22228452Y-13123821D01*
G37*
D11*
X10223084Y-10900000D02*
X9883084Y-10650000D01*
X10223084Y-10400000D01*
X10223084Y-10900000D01*
G36*
X10223084Y-10900000D02*
G01*
X9883084Y-10650000D01*
X10223084Y-10400000D01*
X10223084Y-10900000D01*
G37*
X10255084Y-10900000D02*
X10223084Y-10900000D01*
X10223084Y-10400000D01*
X10255084Y-10400000D01*
X10255084Y-10900000D01*
G36*
X10255084Y-10900000D02*
G01*
X10223084Y-10900000D01*
X10223084Y-10400000D01*
X10255084Y-10400000D01*
X10255084Y-10900000D01*
G37*
X10483084Y-10780000D02*
X10483084Y-10900000D01*
X10253084Y-10900000D01*
X10253084Y-10400000D01*
X10483084Y-10400000D01*
X10483084Y-10780000D01*
G36*
X10483084Y-10780000D02*
G01*
X10483084Y-10900000D01*
X10253084Y-10900000D01*
X10253084Y-10400000D01*
X10483084Y-10400000D01*
X10483084Y-10780000D01*
G37*
X10224084Y-14845400D02*
X9884084Y-14595400D01*
X10224084Y-14345400D01*
X10224084Y-14845400D01*
G36*
X10224084Y-14845400D02*
G01*
X9884084Y-14595400D01*
X10224084Y-14345400D01*
X10224084Y-14845400D01*
G37*
X10256084Y-14845400D02*
X10224084Y-14845400D01*
X10224084Y-14345400D01*
X10256084Y-14345400D01*
X10256084Y-14845400D01*
G36*
X10256084Y-14845400D02*
G01*
X10224084Y-14845400D01*
X10224084Y-14345400D01*
X10256084Y-14345400D01*
X10256084Y-14845400D01*
G37*
X10484084Y-14725400D02*
X10484084Y-14845400D01*
X10254084Y-14845400D01*
X10254084Y-14345400D01*
X10484084Y-14345400D01*
X10484084Y-14725400D01*
G36*
X10484084Y-14725400D02*
G01*
X10484084Y-14845400D01*
X10254084Y-14845400D01*
X10254084Y-14345400D01*
X10484084Y-14345400D01*
X10484084Y-14725400D01*
G37*
D12*
X22423147Y-8822389D03*
X22423147Y-8894676D03*
X22423147Y-8750102D03*
X22423147Y-12408449D03*
X22423147Y-12480736D03*
X22423147Y-12336162D03*
X22423147Y-9971831D03*
X22423147Y-10054864D03*
X22423147Y-10137899D03*
X22423147Y-11085668D03*
X22423147Y-11168701D03*
X22423147Y-11251735D03*
X22423444Y-8679382D03*
X22424691Y-8605794D03*
X22424691Y-12550870D03*
X22424147Y-12767789D03*
X22424147Y-12840076D03*
X22424147Y-12695502D03*
X22424147Y-16353849D03*
X22424147Y-16426136D03*
X22424147Y-16281562D03*
X22424147Y-13917231D03*
X22424147Y-14000264D03*
X22424147Y-14083299D03*
X22424147Y-15031068D03*
X22424147Y-15114101D03*
X22424147Y-15197135D03*
X22424444Y-12624782D03*
X22425691Y-12551194D03*
X22425691Y-16496270D03*
D13*
X13385600Y-10771600D03*
X13715600Y-10771600D03*
D14*
X11754200Y-10945000D03*
X11664200Y-10945000D03*
D15*
X10153074Y-10650000D03*
D16*
X10323000Y-10650000D03*
D17*
X11989200Y-10296400D03*
X11699200Y-10296400D03*
D18*
X11710200Y-11110000D03*
X11658200Y-11110000D03*
D19*
X11879200Y-10550400D03*
X11689200Y-10550400D03*
D20*
X11829200Y-10757550D03*
X11679200Y-10757550D03*
D21*
X22212000Y-10901658D03*
D22*
X21982130Y-10856446D03*
D23*
X22212000Y-10694140D03*
X22212000Y-10526500D03*
D22*
X21982130Y-10364194D03*
D21*
X22212000Y-10318982D03*
D24*
X21946062Y-10740368D03*
X21946062Y-10675344D03*
X21946062Y-10610320D03*
X21946062Y-10545296D03*
X21946062Y-10480272D03*
D25*
X11713200Y-11260000D03*
X11665200Y-11260000D03*
D26*
X11012900Y-11110000D03*
X11073900Y-11110000D03*
D27*
X18076400Y-10936200D03*
X17736400Y-10936200D03*
D28*
X18925100Y-11084400D03*
D29*
X18890100Y-11084400D03*
X18465100Y-11084400D03*
D28*
X18430100Y-11084400D03*
X18925100Y-10734400D03*
D29*
X18890100Y-10734400D03*
X18465100Y-10734400D03*
D28*
X18430100Y-10734400D03*
D30*
X16824800Y-10315800D03*
X16824800Y-10855800D03*
D31*
X15907500Y-11040800D03*
X15907500Y-10130800D03*
X16357500Y-11040800D03*
X16357500Y-10130800D03*
D32*
X18987574Y-10420312D03*
X18387626Y-10420312D03*
X18987574Y-10050488D03*
X18387626Y-10050488D03*
D33*
X13582200Y-11203400D03*
X13722200Y-11203400D03*
D34*
X12657000Y-10349000D03*
X13057000Y-10349000D03*
D35*
X18127900Y-10444400D03*
X17717900Y-10444400D03*
X18127900Y-10284400D03*
X17717900Y-10284400D03*
D36*
X13615000Y-10390600D03*
X14045000Y-10390600D03*
D37*
X15370000Y-10390000D03*
X15120000Y-10390000D03*
X14870000Y-10390000D03*
X15370000Y-10940000D03*
X15120000Y-10940000D03*
X14870000Y-10940000D03*
D38*
X12447000Y-10919000D03*
X13127000Y-10919000D03*
D39*
X13521800Y-11000200D03*
X13731800Y-11000200D03*
D40*
X17341900Y-10235800D03*
X17341900Y-10935800D03*
D41*
X10708400Y-10296650D03*
X10988400Y-10296650D03*
D42*
X10833400Y-10550400D03*
X11003400Y-10550400D03*
D43*
X10889650Y-10757550D03*
X11047150Y-10757550D03*
D44*
X10965400Y-10945000D03*
X11061400Y-10945000D03*
D13*
X13386600Y-14717000D03*
X13716600Y-14717000D03*
D20*
X11830200Y-14702950D03*
X11680200Y-14702950D03*
D37*
X15371000Y-14335400D03*
X15121000Y-14335400D03*
X14871000Y-14335400D03*
X15371000Y-14885400D03*
X15121000Y-14885400D03*
X14871000Y-14885400D03*
D34*
X12658000Y-14294400D03*
X13058000Y-14294400D03*
D21*
X22213000Y-14847058D03*
D22*
X21983130Y-14801846D03*
D23*
X22213000Y-14639540D03*
X22213000Y-14471900D03*
D22*
X21983130Y-14309594D03*
D21*
X22213000Y-14264382D03*
D24*
X21947062Y-14685768D03*
X21947062Y-14620744D03*
X21947062Y-14555720D03*
X21947062Y-14490696D03*
X21947062Y-14425672D03*
D18*
X11711200Y-15055400D03*
X11659200Y-15055400D03*
D32*
X18988574Y-14365712D03*
X18388626Y-14365712D03*
X18988574Y-13995888D03*
X18388626Y-13995888D03*
D35*
X18128900Y-14389800D03*
X17718900Y-14389800D03*
X18128900Y-14229800D03*
X17718900Y-14229800D03*
D26*
X11013900Y-15055400D03*
X11074900Y-15055400D03*
D19*
X11880200Y-14495800D03*
X11690200Y-14495800D03*
D27*
X18077400Y-14881600D03*
X17737400Y-14881600D03*
D30*
X16825800Y-14261200D03*
X16825800Y-14801200D03*
D15*
X10154074Y-14595400D03*
D16*
X10324000Y-14595400D03*
D31*
X15908500Y-14986200D03*
X15908500Y-14076200D03*
X16358500Y-14986200D03*
X16358500Y-14076200D03*
D25*
X11714200Y-15205400D03*
X11666200Y-15205400D03*
D17*
X11990200Y-14241800D03*
X11700200Y-14241800D03*
D33*
X13583200Y-15148800D03*
X13723200Y-15148800D03*
D14*
X11755200Y-14890400D03*
X11665200Y-14890400D03*
D36*
X13616000Y-14336000D03*
X14046000Y-14336000D03*
D39*
X13522800Y-14945600D03*
X13732800Y-14945600D03*
D40*
X17342900Y-14181200D03*
X17342900Y-14881200D03*
D28*
X18926100Y-15029800D03*
D29*
X18891100Y-15029800D03*
X18466100Y-15029800D03*
D28*
X18431100Y-15029800D03*
X18926100Y-14679800D03*
D29*
X18891100Y-14679800D03*
X18466100Y-14679800D03*
D28*
X18431100Y-14679800D03*
D38*
X12448000Y-14864400D03*
X13128000Y-14864400D03*
D41*
X10709400Y-14242050D03*
X10989400Y-14242050D03*
D42*
X10834400Y-14495800D03*
X11004400Y-14495800D03*
D43*
X10890650Y-14702950D03*
X11048150Y-14702950D03*
D44*
X10966400Y-14890400D03*
X11062400Y-14890400D03*
M02*
