G04 #@! TF.GenerationSoftware,KiCad,Pcbnew,8.0.2*
G04 #@! TF.CreationDate,2024-05-25T09:30:28+01:00*
G04 #@! TF.ProjectId,ruler,72756c65-722e-46b6-9963-61645f706362,rev?*
G04 #@! TF.SameCoordinates,Original*
G04 #@! TF.FileFunction,Profile,NP*
%FSLAX45Y45*%
G04 Gerber Fmt 4.5, Leading zero omitted, Abs format (unit mm)*
G04 Created by KiCad (PCBNEW 8.0.2) date 2024-05-25 09:30:28*
%MOMM*%
%LPD*%
G01*
G04 APERTURE LIST*
G04 #@! TA.AperFunction,Profile*
%ADD10C,0.150000*%
G04 #@! TD*
G04 #@! TA.AperFunction,Profile*
%ADD11C,0.100000*%
G04 #@! TD*
G04 APERTURE END LIST*
D10*
X22962000Y-16547000D02*
X6363000Y-16547000D01*
X22963000Y-8568000D02*
X22962000Y-16547000D01*
X6364000Y-8568000D02*
X6000500Y-8568000D01*
X5999500Y-16547000D02*
X6000500Y-8568000D01*
X6364000Y-8568000D02*
X22963000Y-8568000D01*
X5999500Y-16547000D02*
X6363000Y-16547000D01*
D11*
X6521954Y-8946867D02*
X22808876Y-8938654D01*
X6521954Y-12314403D02*
X6523993Y-11794718D01*
X6523993Y-11794718D02*
X6525426Y-11824318D01*
X6525426Y-11824318D02*
X6529670Y-11853036D01*
X6525427Y-9436953D02*
X6521954Y-8946867D01*
X6529670Y-11853036D02*
X6536560Y-11880707D01*
X6529671Y-9408234D02*
X6525427Y-9436953D01*
X6536560Y-11880707D02*
X6545986Y-11907221D01*
X6536561Y-9380563D02*
X6529671Y-9408234D01*
X6545986Y-11907221D02*
X6557782Y-11932466D01*
X6545987Y-9354050D02*
X6536561Y-9380563D01*
X6557782Y-11932466D02*
X6571783Y-11956224D01*
X6557783Y-9328804D02*
X6545987Y-9354050D01*
X6571783Y-11956224D02*
X6587934Y-11978438D01*
X6571784Y-9305047D02*
X6557783Y-9328804D01*
X6587934Y-11978438D02*
X6606014Y-11998888D01*
X6587935Y-9282833D02*
X6571784Y-9305047D01*
X6606014Y-11998888D02*
X6625913Y-12017519D01*
X6606015Y-9262383D02*
X6587935Y-9282833D01*
X6625913Y-12017519D02*
X6647520Y-12034055D01*
X6625914Y-9243752D02*
X6606015Y-9262383D01*
X6647520Y-12034055D02*
X6670671Y-12048497D01*
X6647521Y-9227215D02*
X6625914Y-9243752D01*
X6670671Y-12048497D02*
X6695200Y-12060624D01*
X6670672Y-9212773D02*
X6647521Y-9227215D01*
X6695200Y-12060624D02*
X6720997Y-12070274D01*
X6695201Y-9200647D02*
X6670672Y-9212773D01*
X6720997Y-12070274D02*
X6747952Y-12077384D01*
X6720998Y-9191001D02*
X6695201Y-9200647D01*
X6747952Y-12077384D02*
X6775898Y-12081734D01*
X6747953Y-9183890D02*
X6720998Y-9191001D01*
X6775898Y-12081734D02*
X6804672Y-12083224D01*
X6775899Y-9179535D02*
X6747953Y-9183890D01*
X6804672Y-12083224D02*
X22148465Y-12083224D01*
X6804673Y-9178047D02*
X6775899Y-9179535D01*
X22148465Y-12083224D02*
X22177239Y-12081734D01*
X22148478Y-9178047D02*
X6804673Y-9178047D01*
X22177239Y-12081734D02*
X22205130Y-12077384D01*
X22177252Y-9179535D02*
X22148478Y-9178047D01*
X22205130Y-12077384D02*
X22232085Y-12070274D01*
X22205143Y-9183890D02*
X22177252Y-9179535D01*
X22232085Y-12070274D02*
X22257882Y-12060624D01*
X22232098Y-9191001D02*
X22205143Y-9183890D01*
X22257882Y-12060624D02*
X22282466Y-12048497D01*
X22257895Y-9200647D02*
X22232098Y-9191001D01*
X22282466Y-12048497D02*
X22305617Y-12034055D01*
X22282479Y-9212773D02*
X22257895Y-9200647D01*
X22305617Y-12034055D02*
X22327169Y-12017519D01*
X22305630Y-9227215D02*
X22282479Y-9212773D01*
X22327169Y-12017519D02*
X22347123Y-11998888D01*
X22327182Y-9243752D02*
X22305630Y-9227215D01*
X22347123Y-11998888D02*
X22365203Y-11978438D01*
X22347136Y-9262383D02*
X22327182Y-9243752D01*
X22365203Y-11978438D02*
X22381299Y-11956224D01*
X22365216Y-9282833D02*
X22347136Y-9262383D01*
X22381299Y-11956224D02*
X22395355Y-11932466D01*
X22381312Y-9305047D02*
X22365216Y-9282833D01*
X22395355Y-11932466D02*
X22407151Y-11907221D01*
X22395368Y-9328804D02*
X22381312Y-9305047D01*
X22407151Y-11907221D02*
X22416571Y-11880707D01*
X22407164Y-9354050D02*
X22395368Y-9328804D01*
X22416571Y-11880707D02*
X22423461Y-11853036D01*
X22416584Y-9380563D02*
X22407164Y-9354050D01*
X22423461Y-11853036D02*
X22427701Y-11824318D01*
X22423474Y-9408234D02*
X22416584Y-9380563D01*
X22427701Y-11824318D02*
X22429131Y-11794718D01*
X22427714Y-9436953D02*
X22423474Y-9408234D01*
X22429131Y-11284513D02*
X22429144Y-11284516D01*
X22429131Y-11794718D02*
X22429131Y-11284513D01*
X22429144Y-9466498D02*
X22427714Y-9436953D01*
X22429144Y-9949803D02*
X22429144Y-9466498D01*
X22429144Y-10167027D02*
X22429144Y-10167027D01*
X22429144Y-10167027D02*
X22808876Y-10167027D01*
X22429144Y-11060109D02*
X22429144Y-10167027D01*
X22429144Y-11284516D02*
X22808876Y-11284516D01*
X22808876Y-8938654D02*
X22808876Y-8938654D01*
X22808876Y-8938654D02*
X22808876Y-9949803D01*
X22808876Y-9949803D02*
X22429144Y-9949803D01*
X22808876Y-10167027D02*
X22808876Y-11060109D01*
X22808876Y-11060109D02*
X22429144Y-11060109D01*
X22808876Y-11284516D02*
X22808876Y-12306193D01*
X22808876Y-12306193D02*
X6521954Y-12314403D01*
X6522954Y-12892267D02*
X22809876Y-12884054D01*
X6522954Y-16259803D02*
X6524993Y-15740118D01*
X6524993Y-15740118D02*
X6526426Y-15769718D01*
X6526426Y-15769718D02*
X6530670Y-15798436D01*
X6526427Y-13382353D02*
X6522954Y-12892267D01*
X6530670Y-15798436D02*
X6537560Y-15826107D01*
X6530671Y-13353634D02*
X6526427Y-13382353D01*
X6537560Y-15826107D02*
X6546986Y-15852621D01*
X6537561Y-13325963D02*
X6530671Y-13353634D01*
X6546986Y-15852621D02*
X6558782Y-15877866D01*
X6546987Y-13299450D02*
X6537561Y-13325963D01*
X6558782Y-15877866D02*
X6572783Y-15901624D01*
X6558783Y-13274204D02*
X6546987Y-13299450D01*
X6572783Y-15901624D02*
X6588934Y-15923838D01*
X6572784Y-13250447D02*
X6558783Y-13274204D01*
X6588934Y-15923838D02*
X6607014Y-15944288D01*
X6588935Y-13228233D02*
X6572784Y-13250447D01*
X6607014Y-15944288D02*
X6626913Y-15962919D01*
X6607015Y-13207783D02*
X6588935Y-13228233D01*
X6626913Y-15962919D02*
X6648520Y-15979455D01*
X6626914Y-13189152D02*
X6607015Y-13207783D01*
X6648520Y-15979455D02*
X6671671Y-15993897D01*
X6648521Y-13172615D02*
X6626914Y-13189152D01*
X6671671Y-15993897D02*
X6696200Y-16006024D01*
X6671672Y-13158173D02*
X6648521Y-13172615D01*
X6696200Y-16006024D02*
X6721997Y-16015674D01*
X6696201Y-13146047D02*
X6671672Y-13158173D01*
X6721997Y-16015674D02*
X6748952Y-16022784D01*
X6721998Y-13136401D02*
X6696201Y-13146047D01*
X6748952Y-16022784D02*
X6776898Y-16027134D01*
X6748953Y-13129290D02*
X6721998Y-13136401D01*
X6776898Y-16027134D02*
X6805672Y-16028624D01*
X6776899Y-13124935D02*
X6748953Y-13129290D01*
X6805672Y-16028624D02*
X22149465Y-16028624D01*
X6805673Y-13123447D02*
X6776899Y-13124935D01*
X22149465Y-16028624D02*
X22178239Y-16027134D01*
X22149478Y-13123447D02*
X6805673Y-13123447D01*
X22178239Y-16027134D02*
X22206130Y-16022784D01*
X22178252Y-13124935D02*
X22149478Y-13123447D01*
X22206130Y-16022784D02*
X22233085Y-16015674D01*
X22206143Y-13129290D02*
X22178252Y-13124935D01*
X22233085Y-16015674D02*
X22258882Y-16006024D01*
X22233098Y-13136401D02*
X22206143Y-13129290D01*
X22258882Y-16006024D02*
X22283466Y-15993897D01*
X22258895Y-13146047D02*
X22233098Y-13136401D01*
X22283466Y-15993897D02*
X22306617Y-15979455D01*
X22283479Y-13158173D02*
X22258895Y-13146047D01*
X22306617Y-15979455D02*
X22328169Y-15962919D01*
X22306630Y-13172615D02*
X22283479Y-13158173D01*
X22328169Y-15962919D02*
X22348123Y-15944288D01*
X22328182Y-13189152D02*
X22306630Y-13172615D01*
X22348123Y-15944288D02*
X22366203Y-15923838D01*
X22348136Y-13207783D02*
X22328182Y-13189152D01*
X22366203Y-15923838D02*
X22382299Y-15901624D01*
X22366216Y-13228233D02*
X22348136Y-13207783D01*
X22382299Y-15901624D02*
X22396355Y-15877866D01*
X22382312Y-13250447D02*
X22366216Y-13228233D01*
X22396355Y-15877866D02*
X22408151Y-15852621D01*
X22396368Y-13274204D02*
X22382312Y-13250447D01*
X22408151Y-15852621D02*
X22417571Y-15826107D01*
X22408164Y-13299450D02*
X22396368Y-13274204D01*
X22417571Y-15826107D02*
X22424461Y-15798436D01*
X22417584Y-13325963D02*
X22408164Y-13299450D01*
X22424461Y-15798436D02*
X22428701Y-15769718D01*
X22424474Y-13353634D02*
X22417584Y-13325963D01*
X22428701Y-15769718D02*
X22430131Y-15740118D01*
X22428714Y-13382353D02*
X22424474Y-13353634D01*
X22430131Y-15229913D02*
X22430144Y-15229916D01*
X22430131Y-15740118D02*
X22430131Y-15229913D01*
X22430144Y-13411898D02*
X22428714Y-13382353D01*
X22430144Y-13895203D02*
X22430144Y-13411898D01*
X22430144Y-14112426D02*
X22430144Y-14112426D01*
X22430144Y-14112426D02*
X22809876Y-14112426D01*
X22430144Y-15005509D02*
X22430144Y-14112426D01*
X22430144Y-15229916D02*
X22809876Y-15229916D01*
X22809876Y-12884054D02*
X22809876Y-12884054D01*
X22809876Y-12884054D02*
X22809876Y-13895203D01*
X22809876Y-13895203D02*
X22430144Y-13895203D01*
X22809876Y-14112426D02*
X22809876Y-15005509D01*
X22809876Y-15005509D02*
X22430144Y-15005509D01*
X22809876Y-15229916D02*
X22809876Y-16251593D01*
X22809876Y-16251593D02*
X6522954Y-16259803D01*
M02*
