G04 #@! TF.GenerationSoftware,KiCad,Pcbnew,5.0.0-fee4fd1~66~ubuntu16.04.1*
G04 #@! TF.CreationDate,2018-08-16T22:29:16+01:00*
G04 #@! TF.ProjectId,ruler,72756C65722E6B696361645F70636200,rev?*
G04 #@! TF.SameCoordinates,Original*
G04 #@! TF.FileFunction,Other,ECO1*
%FSLAX45Y45*%
G04 Gerber Fmt 4.5, Leading zero omitted, Abs format (unit mm)*
G04 Created by KiCad (PCBNEW 5.0.0-fee4fd1~66~ubuntu16.04.1) date Thu Aug 16 22:29:16 2018*
%MOMM*%
%LPD*%
G01*
G04 APERTURE LIST*
%ADD10C,0.200000*%
%ADD11C,0.300000*%
G04 APERTURE END LIST*
D10*
X6263335Y-12588000D02*
X23021000Y-12588000D01*
D11*
X23128286Y-12499857D02*
X23178286Y-12649857D01*
X23228286Y-12499857D01*
X23278286Y-12592714D02*
X23392571Y-12592714D01*
X23456857Y-12642714D02*
X23478286Y-12649857D01*
X23514000Y-12649857D01*
X23528286Y-12642714D01*
X23535428Y-12635571D01*
X23542571Y-12621286D01*
X23542571Y-12607000D01*
X23535428Y-12592714D01*
X23528286Y-12585571D01*
X23514000Y-12578428D01*
X23485428Y-12571286D01*
X23471143Y-12564143D01*
X23464000Y-12557000D01*
X23456857Y-12542714D01*
X23456857Y-12528428D01*
X23464000Y-12514143D01*
X23471143Y-12507000D01*
X23485428Y-12499857D01*
X23521143Y-12499857D01*
X23542571Y-12507000D01*
X23692571Y-12635571D02*
X23685428Y-12642714D01*
X23664000Y-12649857D01*
X23649714Y-12649857D01*
X23628286Y-12642714D01*
X23614000Y-12628428D01*
X23606857Y-12614143D01*
X23599714Y-12585571D01*
X23599714Y-12564143D01*
X23606857Y-12535571D01*
X23614000Y-12521286D01*
X23628286Y-12507000D01*
X23649714Y-12499857D01*
X23664000Y-12499857D01*
X23685428Y-12507000D01*
X23692571Y-12514143D01*
X23785428Y-12499857D02*
X23814000Y-12499857D01*
X23828286Y-12507000D01*
X23842571Y-12521286D01*
X23849714Y-12549857D01*
X23849714Y-12599857D01*
X23842571Y-12628428D01*
X23828286Y-12642714D01*
X23814000Y-12649857D01*
X23785428Y-12649857D01*
X23771143Y-12642714D01*
X23756857Y-12628428D01*
X23749714Y-12599857D01*
X23749714Y-12549857D01*
X23756857Y-12521286D01*
X23771143Y-12507000D01*
X23785428Y-12499857D01*
X23999714Y-12649857D02*
X23949714Y-12578428D01*
X23914000Y-12649857D02*
X23914000Y-12499857D01*
X23971143Y-12499857D01*
X23985428Y-12507000D01*
X23992571Y-12514143D01*
X23999714Y-12528428D01*
X23999714Y-12549857D01*
X23992571Y-12564143D01*
X23985428Y-12571286D01*
X23971143Y-12578428D01*
X23914000Y-12578428D01*
X24064000Y-12571286D02*
X24114000Y-12571286D01*
X24135428Y-12649857D02*
X24064000Y-12649857D01*
X24064000Y-12499857D01*
X24135428Y-12499857D01*
X6772286Y-8053857D02*
X6822286Y-8203857D01*
X6872286Y-8053857D01*
X6922286Y-8146714D02*
X7036571Y-8146714D01*
X7100857Y-8196714D02*
X7122286Y-8203857D01*
X7158000Y-8203857D01*
X7172286Y-8196714D01*
X7179428Y-8189571D01*
X7186571Y-8175286D01*
X7186571Y-8161000D01*
X7179428Y-8146714D01*
X7172286Y-8139571D01*
X7158000Y-8132428D01*
X7129428Y-8125286D01*
X7115143Y-8118143D01*
X7108000Y-8111000D01*
X7100857Y-8096714D01*
X7100857Y-8082428D01*
X7108000Y-8068143D01*
X7115143Y-8061000D01*
X7129428Y-8053857D01*
X7165143Y-8053857D01*
X7186571Y-8061000D01*
X7336571Y-8189571D02*
X7329428Y-8196714D01*
X7308000Y-8203857D01*
X7293714Y-8203857D01*
X7272286Y-8196714D01*
X7258000Y-8182428D01*
X7250857Y-8168143D01*
X7243714Y-8139571D01*
X7243714Y-8118143D01*
X7250857Y-8089571D01*
X7258000Y-8075286D01*
X7272286Y-8061000D01*
X7293714Y-8053857D01*
X7308000Y-8053857D01*
X7329428Y-8061000D01*
X7336571Y-8068143D01*
X7429428Y-8053857D02*
X7458000Y-8053857D01*
X7472286Y-8061000D01*
X7486571Y-8075286D01*
X7493714Y-8103857D01*
X7493714Y-8153857D01*
X7486571Y-8182428D01*
X7472286Y-8196714D01*
X7458000Y-8203857D01*
X7429428Y-8203857D01*
X7415143Y-8196714D01*
X7400857Y-8182428D01*
X7393714Y-8153857D01*
X7393714Y-8103857D01*
X7400857Y-8075286D01*
X7415143Y-8061000D01*
X7429428Y-8053857D01*
X7643714Y-8203857D02*
X7593714Y-8132428D01*
X7558000Y-8203857D02*
X7558000Y-8053857D01*
X7615143Y-8053857D01*
X7629428Y-8061000D01*
X7636571Y-8068143D01*
X7643714Y-8082428D01*
X7643714Y-8103857D01*
X7636571Y-8118143D01*
X7629428Y-8125286D01*
X7615143Y-8132428D01*
X7558000Y-8132428D01*
X7708000Y-8125286D02*
X7758000Y-8125286D01*
X7779428Y-8203857D02*
X7708000Y-8203857D01*
X7708000Y-8053857D01*
X7779428Y-8053857D01*
D10*
X19713000Y-7870000D02*
X22014000Y-8821000D01*
D11*
X13680857Y-7537714D02*
X13680857Y-7237714D01*
X13795143Y-7237714D01*
X13823714Y-7252000D01*
X13838000Y-7266286D01*
X13852286Y-7294857D01*
X13852286Y-7337714D01*
X13838000Y-7366286D01*
X13823714Y-7380571D01*
X13795143Y-7394857D01*
X13680857Y-7394857D01*
X14023714Y-7537714D02*
X13995143Y-7523428D01*
X13980857Y-7494857D01*
X13980857Y-7237714D01*
X14252286Y-7523428D02*
X14223714Y-7537714D01*
X14166571Y-7537714D01*
X14138000Y-7523428D01*
X14123714Y-7494857D01*
X14123714Y-7380571D01*
X14138000Y-7352000D01*
X14166571Y-7337714D01*
X14223714Y-7337714D01*
X14252286Y-7352000D01*
X14266571Y-7380571D01*
X14266571Y-7409143D01*
X14123714Y-7437714D01*
X14523714Y-7537714D02*
X14523714Y-7380571D01*
X14509428Y-7352000D01*
X14480857Y-7337714D01*
X14423714Y-7337714D01*
X14395143Y-7352000D01*
X14523714Y-7523428D02*
X14495143Y-7537714D01*
X14423714Y-7537714D01*
X14395143Y-7523428D01*
X14380857Y-7494857D01*
X14380857Y-7466286D01*
X14395143Y-7437714D01*
X14423714Y-7423428D01*
X14495143Y-7423428D01*
X14523714Y-7409143D01*
X14652286Y-7523428D02*
X14680857Y-7537714D01*
X14738000Y-7537714D01*
X14766571Y-7523428D01*
X14780857Y-7494857D01*
X14780857Y-7480571D01*
X14766571Y-7452000D01*
X14738000Y-7437714D01*
X14695143Y-7437714D01*
X14666571Y-7423428D01*
X14652286Y-7394857D01*
X14652286Y-7380571D01*
X14666571Y-7352000D01*
X14695143Y-7337714D01*
X14738000Y-7337714D01*
X14766571Y-7352000D01*
X15023714Y-7523428D02*
X14995143Y-7537714D01*
X14938000Y-7537714D01*
X14909428Y-7523428D01*
X14895143Y-7494857D01*
X14895143Y-7380571D01*
X14909428Y-7352000D01*
X14938000Y-7337714D01*
X14995143Y-7337714D01*
X15023714Y-7352000D01*
X15038000Y-7380571D01*
X15038000Y-7409143D01*
X14895143Y-7437714D01*
X15438000Y-7537714D02*
X15409428Y-7523428D01*
X15395143Y-7509143D01*
X15380857Y-7480571D01*
X15380857Y-7394857D01*
X15395143Y-7366286D01*
X15409428Y-7352000D01*
X15438000Y-7337714D01*
X15480857Y-7337714D01*
X15509428Y-7352000D01*
X15523714Y-7366286D01*
X15538000Y-7394857D01*
X15538000Y-7480571D01*
X15523714Y-7509143D01*
X15509428Y-7523428D01*
X15480857Y-7537714D01*
X15438000Y-7537714D01*
X15666571Y-7337714D02*
X15666571Y-7537714D01*
X15666571Y-7366286D02*
X15680857Y-7352000D01*
X15709428Y-7337714D01*
X15752286Y-7337714D01*
X15780857Y-7352000D01*
X15795143Y-7380571D01*
X15795143Y-7537714D01*
X15980857Y-7537714D02*
X15952286Y-7523428D01*
X15938000Y-7494857D01*
X15938000Y-7237714D01*
X16066571Y-7337714D02*
X16138000Y-7537714D01*
X16209428Y-7337714D02*
X16138000Y-7537714D01*
X16109428Y-7609143D01*
X16095143Y-7623428D01*
X16066571Y-7637714D01*
X16680857Y-7537714D02*
X16680857Y-7380571D01*
X16666571Y-7352000D01*
X16638000Y-7337714D01*
X16580857Y-7337714D01*
X16552286Y-7352000D01*
X16680857Y-7523428D02*
X16652286Y-7537714D01*
X16580857Y-7537714D01*
X16552286Y-7523428D01*
X16538000Y-7494857D01*
X16538000Y-7466286D01*
X16552286Y-7437714D01*
X16580857Y-7423428D01*
X16652286Y-7423428D01*
X16680857Y-7409143D01*
X16952286Y-7537714D02*
X16952286Y-7237714D01*
X16952286Y-7523428D02*
X16923714Y-7537714D01*
X16866571Y-7537714D01*
X16838000Y-7523428D01*
X16823714Y-7509143D01*
X16809429Y-7480571D01*
X16809429Y-7394857D01*
X16823714Y-7366286D01*
X16838000Y-7352000D01*
X16866571Y-7337714D01*
X16923714Y-7337714D01*
X16952286Y-7352000D01*
X17223714Y-7537714D02*
X17223714Y-7237714D01*
X17223714Y-7523428D02*
X17195143Y-7537714D01*
X17138000Y-7537714D01*
X17109429Y-7523428D01*
X17095143Y-7509143D01*
X17080857Y-7480571D01*
X17080857Y-7394857D01*
X17095143Y-7366286D01*
X17109429Y-7352000D01*
X17138000Y-7337714D01*
X17195143Y-7337714D01*
X17223714Y-7352000D01*
X17580857Y-7523428D02*
X17609429Y-7537714D01*
X17666571Y-7537714D01*
X17695143Y-7523428D01*
X17709429Y-7494857D01*
X17709429Y-7480571D01*
X17695143Y-7452000D01*
X17666571Y-7437714D01*
X17623714Y-7437714D01*
X17595143Y-7423428D01*
X17580857Y-7394857D01*
X17580857Y-7380571D01*
X17595143Y-7352000D01*
X17623714Y-7337714D01*
X17666571Y-7337714D01*
X17695143Y-7352000D01*
X17952286Y-7523428D02*
X17923714Y-7537714D01*
X17866571Y-7537714D01*
X17838000Y-7523428D01*
X17823714Y-7494857D01*
X17823714Y-7380571D01*
X17838000Y-7352000D01*
X17866571Y-7337714D01*
X17923714Y-7337714D01*
X17952286Y-7352000D01*
X17966571Y-7380571D01*
X17966571Y-7409143D01*
X17823714Y-7437714D01*
X18095143Y-7537714D02*
X18095143Y-7337714D01*
X18095143Y-7394857D02*
X18109429Y-7366286D01*
X18123714Y-7352000D01*
X18152286Y-7337714D01*
X18180857Y-7337714D01*
X18280857Y-7537714D02*
X18280857Y-7337714D01*
X18280857Y-7237714D02*
X18266571Y-7252000D01*
X18280857Y-7266286D01*
X18295143Y-7252000D01*
X18280857Y-7237714D01*
X18280857Y-7266286D01*
X18552286Y-7537714D02*
X18552286Y-7380571D01*
X18538000Y-7352000D01*
X18509429Y-7337714D01*
X18452286Y-7337714D01*
X18423714Y-7352000D01*
X18552286Y-7523428D02*
X18523714Y-7537714D01*
X18452286Y-7537714D01*
X18423714Y-7523428D01*
X18409429Y-7494857D01*
X18409429Y-7466286D01*
X18423714Y-7437714D01*
X18452286Y-7423428D01*
X18523714Y-7423428D01*
X18552286Y-7409143D01*
X18738000Y-7537714D02*
X18709429Y-7523428D01*
X18695143Y-7494857D01*
X18695143Y-7237714D01*
X19080857Y-7337714D02*
X19080857Y-7537714D01*
X19080857Y-7366286D02*
X19095143Y-7352000D01*
X19123714Y-7337714D01*
X19166571Y-7337714D01*
X19195143Y-7352000D01*
X19209429Y-7380571D01*
X19209429Y-7537714D01*
X19480857Y-7337714D02*
X19480857Y-7537714D01*
X19352286Y-7337714D02*
X19352286Y-7494857D01*
X19366571Y-7523428D01*
X19395143Y-7537714D01*
X19438000Y-7537714D01*
X19466571Y-7523428D01*
X19480857Y-7509143D01*
X19623714Y-7537714D02*
X19623714Y-7337714D01*
X19623714Y-7366286D02*
X19638000Y-7352000D01*
X19666571Y-7337714D01*
X19709429Y-7337714D01*
X19738000Y-7352000D01*
X19752286Y-7380571D01*
X19752286Y-7537714D01*
X19752286Y-7380571D02*
X19766571Y-7352000D01*
X19795143Y-7337714D01*
X19838000Y-7337714D01*
X19866571Y-7352000D01*
X19880857Y-7380571D01*
X19880857Y-7537714D01*
X20023714Y-7537714D02*
X20023714Y-7237714D01*
X20023714Y-7352000D02*
X20052286Y-7337714D01*
X20109429Y-7337714D01*
X20138000Y-7352000D01*
X20152286Y-7366286D01*
X20166571Y-7394857D01*
X20166571Y-7480571D01*
X20152286Y-7509143D01*
X20138000Y-7523428D01*
X20109429Y-7537714D01*
X20052286Y-7537714D01*
X20023714Y-7523428D01*
X20409429Y-7523428D02*
X20380857Y-7537714D01*
X20323714Y-7537714D01*
X20295143Y-7523428D01*
X20280857Y-7494857D01*
X20280857Y-7380571D01*
X20295143Y-7352000D01*
X20323714Y-7337714D01*
X20380857Y-7337714D01*
X20409429Y-7352000D01*
X20423714Y-7380571D01*
X20423714Y-7409143D01*
X20280857Y-7437714D01*
X20552286Y-7537714D02*
X20552286Y-7337714D01*
X20552286Y-7394857D02*
X20566571Y-7366286D01*
X20580857Y-7352000D01*
X20609429Y-7337714D01*
X20638000Y-7337714D01*
X20723714Y-7523428D02*
X20752286Y-7537714D01*
X20809429Y-7537714D01*
X20838000Y-7523428D01*
X20852286Y-7494857D01*
X20852286Y-7480571D01*
X20838000Y-7452000D01*
X20809429Y-7437714D01*
X20766571Y-7437714D01*
X20738000Y-7423428D01*
X20723714Y-7394857D01*
X20723714Y-7380571D01*
X20738000Y-7352000D01*
X20766571Y-7337714D01*
X20809429Y-7337714D01*
X20838000Y-7352000D01*
X21166571Y-7337714D02*
X21280857Y-7337714D01*
X21209429Y-7237714D02*
X21209429Y-7494857D01*
X21223714Y-7523428D01*
X21252286Y-7537714D01*
X21280857Y-7537714D01*
X21423714Y-7537714D02*
X21395143Y-7523428D01*
X21380857Y-7509143D01*
X21366571Y-7480571D01*
X21366571Y-7394857D01*
X21380857Y-7366286D01*
X21395143Y-7352000D01*
X21423714Y-7337714D01*
X21466571Y-7337714D01*
X21495143Y-7352000D01*
X21509429Y-7366286D01*
X21523714Y-7394857D01*
X21523714Y-7480571D01*
X21509429Y-7509143D01*
X21495143Y-7523428D01*
X21466571Y-7537714D01*
X21423714Y-7537714D01*
X21838000Y-7337714D02*
X21952286Y-7337714D01*
X21880857Y-7537714D02*
X21880857Y-7280571D01*
X21895143Y-7252000D01*
X21923714Y-7237714D01*
X21952286Y-7237714D01*
X22052286Y-7537714D02*
X22052286Y-7337714D01*
X22052286Y-7394857D02*
X22066571Y-7366286D01*
X22080857Y-7352000D01*
X22109429Y-7337714D01*
X22138000Y-7337714D01*
X22366571Y-7537714D02*
X22366571Y-7380571D01*
X22352286Y-7352000D01*
X22323714Y-7337714D01*
X22266571Y-7337714D01*
X22238000Y-7352000D01*
X22366571Y-7523428D02*
X22338000Y-7537714D01*
X22266571Y-7537714D01*
X22238000Y-7523428D01*
X22223714Y-7494857D01*
X22223714Y-7466286D01*
X22238000Y-7437714D01*
X22266571Y-7423428D01*
X22338000Y-7423428D01*
X22366571Y-7409143D01*
X22509428Y-7537714D02*
X22509428Y-7337714D01*
X22509428Y-7366286D02*
X22523714Y-7352000D01*
X22552286Y-7337714D01*
X22595143Y-7337714D01*
X22623714Y-7352000D01*
X22638000Y-7380571D01*
X22638000Y-7537714D01*
X22638000Y-7380571D02*
X22652286Y-7352000D01*
X22680857Y-7337714D01*
X22723714Y-7337714D01*
X22752286Y-7352000D01*
X22766571Y-7380571D01*
X22766571Y-7537714D01*
X23023714Y-7523428D02*
X22995143Y-7537714D01*
X22938000Y-7537714D01*
X22909428Y-7523428D01*
X22895143Y-7494857D01*
X22895143Y-7380571D01*
X22909428Y-7352000D01*
X22938000Y-7337714D01*
X22995143Y-7337714D01*
X23023714Y-7352000D01*
X23038000Y-7380571D01*
X23038000Y-7409143D01*
X22895143Y-7437714D01*
X23166571Y-7509143D02*
X23180857Y-7523428D01*
X23166571Y-7537714D01*
X23152286Y-7523428D01*
X23166571Y-7509143D01*
X23166571Y-7537714D01*
D10*
X6528000Y-8018985D02*
X6528000Y-16590001D01*
X22014000Y-8821000D02*
X22091000Y-8867000D01*
M02*
