G04 #@! TF.GenerationSoftware,KiCad,Pcbnew,5.0.0-rc2-dev-unknown-44bf92a~82~ubuntu16.04.1*
G04 #@! TF.CreationDate,2018-05-21T13:04:55+01:00*
G04 #@! TF.ProjectId,ruler,72756C65722E6B696361645F70636200,rev?*
G04 #@! TF.SameCoordinates,Original*
G04 #@! TF.FileFunction,Profile,NP*
%FSLAX45Y45*%
G04 Gerber Fmt 4.5, Leading zero omitted, Abs format (unit mm)*
G04 Created by KiCad (PCBNEW 5.0.0-rc2-dev-unknown-44bf92a~82~ubuntu16.04.1) date Mon May 21 13:04:55 2018*
%MOMM*%
%LPD*%
G01*
G04 APERTURE LIST*
%ADD10C,0.150000*%
%ADD11C,0.100000*%
G04 APERTURE END LIST*
D10*
X22963029Y-8569029D02*
X22946000Y-8552000D01*
X6364000Y-8552000D02*
X22946000Y-8552000D01*
X6364000Y-8608000D02*
X6364000Y-8552000D01*
X6364000Y-16224000D02*
X6364000Y-8608000D01*
X22825000Y-16224000D02*
X6364000Y-16224000D01*
X22963000Y-16086000D02*
X22825000Y-16224000D01*
X22963000Y-8568000D02*
X22963000Y-16086000D01*
D11*
X22821876Y-12645054D02*
X22821876Y-13656203D01*
X22821876Y-13656203D02*
X22442144Y-13656203D01*
X22442144Y-13656203D02*
X22442144Y-13172898D01*
X22442144Y-13172898D02*
X22440711Y-13143353D01*
X22440711Y-13143353D02*
X22436467Y-13114634D01*
X22436467Y-13114634D02*
X22429576Y-13086963D01*
X22429576Y-13086963D02*
X22420151Y-13060450D01*
X22420151Y-13060450D02*
X22408355Y-13035204D01*
X22408355Y-13035204D02*
X22394299Y-13011447D01*
X22394299Y-13011447D02*
X22378203Y-12989233D01*
X22378203Y-12989233D02*
X22360123Y-12968783D01*
X22360123Y-12968783D02*
X22340169Y-12950152D01*
X22340169Y-12950152D02*
X22318617Y-12933615D01*
X22318617Y-12933615D02*
X22295466Y-12919173D01*
X22295466Y-12919173D02*
X22270882Y-12907047D01*
X22270882Y-12907047D02*
X22245085Y-12897400D01*
X22245085Y-12897400D02*
X22218130Y-12890290D01*
X22218130Y-12890290D02*
X22190239Y-12885935D01*
X22190239Y-12885935D02*
X22161465Y-12884447D01*
X22161465Y-12884447D02*
X6817673Y-12884447D01*
X6817673Y-12884447D02*
X6788899Y-12885935D01*
X6788899Y-12885935D02*
X6760953Y-12890290D01*
X6760953Y-12890290D02*
X6733998Y-12897400D01*
X6733998Y-12897400D02*
X6708201Y-12907047D01*
X6708201Y-12907047D02*
X6683672Y-12919173D01*
X6683672Y-12919173D02*
X6660521Y-12933615D01*
X6660521Y-12933615D02*
X6638914Y-12950152D01*
X6638914Y-12950152D02*
X6619015Y-12968783D01*
X6619015Y-12968783D02*
X6600935Y-12989233D01*
X6600935Y-12989233D02*
X6584784Y-13011447D01*
X6584784Y-13011447D02*
X6570783Y-13035204D01*
X6570783Y-13035204D02*
X6558987Y-13060450D01*
X6558987Y-13060450D02*
X6549562Y-13086963D01*
X6549562Y-13086963D02*
X6542671Y-13114634D01*
X6542671Y-13114634D02*
X6538427Y-13143353D01*
X6538427Y-13143353D02*
X6534954Y-12653267D01*
X6534954Y-12653267D02*
X22821876Y-12645054D01*
X22821876Y-12645054D02*
X22821876Y-12645054D01*
X22442144Y-13873426D02*
X22821876Y-13873426D01*
X22821876Y-13873426D02*
X22821876Y-14766509D01*
X22821876Y-14766509D02*
X22442144Y-14766509D01*
X22442144Y-14766509D02*
X22442144Y-13873426D01*
X22442144Y-13873426D02*
X22442144Y-13873426D01*
X22442144Y-14990916D02*
X22821876Y-14990916D01*
X22821876Y-14990916D02*
X22821876Y-16012593D01*
X22821876Y-16012593D02*
X6534954Y-16020806D01*
X6534954Y-16020806D02*
X6536994Y-15501121D01*
X6536994Y-15501121D02*
X6538427Y-15530721D01*
X6538427Y-15530721D02*
X6542671Y-15559439D01*
X6542671Y-15559439D02*
X6549562Y-15587110D01*
X6549562Y-15587110D02*
X6558987Y-15613624D01*
X6558987Y-15613624D02*
X6570783Y-15638869D01*
X6570783Y-15638869D02*
X6584784Y-15662627D01*
X6584784Y-15662627D02*
X6600935Y-15684841D01*
X6600935Y-15684841D02*
X6619015Y-15705291D01*
X6619015Y-15705291D02*
X6638914Y-15723922D01*
X6638914Y-15723922D02*
X6660521Y-15740458D01*
X6660521Y-15740458D02*
X6683672Y-15754900D01*
X6683672Y-15754900D02*
X6708201Y-15767027D01*
X6708201Y-15767027D02*
X6733998Y-15776673D01*
X6733998Y-15776673D02*
X6760953Y-15783784D01*
X6760953Y-15783784D02*
X6788899Y-15788138D01*
X6788899Y-15788138D02*
X6817673Y-15789627D01*
X6817673Y-15789627D02*
X22161465Y-15789627D01*
X22161465Y-15789627D02*
X22190239Y-15788138D01*
X22190239Y-15788138D02*
X22218130Y-15783784D01*
X22218130Y-15783784D02*
X22245085Y-15776673D01*
X22245085Y-15776673D02*
X22270882Y-15767027D01*
X22270882Y-15767027D02*
X22295466Y-15754900D01*
X22295466Y-15754900D02*
X22318617Y-15740458D01*
X22318617Y-15740458D02*
X22340169Y-15723922D01*
X22340169Y-15723922D02*
X22360123Y-15705291D01*
X22360123Y-15705291D02*
X22378203Y-15684841D01*
X22378203Y-15684841D02*
X22394299Y-15662627D01*
X22394299Y-15662627D02*
X22408355Y-15638869D01*
X22408355Y-15638869D02*
X22420151Y-15613624D01*
X22420151Y-15613624D02*
X22429576Y-15587110D01*
X22429576Y-15587110D02*
X22436467Y-15559439D01*
X22436467Y-15559439D02*
X22440711Y-15530721D01*
X22440711Y-15530721D02*
X22442144Y-15501121D01*
X22442144Y-15501121D02*
X22442144Y-14990916D01*
X22442144Y-14990916D02*
X22442144Y-14990916D01*
X22442144Y-11155516D02*
X22442144Y-11155516D01*
X22442144Y-11665721D02*
X22442144Y-11155516D01*
X22440711Y-11695321D02*
X22442144Y-11665721D01*
X22436467Y-11724039D02*
X22440711Y-11695321D01*
X22429576Y-11751710D02*
X22436467Y-11724039D01*
X22420151Y-11778224D02*
X22429576Y-11751710D01*
X22408355Y-11803469D02*
X22420151Y-11778224D01*
X22394299Y-11827227D02*
X22408355Y-11803469D01*
X22378203Y-11849441D02*
X22394299Y-11827227D01*
X22360123Y-11869891D02*
X22378203Y-11849441D01*
X22340169Y-11888522D02*
X22360123Y-11869891D01*
X22318617Y-11905058D02*
X22340169Y-11888522D01*
X22295466Y-11919500D02*
X22318617Y-11905058D01*
X22270882Y-11931627D02*
X22295466Y-11919500D01*
X22245085Y-11941273D02*
X22270882Y-11931627D01*
X22218130Y-11948384D02*
X22245085Y-11941273D01*
X22190239Y-11952738D02*
X22218130Y-11948384D01*
X22161465Y-11954227D02*
X22190239Y-11952738D01*
X6817673Y-11954227D02*
X22161465Y-11954227D01*
X6788899Y-11952738D02*
X6817673Y-11954227D01*
X6760953Y-11948384D02*
X6788899Y-11952738D01*
X6733998Y-11941273D02*
X6760953Y-11948384D01*
X6708201Y-11931627D02*
X6733998Y-11941273D01*
X6683672Y-11919500D02*
X6708201Y-11931627D01*
X6660521Y-11905058D02*
X6683672Y-11919500D01*
X6638914Y-11888522D02*
X6660521Y-11905058D01*
X6619015Y-11869891D02*
X6638914Y-11888522D01*
X6600935Y-11849441D02*
X6619015Y-11869891D01*
X6584784Y-11827227D02*
X6600935Y-11849441D01*
X6570783Y-11803469D02*
X6584784Y-11827227D01*
X6558987Y-11778224D02*
X6570783Y-11803469D01*
X6549562Y-11751710D02*
X6558987Y-11778224D01*
X6542671Y-11724039D02*
X6549562Y-11751710D01*
X6538427Y-11695321D02*
X6542671Y-11724039D01*
X6536994Y-11665721D02*
X6538427Y-11695321D01*
X6534954Y-12185406D02*
X6536994Y-11665721D01*
X22821876Y-12177193D02*
X6534954Y-12185406D01*
X22821876Y-11155516D02*
X22821876Y-12177193D01*
X22442144Y-11155516D02*
X22821876Y-11155516D01*
X22442144Y-10038027D02*
X22442144Y-10038027D01*
X22442144Y-10931109D02*
X22442144Y-10038027D01*
X22821876Y-10931109D02*
X22442144Y-10931109D01*
X22821876Y-10038027D02*
X22821876Y-10931109D01*
X22442144Y-10038027D02*
X22821876Y-10038027D01*
X22821876Y-8809654D02*
X22821876Y-8809654D01*
X6534954Y-8817867D02*
X22821876Y-8809654D01*
X6538427Y-9307953D02*
X6534954Y-8817867D01*
X6542671Y-9279234D02*
X6538427Y-9307953D01*
X6549562Y-9251563D02*
X6542671Y-9279234D01*
X6558987Y-9225050D02*
X6549562Y-9251563D01*
X6570783Y-9199804D02*
X6558987Y-9225050D01*
X6584784Y-9176047D02*
X6570783Y-9199804D01*
X6600935Y-9153833D02*
X6584784Y-9176047D01*
X6619015Y-9133383D02*
X6600935Y-9153833D01*
X6638914Y-9114752D02*
X6619015Y-9133383D01*
X6660521Y-9098215D02*
X6638914Y-9114752D01*
X6683672Y-9083773D02*
X6660521Y-9098215D01*
X6708201Y-9071647D02*
X6683672Y-9083773D01*
X6733998Y-9062000D02*
X6708201Y-9071647D01*
X6760953Y-9054890D02*
X6733998Y-9062000D01*
X6788899Y-9050535D02*
X6760953Y-9054890D01*
X6817673Y-9049047D02*
X6788899Y-9050535D01*
X22161465Y-9049047D02*
X6817673Y-9049047D01*
X22190239Y-9050535D02*
X22161465Y-9049047D01*
X22218130Y-9054890D02*
X22190239Y-9050535D01*
X22245085Y-9062000D02*
X22218130Y-9054890D01*
X22270882Y-9071647D02*
X22245085Y-9062000D01*
X22295466Y-9083773D02*
X22270882Y-9071647D01*
X22318617Y-9098215D02*
X22295466Y-9083773D01*
X22340169Y-9114752D02*
X22318617Y-9098215D01*
X22360123Y-9133383D02*
X22340169Y-9114752D01*
X22378203Y-9153833D02*
X22360123Y-9133383D01*
X22394299Y-9176047D02*
X22378203Y-9153833D01*
X22408355Y-9199804D02*
X22394299Y-9176047D01*
X22420151Y-9225050D02*
X22408355Y-9199804D01*
X22429576Y-9251563D02*
X22420151Y-9225050D01*
X22436467Y-9279234D02*
X22429576Y-9251563D01*
X22440711Y-9307953D02*
X22436467Y-9279234D01*
X22442144Y-9337498D02*
X22440711Y-9307953D01*
X22442144Y-9820803D02*
X22442144Y-9337498D01*
X22821876Y-9820803D02*
X22442144Y-9820803D01*
X22821876Y-8809654D02*
X22821876Y-9820803D01*
M02*
