M48
;DRILL file {KiCad 5.0.0-rc2-dev-unknown-44bf92a~82~ubuntu16.04.1} date Mon May 21 13:04:57 2018
;FORMAT={-:-/ absolute / metric / decimal}
FMAT,2
METRIC,TZ
T1C0.500
%
G90
G05
M71
T1
X224.361Y-124.565
X224.361Y-125.288
X224.361Y-126.011
X224.361Y-136.782
X224.361Y-137.613
X224.361Y-138.443
X224.361Y-147.921
X224.361Y-148.751
X224.361Y-149.581
X224.361Y-160.426
X224.361Y-161.148
X224.361Y-161.871
X224.361Y-86.211
X224.361Y-86.934
X224.361Y-87.657
X224.361Y-98.428
X224.361Y-99.259
X224.361Y-100.089
X224.361Y-109.567
X224.361Y-110.397
X224.361Y-111.227
X224.361Y-122.072
X224.361Y-122.794
X224.361Y-123.517
T0
M30
