G04 #@! TF.GenerationSoftware,KiCad,Pcbnew,5.0.0-rc2-dev-unknown-44bf92a~82~ubuntu16.04.1*
G04 #@! TF.CreationDate,2018-05-20T23:56:59+01:00*
G04 #@! TF.ProjectId,ruler,72756C65722E6B696361645F70636200,rev?*
G04 #@! TF.SameCoordinates,Original*
G04 #@! TF.FileFunction,Copper,L2,Bot,Signal*
G04 #@! TF.FilePolarity,Positive*
%FSLAX45Y45*%
G04 Gerber Fmt 4.5, Leading zero omitted, Abs format (unit mm)*
G04 Created by KiCad (PCBNEW 5.0.0-rc2-dev-unknown-44bf92a~82~ubuntu16.04.1) date Sun May 20 23:56:59 2018*
%MOMM*%
%LPD*%
G01*
G04 APERTURE LIST*
%ADD10C,0.010000*%
%ADD11R,3.000000X1.600000*%
%ADD12R,2.600000X1.600000*%
%ADD13R,2.200000X1.600000*%
%ADD14R,1.000000X1.500000*%
%ADD15R,1.016000X2.032000*%
%ADD16R,3.657600X2.032000*%
%ADD17R,0.400000X0.510000*%
%ADD18R,0.700000X0.400000*%
%ADD19R,0.250000X0.400000*%
%ADD20R,0.550000X0.850000*%
%ADD21R,0.600000X1.000000*%
%ADD22R,1.600000X5.900000*%
%ADD23R,1.500000X4.200000*%
%ADD24R,1.200000X3.700000*%
%ADD25R,1.550000X0.600000*%
%ADD26R,0.500000X1.200000*%
%ADD27R,1.200000X0.500000*%
%ADD28C,0.500380*%
%ADD29R,0.900000X0.900000*%
%ADD30O,0.300000X0.750000*%
%ADD31O,0.750000X0.300000*%
%ADD32R,2.550000X2.700000*%
%ADD33R,2.550000X2.500000*%
%ADD34R,1.950000X2.500000*%
%ADD35R,1.950000X1.500000*%
%ADD36R,1.021080X0.408940*%
%ADD37R,0.700000X0.510000*%
%ADD38R,4.000000X2.500000*%
%ADD39R,1.100000X0.400000*%
%ADD40R,1.800000X7.700000*%
%ADD41R,0.650000X2.000000*%
%ADD42R,0.200000X0.200000*%
%ADD43R,1.060000X0.400000*%
%ADD44R,1.060000X0.650000*%
%ADD45R,1.397000X0.431800*%
%ADD46R,1.905000X0.635000*%
%ADD47R,1.000000X1.400000*%
%ADD48R,0.500000X0.375000*%
%ADD49R,0.650000X0.300000*%
%ADD50R,1.070000X0.300000*%
%ADD51R,2.300000X0.300000*%
%ADD52C,0.850000*%
%ADD53C,0.150000*%
%ADD54R,1.000000X1.800000*%
%ADD55R,2.200000X1.840000*%
%ADD56C,1.000000*%
%ADD57C,0.090000*%
%ADD58R,0.070000X0.180000*%
%ADD59C,0.125004*%
%ADD60R,0.250000X0.220000*%
%ADD61C,0.480000*%
%ADD62R,0.900000X0.600000*%
%ADD63R,0.600000X0.900000*%
%ADD64R,0.700000X1.150000*%
%ADD65R,4.200000X3.300000*%
%ADD66R,4.700000X1.550000*%
%ADD67R,1.450000X0.450000*%
%ADD68R,2.000000X0.640000*%
%ADD69R,0.800000X0.300000*%
G04 APERTURE END LIST*
D10*
G36*
X18771342Y-9048787D02*
X19048095Y-9048825D01*
X19015075Y-9065379D01*
X19007479Y-9069189D01*
X18997786Y-9074054D01*
X18986168Y-9079889D01*
X18972794Y-9086606D01*
X18957839Y-9094120D01*
X18941472Y-9102344D01*
X18923866Y-9111192D01*
X18905191Y-9120578D01*
X18885621Y-9130416D01*
X18865326Y-9140618D01*
X18844477Y-9151100D01*
X18823247Y-9161774D01*
X18801807Y-9172554D01*
X18780329Y-9183355D01*
X18758984Y-9194090D01*
X18737943Y-9204672D01*
X18717379Y-9215015D01*
X18697463Y-9225033D01*
X18678366Y-9234641D01*
X18660260Y-9243750D01*
X18643317Y-9252276D01*
X18627708Y-9260132D01*
X18613605Y-9267232D01*
X18603595Y-9272272D01*
X18589251Y-9279494D01*
X18572989Y-9287681D01*
X18555160Y-9296655D01*
X18536115Y-9306240D01*
X18516205Y-9316260D01*
X18495781Y-9326536D01*
X18475194Y-9336894D01*
X18454795Y-9347156D01*
X18434936Y-9357145D01*
X18415968Y-9366685D01*
X18405475Y-9371962D01*
X18386559Y-9381475D01*
X18366094Y-9391766D01*
X18344489Y-9402632D01*
X18322150Y-9413867D01*
X18299487Y-9425265D01*
X18276907Y-9436622D01*
X18254819Y-9447732D01*
X18233630Y-9458390D01*
X18213748Y-9468390D01*
X18195581Y-9477529D01*
X18189575Y-9480550D01*
X18171454Y-9489666D01*
X18151509Y-9499699D01*
X18130187Y-9510425D01*
X18107931Y-9521620D01*
X18085189Y-9533060D01*
X18062405Y-9544521D01*
X18040025Y-9555778D01*
X18018494Y-9566608D01*
X17998259Y-9576787D01*
X17980660Y-9585639D01*
X17947185Y-9602478D01*
X17915864Y-9618232D01*
X17886582Y-9632961D01*
X17859225Y-9646721D01*
X17833679Y-9659572D01*
X17809827Y-9671569D01*
X17787556Y-9682772D01*
X17766751Y-9693237D01*
X17747297Y-9703024D01*
X17729079Y-9712188D01*
X17711982Y-9720788D01*
X17695891Y-9728883D01*
X17680693Y-9736529D01*
X17666271Y-9743784D01*
X17652512Y-9750706D01*
X17639300Y-9757353D01*
X17626521Y-9763782D01*
X17614060Y-9770052D01*
X17601802Y-9776219D01*
X17589632Y-9782342D01*
X17577436Y-9788479D01*
X17565099Y-9794687D01*
X17563465Y-9795509D01*
X17547792Y-9803395D01*
X17530196Y-9812247D01*
X17511020Y-9821892D01*
X17490612Y-9832157D01*
X17469315Y-9842868D01*
X17447477Y-9853850D01*
X17425441Y-9864931D01*
X17403555Y-9875936D01*
X17382162Y-9886692D01*
X17361608Y-9897025D01*
X17342240Y-9906762D01*
X17341215Y-9907277D01*
X17317437Y-9919230D01*
X17294144Y-9930943D01*
X17271441Y-9942363D01*
X17249432Y-9953436D01*
X17228221Y-9964110D01*
X17207915Y-9974333D01*
X17188617Y-9984050D01*
X17170432Y-9993210D01*
X17153466Y-10001760D01*
X17137822Y-10009646D01*
X17123607Y-10016817D01*
X17110923Y-10023219D01*
X17099877Y-10028799D01*
X17090572Y-10033505D01*
X17083115Y-10037284D01*
X17077609Y-10040082D01*
X17074159Y-10041848D01*
X17072870Y-10042529D01*
X17072866Y-10042532D01*
X17073799Y-10043309D01*
X17076619Y-10045428D01*
X17081146Y-10048759D01*
X17087198Y-10053170D01*
X17094593Y-10058530D01*
X17103152Y-10064708D01*
X17112693Y-10071572D01*
X17123035Y-10078990D01*
X17131921Y-10085350D01*
X17140194Y-10091265D01*
X17150351Y-10098528D01*
X17162212Y-10107010D01*
X17175595Y-10116581D01*
X17190318Y-10127111D01*
X17206200Y-10138471D01*
X17223061Y-10150531D01*
X17240718Y-10163162D01*
X17258991Y-10176233D01*
X17277698Y-10189615D01*
X17296658Y-10203178D01*
X17315689Y-10216793D01*
X17334611Y-10230330D01*
X17343755Y-10236872D01*
X17362215Y-10250078D01*
X17380656Y-10263270D01*
X17398918Y-10276333D01*
X17416839Y-10289151D01*
X17434257Y-10301608D01*
X17451009Y-10313589D01*
X17466935Y-10324977D01*
X17481872Y-10335658D01*
X17495658Y-10345515D01*
X17508132Y-10354432D01*
X17519132Y-10362294D01*
X17528497Y-10368986D01*
X17536063Y-10374391D01*
X17539970Y-10377180D01*
X17546270Y-10381679D01*
X17554474Y-10387540D01*
X17564419Y-10394648D01*
X17575945Y-10402887D01*
X17588889Y-10412142D01*
X17603090Y-10422295D01*
X17618386Y-10433233D01*
X17634614Y-10444839D01*
X17651614Y-10456997D01*
X17669223Y-10469592D01*
X17687279Y-10482508D01*
X17705621Y-10495629D01*
X17724087Y-10508840D01*
X17736185Y-10517496D01*
X17769489Y-10541324D01*
X17800800Y-10563726D01*
X17830189Y-10584753D01*
X17857728Y-10604456D01*
X17883491Y-10622887D01*
X17907548Y-10640098D01*
X17929972Y-10656141D01*
X17950835Y-10671066D01*
X17970208Y-10684925D01*
X17988165Y-10697770D01*
X18004777Y-10709653D01*
X18020116Y-10720624D01*
X18034255Y-10730736D01*
X18047264Y-10740040D01*
X18059217Y-10748587D01*
X18070186Y-10756430D01*
X18080242Y-10763620D01*
X18089458Y-10770207D01*
X18097905Y-10776245D01*
X18105656Y-10781784D01*
X18112784Y-10786875D01*
X18119359Y-10791571D01*
X18124170Y-10795007D01*
X18130470Y-10799507D01*
X18138673Y-10805369D01*
X18148618Y-10812478D01*
X18160144Y-10820719D01*
X18173087Y-10829975D01*
X18187288Y-10840130D01*
X18202582Y-10851069D01*
X18218810Y-10862677D01*
X18235809Y-10874837D01*
X18253417Y-10887434D01*
X18271473Y-10900352D01*
X18289814Y-10913475D01*
X18308280Y-10926688D01*
X18320385Y-10935350D01*
X18338749Y-10948491D01*
X18357035Y-10961576D01*
X18375088Y-10974492D01*
X18392750Y-10987128D01*
X18409865Y-10999372D01*
X18426277Y-11011112D01*
X18441829Y-11022236D01*
X18456365Y-11032632D01*
X18469727Y-11042188D01*
X18481761Y-11050792D01*
X18492308Y-11058333D01*
X18501213Y-11064698D01*
X18508319Y-11069775D01*
X18512155Y-11072514D01*
X18517902Y-11076619D01*
X18525558Y-11082089D01*
X18534967Y-11088815D01*
X18545972Y-11096682D01*
X18558416Y-11105581D01*
X18572143Y-11115397D01*
X18586997Y-11126021D01*
X18602820Y-11137339D01*
X18619457Y-11149240D01*
X18636751Y-11161612D01*
X18654546Y-11174342D01*
X18672684Y-11187320D01*
X18691010Y-11200432D01*
X18703925Y-11209674D01*
X18722384Y-11222882D01*
X18740825Y-11236077D01*
X18759086Y-11249142D01*
X18777006Y-11261962D01*
X18794423Y-11274420D01*
X18811175Y-11286403D01*
X18827101Y-11297792D01*
X18842037Y-11308474D01*
X18855824Y-11318332D01*
X18868298Y-11327250D01*
X18879298Y-11335113D01*
X18888663Y-11341805D01*
X18896230Y-11347211D01*
X18900140Y-11350003D01*
X18906440Y-11354501D01*
X18914643Y-11360362D01*
X18924588Y-11367470D01*
X18936113Y-11375710D01*
X18949057Y-11384964D01*
X18963257Y-11395119D01*
X18978552Y-11406057D01*
X18994779Y-11417664D01*
X19011778Y-11429824D01*
X19029386Y-11442420D01*
X19047441Y-11455338D01*
X19065783Y-11468461D01*
X19084248Y-11481674D01*
X19096355Y-11490338D01*
X19114719Y-11503479D01*
X19133005Y-11516564D01*
X19151058Y-11529480D01*
X19168720Y-11542116D01*
X19185835Y-11554361D01*
X19202247Y-11566101D01*
X19217799Y-11577225D01*
X19232334Y-11587621D01*
X19245697Y-11597177D01*
X19257730Y-11605782D01*
X19268278Y-11613322D01*
X19277183Y-11619687D01*
X19284289Y-11624764D01*
X19288125Y-11627504D01*
X19293872Y-11631608D01*
X19301529Y-11637079D01*
X19310938Y-11643804D01*
X19321943Y-11651672D01*
X19334387Y-11660569D01*
X19348115Y-11670386D01*
X19362969Y-11681008D01*
X19378793Y-11692326D01*
X19395430Y-11704226D01*
X19412725Y-11716597D01*
X19430520Y-11729326D01*
X19448659Y-11742303D01*
X19466985Y-11755414D01*
X19479895Y-11764651D01*
X19498561Y-11778006D01*
X19517340Y-11791440D01*
X19536058Y-11804830D01*
X19554542Y-11818050D01*
X19572618Y-11830977D01*
X19590113Y-11843488D01*
X19606852Y-11855457D01*
X19622664Y-11866761D01*
X19637374Y-11877276D01*
X19650808Y-11886877D01*
X19662793Y-11895441D01*
X19673156Y-11902844D01*
X19681724Y-11908962D01*
X19685635Y-11911753D01*
X19696042Y-11919182D01*
X19705894Y-11926222D01*
X19714985Y-11932725D01*
X19723106Y-11938541D01*
X19730050Y-11943522D01*
X19735609Y-11947518D01*
X19739575Y-11950381D01*
X19741741Y-11951963D01*
X19742004Y-11952161D01*
X19742402Y-11952514D01*
X19742551Y-11952829D01*
X19742318Y-11953110D01*
X19741572Y-11953357D01*
X19740183Y-11953574D01*
X19738020Y-11953761D01*
X19734950Y-11953922D01*
X19730842Y-11954058D01*
X19725567Y-11954171D01*
X19718991Y-11954264D01*
X19710985Y-11954338D01*
X19701417Y-11954395D01*
X19690155Y-11954438D01*
X19677070Y-11954469D01*
X19662028Y-11954489D01*
X19644900Y-11954502D01*
X19625553Y-11954508D01*
X19603858Y-11954510D01*
X19593194Y-11954510D01*
X19441355Y-11954510D01*
X19437765Y-11951554D01*
X19435616Y-11949850D01*
X19431837Y-11946921D01*
X19426824Y-11943070D01*
X19420974Y-11938602D01*
X19415125Y-11934157D01*
X19407915Y-11928690D01*
X19400278Y-11922894D01*
X19392887Y-11917281D01*
X19386414Y-11912362D01*
X19383058Y-11909808D01*
X19368043Y-11898380D01*
X19354515Y-11888085D01*
X19341938Y-11878515D01*
X19329778Y-11869263D01*
X19327813Y-11867768D01*
X19320452Y-11862168D01*
X19312055Y-11855781D01*
X19303609Y-11849355D01*
X19296098Y-11843642D01*
X19295428Y-11843132D01*
X19288509Y-11837868D01*
X19280978Y-11832138D01*
X19273654Y-11826566D01*
X19267356Y-11821773D01*
X19266218Y-11820907D01*
X19259550Y-11815832D01*
X19251960Y-11810056D01*
X19244547Y-11804415D01*
X19240183Y-11801093D01*
X19234153Y-11796505D01*
X19226943Y-11791019D01*
X19219392Y-11785274D01*
X19212340Y-11779910D01*
X19211290Y-11779111D01*
X19196383Y-11767771D01*
X19182595Y-11757281D01*
X19170147Y-11747811D01*
X19159263Y-11739529D01*
X19150165Y-11732605D01*
X19149695Y-11732247D01*
X19143914Y-11727848D01*
X19136896Y-11722508D01*
X19129426Y-11716824D01*
X19122289Y-11711395D01*
X19120485Y-11710022D01*
X19113577Y-11704768D01*
X19106121Y-11699094D01*
X19098900Y-11693600D01*
X19092700Y-11688882D01*
X19091275Y-11687797D01*
X19085494Y-11683398D01*
X19078476Y-11678058D01*
X19071006Y-11672374D01*
X19063869Y-11666945D01*
X19062065Y-11665572D01*
X19055157Y-11660318D01*
X19047701Y-11654644D01*
X19040480Y-11649150D01*
X19034280Y-11644432D01*
X19032855Y-11643347D01*
X19027074Y-11638948D01*
X19020056Y-11633608D01*
X19012586Y-11627924D01*
X19005449Y-11622495D01*
X19003645Y-11621122D01*
X18996737Y-11615868D01*
X18989281Y-11610194D01*
X18982060Y-11604700D01*
X18975860Y-11599982D01*
X18974435Y-11598897D01*
X18968654Y-11594498D01*
X18961636Y-11589158D01*
X18954166Y-11583474D01*
X18947029Y-11578045D01*
X18945225Y-11576672D01*
X18938317Y-11571418D01*
X18930861Y-11565744D01*
X18923640Y-11560250D01*
X18917440Y-11555532D01*
X18916015Y-11554447D01*
X18910234Y-11550048D01*
X18903216Y-11544708D01*
X18895746Y-11539024D01*
X18888609Y-11533595D01*
X18886805Y-11532222D01*
X18879856Y-11526936D01*
X18872319Y-11521202D01*
X18864993Y-11515628D01*
X18858678Y-11510823D01*
X18857278Y-11509757D01*
X18850610Y-11504682D01*
X18843020Y-11498906D01*
X18835607Y-11493265D01*
X18831243Y-11489943D01*
X18825272Y-11485400D01*
X18818099Y-11479942D01*
X18810544Y-11474193D01*
X18803424Y-11468777D01*
X18802033Y-11467718D01*
X18794672Y-11462118D01*
X18786275Y-11455731D01*
X18777829Y-11449305D01*
X18770318Y-11443592D01*
X18769648Y-11443082D01*
X18762729Y-11437818D01*
X18755198Y-11432088D01*
X18747874Y-11426516D01*
X18741576Y-11421723D01*
X18740438Y-11420857D01*
X18733770Y-11415782D01*
X18726180Y-11410006D01*
X18718767Y-11404365D01*
X18714403Y-11401043D01*
X18708373Y-11396455D01*
X18701163Y-11390969D01*
X18693612Y-11385224D01*
X18686560Y-11379860D01*
X18685510Y-11379061D01*
X18670603Y-11367721D01*
X18656815Y-11357231D01*
X18644367Y-11347761D01*
X18633483Y-11339479D01*
X18624385Y-11332555D01*
X18623915Y-11332197D01*
X18618134Y-11327798D01*
X18611116Y-11322458D01*
X18603646Y-11316774D01*
X18596509Y-11311345D01*
X18594705Y-11309972D01*
X18587797Y-11304718D01*
X18580341Y-11299044D01*
X18573120Y-11293550D01*
X18566920Y-11288832D01*
X18565495Y-11287747D01*
X18559714Y-11283348D01*
X18552696Y-11278008D01*
X18545226Y-11272324D01*
X18538089Y-11266895D01*
X18536285Y-11265522D01*
X18529377Y-11260268D01*
X18521921Y-11254594D01*
X18514700Y-11249100D01*
X18508500Y-11244382D01*
X18507075Y-11243297D01*
X18501294Y-11238898D01*
X18494276Y-11233558D01*
X18486806Y-11227874D01*
X18479669Y-11222445D01*
X18477865Y-11221072D01*
X18470957Y-11215818D01*
X18463501Y-11210144D01*
X18456280Y-11204650D01*
X18450080Y-11199932D01*
X18448655Y-11198847D01*
X18442874Y-11194448D01*
X18435856Y-11189108D01*
X18428386Y-11183424D01*
X18421249Y-11177995D01*
X18419445Y-11176623D01*
X18412537Y-11171368D01*
X18405081Y-11165694D01*
X18397860Y-11160200D01*
X18391660Y-11155482D01*
X18390235Y-11154398D01*
X18384454Y-11149998D01*
X18377436Y-11144658D01*
X18369966Y-11138974D01*
X18362829Y-11133545D01*
X18361025Y-11132173D01*
X18354117Y-11126918D01*
X18346661Y-11121244D01*
X18339440Y-11115750D01*
X18333240Y-11111032D01*
X18331815Y-11109948D01*
X18326034Y-11105548D01*
X18319016Y-11100208D01*
X18311546Y-11094524D01*
X18304409Y-11089095D01*
X18302605Y-11087723D01*
X18295697Y-11082468D01*
X18288241Y-11076794D01*
X18281020Y-11071300D01*
X18274820Y-11066582D01*
X18273395Y-11065498D01*
X18267614Y-11061098D01*
X18260596Y-11055758D01*
X18253126Y-11050074D01*
X18245989Y-11044645D01*
X18244185Y-11043273D01*
X18237277Y-11038018D01*
X18229821Y-11032344D01*
X18222600Y-11026850D01*
X18216400Y-11022132D01*
X18214975Y-11021048D01*
X18209194Y-11016648D01*
X18202176Y-11011308D01*
X18194706Y-11005624D01*
X18187569Y-11000195D01*
X18185765Y-10998823D01*
X18178857Y-10993568D01*
X18171401Y-10987894D01*
X18164180Y-10982400D01*
X18157980Y-10977682D01*
X18156555Y-10976598D01*
X18150774Y-10972198D01*
X18143756Y-10966858D01*
X18136286Y-10961174D01*
X18129149Y-10955745D01*
X18127345Y-10954373D01*
X18120437Y-10949118D01*
X18112981Y-10943444D01*
X18105760Y-10937950D01*
X18099560Y-10933232D01*
X18098135Y-10932148D01*
X18092354Y-10927748D01*
X18085336Y-10922408D01*
X18077866Y-10916724D01*
X18070729Y-10911295D01*
X18068925Y-10909923D01*
X18062017Y-10904668D01*
X18054561Y-10898995D01*
X18047340Y-10893501D01*
X18041140Y-10888782D01*
X18039715Y-10887698D01*
X18033931Y-10883298D01*
X18026910Y-10877960D01*
X18019437Y-10872281D01*
X18012298Y-10866859D01*
X18010505Y-10865497D01*
X18003594Y-10860247D01*
X17996133Y-10854573D01*
X17988909Y-10849075D01*
X17982709Y-10844351D01*
X17981295Y-10843272D01*
X17975511Y-10838863D01*
X17968488Y-10833517D01*
X17961015Y-10827832D01*
X17953875Y-10822407D01*
X17952085Y-10821047D01*
X17945090Y-10815732D01*
X17937467Y-10809930D01*
X17930032Y-10804264D01*
X17923600Y-10799354D01*
X17922240Y-10798315D01*
X17916066Y-10793602D01*
X17908725Y-10788010D01*
X17901077Y-10782195D01*
X17893981Y-10776810D01*
X17893030Y-10776089D01*
X17886089Y-10770823D01*
X17878469Y-10765031D01*
X17871028Y-10759365D01*
X17864627Y-10754481D01*
X17863820Y-10753864D01*
X17857646Y-10749151D01*
X17850306Y-10743560D01*
X17842658Y-10737745D01*
X17835562Y-10732359D01*
X17834610Y-10731638D01*
X17827318Y-10726108D01*
X17819001Y-10719793D01*
X17810653Y-10713449D01*
X17803267Y-10707831D01*
X17802860Y-10707521D01*
X17795972Y-10702277D01*
X17788447Y-10696548D01*
X17781124Y-10690974D01*
X17774844Y-10686194D01*
X17773968Y-10685527D01*
X17767300Y-10680452D01*
X17759710Y-10674676D01*
X17752297Y-10669035D01*
X17747933Y-10665713D01*
X17741962Y-10661170D01*
X17734789Y-10655712D01*
X17727234Y-10649963D01*
X17720114Y-10644547D01*
X17718723Y-10643488D01*
X17711362Y-10637889D01*
X17702965Y-10631501D01*
X17694519Y-10625075D01*
X17687008Y-10619362D01*
X17686338Y-10618852D01*
X17679461Y-10613620D01*
X17672012Y-10607953D01*
X17664795Y-10602461D01*
X17658614Y-10597758D01*
X17657445Y-10596868D01*
X17651664Y-10592468D01*
X17644646Y-10587128D01*
X17637176Y-10581444D01*
X17630039Y-10576015D01*
X17628235Y-10574643D01*
X17621327Y-10569388D01*
X17613871Y-10563714D01*
X17606650Y-10558220D01*
X17600450Y-10553502D01*
X17599025Y-10552418D01*
X17593244Y-10548018D01*
X17586226Y-10542678D01*
X17578756Y-10536994D01*
X17571619Y-10531565D01*
X17569815Y-10530193D01*
X17562907Y-10524938D01*
X17555451Y-10519264D01*
X17548230Y-10513770D01*
X17542030Y-10509052D01*
X17540605Y-10507968D01*
X17534824Y-10503568D01*
X17527806Y-10498228D01*
X17520336Y-10492544D01*
X17513199Y-10487115D01*
X17511395Y-10485743D01*
X17504487Y-10480488D01*
X17497031Y-10474814D01*
X17489810Y-10469320D01*
X17483610Y-10464602D01*
X17482185Y-10463518D01*
X17476404Y-10459118D01*
X17469386Y-10453778D01*
X17461916Y-10448094D01*
X17454779Y-10442665D01*
X17452975Y-10441293D01*
X17446067Y-10436038D01*
X17438611Y-10430364D01*
X17431390Y-10424870D01*
X17425190Y-10420152D01*
X17423765Y-10419068D01*
X17417984Y-10414668D01*
X17410966Y-10409328D01*
X17403496Y-10403644D01*
X17396359Y-10398215D01*
X17394555Y-10396843D01*
X17387647Y-10391588D01*
X17380191Y-10385914D01*
X17372970Y-10380420D01*
X17366770Y-10375702D01*
X17365345Y-10374618D01*
X17359564Y-10370218D01*
X17352546Y-10364878D01*
X17345076Y-10359194D01*
X17337939Y-10353765D01*
X17336135Y-10352393D01*
X17329227Y-10347138D01*
X17321771Y-10341464D01*
X17314550Y-10335970D01*
X17308350Y-10331252D01*
X17306925Y-10330168D01*
X17301144Y-10325768D01*
X17294126Y-10320428D01*
X17286656Y-10314744D01*
X17279519Y-10309315D01*
X17277715Y-10307943D01*
X17270807Y-10302688D01*
X17263351Y-10297014D01*
X17256130Y-10291520D01*
X17249930Y-10286802D01*
X17248505Y-10285718D01*
X17242724Y-10281318D01*
X17235706Y-10275978D01*
X17228236Y-10270294D01*
X17221099Y-10264865D01*
X17219295Y-10263493D01*
X17212387Y-10258238D01*
X17204931Y-10252564D01*
X17197710Y-10247070D01*
X17191510Y-10242352D01*
X17190085Y-10241268D01*
X17184304Y-10236868D01*
X17177286Y-10231528D01*
X17169816Y-10225844D01*
X17162679Y-10220415D01*
X17160875Y-10219043D01*
X17153967Y-10213788D01*
X17146511Y-10208114D01*
X17139290Y-10202620D01*
X17133090Y-10197902D01*
X17131665Y-10196818D01*
X17125884Y-10192418D01*
X17118866Y-10187078D01*
X17111396Y-10181394D01*
X17104259Y-10175965D01*
X17102455Y-10174593D01*
X17095547Y-10169338D01*
X17088091Y-10163664D01*
X17080870Y-10158170D01*
X17074670Y-10153452D01*
X17073245Y-10152368D01*
X17067464Y-10147968D01*
X17060446Y-10142628D01*
X17052976Y-10136944D01*
X17045839Y-10131515D01*
X17044035Y-10130143D01*
X17037127Y-10124888D01*
X17029671Y-10119214D01*
X17022450Y-10113720D01*
X17016250Y-10109002D01*
X17014825Y-10107918D01*
X17009044Y-10103518D01*
X17002026Y-10098178D01*
X16994556Y-10092494D01*
X16987419Y-10087065D01*
X16985615Y-10085693D01*
X16978666Y-10080407D01*
X16971129Y-10074672D01*
X16963803Y-10069098D01*
X16957488Y-10064293D01*
X16956088Y-10063227D01*
X16949420Y-10058152D01*
X16941830Y-10052376D01*
X16934417Y-10046735D01*
X16930053Y-10043413D01*
X16924138Y-10038913D01*
X16917002Y-10033483D01*
X16909443Y-10027732D01*
X16902261Y-10022268D01*
X16900525Y-10020947D01*
X16893617Y-10015692D01*
X16886160Y-10010017D01*
X16878939Y-10004521D01*
X16872739Y-9999800D01*
X16871315Y-9998715D01*
X16865098Y-9993981D01*
X16858333Y-9988831D01*
X16851963Y-9983983D01*
X16848138Y-9981073D01*
X16843798Y-9977693D01*
X16840343Y-9974850D01*
X16838196Y-9972903D01*
X16837698Y-9972254D01*
X16838767Y-9971391D01*
X16841703Y-9969538D01*
X16846141Y-9966913D01*
X16851713Y-9963733D01*
X16856430Y-9961108D01*
X16861200Y-9958472D01*
X16867896Y-9954761D01*
X16876229Y-9950134D01*
X16885907Y-9944755D01*
X16896639Y-9938785D01*
X16908135Y-9932385D01*
X16920103Y-9925717D01*
X16932253Y-9918944D01*
X16936085Y-9916807D01*
X16948905Y-9909657D01*
X16962181Y-9902256D01*
X16975534Y-9894814D01*
X16988586Y-9887541D01*
X17000959Y-9880649D01*
X17012275Y-9874347D01*
X17022155Y-9868848D01*
X17030222Y-9864362D01*
X17030700Y-9864096D01*
X17038629Y-9859687D01*
X17048397Y-9854250D01*
X17059627Y-9847998D01*
X17071940Y-9841140D01*
X17084958Y-9833888D01*
X17098303Y-9826452D01*
X17111597Y-9819042D01*
X17124460Y-9811870D01*
X17125315Y-9811393D01*
X17138135Y-9804245D01*
X17151411Y-9796845D01*
X17164765Y-9789403D01*
X17177818Y-9782131D01*
X17190191Y-9775240D01*
X17201507Y-9768939D01*
X17211388Y-9763440D01*
X17219454Y-9758953D01*
X17219930Y-9758688D01*
X17227859Y-9754278D01*
X17237627Y-9748842D01*
X17248857Y-9742589D01*
X17261170Y-9735731D01*
X17274188Y-9728478D01*
X17287533Y-9721042D01*
X17300827Y-9713632D01*
X17313690Y-9706460D01*
X17314545Y-9705983D01*
X17327365Y-9698835D01*
X17340641Y-9691435D01*
X17353995Y-9683993D01*
X17367048Y-9676721D01*
X17379421Y-9669830D01*
X17390737Y-9663529D01*
X17400618Y-9658030D01*
X17408684Y-9653543D01*
X17409160Y-9653278D01*
X17417089Y-9648868D01*
X17426857Y-9643432D01*
X17438087Y-9637179D01*
X17450400Y-9630321D01*
X17463418Y-9623068D01*
X17476763Y-9615632D01*
X17490057Y-9608222D01*
X17502920Y-9601050D01*
X17503775Y-9600573D01*
X17516595Y-9593425D01*
X17529871Y-9586025D01*
X17543225Y-9578583D01*
X17556278Y-9571311D01*
X17568651Y-9564420D01*
X17579967Y-9558119D01*
X17589848Y-9552620D01*
X17597914Y-9548133D01*
X17598390Y-9547868D01*
X17606319Y-9543458D01*
X17616087Y-9538022D01*
X17627317Y-9531769D01*
X17639630Y-9524911D01*
X17652648Y-9517658D01*
X17665993Y-9510222D01*
X17679287Y-9502812D01*
X17692150Y-9495640D01*
X17693005Y-9495163D01*
X17705825Y-9488015D01*
X17719101Y-9480615D01*
X17732455Y-9473173D01*
X17745508Y-9465901D01*
X17757881Y-9459010D01*
X17769197Y-9452709D01*
X17779078Y-9447210D01*
X17787144Y-9442723D01*
X17787620Y-9442458D01*
X17795549Y-9438048D01*
X17805317Y-9432612D01*
X17816547Y-9426359D01*
X17828860Y-9419501D01*
X17841878Y-9412248D01*
X17855223Y-9404812D01*
X17868517Y-9397402D01*
X17881380Y-9390230D01*
X17882235Y-9389753D01*
X17895055Y-9382605D01*
X17908331Y-9375205D01*
X17921685Y-9367763D01*
X17934738Y-9360491D01*
X17947111Y-9353600D01*
X17958427Y-9347299D01*
X17968308Y-9341800D01*
X17976374Y-9337313D01*
X17976850Y-9337048D01*
X17984779Y-9332638D01*
X17994547Y-9327202D01*
X18005777Y-9320949D01*
X18018090Y-9314091D01*
X18031108Y-9306838D01*
X18044453Y-9299402D01*
X18057747Y-9291992D01*
X18070610Y-9284820D01*
X18071465Y-9284343D01*
X18084285Y-9277195D01*
X18097562Y-9269794D01*
X18110915Y-9262352D01*
X18123968Y-9255080D01*
X18136341Y-9248187D01*
X18147658Y-9241886D01*
X18157538Y-9236386D01*
X18165604Y-9231898D01*
X18166080Y-9231633D01*
X18176889Y-9225621D01*
X18188670Y-9219066D01*
X18201551Y-9211896D01*
X18215663Y-9204039D01*
X18231135Y-9195422D01*
X18248097Y-9185974D01*
X18266678Y-9175622D01*
X18287007Y-9164294D01*
X18309215Y-9151917D01*
X18333431Y-9138421D01*
X18349595Y-9129412D01*
X18362824Y-9122040D01*
X18376841Y-9114231D01*
X18391214Y-9106227D01*
X18405508Y-9098270D01*
X18419288Y-9090600D01*
X18432121Y-9083461D01*
X18443572Y-9077093D01*
X18452572Y-9072092D01*
X18494588Y-9048750D01*
X18771342Y-9048787D01*
X18771342Y-9048787D01*
G37*
X18771342Y-9048787D02*
X19048095Y-9048825D01*
X19015075Y-9065379D01*
X19007479Y-9069189D01*
X18997786Y-9074054D01*
X18986168Y-9079889D01*
X18972794Y-9086606D01*
X18957839Y-9094120D01*
X18941472Y-9102344D01*
X18923866Y-9111192D01*
X18905191Y-9120578D01*
X18885621Y-9130416D01*
X18865326Y-9140618D01*
X18844477Y-9151100D01*
X18823247Y-9161774D01*
X18801807Y-9172554D01*
X18780329Y-9183355D01*
X18758984Y-9194090D01*
X18737943Y-9204672D01*
X18717379Y-9215015D01*
X18697463Y-9225033D01*
X18678366Y-9234641D01*
X18660260Y-9243750D01*
X18643317Y-9252276D01*
X18627708Y-9260132D01*
X18613605Y-9267232D01*
X18603595Y-9272272D01*
X18589251Y-9279494D01*
X18572989Y-9287681D01*
X18555160Y-9296655D01*
X18536115Y-9306240D01*
X18516205Y-9316260D01*
X18495781Y-9326536D01*
X18475194Y-9336894D01*
X18454795Y-9347156D01*
X18434936Y-9357145D01*
X18415968Y-9366685D01*
X18405475Y-9371962D01*
X18386559Y-9381475D01*
X18366094Y-9391766D01*
X18344489Y-9402632D01*
X18322150Y-9413867D01*
X18299487Y-9425265D01*
X18276907Y-9436622D01*
X18254819Y-9447732D01*
X18233630Y-9458390D01*
X18213748Y-9468390D01*
X18195581Y-9477529D01*
X18189575Y-9480550D01*
X18171454Y-9489666D01*
X18151509Y-9499699D01*
X18130187Y-9510425D01*
X18107931Y-9521620D01*
X18085189Y-9533060D01*
X18062405Y-9544521D01*
X18040025Y-9555778D01*
X18018494Y-9566608D01*
X17998259Y-9576787D01*
X17980660Y-9585639D01*
X17947185Y-9602478D01*
X17915864Y-9618232D01*
X17886582Y-9632961D01*
X17859225Y-9646721D01*
X17833679Y-9659572D01*
X17809827Y-9671569D01*
X17787556Y-9682772D01*
X17766751Y-9693237D01*
X17747297Y-9703024D01*
X17729079Y-9712188D01*
X17711982Y-9720788D01*
X17695891Y-9728883D01*
X17680693Y-9736529D01*
X17666271Y-9743784D01*
X17652512Y-9750706D01*
X17639300Y-9757353D01*
X17626521Y-9763782D01*
X17614060Y-9770052D01*
X17601802Y-9776219D01*
X17589632Y-9782342D01*
X17577436Y-9788479D01*
X17565099Y-9794687D01*
X17563465Y-9795509D01*
X17547792Y-9803395D01*
X17530196Y-9812247D01*
X17511020Y-9821892D01*
X17490612Y-9832157D01*
X17469315Y-9842868D01*
X17447477Y-9853850D01*
X17425441Y-9864931D01*
X17403555Y-9875936D01*
X17382162Y-9886692D01*
X17361608Y-9897025D01*
X17342240Y-9906762D01*
X17341215Y-9907277D01*
X17317437Y-9919230D01*
X17294144Y-9930943D01*
X17271441Y-9942363D01*
X17249432Y-9953436D01*
X17228221Y-9964110D01*
X17207915Y-9974333D01*
X17188617Y-9984050D01*
X17170432Y-9993210D01*
X17153466Y-10001760D01*
X17137822Y-10009646D01*
X17123607Y-10016817D01*
X17110923Y-10023219D01*
X17099877Y-10028799D01*
X17090572Y-10033505D01*
X17083115Y-10037284D01*
X17077609Y-10040082D01*
X17074159Y-10041848D01*
X17072870Y-10042529D01*
X17072866Y-10042532D01*
X17073799Y-10043309D01*
X17076619Y-10045428D01*
X17081146Y-10048759D01*
X17087198Y-10053170D01*
X17094593Y-10058530D01*
X17103152Y-10064708D01*
X17112693Y-10071572D01*
X17123035Y-10078990D01*
X17131921Y-10085350D01*
X17140194Y-10091265D01*
X17150351Y-10098528D01*
X17162212Y-10107010D01*
X17175595Y-10116581D01*
X17190318Y-10127111D01*
X17206200Y-10138471D01*
X17223061Y-10150531D01*
X17240718Y-10163162D01*
X17258991Y-10176233D01*
X17277698Y-10189615D01*
X17296658Y-10203178D01*
X17315689Y-10216793D01*
X17334611Y-10230330D01*
X17343755Y-10236872D01*
X17362215Y-10250078D01*
X17380656Y-10263270D01*
X17398918Y-10276333D01*
X17416839Y-10289151D01*
X17434257Y-10301608D01*
X17451009Y-10313589D01*
X17466935Y-10324977D01*
X17481872Y-10335658D01*
X17495658Y-10345515D01*
X17508132Y-10354432D01*
X17519132Y-10362294D01*
X17528497Y-10368986D01*
X17536063Y-10374391D01*
X17539970Y-10377180D01*
X17546270Y-10381679D01*
X17554474Y-10387540D01*
X17564419Y-10394648D01*
X17575945Y-10402887D01*
X17588889Y-10412142D01*
X17603090Y-10422295D01*
X17618386Y-10433233D01*
X17634614Y-10444839D01*
X17651614Y-10456997D01*
X17669223Y-10469592D01*
X17687279Y-10482508D01*
X17705621Y-10495629D01*
X17724087Y-10508840D01*
X17736185Y-10517496D01*
X17769489Y-10541324D01*
X17800800Y-10563726D01*
X17830189Y-10584753D01*
X17857728Y-10604456D01*
X17883491Y-10622887D01*
X17907548Y-10640098D01*
X17929972Y-10656141D01*
X17950835Y-10671066D01*
X17970208Y-10684925D01*
X17988165Y-10697770D01*
X18004777Y-10709653D01*
X18020116Y-10720624D01*
X18034255Y-10730736D01*
X18047264Y-10740040D01*
X18059217Y-10748587D01*
X18070186Y-10756430D01*
X18080242Y-10763620D01*
X18089458Y-10770207D01*
X18097905Y-10776245D01*
X18105656Y-10781784D01*
X18112784Y-10786875D01*
X18119359Y-10791571D01*
X18124170Y-10795007D01*
X18130470Y-10799507D01*
X18138673Y-10805369D01*
X18148618Y-10812478D01*
X18160144Y-10820719D01*
X18173087Y-10829975D01*
X18187288Y-10840130D01*
X18202582Y-10851069D01*
X18218810Y-10862677D01*
X18235809Y-10874837D01*
X18253417Y-10887434D01*
X18271473Y-10900352D01*
X18289814Y-10913475D01*
X18308280Y-10926688D01*
X18320385Y-10935350D01*
X18338749Y-10948491D01*
X18357035Y-10961576D01*
X18375088Y-10974492D01*
X18392750Y-10987128D01*
X18409865Y-10999372D01*
X18426277Y-11011112D01*
X18441829Y-11022236D01*
X18456365Y-11032632D01*
X18469727Y-11042188D01*
X18481761Y-11050792D01*
X18492308Y-11058333D01*
X18501213Y-11064698D01*
X18508319Y-11069775D01*
X18512155Y-11072514D01*
X18517902Y-11076619D01*
X18525558Y-11082089D01*
X18534967Y-11088815D01*
X18545972Y-11096682D01*
X18558416Y-11105581D01*
X18572143Y-11115397D01*
X18586997Y-11126021D01*
X18602820Y-11137339D01*
X18619457Y-11149240D01*
X18636751Y-11161612D01*
X18654546Y-11174342D01*
X18672684Y-11187320D01*
X18691010Y-11200432D01*
X18703925Y-11209674D01*
X18722384Y-11222882D01*
X18740825Y-11236077D01*
X18759086Y-11249142D01*
X18777006Y-11261962D01*
X18794423Y-11274420D01*
X18811175Y-11286403D01*
X18827101Y-11297792D01*
X18842037Y-11308474D01*
X18855824Y-11318332D01*
X18868298Y-11327250D01*
X18879298Y-11335113D01*
X18888663Y-11341805D01*
X18896230Y-11347211D01*
X18900140Y-11350003D01*
X18906440Y-11354501D01*
X18914643Y-11360362D01*
X18924588Y-11367470D01*
X18936113Y-11375710D01*
X18949057Y-11384964D01*
X18963257Y-11395119D01*
X18978552Y-11406057D01*
X18994779Y-11417664D01*
X19011778Y-11429824D01*
X19029386Y-11442420D01*
X19047441Y-11455338D01*
X19065783Y-11468461D01*
X19084248Y-11481674D01*
X19096355Y-11490338D01*
X19114719Y-11503479D01*
X19133005Y-11516564D01*
X19151058Y-11529480D01*
X19168720Y-11542116D01*
X19185835Y-11554361D01*
X19202247Y-11566101D01*
X19217799Y-11577225D01*
X19232334Y-11587621D01*
X19245697Y-11597177D01*
X19257730Y-11605782D01*
X19268278Y-11613322D01*
X19277183Y-11619687D01*
X19284289Y-11624764D01*
X19288125Y-11627504D01*
X19293872Y-11631608D01*
X19301529Y-11637079D01*
X19310938Y-11643804D01*
X19321943Y-11651672D01*
X19334387Y-11660569D01*
X19348115Y-11670386D01*
X19362969Y-11681008D01*
X19378793Y-11692326D01*
X19395430Y-11704226D01*
X19412725Y-11716597D01*
X19430520Y-11729326D01*
X19448659Y-11742303D01*
X19466985Y-11755414D01*
X19479895Y-11764651D01*
X19498561Y-11778006D01*
X19517340Y-11791440D01*
X19536058Y-11804830D01*
X19554542Y-11818050D01*
X19572618Y-11830977D01*
X19590113Y-11843488D01*
X19606852Y-11855457D01*
X19622664Y-11866761D01*
X19637374Y-11877276D01*
X19650808Y-11886877D01*
X19662793Y-11895441D01*
X19673156Y-11902844D01*
X19681724Y-11908962D01*
X19685635Y-11911753D01*
X19696042Y-11919182D01*
X19705894Y-11926222D01*
X19714985Y-11932725D01*
X19723106Y-11938541D01*
X19730050Y-11943522D01*
X19735609Y-11947518D01*
X19739575Y-11950381D01*
X19741741Y-11951963D01*
X19742004Y-11952161D01*
X19742402Y-11952514D01*
X19742551Y-11952829D01*
X19742318Y-11953110D01*
X19741572Y-11953357D01*
X19740183Y-11953574D01*
X19738020Y-11953761D01*
X19734950Y-11953922D01*
X19730842Y-11954058D01*
X19725567Y-11954171D01*
X19718991Y-11954264D01*
X19710985Y-11954338D01*
X19701417Y-11954395D01*
X19690155Y-11954438D01*
X19677070Y-11954469D01*
X19662028Y-11954489D01*
X19644900Y-11954502D01*
X19625553Y-11954508D01*
X19603858Y-11954510D01*
X19593194Y-11954510D01*
X19441355Y-11954510D01*
X19437765Y-11951554D01*
X19435616Y-11949850D01*
X19431837Y-11946921D01*
X19426824Y-11943070D01*
X19420974Y-11938602D01*
X19415125Y-11934157D01*
X19407915Y-11928690D01*
X19400278Y-11922894D01*
X19392887Y-11917281D01*
X19386414Y-11912362D01*
X19383058Y-11909808D01*
X19368043Y-11898380D01*
X19354515Y-11888085D01*
X19341938Y-11878515D01*
X19329778Y-11869263D01*
X19327813Y-11867768D01*
X19320452Y-11862168D01*
X19312055Y-11855781D01*
X19303609Y-11849355D01*
X19296098Y-11843642D01*
X19295428Y-11843132D01*
X19288509Y-11837868D01*
X19280978Y-11832138D01*
X19273654Y-11826566D01*
X19267356Y-11821773D01*
X19266218Y-11820907D01*
X19259550Y-11815832D01*
X19251960Y-11810056D01*
X19244547Y-11804415D01*
X19240183Y-11801093D01*
X19234153Y-11796505D01*
X19226943Y-11791019D01*
X19219392Y-11785274D01*
X19212340Y-11779910D01*
X19211290Y-11779111D01*
X19196383Y-11767771D01*
X19182595Y-11757281D01*
X19170147Y-11747811D01*
X19159263Y-11739529D01*
X19150165Y-11732605D01*
X19149695Y-11732247D01*
X19143914Y-11727848D01*
X19136896Y-11722508D01*
X19129426Y-11716824D01*
X19122289Y-11711395D01*
X19120485Y-11710022D01*
X19113577Y-11704768D01*
X19106121Y-11699094D01*
X19098900Y-11693600D01*
X19092700Y-11688882D01*
X19091275Y-11687797D01*
X19085494Y-11683398D01*
X19078476Y-11678058D01*
X19071006Y-11672374D01*
X19063869Y-11666945D01*
X19062065Y-11665572D01*
X19055157Y-11660318D01*
X19047701Y-11654644D01*
X19040480Y-11649150D01*
X19034280Y-11644432D01*
X19032855Y-11643347D01*
X19027074Y-11638948D01*
X19020056Y-11633608D01*
X19012586Y-11627924D01*
X19005449Y-11622495D01*
X19003645Y-11621122D01*
X18996737Y-11615868D01*
X18989281Y-11610194D01*
X18982060Y-11604700D01*
X18975860Y-11599982D01*
X18974435Y-11598897D01*
X18968654Y-11594498D01*
X18961636Y-11589158D01*
X18954166Y-11583474D01*
X18947029Y-11578045D01*
X18945225Y-11576672D01*
X18938317Y-11571418D01*
X18930861Y-11565744D01*
X18923640Y-11560250D01*
X18917440Y-11555532D01*
X18916015Y-11554447D01*
X18910234Y-11550048D01*
X18903216Y-11544708D01*
X18895746Y-11539024D01*
X18888609Y-11533595D01*
X18886805Y-11532222D01*
X18879856Y-11526936D01*
X18872319Y-11521202D01*
X18864993Y-11515628D01*
X18858678Y-11510823D01*
X18857278Y-11509757D01*
X18850610Y-11504682D01*
X18843020Y-11498906D01*
X18835607Y-11493265D01*
X18831243Y-11489943D01*
X18825272Y-11485400D01*
X18818099Y-11479942D01*
X18810544Y-11474193D01*
X18803424Y-11468777D01*
X18802033Y-11467718D01*
X18794672Y-11462118D01*
X18786275Y-11455731D01*
X18777829Y-11449305D01*
X18770318Y-11443592D01*
X18769648Y-11443082D01*
X18762729Y-11437818D01*
X18755198Y-11432088D01*
X18747874Y-11426516D01*
X18741576Y-11421723D01*
X18740438Y-11420857D01*
X18733770Y-11415782D01*
X18726180Y-11410006D01*
X18718767Y-11404365D01*
X18714403Y-11401043D01*
X18708373Y-11396455D01*
X18701163Y-11390969D01*
X18693612Y-11385224D01*
X18686560Y-11379860D01*
X18685510Y-11379061D01*
X18670603Y-11367721D01*
X18656815Y-11357231D01*
X18644367Y-11347761D01*
X18633483Y-11339479D01*
X18624385Y-11332555D01*
X18623915Y-11332197D01*
X18618134Y-11327798D01*
X18611116Y-11322458D01*
X18603646Y-11316774D01*
X18596509Y-11311345D01*
X18594705Y-11309972D01*
X18587797Y-11304718D01*
X18580341Y-11299044D01*
X18573120Y-11293550D01*
X18566920Y-11288832D01*
X18565495Y-11287747D01*
X18559714Y-11283348D01*
X18552696Y-11278008D01*
X18545226Y-11272324D01*
X18538089Y-11266895D01*
X18536285Y-11265522D01*
X18529377Y-11260268D01*
X18521921Y-11254594D01*
X18514700Y-11249100D01*
X18508500Y-11244382D01*
X18507075Y-11243297D01*
X18501294Y-11238898D01*
X18494276Y-11233558D01*
X18486806Y-11227874D01*
X18479669Y-11222445D01*
X18477865Y-11221072D01*
X18470957Y-11215818D01*
X18463501Y-11210144D01*
X18456280Y-11204650D01*
X18450080Y-11199932D01*
X18448655Y-11198847D01*
X18442874Y-11194448D01*
X18435856Y-11189108D01*
X18428386Y-11183424D01*
X18421249Y-11177995D01*
X18419445Y-11176623D01*
X18412537Y-11171368D01*
X18405081Y-11165694D01*
X18397860Y-11160200D01*
X18391660Y-11155482D01*
X18390235Y-11154398D01*
X18384454Y-11149998D01*
X18377436Y-11144658D01*
X18369966Y-11138974D01*
X18362829Y-11133545D01*
X18361025Y-11132173D01*
X18354117Y-11126918D01*
X18346661Y-11121244D01*
X18339440Y-11115750D01*
X18333240Y-11111032D01*
X18331815Y-11109948D01*
X18326034Y-11105548D01*
X18319016Y-11100208D01*
X18311546Y-11094524D01*
X18304409Y-11089095D01*
X18302605Y-11087723D01*
X18295697Y-11082468D01*
X18288241Y-11076794D01*
X18281020Y-11071300D01*
X18274820Y-11066582D01*
X18273395Y-11065498D01*
X18267614Y-11061098D01*
X18260596Y-11055758D01*
X18253126Y-11050074D01*
X18245989Y-11044645D01*
X18244185Y-11043273D01*
X18237277Y-11038018D01*
X18229821Y-11032344D01*
X18222600Y-11026850D01*
X18216400Y-11022132D01*
X18214975Y-11021048D01*
X18209194Y-11016648D01*
X18202176Y-11011308D01*
X18194706Y-11005624D01*
X18187569Y-11000195D01*
X18185765Y-10998823D01*
X18178857Y-10993568D01*
X18171401Y-10987894D01*
X18164180Y-10982400D01*
X18157980Y-10977682D01*
X18156555Y-10976598D01*
X18150774Y-10972198D01*
X18143756Y-10966858D01*
X18136286Y-10961174D01*
X18129149Y-10955745D01*
X18127345Y-10954373D01*
X18120437Y-10949118D01*
X18112981Y-10943444D01*
X18105760Y-10937950D01*
X18099560Y-10933232D01*
X18098135Y-10932148D01*
X18092354Y-10927748D01*
X18085336Y-10922408D01*
X18077866Y-10916724D01*
X18070729Y-10911295D01*
X18068925Y-10909923D01*
X18062017Y-10904668D01*
X18054561Y-10898995D01*
X18047340Y-10893501D01*
X18041140Y-10888782D01*
X18039715Y-10887698D01*
X18033931Y-10883298D01*
X18026910Y-10877960D01*
X18019437Y-10872281D01*
X18012298Y-10866859D01*
X18010505Y-10865497D01*
X18003594Y-10860247D01*
X17996133Y-10854573D01*
X17988909Y-10849075D01*
X17982709Y-10844351D01*
X17981295Y-10843272D01*
X17975511Y-10838863D01*
X17968488Y-10833517D01*
X17961015Y-10827832D01*
X17953875Y-10822407D01*
X17952085Y-10821047D01*
X17945090Y-10815732D01*
X17937467Y-10809930D01*
X17930032Y-10804264D01*
X17923600Y-10799354D01*
X17922240Y-10798315D01*
X17916066Y-10793602D01*
X17908725Y-10788010D01*
X17901077Y-10782195D01*
X17893981Y-10776810D01*
X17893030Y-10776089D01*
X17886089Y-10770823D01*
X17878469Y-10765031D01*
X17871028Y-10759365D01*
X17864627Y-10754481D01*
X17863820Y-10753864D01*
X17857646Y-10749151D01*
X17850306Y-10743560D01*
X17842658Y-10737745D01*
X17835562Y-10732359D01*
X17834610Y-10731638D01*
X17827318Y-10726108D01*
X17819001Y-10719793D01*
X17810653Y-10713449D01*
X17803267Y-10707831D01*
X17802860Y-10707521D01*
X17795972Y-10702277D01*
X17788447Y-10696548D01*
X17781124Y-10690974D01*
X17774844Y-10686194D01*
X17773968Y-10685527D01*
X17767300Y-10680452D01*
X17759710Y-10674676D01*
X17752297Y-10669035D01*
X17747933Y-10665713D01*
X17741962Y-10661170D01*
X17734789Y-10655712D01*
X17727234Y-10649963D01*
X17720114Y-10644547D01*
X17718723Y-10643488D01*
X17711362Y-10637889D01*
X17702965Y-10631501D01*
X17694519Y-10625075D01*
X17687008Y-10619362D01*
X17686338Y-10618852D01*
X17679461Y-10613620D01*
X17672012Y-10607953D01*
X17664795Y-10602461D01*
X17658614Y-10597758D01*
X17657445Y-10596868D01*
X17651664Y-10592468D01*
X17644646Y-10587128D01*
X17637176Y-10581444D01*
X17630039Y-10576015D01*
X17628235Y-10574643D01*
X17621327Y-10569388D01*
X17613871Y-10563714D01*
X17606650Y-10558220D01*
X17600450Y-10553502D01*
X17599025Y-10552418D01*
X17593244Y-10548018D01*
X17586226Y-10542678D01*
X17578756Y-10536994D01*
X17571619Y-10531565D01*
X17569815Y-10530193D01*
X17562907Y-10524938D01*
X17555451Y-10519264D01*
X17548230Y-10513770D01*
X17542030Y-10509052D01*
X17540605Y-10507968D01*
X17534824Y-10503568D01*
X17527806Y-10498228D01*
X17520336Y-10492544D01*
X17513199Y-10487115D01*
X17511395Y-10485743D01*
X17504487Y-10480488D01*
X17497031Y-10474814D01*
X17489810Y-10469320D01*
X17483610Y-10464602D01*
X17482185Y-10463518D01*
X17476404Y-10459118D01*
X17469386Y-10453778D01*
X17461916Y-10448094D01*
X17454779Y-10442665D01*
X17452975Y-10441293D01*
X17446067Y-10436038D01*
X17438611Y-10430364D01*
X17431390Y-10424870D01*
X17425190Y-10420152D01*
X17423765Y-10419068D01*
X17417984Y-10414668D01*
X17410966Y-10409328D01*
X17403496Y-10403644D01*
X17396359Y-10398215D01*
X17394555Y-10396843D01*
X17387647Y-10391588D01*
X17380191Y-10385914D01*
X17372970Y-10380420D01*
X17366770Y-10375702D01*
X17365345Y-10374618D01*
X17359564Y-10370218D01*
X17352546Y-10364878D01*
X17345076Y-10359194D01*
X17337939Y-10353765D01*
X17336135Y-10352393D01*
X17329227Y-10347138D01*
X17321771Y-10341464D01*
X17314550Y-10335970D01*
X17308350Y-10331252D01*
X17306925Y-10330168D01*
X17301144Y-10325768D01*
X17294126Y-10320428D01*
X17286656Y-10314744D01*
X17279519Y-10309315D01*
X17277715Y-10307943D01*
X17270807Y-10302688D01*
X17263351Y-10297014D01*
X17256130Y-10291520D01*
X17249930Y-10286802D01*
X17248505Y-10285718D01*
X17242724Y-10281318D01*
X17235706Y-10275978D01*
X17228236Y-10270294D01*
X17221099Y-10264865D01*
X17219295Y-10263493D01*
X17212387Y-10258238D01*
X17204931Y-10252564D01*
X17197710Y-10247070D01*
X17191510Y-10242352D01*
X17190085Y-10241268D01*
X17184304Y-10236868D01*
X17177286Y-10231528D01*
X17169816Y-10225844D01*
X17162679Y-10220415D01*
X17160875Y-10219043D01*
X17153967Y-10213788D01*
X17146511Y-10208114D01*
X17139290Y-10202620D01*
X17133090Y-10197902D01*
X17131665Y-10196818D01*
X17125884Y-10192418D01*
X17118866Y-10187078D01*
X17111396Y-10181394D01*
X17104259Y-10175965D01*
X17102455Y-10174593D01*
X17095547Y-10169338D01*
X17088091Y-10163664D01*
X17080870Y-10158170D01*
X17074670Y-10153452D01*
X17073245Y-10152368D01*
X17067464Y-10147968D01*
X17060446Y-10142628D01*
X17052976Y-10136944D01*
X17045839Y-10131515D01*
X17044035Y-10130143D01*
X17037127Y-10124888D01*
X17029671Y-10119214D01*
X17022450Y-10113720D01*
X17016250Y-10109002D01*
X17014825Y-10107918D01*
X17009044Y-10103518D01*
X17002026Y-10098178D01*
X16994556Y-10092494D01*
X16987419Y-10087065D01*
X16985615Y-10085693D01*
X16978666Y-10080407D01*
X16971129Y-10074672D01*
X16963803Y-10069098D01*
X16957488Y-10064293D01*
X16956088Y-10063227D01*
X16949420Y-10058152D01*
X16941830Y-10052376D01*
X16934417Y-10046735D01*
X16930053Y-10043413D01*
X16924138Y-10038913D01*
X16917002Y-10033483D01*
X16909443Y-10027732D01*
X16902261Y-10022268D01*
X16900525Y-10020947D01*
X16893617Y-10015692D01*
X16886160Y-10010017D01*
X16878939Y-10004521D01*
X16872739Y-9999800D01*
X16871315Y-9998715D01*
X16865098Y-9993981D01*
X16858333Y-9988831D01*
X16851963Y-9983983D01*
X16848138Y-9981073D01*
X16843798Y-9977693D01*
X16840343Y-9974850D01*
X16838196Y-9972903D01*
X16837698Y-9972254D01*
X16838767Y-9971391D01*
X16841703Y-9969538D01*
X16846141Y-9966913D01*
X16851713Y-9963733D01*
X16856430Y-9961108D01*
X16861200Y-9958472D01*
X16867896Y-9954761D01*
X16876229Y-9950134D01*
X16885907Y-9944755D01*
X16896639Y-9938785D01*
X16908135Y-9932385D01*
X16920103Y-9925717D01*
X16932253Y-9918944D01*
X16936085Y-9916807D01*
X16948905Y-9909657D01*
X16962181Y-9902256D01*
X16975534Y-9894814D01*
X16988586Y-9887541D01*
X17000959Y-9880649D01*
X17012275Y-9874347D01*
X17022155Y-9868848D01*
X17030222Y-9864362D01*
X17030700Y-9864096D01*
X17038629Y-9859687D01*
X17048397Y-9854250D01*
X17059627Y-9847998D01*
X17071940Y-9841140D01*
X17084958Y-9833888D01*
X17098303Y-9826452D01*
X17111597Y-9819042D01*
X17124460Y-9811870D01*
X17125315Y-9811393D01*
X17138135Y-9804245D01*
X17151411Y-9796845D01*
X17164765Y-9789403D01*
X17177818Y-9782131D01*
X17190191Y-9775240D01*
X17201507Y-9768939D01*
X17211388Y-9763440D01*
X17219454Y-9758953D01*
X17219930Y-9758688D01*
X17227859Y-9754278D01*
X17237627Y-9748842D01*
X17248857Y-9742589D01*
X17261170Y-9735731D01*
X17274188Y-9728478D01*
X17287533Y-9721042D01*
X17300827Y-9713632D01*
X17313690Y-9706460D01*
X17314545Y-9705983D01*
X17327365Y-9698835D01*
X17340641Y-9691435D01*
X17353995Y-9683993D01*
X17367048Y-9676721D01*
X17379421Y-9669830D01*
X17390737Y-9663529D01*
X17400618Y-9658030D01*
X17408684Y-9653543D01*
X17409160Y-9653278D01*
X17417089Y-9648868D01*
X17426857Y-9643432D01*
X17438087Y-9637179D01*
X17450400Y-9630321D01*
X17463418Y-9623068D01*
X17476763Y-9615632D01*
X17490057Y-9608222D01*
X17502920Y-9601050D01*
X17503775Y-9600573D01*
X17516595Y-9593425D01*
X17529871Y-9586025D01*
X17543225Y-9578583D01*
X17556278Y-9571311D01*
X17568651Y-9564420D01*
X17579967Y-9558119D01*
X17589848Y-9552620D01*
X17597914Y-9548133D01*
X17598390Y-9547868D01*
X17606319Y-9543458D01*
X17616087Y-9538022D01*
X17627317Y-9531769D01*
X17639630Y-9524911D01*
X17652648Y-9517658D01*
X17665993Y-9510222D01*
X17679287Y-9502812D01*
X17692150Y-9495640D01*
X17693005Y-9495163D01*
X17705825Y-9488015D01*
X17719101Y-9480615D01*
X17732455Y-9473173D01*
X17745508Y-9465901D01*
X17757881Y-9459010D01*
X17769197Y-9452709D01*
X17779078Y-9447210D01*
X17787144Y-9442723D01*
X17787620Y-9442458D01*
X17795549Y-9438048D01*
X17805317Y-9432612D01*
X17816547Y-9426359D01*
X17828860Y-9419501D01*
X17841878Y-9412248D01*
X17855223Y-9404812D01*
X17868517Y-9397402D01*
X17881380Y-9390230D01*
X17882235Y-9389753D01*
X17895055Y-9382605D01*
X17908331Y-9375205D01*
X17921685Y-9367763D01*
X17934738Y-9360491D01*
X17947111Y-9353600D01*
X17958427Y-9347299D01*
X17968308Y-9341800D01*
X17976374Y-9337313D01*
X17976850Y-9337048D01*
X17984779Y-9332638D01*
X17994547Y-9327202D01*
X18005777Y-9320949D01*
X18018090Y-9314091D01*
X18031108Y-9306838D01*
X18044453Y-9299402D01*
X18057747Y-9291992D01*
X18070610Y-9284820D01*
X18071465Y-9284343D01*
X18084285Y-9277195D01*
X18097562Y-9269794D01*
X18110915Y-9262352D01*
X18123968Y-9255080D01*
X18136341Y-9248187D01*
X18147658Y-9241886D01*
X18157538Y-9236386D01*
X18165604Y-9231898D01*
X18166080Y-9231633D01*
X18176889Y-9225621D01*
X18188670Y-9219066D01*
X18201551Y-9211896D01*
X18215663Y-9204039D01*
X18231135Y-9195422D01*
X18248097Y-9185974D01*
X18266678Y-9175622D01*
X18287007Y-9164294D01*
X18309215Y-9151917D01*
X18333431Y-9138421D01*
X18349595Y-9129412D01*
X18362824Y-9122040D01*
X18376841Y-9114231D01*
X18391214Y-9106227D01*
X18405508Y-9098270D01*
X18419288Y-9090600D01*
X18432121Y-9083461D01*
X18443572Y-9077093D01*
X18452572Y-9072092D01*
X18494588Y-9048750D01*
X18771342Y-9048787D01*
G36*
X9334820Y-9056202D02*
X9340545Y-9059472D01*
X9347742Y-9063570D01*
X9355670Y-9068078D01*
X9363591Y-9072573D01*
X9367520Y-9074799D01*
X9379436Y-9081548D01*
X9393332Y-9089424D01*
X9408980Y-9098297D01*
X9426153Y-9108039D01*
X9444622Y-9118519D01*
X9452610Y-9123053D01*
X9460586Y-9127578D01*
X9469789Y-9132796D01*
X9479232Y-9138147D01*
X9487933Y-9143075D01*
X9490393Y-9144468D01*
X9508913Y-9154954D01*
X9529423Y-9166576D01*
X9551707Y-9179208D01*
X9575547Y-9192730D01*
X9600727Y-9207016D01*
X9613900Y-9214493D01*
X9621808Y-9218979D01*
X9630963Y-9224170D01*
X9640404Y-9229521D01*
X9649168Y-9234485D01*
X9652000Y-9236089D01*
X9676447Y-9249933D01*
X9702738Y-9264833D01*
X9730979Y-9280847D01*
X9761274Y-9298035D01*
X9775190Y-9305933D01*
X9783237Y-9310498D01*
X9792487Y-9315742D01*
X9801932Y-9321095D01*
X9810565Y-9325984D01*
X9812655Y-9327167D01*
X9827277Y-9335445D01*
X9843845Y-9344832D01*
X9862097Y-9355176D01*
X9881769Y-9366331D01*
X9902600Y-9378147D01*
X9924328Y-9390476D01*
X9936480Y-9397373D01*
X9944456Y-9401898D01*
X9953659Y-9407116D01*
X9963102Y-9412467D01*
X9971803Y-9417395D01*
X9974263Y-9418788D01*
X9992783Y-9429274D01*
X10013293Y-9440896D01*
X10035577Y-9453528D01*
X10059417Y-9467050D01*
X10084597Y-9481336D01*
X10097770Y-9488813D01*
X10105678Y-9493299D01*
X10114833Y-9498490D01*
X10124274Y-9503841D01*
X10133038Y-9508805D01*
X10135870Y-9510409D01*
X10160317Y-9524253D01*
X10186608Y-9539153D01*
X10214849Y-9555167D01*
X10245144Y-9572355D01*
X10259060Y-9580253D01*
X10267036Y-9584778D01*
X10276239Y-9589996D01*
X10285682Y-9595347D01*
X10294383Y-9600275D01*
X10296843Y-9601668D01*
X10315363Y-9612154D01*
X10335873Y-9623776D01*
X10358157Y-9636408D01*
X10381997Y-9649930D01*
X10407177Y-9664216D01*
X10420350Y-9671693D01*
X10428397Y-9676258D01*
X10437647Y-9681502D01*
X10447092Y-9686855D01*
X10455725Y-9691744D01*
X10457815Y-9692927D01*
X10472437Y-9701205D01*
X10489005Y-9710592D01*
X10507257Y-9720936D01*
X10526929Y-9732091D01*
X10547760Y-9743907D01*
X10569488Y-9756236D01*
X10581640Y-9763133D01*
X10589687Y-9767698D01*
X10598937Y-9772942D01*
X10608382Y-9778295D01*
X10617015Y-9783184D01*
X10619105Y-9784367D01*
X10633727Y-9792645D01*
X10650295Y-9802032D01*
X10668547Y-9812376D01*
X10688219Y-9823531D01*
X10709050Y-9835347D01*
X10730778Y-9847676D01*
X10742930Y-9854573D01*
X10750906Y-9859098D01*
X10760109Y-9864316D01*
X10769552Y-9869667D01*
X10778253Y-9874595D01*
X10780713Y-9875988D01*
X10799233Y-9886474D01*
X10819743Y-9898096D01*
X10842027Y-9910728D01*
X10865867Y-9924250D01*
X10891047Y-9938536D01*
X10904220Y-9946013D01*
X10912196Y-9950538D01*
X10921399Y-9955756D01*
X10930842Y-9961107D01*
X10939543Y-9966035D01*
X10942003Y-9967428D01*
X10960523Y-9977914D01*
X10981033Y-9989536D01*
X11003317Y-10002168D01*
X11027157Y-10015690D01*
X11052337Y-10029976D01*
X11065510Y-10037453D01*
X11073486Y-10041978D01*
X11082689Y-10047196D01*
X11092132Y-10052547D01*
X11100833Y-10057475D01*
X11103293Y-10058868D01*
X11121813Y-10069354D01*
X11142323Y-10080976D01*
X11164607Y-10093608D01*
X11188447Y-10107130D01*
X11213627Y-10121416D01*
X11226800Y-10128893D01*
X11234847Y-10133458D01*
X11244097Y-10138702D01*
X11253542Y-10144055D01*
X11262175Y-10148944D01*
X11264265Y-10150127D01*
X11278887Y-10158405D01*
X11295455Y-10167792D01*
X11313707Y-10178136D01*
X11333379Y-10189291D01*
X11354210Y-10201107D01*
X11375938Y-10213436D01*
X11388090Y-10220333D01*
X11396137Y-10224898D01*
X11405387Y-10230142D01*
X11414832Y-10235495D01*
X11423465Y-10240384D01*
X11425555Y-10241567D01*
X11439316Y-10249357D01*
X11454902Y-10258187D01*
X11471931Y-10267839D01*
X11490022Y-10278096D01*
X11508790Y-10288741D01*
X11527855Y-10299557D01*
X11546833Y-10310329D01*
X11549380Y-10311775D01*
X11556504Y-10315817D01*
X11565102Y-10320692D01*
X11574434Y-10325981D01*
X11583763Y-10331266D01*
X11591925Y-10335887D01*
X11605464Y-10343551D01*
X11616955Y-10350062D01*
X11626562Y-10355519D01*
X11634447Y-10360021D01*
X11640771Y-10363666D01*
X11645699Y-10366553D01*
X11649392Y-10368782D01*
X11652013Y-10370451D01*
X11653725Y-10371659D01*
X11654690Y-10372504D01*
X11655070Y-10373087D01*
X11655029Y-10373505D01*
X11654729Y-10373858D01*
X11654583Y-10373994D01*
X11652930Y-10375390D01*
X11649321Y-10378323D01*
X11643799Y-10382759D01*
X11636404Y-10388667D01*
X11627178Y-10396012D01*
X11616163Y-10404761D01*
X11603400Y-10414883D01*
X11599545Y-10417937D01*
X11594275Y-10422115D01*
X11587489Y-10427500D01*
X11579656Y-10433719D01*
X11571248Y-10440397D01*
X11562736Y-10447162D01*
X11556365Y-10452227D01*
X11547792Y-10459043D01*
X11538683Y-10466282D01*
X11529577Y-10473518D01*
X11521015Y-10480319D01*
X11513536Y-10486258D01*
X11509375Y-10489561D01*
X11502443Y-10495063D01*
X11494168Y-10501635D01*
X11485196Y-10508762D01*
X11476173Y-10515933D01*
X11467743Y-10522634D01*
X11466195Y-10523866D01*
X11458639Y-10529874D01*
X11449641Y-10537026D01*
X11439748Y-10544887D01*
X11429509Y-10553022D01*
X11419470Y-10560997D01*
X11410315Y-10568268D01*
X11401295Y-10575432D01*
X11391793Y-10582978D01*
X11382295Y-10590523D01*
X11373288Y-10597677D01*
X11365259Y-10604057D01*
X11358692Y-10609274D01*
X11358245Y-10609629D01*
X11339952Y-10624166D01*
X11322276Y-10638210D01*
X11304744Y-10652137D01*
X11286883Y-10666326D01*
X11268218Y-10681150D01*
X11248276Y-10696988D01*
X11237601Y-10705465D01*
X11225779Y-10714854D01*
X11212700Y-10725242D01*
X11198888Y-10736213D01*
X11184868Y-10747351D01*
X11171165Y-10758237D01*
X11158305Y-10768455D01*
X11146811Y-10777588D01*
X11144877Y-10779125D01*
X11133693Y-10788012D01*
X11121046Y-10798063D01*
X11107459Y-10808858D01*
X11093459Y-10819982D01*
X11079569Y-10831016D01*
X11066317Y-10841545D01*
X11054226Y-10851150D01*
X11052167Y-10852785D01*
X11041059Y-10861609D01*
X11029294Y-10870956D01*
X11017284Y-10880498D01*
X11005439Y-10889910D01*
X10994170Y-10898865D01*
X10983889Y-10907035D01*
X10975006Y-10914095D01*
X10971674Y-10916744D01*
X10962541Y-10924004D01*
X10952911Y-10931658D01*
X10943266Y-10939323D01*
X10934090Y-10946616D01*
X10925863Y-10953153D01*
X10919069Y-10958551D01*
X10918190Y-10959249D01*
X10911444Y-10964609D01*
X10903229Y-10971136D01*
X10894067Y-10978417D01*
X10884477Y-10986038D01*
X10874979Y-10993586D01*
X10866755Y-11000123D01*
X10857948Y-11007123D01*
X10848699Y-11014472D01*
X10839498Y-11021782D01*
X10830834Y-11028664D01*
X10823194Y-11034731D01*
X10817225Y-11039469D01*
X10810709Y-11044643D01*
X10802760Y-11050957D01*
X10793932Y-11057970D01*
X10784782Y-11065242D01*
X10775864Y-11072331D01*
X10770870Y-11076302D01*
X10762355Y-11083071D01*
X10753277Y-11090287D01*
X10744190Y-11097507D01*
X10735649Y-11104292D01*
X10728209Y-11110200D01*
X10724515Y-11113132D01*
X10717999Y-11118304D01*
X10710050Y-11124617D01*
X10701223Y-11131630D01*
X10692072Y-11138902D01*
X10683154Y-11145991D01*
X10678160Y-11149962D01*
X10669645Y-11156731D01*
X10660567Y-11163947D01*
X10651480Y-11171167D01*
X10642939Y-11177952D01*
X10635499Y-11183860D01*
X10631805Y-11186791D01*
X10625289Y-11191964D01*
X10617340Y-11198277D01*
X10608513Y-11205290D01*
X10599362Y-11212561D01*
X10590444Y-11219651D01*
X10585450Y-11223621D01*
X10576988Y-11230350D01*
X10568011Y-11237486D01*
X10559061Y-11244599D01*
X10550681Y-11251258D01*
X10543413Y-11257033D01*
X10539730Y-11259958D01*
X10534061Y-11264460D01*
X10526826Y-11270208D01*
X10518445Y-11276867D01*
X10509340Y-11284102D01*
X10499933Y-11291578D01*
X10490645Y-11298959D01*
X10487025Y-11301836D01*
X10477559Y-11309359D01*
X10467496Y-11317354D01*
X10457326Y-11325433D01*
X10447538Y-11333206D01*
X10438621Y-11340286D01*
X10431064Y-11346284D01*
X10429240Y-11347731D01*
X10423046Y-11352647D01*
X10415224Y-11358856D01*
X10406135Y-11366074D01*
X10396139Y-11374013D01*
X10385596Y-11382388D01*
X10374867Y-11390912D01*
X10364312Y-11399298D01*
X10360519Y-11402313D01*
X10349212Y-11411298D01*
X10336445Y-11421442D01*
X10322749Y-11432323D01*
X10308654Y-11443521D01*
X10294690Y-11454614D01*
X10281386Y-11465182D01*
X10269272Y-11474803D01*
X10267318Y-11476355D01*
X10255497Y-11485744D01*
X10242417Y-11496133D01*
X10228605Y-11507104D01*
X10214584Y-11518242D01*
X10200881Y-11529129D01*
X10188020Y-11539347D01*
X10176526Y-11548480D01*
X10174594Y-11550015D01*
X10152553Y-11567531D01*
X10132399Y-11583545D01*
X10114035Y-11598137D01*
X10097361Y-11611387D01*
X10082276Y-11623373D01*
X10068682Y-11634175D01*
X10056478Y-11643871D01*
X10045565Y-11652541D01*
X10038080Y-11658488D01*
X10029690Y-11665154D01*
X10019990Y-11672862D01*
X10009660Y-11681072D01*
X9999378Y-11689245D01*
X9989823Y-11696842D01*
X9986010Y-11699873D01*
X9977495Y-11706643D01*
X9968417Y-11713858D01*
X9959329Y-11721078D01*
X9950788Y-11727862D01*
X9943348Y-11733770D01*
X9939655Y-11736701D01*
X9933139Y-11741874D01*
X9925190Y-11748187D01*
X9916363Y-11755200D01*
X9907212Y-11762471D01*
X9898294Y-11769561D01*
X9893300Y-11773531D01*
X9884785Y-11780301D01*
X9875707Y-11787516D01*
X9866620Y-11794737D01*
X9858079Y-11801521D01*
X9850639Y-11807428D01*
X9846945Y-11810360D01*
X9841052Y-11815038D01*
X9833609Y-11820949D01*
X9825055Y-11827745D01*
X9815827Y-11835078D01*
X9806364Y-11842600D01*
X9797103Y-11849962D01*
X9794240Y-11852239D01*
X9785183Y-11859440D01*
X9775821Y-11866880D01*
X9766585Y-11874218D01*
X9757904Y-11881113D01*
X9750206Y-11887224D01*
X9743922Y-11892210D01*
X9742196Y-11893578D01*
X9736082Y-11898429D01*
X9728486Y-11904463D01*
X9719910Y-11911281D01*
X9710858Y-11918483D01*
X9701833Y-11925668D01*
X9694721Y-11931332D01*
X9665637Y-11954510D01*
X9344822Y-11954510D01*
X9354710Y-11938952D01*
X9359193Y-11931886D01*
X9364086Y-11924153D01*
X9368797Y-11916690D01*
X9372726Y-11910445D01*
X9375989Y-11905320D01*
X9378669Y-11901463D01*
X9381264Y-11898371D01*
X9384269Y-11895546D01*
X9388181Y-11892485D01*
X9393497Y-11888688D01*
X9396095Y-11886874D01*
X9402926Y-11882105D01*
X9410934Y-11876500D01*
X9419221Y-11870688D01*
X9426890Y-11865299D01*
X9428480Y-11864180D01*
X9440487Y-11855726D01*
X9453700Y-11846425D01*
X9468353Y-11836113D01*
X9484680Y-11824625D01*
X9497695Y-11815468D01*
X9505317Y-11810105D01*
X9513872Y-11804086D01*
X9522441Y-11798055D01*
X9530109Y-11792658D01*
X9531985Y-11791338D01*
X9551641Y-11777504D01*
X9572393Y-11762900D01*
X9593260Y-11748217D01*
X9600565Y-11743078D01*
X9622878Y-11727378D01*
X9643822Y-11712638D01*
X9664107Y-11698356D01*
X9684443Y-11684034D01*
X9703435Y-11670653D01*
X9710682Y-11665548D01*
X9719091Y-11659627D01*
X9727743Y-11653537D01*
X9735721Y-11647922D01*
X9737725Y-11646512D01*
X9745433Y-11641089D01*
X9754155Y-11634952D01*
X9762943Y-11628769D01*
X9770849Y-11623206D01*
X9772650Y-11621938D01*
X9780317Y-11616543D01*
X9789064Y-11610388D01*
X9797892Y-11604176D01*
X9805804Y-11598608D01*
X9806940Y-11597808D01*
X9814561Y-11592445D01*
X9823218Y-11586353D01*
X9831930Y-11580222D01*
X9839716Y-11574742D01*
X9840907Y-11573904D01*
X9848357Y-11568661D01*
X9856930Y-11562628D01*
X9865669Y-11556479D01*
X9873619Y-11550884D01*
X9875197Y-11549774D01*
X9882840Y-11544396D01*
X9891485Y-11538313D01*
X9900178Y-11532195D01*
X9907963Y-11526717D01*
X9909487Y-11525644D01*
X9917011Y-11520348D01*
X9925632Y-11514281D01*
X9934370Y-11508133D01*
X9942242Y-11502592D01*
X9943454Y-11501739D01*
X9951077Y-11496375D01*
X9959737Y-11490281D01*
X9968453Y-11484147D01*
X9976243Y-11478664D01*
X9977432Y-11477828D01*
X9984818Y-11472630D01*
X9993348Y-11466627D01*
X10002090Y-11460476D01*
X10010113Y-11454831D01*
X10012045Y-11453472D01*
X10032715Y-11438929D01*
X10053621Y-11424218D01*
X10073782Y-11410029D01*
X10080625Y-11405212D01*
X10087872Y-11400111D01*
X10096280Y-11394194D01*
X10104931Y-11388106D01*
X10112910Y-11382493D01*
X10114915Y-11381082D01*
X10135585Y-11366539D01*
X10156491Y-11351828D01*
X10176652Y-11337639D01*
X10183495Y-11332822D01*
X10203151Y-11318988D01*
X10223903Y-11304384D01*
X10244770Y-11289701D01*
X10252075Y-11284562D01*
X10259783Y-11279139D01*
X10268505Y-11273002D01*
X10277293Y-11266819D01*
X10285199Y-11261256D01*
X10287000Y-11259988D01*
X10294667Y-11254593D01*
X10303414Y-11248438D01*
X10312242Y-11242226D01*
X10320154Y-11236658D01*
X10321290Y-11235858D01*
X10328867Y-11230526D01*
X10337439Y-11224494D01*
X10346039Y-11218441D01*
X10353705Y-11213045D01*
X10354945Y-11212172D01*
X10362192Y-11207071D01*
X10370600Y-11201154D01*
X10379251Y-11195066D01*
X10387230Y-11189453D01*
X10389235Y-11188042D01*
X10396857Y-11182679D01*
X10405412Y-11176660D01*
X10413981Y-11170629D01*
X10421649Y-11165233D01*
X10423525Y-11163912D01*
X10430912Y-11158713D01*
X10439412Y-11152730D01*
X10448061Y-11146643D01*
X10455896Y-11141129D01*
X10457180Y-11140226D01*
X10464847Y-11134830D01*
X10473594Y-11128675D01*
X10482422Y-11122463D01*
X10490334Y-11116895D01*
X10491470Y-11116096D01*
X10499137Y-11110700D01*
X10507884Y-11104545D01*
X10516712Y-11098333D01*
X10524624Y-11092765D01*
X10525760Y-11091966D01*
X10533427Y-11086570D01*
X10542174Y-11080415D01*
X10551002Y-11074203D01*
X10558914Y-11068635D01*
X10560050Y-11067836D01*
X10567717Y-11062440D01*
X10576464Y-11056285D01*
X10585292Y-11050073D01*
X10593204Y-11044505D01*
X10594340Y-11043706D01*
X10601860Y-11038414D01*
X10610509Y-11032328D01*
X10619340Y-11026115D01*
X10627404Y-11020441D01*
X10629265Y-11019132D01*
X10636887Y-11013769D01*
X10645442Y-11007750D01*
X10654011Y-11001719D01*
X10661679Y-10996323D01*
X10663555Y-10995002D01*
X10670802Y-10989901D01*
X10679210Y-10983984D01*
X10687861Y-10977896D01*
X10695840Y-10972283D01*
X10697845Y-10970872D01*
X10705467Y-10965509D01*
X10714022Y-10959490D01*
X10722591Y-10953459D01*
X10730259Y-10948063D01*
X10732135Y-10946742D01*
X10751791Y-10932908D01*
X10772543Y-10918304D01*
X10793410Y-10903621D01*
X10800715Y-10898482D01*
X10821385Y-10883939D01*
X10842291Y-10869228D01*
X10862452Y-10855039D01*
X10869295Y-10850222D01*
X10888951Y-10836388D01*
X10909703Y-10821784D01*
X10930570Y-10807101D01*
X10937875Y-10801962D01*
X10945497Y-10796599D01*
X10954052Y-10790580D01*
X10962621Y-10784549D01*
X10970289Y-10779153D01*
X10972165Y-10777832D01*
X10991821Y-10763998D01*
X11012573Y-10749394D01*
X11033440Y-10734711D01*
X11040745Y-10729572D01*
X11048453Y-10724149D01*
X11057175Y-10718012D01*
X11065963Y-10711829D01*
X11073869Y-10706266D01*
X11075670Y-10704998D01*
X11083337Y-10699603D01*
X11092084Y-10693448D01*
X11100912Y-10687236D01*
X11108824Y-10681668D01*
X11109960Y-10680868D01*
X11117627Y-10675473D01*
X11126374Y-10669318D01*
X11135202Y-10663106D01*
X11143114Y-10657538D01*
X11144250Y-10656738D01*
X11151827Y-10651406D01*
X11160399Y-10645374D01*
X11168999Y-10639321D01*
X11176665Y-10633925D01*
X11177905Y-10633052D01*
X11185297Y-10627852D01*
X11193802Y-10621872D01*
X11202456Y-10615791D01*
X11210292Y-10610289D01*
X11211560Y-10609399D01*
X11217966Y-10604901D01*
X11224240Y-10600493D01*
X11229824Y-10596566D01*
X11234163Y-10593511D01*
X11235690Y-10592434D01*
X11240017Y-10589384D01*
X11245460Y-10585553D01*
X11251054Y-10581620D01*
X11252835Y-10580370D01*
X11258260Y-10576558D01*
X11263864Y-10572616D01*
X11268682Y-10569221D01*
X11269980Y-10568305D01*
X11274307Y-10565254D01*
X11279750Y-10561423D01*
X11285345Y-10557490D01*
X11287125Y-10556240D01*
X11292550Y-10552428D01*
X11298154Y-10548486D01*
X11302972Y-10545091D01*
X11304270Y-10544175D01*
X11308597Y-10541124D01*
X11314040Y-10537293D01*
X11319635Y-10533360D01*
X11321415Y-10532110D01*
X11326840Y-10528298D01*
X11332444Y-10524356D01*
X11337262Y-10520961D01*
X11338560Y-10520045D01*
X11342887Y-10516994D01*
X11348330Y-10513163D01*
X11353925Y-10509230D01*
X11355705Y-10507980D01*
X11361130Y-10504168D01*
X11366734Y-10500226D01*
X11371552Y-10496831D01*
X11372850Y-10495915D01*
X11377177Y-10492864D01*
X11382620Y-10489033D01*
X11388215Y-10485100D01*
X11389995Y-10483850D01*
X11395420Y-10480038D01*
X11401024Y-10476095D01*
X11405842Y-10472699D01*
X11407140Y-10471782D01*
X11412169Y-10468233D01*
X11417639Y-10464379D01*
X11420826Y-10462137D01*
X11427526Y-10457428D01*
X11423366Y-10454867D01*
X11420187Y-10453092D01*
X11415596Y-10450743D01*
X11410501Y-10448284D01*
X11409680Y-10447902D01*
X11407127Y-10446683D01*
X11402482Y-10444422D01*
X11395926Y-10441210D01*
X11387641Y-10437136D01*
X11377809Y-10432289D01*
X11366612Y-10426761D01*
X11354231Y-10420640D01*
X11340849Y-10414016D01*
X11326647Y-10406979D01*
X11311808Y-10399619D01*
X11298555Y-10393040D01*
X11282344Y-10384991D01*
X11265919Y-10376839D01*
X11249543Y-10368716D01*
X11233480Y-10360750D01*
X11217991Y-10353072D01*
X11203340Y-10345813D01*
X11189790Y-10339103D01*
X11177603Y-10333071D01*
X11167042Y-10327849D01*
X11158370Y-10323566D01*
X11155045Y-10321926D01*
X11146606Y-10317763D01*
X11136210Y-10312628D01*
X11124174Y-10306677D01*
X11110816Y-10300069D01*
X11096453Y-10292960D01*
X11081402Y-10285507D01*
X11065982Y-10277868D01*
X11050509Y-10270200D01*
X11035302Y-10262660D01*
X11029315Y-10259691D01*
X11013912Y-10252052D01*
X10997816Y-10244071D01*
X10981385Y-10235928D01*
X10964979Y-10227800D01*
X10948958Y-10219864D01*
X10933682Y-10212299D01*
X10919508Y-10205284D01*
X10906798Y-10198995D01*
X10895910Y-10193612D01*
X10893425Y-10192384D01*
X10882543Y-10187005D01*
X10869787Y-10180697D01*
X10855557Y-10173657D01*
X10840256Y-10166083D01*
X10824283Y-10158176D01*
X10808040Y-10150133D01*
X10791929Y-10142152D01*
X10776350Y-10134433D01*
X10765155Y-10128885D01*
X10750021Y-10121384D01*
X10733874Y-10113383D01*
X10717142Y-10105094D01*
X10700254Y-10096729D01*
X10683637Y-10088501D01*
X10667720Y-10080620D01*
X10652931Y-10073300D01*
X10639698Y-10066752D01*
X10631805Y-10062847D01*
X10619538Y-10056779D01*
X10605451Y-10049809D01*
X10590002Y-10042162D01*
X10573647Y-10034065D01*
X10556841Y-10025744D01*
X10540042Y-10017425D01*
X10523707Y-10009334D01*
X10508290Y-10001697D01*
X10502265Y-9998711D01*
X10487425Y-9991358D01*
X10471523Y-9983482D01*
X10455010Y-9975304D01*
X10438332Y-9967047D01*
X10421940Y-9958932D01*
X10406282Y-9951183D01*
X10391806Y-9944020D01*
X10378962Y-9937667D01*
X10373995Y-9935211D01*
X10362001Y-9929279D01*
X10348181Y-9922442D01*
X10332982Y-9914920D01*
X10316855Y-9906937D01*
X10300246Y-9898715D01*
X10283606Y-9890475D01*
X10267383Y-9882440D01*
X10252026Y-9874832D01*
X10245725Y-9871710D01*
X10230642Y-9864236D01*
X10214303Y-9856142D01*
X10197190Y-9847665D01*
X10179781Y-9839043D01*
X10162556Y-9830513D01*
X10145997Y-9822314D01*
X10130583Y-9814682D01*
X10116793Y-9807856D01*
X10112375Y-9805670D01*
X10099014Y-9799057D01*
X10083880Y-9791565D01*
X10067476Y-9783444D01*
X10050306Y-9774943D01*
X10032873Y-9766311D01*
X10015680Y-9757797D01*
X9999231Y-9749650D01*
X9984028Y-9742120D01*
X9981565Y-9740900D01*
X9966628Y-9733502D01*
X9950358Y-9725444D01*
X9933258Y-9716975D01*
X9915831Y-9708346D01*
X9898579Y-9699804D01*
X9882007Y-9691600D01*
X9866618Y-9683981D01*
X9852914Y-9677199D01*
X9850755Y-9676130D01*
X9837394Y-9669517D01*
X9822260Y-9662025D01*
X9805856Y-9653904D01*
X9788686Y-9645403D01*
X9771253Y-9636771D01*
X9754061Y-9628256D01*
X9737611Y-9620109D01*
X9722408Y-9612579D01*
X9719945Y-9611359D01*
X9705072Y-9603992D01*
X9688918Y-9595991D01*
X9671976Y-9587602D01*
X9654742Y-9579068D01*
X9637710Y-9570636D01*
X9621374Y-9562549D01*
X9606229Y-9555053D01*
X9592770Y-9548393D01*
X9590405Y-9547222D01*
X9577460Y-9540816D01*
X9562722Y-9533522D01*
X9546674Y-9525578D01*
X9529799Y-9517223D01*
X9512581Y-9508698D01*
X9495503Y-9500240D01*
X9479047Y-9492090D01*
X9463697Y-9484487D01*
X9459595Y-9482455D01*
X9444772Y-9475112D01*
X9428805Y-9467205D01*
X9412161Y-9458963D01*
X9395307Y-9450619D01*
X9378709Y-9442403D01*
X9362835Y-9434546D01*
X9348152Y-9427280D01*
X9335125Y-9420835D01*
X9331325Y-9418956D01*
X9319501Y-9413106D01*
X9305821Y-9406336D01*
X9290704Y-9398852D01*
X9274571Y-9390863D01*
X9257841Y-9382577D01*
X9240934Y-9374201D01*
X9224268Y-9365944D01*
X9208264Y-9358012D01*
X9196705Y-9352282D01*
X9181875Y-9344931D01*
X9166362Y-9337245D01*
X9150539Y-9329408D01*
X9134782Y-9321606D01*
X9119464Y-9314025D01*
X9104962Y-9306849D01*
X9091648Y-9300265D01*
X9079899Y-9294457D01*
X9070975Y-9290050D01*
X9061752Y-9285494D01*
X9050567Y-9279966D01*
X9037732Y-9273619D01*
X9023561Y-9266608D01*
X9008366Y-9259089D01*
X8992460Y-9251217D01*
X8976157Y-9243145D01*
X8959770Y-9235030D01*
X8943611Y-9227026D01*
X8931275Y-9220914D01*
X8914498Y-9212600D01*
X8896478Y-9203673D01*
X8877633Y-9194337D01*
X8858381Y-9184801D01*
X8839140Y-9175271D01*
X8820327Y-9165954D01*
X8802361Y-9157058D01*
X8785660Y-9148788D01*
X8770640Y-9141353D01*
X8764934Y-9138528D01*
X8750074Y-9131171D01*
X8734328Y-9123369D01*
X8718107Y-9115328D01*
X8701826Y-9107252D01*
X8685898Y-9099348D01*
X8670735Y-9091819D01*
X8656752Y-9084872D01*
X8644361Y-9078711D01*
X8637299Y-9075196D01*
X8584565Y-9048936D01*
X9321805Y-9048750D01*
X9334820Y-9056202D01*
X9334820Y-9056202D01*
G37*
X9334820Y-9056202D02*
X9340545Y-9059472D01*
X9347742Y-9063570D01*
X9355670Y-9068078D01*
X9363591Y-9072573D01*
X9367520Y-9074799D01*
X9379436Y-9081548D01*
X9393332Y-9089424D01*
X9408980Y-9098297D01*
X9426153Y-9108039D01*
X9444622Y-9118519D01*
X9452610Y-9123053D01*
X9460586Y-9127578D01*
X9469789Y-9132796D01*
X9479232Y-9138147D01*
X9487933Y-9143075D01*
X9490393Y-9144468D01*
X9508913Y-9154954D01*
X9529423Y-9166576D01*
X9551707Y-9179208D01*
X9575547Y-9192730D01*
X9600727Y-9207016D01*
X9613900Y-9214493D01*
X9621808Y-9218979D01*
X9630963Y-9224170D01*
X9640404Y-9229521D01*
X9649168Y-9234485D01*
X9652000Y-9236089D01*
X9676447Y-9249933D01*
X9702738Y-9264833D01*
X9730979Y-9280847D01*
X9761274Y-9298035D01*
X9775190Y-9305933D01*
X9783237Y-9310498D01*
X9792487Y-9315742D01*
X9801932Y-9321095D01*
X9810565Y-9325984D01*
X9812655Y-9327167D01*
X9827277Y-9335445D01*
X9843845Y-9344832D01*
X9862097Y-9355176D01*
X9881769Y-9366331D01*
X9902600Y-9378147D01*
X9924328Y-9390476D01*
X9936480Y-9397373D01*
X9944456Y-9401898D01*
X9953659Y-9407116D01*
X9963102Y-9412467D01*
X9971803Y-9417395D01*
X9974263Y-9418788D01*
X9992783Y-9429274D01*
X10013293Y-9440896D01*
X10035577Y-9453528D01*
X10059417Y-9467050D01*
X10084597Y-9481336D01*
X10097770Y-9488813D01*
X10105678Y-9493299D01*
X10114833Y-9498490D01*
X10124274Y-9503841D01*
X10133038Y-9508805D01*
X10135870Y-9510409D01*
X10160317Y-9524253D01*
X10186608Y-9539153D01*
X10214849Y-9555167D01*
X10245144Y-9572355D01*
X10259060Y-9580253D01*
X10267036Y-9584778D01*
X10276239Y-9589996D01*
X10285682Y-9595347D01*
X10294383Y-9600275D01*
X10296843Y-9601668D01*
X10315363Y-9612154D01*
X10335873Y-9623776D01*
X10358157Y-9636408D01*
X10381997Y-9649930D01*
X10407177Y-9664216D01*
X10420350Y-9671693D01*
X10428397Y-9676258D01*
X10437647Y-9681502D01*
X10447092Y-9686855D01*
X10455725Y-9691744D01*
X10457815Y-9692927D01*
X10472437Y-9701205D01*
X10489005Y-9710592D01*
X10507257Y-9720936D01*
X10526929Y-9732091D01*
X10547760Y-9743907D01*
X10569488Y-9756236D01*
X10581640Y-9763133D01*
X10589687Y-9767698D01*
X10598937Y-9772942D01*
X10608382Y-9778295D01*
X10617015Y-9783184D01*
X10619105Y-9784367D01*
X10633727Y-9792645D01*
X10650295Y-9802032D01*
X10668547Y-9812376D01*
X10688219Y-9823531D01*
X10709050Y-9835347D01*
X10730778Y-9847676D01*
X10742930Y-9854573D01*
X10750906Y-9859098D01*
X10760109Y-9864316D01*
X10769552Y-9869667D01*
X10778253Y-9874595D01*
X10780713Y-9875988D01*
X10799233Y-9886474D01*
X10819743Y-9898096D01*
X10842027Y-9910728D01*
X10865867Y-9924250D01*
X10891047Y-9938536D01*
X10904220Y-9946013D01*
X10912196Y-9950538D01*
X10921399Y-9955756D01*
X10930842Y-9961107D01*
X10939543Y-9966035D01*
X10942003Y-9967428D01*
X10960523Y-9977914D01*
X10981033Y-9989536D01*
X11003317Y-10002168D01*
X11027157Y-10015690D01*
X11052337Y-10029976D01*
X11065510Y-10037453D01*
X11073486Y-10041978D01*
X11082689Y-10047196D01*
X11092132Y-10052547D01*
X11100833Y-10057475D01*
X11103293Y-10058868D01*
X11121813Y-10069354D01*
X11142323Y-10080976D01*
X11164607Y-10093608D01*
X11188447Y-10107130D01*
X11213627Y-10121416D01*
X11226800Y-10128893D01*
X11234847Y-10133458D01*
X11244097Y-10138702D01*
X11253542Y-10144055D01*
X11262175Y-10148944D01*
X11264265Y-10150127D01*
X11278887Y-10158405D01*
X11295455Y-10167792D01*
X11313707Y-10178136D01*
X11333379Y-10189291D01*
X11354210Y-10201107D01*
X11375938Y-10213436D01*
X11388090Y-10220333D01*
X11396137Y-10224898D01*
X11405387Y-10230142D01*
X11414832Y-10235495D01*
X11423465Y-10240384D01*
X11425555Y-10241567D01*
X11439316Y-10249357D01*
X11454902Y-10258187D01*
X11471931Y-10267839D01*
X11490022Y-10278096D01*
X11508790Y-10288741D01*
X11527855Y-10299557D01*
X11546833Y-10310329D01*
X11549380Y-10311775D01*
X11556504Y-10315817D01*
X11565102Y-10320692D01*
X11574434Y-10325981D01*
X11583763Y-10331266D01*
X11591925Y-10335887D01*
X11605464Y-10343551D01*
X11616955Y-10350062D01*
X11626562Y-10355519D01*
X11634447Y-10360021D01*
X11640771Y-10363666D01*
X11645699Y-10366553D01*
X11649392Y-10368782D01*
X11652013Y-10370451D01*
X11653725Y-10371659D01*
X11654690Y-10372504D01*
X11655070Y-10373087D01*
X11655029Y-10373505D01*
X11654729Y-10373858D01*
X11654583Y-10373994D01*
X11652930Y-10375390D01*
X11649321Y-10378323D01*
X11643799Y-10382759D01*
X11636404Y-10388667D01*
X11627178Y-10396012D01*
X11616163Y-10404761D01*
X11603400Y-10414883D01*
X11599545Y-10417937D01*
X11594275Y-10422115D01*
X11587489Y-10427500D01*
X11579656Y-10433719D01*
X11571248Y-10440397D01*
X11562736Y-10447162D01*
X11556365Y-10452227D01*
X11547792Y-10459043D01*
X11538683Y-10466282D01*
X11529577Y-10473518D01*
X11521015Y-10480319D01*
X11513536Y-10486258D01*
X11509375Y-10489561D01*
X11502443Y-10495063D01*
X11494168Y-10501635D01*
X11485196Y-10508762D01*
X11476173Y-10515933D01*
X11467743Y-10522634D01*
X11466195Y-10523866D01*
X11458639Y-10529874D01*
X11449641Y-10537026D01*
X11439748Y-10544887D01*
X11429509Y-10553022D01*
X11419470Y-10560997D01*
X11410315Y-10568268D01*
X11401295Y-10575432D01*
X11391793Y-10582978D01*
X11382295Y-10590523D01*
X11373288Y-10597677D01*
X11365259Y-10604057D01*
X11358692Y-10609274D01*
X11358245Y-10609629D01*
X11339952Y-10624166D01*
X11322276Y-10638210D01*
X11304744Y-10652137D01*
X11286883Y-10666326D01*
X11268218Y-10681150D01*
X11248276Y-10696988D01*
X11237601Y-10705465D01*
X11225779Y-10714854D01*
X11212700Y-10725242D01*
X11198888Y-10736213D01*
X11184868Y-10747351D01*
X11171165Y-10758237D01*
X11158305Y-10768455D01*
X11146811Y-10777588D01*
X11144877Y-10779125D01*
X11133693Y-10788012D01*
X11121046Y-10798063D01*
X11107459Y-10808858D01*
X11093459Y-10819982D01*
X11079569Y-10831016D01*
X11066317Y-10841545D01*
X11054226Y-10851150D01*
X11052167Y-10852785D01*
X11041059Y-10861609D01*
X11029294Y-10870956D01*
X11017284Y-10880498D01*
X11005439Y-10889910D01*
X10994170Y-10898865D01*
X10983889Y-10907035D01*
X10975006Y-10914095D01*
X10971674Y-10916744D01*
X10962541Y-10924004D01*
X10952911Y-10931658D01*
X10943266Y-10939323D01*
X10934090Y-10946616D01*
X10925863Y-10953153D01*
X10919069Y-10958551D01*
X10918190Y-10959249D01*
X10911444Y-10964609D01*
X10903229Y-10971136D01*
X10894067Y-10978417D01*
X10884477Y-10986038D01*
X10874979Y-10993586D01*
X10866755Y-11000123D01*
X10857948Y-11007123D01*
X10848699Y-11014472D01*
X10839498Y-11021782D01*
X10830834Y-11028664D01*
X10823194Y-11034731D01*
X10817225Y-11039469D01*
X10810709Y-11044643D01*
X10802760Y-11050957D01*
X10793932Y-11057970D01*
X10784782Y-11065242D01*
X10775864Y-11072331D01*
X10770870Y-11076302D01*
X10762355Y-11083071D01*
X10753277Y-11090287D01*
X10744190Y-11097507D01*
X10735649Y-11104292D01*
X10728209Y-11110200D01*
X10724515Y-11113132D01*
X10717999Y-11118304D01*
X10710050Y-11124617D01*
X10701223Y-11131630D01*
X10692072Y-11138902D01*
X10683154Y-11145991D01*
X10678160Y-11149962D01*
X10669645Y-11156731D01*
X10660567Y-11163947D01*
X10651480Y-11171167D01*
X10642939Y-11177952D01*
X10635499Y-11183860D01*
X10631805Y-11186791D01*
X10625289Y-11191964D01*
X10617340Y-11198277D01*
X10608513Y-11205290D01*
X10599362Y-11212561D01*
X10590444Y-11219651D01*
X10585450Y-11223621D01*
X10576988Y-11230350D01*
X10568011Y-11237486D01*
X10559061Y-11244599D01*
X10550681Y-11251258D01*
X10543413Y-11257033D01*
X10539730Y-11259958D01*
X10534061Y-11264460D01*
X10526826Y-11270208D01*
X10518445Y-11276867D01*
X10509340Y-11284102D01*
X10499933Y-11291578D01*
X10490645Y-11298959D01*
X10487025Y-11301836D01*
X10477559Y-11309359D01*
X10467496Y-11317354D01*
X10457326Y-11325433D01*
X10447538Y-11333206D01*
X10438621Y-11340286D01*
X10431064Y-11346284D01*
X10429240Y-11347731D01*
X10423046Y-11352647D01*
X10415224Y-11358856D01*
X10406135Y-11366074D01*
X10396139Y-11374013D01*
X10385596Y-11382388D01*
X10374867Y-11390912D01*
X10364312Y-11399298D01*
X10360519Y-11402313D01*
X10349212Y-11411298D01*
X10336445Y-11421442D01*
X10322749Y-11432323D01*
X10308654Y-11443521D01*
X10294690Y-11454614D01*
X10281386Y-11465182D01*
X10269272Y-11474803D01*
X10267318Y-11476355D01*
X10255497Y-11485744D01*
X10242417Y-11496133D01*
X10228605Y-11507104D01*
X10214584Y-11518242D01*
X10200881Y-11529129D01*
X10188020Y-11539347D01*
X10176526Y-11548480D01*
X10174594Y-11550015D01*
X10152553Y-11567531D01*
X10132399Y-11583545D01*
X10114035Y-11598137D01*
X10097361Y-11611387D01*
X10082276Y-11623373D01*
X10068682Y-11634175D01*
X10056478Y-11643871D01*
X10045565Y-11652541D01*
X10038080Y-11658488D01*
X10029690Y-11665154D01*
X10019990Y-11672862D01*
X10009660Y-11681072D01*
X9999378Y-11689245D01*
X9989823Y-11696842D01*
X9986010Y-11699873D01*
X9977495Y-11706643D01*
X9968417Y-11713858D01*
X9959329Y-11721078D01*
X9950788Y-11727862D01*
X9943348Y-11733770D01*
X9939655Y-11736701D01*
X9933139Y-11741874D01*
X9925190Y-11748187D01*
X9916363Y-11755200D01*
X9907212Y-11762471D01*
X9898294Y-11769561D01*
X9893300Y-11773531D01*
X9884785Y-11780301D01*
X9875707Y-11787516D01*
X9866620Y-11794737D01*
X9858079Y-11801521D01*
X9850639Y-11807428D01*
X9846945Y-11810360D01*
X9841052Y-11815038D01*
X9833609Y-11820949D01*
X9825055Y-11827745D01*
X9815827Y-11835078D01*
X9806364Y-11842600D01*
X9797103Y-11849962D01*
X9794240Y-11852239D01*
X9785183Y-11859440D01*
X9775821Y-11866880D01*
X9766585Y-11874218D01*
X9757904Y-11881113D01*
X9750206Y-11887224D01*
X9743922Y-11892210D01*
X9742196Y-11893578D01*
X9736082Y-11898429D01*
X9728486Y-11904463D01*
X9719910Y-11911281D01*
X9710858Y-11918483D01*
X9701833Y-11925668D01*
X9694721Y-11931332D01*
X9665637Y-11954510D01*
X9344822Y-11954510D01*
X9354710Y-11938952D01*
X9359193Y-11931886D01*
X9364086Y-11924153D01*
X9368797Y-11916690D01*
X9372726Y-11910445D01*
X9375989Y-11905320D01*
X9378669Y-11901463D01*
X9381264Y-11898371D01*
X9384269Y-11895546D01*
X9388181Y-11892485D01*
X9393497Y-11888688D01*
X9396095Y-11886874D01*
X9402926Y-11882105D01*
X9410934Y-11876500D01*
X9419221Y-11870688D01*
X9426890Y-11865299D01*
X9428480Y-11864180D01*
X9440487Y-11855726D01*
X9453700Y-11846425D01*
X9468353Y-11836113D01*
X9484680Y-11824625D01*
X9497695Y-11815468D01*
X9505317Y-11810105D01*
X9513872Y-11804086D01*
X9522441Y-11798055D01*
X9530109Y-11792658D01*
X9531985Y-11791338D01*
X9551641Y-11777504D01*
X9572393Y-11762900D01*
X9593260Y-11748217D01*
X9600565Y-11743078D01*
X9622878Y-11727378D01*
X9643822Y-11712638D01*
X9664107Y-11698356D01*
X9684443Y-11684034D01*
X9703435Y-11670653D01*
X9710682Y-11665548D01*
X9719091Y-11659627D01*
X9727743Y-11653537D01*
X9735721Y-11647922D01*
X9737725Y-11646512D01*
X9745433Y-11641089D01*
X9754155Y-11634952D01*
X9762943Y-11628769D01*
X9770849Y-11623206D01*
X9772650Y-11621938D01*
X9780317Y-11616543D01*
X9789064Y-11610388D01*
X9797892Y-11604176D01*
X9805804Y-11598608D01*
X9806940Y-11597808D01*
X9814561Y-11592445D01*
X9823218Y-11586353D01*
X9831930Y-11580222D01*
X9839716Y-11574742D01*
X9840907Y-11573904D01*
X9848357Y-11568661D01*
X9856930Y-11562628D01*
X9865669Y-11556479D01*
X9873619Y-11550884D01*
X9875197Y-11549774D01*
X9882840Y-11544396D01*
X9891485Y-11538313D01*
X9900178Y-11532195D01*
X9907963Y-11526717D01*
X9909487Y-11525644D01*
X9917011Y-11520348D01*
X9925632Y-11514281D01*
X9934370Y-11508133D01*
X9942242Y-11502592D01*
X9943454Y-11501739D01*
X9951077Y-11496375D01*
X9959737Y-11490281D01*
X9968453Y-11484147D01*
X9976243Y-11478664D01*
X9977432Y-11477828D01*
X9984818Y-11472630D01*
X9993348Y-11466627D01*
X10002090Y-11460476D01*
X10010113Y-11454831D01*
X10012045Y-11453472D01*
X10032715Y-11438929D01*
X10053621Y-11424218D01*
X10073782Y-11410029D01*
X10080625Y-11405212D01*
X10087872Y-11400111D01*
X10096280Y-11394194D01*
X10104931Y-11388106D01*
X10112910Y-11382493D01*
X10114915Y-11381082D01*
X10135585Y-11366539D01*
X10156491Y-11351828D01*
X10176652Y-11337639D01*
X10183495Y-11332822D01*
X10203151Y-11318988D01*
X10223903Y-11304384D01*
X10244770Y-11289701D01*
X10252075Y-11284562D01*
X10259783Y-11279139D01*
X10268505Y-11273002D01*
X10277293Y-11266819D01*
X10285199Y-11261256D01*
X10287000Y-11259988D01*
X10294667Y-11254593D01*
X10303414Y-11248438D01*
X10312242Y-11242226D01*
X10320154Y-11236658D01*
X10321290Y-11235858D01*
X10328867Y-11230526D01*
X10337439Y-11224494D01*
X10346039Y-11218441D01*
X10353705Y-11213045D01*
X10354945Y-11212172D01*
X10362192Y-11207071D01*
X10370600Y-11201154D01*
X10379251Y-11195066D01*
X10387230Y-11189453D01*
X10389235Y-11188042D01*
X10396857Y-11182679D01*
X10405412Y-11176660D01*
X10413981Y-11170629D01*
X10421649Y-11165233D01*
X10423525Y-11163912D01*
X10430912Y-11158713D01*
X10439412Y-11152730D01*
X10448061Y-11146643D01*
X10455896Y-11141129D01*
X10457180Y-11140226D01*
X10464847Y-11134830D01*
X10473594Y-11128675D01*
X10482422Y-11122463D01*
X10490334Y-11116895D01*
X10491470Y-11116096D01*
X10499137Y-11110700D01*
X10507884Y-11104545D01*
X10516712Y-11098333D01*
X10524624Y-11092765D01*
X10525760Y-11091966D01*
X10533427Y-11086570D01*
X10542174Y-11080415D01*
X10551002Y-11074203D01*
X10558914Y-11068635D01*
X10560050Y-11067836D01*
X10567717Y-11062440D01*
X10576464Y-11056285D01*
X10585292Y-11050073D01*
X10593204Y-11044505D01*
X10594340Y-11043706D01*
X10601860Y-11038414D01*
X10610509Y-11032328D01*
X10619340Y-11026115D01*
X10627404Y-11020441D01*
X10629265Y-11019132D01*
X10636887Y-11013769D01*
X10645442Y-11007750D01*
X10654011Y-11001719D01*
X10661679Y-10996323D01*
X10663555Y-10995002D01*
X10670802Y-10989901D01*
X10679210Y-10983984D01*
X10687861Y-10977896D01*
X10695840Y-10972283D01*
X10697845Y-10970872D01*
X10705467Y-10965509D01*
X10714022Y-10959490D01*
X10722591Y-10953459D01*
X10730259Y-10948063D01*
X10732135Y-10946742D01*
X10751791Y-10932908D01*
X10772543Y-10918304D01*
X10793410Y-10903621D01*
X10800715Y-10898482D01*
X10821385Y-10883939D01*
X10842291Y-10869228D01*
X10862452Y-10855039D01*
X10869295Y-10850222D01*
X10888951Y-10836388D01*
X10909703Y-10821784D01*
X10930570Y-10807101D01*
X10937875Y-10801962D01*
X10945497Y-10796599D01*
X10954052Y-10790580D01*
X10962621Y-10784549D01*
X10970289Y-10779153D01*
X10972165Y-10777832D01*
X10991821Y-10763998D01*
X11012573Y-10749394D01*
X11033440Y-10734711D01*
X11040745Y-10729572D01*
X11048453Y-10724149D01*
X11057175Y-10718012D01*
X11065963Y-10711829D01*
X11073869Y-10706266D01*
X11075670Y-10704998D01*
X11083337Y-10699603D01*
X11092084Y-10693448D01*
X11100912Y-10687236D01*
X11108824Y-10681668D01*
X11109960Y-10680868D01*
X11117627Y-10675473D01*
X11126374Y-10669318D01*
X11135202Y-10663106D01*
X11143114Y-10657538D01*
X11144250Y-10656738D01*
X11151827Y-10651406D01*
X11160399Y-10645374D01*
X11168999Y-10639321D01*
X11176665Y-10633925D01*
X11177905Y-10633052D01*
X11185297Y-10627852D01*
X11193802Y-10621872D01*
X11202456Y-10615791D01*
X11210292Y-10610289D01*
X11211560Y-10609399D01*
X11217966Y-10604901D01*
X11224240Y-10600493D01*
X11229824Y-10596566D01*
X11234163Y-10593511D01*
X11235690Y-10592434D01*
X11240017Y-10589384D01*
X11245460Y-10585553D01*
X11251054Y-10581620D01*
X11252835Y-10580370D01*
X11258260Y-10576558D01*
X11263864Y-10572616D01*
X11268682Y-10569221D01*
X11269980Y-10568305D01*
X11274307Y-10565254D01*
X11279750Y-10561423D01*
X11285345Y-10557490D01*
X11287125Y-10556240D01*
X11292550Y-10552428D01*
X11298154Y-10548486D01*
X11302972Y-10545091D01*
X11304270Y-10544175D01*
X11308597Y-10541124D01*
X11314040Y-10537293D01*
X11319635Y-10533360D01*
X11321415Y-10532110D01*
X11326840Y-10528298D01*
X11332444Y-10524356D01*
X11337262Y-10520961D01*
X11338560Y-10520045D01*
X11342887Y-10516994D01*
X11348330Y-10513163D01*
X11353925Y-10509230D01*
X11355705Y-10507980D01*
X11361130Y-10504168D01*
X11366734Y-10500226D01*
X11371552Y-10496831D01*
X11372850Y-10495915D01*
X11377177Y-10492864D01*
X11382620Y-10489033D01*
X11388215Y-10485100D01*
X11389995Y-10483850D01*
X11395420Y-10480038D01*
X11401024Y-10476095D01*
X11405842Y-10472699D01*
X11407140Y-10471782D01*
X11412169Y-10468233D01*
X11417639Y-10464379D01*
X11420826Y-10462137D01*
X11427526Y-10457428D01*
X11423366Y-10454867D01*
X11420187Y-10453092D01*
X11415596Y-10450743D01*
X11410501Y-10448284D01*
X11409680Y-10447902D01*
X11407127Y-10446683D01*
X11402482Y-10444422D01*
X11395926Y-10441210D01*
X11387641Y-10437136D01*
X11377809Y-10432289D01*
X11366612Y-10426761D01*
X11354231Y-10420640D01*
X11340849Y-10414016D01*
X11326647Y-10406979D01*
X11311808Y-10399619D01*
X11298555Y-10393040D01*
X11282344Y-10384991D01*
X11265919Y-10376839D01*
X11249543Y-10368716D01*
X11233480Y-10360750D01*
X11217991Y-10353072D01*
X11203340Y-10345813D01*
X11189790Y-10339103D01*
X11177603Y-10333071D01*
X11167042Y-10327849D01*
X11158370Y-10323566D01*
X11155045Y-10321926D01*
X11146606Y-10317763D01*
X11136210Y-10312628D01*
X11124174Y-10306677D01*
X11110816Y-10300069D01*
X11096453Y-10292960D01*
X11081402Y-10285507D01*
X11065982Y-10277868D01*
X11050509Y-10270200D01*
X11035302Y-10262660D01*
X11029315Y-10259691D01*
X11013912Y-10252052D01*
X10997816Y-10244071D01*
X10981385Y-10235928D01*
X10964979Y-10227800D01*
X10948958Y-10219864D01*
X10933682Y-10212299D01*
X10919508Y-10205284D01*
X10906798Y-10198995D01*
X10895910Y-10193612D01*
X10893425Y-10192384D01*
X10882543Y-10187005D01*
X10869787Y-10180697D01*
X10855557Y-10173657D01*
X10840256Y-10166083D01*
X10824283Y-10158176D01*
X10808040Y-10150133D01*
X10791929Y-10142152D01*
X10776350Y-10134433D01*
X10765155Y-10128885D01*
X10750021Y-10121384D01*
X10733874Y-10113383D01*
X10717142Y-10105094D01*
X10700254Y-10096729D01*
X10683637Y-10088501D01*
X10667720Y-10080620D01*
X10652931Y-10073300D01*
X10639698Y-10066752D01*
X10631805Y-10062847D01*
X10619538Y-10056779D01*
X10605451Y-10049809D01*
X10590002Y-10042162D01*
X10573647Y-10034065D01*
X10556841Y-10025744D01*
X10540042Y-10017425D01*
X10523707Y-10009334D01*
X10508290Y-10001697D01*
X10502265Y-9998711D01*
X10487425Y-9991358D01*
X10471523Y-9983482D01*
X10455010Y-9975304D01*
X10438332Y-9967047D01*
X10421940Y-9958932D01*
X10406282Y-9951183D01*
X10391806Y-9944020D01*
X10378962Y-9937667D01*
X10373995Y-9935211D01*
X10362001Y-9929279D01*
X10348181Y-9922442D01*
X10332982Y-9914920D01*
X10316855Y-9906937D01*
X10300246Y-9898715D01*
X10283606Y-9890475D01*
X10267383Y-9882440D01*
X10252026Y-9874832D01*
X10245725Y-9871710D01*
X10230642Y-9864236D01*
X10214303Y-9856142D01*
X10197190Y-9847665D01*
X10179781Y-9839043D01*
X10162556Y-9830513D01*
X10145997Y-9822314D01*
X10130583Y-9814682D01*
X10116793Y-9807856D01*
X10112375Y-9805670D01*
X10099014Y-9799057D01*
X10083880Y-9791565D01*
X10067476Y-9783444D01*
X10050306Y-9774943D01*
X10032873Y-9766311D01*
X10015680Y-9757797D01*
X9999231Y-9749650D01*
X9984028Y-9742120D01*
X9981565Y-9740900D01*
X9966628Y-9733502D01*
X9950358Y-9725444D01*
X9933258Y-9716975D01*
X9915831Y-9708346D01*
X9898579Y-9699804D01*
X9882007Y-9691600D01*
X9866618Y-9683981D01*
X9852914Y-9677199D01*
X9850755Y-9676130D01*
X9837394Y-9669517D01*
X9822260Y-9662025D01*
X9805856Y-9653904D01*
X9788686Y-9645403D01*
X9771253Y-9636771D01*
X9754061Y-9628256D01*
X9737611Y-9620109D01*
X9722408Y-9612579D01*
X9719945Y-9611359D01*
X9705072Y-9603992D01*
X9688918Y-9595991D01*
X9671976Y-9587602D01*
X9654742Y-9579068D01*
X9637710Y-9570636D01*
X9621374Y-9562549D01*
X9606229Y-9555053D01*
X9592770Y-9548393D01*
X9590405Y-9547222D01*
X9577460Y-9540816D01*
X9562722Y-9533522D01*
X9546674Y-9525578D01*
X9529799Y-9517223D01*
X9512581Y-9508698D01*
X9495503Y-9500240D01*
X9479047Y-9492090D01*
X9463697Y-9484487D01*
X9459595Y-9482455D01*
X9444772Y-9475112D01*
X9428805Y-9467205D01*
X9412161Y-9458963D01*
X9395307Y-9450619D01*
X9378709Y-9442403D01*
X9362835Y-9434546D01*
X9348152Y-9427280D01*
X9335125Y-9420835D01*
X9331325Y-9418956D01*
X9319501Y-9413106D01*
X9305821Y-9406336D01*
X9290704Y-9398852D01*
X9274571Y-9390863D01*
X9257841Y-9382577D01*
X9240934Y-9374201D01*
X9224268Y-9365944D01*
X9208264Y-9358012D01*
X9196705Y-9352282D01*
X9181875Y-9344931D01*
X9166362Y-9337245D01*
X9150539Y-9329408D01*
X9134782Y-9321606D01*
X9119464Y-9314025D01*
X9104962Y-9306849D01*
X9091648Y-9300265D01*
X9079899Y-9294457D01*
X9070975Y-9290050D01*
X9061752Y-9285494D01*
X9050567Y-9279966D01*
X9037732Y-9273619D01*
X9023561Y-9266608D01*
X9008366Y-9259089D01*
X8992460Y-9251217D01*
X8976157Y-9243145D01*
X8959770Y-9235030D01*
X8943611Y-9227026D01*
X8931275Y-9220914D01*
X8914498Y-9212600D01*
X8896478Y-9203673D01*
X8877633Y-9194337D01*
X8858381Y-9184801D01*
X8839140Y-9175271D01*
X8820327Y-9165954D01*
X8802361Y-9157058D01*
X8785660Y-9148788D01*
X8770640Y-9141353D01*
X8764934Y-9138528D01*
X8750074Y-9131171D01*
X8734328Y-9123369D01*
X8718107Y-9115328D01*
X8701826Y-9107252D01*
X8685898Y-9099348D01*
X8670735Y-9091819D01*
X8656752Y-9084872D01*
X8644361Y-9078711D01*
X8637299Y-9075196D01*
X8584565Y-9048936D01*
X9321805Y-9048750D01*
X9334820Y-9056202D01*
D11*
X8643000Y-10169000D03*
X9083000Y-10169000D03*
D12*
X9511000Y-10390000D03*
X9871000Y-10390000D03*
D13*
X10538600Y-10642600D03*
X10238600Y-10642600D03*
D14*
X18159000Y-10210800D03*
X17909000Y-10210800D03*
D15*
X16408400Y-10160000D03*
X15951200Y-10160000D03*
X16179800Y-10160000D03*
D16*
X16179800Y-9499600D03*
D17*
X14020800Y-10114660D03*
X14070800Y-10244660D03*
X13970800Y-10244660D03*
D18*
X13800800Y-10175800D03*
D19*
X13823300Y-10245800D03*
X13778300Y-10245800D03*
D20*
X14365200Y-10226660D03*
X14235200Y-10226660D03*
X14300200Y-10016660D03*
D21*
X14725400Y-10221660D03*
X14535400Y-10221660D03*
X14630400Y-9991660D03*
D22*
X20727000Y-11009000D03*
X20257000Y-11009000D03*
D23*
X19942000Y-10809000D03*
X19582000Y-10809000D03*
D24*
X19174775Y-10617200D03*
X18894775Y-10617200D03*
D25*
X13598400Y-11264900D03*
X13598400Y-11391900D03*
X13598400Y-11518900D03*
X13598400Y-11645900D03*
X14138400Y-11645900D03*
X14138400Y-11518900D03*
X14138400Y-11391900D03*
X14138400Y-11264900D03*
D26*
X16129600Y-10679800D03*
X16049600Y-10679800D03*
X15969600Y-10679800D03*
X15889600Y-10679800D03*
X15809600Y-10679800D03*
X15729600Y-10679800D03*
X15649600Y-10679800D03*
X15569600Y-10679800D03*
D27*
X15429600Y-10819800D03*
X15429600Y-10899800D03*
X15429600Y-10979800D03*
X15429600Y-11059800D03*
X15429600Y-11139800D03*
X15429600Y-11219800D03*
X15429600Y-11299800D03*
X15429600Y-11379800D03*
D26*
X15569600Y-11519800D03*
X15649600Y-11519800D03*
X15729600Y-11519800D03*
X15809600Y-11519800D03*
X15889600Y-11519800D03*
X15969600Y-11519800D03*
X16049600Y-11519800D03*
X16129600Y-11519800D03*
D27*
X16269600Y-11379800D03*
X16269600Y-11299800D03*
X16269600Y-11219800D03*
X16269600Y-11139800D03*
X16269600Y-11059800D03*
X16269600Y-10979800D03*
X16269600Y-10899800D03*
X16269600Y-10819800D03*
D28*
X16741902Y-10972292D03*
X16821912Y-10972292D03*
X16581882Y-11532108D03*
X16661892Y-11452098D03*
X16661892Y-11532108D03*
X16661892Y-11612118D03*
X16741902Y-11612118D03*
X16741902Y-11532108D03*
X16581882Y-11612118D03*
X16581882Y-10892282D03*
X16661892Y-10892282D03*
X16741902Y-10892282D03*
X16821912Y-10892282D03*
X16821912Y-11532108D03*
X16901922Y-11532108D03*
X16979900Y-11531600D03*
X17221708Y-10972292D03*
X17141698Y-10972292D03*
X17061688Y-10972292D03*
X16981678Y-10972292D03*
X16581882Y-10972292D03*
X16581882Y-11452098D03*
X16661892Y-11372088D03*
X16821912Y-11612118D03*
X17061688Y-11612118D03*
X16981678Y-11612118D03*
X16901922Y-11612118D03*
X17221708Y-11532108D03*
X17301718Y-11532108D03*
X17221708Y-11372088D03*
X17221708Y-11292078D03*
X17221708Y-11212322D03*
X17221708Y-11132312D03*
X17221708Y-11052302D03*
X16661892Y-11052302D03*
X16581882Y-11052302D03*
X16581882Y-11132312D03*
X16581882Y-11212322D03*
X16661892Y-11212322D03*
X16661892Y-11132312D03*
X16901922Y-10972292D03*
X16661892Y-10972292D03*
X16581882Y-11372088D03*
X16661892Y-11292078D03*
X16581882Y-11292078D03*
X17061688Y-11532108D03*
X17141698Y-11532108D03*
X17141698Y-11612118D03*
X17221708Y-11612118D03*
X17301718Y-11612118D03*
X17221708Y-11452098D03*
X17301718Y-11452098D03*
X17301718Y-11372088D03*
X17301718Y-11292078D03*
X17301718Y-11212322D03*
X17301718Y-11132312D03*
X17301718Y-11052302D03*
X17301718Y-10972292D03*
X16901922Y-10892282D03*
X16981678Y-10892282D03*
X17061688Y-10892282D03*
X17141698Y-10892282D03*
X17221708Y-10892282D03*
X17301718Y-10892282D03*
D29*
X14853200Y-11435800D03*
X14853200Y-11525800D03*
X14763200Y-11435800D03*
X14763200Y-11525800D03*
D30*
X14883200Y-11333300D03*
X14833200Y-11333300D03*
X14783200Y-11333300D03*
X14733200Y-11333300D03*
D31*
X14660700Y-11405800D03*
X14660700Y-11455800D03*
X14660700Y-11505800D03*
X14660700Y-11555800D03*
D30*
X14733200Y-11628300D03*
X14783200Y-11628300D03*
X14833200Y-11628300D03*
X14883200Y-11628300D03*
D31*
X14955700Y-11555800D03*
X14955700Y-11505800D03*
X14955700Y-11455800D03*
X14955700Y-11405800D03*
D32*
X7810500Y-11277600D03*
X7175500Y-11277600D03*
D33*
X8710700Y-11226800D03*
X8205700Y-11226800D03*
D34*
X9385000Y-11175000D03*
X9080000Y-11175000D03*
D35*
X9999500Y-11108000D03*
X9724500Y-11108000D03*
D36*
X13587476Y-10570464D03*
X13587476Y-10635488D03*
X13587476Y-10700512D03*
X13587476Y-10765536D03*
X14047724Y-10765536D03*
X14047724Y-10700512D03*
X14047724Y-10635488D03*
X14047724Y-10570464D03*
D37*
X14616000Y-10573000D03*
X14616000Y-10668000D03*
X14616000Y-10763000D03*
X14848000Y-10763000D03*
X14848000Y-10668000D03*
X14848000Y-10573000D03*
D38*
X7518200Y-9982200D03*
X8128200Y-9982200D03*
D39*
X11367400Y-10868200D03*
X11367400Y-10933200D03*
X11367400Y-10998200D03*
X11367400Y-11063200D03*
X11797400Y-11063200D03*
X11797400Y-10998200D03*
X11797400Y-10933200D03*
X11797400Y-10868200D03*
D40*
X21148000Y-11252000D03*
X21708000Y-11252000D03*
D41*
X18398300Y-10414000D03*
X18533300Y-10414000D03*
D42*
X11983000Y-10068000D03*
X11983000Y-10033000D03*
X11983000Y-9998000D03*
X11893000Y-9998000D03*
X11893000Y-10033000D03*
X11893000Y-10068000D03*
D43*
X13114800Y-10054800D03*
X13114800Y-9989800D03*
X13114800Y-9923800D03*
X13114800Y-9858800D03*
X12894800Y-9858800D03*
X12894800Y-9923800D03*
X12894800Y-9989800D03*
X12894800Y-10054800D03*
D44*
X13352000Y-9956800D03*
X13352000Y-9861800D03*
X13352000Y-10051800D03*
X13572000Y-10051800D03*
X13572000Y-9956800D03*
X13572000Y-9861800D03*
D45*
X18161000Y-11675110D03*
X18161000Y-11610340D03*
X18161000Y-11545570D03*
X18161000Y-11480800D03*
X18161000Y-11414760D03*
X18161000Y-11349990D03*
X18161000Y-11285220D03*
X17602200Y-11285220D03*
X17602200Y-11349990D03*
X17602200Y-11414760D03*
X17602200Y-11480800D03*
X17602200Y-11544300D03*
X17602200Y-11610340D03*
X17602200Y-11673840D03*
D46*
X12115800Y-10756900D03*
X12115800Y-10883900D03*
X12115800Y-11010900D03*
X12115800Y-11137900D03*
X12115800Y-11264900D03*
X12115800Y-11391900D03*
X12115800Y-11518900D03*
X12115800Y-11645900D03*
X13131800Y-11645900D03*
X13131800Y-11518900D03*
X13131800Y-11391900D03*
X13131800Y-11264900D03*
X13131800Y-11137900D03*
X13131800Y-11010900D03*
X13131800Y-10883900D03*
X13131800Y-10756900D03*
D47*
X15106400Y-10199660D03*
X14916400Y-10199660D03*
X15011400Y-9979660D03*
D48*
X12327800Y-10061350D03*
X12327800Y-9953850D03*
D49*
X12150300Y-10007600D03*
X12335300Y-10007600D03*
D48*
X12157800Y-9953850D03*
X12157800Y-10061350D03*
D50*
X12536900Y-9882200D03*
X12536900Y-9932200D03*
X12536900Y-10032200D03*
X12536900Y-10082200D03*
X12659900Y-10082200D03*
X12659900Y-10032200D03*
D51*
X12598400Y-9982200D03*
D50*
X12659900Y-9932200D03*
X12659900Y-9882200D03*
D52*
X15468600Y-9779960D03*
D53*
G36*
X15518600Y-9737460D02*
X15578600Y-9822460D01*
X15358600Y-9822460D01*
X15418600Y-9737460D01*
X15518600Y-9737460D01*
X15518600Y-9737460D01*
G37*
D14*
X15618600Y-10194660D03*
D54*
X15468600Y-10180010D03*
D14*
X15318600Y-10194660D03*
D55*
X15468600Y-9913310D03*
D56*
X15468600Y-10054280D03*
D53*
G36*
X15428600Y-10104280D02*
X15358600Y-10004280D01*
X15578600Y-10004280D01*
X15508600Y-10104280D01*
X15428600Y-10104280D01*
X15428600Y-10104280D01*
G37*
D57*
X16781300Y-9284100D03*
D53*
G36*
X16776800Y-9288600D02*
X16776800Y-9270600D01*
X16794800Y-9288600D01*
X16776800Y-9288600D01*
X16776800Y-9288600D01*
X16776800Y-9288600D01*
G37*
D57*
X16781300Y-9207100D03*
D53*
G36*
X16776800Y-9202600D02*
X16794800Y-9202600D01*
X16776800Y-9220600D01*
X16776800Y-9202600D01*
X16776800Y-9202600D01*
X16776800Y-9202600D01*
G37*
D57*
X16848300Y-9207100D03*
D53*
G36*
X16852800Y-9202600D02*
X16852800Y-9220600D01*
X16834800Y-9202600D01*
X16852800Y-9202600D01*
X16852800Y-9202600D01*
X16852800Y-9202600D01*
G37*
D58*
X16773300Y-9279600D03*
X16773300Y-9211600D03*
X16856300Y-9211600D03*
D59*
X16853550Y-9282350D03*
D53*
G36*
X16859800Y-9288601D02*
X16834800Y-9288600D01*
X16859800Y-9263600D01*
X16859801Y-9288600D01*
X16859800Y-9288601D01*
X16859800Y-9288601D01*
G37*
D60*
X16847300Y-9299600D03*
X16782300Y-9299600D03*
X16782300Y-9191600D03*
X16847300Y-9191600D03*
D61*
X16814800Y-9245600D03*
D53*
G36*
X16814800Y-9279541D02*
X16780859Y-9245600D01*
X16814800Y-9211659D01*
X16848741Y-9245600D01*
X16814800Y-9279541D01*
X16814800Y-9279541D01*
G37*
D62*
X11430000Y-9455700D03*
D63*
X11370000Y-9185700D03*
D64*
X11239000Y-9757700D03*
D65*
X11430000Y-9430700D03*
D66*
X11430000Y-9210700D03*
D64*
X11366000Y-9757700D03*
X11621000Y-9757700D03*
X11494000Y-9757700D03*
D63*
X11490000Y-9185700D03*
X11242000Y-9185700D03*
X11618000Y-9185700D03*
D62*
X11430000Y-9540700D03*
X11430000Y-9370700D03*
X11315000Y-9370700D03*
X11315000Y-9540700D03*
X11315000Y-9455700D03*
X11545000Y-9370700D03*
X11545000Y-9540700D03*
X11545000Y-9455700D03*
D67*
X11185800Y-11510300D03*
X11185800Y-11575300D03*
X11185800Y-11640300D03*
X11185800Y-11705300D03*
X11775800Y-11705300D03*
X11775800Y-11640300D03*
X11775800Y-11575300D03*
X11775800Y-11510300D03*
D68*
X12964200Y-10401300D03*
X12964200Y-10274300D03*
X12334200Y-10274300D03*
X12334200Y-10401300D03*
D69*
X16659800Y-10539800D03*
X16659800Y-10489800D03*
X16659800Y-10439800D03*
X16659800Y-10389800D03*
X16969800Y-10389800D03*
X16969800Y-10439800D03*
X16969800Y-10489800D03*
X16969800Y-10539800D03*
M02*
