G04 #@! TF.GenerationSoftware,KiCad,Pcbnew,5.0.0-fee4fd1~66~ubuntu16.04.1*
G04 #@! TF.CreationDate,2018-08-14T19:38:31+01:00*
G04 #@! TF.ProjectId,ruler,72756C65722E6B696361645F70636200,rev?*
G04 #@! TF.SameCoordinates,Original*
G04 #@! TF.FileFunction,Soldermask,Top*
G04 #@! TF.FilePolarity,Negative*
%FSLAX45Y45*%
G04 Gerber Fmt 4.5, Leading zero omitted, Abs format (unit mm)*
G04 Created by KiCad (PCBNEW 5.0.0-fee4fd1~66~ubuntu16.04.1) date Tue Aug 14 19:38:31 2018*
%MOMM*%
%LPD*%
G01*
G04 APERTURE LIST*
%ADD10C,0.010000*%
%ADD11C,0.150000*%
%ADD12C,0.900000*%
%ADD13R,1.400760X1.400760*%
%ADD14C,1.000000*%
%ADD15R,2.400000X2.000000*%
%ADD16R,1.400000X1.300000*%
%ADD17R,1.200000X2.100000*%
%ADD18R,0.680000X0.830000*%
%ADD19R,1.000000X1.100000*%
%ADD20R,1.200000X1.200000*%
%ADD21R,1.600000X1.600000*%
%ADD22C,0.700000*%
%ADD23C,0.800000*%
%ADD24R,1.600000X2.900000*%
%ADD25R,2.900000X2.200000*%
%ADD26R,2.900000X2.700000*%
%ADD27R,1.800000X2.500000*%
%ADD28R,0.800000X1.000000*%
%ADD29R,0.900000X1.300000*%
%ADD30R,1.100000X1.700000*%
%ADD31R,1.400000X1.800000*%
%ADD32R,1.300000X2.100000*%
%ADD33R,1.900000X1.900000*%
%ADD34R,2.297380X1.573480*%
%ADD35R,2.297380X2.774900*%
%ADD36R,2.500580X1.873200*%
%ADD37R,1.779220X0.849580*%
%ADD38R,2.900000X3.700000*%
%ADD39R,1.300000X1.600000*%
%ADD40R,1.000000X0.850000*%
%ADD41R,0.900000X1.100000*%
%ADD42R,0.600000X1.500000*%
G04 APERTURE END LIST*
D10*
G04 #@! TO.C,DRAWING1*
G36*
X22219390Y-13120788D02*
X22242744Y-13127988D01*
X22265624Y-13137547D01*
X22287784Y-13149298D01*
X22308980Y-13163069D01*
X22328966Y-13178693D01*
X22347495Y-13195999D01*
X22364324Y-13214818D01*
X22374065Y-13227546D01*
X22388144Y-13248934D01*
X22400085Y-13270979D01*
X22410019Y-13293993D01*
X22418075Y-13318288D01*
X22424384Y-13344175D01*
X22425781Y-13351350D01*
X22428485Y-13365955D01*
X22428895Y-14566105D01*
X22428917Y-14632701D01*
X22428938Y-14696805D01*
X22428958Y-14758465D01*
X22428977Y-14817729D01*
X22428994Y-14874646D01*
X22429009Y-14929262D01*
X22429023Y-14981627D01*
X22429035Y-15031788D01*
X22429045Y-15079793D01*
X22429053Y-15125690D01*
X22429060Y-15169528D01*
X22429064Y-15211354D01*
X22429066Y-15251217D01*
X22429067Y-15289164D01*
X22429065Y-15325243D01*
X22429061Y-15359503D01*
X22429054Y-15391992D01*
X22429045Y-15422757D01*
X22429034Y-15451846D01*
X22429020Y-15479308D01*
X22429004Y-15505191D01*
X22428985Y-15529543D01*
X22428963Y-15552411D01*
X22428938Y-15573844D01*
X22428911Y-15593890D01*
X22428881Y-15612597D01*
X22428847Y-15630012D01*
X22428811Y-15646185D01*
X22428771Y-15661162D01*
X22428728Y-15674992D01*
X22428682Y-15687723D01*
X22428633Y-15699404D01*
X22428580Y-15710081D01*
X22428524Y-15719803D01*
X22428464Y-15728619D01*
X22428401Y-15736576D01*
X22428334Y-15743721D01*
X22428263Y-15750104D01*
X22428188Y-15755773D01*
X22428110Y-15760774D01*
X22428027Y-15765157D01*
X22427941Y-15768969D01*
X22427850Y-15772259D01*
X22427756Y-15775074D01*
X22427657Y-15777462D01*
X22427554Y-15779472D01*
X22427446Y-15781152D01*
X22427334Y-15782549D01*
X22427218Y-15783711D01*
X22427180Y-15784035D01*
X22422706Y-15811037D01*
X22415864Y-15837207D01*
X22406709Y-15862433D01*
X22395298Y-15886601D01*
X22381687Y-15909600D01*
X22365933Y-15931318D01*
X22348091Y-15951643D01*
X22338225Y-15961418D01*
X22318379Y-15978488D01*
X22297143Y-15993469D01*
X22274467Y-16006388D01*
X22250304Y-16017273D01*
X22224604Y-16026150D01*
X22217080Y-16028292D01*
X22199935Y-16032955D01*
X14480240Y-16033158D01*
X14306064Y-16033163D01*
X14134411Y-16033167D01*
X13965263Y-16033171D01*
X13798604Y-16033175D01*
X13634417Y-16033178D01*
X13472684Y-16033182D01*
X13313389Y-16033185D01*
X13156513Y-16033188D01*
X13002041Y-16033191D01*
X12849955Y-16033193D01*
X12700237Y-16033195D01*
X12552871Y-16033197D01*
X12407840Y-16033199D01*
X12265127Y-16033200D01*
X12124713Y-16033202D01*
X11986584Y-16033202D01*
X11850720Y-16033203D01*
X11717105Y-16033204D01*
X11585722Y-16033204D01*
X11456554Y-16033203D01*
X11329584Y-16033203D01*
X11204794Y-16033202D01*
X11082168Y-16033201D01*
X10961688Y-16033200D01*
X10843337Y-16033198D01*
X10727099Y-16033197D01*
X10612955Y-16033194D01*
X10500889Y-16033192D01*
X10390885Y-16033189D01*
X10282923Y-16033186D01*
X10176989Y-16033183D01*
X10073063Y-16033179D01*
X9971130Y-16033175D01*
X9871173Y-16033171D01*
X9773173Y-16033166D01*
X9677114Y-16033161D01*
X9582979Y-16033156D01*
X9490751Y-16033150D01*
X9400413Y-16033144D01*
X9311947Y-16033137D01*
X9225336Y-16033131D01*
X9140564Y-16033124D01*
X9057613Y-16033116D01*
X8976465Y-16033109D01*
X8897105Y-16033101D01*
X8819515Y-16033092D01*
X8743677Y-16033083D01*
X8669575Y-16033074D01*
X8597191Y-16033065D01*
X8526509Y-16033055D01*
X8457511Y-16033044D01*
X8390180Y-16033034D01*
X8324499Y-16033023D01*
X8260451Y-16033011D01*
X8198019Y-16032999D01*
X8137185Y-16032987D01*
X8077933Y-16032974D01*
X8020246Y-16032961D01*
X7964105Y-16032948D01*
X7909495Y-16032934D01*
X7856398Y-16032920D01*
X7804797Y-16032905D01*
X7754675Y-16032890D01*
X7706015Y-16032875D01*
X7658799Y-16032859D01*
X7613011Y-16032842D01*
X7568633Y-16032826D01*
X7525648Y-16032809D01*
X7484040Y-16032791D01*
X7443790Y-16032773D01*
X7404883Y-16032754D01*
X7367300Y-16032735D01*
X7331025Y-16032716D01*
X7296041Y-16032696D01*
X7262330Y-16032676D01*
X7229875Y-16032655D01*
X7198660Y-16032634D01*
X7168667Y-16032612D01*
X7139879Y-16032590D01*
X7112278Y-16032567D01*
X7085849Y-16032544D01*
X7060573Y-16032521D01*
X7036434Y-16032497D01*
X7013414Y-16032472D01*
X6991497Y-16032447D01*
X6970664Y-16032422D01*
X6950900Y-16032396D01*
X6932187Y-16032369D01*
X6914508Y-16032342D01*
X6897845Y-16032315D01*
X6882182Y-16032287D01*
X6867501Y-16032258D01*
X6853786Y-16032229D01*
X6841020Y-16032200D01*
X6829184Y-16032170D01*
X6818262Y-16032139D01*
X6808238Y-16032108D01*
X6799093Y-16032076D01*
X6790811Y-16032044D01*
X6783374Y-16032011D01*
X6776766Y-16031978D01*
X6770970Y-16031944D01*
X6765967Y-16031910D01*
X6761742Y-16031875D01*
X6758277Y-16031840D01*
X6755554Y-16031804D01*
X6753558Y-16031767D01*
X6752270Y-16031730D01*
X6751673Y-16031692D01*
X6751655Y-16031689D01*
X6727988Y-16026004D01*
X6704442Y-16017930D01*
X6681335Y-16007610D01*
X6658982Y-15995187D01*
X6637701Y-15980805D01*
X6635450Y-15979118D01*
X6628386Y-15973360D01*
X6620294Y-15966089D01*
X6611679Y-15957818D01*
X6603045Y-15949059D01*
X6594899Y-15940324D01*
X6587745Y-15932126D01*
X6582251Y-15925195D01*
X6569233Y-15906311D01*
X6558071Y-15887300D01*
X6548583Y-15867732D01*
X6540585Y-15847180D01*
X6533896Y-15825212D01*
X6528334Y-15801401D01*
X6527166Y-15795465D01*
X6526845Y-15793749D01*
X6526551Y-15792039D01*
X6526282Y-15790223D01*
X6526037Y-15788188D01*
X6525814Y-15785822D01*
X6525613Y-15783011D01*
X6525431Y-15779643D01*
X6525268Y-15775606D01*
X6525121Y-15770786D01*
X6524991Y-15765071D01*
X6524875Y-15758348D01*
X6524771Y-15750504D01*
X6524679Y-15741427D01*
X6524598Y-15731004D01*
X6524525Y-15719123D01*
X6524459Y-15705669D01*
X6524400Y-15690532D01*
X6524345Y-15673598D01*
X6524293Y-15654754D01*
X6524244Y-15633888D01*
X6524194Y-15610886D01*
X6524145Y-15585637D01*
X6524092Y-15558028D01*
X6524060Y-15540512D01*
X6524006Y-15511463D01*
X6523955Y-15484846D01*
X6523906Y-15460557D01*
X6523858Y-15438488D01*
X6523809Y-15418534D01*
X6523757Y-15400587D01*
X6523703Y-15384542D01*
X6523643Y-15370292D01*
X6523578Y-15357730D01*
X6523505Y-15346750D01*
X6523424Y-15337246D01*
X6523333Y-15329110D01*
X6523231Y-15322238D01*
X6523116Y-15316521D01*
X6522988Y-15311854D01*
X6522845Y-15308131D01*
X6522685Y-15305245D01*
X6522507Y-15303089D01*
X6522310Y-15301557D01*
X6522094Y-15300542D01*
X6521855Y-15299939D01*
X6521594Y-15299640D01*
X6521308Y-15299539D01*
X6521112Y-15299530D01*
X6520934Y-15299512D01*
X6520765Y-15299416D01*
X6520604Y-15299181D01*
X6520452Y-15298745D01*
X6520307Y-15298046D01*
X6520170Y-15297024D01*
X6520041Y-15295615D01*
X6519919Y-15293759D01*
X6519804Y-15291393D01*
X6519696Y-15288457D01*
X6519595Y-15284888D01*
X6519500Y-15280625D01*
X6519412Y-15275606D01*
X6519330Y-15269769D01*
X6519253Y-15263053D01*
X6519182Y-15255397D01*
X6519117Y-15246738D01*
X6519056Y-15237014D01*
X6519001Y-15226165D01*
X6518951Y-15214128D01*
X6518905Y-15200842D01*
X6518863Y-15186245D01*
X6518825Y-15170276D01*
X6518792Y-15152873D01*
X6518762Y-15133973D01*
X6518735Y-15113516D01*
X6518712Y-15091440D01*
X6518692Y-15067683D01*
X6518675Y-15042184D01*
X6518660Y-15014880D01*
X6518648Y-14985711D01*
X6518638Y-14954614D01*
X6518630Y-14921528D01*
X6518623Y-14886391D01*
X6518618Y-14849141D01*
X6518615Y-14809718D01*
X6518613Y-14768058D01*
X6518611Y-14724102D01*
X6518610Y-14677786D01*
X6518610Y-14629049D01*
X6518610Y-14530294D01*
X6518610Y-14481722D01*
X6518611Y-14435566D01*
X6518613Y-14391765D01*
X6518615Y-14350258D01*
X6518619Y-14310982D01*
X6518624Y-14273876D01*
X6518630Y-14238879D01*
X6518638Y-14205928D01*
X6518648Y-14174963D01*
X6518661Y-14145920D01*
X6518676Y-14118740D01*
X6518693Y-14093359D01*
X6518714Y-14069717D01*
X6518737Y-14047752D01*
X6518764Y-14027401D01*
X6518794Y-14008604D01*
X6518828Y-13991299D01*
X6518865Y-13975423D01*
X6518907Y-13960916D01*
X6518954Y-13947716D01*
X6519004Y-13935761D01*
X6519060Y-13924989D01*
X6519121Y-13915339D01*
X6519187Y-13906749D01*
X6519258Y-13899158D01*
X6519335Y-13892503D01*
X6519418Y-13886723D01*
X6519506Y-13881757D01*
X6519602Y-13877542D01*
X6519703Y-13874017D01*
X6519812Y-13871121D01*
X6519927Y-13868792D01*
X6520049Y-13866968D01*
X6520179Y-13865587D01*
X6520316Y-13864588D01*
X6520462Y-13863908D01*
X6520615Y-13863488D01*
X6520776Y-13863264D01*
X6520946Y-13863175D01*
X6521113Y-13863160D01*
X9819340Y-13863160D01*
X9819340Y-15288100D01*
X19120820Y-15288100D01*
X19120820Y-14073980D01*
X21814490Y-14073980D01*
X21814490Y-15049340D01*
X22427900Y-15049340D01*
X22427900Y-14073980D01*
X21814490Y-14073980D01*
X19120820Y-14073980D01*
X19120820Y-13863160D01*
X9819340Y-13863160D01*
X6521113Y-13863160D01*
X6521411Y-13863131D01*
X6521684Y-13862974D01*
X6521935Y-13862584D01*
X6522163Y-13861856D01*
X6522371Y-13860686D01*
X6522559Y-13858967D01*
X6522730Y-13856596D01*
X6522884Y-13853468D01*
X6523022Y-13849477D01*
X6523145Y-13844518D01*
X6523256Y-13838487D01*
X6523355Y-13831279D01*
X6523443Y-13822788D01*
X6523522Y-13812911D01*
X6523593Y-13801541D01*
X6523657Y-13788574D01*
X6523715Y-13773905D01*
X6523769Y-13757429D01*
X6523820Y-13739041D01*
X6523870Y-13718636D01*
X6523918Y-13696110D01*
X6523968Y-13671356D01*
X6524019Y-13644272D01*
X6524073Y-13615192D01*
X6524128Y-13585686D01*
X6524180Y-13558608D01*
X6524230Y-13533847D01*
X6524280Y-13511293D01*
X6524331Y-13490834D01*
X6524384Y-13472358D01*
X6524441Y-13455755D01*
X6524503Y-13440913D01*
X6524571Y-13427721D01*
X6524646Y-13416068D01*
X6524731Y-13405842D01*
X6524825Y-13396933D01*
X6524931Y-13389228D01*
X6525049Y-13382617D01*
X6525182Y-13376989D01*
X6525330Y-13372231D01*
X6525494Y-13368234D01*
X6525677Y-13364885D01*
X6525878Y-13362074D01*
X6526100Y-13359689D01*
X6526344Y-13357619D01*
X6526611Y-13355752D01*
X6526902Y-13353978D01*
X6527142Y-13352620D01*
X6533271Y-13324883D01*
X6541486Y-13298582D01*
X6551806Y-13273680D01*
X6564248Y-13250141D01*
X6578828Y-13227927D01*
X6595563Y-13207004D01*
X6595912Y-13206607D01*
X6614670Y-13187176D01*
X6634811Y-13169863D01*
X6656291Y-13154698D01*
X6679065Y-13141707D01*
X6703089Y-13130919D01*
X6728317Y-13122362D01*
X6731970Y-13121336D01*
X6745305Y-13117685D01*
X14476200Y-13117677D01*
X22207095Y-13117670D01*
X22219390Y-13120788D01*
X22219390Y-13120788D01*
G37*
X22219390Y-13120788D02*
X22242744Y-13127988D01*
X22265624Y-13137547D01*
X22287784Y-13149298D01*
X22308980Y-13163069D01*
X22328966Y-13178693D01*
X22347495Y-13195999D01*
X22364324Y-13214818D01*
X22374065Y-13227546D01*
X22388144Y-13248934D01*
X22400085Y-13270979D01*
X22410019Y-13293993D01*
X22418075Y-13318288D01*
X22424384Y-13344175D01*
X22425781Y-13351350D01*
X22428485Y-13365955D01*
X22428895Y-14566105D01*
X22428917Y-14632701D01*
X22428938Y-14696805D01*
X22428958Y-14758465D01*
X22428977Y-14817729D01*
X22428994Y-14874646D01*
X22429009Y-14929262D01*
X22429023Y-14981627D01*
X22429035Y-15031788D01*
X22429045Y-15079793D01*
X22429053Y-15125690D01*
X22429060Y-15169528D01*
X22429064Y-15211354D01*
X22429066Y-15251217D01*
X22429067Y-15289164D01*
X22429065Y-15325243D01*
X22429061Y-15359503D01*
X22429054Y-15391992D01*
X22429045Y-15422757D01*
X22429034Y-15451846D01*
X22429020Y-15479308D01*
X22429004Y-15505191D01*
X22428985Y-15529543D01*
X22428963Y-15552411D01*
X22428938Y-15573844D01*
X22428911Y-15593890D01*
X22428881Y-15612597D01*
X22428847Y-15630012D01*
X22428811Y-15646185D01*
X22428771Y-15661162D01*
X22428728Y-15674992D01*
X22428682Y-15687723D01*
X22428633Y-15699404D01*
X22428580Y-15710081D01*
X22428524Y-15719803D01*
X22428464Y-15728619D01*
X22428401Y-15736576D01*
X22428334Y-15743721D01*
X22428263Y-15750104D01*
X22428188Y-15755773D01*
X22428110Y-15760774D01*
X22428027Y-15765157D01*
X22427941Y-15768969D01*
X22427850Y-15772259D01*
X22427756Y-15775074D01*
X22427657Y-15777462D01*
X22427554Y-15779472D01*
X22427446Y-15781152D01*
X22427334Y-15782549D01*
X22427218Y-15783711D01*
X22427180Y-15784035D01*
X22422706Y-15811037D01*
X22415864Y-15837207D01*
X22406709Y-15862433D01*
X22395298Y-15886601D01*
X22381687Y-15909600D01*
X22365933Y-15931318D01*
X22348091Y-15951643D01*
X22338225Y-15961418D01*
X22318379Y-15978488D01*
X22297143Y-15993469D01*
X22274467Y-16006388D01*
X22250304Y-16017273D01*
X22224604Y-16026150D01*
X22217080Y-16028292D01*
X22199935Y-16032955D01*
X14480240Y-16033158D01*
X14306064Y-16033163D01*
X14134411Y-16033167D01*
X13965263Y-16033171D01*
X13798604Y-16033175D01*
X13634417Y-16033178D01*
X13472684Y-16033182D01*
X13313389Y-16033185D01*
X13156513Y-16033188D01*
X13002041Y-16033191D01*
X12849955Y-16033193D01*
X12700237Y-16033195D01*
X12552871Y-16033197D01*
X12407840Y-16033199D01*
X12265127Y-16033200D01*
X12124713Y-16033202D01*
X11986584Y-16033202D01*
X11850720Y-16033203D01*
X11717105Y-16033204D01*
X11585722Y-16033204D01*
X11456554Y-16033203D01*
X11329584Y-16033203D01*
X11204794Y-16033202D01*
X11082168Y-16033201D01*
X10961688Y-16033200D01*
X10843337Y-16033198D01*
X10727099Y-16033197D01*
X10612955Y-16033194D01*
X10500889Y-16033192D01*
X10390885Y-16033189D01*
X10282923Y-16033186D01*
X10176989Y-16033183D01*
X10073063Y-16033179D01*
X9971130Y-16033175D01*
X9871173Y-16033171D01*
X9773173Y-16033166D01*
X9677114Y-16033161D01*
X9582979Y-16033156D01*
X9490751Y-16033150D01*
X9400413Y-16033144D01*
X9311947Y-16033137D01*
X9225336Y-16033131D01*
X9140564Y-16033124D01*
X9057613Y-16033116D01*
X8976465Y-16033109D01*
X8897105Y-16033101D01*
X8819515Y-16033092D01*
X8743677Y-16033083D01*
X8669575Y-16033074D01*
X8597191Y-16033065D01*
X8526509Y-16033055D01*
X8457511Y-16033044D01*
X8390180Y-16033034D01*
X8324499Y-16033023D01*
X8260451Y-16033011D01*
X8198019Y-16032999D01*
X8137185Y-16032987D01*
X8077933Y-16032974D01*
X8020246Y-16032961D01*
X7964105Y-16032948D01*
X7909495Y-16032934D01*
X7856398Y-16032920D01*
X7804797Y-16032905D01*
X7754675Y-16032890D01*
X7706015Y-16032875D01*
X7658799Y-16032859D01*
X7613011Y-16032842D01*
X7568633Y-16032826D01*
X7525648Y-16032809D01*
X7484040Y-16032791D01*
X7443790Y-16032773D01*
X7404883Y-16032754D01*
X7367300Y-16032735D01*
X7331025Y-16032716D01*
X7296041Y-16032696D01*
X7262330Y-16032676D01*
X7229875Y-16032655D01*
X7198660Y-16032634D01*
X7168667Y-16032612D01*
X7139879Y-16032590D01*
X7112278Y-16032567D01*
X7085849Y-16032544D01*
X7060573Y-16032521D01*
X7036434Y-16032497D01*
X7013414Y-16032472D01*
X6991497Y-16032447D01*
X6970664Y-16032422D01*
X6950900Y-16032396D01*
X6932187Y-16032369D01*
X6914508Y-16032342D01*
X6897845Y-16032315D01*
X6882182Y-16032287D01*
X6867501Y-16032258D01*
X6853786Y-16032229D01*
X6841020Y-16032200D01*
X6829184Y-16032170D01*
X6818262Y-16032139D01*
X6808238Y-16032108D01*
X6799093Y-16032076D01*
X6790811Y-16032044D01*
X6783374Y-16032011D01*
X6776766Y-16031978D01*
X6770970Y-16031944D01*
X6765967Y-16031910D01*
X6761742Y-16031875D01*
X6758277Y-16031840D01*
X6755554Y-16031804D01*
X6753558Y-16031767D01*
X6752270Y-16031730D01*
X6751673Y-16031692D01*
X6751655Y-16031689D01*
X6727988Y-16026004D01*
X6704442Y-16017930D01*
X6681335Y-16007610D01*
X6658982Y-15995187D01*
X6637701Y-15980805D01*
X6635450Y-15979118D01*
X6628386Y-15973360D01*
X6620294Y-15966089D01*
X6611679Y-15957818D01*
X6603045Y-15949059D01*
X6594899Y-15940324D01*
X6587745Y-15932126D01*
X6582251Y-15925195D01*
X6569233Y-15906311D01*
X6558071Y-15887300D01*
X6548583Y-15867732D01*
X6540585Y-15847180D01*
X6533896Y-15825212D01*
X6528334Y-15801401D01*
X6527166Y-15795465D01*
X6526845Y-15793749D01*
X6526551Y-15792039D01*
X6526282Y-15790223D01*
X6526037Y-15788188D01*
X6525814Y-15785822D01*
X6525613Y-15783011D01*
X6525431Y-15779643D01*
X6525268Y-15775606D01*
X6525121Y-15770786D01*
X6524991Y-15765071D01*
X6524875Y-15758348D01*
X6524771Y-15750504D01*
X6524679Y-15741427D01*
X6524598Y-15731004D01*
X6524525Y-15719123D01*
X6524459Y-15705669D01*
X6524400Y-15690532D01*
X6524345Y-15673598D01*
X6524293Y-15654754D01*
X6524244Y-15633888D01*
X6524194Y-15610886D01*
X6524145Y-15585637D01*
X6524092Y-15558028D01*
X6524060Y-15540512D01*
X6524006Y-15511463D01*
X6523955Y-15484846D01*
X6523906Y-15460557D01*
X6523858Y-15438488D01*
X6523809Y-15418534D01*
X6523757Y-15400587D01*
X6523703Y-15384542D01*
X6523643Y-15370292D01*
X6523578Y-15357730D01*
X6523505Y-15346750D01*
X6523424Y-15337246D01*
X6523333Y-15329110D01*
X6523231Y-15322238D01*
X6523116Y-15316521D01*
X6522988Y-15311854D01*
X6522845Y-15308131D01*
X6522685Y-15305245D01*
X6522507Y-15303089D01*
X6522310Y-15301557D01*
X6522094Y-15300542D01*
X6521855Y-15299939D01*
X6521594Y-15299640D01*
X6521308Y-15299539D01*
X6521112Y-15299530D01*
X6520934Y-15299512D01*
X6520765Y-15299416D01*
X6520604Y-15299181D01*
X6520452Y-15298745D01*
X6520307Y-15298046D01*
X6520170Y-15297024D01*
X6520041Y-15295615D01*
X6519919Y-15293759D01*
X6519804Y-15291393D01*
X6519696Y-15288457D01*
X6519595Y-15284888D01*
X6519500Y-15280625D01*
X6519412Y-15275606D01*
X6519330Y-15269769D01*
X6519253Y-15263053D01*
X6519182Y-15255397D01*
X6519117Y-15246738D01*
X6519056Y-15237014D01*
X6519001Y-15226165D01*
X6518951Y-15214128D01*
X6518905Y-15200842D01*
X6518863Y-15186245D01*
X6518825Y-15170276D01*
X6518792Y-15152873D01*
X6518762Y-15133973D01*
X6518735Y-15113516D01*
X6518712Y-15091440D01*
X6518692Y-15067683D01*
X6518675Y-15042184D01*
X6518660Y-15014880D01*
X6518648Y-14985711D01*
X6518638Y-14954614D01*
X6518630Y-14921528D01*
X6518623Y-14886391D01*
X6518618Y-14849141D01*
X6518615Y-14809718D01*
X6518613Y-14768058D01*
X6518611Y-14724102D01*
X6518610Y-14677786D01*
X6518610Y-14629049D01*
X6518610Y-14530294D01*
X6518610Y-14481722D01*
X6518611Y-14435566D01*
X6518613Y-14391765D01*
X6518615Y-14350258D01*
X6518619Y-14310982D01*
X6518624Y-14273876D01*
X6518630Y-14238879D01*
X6518638Y-14205928D01*
X6518648Y-14174963D01*
X6518661Y-14145920D01*
X6518676Y-14118740D01*
X6518693Y-14093359D01*
X6518714Y-14069717D01*
X6518737Y-14047752D01*
X6518764Y-14027401D01*
X6518794Y-14008604D01*
X6518828Y-13991299D01*
X6518865Y-13975423D01*
X6518907Y-13960916D01*
X6518954Y-13947716D01*
X6519004Y-13935761D01*
X6519060Y-13924989D01*
X6519121Y-13915339D01*
X6519187Y-13906749D01*
X6519258Y-13899158D01*
X6519335Y-13892503D01*
X6519418Y-13886723D01*
X6519506Y-13881757D01*
X6519602Y-13877542D01*
X6519703Y-13874017D01*
X6519812Y-13871121D01*
X6519927Y-13868792D01*
X6520049Y-13866968D01*
X6520179Y-13865587D01*
X6520316Y-13864588D01*
X6520462Y-13863908D01*
X6520615Y-13863488D01*
X6520776Y-13863264D01*
X6520946Y-13863175D01*
X6521113Y-13863160D01*
X9819340Y-13863160D01*
X9819340Y-15288100D01*
X19120820Y-15288100D01*
X19120820Y-14073980D01*
X21814490Y-14073980D01*
X21814490Y-15049340D01*
X22427900Y-15049340D01*
X22427900Y-14073980D01*
X21814490Y-14073980D01*
X19120820Y-14073980D01*
X19120820Y-13863160D01*
X9819340Y-13863160D01*
X6521113Y-13863160D01*
X6521411Y-13863131D01*
X6521684Y-13862974D01*
X6521935Y-13862584D01*
X6522163Y-13861856D01*
X6522371Y-13860686D01*
X6522559Y-13858967D01*
X6522730Y-13856596D01*
X6522884Y-13853468D01*
X6523022Y-13849477D01*
X6523145Y-13844518D01*
X6523256Y-13838487D01*
X6523355Y-13831279D01*
X6523443Y-13822788D01*
X6523522Y-13812911D01*
X6523593Y-13801541D01*
X6523657Y-13788574D01*
X6523715Y-13773905D01*
X6523769Y-13757429D01*
X6523820Y-13739041D01*
X6523870Y-13718636D01*
X6523918Y-13696110D01*
X6523968Y-13671356D01*
X6524019Y-13644272D01*
X6524073Y-13615192D01*
X6524128Y-13585686D01*
X6524180Y-13558608D01*
X6524230Y-13533847D01*
X6524280Y-13511293D01*
X6524331Y-13490834D01*
X6524384Y-13472358D01*
X6524441Y-13455755D01*
X6524503Y-13440913D01*
X6524571Y-13427721D01*
X6524646Y-13416068D01*
X6524731Y-13405842D01*
X6524825Y-13396933D01*
X6524931Y-13389228D01*
X6525049Y-13382617D01*
X6525182Y-13376989D01*
X6525330Y-13372231D01*
X6525494Y-13368234D01*
X6525677Y-13364885D01*
X6525878Y-13362074D01*
X6526100Y-13359689D01*
X6526344Y-13357619D01*
X6526611Y-13355752D01*
X6526902Y-13353978D01*
X6527142Y-13352620D01*
X6533271Y-13324883D01*
X6541486Y-13298582D01*
X6551806Y-13273680D01*
X6564248Y-13250141D01*
X6578828Y-13227927D01*
X6595563Y-13207004D01*
X6595912Y-13206607D01*
X6614670Y-13187176D01*
X6634811Y-13169863D01*
X6656291Y-13154698D01*
X6679065Y-13141707D01*
X6703089Y-13130919D01*
X6728317Y-13122362D01*
X6731970Y-13121336D01*
X6745305Y-13117685D01*
X14476200Y-13117677D01*
X22207095Y-13117670D01*
X22219390Y-13120788D01*
D11*
G04 #@! TO.C,LED1*
G36*
X10223084Y-14345000D02*
X10255084Y-14345000D01*
X10255084Y-14845000D01*
X10223084Y-14845000D01*
X10223084Y-14345000D01*
G37*
X10223084Y-14345000D02*
X10255084Y-14345000D01*
X10255084Y-14845000D01*
X10223084Y-14845000D01*
X10223084Y-14345000D01*
G36*
X10483084Y-14725000D02*
X10483084Y-14345000D01*
X10253084Y-14345000D01*
X10253084Y-14845000D01*
X10483084Y-14845000D01*
X10483084Y-14725000D01*
G37*
X10483084Y-14725000D02*
X10483084Y-14345000D01*
X10253084Y-14345000D01*
X10253084Y-14845000D01*
X10483084Y-14845000D01*
X10483084Y-14725000D01*
G36*
X10223084Y-14845000D02*
X9883084Y-14595000D01*
X10223084Y-14345000D01*
X10223084Y-14845000D01*
G37*
X10223084Y-14845000D02*
X9883084Y-14595000D01*
X10223084Y-14345000D01*
X10223084Y-14845000D01*
D10*
G04 #@! TO.C,DRAWING1*
G36*
X22219390Y-9175788D02*
X22242744Y-9182988D01*
X22265624Y-9192547D01*
X22287784Y-9204298D01*
X22308980Y-9218069D01*
X22328966Y-9233693D01*
X22347495Y-9250999D01*
X22364324Y-9269818D01*
X22374065Y-9282546D01*
X22388144Y-9303934D01*
X22400085Y-9325979D01*
X22410019Y-9348993D01*
X22418075Y-9373288D01*
X22424384Y-9399176D01*
X22425781Y-9406350D01*
X22428485Y-9420955D01*
X22428895Y-10621105D01*
X22428917Y-10687701D01*
X22428938Y-10751805D01*
X22428958Y-10813465D01*
X22428977Y-10872729D01*
X22428994Y-10929646D01*
X22429009Y-10984262D01*
X22429023Y-11036627D01*
X22429035Y-11086788D01*
X22429045Y-11134793D01*
X22429053Y-11180690D01*
X22429060Y-11224528D01*
X22429064Y-11266354D01*
X22429066Y-11306217D01*
X22429067Y-11344164D01*
X22429065Y-11380243D01*
X22429061Y-11414503D01*
X22429054Y-11446992D01*
X22429045Y-11477757D01*
X22429034Y-11506846D01*
X22429020Y-11534308D01*
X22429004Y-11560191D01*
X22428985Y-11584543D01*
X22428963Y-11607411D01*
X22428938Y-11628844D01*
X22428911Y-11648890D01*
X22428881Y-11667597D01*
X22428847Y-11685012D01*
X22428811Y-11701185D01*
X22428771Y-11716162D01*
X22428728Y-11729992D01*
X22428682Y-11742723D01*
X22428633Y-11754404D01*
X22428580Y-11765081D01*
X22428524Y-11774803D01*
X22428464Y-11783619D01*
X22428401Y-11791576D01*
X22428334Y-11798721D01*
X22428263Y-11805104D01*
X22428188Y-11810773D01*
X22428110Y-11815774D01*
X22428027Y-11820157D01*
X22427941Y-11823969D01*
X22427850Y-11827259D01*
X22427756Y-11830074D01*
X22427657Y-11832462D01*
X22427554Y-11834472D01*
X22427446Y-11836152D01*
X22427334Y-11837549D01*
X22427218Y-11838711D01*
X22427180Y-11839035D01*
X22422706Y-11866037D01*
X22415864Y-11892207D01*
X22406709Y-11917433D01*
X22395298Y-11941601D01*
X22381687Y-11964600D01*
X22365933Y-11986318D01*
X22348091Y-12006643D01*
X22338225Y-12016418D01*
X22318379Y-12033488D01*
X22297143Y-12048469D01*
X22274467Y-12061388D01*
X22250304Y-12072273D01*
X22224604Y-12081150D01*
X22217080Y-12083292D01*
X22199935Y-12087955D01*
X14480240Y-12088158D01*
X14306064Y-12088163D01*
X14134411Y-12088167D01*
X13965263Y-12088171D01*
X13798604Y-12088175D01*
X13634417Y-12088178D01*
X13472684Y-12088182D01*
X13313389Y-12088185D01*
X13156513Y-12088188D01*
X13002041Y-12088191D01*
X12849955Y-12088193D01*
X12700237Y-12088195D01*
X12552871Y-12088197D01*
X12407840Y-12088199D01*
X12265127Y-12088200D01*
X12124713Y-12088202D01*
X11986584Y-12088202D01*
X11850720Y-12088203D01*
X11717105Y-12088204D01*
X11585722Y-12088204D01*
X11456554Y-12088203D01*
X11329584Y-12088203D01*
X11204794Y-12088202D01*
X11082168Y-12088201D01*
X10961688Y-12088200D01*
X10843337Y-12088198D01*
X10727099Y-12088197D01*
X10612955Y-12088194D01*
X10500889Y-12088192D01*
X10390885Y-12088189D01*
X10282923Y-12088186D01*
X10176989Y-12088183D01*
X10073063Y-12088179D01*
X9971130Y-12088175D01*
X9871173Y-12088171D01*
X9773173Y-12088166D01*
X9677114Y-12088161D01*
X9582979Y-12088156D01*
X9490751Y-12088150D01*
X9400413Y-12088144D01*
X9311947Y-12088137D01*
X9225336Y-12088131D01*
X9140564Y-12088124D01*
X9057613Y-12088116D01*
X8976465Y-12088109D01*
X8897105Y-12088101D01*
X8819515Y-12088092D01*
X8743677Y-12088083D01*
X8669575Y-12088074D01*
X8597191Y-12088065D01*
X8526509Y-12088055D01*
X8457511Y-12088044D01*
X8390180Y-12088034D01*
X8324499Y-12088023D01*
X8260451Y-12088011D01*
X8198019Y-12087999D01*
X8137185Y-12087987D01*
X8077933Y-12087974D01*
X8020246Y-12087961D01*
X7964105Y-12087948D01*
X7909495Y-12087934D01*
X7856398Y-12087920D01*
X7804797Y-12087905D01*
X7754675Y-12087890D01*
X7706015Y-12087875D01*
X7658799Y-12087859D01*
X7613011Y-12087842D01*
X7568633Y-12087826D01*
X7525648Y-12087809D01*
X7484040Y-12087791D01*
X7443790Y-12087773D01*
X7404883Y-12087754D01*
X7367300Y-12087735D01*
X7331025Y-12087716D01*
X7296041Y-12087696D01*
X7262330Y-12087676D01*
X7229875Y-12087655D01*
X7198660Y-12087634D01*
X7168667Y-12087612D01*
X7139879Y-12087590D01*
X7112278Y-12087567D01*
X7085849Y-12087544D01*
X7060573Y-12087521D01*
X7036434Y-12087497D01*
X7013414Y-12087472D01*
X6991497Y-12087447D01*
X6970664Y-12087422D01*
X6950900Y-12087396D01*
X6932187Y-12087369D01*
X6914508Y-12087342D01*
X6897845Y-12087315D01*
X6882182Y-12087287D01*
X6867501Y-12087258D01*
X6853786Y-12087229D01*
X6841020Y-12087200D01*
X6829184Y-12087170D01*
X6818262Y-12087139D01*
X6808238Y-12087108D01*
X6799093Y-12087076D01*
X6790811Y-12087044D01*
X6783374Y-12087011D01*
X6776766Y-12086978D01*
X6770970Y-12086944D01*
X6765967Y-12086910D01*
X6761742Y-12086875D01*
X6758277Y-12086840D01*
X6755554Y-12086804D01*
X6753558Y-12086767D01*
X6752270Y-12086730D01*
X6751673Y-12086692D01*
X6751655Y-12086689D01*
X6727988Y-12081004D01*
X6704442Y-12072930D01*
X6681335Y-12062610D01*
X6658982Y-12050187D01*
X6637701Y-12035805D01*
X6635450Y-12034118D01*
X6628386Y-12028360D01*
X6620294Y-12021089D01*
X6611679Y-12012818D01*
X6603045Y-12004059D01*
X6594899Y-11995324D01*
X6587745Y-11987126D01*
X6582251Y-11980195D01*
X6569233Y-11961311D01*
X6558071Y-11942300D01*
X6548583Y-11922732D01*
X6540585Y-11902180D01*
X6533896Y-11880212D01*
X6528334Y-11856401D01*
X6527166Y-11850465D01*
X6526845Y-11848749D01*
X6526551Y-11847039D01*
X6526282Y-11845223D01*
X6526037Y-11843188D01*
X6525814Y-11840822D01*
X6525613Y-11838011D01*
X6525431Y-11834643D01*
X6525268Y-11830606D01*
X6525121Y-11825786D01*
X6524991Y-11820071D01*
X6524875Y-11813348D01*
X6524771Y-11805504D01*
X6524679Y-11796427D01*
X6524598Y-11786004D01*
X6524525Y-11774123D01*
X6524459Y-11760669D01*
X6524400Y-11745532D01*
X6524345Y-11728598D01*
X6524293Y-11709754D01*
X6524244Y-11688888D01*
X6524194Y-11665886D01*
X6524145Y-11640637D01*
X6524092Y-11613028D01*
X6524060Y-11595512D01*
X6524006Y-11566463D01*
X6523955Y-11539846D01*
X6523906Y-11515557D01*
X6523858Y-11493488D01*
X6523809Y-11473534D01*
X6523757Y-11455587D01*
X6523703Y-11439542D01*
X6523643Y-11425292D01*
X6523578Y-11412730D01*
X6523505Y-11401750D01*
X6523424Y-11392246D01*
X6523333Y-11384110D01*
X6523231Y-11377238D01*
X6523116Y-11371521D01*
X6522988Y-11366854D01*
X6522845Y-11363131D01*
X6522685Y-11360245D01*
X6522507Y-11358089D01*
X6522310Y-11356557D01*
X6522094Y-11355542D01*
X6521855Y-11354939D01*
X6521594Y-11354640D01*
X6521308Y-11354539D01*
X6521112Y-11354530D01*
X6520934Y-11354512D01*
X6520765Y-11354416D01*
X6520604Y-11354181D01*
X6520452Y-11353745D01*
X6520307Y-11353046D01*
X6520170Y-11352024D01*
X6520041Y-11350615D01*
X6519919Y-11348759D01*
X6519804Y-11346393D01*
X6519696Y-11343457D01*
X6519595Y-11339888D01*
X6519500Y-11335625D01*
X6519412Y-11330606D01*
X6519330Y-11324769D01*
X6519253Y-11318053D01*
X6519182Y-11310397D01*
X6519117Y-11301738D01*
X6519056Y-11292014D01*
X6519001Y-11281165D01*
X6518951Y-11269128D01*
X6518905Y-11255842D01*
X6518863Y-11241245D01*
X6518825Y-11225276D01*
X6518792Y-11207873D01*
X6518762Y-11188973D01*
X6518735Y-11168516D01*
X6518712Y-11146440D01*
X6518692Y-11122683D01*
X6518675Y-11097184D01*
X6518660Y-11069880D01*
X6518648Y-11040711D01*
X6518638Y-11009614D01*
X6518630Y-10976528D01*
X6518623Y-10941391D01*
X6518618Y-10904142D01*
X6518615Y-10864718D01*
X6518613Y-10823059D01*
X6518611Y-10779102D01*
X6518610Y-10732786D01*
X6518610Y-10684049D01*
X6518610Y-10585294D01*
X6518610Y-10536722D01*
X6518611Y-10490566D01*
X6518613Y-10446765D01*
X6518615Y-10405258D01*
X6518619Y-10365982D01*
X6518624Y-10328877D01*
X6518630Y-10293879D01*
X6518638Y-10260928D01*
X6518648Y-10229963D01*
X6518661Y-10200921D01*
X6518676Y-10173740D01*
X6518693Y-10148359D01*
X6518714Y-10124717D01*
X6518737Y-10102752D01*
X6518764Y-10082401D01*
X6518794Y-10063604D01*
X6518828Y-10046299D01*
X6518865Y-10030424D01*
X6518907Y-10015917D01*
X6518954Y-10002716D01*
X6519004Y-9990761D01*
X6519060Y-9979989D01*
X6519121Y-9970339D01*
X6519187Y-9961749D01*
X6519258Y-9954158D01*
X6519335Y-9947503D01*
X6519418Y-9941723D01*
X6519506Y-9936757D01*
X6519602Y-9932542D01*
X6519703Y-9929018D01*
X6519812Y-9926121D01*
X6519927Y-9923792D01*
X6520049Y-9921968D01*
X6520179Y-9920587D01*
X6520316Y-9919588D01*
X6520462Y-9918909D01*
X6520615Y-9918488D01*
X6520776Y-9918264D01*
X6520946Y-9918175D01*
X6521113Y-9918160D01*
X9819340Y-9918160D01*
X9819340Y-11343100D01*
X19120820Y-11343100D01*
X19120820Y-10128980D01*
X21814490Y-10128980D01*
X21814490Y-11104340D01*
X22427900Y-11104340D01*
X22427900Y-10128980D01*
X21814490Y-10128980D01*
X19120820Y-10128980D01*
X19120820Y-9918160D01*
X9819340Y-9918160D01*
X6521113Y-9918160D01*
X6521411Y-9918131D01*
X6521684Y-9917974D01*
X6521935Y-9917584D01*
X6522163Y-9916856D01*
X6522371Y-9915686D01*
X6522559Y-9913967D01*
X6522730Y-9911596D01*
X6522884Y-9908468D01*
X6523022Y-9904477D01*
X6523145Y-9899518D01*
X6523256Y-9893487D01*
X6523355Y-9886279D01*
X6523443Y-9877788D01*
X6523522Y-9867911D01*
X6523593Y-9856541D01*
X6523657Y-9843574D01*
X6523715Y-9828905D01*
X6523769Y-9812429D01*
X6523820Y-9794041D01*
X6523870Y-9773636D01*
X6523918Y-9751110D01*
X6523968Y-9726356D01*
X6524019Y-9699272D01*
X6524073Y-9670193D01*
X6524128Y-9640686D01*
X6524180Y-9613608D01*
X6524230Y-9588847D01*
X6524280Y-9566293D01*
X6524331Y-9545834D01*
X6524384Y-9527358D01*
X6524441Y-9510755D01*
X6524503Y-9495913D01*
X6524571Y-9482721D01*
X6524646Y-9471068D01*
X6524731Y-9460842D01*
X6524825Y-9451933D01*
X6524931Y-9444228D01*
X6525049Y-9437617D01*
X6525182Y-9431989D01*
X6525330Y-9427231D01*
X6525494Y-9423234D01*
X6525677Y-9419885D01*
X6525878Y-9417074D01*
X6526100Y-9414689D01*
X6526344Y-9412619D01*
X6526611Y-9410752D01*
X6526902Y-9408978D01*
X6527142Y-9407620D01*
X6533271Y-9379883D01*
X6541486Y-9353582D01*
X6551806Y-9328680D01*
X6564248Y-9305141D01*
X6578828Y-9282928D01*
X6595563Y-9262004D01*
X6595912Y-9261607D01*
X6614670Y-9242176D01*
X6634811Y-9224863D01*
X6656291Y-9209698D01*
X6679065Y-9196707D01*
X6703089Y-9185919D01*
X6728317Y-9177362D01*
X6731970Y-9176336D01*
X6745305Y-9172685D01*
X14476200Y-9172677D01*
X22207095Y-9172670D01*
X22219390Y-9175788D01*
X22219390Y-9175788D01*
G37*
X22219390Y-9175788D02*
X22242744Y-9182988D01*
X22265624Y-9192547D01*
X22287784Y-9204298D01*
X22308980Y-9218069D01*
X22328966Y-9233693D01*
X22347495Y-9250999D01*
X22364324Y-9269818D01*
X22374065Y-9282546D01*
X22388144Y-9303934D01*
X22400085Y-9325979D01*
X22410019Y-9348993D01*
X22418075Y-9373288D01*
X22424384Y-9399176D01*
X22425781Y-9406350D01*
X22428485Y-9420955D01*
X22428895Y-10621105D01*
X22428917Y-10687701D01*
X22428938Y-10751805D01*
X22428958Y-10813465D01*
X22428977Y-10872729D01*
X22428994Y-10929646D01*
X22429009Y-10984262D01*
X22429023Y-11036627D01*
X22429035Y-11086788D01*
X22429045Y-11134793D01*
X22429053Y-11180690D01*
X22429060Y-11224528D01*
X22429064Y-11266354D01*
X22429066Y-11306217D01*
X22429067Y-11344164D01*
X22429065Y-11380243D01*
X22429061Y-11414503D01*
X22429054Y-11446992D01*
X22429045Y-11477757D01*
X22429034Y-11506846D01*
X22429020Y-11534308D01*
X22429004Y-11560191D01*
X22428985Y-11584543D01*
X22428963Y-11607411D01*
X22428938Y-11628844D01*
X22428911Y-11648890D01*
X22428881Y-11667597D01*
X22428847Y-11685012D01*
X22428811Y-11701185D01*
X22428771Y-11716162D01*
X22428728Y-11729992D01*
X22428682Y-11742723D01*
X22428633Y-11754404D01*
X22428580Y-11765081D01*
X22428524Y-11774803D01*
X22428464Y-11783619D01*
X22428401Y-11791576D01*
X22428334Y-11798721D01*
X22428263Y-11805104D01*
X22428188Y-11810773D01*
X22428110Y-11815774D01*
X22428027Y-11820157D01*
X22427941Y-11823969D01*
X22427850Y-11827259D01*
X22427756Y-11830074D01*
X22427657Y-11832462D01*
X22427554Y-11834472D01*
X22427446Y-11836152D01*
X22427334Y-11837549D01*
X22427218Y-11838711D01*
X22427180Y-11839035D01*
X22422706Y-11866037D01*
X22415864Y-11892207D01*
X22406709Y-11917433D01*
X22395298Y-11941601D01*
X22381687Y-11964600D01*
X22365933Y-11986318D01*
X22348091Y-12006643D01*
X22338225Y-12016418D01*
X22318379Y-12033488D01*
X22297143Y-12048469D01*
X22274467Y-12061388D01*
X22250304Y-12072273D01*
X22224604Y-12081150D01*
X22217080Y-12083292D01*
X22199935Y-12087955D01*
X14480240Y-12088158D01*
X14306064Y-12088163D01*
X14134411Y-12088167D01*
X13965263Y-12088171D01*
X13798604Y-12088175D01*
X13634417Y-12088178D01*
X13472684Y-12088182D01*
X13313389Y-12088185D01*
X13156513Y-12088188D01*
X13002041Y-12088191D01*
X12849955Y-12088193D01*
X12700237Y-12088195D01*
X12552871Y-12088197D01*
X12407840Y-12088199D01*
X12265127Y-12088200D01*
X12124713Y-12088202D01*
X11986584Y-12088202D01*
X11850720Y-12088203D01*
X11717105Y-12088204D01*
X11585722Y-12088204D01*
X11456554Y-12088203D01*
X11329584Y-12088203D01*
X11204794Y-12088202D01*
X11082168Y-12088201D01*
X10961688Y-12088200D01*
X10843337Y-12088198D01*
X10727099Y-12088197D01*
X10612955Y-12088194D01*
X10500889Y-12088192D01*
X10390885Y-12088189D01*
X10282923Y-12088186D01*
X10176989Y-12088183D01*
X10073063Y-12088179D01*
X9971130Y-12088175D01*
X9871173Y-12088171D01*
X9773173Y-12088166D01*
X9677114Y-12088161D01*
X9582979Y-12088156D01*
X9490751Y-12088150D01*
X9400413Y-12088144D01*
X9311947Y-12088137D01*
X9225336Y-12088131D01*
X9140564Y-12088124D01*
X9057613Y-12088116D01*
X8976465Y-12088109D01*
X8897105Y-12088101D01*
X8819515Y-12088092D01*
X8743677Y-12088083D01*
X8669575Y-12088074D01*
X8597191Y-12088065D01*
X8526509Y-12088055D01*
X8457511Y-12088044D01*
X8390180Y-12088034D01*
X8324499Y-12088023D01*
X8260451Y-12088011D01*
X8198019Y-12087999D01*
X8137185Y-12087987D01*
X8077933Y-12087974D01*
X8020246Y-12087961D01*
X7964105Y-12087948D01*
X7909495Y-12087934D01*
X7856398Y-12087920D01*
X7804797Y-12087905D01*
X7754675Y-12087890D01*
X7706015Y-12087875D01*
X7658799Y-12087859D01*
X7613011Y-12087842D01*
X7568633Y-12087826D01*
X7525648Y-12087809D01*
X7484040Y-12087791D01*
X7443790Y-12087773D01*
X7404883Y-12087754D01*
X7367300Y-12087735D01*
X7331025Y-12087716D01*
X7296041Y-12087696D01*
X7262330Y-12087676D01*
X7229875Y-12087655D01*
X7198660Y-12087634D01*
X7168667Y-12087612D01*
X7139879Y-12087590D01*
X7112278Y-12087567D01*
X7085849Y-12087544D01*
X7060573Y-12087521D01*
X7036434Y-12087497D01*
X7013414Y-12087472D01*
X6991497Y-12087447D01*
X6970664Y-12087422D01*
X6950900Y-12087396D01*
X6932187Y-12087369D01*
X6914508Y-12087342D01*
X6897845Y-12087315D01*
X6882182Y-12087287D01*
X6867501Y-12087258D01*
X6853786Y-12087229D01*
X6841020Y-12087200D01*
X6829184Y-12087170D01*
X6818262Y-12087139D01*
X6808238Y-12087108D01*
X6799093Y-12087076D01*
X6790811Y-12087044D01*
X6783374Y-12087011D01*
X6776766Y-12086978D01*
X6770970Y-12086944D01*
X6765967Y-12086910D01*
X6761742Y-12086875D01*
X6758277Y-12086840D01*
X6755554Y-12086804D01*
X6753558Y-12086767D01*
X6752270Y-12086730D01*
X6751673Y-12086692D01*
X6751655Y-12086689D01*
X6727988Y-12081004D01*
X6704442Y-12072930D01*
X6681335Y-12062610D01*
X6658982Y-12050187D01*
X6637701Y-12035805D01*
X6635450Y-12034118D01*
X6628386Y-12028360D01*
X6620294Y-12021089D01*
X6611679Y-12012818D01*
X6603045Y-12004059D01*
X6594899Y-11995324D01*
X6587745Y-11987126D01*
X6582251Y-11980195D01*
X6569233Y-11961311D01*
X6558071Y-11942300D01*
X6548583Y-11922732D01*
X6540585Y-11902180D01*
X6533896Y-11880212D01*
X6528334Y-11856401D01*
X6527166Y-11850465D01*
X6526845Y-11848749D01*
X6526551Y-11847039D01*
X6526282Y-11845223D01*
X6526037Y-11843188D01*
X6525814Y-11840822D01*
X6525613Y-11838011D01*
X6525431Y-11834643D01*
X6525268Y-11830606D01*
X6525121Y-11825786D01*
X6524991Y-11820071D01*
X6524875Y-11813348D01*
X6524771Y-11805504D01*
X6524679Y-11796427D01*
X6524598Y-11786004D01*
X6524525Y-11774123D01*
X6524459Y-11760669D01*
X6524400Y-11745532D01*
X6524345Y-11728598D01*
X6524293Y-11709754D01*
X6524244Y-11688888D01*
X6524194Y-11665886D01*
X6524145Y-11640637D01*
X6524092Y-11613028D01*
X6524060Y-11595512D01*
X6524006Y-11566463D01*
X6523955Y-11539846D01*
X6523906Y-11515557D01*
X6523858Y-11493488D01*
X6523809Y-11473534D01*
X6523757Y-11455587D01*
X6523703Y-11439542D01*
X6523643Y-11425292D01*
X6523578Y-11412730D01*
X6523505Y-11401750D01*
X6523424Y-11392246D01*
X6523333Y-11384110D01*
X6523231Y-11377238D01*
X6523116Y-11371521D01*
X6522988Y-11366854D01*
X6522845Y-11363131D01*
X6522685Y-11360245D01*
X6522507Y-11358089D01*
X6522310Y-11356557D01*
X6522094Y-11355542D01*
X6521855Y-11354939D01*
X6521594Y-11354640D01*
X6521308Y-11354539D01*
X6521112Y-11354530D01*
X6520934Y-11354512D01*
X6520765Y-11354416D01*
X6520604Y-11354181D01*
X6520452Y-11353745D01*
X6520307Y-11353046D01*
X6520170Y-11352024D01*
X6520041Y-11350615D01*
X6519919Y-11348759D01*
X6519804Y-11346393D01*
X6519696Y-11343457D01*
X6519595Y-11339888D01*
X6519500Y-11335625D01*
X6519412Y-11330606D01*
X6519330Y-11324769D01*
X6519253Y-11318053D01*
X6519182Y-11310397D01*
X6519117Y-11301738D01*
X6519056Y-11292014D01*
X6519001Y-11281165D01*
X6518951Y-11269128D01*
X6518905Y-11255842D01*
X6518863Y-11241245D01*
X6518825Y-11225276D01*
X6518792Y-11207873D01*
X6518762Y-11188973D01*
X6518735Y-11168516D01*
X6518712Y-11146440D01*
X6518692Y-11122683D01*
X6518675Y-11097184D01*
X6518660Y-11069880D01*
X6518648Y-11040711D01*
X6518638Y-11009614D01*
X6518630Y-10976528D01*
X6518623Y-10941391D01*
X6518618Y-10904142D01*
X6518615Y-10864718D01*
X6518613Y-10823059D01*
X6518611Y-10779102D01*
X6518610Y-10732786D01*
X6518610Y-10684049D01*
X6518610Y-10585294D01*
X6518610Y-10536722D01*
X6518611Y-10490566D01*
X6518613Y-10446765D01*
X6518615Y-10405258D01*
X6518619Y-10365982D01*
X6518624Y-10328877D01*
X6518630Y-10293879D01*
X6518638Y-10260928D01*
X6518648Y-10229963D01*
X6518661Y-10200921D01*
X6518676Y-10173740D01*
X6518693Y-10148359D01*
X6518714Y-10124717D01*
X6518737Y-10102752D01*
X6518764Y-10082401D01*
X6518794Y-10063604D01*
X6518828Y-10046299D01*
X6518865Y-10030424D01*
X6518907Y-10015917D01*
X6518954Y-10002716D01*
X6519004Y-9990761D01*
X6519060Y-9979989D01*
X6519121Y-9970339D01*
X6519187Y-9961749D01*
X6519258Y-9954158D01*
X6519335Y-9947503D01*
X6519418Y-9941723D01*
X6519506Y-9936757D01*
X6519602Y-9932542D01*
X6519703Y-9929018D01*
X6519812Y-9926121D01*
X6519927Y-9923792D01*
X6520049Y-9921968D01*
X6520179Y-9920587D01*
X6520316Y-9919588D01*
X6520462Y-9918909D01*
X6520615Y-9918488D01*
X6520776Y-9918264D01*
X6520946Y-9918175D01*
X6521113Y-9918160D01*
X9819340Y-9918160D01*
X9819340Y-11343100D01*
X19120820Y-11343100D01*
X19120820Y-10128980D01*
X21814490Y-10128980D01*
X21814490Y-11104340D01*
X22427900Y-11104340D01*
X22427900Y-10128980D01*
X21814490Y-10128980D01*
X19120820Y-10128980D01*
X19120820Y-9918160D01*
X9819340Y-9918160D01*
X6521113Y-9918160D01*
X6521411Y-9918131D01*
X6521684Y-9917974D01*
X6521935Y-9917584D01*
X6522163Y-9916856D01*
X6522371Y-9915686D01*
X6522559Y-9913967D01*
X6522730Y-9911596D01*
X6522884Y-9908468D01*
X6523022Y-9904477D01*
X6523145Y-9899518D01*
X6523256Y-9893487D01*
X6523355Y-9886279D01*
X6523443Y-9877788D01*
X6523522Y-9867911D01*
X6523593Y-9856541D01*
X6523657Y-9843574D01*
X6523715Y-9828905D01*
X6523769Y-9812429D01*
X6523820Y-9794041D01*
X6523870Y-9773636D01*
X6523918Y-9751110D01*
X6523968Y-9726356D01*
X6524019Y-9699272D01*
X6524073Y-9670193D01*
X6524128Y-9640686D01*
X6524180Y-9613608D01*
X6524230Y-9588847D01*
X6524280Y-9566293D01*
X6524331Y-9545834D01*
X6524384Y-9527358D01*
X6524441Y-9510755D01*
X6524503Y-9495913D01*
X6524571Y-9482721D01*
X6524646Y-9471068D01*
X6524731Y-9460842D01*
X6524825Y-9451933D01*
X6524931Y-9444228D01*
X6525049Y-9437617D01*
X6525182Y-9431989D01*
X6525330Y-9427231D01*
X6525494Y-9423234D01*
X6525677Y-9419885D01*
X6525878Y-9417074D01*
X6526100Y-9414689D01*
X6526344Y-9412619D01*
X6526611Y-9410752D01*
X6526902Y-9408978D01*
X6527142Y-9407620D01*
X6533271Y-9379883D01*
X6541486Y-9353582D01*
X6551806Y-9328680D01*
X6564248Y-9305141D01*
X6578828Y-9282928D01*
X6595563Y-9262004D01*
X6595912Y-9261607D01*
X6614670Y-9242176D01*
X6634811Y-9224863D01*
X6656291Y-9209698D01*
X6679065Y-9196707D01*
X6703089Y-9185919D01*
X6728317Y-9177362D01*
X6731970Y-9176336D01*
X6745305Y-9172685D01*
X14476200Y-9172677D01*
X22207095Y-9172670D01*
X22219390Y-9175788D01*
D11*
G04 #@! TO.C,LED1*
G36*
X10223084Y-10900000D02*
X9883084Y-10650000D01*
X10223084Y-10400000D01*
X10223084Y-10900000D01*
G37*
X10223084Y-10900000D02*
X9883084Y-10650000D01*
X10223084Y-10400000D01*
X10223084Y-10900000D01*
G36*
X10483084Y-10780000D02*
X10483084Y-10400000D01*
X10253084Y-10400000D01*
X10253084Y-10900000D01*
X10483084Y-10900000D01*
X10483084Y-10780000D01*
G37*
X10483084Y-10780000D02*
X10483084Y-10400000D01*
X10253084Y-10400000D01*
X10253084Y-10900000D01*
X10483084Y-10900000D01*
X10483084Y-10780000D01*
G36*
X10223084Y-10400000D02*
X10255084Y-10400000D01*
X10255084Y-10900000D01*
X10223084Y-10900000D01*
X10223084Y-10400000D01*
G37*
X10223084Y-10400000D02*
X10255084Y-10400000D01*
X10255084Y-10900000D01*
X10223084Y-10900000D01*
X10223084Y-10400000D01*
G04 #@! TD*
D12*
G04 #@! TO.C,DRAWING1*
X22423147Y-12767389D03*
X22423147Y-12839676D03*
X22423147Y-12695102D03*
X22423147Y-16353449D03*
X22423147Y-16425736D03*
X22423147Y-16281162D03*
X22423147Y-13916831D03*
X22423147Y-13999864D03*
X22423147Y-14082899D03*
X22423147Y-15030668D03*
X22423147Y-15113701D03*
X22423147Y-15196735D03*
X22423444Y-12624382D03*
X22424691Y-12550794D03*
X22424691Y-16495870D03*
G04 #@! TD*
D13*
G04 #@! TO.C,SW4*
X16655088Y-14804974D03*
X17024912Y-14205026D03*
X17024912Y-14804974D03*
X16655088Y-14205026D03*
G04 #@! TD*
D14*
G04 #@! TO.C,LED1*
X10323000Y-14595000D03*
D11*
G36*
X10318586Y-14664843D02*
X10313703Y-14664362D01*
X10311762Y-14664075D01*
X10306950Y-14663117D01*
X10305045Y-14662640D01*
X10300350Y-14661216D01*
X10298502Y-14660555D01*
X10293969Y-14658677D01*
X10292194Y-14657838D01*
X10287867Y-14655525D01*
X10286184Y-14654516D01*
X10282104Y-14651790D01*
X10280527Y-14650620D01*
X10276734Y-14647508D01*
X10275280Y-14646190D01*
X10271810Y-14642720D01*
X10270492Y-14641266D01*
X10267380Y-14637473D01*
X10266210Y-14635896D01*
X10263484Y-14631816D01*
X10262475Y-14630133D01*
X10260162Y-14625806D01*
X10259323Y-14624031D01*
X10257445Y-14619498D01*
X10256784Y-14617650D01*
X10255360Y-14612955D01*
X10254883Y-14611050D01*
X10253925Y-14606238D01*
X10253638Y-14604297D01*
X10253157Y-14599414D01*
X10253060Y-14597453D01*
X10253060Y-14592547D01*
X10253157Y-14590586D01*
X10253638Y-14585703D01*
X10253925Y-14583762D01*
X10254883Y-14578949D01*
X10255360Y-14577045D01*
X10256784Y-14572350D01*
X10257445Y-14570502D01*
X10259323Y-14565969D01*
X10260162Y-14564194D01*
X10262475Y-14559867D01*
X10263484Y-14558184D01*
X10266210Y-14554104D01*
X10267380Y-14552527D01*
X10270492Y-14548734D01*
X10271810Y-14547280D01*
X10275280Y-14543810D01*
X10276734Y-14542492D01*
X10280527Y-14539379D01*
X10282104Y-14538210D01*
X10286184Y-14535484D01*
X10287867Y-14534475D01*
X10292194Y-14532162D01*
X10293969Y-14531323D01*
X10298502Y-14529445D01*
X10300350Y-14528784D01*
X10305045Y-14527360D01*
X10306950Y-14526883D01*
X10311762Y-14525925D01*
X10313703Y-14525637D01*
X10318586Y-14525156D01*
X10320547Y-14525060D01*
X10325453Y-14525060D01*
X10327414Y-14525156D01*
X10332297Y-14525637D01*
X10334238Y-14525925D01*
X10339051Y-14526883D01*
X10340955Y-14527360D01*
X10345650Y-14528784D01*
X10347498Y-14529445D01*
X10352031Y-14531323D01*
X10353806Y-14532162D01*
X10358133Y-14534475D01*
X10359816Y-14535484D01*
X10363896Y-14538210D01*
X10365473Y-14539379D01*
X10369266Y-14542492D01*
X10370720Y-14543810D01*
X10374190Y-14547280D01*
X10375508Y-14548734D01*
X10378621Y-14552527D01*
X10379790Y-14554104D01*
X10382516Y-14558184D01*
X10383525Y-14559867D01*
X10385838Y-14564194D01*
X10386677Y-14565969D01*
X10388555Y-14570502D01*
X10389216Y-14572350D01*
X10390640Y-14577045D01*
X10391117Y-14578949D01*
X10392075Y-14583762D01*
X10392363Y-14585703D01*
X10392844Y-14590586D01*
X10392940Y-14592547D01*
X10392940Y-14597453D01*
X10392844Y-14599414D01*
X10392363Y-14604297D01*
X10392075Y-14606238D01*
X10391117Y-14611050D01*
X10390640Y-14612955D01*
X10389216Y-14617650D01*
X10388555Y-14619498D01*
X10386677Y-14624031D01*
X10385838Y-14625806D01*
X10383525Y-14630133D01*
X10382516Y-14631816D01*
X10379790Y-14635896D01*
X10378621Y-14637473D01*
X10375508Y-14641266D01*
X10374190Y-14642720D01*
X10370720Y-14646190D01*
X10369266Y-14647508D01*
X10365473Y-14650620D01*
X10363896Y-14651790D01*
X10359816Y-14654516D01*
X10358133Y-14655525D01*
X10353806Y-14657838D01*
X10352031Y-14658677D01*
X10347498Y-14660555D01*
X10345650Y-14661216D01*
X10340955Y-14662640D01*
X10339051Y-14663117D01*
X10334238Y-14664075D01*
X10332297Y-14664362D01*
X10327414Y-14664843D01*
X10325453Y-14664940D01*
X10320547Y-14664940D01*
X10318586Y-14664843D01*
X10318586Y-14664843D01*
G37*
D14*
X10153074Y-14595000D03*
D11*
G36*
X10099172Y-14664616D02*
X10095420Y-14663478D01*
X10091963Y-14661629D01*
X10088932Y-14659142D01*
X10086445Y-14656111D01*
X10084596Y-14652654D01*
X10083458Y-14648902D01*
X10083074Y-14645000D01*
X10083074Y-14545000D01*
X10083458Y-14541098D01*
X10084596Y-14537346D01*
X10086445Y-14533889D01*
X10088932Y-14530858D01*
X10091963Y-14528371D01*
X10095420Y-14526522D01*
X10099172Y-14525384D01*
X10103074Y-14525000D01*
X10203074Y-14525000D01*
X10206976Y-14525384D01*
X10210728Y-14526522D01*
X10214185Y-14528371D01*
X10217216Y-14530858D01*
X10219703Y-14533889D01*
X10221552Y-14537346D01*
X10222690Y-14541098D01*
X10223074Y-14545000D01*
X10223074Y-14645000D01*
X10222690Y-14648902D01*
X10221552Y-14652654D01*
X10219703Y-14656111D01*
X10217216Y-14659142D01*
X10214185Y-14661629D01*
X10210728Y-14663478D01*
X10206976Y-14664616D01*
X10203074Y-14665000D01*
X10103074Y-14665000D01*
X10099172Y-14664616D01*
X10099172Y-14664616D01*
G37*
G04 #@! TD*
D15*
G04 #@! TO.C,SW2*
X17972300Y-14196400D03*
X18512300Y-14196400D03*
G04 #@! TD*
D16*
G04 #@! TO.C,SW1*
X18962500Y-14368200D03*
X18802500Y-14368200D03*
X18962500Y-14778200D03*
X18802500Y-14778200D03*
G04 #@! TD*
D17*
G04 #@! TO.C,SW3*
X17305200Y-14160900D03*
X17645200Y-14160900D03*
G04 #@! TD*
D18*
G04 #@! TO.C,R1*
X11658200Y-15055000D03*
X11710200Y-15055000D03*
G04 #@! TD*
D19*
G04 #@! TO.C,LED2*
X10958400Y-14890000D03*
X11068400Y-14890000D03*
G04 #@! TD*
D20*
G04 #@! TO.C,LED3*
X10888400Y-14702550D03*
X11048400Y-14702550D03*
G04 #@! TD*
D21*
G04 #@! TO.C,LED4*
X10808400Y-14495400D03*
X11028400Y-14495400D03*
G04 #@! TD*
D11*
G04 #@! TO.C,R6*
G36*
X11690415Y-15170084D02*
X11692114Y-15170336D01*
X11693780Y-15170753D01*
X11695397Y-15171332D01*
X11696949Y-15172066D01*
X11698422Y-15172949D01*
X11699802Y-15173972D01*
X11701074Y-15175126D01*
X11702228Y-15176398D01*
X11703251Y-15177777D01*
X11704134Y-15179251D01*
X11704868Y-15180803D01*
X11705446Y-15182420D01*
X11705864Y-15184086D01*
X11706116Y-15185785D01*
X11706200Y-15187500D01*
X11706200Y-15222500D01*
X11706116Y-15224215D01*
X11705864Y-15225914D01*
X11705446Y-15227580D01*
X11704868Y-15229197D01*
X11704134Y-15230749D01*
X11703251Y-15232222D01*
X11702228Y-15233602D01*
X11701074Y-15234874D01*
X11699802Y-15236028D01*
X11698422Y-15237051D01*
X11696949Y-15237934D01*
X11695397Y-15238668D01*
X11693780Y-15239246D01*
X11692114Y-15239664D01*
X11690415Y-15239916D01*
X11688700Y-15240000D01*
X11641700Y-15240000D01*
X11639985Y-15239916D01*
X11638286Y-15239664D01*
X11636620Y-15239246D01*
X11635003Y-15238668D01*
X11633451Y-15237934D01*
X11631977Y-15237051D01*
X11630598Y-15236028D01*
X11629326Y-15234874D01*
X11628172Y-15233602D01*
X11627149Y-15232222D01*
X11626266Y-15230749D01*
X11625532Y-15229197D01*
X11624953Y-15227580D01*
X11624536Y-15225914D01*
X11624284Y-15224215D01*
X11624200Y-15222500D01*
X11624200Y-15187500D01*
X11624284Y-15185785D01*
X11624536Y-15184086D01*
X11624953Y-15182420D01*
X11625532Y-15180803D01*
X11626266Y-15179251D01*
X11627149Y-15177777D01*
X11628172Y-15176398D01*
X11629326Y-15175126D01*
X11630598Y-15173972D01*
X11631977Y-15172949D01*
X11633451Y-15172066D01*
X11635003Y-15171332D01*
X11636620Y-15170753D01*
X11638286Y-15170336D01*
X11639985Y-15170084D01*
X11641700Y-15170000D01*
X11688700Y-15170000D01*
X11690415Y-15170084D01*
X11690415Y-15170084D01*
G37*
D22*
X11665200Y-15205000D03*
D11*
G36*
X11738415Y-15170084D02*
X11740114Y-15170336D01*
X11741780Y-15170753D01*
X11743397Y-15171332D01*
X11744949Y-15172066D01*
X11746422Y-15172949D01*
X11747802Y-15173972D01*
X11749074Y-15175126D01*
X11750228Y-15176398D01*
X11751251Y-15177777D01*
X11752134Y-15179251D01*
X11752868Y-15180803D01*
X11753446Y-15182420D01*
X11753864Y-15184086D01*
X11754116Y-15185785D01*
X11754200Y-15187500D01*
X11754200Y-15222500D01*
X11754116Y-15224215D01*
X11753864Y-15225914D01*
X11753446Y-15227580D01*
X11752868Y-15229197D01*
X11752134Y-15230749D01*
X11751251Y-15232222D01*
X11750228Y-15233602D01*
X11749074Y-15234874D01*
X11747802Y-15236028D01*
X11746422Y-15237051D01*
X11744949Y-15237934D01*
X11743397Y-15238668D01*
X11741780Y-15239246D01*
X11740114Y-15239664D01*
X11738415Y-15239916D01*
X11736700Y-15240000D01*
X11689700Y-15240000D01*
X11687985Y-15239916D01*
X11686286Y-15239664D01*
X11684620Y-15239246D01*
X11683003Y-15238668D01*
X11681451Y-15237934D01*
X11679977Y-15237051D01*
X11678598Y-15236028D01*
X11677326Y-15234874D01*
X11676172Y-15233602D01*
X11675149Y-15232222D01*
X11674266Y-15230749D01*
X11673532Y-15229197D01*
X11672953Y-15227580D01*
X11672536Y-15225914D01*
X11672284Y-15224215D01*
X11672200Y-15222500D01*
X11672200Y-15187500D01*
X11672284Y-15185785D01*
X11672536Y-15184086D01*
X11672953Y-15182420D01*
X11673532Y-15180803D01*
X11674266Y-15179251D01*
X11675149Y-15177777D01*
X11676172Y-15176398D01*
X11677326Y-15175126D01*
X11678598Y-15173972D01*
X11679977Y-15172949D01*
X11681451Y-15172066D01*
X11683003Y-15171332D01*
X11684620Y-15170753D01*
X11686286Y-15170336D01*
X11687985Y-15170084D01*
X11689700Y-15170000D01*
X11736700Y-15170000D01*
X11738415Y-15170084D01*
X11738415Y-15170084D01*
G37*
D22*
X11713200Y-15205000D03*
G04 #@! TD*
D11*
G04 #@! TO.C,LED6*
G36*
X11100360Y-15015096D02*
X11102302Y-15015384D01*
X11104206Y-15015861D01*
X11106054Y-15016522D01*
X11107828Y-15017362D01*
X11109511Y-15018371D01*
X11111088Y-15019540D01*
X11112542Y-15020858D01*
X11113860Y-15022312D01*
X11115029Y-15023889D01*
X11116038Y-15025572D01*
X11116878Y-15027346D01*
X11117539Y-15029194D01*
X11118016Y-15031098D01*
X11118304Y-15033040D01*
X11118400Y-15035000D01*
X11118400Y-15075000D01*
X11118304Y-15076960D01*
X11118016Y-15078902D01*
X11117539Y-15080806D01*
X11116878Y-15082654D01*
X11116038Y-15084428D01*
X11115029Y-15086111D01*
X11113860Y-15087688D01*
X11112542Y-15089142D01*
X11111088Y-15090460D01*
X11109511Y-15091629D01*
X11107828Y-15092638D01*
X11106054Y-15093478D01*
X11104206Y-15094139D01*
X11102302Y-15094616D01*
X11100360Y-15094904D01*
X11098400Y-15095000D01*
X11049400Y-15095000D01*
X11047440Y-15094904D01*
X11045498Y-15094616D01*
X11043594Y-15094139D01*
X11041746Y-15093478D01*
X11039972Y-15092638D01*
X11038289Y-15091629D01*
X11036712Y-15090460D01*
X11035258Y-15089142D01*
X11033940Y-15087688D01*
X11032771Y-15086111D01*
X11031762Y-15084428D01*
X11030922Y-15082654D01*
X11030261Y-15080806D01*
X11029784Y-15078902D01*
X11029496Y-15076960D01*
X11029400Y-15075000D01*
X11029400Y-15035000D01*
X11029496Y-15033040D01*
X11029784Y-15031098D01*
X11030261Y-15029194D01*
X11030922Y-15027346D01*
X11031762Y-15025572D01*
X11032771Y-15023889D01*
X11033940Y-15022312D01*
X11035258Y-15020858D01*
X11036712Y-15019540D01*
X11038289Y-15018371D01*
X11039972Y-15017362D01*
X11041746Y-15016522D01*
X11043594Y-15015861D01*
X11045498Y-15015384D01*
X11047440Y-15015096D01*
X11049400Y-15015000D01*
X11098400Y-15015000D01*
X11100360Y-15015096D01*
X11100360Y-15015096D01*
G37*
D23*
X11073900Y-15055000D03*
D11*
G36*
X11039360Y-15015096D02*
X11041302Y-15015384D01*
X11043206Y-15015861D01*
X11045054Y-15016522D01*
X11046828Y-15017362D01*
X11048511Y-15018371D01*
X11050088Y-15019540D01*
X11051542Y-15020858D01*
X11052860Y-15022312D01*
X11054029Y-15023889D01*
X11055038Y-15025572D01*
X11055878Y-15027346D01*
X11056539Y-15029194D01*
X11057016Y-15031098D01*
X11057304Y-15033040D01*
X11057400Y-15035000D01*
X11057400Y-15075000D01*
X11057304Y-15076960D01*
X11057016Y-15078902D01*
X11056539Y-15080806D01*
X11055878Y-15082654D01*
X11055038Y-15084428D01*
X11054029Y-15086111D01*
X11052860Y-15087688D01*
X11051542Y-15089142D01*
X11050088Y-15090460D01*
X11048511Y-15091629D01*
X11046828Y-15092638D01*
X11045054Y-15093478D01*
X11043206Y-15094139D01*
X11041302Y-15094616D01*
X11039360Y-15094904D01*
X11037400Y-15095000D01*
X10988400Y-15095000D01*
X10986440Y-15094904D01*
X10984498Y-15094616D01*
X10982594Y-15094139D01*
X10980746Y-15093478D01*
X10978972Y-15092638D01*
X10977289Y-15091629D01*
X10975712Y-15090460D01*
X10974258Y-15089142D01*
X10972940Y-15087688D01*
X10971771Y-15086111D01*
X10970762Y-15084428D01*
X10969922Y-15082654D01*
X10969261Y-15080806D01*
X10968784Y-15078902D01*
X10968496Y-15076960D01*
X10968400Y-15075000D01*
X10968400Y-15035000D01*
X10968496Y-15033040D01*
X10968784Y-15031098D01*
X10969261Y-15029194D01*
X10969922Y-15027346D01*
X10970762Y-15025572D01*
X10971771Y-15023889D01*
X10972940Y-15022312D01*
X10974258Y-15020858D01*
X10975712Y-15019540D01*
X10977289Y-15018371D01*
X10978972Y-15017362D01*
X10980746Y-15016522D01*
X10982594Y-15015861D01*
X10984498Y-15015384D01*
X10986440Y-15015096D01*
X10988400Y-15015000D01*
X11037400Y-15015000D01*
X11039360Y-15015096D01*
X11039360Y-15015096D01*
G37*
D23*
X11012900Y-15055000D03*
G04 #@! TD*
D24*
G04 #@! TO.C,SW7*
X14870000Y-14885000D03*
X15120000Y-14885000D03*
X15370000Y-14885000D03*
X15370000Y-14335000D03*
X15120000Y-14335000D03*
X14870000Y-14335000D03*
G04 #@! TD*
D25*
G04 #@! TO.C,D1*
X13057000Y-14294000D03*
X12657000Y-14294000D03*
G04 #@! TD*
D26*
G04 #@! TO.C,D2*
X14045000Y-14335600D03*
X13615000Y-14335600D03*
G04 #@! TD*
D27*
G04 #@! TO.C,SW6*
X15907500Y-14997500D03*
X16357500Y-14087500D03*
X15907500Y-14087500D03*
X16357500Y-14997500D03*
G04 #@! TD*
D28*
G04 #@! TO.C,R2*
X11664200Y-14890000D03*
X11754200Y-14890000D03*
G04 #@! TD*
D29*
G04 #@! TO.C,R3*
X11679200Y-14702550D03*
X11829200Y-14702550D03*
G04 #@! TD*
D30*
G04 #@! TO.C,R4*
X11689200Y-14495400D03*
X11879200Y-14495400D03*
G04 #@! TD*
D31*
G04 #@! TO.C,SW8*
X18569800Y-14840600D03*
X17869800Y-14840600D03*
G04 #@! TD*
D19*
G04 #@! TO.C,D6*
X13582200Y-15148400D03*
X13722200Y-15148400D03*
G04 #@! TD*
D32*
G04 #@! TO.C,R5*
X11699200Y-14241400D03*
X11989200Y-14241400D03*
G04 #@! TD*
D33*
G04 #@! TO.C,LED5*
X10683400Y-14241650D03*
X11013400Y-14241650D03*
G04 #@! TD*
D34*
G04 #@! TO.C,J1*
X22212000Y-14639140D03*
X22212000Y-14471500D03*
D35*
X22212000Y-14263982D03*
X22212000Y-14846658D03*
D36*
X21982130Y-14309194D03*
X21982130Y-14801446D03*
D37*
X21946062Y-14685368D03*
X21946062Y-14620344D03*
X21946062Y-14555320D03*
X21946062Y-14490296D03*
X21946062Y-14425272D03*
G04 #@! TD*
D38*
G04 #@! TO.C,D3*
X13127000Y-14864000D03*
X12447000Y-14864000D03*
G04 #@! TD*
D39*
G04 #@! TO.C,D4*
X13715600Y-14716600D03*
X13385600Y-14716600D03*
G04 #@! TD*
D40*
G04 #@! TO.C,D5*
X13731800Y-14945200D03*
X13521800Y-14945200D03*
G04 #@! TD*
D41*
G04 #@! TO.C,SW5*
X17265000Y-14660000D03*
X17690000Y-14660000D03*
X17265000Y-15010000D03*
X17690000Y-15010000D03*
D42*
X17230000Y-15010000D03*
X17725000Y-14660000D03*
X17230000Y-14660000D03*
X17725000Y-15010000D03*
G04 #@! TD*
D12*
G04 #@! TO.C,DRAWING1*
X22424691Y-12550870D03*
X22424691Y-8605794D03*
X22423444Y-8679382D03*
X22423147Y-11251735D03*
X22423147Y-11168701D03*
X22423147Y-11085668D03*
X22423147Y-10137899D03*
X22423147Y-10054864D03*
X22423147Y-9971831D03*
X22423147Y-12336162D03*
X22423147Y-12480736D03*
X22423147Y-12408449D03*
X22423147Y-8750102D03*
X22423147Y-8894676D03*
X22423147Y-8822389D03*
G04 #@! TD*
D13*
G04 #@! TO.C,SW4*
X16655088Y-10260026D03*
X17024912Y-10859974D03*
X17024912Y-10260026D03*
X16655088Y-10859974D03*
G04 #@! TD*
D14*
G04 #@! TO.C,LED1*
X10153074Y-10650000D03*
D11*
G36*
X10099172Y-10719616D02*
X10095420Y-10718478D01*
X10091963Y-10716629D01*
X10088932Y-10714142D01*
X10086445Y-10711111D01*
X10084596Y-10707654D01*
X10083458Y-10703902D01*
X10083074Y-10700000D01*
X10083074Y-10600000D01*
X10083458Y-10596098D01*
X10084596Y-10592346D01*
X10086445Y-10588889D01*
X10088932Y-10585858D01*
X10091963Y-10583371D01*
X10095420Y-10581522D01*
X10099172Y-10580384D01*
X10103074Y-10580000D01*
X10203074Y-10580000D01*
X10206976Y-10580384D01*
X10210728Y-10581522D01*
X10214185Y-10583371D01*
X10217216Y-10585858D01*
X10219703Y-10588889D01*
X10221552Y-10592346D01*
X10222690Y-10596098D01*
X10223074Y-10600000D01*
X10223074Y-10700000D01*
X10222690Y-10703902D01*
X10221552Y-10707654D01*
X10219703Y-10711111D01*
X10217216Y-10714142D01*
X10214185Y-10716629D01*
X10210728Y-10718478D01*
X10206976Y-10719616D01*
X10203074Y-10720000D01*
X10103074Y-10720000D01*
X10099172Y-10719616D01*
X10099172Y-10719616D01*
G37*
D14*
X10323000Y-10650000D03*
D11*
G36*
X10318586Y-10719844D02*
X10313703Y-10719363D01*
X10311762Y-10719075D01*
X10306950Y-10718117D01*
X10305045Y-10717640D01*
X10300350Y-10716216D01*
X10298502Y-10715555D01*
X10293969Y-10713677D01*
X10292194Y-10712838D01*
X10287867Y-10710525D01*
X10286184Y-10709516D01*
X10282104Y-10706790D01*
X10280527Y-10705621D01*
X10276734Y-10702508D01*
X10275280Y-10701190D01*
X10271810Y-10697720D01*
X10270492Y-10696266D01*
X10267380Y-10692473D01*
X10266210Y-10690896D01*
X10263484Y-10686816D01*
X10262475Y-10685133D01*
X10260162Y-10680806D01*
X10259323Y-10679031D01*
X10257445Y-10674498D01*
X10256784Y-10672650D01*
X10255360Y-10667955D01*
X10254883Y-10666051D01*
X10253925Y-10661238D01*
X10253638Y-10659297D01*
X10253157Y-10654414D01*
X10253060Y-10652453D01*
X10253060Y-10647547D01*
X10253157Y-10645586D01*
X10253638Y-10640703D01*
X10253925Y-10638762D01*
X10254883Y-10633950D01*
X10255360Y-10632045D01*
X10256784Y-10627350D01*
X10257445Y-10625502D01*
X10259323Y-10620969D01*
X10260162Y-10619194D01*
X10262475Y-10614867D01*
X10263484Y-10613184D01*
X10266210Y-10609104D01*
X10267380Y-10607527D01*
X10270492Y-10603734D01*
X10271810Y-10602280D01*
X10275280Y-10598810D01*
X10276734Y-10597492D01*
X10280527Y-10594380D01*
X10282104Y-10593210D01*
X10286184Y-10590484D01*
X10287867Y-10589475D01*
X10292194Y-10587162D01*
X10293969Y-10586323D01*
X10298502Y-10584445D01*
X10300350Y-10583784D01*
X10305045Y-10582360D01*
X10306950Y-10581883D01*
X10311762Y-10580925D01*
X10313703Y-10580638D01*
X10318586Y-10580157D01*
X10320547Y-10580060D01*
X10325453Y-10580060D01*
X10327414Y-10580157D01*
X10332297Y-10580638D01*
X10334238Y-10580925D01*
X10339051Y-10581883D01*
X10340955Y-10582360D01*
X10345650Y-10583784D01*
X10347498Y-10584445D01*
X10352031Y-10586323D01*
X10353806Y-10587162D01*
X10358133Y-10589475D01*
X10359816Y-10590484D01*
X10363896Y-10593210D01*
X10365473Y-10594380D01*
X10369266Y-10597492D01*
X10370720Y-10598810D01*
X10374190Y-10602280D01*
X10375508Y-10603734D01*
X10378621Y-10607527D01*
X10379790Y-10609104D01*
X10382516Y-10613184D01*
X10383525Y-10614867D01*
X10385838Y-10619194D01*
X10386677Y-10620969D01*
X10388555Y-10625502D01*
X10389216Y-10627350D01*
X10390640Y-10632045D01*
X10391117Y-10633950D01*
X10392075Y-10638762D01*
X10392363Y-10640703D01*
X10392844Y-10645586D01*
X10392940Y-10647547D01*
X10392940Y-10652453D01*
X10392844Y-10654414D01*
X10392363Y-10659297D01*
X10392075Y-10661238D01*
X10391117Y-10666051D01*
X10390640Y-10667955D01*
X10389216Y-10672650D01*
X10388555Y-10674498D01*
X10386677Y-10679031D01*
X10385838Y-10680806D01*
X10383525Y-10685133D01*
X10382516Y-10686816D01*
X10379790Y-10690896D01*
X10378621Y-10692473D01*
X10375508Y-10696266D01*
X10374190Y-10697720D01*
X10370720Y-10701190D01*
X10369266Y-10702508D01*
X10365473Y-10705621D01*
X10363896Y-10706790D01*
X10359816Y-10709516D01*
X10358133Y-10710525D01*
X10353806Y-10712838D01*
X10352031Y-10713677D01*
X10347498Y-10715555D01*
X10345650Y-10716216D01*
X10340955Y-10717640D01*
X10339051Y-10718117D01*
X10334238Y-10719075D01*
X10332297Y-10719363D01*
X10327414Y-10719844D01*
X10325453Y-10719940D01*
X10320547Y-10719940D01*
X10318586Y-10719844D01*
X10318586Y-10719844D01*
G37*
G04 #@! TD*
D15*
G04 #@! TO.C,SW2*
X18512300Y-10251400D03*
X17972300Y-10251400D03*
G04 #@! TD*
D24*
G04 #@! TO.C,SW7*
X14870000Y-10390000D03*
X15120000Y-10390000D03*
X15370000Y-10390000D03*
X15370000Y-10940000D03*
X15120000Y-10940000D03*
X14870000Y-10940000D03*
G04 #@! TD*
D25*
G04 #@! TO.C,D1*
X12657000Y-10349000D03*
X13057000Y-10349000D03*
G04 #@! TD*
D26*
G04 #@! TO.C,D2*
X13615000Y-10390600D03*
X14045000Y-10390600D03*
G04 #@! TD*
D38*
G04 #@! TO.C,D3*
X12447000Y-10919000D03*
X13127000Y-10919000D03*
G04 #@! TD*
D39*
G04 #@! TO.C,D4*
X13385600Y-10771600D03*
X13715600Y-10771600D03*
G04 #@! TD*
D40*
G04 #@! TO.C,D5*
X13521800Y-11000200D03*
X13731800Y-11000200D03*
G04 #@! TD*
D19*
G04 #@! TO.C,D6*
X13722200Y-11203400D03*
X13582200Y-11203400D03*
G04 #@! TD*
D32*
G04 #@! TO.C,R5*
X11989200Y-10296400D03*
X11699200Y-10296400D03*
G04 #@! TD*
D16*
G04 #@! TO.C,SW1*
X18802500Y-10833200D03*
X18962500Y-10833200D03*
X18802500Y-10423200D03*
X18962500Y-10423200D03*
G04 #@! TD*
D17*
G04 #@! TO.C,SW3*
X17645200Y-10215900D03*
X17305200Y-10215900D03*
G04 #@! TD*
D18*
G04 #@! TO.C,R1*
X11710200Y-11110000D03*
X11658200Y-11110000D03*
G04 #@! TD*
D28*
G04 #@! TO.C,R2*
X11754200Y-10945000D03*
X11664200Y-10945000D03*
G04 #@! TD*
D29*
G04 #@! TO.C,R3*
X11829200Y-10757550D03*
X11679200Y-10757550D03*
G04 #@! TD*
D30*
G04 #@! TO.C,R4*
X11879200Y-10550400D03*
X11689200Y-10550400D03*
G04 #@! TD*
D19*
G04 #@! TO.C,LED2*
X11068400Y-10945000D03*
X10958400Y-10945000D03*
G04 #@! TD*
D20*
G04 #@! TO.C,LED3*
X11048400Y-10757550D03*
X10888400Y-10757550D03*
G04 #@! TD*
D21*
G04 #@! TO.C,LED4*
X11028400Y-10550400D03*
X10808400Y-10550400D03*
G04 #@! TD*
D33*
G04 #@! TO.C,LED5*
X11013400Y-10296650D03*
X10683400Y-10296650D03*
G04 #@! TD*
D37*
G04 #@! TO.C,J1*
X21946062Y-10480272D03*
X21946062Y-10545296D03*
X21946062Y-10610320D03*
X21946062Y-10675344D03*
X21946062Y-10740368D03*
D36*
X21982130Y-10856446D03*
X21982130Y-10364194D03*
D35*
X22212000Y-10901658D03*
X22212000Y-10318982D03*
D34*
X22212000Y-10526500D03*
X22212000Y-10694140D03*
G04 #@! TD*
D27*
G04 #@! TO.C,SW6*
X16357500Y-11052500D03*
X15907500Y-10142500D03*
X16357500Y-10142500D03*
X15907500Y-11052500D03*
G04 #@! TD*
D11*
G04 #@! TO.C,R6*
G36*
X11738415Y-11225084D02*
X11740114Y-11225336D01*
X11741780Y-11225753D01*
X11743397Y-11226332D01*
X11744949Y-11227066D01*
X11746422Y-11227949D01*
X11747802Y-11228972D01*
X11749074Y-11230126D01*
X11750228Y-11231398D01*
X11751251Y-11232777D01*
X11752134Y-11234251D01*
X11752868Y-11235803D01*
X11753446Y-11237420D01*
X11753864Y-11239086D01*
X11754116Y-11240785D01*
X11754200Y-11242500D01*
X11754200Y-11277500D01*
X11754116Y-11279215D01*
X11753864Y-11280914D01*
X11753446Y-11282580D01*
X11752868Y-11284197D01*
X11752134Y-11285749D01*
X11751251Y-11287222D01*
X11750228Y-11288602D01*
X11749074Y-11289874D01*
X11747802Y-11291028D01*
X11746422Y-11292051D01*
X11744949Y-11292934D01*
X11743397Y-11293668D01*
X11741780Y-11294246D01*
X11740114Y-11294664D01*
X11738415Y-11294916D01*
X11736700Y-11295000D01*
X11689700Y-11295000D01*
X11687985Y-11294916D01*
X11686286Y-11294664D01*
X11684620Y-11294246D01*
X11683003Y-11293668D01*
X11681451Y-11292934D01*
X11679977Y-11292051D01*
X11678598Y-11291028D01*
X11677326Y-11289874D01*
X11676172Y-11288602D01*
X11675149Y-11287222D01*
X11674266Y-11285749D01*
X11673532Y-11284197D01*
X11672953Y-11282580D01*
X11672536Y-11280914D01*
X11672284Y-11279215D01*
X11672200Y-11277500D01*
X11672200Y-11242500D01*
X11672284Y-11240785D01*
X11672536Y-11239086D01*
X11672953Y-11237420D01*
X11673532Y-11235803D01*
X11674266Y-11234251D01*
X11675149Y-11232777D01*
X11676172Y-11231398D01*
X11677326Y-11230126D01*
X11678598Y-11228972D01*
X11679977Y-11227949D01*
X11681451Y-11227066D01*
X11683003Y-11226332D01*
X11684620Y-11225753D01*
X11686286Y-11225336D01*
X11687985Y-11225084D01*
X11689700Y-11225000D01*
X11736700Y-11225000D01*
X11738415Y-11225084D01*
X11738415Y-11225084D01*
G37*
D22*
X11713200Y-11260000D03*
D11*
G36*
X11690415Y-11225084D02*
X11692114Y-11225336D01*
X11693780Y-11225753D01*
X11695397Y-11226332D01*
X11696949Y-11227066D01*
X11698422Y-11227949D01*
X11699802Y-11228972D01*
X11701074Y-11230126D01*
X11702228Y-11231398D01*
X11703251Y-11232777D01*
X11704134Y-11234251D01*
X11704868Y-11235803D01*
X11705446Y-11237420D01*
X11705864Y-11239086D01*
X11706116Y-11240785D01*
X11706200Y-11242500D01*
X11706200Y-11277500D01*
X11706116Y-11279215D01*
X11705864Y-11280914D01*
X11705446Y-11282580D01*
X11704868Y-11284197D01*
X11704134Y-11285749D01*
X11703251Y-11287222D01*
X11702228Y-11288602D01*
X11701074Y-11289874D01*
X11699802Y-11291028D01*
X11698422Y-11292051D01*
X11696949Y-11292934D01*
X11695397Y-11293668D01*
X11693780Y-11294246D01*
X11692114Y-11294664D01*
X11690415Y-11294916D01*
X11688700Y-11295000D01*
X11641700Y-11295000D01*
X11639985Y-11294916D01*
X11638286Y-11294664D01*
X11636620Y-11294246D01*
X11635003Y-11293668D01*
X11633451Y-11292934D01*
X11631977Y-11292051D01*
X11630598Y-11291028D01*
X11629326Y-11289874D01*
X11628172Y-11288602D01*
X11627149Y-11287222D01*
X11626266Y-11285749D01*
X11625532Y-11284197D01*
X11624953Y-11282580D01*
X11624536Y-11280914D01*
X11624284Y-11279215D01*
X11624200Y-11277500D01*
X11624200Y-11242500D01*
X11624284Y-11240785D01*
X11624536Y-11239086D01*
X11624953Y-11237420D01*
X11625532Y-11235803D01*
X11626266Y-11234251D01*
X11627149Y-11232777D01*
X11628172Y-11231398D01*
X11629326Y-11230126D01*
X11630598Y-11228972D01*
X11631977Y-11227949D01*
X11633451Y-11227066D01*
X11635003Y-11226332D01*
X11636620Y-11225753D01*
X11638286Y-11225336D01*
X11639985Y-11225084D01*
X11641700Y-11225000D01*
X11688700Y-11225000D01*
X11690415Y-11225084D01*
X11690415Y-11225084D01*
G37*
D22*
X11665200Y-11260000D03*
G04 #@! TD*
D11*
G04 #@! TO.C,LED6*
G36*
X11039360Y-11070096D02*
X11041302Y-11070384D01*
X11043206Y-11070861D01*
X11045054Y-11071522D01*
X11046828Y-11072362D01*
X11048511Y-11073371D01*
X11050088Y-11074540D01*
X11051542Y-11075858D01*
X11052860Y-11077312D01*
X11054029Y-11078889D01*
X11055038Y-11080572D01*
X11055878Y-11082346D01*
X11056539Y-11084194D01*
X11057016Y-11086098D01*
X11057304Y-11088040D01*
X11057400Y-11090000D01*
X11057400Y-11130000D01*
X11057304Y-11131960D01*
X11057016Y-11133902D01*
X11056539Y-11135806D01*
X11055878Y-11137654D01*
X11055038Y-11139428D01*
X11054029Y-11141111D01*
X11052860Y-11142688D01*
X11051542Y-11144142D01*
X11050088Y-11145460D01*
X11048511Y-11146629D01*
X11046828Y-11147638D01*
X11045054Y-11148478D01*
X11043206Y-11149139D01*
X11041302Y-11149616D01*
X11039360Y-11149904D01*
X11037400Y-11150000D01*
X10988400Y-11150000D01*
X10986440Y-11149904D01*
X10984498Y-11149616D01*
X10982594Y-11149139D01*
X10980746Y-11148478D01*
X10978972Y-11147638D01*
X10977289Y-11146629D01*
X10975712Y-11145460D01*
X10974258Y-11144142D01*
X10972940Y-11142688D01*
X10971771Y-11141111D01*
X10970762Y-11139428D01*
X10969922Y-11137654D01*
X10969261Y-11135806D01*
X10968784Y-11133902D01*
X10968496Y-11131960D01*
X10968400Y-11130000D01*
X10968400Y-11090000D01*
X10968496Y-11088040D01*
X10968784Y-11086098D01*
X10969261Y-11084194D01*
X10969922Y-11082346D01*
X10970762Y-11080572D01*
X10971771Y-11078889D01*
X10972940Y-11077312D01*
X10974258Y-11075858D01*
X10975712Y-11074540D01*
X10977289Y-11073371D01*
X10978972Y-11072362D01*
X10980746Y-11071522D01*
X10982594Y-11070861D01*
X10984498Y-11070384D01*
X10986440Y-11070096D01*
X10988400Y-11070000D01*
X11037400Y-11070000D01*
X11039360Y-11070096D01*
X11039360Y-11070096D01*
G37*
D23*
X11012900Y-11110000D03*
D11*
G36*
X11100360Y-11070096D02*
X11102302Y-11070384D01*
X11104206Y-11070861D01*
X11106054Y-11071522D01*
X11107828Y-11072362D01*
X11109511Y-11073371D01*
X11111088Y-11074540D01*
X11112542Y-11075858D01*
X11113860Y-11077312D01*
X11115029Y-11078889D01*
X11116038Y-11080572D01*
X11116878Y-11082346D01*
X11117539Y-11084194D01*
X11118016Y-11086098D01*
X11118304Y-11088040D01*
X11118400Y-11090000D01*
X11118400Y-11130000D01*
X11118304Y-11131960D01*
X11118016Y-11133902D01*
X11117539Y-11135806D01*
X11116878Y-11137654D01*
X11116038Y-11139428D01*
X11115029Y-11141111D01*
X11113860Y-11142688D01*
X11112542Y-11144142D01*
X11111088Y-11145460D01*
X11109511Y-11146629D01*
X11107828Y-11147638D01*
X11106054Y-11148478D01*
X11104206Y-11149139D01*
X11102302Y-11149616D01*
X11100360Y-11149904D01*
X11098400Y-11150000D01*
X11049400Y-11150000D01*
X11047440Y-11149904D01*
X11045498Y-11149616D01*
X11043594Y-11149139D01*
X11041746Y-11148478D01*
X11039972Y-11147638D01*
X11038289Y-11146629D01*
X11036712Y-11145460D01*
X11035258Y-11144142D01*
X11033940Y-11142688D01*
X11032771Y-11141111D01*
X11031762Y-11139428D01*
X11030922Y-11137654D01*
X11030261Y-11135806D01*
X11029784Y-11133902D01*
X11029496Y-11131960D01*
X11029400Y-11130000D01*
X11029400Y-11090000D01*
X11029496Y-11088040D01*
X11029784Y-11086098D01*
X11030261Y-11084194D01*
X11030922Y-11082346D01*
X11031762Y-11080572D01*
X11032771Y-11078889D01*
X11033940Y-11077312D01*
X11035258Y-11075858D01*
X11036712Y-11074540D01*
X11038289Y-11073371D01*
X11039972Y-11072362D01*
X11041746Y-11071522D01*
X11043594Y-11070861D01*
X11045498Y-11070384D01*
X11047440Y-11070096D01*
X11049400Y-11070000D01*
X11098400Y-11070000D01*
X11100360Y-11070096D01*
X11100360Y-11070096D01*
G37*
D23*
X11073900Y-11110000D03*
G04 #@! TD*
D31*
G04 #@! TO.C,SW8*
X17869800Y-10895600D03*
X18569800Y-10895600D03*
G04 #@! TD*
D42*
G04 #@! TO.C,SW5*
X17725000Y-11065000D03*
X17230000Y-10715000D03*
X17725000Y-10715000D03*
X17230000Y-11065000D03*
D41*
X17690000Y-11065000D03*
X17265000Y-11065000D03*
X17690000Y-10715000D03*
X17265000Y-10715000D03*
G04 #@! TD*
M02*
