G04 #@! TF.GenerationSoftware,KiCad,Pcbnew,5.0.0-rc2-dev-unknown-44bf92a~82~ubuntu16.04.1*
G04 #@! TF.CreationDate,2018-05-21T14:53:54+01:00*
G04 #@! TF.ProjectId,ruler,72756C65722E6B696361645F70636200,rev?*
G04 #@! TF.SameCoordinates,Original*
G04 #@! TF.FileFunction,Profile,NP*
%FSLAX45Y45*%
G04 Gerber Fmt 4.5, Leading zero omitted, Abs format (unit mm)*
G04 Created by KiCad (PCBNEW 5.0.0-rc2-dev-unknown-44bf92a~82~ubuntu16.04.1) date Mon May 21 14:53:54 2018*
%MOMM*%
%LPD*%
G01*
G04 APERTURE LIST*
%ADD10C,0.150000*%
%ADD11C,0.100000*%
G04 APERTURE END LIST*
D10*
X6364000Y-8568000D02*
X22963000Y-8568000D01*
X6364000Y-16546000D02*
X6364000Y-8567999D01*
X22963000Y-16546000D02*
X6364000Y-16546000D01*
X22963000Y-8568000D02*
X22963000Y-16546000D01*
D11*
X22429144Y-15119916D02*
X22429144Y-15119916D01*
X22429144Y-15630121D02*
X22429144Y-15119916D01*
X22427711Y-15659721D02*
X22429144Y-15630121D01*
X22423467Y-15688439D02*
X22427711Y-15659721D01*
X22416576Y-15716110D02*
X22423467Y-15688439D01*
X22407151Y-15742624D02*
X22416576Y-15716110D01*
X22395355Y-15767869D02*
X22407151Y-15742624D01*
X22381299Y-15791627D02*
X22395355Y-15767869D01*
X22365203Y-15813841D02*
X22381299Y-15791627D01*
X22347123Y-15834291D02*
X22365203Y-15813841D01*
X22327169Y-15852922D02*
X22347123Y-15834291D01*
X22305617Y-15869458D02*
X22327169Y-15852922D01*
X22282466Y-15883900D02*
X22305617Y-15869458D01*
X22257882Y-15896027D02*
X22282466Y-15883900D01*
X22232085Y-15905673D02*
X22257882Y-15896027D01*
X22205130Y-15912784D02*
X22232085Y-15905673D01*
X22177239Y-15917138D02*
X22205130Y-15912784D01*
X22148465Y-15918627D02*
X22177239Y-15917138D01*
X6804673Y-15918627D02*
X22148465Y-15918627D01*
X6775899Y-15917138D02*
X6804673Y-15918627D01*
X6747953Y-15912784D02*
X6775899Y-15917138D01*
X6720998Y-15905673D02*
X6747953Y-15912784D01*
X6695201Y-15896027D02*
X6720998Y-15905673D01*
X6670672Y-15883900D02*
X6695201Y-15896027D01*
X6647521Y-15869458D02*
X6670672Y-15883900D01*
X6625914Y-15852922D02*
X6647521Y-15869458D01*
X6606015Y-15834291D02*
X6625914Y-15852922D01*
X6587935Y-15813841D02*
X6606015Y-15834291D01*
X6571784Y-15791627D02*
X6587935Y-15813841D01*
X6557783Y-15767869D02*
X6571784Y-15791627D01*
X6545987Y-15742624D02*
X6557783Y-15767869D01*
X6536562Y-15716110D02*
X6545987Y-15742624D01*
X6529671Y-15688439D02*
X6536562Y-15716110D01*
X6525427Y-15659721D02*
X6529671Y-15688439D01*
X6523994Y-15630121D02*
X6525427Y-15659721D01*
X6521954Y-16149806D02*
X6523994Y-15630121D01*
X22808876Y-16141593D02*
X6521954Y-16149806D01*
X22808876Y-15119916D02*
X22808876Y-16141593D01*
X22429144Y-15119916D02*
X22808876Y-15119916D01*
X22429144Y-14002426D02*
X22429144Y-14002426D01*
X22429144Y-14895509D02*
X22429144Y-14002426D01*
X22808876Y-14895509D02*
X22429144Y-14895509D01*
X22808876Y-14002426D02*
X22808876Y-14895509D01*
X22429144Y-14002426D02*
X22808876Y-14002426D01*
X22808876Y-12774054D02*
X22808876Y-12774054D01*
X6521954Y-12782267D02*
X22808876Y-12774054D01*
X6525427Y-13272353D02*
X6521954Y-12782267D01*
X6529671Y-13243634D02*
X6525427Y-13272353D01*
X6536562Y-13215963D02*
X6529671Y-13243634D01*
X6545987Y-13189450D02*
X6536562Y-13215963D01*
X6557783Y-13164204D02*
X6545987Y-13189450D01*
X6571784Y-13140447D02*
X6557783Y-13164204D01*
X6587935Y-13118233D02*
X6571784Y-13140447D01*
X6606015Y-13097783D02*
X6587935Y-13118233D01*
X6625914Y-13079152D02*
X6606015Y-13097783D01*
X6647521Y-13062615D02*
X6625914Y-13079152D01*
X6670672Y-13048173D02*
X6647521Y-13062615D01*
X6695201Y-13036047D02*
X6670672Y-13048173D01*
X6720998Y-13026400D02*
X6695201Y-13036047D01*
X6747953Y-13019290D02*
X6720998Y-13026400D01*
X6775899Y-13014935D02*
X6747953Y-13019290D01*
X6804673Y-13013447D02*
X6775899Y-13014935D01*
X22148465Y-13013447D02*
X6804673Y-13013447D01*
X22177239Y-13014935D02*
X22148465Y-13013447D01*
X22205130Y-13019290D02*
X22177239Y-13014935D01*
X22232085Y-13026400D02*
X22205130Y-13019290D01*
X22257882Y-13036047D02*
X22232085Y-13026400D01*
X22282466Y-13048173D02*
X22257882Y-13036047D01*
X22305617Y-13062615D02*
X22282466Y-13048173D01*
X22327169Y-13079152D02*
X22305617Y-13062615D01*
X22347123Y-13097783D02*
X22327169Y-13079152D01*
X22365203Y-13118233D02*
X22347123Y-13097783D01*
X22381299Y-13140447D02*
X22365203Y-13118233D01*
X22395355Y-13164204D02*
X22381299Y-13140447D01*
X22407151Y-13189450D02*
X22395355Y-13164204D01*
X22416576Y-13215963D02*
X22407151Y-13189450D01*
X22423467Y-13243634D02*
X22416576Y-13215963D01*
X22427711Y-13272353D02*
X22423467Y-13243634D01*
X22429144Y-13301898D02*
X22427711Y-13272353D01*
X22429144Y-13785203D02*
X22429144Y-13301898D01*
X22808876Y-13785203D02*
X22429144Y-13785203D01*
X22808876Y-12774054D02*
X22808876Y-13785203D01*
X22429144Y-11284516D02*
X22429144Y-11284516D01*
X22429144Y-11794721D02*
X22429144Y-11284516D01*
X22427711Y-11824321D02*
X22429144Y-11794721D01*
X22423467Y-11853039D02*
X22427711Y-11824321D01*
X22416576Y-11880710D02*
X22423467Y-11853039D01*
X22407151Y-11907224D02*
X22416576Y-11880710D01*
X22395355Y-11932469D02*
X22407151Y-11907224D01*
X22381299Y-11956227D02*
X22395355Y-11932469D01*
X22365203Y-11978441D02*
X22381299Y-11956227D01*
X22347123Y-11998891D02*
X22365203Y-11978441D01*
X22327169Y-12017522D02*
X22347123Y-11998891D01*
X22305617Y-12034058D02*
X22327169Y-12017522D01*
X22282466Y-12048500D02*
X22305617Y-12034058D01*
X22257882Y-12060627D02*
X22282466Y-12048500D01*
X22232085Y-12070273D02*
X22257882Y-12060627D01*
X22205130Y-12077384D02*
X22232085Y-12070273D01*
X22177239Y-12081738D02*
X22205130Y-12077384D01*
X22148465Y-12083227D02*
X22177239Y-12081738D01*
X6804673Y-12083227D02*
X22148465Y-12083227D01*
X6775899Y-12081738D02*
X6804673Y-12083227D01*
X6747953Y-12077384D02*
X6775899Y-12081738D01*
X6720998Y-12070273D02*
X6747953Y-12077384D01*
X6695201Y-12060627D02*
X6720998Y-12070273D01*
X6670672Y-12048500D02*
X6695201Y-12060627D01*
X6647521Y-12034058D02*
X6670672Y-12048500D01*
X6625914Y-12017522D02*
X6647521Y-12034058D01*
X6606015Y-11998891D02*
X6625914Y-12017522D01*
X6587935Y-11978441D02*
X6606015Y-11998891D01*
X6571784Y-11956227D02*
X6587935Y-11978441D01*
X6557783Y-11932469D02*
X6571784Y-11956227D01*
X6545987Y-11907224D02*
X6557783Y-11932469D01*
X6536562Y-11880710D02*
X6545987Y-11907224D01*
X6529671Y-11853039D02*
X6536562Y-11880710D01*
X6525427Y-11824321D02*
X6529671Y-11853039D01*
X6523994Y-11794721D02*
X6525427Y-11824321D01*
X6521954Y-12314406D02*
X6523994Y-11794721D01*
X22808876Y-12306193D02*
X6521954Y-12314406D01*
X22808876Y-11284516D02*
X22808876Y-12306193D01*
X22429144Y-11284516D02*
X22808876Y-11284516D01*
X22429144Y-10167027D02*
X22429144Y-10167027D01*
X22429144Y-11060109D02*
X22429144Y-10167027D01*
X22808876Y-11060109D02*
X22429144Y-11060109D01*
X22808876Y-10167027D02*
X22808876Y-11060109D01*
X22429144Y-10167027D02*
X22808876Y-10167027D01*
X22808876Y-8938654D02*
X22808876Y-8938654D01*
X6521954Y-8946867D02*
X22808876Y-8938654D01*
X6525427Y-9436953D02*
X6521954Y-8946867D01*
X6529671Y-9408234D02*
X6525427Y-9436953D01*
X6536562Y-9380563D02*
X6529671Y-9408234D01*
X6545987Y-9354050D02*
X6536562Y-9380563D01*
X6557783Y-9328804D02*
X6545987Y-9354050D01*
X6571784Y-9305047D02*
X6557783Y-9328804D01*
X6587935Y-9282833D02*
X6571784Y-9305047D01*
X6606015Y-9262383D02*
X6587935Y-9282833D01*
X6625914Y-9243752D02*
X6606015Y-9262383D01*
X6647521Y-9227215D02*
X6625914Y-9243752D01*
X6670672Y-9212773D02*
X6647521Y-9227215D01*
X6695201Y-9200647D02*
X6670672Y-9212773D01*
X6720998Y-9191000D02*
X6695201Y-9200647D01*
X6747953Y-9183890D02*
X6720998Y-9191000D01*
X6775899Y-9179535D02*
X6747953Y-9183890D01*
X6804673Y-9178047D02*
X6775899Y-9179535D01*
X22148465Y-9178047D02*
X6804673Y-9178047D01*
X22177239Y-9179535D02*
X22148465Y-9178047D01*
X22205130Y-9183890D02*
X22177239Y-9179535D01*
X22232085Y-9191000D02*
X22205130Y-9183890D01*
X22257882Y-9200647D02*
X22232085Y-9191000D01*
X22282466Y-9212773D02*
X22257882Y-9200647D01*
X22305617Y-9227215D02*
X22282466Y-9212773D01*
X22327169Y-9243752D02*
X22305617Y-9227215D01*
X22347123Y-9262383D02*
X22327169Y-9243752D01*
X22365203Y-9282833D02*
X22347123Y-9262383D01*
X22381299Y-9305047D02*
X22365203Y-9282833D01*
X22395355Y-9328804D02*
X22381299Y-9305047D01*
X22407151Y-9354050D02*
X22395355Y-9328804D01*
X22416576Y-9380563D02*
X22407151Y-9354050D01*
X22423467Y-9408234D02*
X22416576Y-9380563D01*
X22427711Y-9436953D02*
X22423467Y-9408234D01*
X22429144Y-9466498D02*
X22427711Y-9436953D01*
X22429144Y-9949803D02*
X22429144Y-9466498D01*
X22808876Y-9949803D02*
X22429144Y-9949803D01*
X22808876Y-8938654D02*
X22808876Y-9949803D01*
M02*
