G04 #@! TF.GenerationSoftware,KiCad,Pcbnew,5.0.0-fee4fd1~66~ubuntu16.04.1*
G04 #@! TF.CreationDate,2018-08-13T01:26:49+01:00*
G04 #@! TF.ProjectId,ruler,72756C65722E6B696361645F70636200,rev?*
G04 #@! TF.SameCoordinates,Original*
G04 #@! TF.FileFunction,Legend,Top*
G04 #@! TF.FilePolarity,Positive*
%FSLAX45Y45*%
G04 Gerber Fmt 4.5, Leading zero omitted, Abs format (unit mm)*
G04 Created by KiCad (PCBNEW 5.0.0-fee4fd1~66~ubuntu16.04.1) date Mon Aug 13 01:26:49 2018*
%MOMM*%
%LPD*%
G01*
G04 APERTURE LIST*
%ADD10C,0.200000*%
%ADD11C,0.152400*%
%ADD12C,0.100000*%
%ADD13C,0.150000*%
%ADD14C,0.200660*%
%ADD15C,0.120000*%
%ADD16C,0.254000*%
%ADD17C,0.010000*%
%ADD18C,0.900000*%
%ADD19R,2.100000X1.200000*%
%ADD20C,0.800000*%
%ADD21C,0.700000*%
%ADD22R,1.800000X2.500000*%
%ADD23R,1.779220X0.849580*%
%ADD24R,2.500580X1.873200*%
%ADD25R,2.297380X2.774900*%
%ADD26R,2.297380X1.573480*%
%ADD27R,1.900000X1.900000*%
%ADD28R,1.600000X1.600000*%
%ADD29R,1.200000X1.200000*%
%ADD30R,1.000000X1.100000*%
%ADD31R,1.100000X1.700000*%
%ADD32R,0.900000X1.300000*%
%ADD33R,0.800000X1.000000*%
%ADD34R,0.680000X0.830000*%
%ADD35R,1.200000X2.100000*%
%ADD36R,1.300000X1.400000*%
%ADD37R,1.300000X2.100000*%
%ADD38R,1.000000X0.850000*%
%ADD39R,1.300000X1.600000*%
%ADD40R,2.900000X3.700000*%
%ADD41R,2.900000X2.700000*%
%ADD42R,2.900000X2.200000*%
%ADD43R,1.600000X2.900000*%
%ADD44R,0.600000X1.500000*%
%ADD45R,0.900000X1.100000*%
%ADD46R,2.400000X2.000000*%
%ADD47C,1.000000*%
%ADD48R,1.400760X1.400760*%
G04 APERTURE END LIST*
D10*
X11164762Y-11205238D02*
X11174286Y-11205238D01*
X11183810Y-11210000D01*
X11188571Y-11214762D01*
X11193333Y-11224286D01*
X11198095Y-11243333D01*
X11198095Y-11267143D01*
X11193333Y-11286190D01*
X11188571Y-11295714D01*
X11183810Y-11300476D01*
X11174286Y-11305238D01*
X11164762Y-11305238D01*
X11155238Y-11300476D01*
X11150476Y-11295714D01*
X11145714Y-11286190D01*
X11140952Y-11267143D01*
X11140952Y-11243333D01*
X11145714Y-11224286D01*
X11150476Y-11214762D01*
X11155238Y-11210000D01*
X11164762Y-11205238D01*
X11293333Y-11305238D02*
X11236190Y-11305238D01*
X11264762Y-11305238D02*
X11264762Y-11205238D01*
X11255238Y-11219524D01*
X11245714Y-11229048D01*
X11236190Y-11233809D01*
X11355238Y-11205238D02*
X11364762Y-11205238D01*
X11374286Y-11210000D01*
X11379048Y-11214762D01*
X11383809Y-11224286D01*
X11388571Y-11243333D01*
X11388571Y-11267143D01*
X11383809Y-11286190D01*
X11379048Y-11295714D01*
X11374286Y-11300476D01*
X11364762Y-11305238D01*
X11355238Y-11305238D01*
X11345714Y-11300476D01*
X11340952Y-11295714D01*
X11336190Y-11286190D01*
X11331428Y-11267143D01*
X11331428Y-11243333D01*
X11336190Y-11224286D01*
X11340952Y-11214762D01*
X11345714Y-11210000D01*
X11355238Y-11205238D01*
X11450476Y-11205238D02*
X11460000Y-11205238D01*
X11469524Y-11210000D01*
X11474286Y-11214762D01*
X11479048Y-11224286D01*
X11483809Y-11243333D01*
X11483809Y-11267143D01*
X11479048Y-11286190D01*
X11474286Y-11295714D01*
X11469524Y-11300476D01*
X11460000Y-11305238D01*
X11450476Y-11305238D01*
X11440952Y-11300476D01*
X11436190Y-11295714D01*
X11431428Y-11286190D01*
X11426667Y-11267143D01*
X11426667Y-11243333D01*
X11431428Y-11224286D01*
X11436190Y-11214762D01*
X11440952Y-11210000D01*
X11450476Y-11205238D01*
X11574286Y-11205238D02*
X11526667Y-11205238D01*
X11521905Y-11252857D01*
X11526667Y-11248095D01*
X11536190Y-11243333D01*
X11560000Y-11243333D01*
X11569524Y-11248095D01*
X11574286Y-11252857D01*
X11579048Y-11262381D01*
X11579048Y-11286190D01*
X11574286Y-11295714D01*
X11569524Y-11300476D01*
X11560000Y-11305238D01*
X11536190Y-11305238D01*
X11526667Y-11300476D01*
X11521905Y-11295714D01*
X11217381Y-11047238D02*
X11226905Y-11047238D01*
X11236428Y-11052000D01*
X11241190Y-11056762D01*
X11245952Y-11066286D01*
X11250714Y-11085333D01*
X11250714Y-11109143D01*
X11245952Y-11128190D01*
X11241190Y-11137714D01*
X11236428Y-11142476D01*
X11226905Y-11147238D01*
X11217381Y-11147238D01*
X11207857Y-11142476D01*
X11203095Y-11137714D01*
X11198333Y-11128190D01*
X11193571Y-11109143D01*
X11193571Y-11085333D01*
X11198333Y-11066286D01*
X11203095Y-11056762D01*
X11207857Y-11052000D01*
X11217381Y-11047238D01*
X11288809Y-11056762D02*
X11293571Y-11052000D01*
X11303095Y-11047238D01*
X11326905Y-11047238D01*
X11336428Y-11052000D01*
X11341190Y-11056762D01*
X11345952Y-11066286D01*
X11345952Y-11075810D01*
X11341190Y-11090095D01*
X11284048Y-11147238D01*
X11345952Y-11147238D01*
X11407857Y-11047238D02*
X11417381Y-11047238D01*
X11426905Y-11052000D01*
X11431667Y-11056762D01*
X11436428Y-11066286D01*
X11441190Y-11085333D01*
X11441190Y-11109143D01*
X11436428Y-11128190D01*
X11431667Y-11137714D01*
X11426905Y-11142476D01*
X11417381Y-11147238D01*
X11407857Y-11147238D01*
X11398333Y-11142476D01*
X11393571Y-11137714D01*
X11388809Y-11128190D01*
X11384048Y-11109143D01*
X11384048Y-11085333D01*
X11388809Y-11066286D01*
X11393571Y-11056762D01*
X11398333Y-11052000D01*
X11407857Y-11047238D01*
X11536428Y-11147238D02*
X11479286Y-11147238D01*
X11507857Y-11147238D02*
X11507857Y-11047238D01*
X11498333Y-11061524D01*
X11488809Y-11071048D01*
X11479286Y-11075810D01*
X11217381Y-10882238D02*
X11226905Y-10882238D01*
X11236428Y-10887000D01*
X11241190Y-10891762D01*
X11245952Y-10901286D01*
X11250714Y-10920333D01*
X11250714Y-10944143D01*
X11245952Y-10963190D01*
X11241190Y-10972714D01*
X11236428Y-10977476D01*
X11226905Y-10982238D01*
X11217381Y-10982238D01*
X11207857Y-10977476D01*
X11203095Y-10972714D01*
X11198333Y-10963190D01*
X11193571Y-10944143D01*
X11193571Y-10920333D01*
X11198333Y-10901286D01*
X11203095Y-10891762D01*
X11207857Y-10887000D01*
X11217381Y-10882238D01*
X11336428Y-10915571D02*
X11336428Y-10982238D01*
X11312619Y-10877476D02*
X11288809Y-10948905D01*
X11350714Y-10948905D01*
X11407857Y-10882238D02*
X11417381Y-10882238D01*
X11426905Y-10887000D01*
X11431667Y-10891762D01*
X11436428Y-10901286D01*
X11441190Y-10920333D01*
X11441190Y-10944143D01*
X11436428Y-10963190D01*
X11431667Y-10972714D01*
X11426905Y-10977476D01*
X11417381Y-10982238D01*
X11407857Y-10982238D01*
X11398333Y-10977476D01*
X11393571Y-10972714D01*
X11388809Y-10963190D01*
X11384048Y-10944143D01*
X11384048Y-10920333D01*
X11388809Y-10901286D01*
X11393571Y-10891762D01*
X11398333Y-10887000D01*
X11407857Y-10882238D01*
X11479286Y-10891762D02*
X11484048Y-10887000D01*
X11493571Y-10882238D01*
X11517381Y-10882238D01*
X11526905Y-10887000D01*
X11531667Y-10891762D01*
X11536428Y-10901286D01*
X11536428Y-10910810D01*
X11531667Y-10925095D01*
X11474524Y-10982238D01*
X11536428Y-10982238D01*
X11214881Y-10692738D02*
X11224405Y-10692738D01*
X11233928Y-10697500D01*
X11238690Y-10702262D01*
X11243452Y-10711786D01*
X11248214Y-10730833D01*
X11248214Y-10754643D01*
X11243452Y-10773690D01*
X11238690Y-10783214D01*
X11233928Y-10787976D01*
X11224405Y-10792738D01*
X11214881Y-10792738D01*
X11205357Y-10787976D01*
X11200595Y-10783214D01*
X11195833Y-10773690D01*
X11191071Y-10754643D01*
X11191071Y-10730833D01*
X11195833Y-10711786D01*
X11200595Y-10702262D01*
X11205357Y-10697500D01*
X11214881Y-10692738D01*
X11333928Y-10692738D02*
X11314881Y-10692738D01*
X11305357Y-10697500D01*
X11300595Y-10702262D01*
X11291071Y-10716548D01*
X11286309Y-10735595D01*
X11286309Y-10773690D01*
X11291071Y-10783214D01*
X11295833Y-10787976D01*
X11305357Y-10792738D01*
X11324405Y-10792738D01*
X11333928Y-10787976D01*
X11338690Y-10783214D01*
X11343452Y-10773690D01*
X11343452Y-10749881D01*
X11338690Y-10740357D01*
X11333928Y-10735595D01*
X11324405Y-10730833D01*
X11305357Y-10730833D01*
X11295833Y-10735595D01*
X11291071Y-10740357D01*
X11286309Y-10749881D01*
X11405357Y-10692738D02*
X11414881Y-10692738D01*
X11424405Y-10697500D01*
X11429167Y-10702262D01*
X11433928Y-10711786D01*
X11438690Y-10730833D01*
X11438690Y-10754643D01*
X11433928Y-10773690D01*
X11429167Y-10783214D01*
X11424405Y-10787976D01*
X11414881Y-10792738D01*
X11405357Y-10792738D01*
X11395833Y-10787976D01*
X11391071Y-10783214D01*
X11386309Y-10773690D01*
X11381548Y-10754643D01*
X11381548Y-10730833D01*
X11386309Y-10711786D01*
X11391071Y-10702262D01*
X11395833Y-10697500D01*
X11405357Y-10692738D01*
X11472024Y-10692738D02*
X11533928Y-10692738D01*
X11500595Y-10730833D01*
X11514881Y-10730833D01*
X11524405Y-10735595D01*
X11529167Y-10740357D01*
X11533928Y-10749881D01*
X11533928Y-10773690D01*
X11529167Y-10783214D01*
X11524405Y-10787976D01*
X11514881Y-10792738D01*
X11486309Y-10792738D01*
X11476786Y-10787976D01*
X11472024Y-10783214D01*
X11217381Y-10487638D02*
X11226905Y-10487638D01*
X11236428Y-10492400D01*
X11241190Y-10497162D01*
X11245952Y-10506686D01*
X11250714Y-10525733D01*
X11250714Y-10549543D01*
X11245952Y-10568590D01*
X11241190Y-10578114D01*
X11236428Y-10582876D01*
X11226905Y-10587638D01*
X11217381Y-10587638D01*
X11207857Y-10582876D01*
X11203095Y-10578114D01*
X11198333Y-10568590D01*
X11193571Y-10549543D01*
X11193571Y-10525733D01*
X11198333Y-10506686D01*
X11203095Y-10497162D01*
X11207857Y-10492400D01*
X11217381Y-10487638D01*
X11307857Y-10530495D02*
X11298333Y-10525733D01*
X11293571Y-10520971D01*
X11288809Y-10511448D01*
X11288809Y-10506686D01*
X11293571Y-10497162D01*
X11298333Y-10492400D01*
X11307857Y-10487638D01*
X11326905Y-10487638D01*
X11336428Y-10492400D01*
X11341190Y-10497162D01*
X11345952Y-10506686D01*
X11345952Y-10511448D01*
X11341190Y-10520971D01*
X11336428Y-10525733D01*
X11326905Y-10530495D01*
X11307857Y-10530495D01*
X11298333Y-10535257D01*
X11293571Y-10540019D01*
X11288809Y-10549543D01*
X11288809Y-10568590D01*
X11293571Y-10578114D01*
X11298333Y-10582876D01*
X11307857Y-10587638D01*
X11326905Y-10587638D01*
X11336428Y-10582876D01*
X11341190Y-10578114D01*
X11345952Y-10568590D01*
X11345952Y-10549543D01*
X11341190Y-10540019D01*
X11336428Y-10535257D01*
X11326905Y-10530495D01*
X11407857Y-10487638D02*
X11417381Y-10487638D01*
X11426905Y-10492400D01*
X11431667Y-10497162D01*
X11436428Y-10506686D01*
X11441190Y-10525733D01*
X11441190Y-10549543D01*
X11436428Y-10568590D01*
X11431667Y-10578114D01*
X11426905Y-10582876D01*
X11417381Y-10587638D01*
X11407857Y-10587638D01*
X11398333Y-10582876D01*
X11393571Y-10578114D01*
X11388809Y-10568590D01*
X11384048Y-10549543D01*
X11384048Y-10525733D01*
X11388809Y-10506686D01*
X11393571Y-10497162D01*
X11398333Y-10492400D01*
X11407857Y-10487638D01*
X11531667Y-10487638D02*
X11484048Y-10487638D01*
X11479286Y-10535257D01*
X11484048Y-10530495D01*
X11493571Y-10525733D01*
X11517381Y-10525733D01*
X11526905Y-10530495D01*
X11531667Y-10535257D01*
X11536428Y-10544781D01*
X11536428Y-10568590D01*
X11531667Y-10578114D01*
X11526905Y-10582876D01*
X11517381Y-10587638D01*
X11493571Y-10587638D01*
X11484048Y-10582876D01*
X11479286Y-10578114D01*
X11250714Y-10333888D02*
X11193571Y-10333888D01*
X11222143Y-10333888D02*
X11222143Y-10233888D01*
X11212619Y-10248174D01*
X11203095Y-10257698D01*
X11193571Y-10262460D01*
X11288809Y-10243412D02*
X11293571Y-10238650D01*
X11303095Y-10233888D01*
X11326905Y-10233888D01*
X11336428Y-10238650D01*
X11341190Y-10243412D01*
X11345952Y-10252936D01*
X11345952Y-10262460D01*
X11341190Y-10276745D01*
X11284048Y-10333888D01*
X11345952Y-10333888D01*
X11407857Y-10233888D02*
X11417381Y-10233888D01*
X11426905Y-10238650D01*
X11431667Y-10243412D01*
X11436428Y-10252936D01*
X11441190Y-10271983D01*
X11441190Y-10295793D01*
X11436428Y-10314840D01*
X11431667Y-10324364D01*
X11426905Y-10329126D01*
X11417381Y-10333888D01*
X11407857Y-10333888D01*
X11398333Y-10329126D01*
X11393571Y-10324364D01*
X11388809Y-10314840D01*
X11384048Y-10295793D01*
X11384048Y-10271983D01*
X11388809Y-10252936D01*
X11393571Y-10243412D01*
X11398333Y-10238650D01*
X11407857Y-10233888D01*
X11526905Y-10233888D02*
X11507857Y-10233888D01*
X11498333Y-10238650D01*
X11493571Y-10243412D01*
X11484048Y-10257698D01*
X11479286Y-10276745D01*
X11479286Y-10314840D01*
X11484048Y-10324364D01*
X11488809Y-10329126D01*
X11498333Y-10333888D01*
X11517381Y-10333888D01*
X11526905Y-10329126D01*
X11531667Y-10324364D01*
X11536428Y-10314840D01*
X11536428Y-10291031D01*
X11531667Y-10281507D01*
X11526905Y-10276745D01*
X11517381Y-10271983D01*
X11498333Y-10271983D01*
X11488809Y-10276745D01*
X11484048Y-10281507D01*
X11479286Y-10291031D01*
D11*
G04 #@! TO.C,SW8*
X18845000Y-10815000D02*
X18820000Y-10815000D01*
X18820000Y-10815000D02*
X18820000Y-10515000D01*
X18820000Y-10515000D02*
X18845000Y-10515000D01*
X19045000Y-10815000D02*
X19070000Y-10815000D01*
X19070000Y-10815000D02*
X19070000Y-10515000D01*
X19070000Y-10515000D02*
X19045000Y-10515000D01*
D12*
G04 #@! TO.C,LED6*
X10962400Y-11110000D02*
G75*
G03X10962400Y-11110000I-5000J0D01*
G01*
D13*
G04 #@! TO.C,SW6*
X16312778Y-10597500D02*
G75*
G03X16312778Y-10597500I-180278J0D01*
G01*
X15782500Y-10897500D02*
X16482500Y-10897500D01*
X15782500Y-10297500D02*
X15782500Y-10897500D01*
X16482500Y-10297500D02*
X15782500Y-10297500D01*
X16482500Y-10897500D02*
X16482500Y-10297500D01*
D14*
G04 #@! TO.C,J1*
X21921932Y-10220430D02*
X22422058Y-10220430D01*
X21921932Y-11000210D02*
X21921932Y-10220430D01*
X22422058Y-11000210D02*
X21921932Y-11000210D01*
X22401992Y-11030436D02*
X22422058Y-11030436D01*
X22401992Y-10190204D02*
X22401992Y-11030436D01*
X22422058Y-10190204D02*
X22401992Y-10190204D01*
X22422058Y-11030436D02*
X22422058Y-10190204D01*
X22411898Y-11030436D02*
X22411898Y-10190204D01*
D15*
G04 #@! TO.C,LED5*
X10598400Y-10211650D02*
X10598400Y-10381650D01*
X10603400Y-10381650D02*
X11008400Y-10381650D01*
X10603400Y-10211650D02*
X11008400Y-10211650D01*
G04 #@! TO.C,LED4*
X10738400Y-10480400D02*
X10738400Y-10620400D01*
X10738400Y-10620400D02*
X11018400Y-10620400D01*
X10738400Y-10480400D02*
X11018400Y-10480400D01*
G04 #@! TO.C,LED3*
X10838400Y-10707550D02*
X10838400Y-10807550D01*
X10838400Y-10807550D02*
X11048400Y-10807550D01*
X10838400Y-10707550D02*
X11048400Y-10707550D01*
G04 #@! TO.C,LED2*
X10918400Y-10900000D02*
X10918400Y-10990000D01*
X10918400Y-10990000D02*
X11063400Y-10990000D01*
X10918400Y-10900000D02*
X11063400Y-10900000D01*
G04 #@! TO.C,R4*
X11724200Y-10462400D02*
X11844200Y-10462400D01*
X11844200Y-10638400D02*
X11724200Y-10638400D01*
G04 #@! TO.C,R3*
X11704200Y-10689550D02*
X11804200Y-10689550D01*
X11804200Y-10825550D02*
X11704200Y-10825550D01*
G04 #@! TO.C,R2*
X11684200Y-10998000D02*
X11734200Y-10998000D01*
X11734200Y-10892000D02*
X11684200Y-10892000D01*
G04 #@! TO.C,R1*
X11672200Y-11154000D02*
X11696200Y-11154000D01*
X11696200Y-11066000D02*
X11672200Y-11066000D01*
D12*
G04 #@! TO.C,SW3*
X17695000Y-10075000D02*
X17695000Y-10125000D01*
X17695000Y-10075000D02*
X17645000Y-10075000D01*
X17375000Y-10075000D02*
X17415000Y-10075000D01*
X17375000Y-10075000D02*
X17375000Y-10125000D01*
X17375000Y-10395000D02*
X17375000Y-10345000D01*
X17375000Y-10395000D02*
X17425000Y-10395000D01*
X17695000Y-10395000D02*
X17695000Y-10345000D01*
X17695000Y-10345000D02*
X17735000Y-10345000D01*
X17695000Y-10395000D02*
X17645000Y-10395000D01*
D15*
G04 #@! TO.C,SW1*
X18560000Y-10900000D02*
X18560000Y-10890000D01*
X18120000Y-11050000D02*
X18560000Y-11050000D01*
X18560000Y-10740000D02*
X18120000Y-10740000D01*
X18120000Y-10900000D02*
X18120000Y-10890000D01*
G04 #@! TO.C,R5*
X11744200Y-10189400D02*
X11944200Y-10189400D01*
X11944200Y-10403400D02*
X11744200Y-10403400D01*
G04 #@! TO.C,D6*
X13537200Y-11143400D02*
X13537200Y-11263400D01*
X13722200Y-11143400D02*
X13537200Y-11143400D01*
X13722200Y-11263400D02*
X13537200Y-11263400D01*
G04 #@! TO.C,D5*
X13476800Y-10915200D02*
X13476800Y-11085200D01*
X13476800Y-11085200D02*
X13731800Y-11085200D01*
X13476800Y-10915200D02*
X13731800Y-10915200D01*
G04 #@! TO.C,D4*
X13325600Y-10671600D02*
X13325600Y-10871600D01*
X13325600Y-10871600D02*
X13715600Y-10871600D01*
X13325600Y-10671600D02*
X13715600Y-10671600D01*
G04 #@! TO.C,D3*
X12307000Y-11244000D02*
X12307000Y-10594000D01*
X12307000Y-11244000D02*
X13147000Y-11244000D01*
X12307000Y-10594000D02*
X13147000Y-10594000D01*
G04 #@! TO.C,D2*
X13475000Y-10175600D02*
X13475000Y-10605600D01*
X13475000Y-10605600D02*
X14045000Y-10605600D01*
X13475000Y-10175600D02*
X14045000Y-10175600D01*
G04 #@! TO.C,D1*
X12517000Y-10184000D02*
X12517000Y-10514000D01*
X12517000Y-10514000D02*
X13057000Y-10514000D01*
X12517000Y-10184000D02*
X13057000Y-10184000D01*
D12*
G04 #@! TO.C,SW7*
X15582500Y-10510000D02*
X15547500Y-10472500D01*
X15547500Y-10472500D02*
X15437500Y-10472500D01*
X15437500Y-10472500D02*
X15437500Y-10367500D01*
X15535000Y-10857500D02*
X15582500Y-10857500D01*
X15582500Y-10857500D02*
X15582500Y-10817500D01*
X14657500Y-10510000D02*
X14657500Y-10472500D01*
X14657500Y-10472500D02*
X14692500Y-10472500D01*
X14697500Y-10857500D02*
X14657500Y-10857500D01*
X14657500Y-10857500D02*
X14657500Y-10820000D01*
G04 #@! TO.C,SW5*
X17565000Y-11110000D02*
X17625000Y-11110000D01*
X17565000Y-11110000D02*
X17505000Y-11110000D01*
X17325000Y-10870000D02*
X17325000Y-10810000D01*
X17325000Y-10870000D02*
X17325000Y-10930000D01*
X17565000Y-10630000D02*
X17625000Y-10630000D01*
X17565000Y-10630000D02*
X17505000Y-10630000D01*
X17805000Y-10870000D02*
X17805000Y-10810000D01*
X17805000Y-10870000D02*
X17805000Y-10930000D01*
D15*
G04 #@! TO.C,SW2*
X18695000Y-10030000D02*
X18695000Y-10095000D01*
X18695000Y-10400000D02*
X18695000Y-10335000D01*
X18075000Y-10335000D02*
X18075000Y-10400000D01*
X18075000Y-10030000D02*
X18075000Y-10095000D01*
X18695000Y-10030000D02*
X18075000Y-10030000D01*
X18075000Y-10400000D02*
X18695000Y-10400000D01*
D16*
G04 #@! TO.C,SW4*
X16940076Y-10560000D02*
G75*
G03X16940076Y-10560000I-100076J0D01*
G01*
X16579904Y-10690048D02*
X16709952Y-10820096D01*
X16970048Y-10820096D02*
X17100096Y-10690048D01*
X16579904Y-10429952D02*
X16579904Y-10690048D01*
X16709952Y-10299904D02*
X16579904Y-10429952D01*
X16970048Y-10299904D02*
X16709952Y-10299904D01*
X17100096Y-10429952D02*
X16970048Y-10299904D01*
X16709952Y-10820096D02*
X16970048Y-10820096D01*
X17100096Y-10690048D02*
X17100096Y-10429952D01*
X16739924Y-10759898D02*
X16940076Y-10759898D01*
X16640102Y-10660076D02*
X16739924Y-10759898D01*
X16640102Y-10459924D02*
X16640102Y-10660076D01*
X16739924Y-10360102D02*
X16640102Y-10459924D01*
X16940076Y-10360102D02*
X16739924Y-10360102D01*
X17039898Y-10459924D02*
X16940076Y-10360102D01*
X17039898Y-10660076D02*
X17039898Y-10459924D01*
X16940076Y-10759898D02*
X17039898Y-10660076D01*
X16689886Y-10889946D02*
X16689886Y-10800030D01*
X16620036Y-10889946D02*
X16689886Y-10889946D01*
X16620036Y-10729926D02*
X16620036Y-10889946D01*
X16990114Y-10889946D02*
X16990114Y-10800030D01*
X17059964Y-10889946D02*
X17059964Y-10729926D01*
X16990114Y-10889946D02*
X17059964Y-10889946D01*
X16990114Y-10230054D02*
X16990114Y-10319970D01*
X17059964Y-10230054D02*
X16990114Y-10230054D01*
X17059964Y-10390074D02*
X17059964Y-10230054D01*
X16620036Y-10230054D02*
X16620036Y-10390074D01*
X16689886Y-10230054D02*
X16620036Y-10230054D01*
X16689886Y-10319970D02*
X16689886Y-10230054D01*
D17*
G04 #@! TO.C,DRAWING3*
G36*
X11594697Y-10021755D02*
X11599395Y-10021938D01*
X11602924Y-10022392D01*
X11605969Y-10023238D01*
X11609217Y-10024598D01*
X11612082Y-10025973D01*
X11621768Y-10032055D01*
X11630288Y-10040058D01*
X11637365Y-10049544D01*
X11642723Y-10060072D01*
X11646086Y-10071206D01*
X11647181Y-10081729D01*
X11647200Y-10087126D01*
X11547810Y-10087126D01*
X11548441Y-10092726D01*
X11550509Y-10100784D01*
X11554637Y-10108711D01*
X11560387Y-10115905D01*
X11567324Y-10121766D01*
X11571159Y-10124037D01*
X11579450Y-10126904D01*
X11588393Y-10127624D01*
X11597510Y-10126329D01*
X11606326Y-10123148D01*
X11614364Y-10118211D01*
X11621148Y-10111649D01*
X11622396Y-10110039D01*
X11626881Y-10103930D01*
X11635137Y-10108314D01*
X11643394Y-10112698D01*
X11639673Y-10118106D01*
X11632610Y-10126606D01*
X11624130Y-10133920D01*
X11614772Y-10139696D01*
X11605073Y-10143581D01*
X11598663Y-10144950D01*
X11593039Y-10145657D01*
X11589068Y-10146019D01*
X11585889Y-10146060D01*
X11582641Y-10145803D01*
X11579890Y-10145462D01*
X11568468Y-10142712D01*
X11557929Y-10137716D01*
X11548590Y-10130704D01*
X11540770Y-10121907D01*
X11535675Y-10113445D01*
X11532530Y-10106281D01*
X11530528Y-10099527D01*
X11529461Y-10092227D01*
X11529122Y-10083426D01*
X11529121Y-10083132D01*
X11530270Y-10070402D01*
X11530575Y-10069346D01*
X11549614Y-10069346D01*
X11587612Y-10069346D01*
X11598931Y-10069323D01*
X11607927Y-10069249D01*
X11614814Y-10069115D01*
X11619809Y-10068911D01*
X11623127Y-10068628D01*
X11624984Y-10068258D01*
X11625596Y-10067792D01*
X11625598Y-10067759D01*
X11624821Y-10065140D01*
X11622819Y-10061316D01*
X11620045Y-10056985D01*
X11616954Y-10052849D01*
X11613999Y-10049607D01*
X11613609Y-10049253D01*
X11607302Y-10044368D01*
X11601296Y-10041359D01*
X11594670Y-10039874D01*
X11588145Y-10039548D01*
X11582393Y-10039698D01*
X11578173Y-10040283D01*
X11574486Y-10041505D01*
X11571498Y-10042948D01*
X11565610Y-10046889D01*
X11559880Y-10052202D01*
X11555026Y-10058118D01*
X11551768Y-10063870D01*
X11551663Y-10064130D01*
X11549614Y-10069346D01*
X11530575Y-10069346D01*
X11533695Y-10058544D01*
X11539253Y-10047791D01*
X11546802Y-10038374D01*
X11556197Y-10030525D01*
X11564650Y-10025671D01*
X11568331Y-10023982D01*
X11571428Y-10022858D01*
X11574621Y-10022184D01*
X11578592Y-10021847D01*
X11584023Y-10021732D01*
X11588145Y-10021721D01*
X11594697Y-10021755D01*
X11594697Y-10021755D01*
G37*
X11594697Y-10021755D02*
X11599395Y-10021938D01*
X11602924Y-10022392D01*
X11605969Y-10023238D01*
X11609217Y-10024598D01*
X11612082Y-10025973D01*
X11621768Y-10032055D01*
X11630288Y-10040058D01*
X11637365Y-10049544D01*
X11642723Y-10060072D01*
X11646086Y-10071206D01*
X11647181Y-10081729D01*
X11647200Y-10087126D01*
X11547810Y-10087126D01*
X11548441Y-10092726D01*
X11550509Y-10100784D01*
X11554637Y-10108711D01*
X11560387Y-10115905D01*
X11567324Y-10121766D01*
X11571159Y-10124037D01*
X11579450Y-10126904D01*
X11588393Y-10127624D01*
X11597510Y-10126329D01*
X11606326Y-10123148D01*
X11614364Y-10118211D01*
X11621148Y-10111649D01*
X11622396Y-10110039D01*
X11626881Y-10103930D01*
X11635137Y-10108314D01*
X11643394Y-10112698D01*
X11639673Y-10118106D01*
X11632610Y-10126606D01*
X11624130Y-10133920D01*
X11614772Y-10139696D01*
X11605073Y-10143581D01*
X11598663Y-10144950D01*
X11593039Y-10145657D01*
X11589068Y-10146019D01*
X11585889Y-10146060D01*
X11582641Y-10145803D01*
X11579890Y-10145462D01*
X11568468Y-10142712D01*
X11557929Y-10137716D01*
X11548590Y-10130704D01*
X11540770Y-10121907D01*
X11535675Y-10113445D01*
X11532530Y-10106281D01*
X11530528Y-10099527D01*
X11529461Y-10092227D01*
X11529122Y-10083426D01*
X11529121Y-10083132D01*
X11530270Y-10070402D01*
X11530575Y-10069346D01*
X11549614Y-10069346D01*
X11587612Y-10069346D01*
X11598931Y-10069323D01*
X11607927Y-10069249D01*
X11614814Y-10069115D01*
X11619809Y-10068911D01*
X11623127Y-10068628D01*
X11624984Y-10068258D01*
X11625596Y-10067792D01*
X11625598Y-10067759D01*
X11624821Y-10065140D01*
X11622819Y-10061316D01*
X11620045Y-10056985D01*
X11616954Y-10052849D01*
X11613999Y-10049607D01*
X11613609Y-10049253D01*
X11607302Y-10044368D01*
X11601296Y-10041359D01*
X11594670Y-10039874D01*
X11588145Y-10039548D01*
X11582393Y-10039698D01*
X11578173Y-10040283D01*
X11574486Y-10041505D01*
X11571498Y-10042948D01*
X11565610Y-10046889D01*
X11559880Y-10052202D01*
X11555026Y-10058118D01*
X11551768Y-10063870D01*
X11551663Y-10064130D01*
X11549614Y-10069346D01*
X11530575Y-10069346D01*
X11533695Y-10058544D01*
X11539253Y-10047791D01*
X11546802Y-10038374D01*
X11556197Y-10030525D01*
X11564650Y-10025671D01*
X11568331Y-10023982D01*
X11571428Y-10022858D01*
X11574621Y-10022184D01*
X11578592Y-10021847D01*
X11584023Y-10021732D01*
X11588145Y-10021721D01*
X11594697Y-10021755D01*
G36*
X11719521Y-10020799D02*
X11726187Y-10021938D01*
X11728826Y-10022862D01*
X11735740Y-10027044D01*
X11742129Y-10033034D01*
X11747315Y-10040107D01*
X11749919Y-10045454D01*
X11750491Y-10047314D01*
X11750154Y-10048571D01*
X11748453Y-10049644D01*
X11744932Y-10050954D01*
X11743406Y-10051472D01*
X11739172Y-10052834D01*
X11735845Y-10053781D01*
X11734266Y-10054093D01*
X11732995Y-10053020D01*
X11731399Y-10050341D01*
X11730819Y-10049065D01*
X11727336Y-10043798D01*
X11722187Y-10040372D01*
X11715582Y-10038915D01*
X11714095Y-10038871D01*
X11708178Y-10039870D01*
X11703777Y-10042710D01*
X11701163Y-10047141D01*
X11700540Y-10051376D01*
X11700867Y-10054870D01*
X11702226Y-10057482D01*
X11705187Y-10060291D01*
X11705274Y-10060364D01*
X11708257Y-10062653D01*
X11710484Y-10064057D01*
X11711085Y-10064266D01*
X11712585Y-10064784D01*
X11715894Y-10066196D01*
X11720535Y-10068291D01*
X11726031Y-10070859D01*
X11726457Y-10071061D01*
X11736443Y-10076240D01*
X11744145Y-10081304D01*
X11749788Y-10086527D01*
X11753599Y-10092179D01*
X11755802Y-10098532D01*
X11756625Y-10105857D01*
X11756644Y-10107325D01*
X11755639Y-10116816D01*
X11752515Y-10125094D01*
X11747108Y-10132564D01*
X11746031Y-10133701D01*
X11738646Y-10139523D01*
X11729838Y-10143671D01*
X11720211Y-10146002D01*
X11710367Y-10146375D01*
X11700909Y-10144648D01*
X11700286Y-10144448D01*
X11691182Y-10140162D01*
X11683623Y-10133863D01*
X11679124Y-10128038D01*
X11677005Y-10124107D01*
X11675020Y-10119356D01*
X11673362Y-10114421D01*
X11672220Y-10109937D01*
X11671787Y-10106538D01*
X11672172Y-10104922D01*
X11673905Y-10104311D01*
X11677395Y-10103662D01*
X11681586Y-10103148D01*
X11689938Y-10102341D01*
X11691437Y-10108837D01*
X11694238Y-10116660D01*
X11698555Y-10122448D01*
X11704387Y-10126197D01*
X11711731Y-10127905D01*
X11714537Y-10128020D01*
X11722515Y-10127003D01*
X11729125Y-10124043D01*
X11734135Y-10119274D01*
X11736345Y-10115442D01*
X11738150Y-10109616D01*
X11738012Y-10104402D01*
X11735811Y-10099632D01*
X11731431Y-10095134D01*
X11724752Y-10090741D01*
X11716116Y-10086486D01*
X11707573Y-10082605D01*
X11701010Y-10079378D01*
X11696028Y-10076569D01*
X11692230Y-10073943D01*
X11689216Y-10071264D01*
X11687808Y-10069750D01*
X11684331Y-10065192D01*
X11682308Y-10060705D01*
X11681411Y-10055337D01*
X11681277Y-10050751D01*
X11682328Y-10042293D01*
X11685493Y-10035097D01*
X11690866Y-10029023D01*
X11698538Y-10023930D01*
X11699270Y-10023552D01*
X11705039Y-10021630D01*
X11712131Y-10020704D01*
X11719521Y-10020799D01*
X11719521Y-10020799D01*
G37*
X11719521Y-10020799D02*
X11726187Y-10021938D01*
X11728826Y-10022862D01*
X11735740Y-10027044D01*
X11742129Y-10033034D01*
X11747315Y-10040107D01*
X11749919Y-10045454D01*
X11750491Y-10047314D01*
X11750154Y-10048571D01*
X11748453Y-10049644D01*
X11744932Y-10050954D01*
X11743406Y-10051472D01*
X11739172Y-10052834D01*
X11735845Y-10053781D01*
X11734266Y-10054093D01*
X11732995Y-10053020D01*
X11731399Y-10050341D01*
X11730819Y-10049065D01*
X11727336Y-10043798D01*
X11722187Y-10040372D01*
X11715582Y-10038915D01*
X11714095Y-10038871D01*
X11708178Y-10039870D01*
X11703777Y-10042710D01*
X11701163Y-10047141D01*
X11700540Y-10051376D01*
X11700867Y-10054870D01*
X11702226Y-10057482D01*
X11705187Y-10060291D01*
X11705274Y-10060364D01*
X11708257Y-10062653D01*
X11710484Y-10064057D01*
X11711085Y-10064266D01*
X11712585Y-10064784D01*
X11715894Y-10066196D01*
X11720535Y-10068291D01*
X11726031Y-10070859D01*
X11726457Y-10071061D01*
X11736443Y-10076240D01*
X11744145Y-10081304D01*
X11749788Y-10086527D01*
X11753599Y-10092179D01*
X11755802Y-10098532D01*
X11756625Y-10105857D01*
X11756644Y-10107325D01*
X11755639Y-10116816D01*
X11752515Y-10125094D01*
X11747108Y-10132564D01*
X11746031Y-10133701D01*
X11738646Y-10139523D01*
X11729838Y-10143671D01*
X11720211Y-10146002D01*
X11710367Y-10146375D01*
X11700909Y-10144648D01*
X11700286Y-10144448D01*
X11691182Y-10140162D01*
X11683623Y-10133863D01*
X11679124Y-10128038D01*
X11677005Y-10124107D01*
X11675020Y-10119356D01*
X11673362Y-10114421D01*
X11672220Y-10109937D01*
X11671787Y-10106538D01*
X11672172Y-10104922D01*
X11673905Y-10104311D01*
X11677395Y-10103662D01*
X11681586Y-10103148D01*
X11689938Y-10102341D01*
X11691437Y-10108837D01*
X11694238Y-10116660D01*
X11698555Y-10122448D01*
X11704387Y-10126197D01*
X11711731Y-10127905D01*
X11714537Y-10128020D01*
X11722515Y-10127003D01*
X11729125Y-10124043D01*
X11734135Y-10119274D01*
X11736345Y-10115442D01*
X11738150Y-10109616D01*
X11738012Y-10104402D01*
X11735811Y-10099632D01*
X11731431Y-10095134D01*
X11724752Y-10090741D01*
X11716116Y-10086486D01*
X11707573Y-10082605D01*
X11701010Y-10079378D01*
X11696028Y-10076569D01*
X11692230Y-10073943D01*
X11689216Y-10071264D01*
X11687808Y-10069750D01*
X11684331Y-10065192D01*
X11682308Y-10060705D01*
X11681411Y-10055337D01*
X11681277Y-10050751D01*
X11682328Y-10042293D01*
X11685493Y-10035097D01*
X11690866Y-10029023D01*
X11698538Y-10023930D01*
X11699270Y-10023552D01*
X11705039Y-10021630D01*
X11712131Y-10020704D01*
X11719521Y-10020799D01*
G36*
X11882019Y-10020817D02*
X11890611Y-10023056D01*
X11898373Y-10027231D01*
X11904392Y-10032768D01*
X11906930Y-10036211D01*
X11909318Y-10040158D01*
X11911227Y-10043957D01*
X11912331Y-10046958D01*
X11912319Y-10048490D01*
X11910801Y-10049295D01*
X11907584Y-10050644D01*
X11903409Y-10052228D01*
X11895288Y-10055175D01*
X11893748Y-10050918D01*
X11891789Y-10047372D01*
X11888779Y-10043720D01*
X11887770Y-10042763D01*
X11882751Y-10039768D01*
X11877159Y-10038662D01*
X11871650Y-10039377D01*
X11866882Y-10041846D01*
X11863945Y-10045203D01*
X11862186Y-10049680D01*
X11862499Y-10053845D01*
X11864983Y-10057819D01*
X11869736Y-10061725D01*
X11876857Y-10065687D01*
X11882421Y-10068190D01*
X11893682Y-10073412D01*
X11902581Y-10078607D01*
X11909295Y-10083896D01*
X11913997Y-10089398D01*
X11914510Y-10090200D01*
X11916420Y-10093554D01*
X11917566Y-10096512D01*
X11918140Y-10099928D01*
X11918332Y-10104654D01*
X11918345Y-10107345D01*
X11917665Y-10116481D01*
X11915479Y-10123962D01*
X11911566Y-10130325D01*
X11906926Y-10135073D01*
X11898992Y-10140498D01*
X11889807Y-10144312D01*
X11880064Y-10146342D01*
X11870451Y-10146415D01*
X11865303Y-10145515D01*
X11856050Y-10141916D01*
X11848110Y-10136212D01*
X11841704Y-10128592D01*
X11838461Y-10122686D01*
X11836438Y-10117591D01*
X11834970Y-10112623D01*
X11834182Y-10108385D01*
X11834199Y-10105479D01*
X11834706Y-10104587D01*
X11836446Y-10104140D01*
X11839950Y-10103586D01*
X11844367Y-10103056D01*
X11852940Y-10102164D01*
X11852940Y-10105481D01*
X11854066Y-10111567D01*
X11857107Y-10117625D01*
X11861556Y-10122860D01*
X11866070Y-10126072D01*
X11870283Y-10127356D01*
X11875820Y-10127880D01*
X11881574Y-10127623D01*
X11886437Y-10126560D01*
X11886595Y-10126502D01*
X11892425Y-10123169D01*
X11896638Y-10118506D01*
X11899145Y-10113001D01*
X11899858Y-10107140D01*
X11898686Y-10101410D01*
X11895540Y-10096299D01*
X11892608Y-10093688D01*
X11890005Y-10092146D01*
X11885711Y-10089930D01*
X11880369Y-10087362D01*
X11875777Y-10085272D01*
X11865731Y-10080563D01*
X11857900Y-10076224D01*
X11852040Y-10071997D01*
X11847906Y-10067622D01*
X11845254Y-10062840D01*
X11843838Y-10057389D01*
X11843415Y-10051012D01*
X11843415Y-10050931D01*
X11844400Y-10042286D01*
X11847430Y-10035074D01*
X11852618Y-10029078D01*
X11856207Y-10026369D01*
X11864322Y-10022408D01*
X11873091Y-10020579D01*
X11882019Y-10020817D01*
X11882019Y-10020817D01*
G37*
X11882019Y-10020817D02*
X11890611Y-10023056D01*
X11898373Y-10027231D01*
X11904392Y-10032768D01*
X11906930Y-10036211D01*
X11909318Y-10040158D01*
X11911227Y-10043957D01*
X11912331Y-10046958D01*
X11912319Y-10048490D01*
X11910801Y-10049295D01*
X11907584Y-10050644D01*
X11903409Y-10052228D01*
X11895288Y-10055175D01*
X11893748Y-10050918D01*
X11891789Y-10047372D01*
X11888779Y-10043720D01*
X11887770Y-10042763D01*
X11882751Y-10039768D01*
X11877159Y-10038662D01*
X11871650Y-10039377D01*
X11866882Y-10041846D01*
X11863945Y-10045203D01*
X11862186Y-10049680D01*
X11862499Y-10053845D01*
X11864983Y-10057819D01*
X11869736Y-10061725D01*
X11876857Y-10065687D01*
X11882421Y-10068190D01*
X11893682Y-10073412D01*
X11902581Y-10078607D01*
X11909295Y-10083896D01*
X11913997Y-10089398D01*
X11914510Y-10090200D01*
X11916420Y-10093554D01*
X11917566Y-10096512D01*
X11918140Y-10099928D01*
X11918332Y-10104654D01*
X11918345Y-10107345D01*
X11917665Y-10116481D01*
X11915479Y-10123962D01*
X11911566Y-10130325D01*
X11906926Y-10135073D01*
X11898992Y-10140498D01*
X11889807Y-10144312D01*
X11880064Y-10146342D01*
X11870451Y-10146415D01*
X11865303Y-10145515D01*
X11856050Y-10141916D01*
X11848110Y-10136212D01*
X11841704Y-10128592D01*
X11838461Y-10122686D01*
X11836438Y-10117591D01*
X11834970Y-10112623D01*
X11834182Y-10108385D01*
X11834199Y-10105479D01*
X11834706Y-10104587D01*
X11836446Y-10104140D01*
X11839950Y-10103586D01*
X11844367Y-10103056D01*
X11852940Y-10102164D01*
X11852940Y-10105481D01*
X11854066Y-10111567D01*
X11857107Y-10117625D01*
X11861556Y-10122860D01*
X11866070Y-10126072D01*
X11870283Y-10127356D01*
X11875820Y-10127880D01*
X11881574Y-10127623D01*
X11886437Y-10126560D01*
X11886595Y-10126502D01*
X11892425Y-10123169D01*
X11896638Y-10118506D01*
X11899145Y-10113001D01*
X11899858Y-10107140D01*
X11898686Y-10101410D01*
X11895540Y-10096299D01*
X11892608Y-10093688D01*
X11890005Y-10092146D01*
X11885711Y-10089930D01*
X11880369Y-10087362D01*
X11875777Y-10085272D01*
X11865731Y-10080563D01*
X11857900Y-10076224D01*
X11852040Y-10071997D01*
X11847906Y-10067622D01*
X11845254Y-10062840D01*
X11843838Y-10057389D01*
X11843415Y-10051012D01*
X11843415Y-10050931D01*
X11844400Y-10042286D01*
X11847430Y-10035074D01*
X11852618Y-10029078D01*
X11856207Y-10026369D01*
X11864322Y-10022408D01*
X11873091Y-10020579D01*
X11882019Y-10020817D01*
G36*
X12087197Y-10021367D02*
X12096455Y-10022857D01*
X12100733Y-10024104D01*
X12112178Y-10029365D01*
X12122155Y-10036409D01*
X12130492Y-10044966D01*
X12137017Y-10054765D01*
X12141558Y-10065538D01*
X12143941Y-10077013D01*
X12143997Y-10088920D01*
X12143688Y-10091511D01*
X12140770Y-10103654D01*
X12135758Y-10114583D01*
X12128865Y-10124138D01*
X12120309Y-10132159D01*
X12110304Y-10138488D01*
X12099066Y-10142965D01*
X12086809Y-10145431D01*
X12073751Y-10145725D01*
X12070745Y-10145478D01*
X12058602Y-10143029D01*
X12047365Y-10138374D01*
X12037293Y-10131757D01*
X12028643Y-10123417D01*
X12021673Y-10113597D01*
X12016640Y-10102537D01*
X12014097Y-10092453D01*
X12013719Y-10086028D01*
X12032981Y-10086028D01*
X12034605Y-10095152D01*
X12038128Y-10103820D01*
X12043477Y-10111711D01*
X12050579Y-10118503D01*
X12059362Y-10123877D01*
X12063835Y-10125743D01*
X12070302Y-10127198D01*
X12078122Y-10127624D01*
X12086352Y-10127075D01*
X12094047Y-10125604D01*
X12099320Y-10123737D01*
X12108526Y-10118237D01*
X12115868Y-10111140D01*
X12120999Y-10103415D01*
X12123059Y-10099439D01*
X12124342Y-10096209D01*
X12125029Y-10092881D01*
X12125304Y-10088610D01*
X12125349Y-10083316D01*
X12125261Y-10077314D01*
X12124906Y-10073052D01*
X12124139Y-10069733D01*
X12122811Y-10066561D01*
X12121955Y-10064901D01*
X12115886Y-10055982D01*
X12108362Y-10048864D01*
X12099725Y-10043610D01*
X12090319Y-10040281D01*
X12080484Y-10038939D01*
X12070564Y-10039645D01*
X12060900Y-10042460D01*
X12051835Y-10047448D01*
X12046938Y-10051404D01*
X12040235Y-10059137D01*
X12035723Y-10067699D01*
X12033329Y-10076770D01*
X12032981Y-10086028D01*
X12013719Y-10086028D01*
X12013413Y-10080828D01*
X12015073Y-10069415D01*
X12018882Y-10058516D01*
X12024647Y-10048432D01*
X12032172Y-10039466D01*
X12041262Y-10031920D01*
X12051724Y-10026096D01*
X12058405Y-10023607D01*
X12067207Y-10021731D01*
X12077126Y-10020988D01*
X12087197Y-10021367D01*
X12087197Y-10021367D01*
G37*
X12087197Y-10021367D02*
X12096455Y-10022857D01*
X12100733Y-10024104D01*
X12112178Y-10029365D01*
X12122155Y-10036409D01*
X12130492Y-10044966D01*
X12137017Y-10054765D01*
X12141558Y-10065538D01*
X12143941Y-10077013D01*
X12143997Y-10088920D01*
X12143688Y-10091511D01*
X12140770Y-10103654D01*
X12135758Y-10114583D01*
X12128865Y-10124138D01*
X12120309Y-10132159D01*
X12110304Y-10138488D01*
X12099066Y-10142965D01*
X12086809Y-10145431D01*
X12073751Y-10145725D01*
X12070745Y-10145478D01*
X12058602Y-10143029D01*
X12047365Y-10138374D01*
X12037293Y-10131757D01*
X12028643Y-10123417D01*
X12021673Y-10113597D01*
X12016640Y-10102537D01*
X12014097Y-10092453D01*
X12013719Y-10086028D01*
X12032981Y-10086028D01*
X12034605Y-10095152D01*
X12038128Y-10103820D01*
X12043477Y-10111711D01*
X12050579Y-10118503D01*
X12059362Y-10123877D01*
X12063835Y-10125743D01*
X12070302Y-10127198D01*
X12078122Y-10127624D01*
X12086352Y-10127075D01*
X12094047Y-10125604D01*
X12099320Y-10123737D01*
X12108526Y-10118237D01*
X12115868Y-10111140D01*
X12120999Y-10103415D01*
X12123059Y-10099439D01*
X12124342Y-10096209D01*
X12125029Y-10092881D01*
X12125304Y-10088610D01*
X12125349Y-10083316D01*
X12125261Y-10077314D01*
X12124906Y-10073052D01*
X12124139Y-10069733D01*
X12122811Y-10066561D01*
X12121955Y-10064901D01*
X12115886Y-10055982D01*
X12108362Y-10048864D01*
X12099725Y-10043610D01*
X12090319Y-10040281D01*
X12080484Y-10038939D01*
X12070564Y-10039645D01*
X12060900Y-10042460D01*
X12051835Y-10047448D01*
X12046938Y-10051404D01*
X12040235Y-10059137D01*
X12035723Y-10067699D01*
X12033329Y-10076770D01*
X12032981Y-10086028D01*
X12013719Y-10086028D01*
X12013413Y-10080828D01*
X12015073Y-10069415D01*
X12018882Y-10058516D01*
X12024647Y-10048432D01*
X12032172Y-10039466D01*
X12041262Y-10031920D01*
X12051724Y-10026096D01*
X12058405Y-10023607D01*
X12067207Y-10021731D01*
X12077126Y-10020988D01*
X12087197Y-10021367D01*
G36*
X12306639Y-10020908D02*
X12313095Y-10022291D01*
X12314191Y-10022713D01*
X12321074Y-10026813D01*
X12327443Y-10032778D01*
X12332673Y-10039935D01*
X12335501Y-10045749D01*
X12335975Y-10047466D01*
X12335489Y-10048675D01*
X12333582Y-10049774D01*
X12329796Y-10051160D01*
X12328876Y-10051472D01*
X12324642Y-10052834D01*
X12321315Y-10053781D01*
X12319736Y-10054093D01*
X12318465Y-10053020D01*
X12316869Y-10050341D01*
X12316289Y-10049065D01*
X12312806Y-10043798D01*
X12307657Y-10040372D01*
X12301052Y-10038915D01*
X12299565Y-10038871D01*
X12295277Y-10039177D01*
X12292254Y-10040413D01*
X12289722Y-10042578D01*
X12286754Y-10047102D01*
X12286019Y-10052123D01*
X12287587Y-10057007D01*
X12288065Y-10057746D01*
X12289976Y-10059376D01*
X12293815Y-10061793D01*
X12299185Y-10064768D01*
X12305685Y-10068072D01*
X12308258Y-10069314D01*
X12318136Y-10074268D01*
X12325856Y-10078754D01*
X12331705Y-10083000D01*
X12335970Y-10087231D01*
X12338936Y-10091671D01*
X12340173Y-10094426D01*
X12342402Y-10103492D01*
X12342293Y-10112363D01*
X12340046Y-10120764D01*
X12335863Y-10128422D01*
X12329943Y-10135064D01*
X12322489Y-10140417D01*
X12313699Y-10144205D01*
X12303775Y-10146157D01*
X12302131Y-10146278D01*
X12292903Y-10146091D01*
X12286712Y-10144793D01*
X12277516Y-10140575D01*
X12269775Y-10134371D01*
X12263661Y-10126390D01*
X12259346Y-10116839D01*
X12257567Y-10109767D01*
X12257207Y-10107249D01*
X12257523Y-10105603D01*
X12258949Y-10104560D01*
X12261920Y-10103851D01*
X12266872Y-10103206D01*
X12268474Y-10103023D01*
X12275704Y-10102202D01*
X12276584Y-10107046D01*
X12279095Y-10114955D01*
X12283303Y-10121199D01*
X12288945Y-10125587D01*
X12295758Y-10127926D01*
X12303480Y-10128022D01*
X12304839Y-10127806D01*
X12311747Y-10125509D01*
X12317396Y-10121598D01*
X12321446Y-10116472D01*
X12323557Y-10110530D01*
X12323656Y-10105717D01*
X12322842Y-10102290D01*
X12321126Y-10099187D01*
X12318226Y-10096177D01*
X12313857Y-10093029D01*
X12307737Y-10089513D01*
X12299581Y-10085398D01*
X12297440Y-10084367D01*
X12287899Y-10079604D01*
X12280514Y-10075366D01*
X12275029Y-10071376D01*
X12271189Y-10067358D01*
X12268740Y-10063035D01*
X12267426Y-10058129D01*
X12266992Y-10052365D01*
X12266988Y-10051299D01*
X12267993Y-10042476D01*
X12271008Y-10035146D01*
X12276134Y-10029156D01*
X12283471Y-10024352D01*
X12285375Y-10023448D01*
X12291740Y-10021513D01*
X12299174Y-10020658D01*
X12306639Y-10020908D01*
X12306639Y-10020908D01*
G37*
X12306639Y-10020908D02*
X12313095Y-10022291D01*
X12314191Y-10022713D01*
X12321074Y-10026813D01*
X12327443Y-10032778D01*
X12332673Y-10039935D01*
X12335501Y-10045749D01*
X12335975Y-10047466D01*
X12335489Y-10048675D01*
X12333582Y-10049774D01*
X12329796Y-10051160D01*
X12328876Y-10051472D01*
X12324642Y-10052834D01*
X12321315Y-10053781D01*
X12319736Y-10054093D01*
X12318465Y-10053020D01*
X12316869Y-10050341D01*
X12316289Y-10049065D01*
X12312806Y-10043798D01*
X12307657Y-10040372D01*
X12301052Y-10038915D01*
X12299565Y-10038871D01*
X12295277Y-10039177D01*
X12292254Y-10040413D01*
X12289722Y-10042578D01*
X12286754Y-10047102D01*
X12286019Y-10052123D01*
X12287587Y-10057007D01*
X12288065Y-10057746D01*
X12289976Y-10059376D01*
X12293815Y-10061793D01*
X12299185Y-10064768D01*
X12305685Y-10068072D01*
X12308258Y-10069314D01*
X12318136Y-10074268D01*
X12325856Y-10078754D01*
X12331705Y-10083000D01*
X12335970Y-10087231D01*
X12338936Y-10091671D01*
X12340173Y-10094426D01*
X12342402Y-10103492D01*
X12342293Y-10112363D01*
X12340046Y-10120764D01*
X12335863Y-10128422D01*
X12329943Y-10135064D01*
X12322489Y-10140417D01*
X12313699Y-10144205D01*
X12303775Y-10146157D01*
X12302131Y-10146278D01*
X12292903Y-10146091D01*
X12286712Y-10144793D01*
X12277516Y-10140575D01*
X12269775Y-10134371D01*
X12263661Y-10126390D01*
X12259346Y-10116839D01*
X12257567Y-10109767D01*
X12257207Y-10107249D01*
X12257523Y-10105603D01*
X12258949Y-10104560D01*
X12261920Y-10103851D01*
X12266872Y-10103206D01*
X12268474Y-10103023D01*
X12275704Y-10102202D01*
X12276584Y-10107046D01*
X12279095Y-10114955D01*
X12283303Y-10121199D01*
X12288945Y-10125587D01*
X12295758Y-10127926D01*
X12303480Y-10128022D01*
X12304839Y-10127806D01*
X12311747Y-10125509D01*
X12317396Y-10121598D01*
X12321446Y-10116472D01*
X12323557Y-10110530D01*
X12323656Y-10105717D01*
X12322842Y-10102290D01*
X12321126Y-10099187D01*
X12318226Y-10096177D01*
X12313857Y-10093029D01*
X12307737Y-10089513D01*
X12299581Y-10085398D01*
X12297440Y-10084367D01*
X12287899Y-10079604D01*
X12280514Y-10075366D01*
X12275029Y-10071376D01*
X12271189Y-10067358D01*
X12268740Y-10063035D01*
X12267426Y-10058129D01*
X12266992Y-10052365D01*
X12266988Y-10051299D01*
X12267993Y-10042476D01*
X12271008Y-10035146D01*
X12276134Y-10029156D01*
X12283471Y-10024352D01*
X12285375Y-10023448D01*
X12291740Y-10021513D01*
X12299174Y-10020658D01*
X12306639Y-10020908D01*
G36*
X11425902Y-9965458D02*
X11466225Y-9965841D01*
X11473592Y-9969459D01*
X11482822Y-9975323D01*
X11490367Y-9982830D01*
X11496104Y-9991628D01*
X11499908Y-10001364D01*
X11501655Y-10011685D01*
X11501220Y-10022239D01*
X11498479Y-10032673D01*
X11497056Y-10036012D01*
X11493115Y-10042444D01*
X11487573Y-10048946D01*
X11481210Y-10054706D01*
X11475277Y-10058666D01*
X11468287Y-10062416D01*
X11491068Y-10102823D01*
X11496265Y-10112055D01*
X11501046Y-10120573D01*
X11505271Y-10128130D01*
X11508803Y-10134474D01*
X11511502Y-10139359D01*
X11513231Y-10142534D01*
X11513850Y-10143751D01*
X11513850Y-10143753D01*
X11512678Y-10143991D01*
X11509552Y-10144172D01*
X11505061Y-10144268D01*
X11503185Y-10144276D01*
X11492520Y-10144276D01*
X11448006Y-10064901D01*
X11404630Y-10064206D01*
X11404630Y-10144276D01*
X11385580Y-10144276D01*
X11385580Y-9982986D01*
X11404630Y-9982986D01*
X11404630Y-10045216D01*
X11430835Y-10045216D01*
X11440814Y-10045137D01*
X11449260Y-10044911D01*
X11455892Y-10044549D01*
X11460427Y-10044065D01*
X11461960Y-10043742D01*
X11467994Y-10040833D01*
X11473705Y-10036132D01*
X11478302Y-10030343D01*
X11479591Y-10028008D01*
X11481975Y-10020427D01*
X11482324Y-10012332D01*
X11480776Y-10004335D01*
X11477466Y-9997048D01*
X11472530Y-9991082D01*
X11471120Y-9989916D01*
X11467985Y-9987714D01*
X11464826Y-9986028D01*
X11461253Y-9984791D01*
X11456873Y-9983935D01*
X11451293Y-9983396D01*
X11444122Y-9983104D01*
X11434966Y-9982994D01*
X11430505Y-9982986D01*
X11404630Y-9982986D01*
X11385580Y-9982986D01*
X11385580Y-9965074D01*
X11425902Y-9965458D01*
X11425902Y-9965458D01*
G37*
X11425902Y-9965458D02*
X11466225Y-9965841D01*
X11473592Y-9969459D01*
X11482822Y-9975323D01*
X11490367Y-9982830D01*
X11496104Y-9991628D01*
X11499908Y-10001364D01*
X11501655Y-10011685D01*
X11501220Y-10022239D01*
X11498479Y-10032673D01*
X11497056Y-10036012D01*
X11493115Y-10042444D01*
X11487573Y-10048946D01*
X11481210Y-10054706D01*
X11475277Y-10058666D01*
X11468287Y-10062416D01*
X11491068Y-10102823D01*
X11496265Y-10112055D01*
X11501046Y-10120573D01*
X11505271Y-10128130D01*
X11508803Y-10134474D01*
X11511502Y-10139359D01*
X11513231Y-10142534D01*
X11513850Y-10143751D01*
X11513850Y-10143753D01*
X11512678Y-10143991D01*
X11509552Y-10144172D01*
X11505061Y-10144268D01*
X11503185Y-10144276D01*
X11492520Y-10144276D01*
X11448006Y-10064901D01*
X11404630Y-10064206D01*
X11404630Y-10144276D01*
X11385580Y-10144276D01*
X11385580Y-9982986D01*
X11404630Y-9982986D01*
X11404630Y-10045216D01*
X11430835Y-10045216D01*
X11440814Y-10045137D01*
X11449260Y-10044911D01*
X11455892Y-10044549D01*
X11460427Y-10044065D01*
X11461960Y-10043742D01*
X11467994Y-10040833D01*
X11473705Y-10036132D01*
X11478302Y-10030343D01*
X11479591Y-10028008D01*
X11481975Y-10020427D01*
X11482324Y-10012332D01*
X11480776Y-10004335D01*
X11477466Y-9997048D01*
X11472530Y-9991082D01*
X11471120Y-9989916D01*
X11467985Y-9987714D01*
X11464826Y-9986028D01*
X11461253Y-9984791D01*
X11456873Y-9983935D01*
X11451293Y-9983396D01*
X11444122Y-9983104D01*
X11434966Y-9982994D01*
X11430505Y-9982986D01*
X11404630Y-9982986D01*
X11385580Y-9982986D01*
X11385580Y-9965074D01*
X11425902Y-9965458D01*
G36*
X11804680Y-10144276D02*
X11785630Y-10144276D01*
X11785630Y-10022356D01*
X11804680Y-10022356D01*
X11804680Y-10144276D01*
X11804680Y-10144276D01*
G37*
X11804680Y-10144276D02*
X11785630Y-10144276D01*
X11785630Y-10022356D01*
X11804680Y-10022356D01*
X11804680Y-10144276D01*
G36*
X11967240Y-10022356D02*
X11984385Y-10022356D01*
X11990652Y-10022427D01*
X11995892Y-10022622D01*
X11999642Y-10022914D01*
X12001439Y-10023274D01*
X12001530Y-10023380D01*
X12001150Y-10025032D01*
X12000156Y-10028342D01*
X11998873Y-10032270D01*
X11996217Y-10040136D01*
X11967240Y-10040136D01*
X11967240Y-10144276D01*
X11948190Y-10144276D01*
X11948190Y-10040136D01*
X11938030Y-10040136D01*
X11938030Y-10022356D01*
X11948190Y-10022356D01*
X11948190Y-9995686D01*
X11967240Y-9995686D01*
X11967240Y-10022356D01*
X11967240Y-10022356D01*
G37*
X11967240Y-10022356D02*
X11984385Y-10022356D01*
X11990652Y-10022427D01*
X11995892Y-10022622D01*
X11999642Y-10022914D01*
X12001439Y-10023274D01*
X12001530Y-10023380D01*
X12001150Y-10025032D01*
X12000156Y-10028342D01*
X11998873Y-10032270D01*
X11996217Y-10040136D01*
X11967240Y-10040136D01*
X11967240Y-10144276D01*
X11948190Y-10144276D01*
X11948190Y-10040136D01*
X11938030Y-10040136D01*
X11938030Y-10022356D01*
X11948190Y-10022356D01*
X11948190Y-9995686D01*
X11967240Y-9995686D01*
X11967240Y-10022356D01*
G36*
X12223061Y-10020792D02*
X12226346Y-10022926D01*
X12230333Y-10025679D01*
X12234524Y-10028684D01*
X12238424Y-10031577D01*
X12241536Y-10033990D01*
X12243363Y-10035559D01*
X12243631Y-10035948D01*
X12242195Y-10036384D01*
X12238953Y-10037007D01*
X12234809Y-10037654D01*
X12223099Y-10040252D01*
X12213314Y-10044484D01*
X12205393Y-10050400D01*
X12199274Y-10058050D01*
X12194897Y-10067484D01*
X12193756Y-10071251D01*
X12193157Y-10074507D01*
X12192697Y-10079388D01*
X12192365Y-10086101D01*
X12192155Y-10094853D01*
X12192055Y-10105853D01*
X12192045Y-10110939D01*
X12192030Y-10144276D01*
X12173149Y-10144276D01*
X12172683Y-10089349D01*
X12172555Y-10075649D01*
X12172416Y-10064251D01*
X12172257Y-10054916D01*
X12172068Y-10047404D01*
X12171839Y-10041478D01*
X12171561Y-10036898D01*
X12171223Y-10033426D01*
X12170816Y-10030822D01*
X12170331Y-10028849D01*
X12170183Y-10028389D01*
X12168148Y-10022356D01*
X12189371Y-10022356D01*
X12190693Y-10027119D01*
X12191604Y-10031561D01*
X12192020Y-10035886D01*
X12192023Y-10036136D01*
X12192030Y-10040391D01*
X12199001Y-10034019D01*
X12203336Y-10030464D01*
X12208242Y-10027071D01*
X12213199Y-10024127D01*
X12217685Y-10021919D01*
X12221177Y-10020734D01*
X12223061Y-10020792D01*
X12223061Y-10020792D01*
G37*
X12223061Y-10020792D02*
X12226346Y-10022926D01*
X12230333Y-10025679D01*
X12234524Y-10028684D01*
X12238424Y-10031577D01*
X12241536Y-10033990D01*
X12243363Y-10035559D01*
X12243631Y-10035948D01*
X12242195Y-10036384D01*
X12238953Y-10037007D01*
X12234809Y-10037654D01*
X12223099Y-10040252D01*
X12213314Y-10044484D01*
X12205393Y-10050400D01*
X12199274Y-10058050D01*
X12194897Y-10067484D01*
X12193756Y-10071251D01*
X12193157Y-10074507D01*
X12192697Y-10079388D01*
X12192365Y-10086101D01*
X12192155Y-10094853D01*
X12192055Y-10105853D01*
X12192045Y-10110939D01*
X12192030Y-10144276D01*
X12173149Y-10144276D01*
X12172683Y-10089349D01*
X12172555Y-10075649D01*
X12172416Y-10064251D01*
X12172257Y-10054916D01*
X12172068Y-10047404D01*
X12171839Y-10041478D01*
X12171561Y-10036898D01*
X12171223Y-10033426D01*
X12170816Y-10030822D01*
X12170331Y-10028849D01*
X12170183Y-10028389D01*
X12168148Y-10022356D01*
X12189371Y-10022356D01*
X12190693Y-10027119D01*
X12191604Y-10031561D01*
X12192020Y-10035886D01*
X12192023Y-10036136D01*
X12192030Y-10040391D01*
X12199001Y-10034019D01*
X12203336Y-10030464D01*
X12208242Y-10027071D01*
X12213199Y-10024127D01*
X12217685Y-10021919D01*
X12221177Y-10020734D01*
X12223061Y-10020792D01*
G36*
X11800035Y-9983709D02*
X11804916Y-9986637D01*
X11804949Y-9986666D01*
X11808152Y-9990933D01*
X11809212Y-9995621D01*
X11808349Y-10000221D01*
X11805781Y-10004220D01*
X11801728Y-10007106D01*
X11796409Y-10008368D01*
X11795643Y-10008386D01*
X11791800Y-10007969D01*
X11788683Y-10006354D01*
X11786138Y-10004068D01*
X11782947Y-9999992D01*
X11781820Y-9996365D01*
X11782897Y-9990924D01*
X11785779Y-9986719D01*
X11789944Y-9983969D01*
X11794870Y-9982893D01*
X11800035Y-9983709D01*
X11800035Y-9983709D01*
G37*
X11800035Y-9983709D02*
X11804916Y-9986637D01*
X11804949Y-9986666D01*
X11808152Y-9990933D01*
X11809212Y-9995621D01*
X11808349Y-10000221D01*
X11805781Y-10004220D01*
X11801728Y-10007106D01*
X11796409Y-10008368D01*
X11795643Y-10008386D01*
X11791800Y-10007969D01*
X11788683Y-10006354D01*
X11786138Y-10004068D01*
X11782947Y-9999992D01*
X11781820Y-9996365D01*
X11782897Y-9990924D01*
X11785779Y-9986719D01*
X11789944Y-9983969D01*
X11794870Y-9982893D01*
X11800035Y-9983709D01*
G04 #@! TO.C,DRAWING5*
G36*
X14889473Y-9983617D02*
X14893526Y-9986343D01*
X14896138Y-9990236D01*
X14897176Y-9994763D01*
X14896508Y-9999391D01*
X14894004Y-10003588D01*
X14890041Y-10006571D01*
X14884717Y-10007976D01*
X14879162Y-10007279D01*
X14874648Y-10004829D01*
X14871159Y-10000484D01*
X14870104Y-9995468D01*
X14871206Y-9990694D01*
X14874362Y-9985977D01*
X14879046Y-9983287D01*
X14884110Y-9982590D01*
X14889473Y-9983617D01*
X14889473Y-9983617D01*
G37*
X14889473Y-9983617D02*
X14893526Y-9986343D01*
X14896138Y-9990236D01*
X14897176Y-9994763D01*
X14896508Y-9999391D01*
X14894004Y-10003588D01*
X14890041Y-10006571D01*
X14884717Y-10007976D01*
X14879162Y-10007279D01*
X14874648Y-10004829D01*
X14871159Y-10000484D01*
X14870104Y-9995468D01*
X14871206Y-9990694D01*
X14874362Y-9985977D01*
X14879046Y-9983287D01*
X14884110Y-9982590D01*
X14889473Y-9983617D01*
G36*
X15149990Y-10042683D02*
X15158150Y-10034847D01*
X15165828Y-10028293D01*
X15173122Y-10023901D01*
X15180512Y-10021447D01*
X15188205Y-10020702D01*
X15197694Y-10021850D01*
X15206121Y-10025270D01*
X15213380Y-10030882D01*
X15219366Y-10038607D01*
X15223842Y-10047995D01*
X15224596Y-10050156D01*
X15225207Y-10052326D01*
X15225694Y-10054800D01*
X15226076Y-10057872D01*
X15226372Y-10061838D01*
X15226600Y-10066992D01*
X15226781Y-10073629D01*
X15226932Y-10082044D01*
X15227072Y-10092531D01*
X15227156Y-10099748D01*
X15227661Y-10143880D01*
X15208410Y-10143880D01*
X15208410Y-10104142D01*
X15208372Y-10091259D01*
X15208237Y-10080635D01*
X15207974Y-10071989D01*
X15207552Y-10065041D01*
X15206940Y-10059511D01*
X15206106Y-10055117D01*
X15205020Y-10051581D01*
X15203649Y-10048620D01*
X15201964Y-10045955D01*
X15201935Y-10045915D01*
X15197278Y-10041410D01*
X15191423Y-10038953D01*
X15184805Y-10038647D01*
X15178445Y-10040343D01*
X15173785Y-10043195D01*
X15168621Y-10047838D01*
X15163442Y-10053722D01*
X15158735Y-10060301D01*
X15155319Y-10066334D01*
X15150625Y-10075935D01*
X15150200Y-10109908D01*
X15149775Y-10143880D01*
X15130940Y-10143880D01*
X15130940Y-9964810D01*
X15149990Y-9964810D01*
X15149990Y-10042683D01*
X15149990Y-10042683D01*
G37*
X15149990Y-10042683D02*
X15158150Y-10034847D01*
X15165828Y-10028293D01*
X15173122Y-10023901D01*
X15180512Y-10021447D01*
X15188205Y-10020702D01*
X15197694Y-10021850D01*
X15206121Y-10025270D01*
X15213380Y-10030882D01*
X15219366Y-10038607D01*
X15223842Y-10047995D01*
X15224596Y-10050156D01*
X15225207Y-10052326D01*
X15225694Y-10054800D01*
X15226076Y-10057872D01*
X15226372Y-10061838D01*
X15226600Y-10066992D01*
X15226781Y-10073629D01*
X15226932Y-10082044D01*
X15227072Y-10092531D01*
X15227156Y-10099748D01*
X15227661Y-10143880D01*
X15208410Y-10143880D01*
X15208410Y-10104142D01*
X15208372Y-10091259D01*
X15208237Y-10080635D01*
X15207974Y-10071989D01*
X15207552Y-10065041D01*
X15206940Y-10059511D01*
X15206106Y-10055117D01*
X15205020Y-10051581D01*
X15203649Y-10048620D01*
X15201964Y-10045955D01*
X15201935Y-10045915D01*
X15197278Y-10041410D01*
X15191423Y-10038953D01*
X15184805Y-10038647D01*
X15178445Y-10040343D01*
X15173785Y-10043195D01*
X15168621Y-10047838D01*
X15163442Y-10053722D01*
X15158735Y-10060301D01*
X15155319Y-10066334D01*
X15150625Y-10075935D01*
X15150200Y-10109908D01*
X15149775Y-10143880D01*
X15130940Y-10143880D01*
X15130940Y-9964810D01*
X15149990Y-9964810D01*
X15149990Y-10042683D01*
G36*
X14945520Y-10021890D02*
X14963151Y-10022243D01*
X14980782Y-10022595D01*
X14977612Y-10031168D01*
X14974442Y-10039740D01*
X14945520Y-10039740D01*
X14945520Y-10143880D01*
X14926470Y-10143880D01*
X14926470Y-10039740D01*
X14916310Y-10039740D01*
X14916310Y-10021960D01*
X14926470Y-10021960D01*
X14926470Y-9995290D01*
X14945520Y-9995290D01*
X14945520Y-10021890D01*
X14945520Y-10021890D01*
G37*
X14945520Y-10021890D02*
X14963151Y-10022243D01*
X14980782Y-10022595D01*
X14977612Y-10031168D01*
X14974442Y-10039740D01*
X14945520Y-10039740D01*
X14945520Y-10143880D01*
X14926470Y-10143880D01*
X14926470Y-10039740D01*
X14916310Y-10039740D01*
X14916310Y-10021960D01*
X14926470Y-10021960D01*
X14926470Y-9995290D01*
X14945520Y-9995290D01*
X14945520Y-10021890D01*
G36*
X14893450Y-10143880D02*
X14874400Y-10143880D01*
X14874400Y-10021960D01*
X14893450Y-10021960D01*
X14893450Y-10143880D01*
X14893450Y-10143880D01*
G37*
X14893450Y-10143880D02*
X14874400Y-10143880D01*
X14874400Y-10021960D01*
X14893450Y-10021960D01*
X14893450Y-10143880D01*
G36*
X14759723Y-10022995D02*
X14761500Y-10026291D01*
X14764147Y-10031295D01*
X14767520Y-10037729D01*
X14771473Y-10045317D01*
X14775861Y-10053784D01*
X14778446Y-10058790D01*
X14783020Y-10067632D01*
X14787248Y-10075753D01*
X14790982Y-10082877D01*
X14794077Y-10088726D01*
X14796387Y-10093024D01*
X14797764Y-10095493D01*
X14798073Y-10095972D01*
X14798819Y-10095107D01*
X14800493Y-10092195D01*
X14802961Y-10087499D01*
X14806092Y-10081278D01*
X14809753Y-10073797D01*
X14813811Y-10065315D01*
X14816566Y-10059460D01*
X14834101Y-10021960D01*
X14844090Y-10021960D01*
X14848765Y-10022042D01*
X14852269Y-10022261D01*
X14853997Y-10022573D01*
X14854080Y-10022663D01*
X14853575Y-10023905D01*
X14852140Y-10027196D01*
X14849893Y-10032273D01*
X14846953Y-10038874D01*
X14843438Y-10046734D01*
X14839468Y-10055591D01*
X14835161Y-10065180D01*
X14830635Y-10075239D01*
X14826010Y-10085504D01*
X14821405Y-10095711D01*
X14816937Y-10105598D01*
X14812725Y-10114901D01*
X14808889Y-10123357D01*
X14805547Y-10130702D01*
X14802817Y-10136672D01*
X14800819Y-10141005D01*
X14799671Y-10143437D01*
X14799481Y-10143811D01*
X14798713Y-10143423D01*
X14797051Y-10141038D01*
X14794462Y-10136598D01*
X14790915Y-10130047D01*
X14786379Y-10121326D01*
X14780822Y-10110379D01*
X14778315Y-10105381D01*
X14758175Y-10065115D01*
X14738500Y-10104600D01*
X14733878Y-10113847D01*
X14729602Y-10122351D01*
X14725806Y-10129850D01*
X14722623Y-10136080D01*
X14720187Y-10140779D01*
X14718634Y-10143684D01*
X14718109Y-10144546D01*
X14717462Y-10143514D01*
X14715868Y-10140378D01*
X14713423Y-10135349D01*
X14710229Y-10128637D01*
X14706384Y-10120452D01*
X14701986Y-10111004D01*
X14697136Y-10100504D01*
X14691932Y-10089163D01*
X14689338Y-10083484D01*
X14661283Y-10021960D01*
X14682105Y-10021960D01*
X14699830Y-10059411D01*
X14704117Y-10068428D01*
X14708068Y-10076664D01*
X14711552Y-10083849D01*
X14714437Y-10089714D01*
X14716590Y-10093988D01*
X14717880Y-10096404D01*
X14718190Y-10096849D01*
X14718902Y-10095760D01*
X14720635Y-10092671D01*
X14723249Y-10087845D01*
X14726606Y-10081541D01*
X14730566Y-10074020D01*
X14734990Y-10065545D01*
X14738485Y-10058802D01*
X14743160Y-10049829D01*
X14747484Y-10041664D01*
X14751320Y-10034559D01*
X14754526Y-10028768D01*
X14756964Y-10024543D01*
X14758493Y-10022138D01*
X14758961Y-10021681D01*
X14759723Y-10022995D01*
X14759723Y-10022995D01*
G37*
X14759723Y-10022995D02*
X14761500Y-10026291D01*
X14764147Y-10031295D01*
X14767520Y-10037729D01*
X14771473Y-10045317D01*
X14775861Y-10053784D01*
X14778446Y-10058790D01*
X14783020Y-10067632D01*
X14787248Y-10075753D01*
X14790982Y-10082877D01*
X14794077Y-10088726D01*
X14796387Y-10093024D01*
X14797764Y-10095493D01*
X14798073Y-10095972D01*
X14798819Y-10095107D01*
X14800493Y-10092195D01*
X14802961Y-10087499D01*
X14806092Y-10081278D01*
X14809753Y-10073797D01*
X14813811Y-10065315D01*
X14816566Y-10059460D01*
X14834101Y-10021960D01*
X14844090Y-10021960D01*
X14848765Y-10022042D01*
X14852269Y-10022261D01*
X14853997Y-10022573D01*
X14854080Y-10022663D01*
X14853575Y-10023905D01*
X14852140Y-10027196D01*
X14849893Y-10032273D01*
X14846953Y-10038874D01*
X14843438Y-10046734D01*
X14839468Y-10055591D01*
X14835161Y-10065180D01*
X14830635Y-10075239D01*
X14826010Y-10085504D01*
X14821405Y-10095711D01*
X14816937Y-10105598D01*
X14812725Y-10114901D01*
X14808889Y-10123357D01*
X14805547Y-10130702D01*
X14802817Y-10136672D01*
X14800819Y-10141005D01*
X14799671Y-10143437D01*
X14799481Y-10143811D01*
X14798713Y-10143423D01*
X14797051Y-10141038D01*
X14794462Y-10136598D01*
X14790915Y-10130047D01*
X14786379Y-10121326D01*
X14780822Y-10110379D01*
X14778315Y-10105381D01*
X14758175Y-10065115D01*
X14738500Y-10104600D01*
X14733878Y-10113847D01*
X14729602Y-10122351D01*
X14725806Y-10129850D01*
X14722623Y-10136080D01*
X14720187Y-10140779D01*
X14718634Y-10143684D01*
X14718109Y-10144546D01*
X14717462Y-10143514D01*
X14715868Y-10140378D01*
X14713423Y-10135349D01*
X14710229Y-10128637D01*
X14706384Y-10120452D01*
X14701986Y-10111004D01*
X14697136Y-10100504D01*
X14691932Y-10089163D01*
X14689338Y-10083484D01*
X14661283Y-10021960D01*
X14682105Y-10021960D01*
X14699830Y-10059411D01*
X14704117Y-10068428D01*
X14708068Y-10076664D01*
X14711552Y-10083849D01*
X14714437Y-10089714D01*
X14716590Y-10093988D01*
X14717880Y-10096404D01*
X14718190Y-10096849D01*
X14718902Y-10095760D01*
X14720635Y-10092671D01*
X14723249Y-10087845D01*
X14726606Y-10081541D01*
X14730566Y-10074020D01*
X14734990Y-10065545D01*
X14738485Y-10058802D01*
X14743160Y-10049829D01*
X14747484Y-10041664D01*
X14751320Y-10034559D01*
X14754526Y-10028768D01*
X14756964Y-10024543D01*
X14758493Y-10022138D01*
X14758961Y-10021681D01*
X14759723Y-10022995D01*
G36*
X15447494Y-10020637D02*
X15455883Y-10022899D01*
X15463567Y-10027069D01*
X15468827Y-10031705D01*
X15471369Y-10034831D01*
X15473979Y-10038622D01*
X15476297Y-10042462D01*
X15477961Y-10045736D01*
X15478610Y-10047829D01*
X15478509Y-10048194D01*
X15477279Y-10048722D01*
X15474280Y-10049870D01*
X15470135Y-10051399D01*
X15469685Y-10051563D01*
X15461122Y-10054671D01*
X15458752Y-10049314D01*
X15455525Y-10044348D01*
X15451214Y-10040885D01*
X15446274Y-10038899D01*
X15441162Y-10038367D01*
X15436336Y-10039263D01*
X15432252Y-10041564D01*
X15429366Y-10045245D01*
X15428135Y-10050280D01*
X15428120Y-10050959D01*
X15428543Y-10054766D01*
X15430223Y-10057603D01*
X15432247Y-10059505D01*
X15436121Y-10062281D01*
X15440250Y-10064561D01*
X15440820Y-10064808D01*
X15452975Y-10070101D01*
X15462822Y-10075135D01*
X15470555Y-10080097D01*
X15476368Y-10085174D01*
X15480452Y-10090552D01*
X15483002Y-10096419D01*
X15484210Y-10102961D01*
X15484373Y-10106914D01*
X15483206Y-10116319D01*
X15479893Y-10124793D01*
X15474723Y-10132140D01*
X15467982Y-10138164D01*
X15459956Y-10142669D01*
X15450932Y-10145460D01*
X15441197Y-10146340D01*
X15431037Y-10145114D01*
X15429140Y-10144643D01*
X15420334Y-10141006D01*
X15412815Y-10135261D01*
X15406706Y-10127555D01*
X15402129Y-10118037D01*
X15399558Y-10108747D01*
X15399244Y-10106514D01*
X15399668Y-10105040D01*
X15401266Y-10104080D01*
X15404474Y-10103390D01*
X15409727Y-10102726D01*
X15410425Y-10102647D01*
X15417495Y-10101845D01*
X15419031Y-10108499D01*
X15421855Y-10116317D01*
X15426231Y-10122146D01*
X15432110Y-10125944D01*
X15439442Y-10127669D01*
X15442090Y-10127776D01*
X15450005Y-10126724D01*
X15456650Y-10123720D01*
X15461745Y-10118975D01*
X15465010Y-10112702D01*
X15465727Y-10109886D01*
X15465951Y-10105134D01*
X15464591Y-10100835D01*
X15461456Y-10096791D01*
X15456354Y-10092804D01*
X15449095Y-10088678D01*
X15442035Y-10085333D01*
X15433429Y-10081350D01*
X15426797Y-10077921D01*
X15421709Y-10074774D01*
X15417737Y-10071637D01*
X15414451Y-10068236D01*
X15413669Y-10067291D01*
X15411460Y-10064164D01*
X15410183Y-10061039D01*
X15409517Y-10056928D01*
X15409288Y-10053754D01*
X15409406Y-10045665D01*
X15410924Y-10039135D01*
X15414050Y-10033480D01*
X15416219Y-10030836D01*
X15422760Y-10025384D01*
X15430465Y-10021872D01*
X15438865Y-10020292D01*
X15447494Y-10020637D01*
X15447494Y-10020637D01*
G37*
X15447494Y-10020637D02*
X15455883Y-10022899D01*
X15463567Y-10027069D01*
X15468827Y-10031705D01*
X15471369Y-10034831D01*
X15473979Y-10038622D01*
X15476297Y-10042462D01*
X15477961Y-10045736D01*
X15478610Y-10047829D01*
X15478509Y-10048194D01*
X15477279Y-10048722D01*
X15474280Y-10049870D01*
X15470135Y-10051399D01*
X15469685Y-10051563D01*
X15461122Y-10054671D01*
X15458752Y-10049314D01*
X15455525Y-10044348D01*
X15451214Y-10040885D01*
X15446274Y-10038899D01*
X15441162Y-10038367D01*
X15436336Y-10039263D01*
X15432252Y-10041564D01*
X15429366Y-10045245D01*
X15428135Y-10050280D01*
X15428120Y-10050959D01*
X15428543Y-10054766D01*
X15430223Y-10057603D01*
X15432247Y-10059505D01*
X15436121Y-10062281D01*
X15440250Y-10064561D01*
X15440820Y-10064808D01*
X15452975Y-10070101D01*
X15462822Y-10075135D01*
X15470555Y-10080097D01*
X15476368Y-10085174D01*
X15480452Y-10090552D01*
X15483002Y-10096419D01*
X15484210Y-10102961D01*
X15484373Y-10106914D01*
X15483206Y-10116319D01*
X15479893Y-10124793D01*
X15474723Y-10132140D01*
X15467982Y-10138164D01*
X15459956Y-10142669D01*
X15450932Y-10145460D01*
X15441197Y-10146340D01*
X15431037Y-10145114D01*
X15429140Y-10144643D01*
X15420334Y-10141006D01*
X15412815Y-10135261D01*
X15406706Y-10127555D01*
X15402129Y-10118037D01*
X15399558Y-10108747D01*
X15399244Y-10106514D01*
X15399668Y-10105040D01*
X15401266Y-10104080D01*
X15404474Y-10103390D01*
X15409727Y-10102726D01*
X15410425Y-10102647D01*
X15417495Y-10101845D01*
X15419031Y-10108499D01*
X15421855Y-10116317D01*
X15426231Y-10122146D01*
X15432110Y-10125944D01*
X15439442Y-10127669D01*
X15442090Y-10127776D01*
X15450005Y-10126724D01*
X15456650Y-10123720D01*
X15461745Y-10118975D01*
X15465010Y-10112702D01*
X15465727Y-10109886D01*
X15465951Y-10105134D01*
X15464591Y-10100835D01*
X15461456Y-10096791D01*
X15456354Y-10092804D01*
X15449095Y-10088678D01*
X15442035Y-10085333D01*
X15433429Y-10081350D01*
X15426797Y-10077921D01*
X15421709Y-10074774D01*
X15417737Y-10071637D01*
X15414451Y-10068236D01*
X15413669Y-10067291D01*
X15411460Y-10064164D01*
X15410183Y-10061039D01*
X15409517Y-10056928D01*
X15409288Y-10053754D01*
X15409406Y-10045665D01*
X15410924Y-10039135D01*
X15414050Y-10033480D01*
X15416219Y-10030836D01*
X15422760Y-10025384D01*
X15430465Y-10021872D01*
X15438865Y-10020292D01*
X15447494Y-10020637D01*
G36*
X15323681Y-10021182D02*
X15333285Y-10023113D01*
X15342110Y-10026878D01*
X15349142Y-10031410D01*
X15357569Y-10039078D01*
X15364624Y-10048436D01*
X15370027Y-10058942D01*
X15373499Y-10070052D01*
X15374761Y-10081220D01*
X15374761Y-10081333D01*
X15374780Y-10086730D01*
X15275390Y-10086730D01*
X15276021Y-10092330D01*
X15278101Y-10100427D01*
X15282266Y-10108390D01*
X15288100Y-10115644D01*
X15295187Y-10121613D01*
X15298776Y-10123781D01*
X15302055Y-10125280D01*
X15305482Y-10126178D01*
X15309864Y-10126613D01*
X15315725Y-10126726D01*
X15321427Y-10126654D01*
X15325490Y-10126293D01*
X15328813Y-10125444D01*
X15332295Y-10123906D01*
X15335137Y-10122407D01*
X15342652Y-10117540D01*
X15348780Y-10111606D01*
X15352347Y-10106962D01*
X15354449Y-10103960D01*
X15362771Y-10108063D01*
X15371092Y-10112166D01*
X15368808Y-10116070D01*
X15365379Y-10120833D01*
X15360539Y-10126165D01*
X15355046Y-10131314D01*
X15349656Y-10135524D01*
X15348542Y-10136261D01*
X15339349Y-10140847D01*
X15328861Y-10144014D01*
X15317960Y-10145585D01*
X15307526Y-10145382D01*
X15305084Y-10145032D01*
X15294745Y-10142029D01*
X15284859Y-10136852D01*
X15275908Y-10129868D01*
X15268373Y-10121443D01*
X15263337Y-10113215D01*
X15260163Y-10106009D01*
X15258140Y-10099266D01*
X15257056Y-10092021D01*
X15256703Y-10083308D01*
X15256701Y-10082736D01*
X15257850Y-10069900D01*
X15258125Y-10068950D01*
X15277044Y-10068950D01*
X15315117Y-10068950D01*
X15326448Y-10068927D01*
X15335456Y-10068853D01*
X15342354Y-10068719D01*
X15347360Y-10068516D01*
X15350689Y-10068234D01*
X15352555Y-10067865D01*
X15353176Y-10067400D01*
X15353178Y-10067363D01*
X15352401Y-10064744D01*
X15350399Y-10060920D01*
X15347625Y-10056589D01*
X15344534Y-10052453D01*
X15341579Y-10049211D01*
X15341189Y-10048856D01*
X15334880Y-10043971D01*
X15328872Y-10040961D01*
X15322241Y-10039476D01*
X15315725Y-10039149D01*
X15309735Y-10039327D01*
X15305366Y-10039970D01*
X15301714Y-10041243D01*
X15300203Y-10041992D01*
X15291100Y-10048166D01*
X15283862Y-10056058D01*
X15278560Y-10065458D01*
X15277044Y-10068950D01*
X15258125Y-10068950D01*
X15261292Y-10058014D01*
X15266908Y-10047270D01*
X15274580Y-10037860D01*
X15284188Y-10029979D01*
X15292013Y-10025470D01*
X15296386Y-10023469D01*
X15300237Y-10022195D01*
X15304472Y-10021445D01*
X15309995Y-10021020D01*
X15312649Y-10020901D01*
X15323681Y-10021182D01*
X15323681Y-10021182D01*
G37*
X15323681Y-10021182D02*
X15333285Y-10023113D01*
X15342110Y-10026878D01*
X15349142Y-10031410D01*
X15357569Y-10039078D01*
X15364624Y-10048436D01*
X15370027Y-10058942D01*
X15373499Y-10070052D01*
X15374761Y-10081220D01*
X15374761Y-10081333D01*
X15374780Y-10086730D01*
X15275390Y-10086730D01*
X15276021Y-10092330D01*
X15278101Y-10100427D01*
X15282266Y-10108390D01*
X15288100Y-10115644D01*
X15295187Y-10121613D01*
X15298776Y-10123781D01*
X15302055Y-10125280D01*
X15305482Y-10126178D01*
X15309864Y-10126613D01*
X15315725Y-10126726D01*
X15321427Y-10126654D01*
X15325490Y-10126293D01*
X15328813Y-10125444D01*
X15332295Y-10123906D01*
X15335137Y-10122407D01*
X15342652Y-10117540D01*
X15348780Y-10111606D01*
X15352347Y-10106962D01*
X15354449Y-10103960D01*
X15362771Y-10108063D01*
X15371092Y-10112166D01*
X15368808Y-10116070D01*
X15365379Y-10120833D01*
X15360539Y-10126165D01*
X15355046Y-10131314D01*
X15349656Y-10135524D01*
X15348542Y-10136261D01*
X15339349Y-10140847D01*
X15328861Y-10144014D01*
X15317960Y-10145585D01*
X15307526Y-10145382D01*
X15305084Y-10145032D01*
X15294745Y-10142029D01*
X15284859Y-10136852D01*
X15275908Y-10129868D01*
X15268373Y-10121443D01*
X15263337Y-10113215D01*
X15260163Y-10106009D01*
X15258140Y-10099266D01*
X15257056Y-10092021D01*
X15256703Y-10083308D01*
X15256701Y-10082736D01*
X15257850Y-10069900D01*
X15258125Y-10068950D01*
X15277044Y-10068950D01*
X15315117Y-10068950D01*
X15326448Y-10068927D01*
X15335456Y-10068853D01*
X15342354Y-10068719D01*
X15347360Y-10068516D01*
X15350689Y-10068234D01*
X15352555Y-10067865D01*
X15353176Y-10067400D01*
X15353178Y-10067363D01*
X15352401Y-10064744D01*
X15350399Y-10060920D01*
X15347625Y-10056589D01*
X15344534Y-10052453D01*
X15341579Y-10049211D01*
X15341189Y-10048856D01*
X15334880Y-10043971D01*
X15328872Y-10040961D01*
X15322241Y-10039476D01*
X15315725Y-10039149D01*
X15309735Y-10039327D01*
X15305366Y-10039970D01*
X15301714Y-10041243D01*
X15300203Y-10041992D01*
X15291100Y-10048166D01*
X15283862Y-10056058D01*
X15278560Y-10065458D01*
X15277044Y-10068950D01*
X15258125Y-10068950D01*
X15261292Y-10058014D01*
X15266908Y-10047270D01*
X15274580Y-10037860D01*
X15284188Y-10029979D01*
X15292013Y-10025470D01*
X15296386Y-10023469D01*
X15300237Y-10022195D01*
X15304472Y-10021445D01*
X15309995Y-10021020D01*
X15312649Y-10020901D01*
X15323681Y-10021182D01*
G36*
X15059329Y-10021081D02*
X15063871Y-10021960D01*
X15067949Y-10023188D01*
X15077727Y-10027641D01*
X15086960Y-10034122D01*
X15094967Y-10042124D01*
X15097288Y-10045098D01*
X15100175Y-10049137D01*
X15101638Y-10051888D01*
X15101498Y-10053901D01*
X15099580Y-10055726D01*
X15095706Y-10057912D01*
X15092663Y-10059476D01*
X15086772Y-10062500D01*
X15081848Y-10055882D01*
X15074925Y-10048438D01*
X15067099Y-10043182D01*
X15058688Y-10040078D01*
X15050014Y-10039090D01*
X15041395Y-10040180D01*
X15033153Y-10043312D01*
X15025608Y-10048450D01*
X15019079Y-10055556D01*
X15014329Y-10063620D01*
X15012663Y-10067550D01*
X15011647Y-10071174D01*
X15011129Y-10075359D01*
X15010958Y-10080969D01*
X15010951Y-10082920D01*
X15011052Y-10089078D01*
X15011452Y-10093551D01*
X15012302Y-10097189D01*
X15013747Y-10100843D01*
X15014272Y-10101970D01*
X15019703Y-10110950D01*
X15026379Y-10118048D01*
X15033999Y-10123197D01*
X15042260Y-10126332D01*
X15050859Y-10127389D01*
X15059495Y-10126303D01*
X15067866Y-10123007D01*
X15075668Y-10117437D01*
X15077553Y-10115621D01*
X15080835Y-10112061D01*
X15083379Y-10108915D01*
X15084648Y-10106848D01*
X15084662Y-10106808D01*
X15085366Y-10105278D01*
X15086541Y-10104714D01*
X15088669Y-10105184D01*
X15092235Y-10106759D01*
X15095463Y-10108362D01*
X15103094Y-10112214D01*
X15100824Y-10116074D01*
X15097129Y-10121324D01*
X15092145Y-10127046D01*
X15086668Y-10132411D01*
X15081496Y-10136587D01*
X15080496Y-10137253D01*
X15070354Y-10142229D01*
X15059229Y-10145101D01*
X15047722Y-10145752D01*
X15040824Y-10145017D01*
X15029999Y-10141905D01*
X15019941Y-10136579D01*
X15010966Y-10129324D01*
X15003387Y-10120424D01*
X14997520Y-10110166D01*
X14994937Y-10103430D01*
X14992901Y-10094126D01*
X14992153Y-10083805D01*
X14992693Y-10073475D01*
X14994518Y-10064141D01*
X14994998Y-10062600D01*
X15000141Y-10051028D01*
X15007288Y-10040928D01*
X15016273Y-10032492D01*
X15026628Y-10026061D01*
X15031572Y-10023751D01*
X15035667Y-10022306D01*
X15039923Y-10021482D01*
X15045347Y-10021031D01*
X15047773Y-10020914D01*
X15054302Y-10020770D01*
X15059329Y-10021081D01*
X15059329Y-10021081D01*
G37*
X15059329Y-10021081D02*
X15063871Y-10021960D01*
X15067949Y-10023188D01*
X15077727Y-10027641D01*
X15086960Y-10034122D01*
X15094967Y-10042124D01*
X15097288Y-10045098D01*
X15100175Y-10049137D01*
X15101638Y-10051888D01*
X15101498Y-10053901D01*
X15099580Y-10055726D01*
X15095706Y-10057912D01*
X15092663Y-10059476D01*
X15086772Y-10062500D01*
X15081848Y-10055882D01*
X15074925Y-10048438D01*
X15067099Y-10043182D01*
X15058688Y-10040078D01*
X15050014Y-10039090D01*
X15041395Y-10040180D01*
X15033153Y-10043312D01*
X15025608Y-10048450D01*
X15019079Y-10055556D01*
X15014329Y-10063620D01*
X15012663Y-10067550D01*
X15011647Y-10071174D01*
X15011129Y-10075359D01*
X15010958Y-10080969D01*
X15010951Y-10082920D01*
X15011052Y-10089078D01*
X15011452Y-10093551D01*
X15012302Y-10097189D01*
X15013747Y-10100843D01*
X15014272Y-10101970D01*
X15019703Y-10110950D01*
X15026379Y-10118048D01*
X15033999Y-10123197D01*
X15042260Y-10126332D01*
X15050859Y-10127389D01*
X15059495Y-10126303D01*
X15067866Y-10123007D01*
X15075668Y-10117437D01*
X15077553Y-10115621D01*
X15080835Y-10112061D01*
X15083379Y-10108915D01*
X15084648Y-10106848D01*
X15084662Y-10106808D01*
X15085366Y-10105278D01*
X15086541Y-10104714D01*
X15088669Y-10105184D01*
X15092235Y-10106759D01*
X15095463Y-10108362D01*
X15103094Y-10112214D01*
X15100824Y-10116074D01*
X15097129Y-10121324D01*
X15092145Y-10127046D01*
X15086668Y-10132411D01*
X15081496Y-10136587D01*
X15080496Y-10137253D01*
X15070354Y-10142229D01*
X15059229Y-10145101D01*
X15047722Y-10145752D01*
X15040824Y-10145017D01*
X15029999Y-10141905D01*
X15019941Y-10136579D01*
X15010966Y-10129324D01*
X15003387Y-10120424D01*
X14997520Y-10110166D01*
X14994937Y-10103430D01*
X14992901Y-10094126D01*
X14992153Y-10083805D01*
X14992693Y-10073475D01*
X14994518Y-10064141D01*
X14994998Y-10062600D01*
X15000141Y-10051028D01*
X15007288Y-10040928D01*
X15016273Y-10032492D01*
X15026628Y-10026061D01*
X15031572Y-10023751D01*
X15035667Y-10022306D01*
X15039923Y-10021482D01*
X15045347Y-10021031D01*
X15047773Y-10020914D01*
X15054302Y-10020770D01*
X15059329Y-10021081D01*
G36*
X14603811Y-9964261D02*
X14613745Y-9967956D01*
X14622739Y-9973547D01*
X14630389Y-9980831D01*
X14636290Y-9989601D01*
X14636943Y-9990913D01*
X14638840Y-9995057D01*
X14640196Y-9998339D01*
X14640720Y-10000057D01*
X14640720Y-10000064D01*
X14639636Y-10001015D01*
X14636884Y-10002437D01*
X14633214Y-10004023D01*
X14629376Y-10005466D01*
X14626119Y-10006457D01*
X14624495Y-10006720D01*
X14623236Y-10005638D01*
X14621913Y-10002981D01*
X14621731Y-10002460D01*
X14619156Y-9997405D01*
X14615024Y-9992161D01*
X14610097Y-9987578D01*
X14606068Y-9984945D01*
X14601734Y-9983302D01*
X14596415Y-9982036D01*
X14593552Y-9981642D01*
X14586026Y-9982014D01*
X14579229Y-9984310D01*
X14573439Y-9988178D01*
X14568938Y-9993268D01*
X14566007Y-9999226D01*
X14564927Y-10005703D01*
X14565979Y-10012347D01*
X14567002Y-10014855D01*
X14569456Y-10018731D01*
X14573090Y-10022384D01*
X14578203Y-10026019D01*
X14585094Y-10029838D01*
X14594061Y-10034047D01*
X14596905Y-10035289D01*
X14609135Y-10040757D01*
X14619188Y-10045725D01*
X14627332Y-10050387D01*
X14633833Y-10054933D01*
X14638960Y-10059557D01*
X14642979Y-10064450D01*
X14646159Y-10069805D01*
X14646811Y-10071147D01*
X14648449Y-10074954D01*
X14649470Y-10078414D01*
X14650015Y-10082340D01*
X14650221Y-10087549D01*
X14650242Y-10091175D01*
X14650170Y-10097277D01*
X14649850Y-10101690D01*
X14649120Y-10105264D01*
X14647817Y-10108849D01*
X14646176Y-10112458D01*
X14640107Y-10122429D01*
X14632236Y-10130889D01*
X14622914Y-10137678D01*
X14612490Y-10142635D01*
X14601312Y-10145600D01*
X14589730Y-10146415D01*
X14578095Y-10144918D01*
X14576286Y-10144462D01*
X14565651Y-10140458D01*
X14555960Y-10134582D01*
X14547670Y-10127190D01*
X14541234Y-10118635D01*
X14539800Y-10116030D01*
X14538209Y-10112358D01*
X14536398Y-10107384D01*
X14534595Y-10101840D01*
X14533027Y-10096463D01*
X14531919Y-10091986D01*
X14531500Y-10089145D01*
X14532635Y-10088419D01*
X14535524Y-10087682D01*
X14537532Y-10087361D01*
X14541961Y-10086738D01*
X14545896Y-10086122D01*
X14546951Y-10085936D01*
X14548870Y-10085747D01*
X14550065Y-10086438D01*
X14550927Y-10088544D01*
X14551847Y-10092605D01*
X14551864Y-10092685D01*
X14554982Y-10103206D01*
X14559641Y-10111796D01*
X14565956Y-10118628D01*
X14572323Y-10122968D01*
X14575801Y-10124766D01*
X14578847Y-10125881D01*
X14582266Y-10126474D01*
X14586860Y-10126703D01*
X14591190Y-10126734D01*
X14599774Y-10126330D01*
X14606662Y-10124953D01*
X14612594Y-10122356D01*
X14618309Y-10118291D01*
X14619560Y-10117219D01*
X14625776Y-10110369D01*
X14629694Y-10102616D01*
X14631496Y-10093590D01*
X14631535Y-10093088D01*
X14631731Y-10087734D01*
X14631290Y-10083773D01*
X14630047Y-10080105D01*
X14629367Y-10078634D01*
X14627225Y-10074836D01*
X14624528Y-10071408D01*
X14620988Y-10068158D01*
X14616319Y-10064897D01*
X14610234Y-10061433D01*
X14602448Y-10057575D01*
X14592673Y-10053134D01*
X14588015Y-10051096D01*
X14576123Y-10045558D01*
X14566548Y-10040190D01*
X14559097Y-10034783D01*
X14553575Y-10029127D01*
X14549788Y-10023011D01*
X14547542Y-10016228D01*
X14546643Y-10008566D01*
X14546606Y-10006377D01*
X14547736Y-9995537D01*
X14551023Y-9985957D01*
X14556338Y-9977791D01*
X14563553Y-9971193D01*
X14572538Y-9966315D01*
X14582742Y-9963388D01*
X14593342Y-9962670D01*
X14603811Y-9964261D01*
X14603811Y-9964261D01*
G37*
X14603811Y-9964261D02*
X14613745Y-9967956D01*
X14622739Y-9973547D01*
X14630389Y-9980831D01*
X14636290Y-9989601D01*
X14636943Y-9990913D01*
X14638840Y-9995057D01*
X14640196Y-9998339D01*
X14640720Y-10000057D01*
X14640720Y-10000064D01*
X14639636Y-10001015D01*
X14636884Y-10002437D01*
X14633214Y-10004023D01*
X14629376Y-10005466D01*
X14626119Y-10006457D01*
X14624495Y-10006720D01*
X14623236Y-10005638D01*
X14621913Y-10002981D01*
X14621731Y-10002460D01*
X14619156Y-9997405D01*
X14615024Y-9992161D01*
X14610097Y-9987578D01*
X14606068Y-9984945D01*
X14601734Y-9983302D01*
X14596415Y-9982036D01*
X14593552Y-9981642D01*
X14586026Y-9982014D01*
X14579229Y-9984310D01*
X14573439Y-9988178D01*
X14568938Y-9993268D01*
X14566007Y-9999226D01*
X14564927Y-10005703D01*
X14565979Y-10012347D01*
X14567002Y-10014855D01*
X14569456Y-10018731D01*
X14573090Y-10022384D01*
X14578203Y-10026019D01*
X14585094Y-10029838D01*
X14594061Y-10034047D01*
X14596905Y-10035289D01*
X14609135Y-10040757D01*
X14619188Y-10045725D01*
X14627332Y-10050387D01*
X14633833Y-10054933D01*
X14638960Y-10059557D01*
X14642979Y-10064450D01*
X14646159Y-10069805D01*
X14646811Y-10071147D01*
X14648449Y-10074954D01*
X14649470Y-10078414D01*
X14650015Y-10082340D01*
X14650221Y-10087549D01*
X14650242Y-10091175D01*
X14650170Y-10097277D01*
X14649850Y-10101690D01*
X14649120Y-10105264D01*
X14647817Y-10108849D01*
X14646176Y-10112458D01*
X14640107Y-10122429D01*
X14632236Y-10130889D01*
X14622914Y-10137678D01*
X14612490Y-10142635D01*
X14601312Y-10145600D01*
X14589730Y-10146415D01*
X14578095Y-10144918D01*
X14576286Y-10144462D01*
X14565651Y-10140458D01*
X14555960Y-10134582D01*
X14547670Y-10127190D01*
X14541234Y-10118635D01*
X14539800Y-10116030D01*
X14538209Y-10112358D01*
X14536398Y-10107384D01*
X14534595Y-10101840D01*
X14533027Y-10096463D01*
X14531919Y-10091986D01*
X14531500Y-10089145D01*
X14532635Y-10088419D01*
X14535524Y-10087682D01*
X14537532Y-10087361D01*
X14541961Y-10086738D01*
X14545896Y-10086122D01*
X14546951Y-10085936D01*
X14548870Y-10085747D01*
X14550065Y-10086438D01*
X14550927Y-10088544D01*
X14551847Y-10092605D01*
X14551864Y-10092685D01*
X14554982Y-10103206D01*
X14559641Y-10111796D01*
X14565956Y-10118628D01*
X14572323Y-10122968D01*
X14575801Y-10124766D01*
X14578847Y-10125881D01*
X14582266Y-10126474D01*
X14586860Y-10126703D01*
X14591190Y-10126734D01*
X14599774Y-10126330D01*
X14606662Y-10124953D01*
X14612594Y-10122356D01*
X14618309Y-10118291D01*
X14619560Y-10117219D01*
X14625776Y-10110369D01*
X14629694Y-10102616D01*
X14631496Y-10093590D01*
X14631535Y-10093088D01*
X14631731Y-10087734D01*
X14631290Y-10083773D01*
X14630047Y-10080105D01*
X14629367Y-10078634D01*
X14627225Y-10074836D01*
X14624528Y-10071408D01*
X14620988Y-10068158D01*
X14616319Y-10064897D01*
X14610234Y-10061433D01*
X14602448Y-10057575D01*
X14592673Y-10053134D01*
X14588015Y-10051096D01*
X14576123Y-10045558D01*
X14566548Y-10040190D01*
X14559097Y-10034783D01*
X14553575Y-10029127D01*
X14549788Y-10023011D01*
X14547542Y-10016228D01*
X14546643Y-10008566D01*
X14546606Y-10006377D01*
X14547736Y-9995537D01*
X14551023Y-9985957D01*
X14556338Y-9977791D01*
X14563553Y-9971193D01*
X14572538Y-9966315D01*
X14582742Y-9963388D01*
X14593342Y-9962670D01*
X14603811Y-9964261D01*
G04 #@! TO.C,DRAWING2*
G36*
X10625213Y-9965456D02*
X10636066Y-9965725D01*
X10644830Y-9966099D01*
X10651958Y-9966654D01*
X10657899Y-9967471D01*
X10663105Y-9968626D01*
X10668027Y-9970199D01*
X10673118Y-9972268D01*
X10678374Y-9974694D01*
X10691207Y-9982154D01*
X10702388Y-9991356D01*
X10711808Y-10002046D01*
X10719356Y-10013974D01*
X10724924Y-10026885D01*
X10728400Y-10040529D01*
X10729676Y-10054651D01*
X10728641Y-10069000D01*
X10725372Y-10082753D01*
X10719952Y-10095509D01*
X10712360Y-10107366D01*
X10702886Y-10118057D01*
X10691818Y-10127316D01*
X10679446Y-10134874D01*
X10666057Y-10140466D01*
X10661454Y-10141838D01*
X10657508Y-10142785D01*
X10653318Y-10143518D01*
X10648435Y-10144077D01*
X10642411Y-10144500D01*
X10634794Y-10144827D01*
X10625136Y-10145099D01*
X10623943Y-10145126D01*
X10596320Y-10145759D01*
X10596320Y-9984162D01*
X10615370Y-9984162D01*
X10615370Y-10126717D01*
X10634103Y-10126078D01*
X10642492Y-10125708D01*
X10648940Y-10125201D01*
X10654044Y-10124479D01*
X10658402Y-10123467D01*
X10661090Y-10122626D01*
X10673726Y-10117046D01*
X10684855Y-10109500D01*
X10694309Y-10100152D01*
X10701918Y-10089165D01*
X10706762Y-10078777D01*
X10708844Y-10071179D01*
X10710106Y-10062156D01*
X10710477Y-10052710D01*
X10709885Y-10043842D01*
X10709434Y-10041038D01*
X10705904Y-10029197D01*
X10700150Y-10018066D01*
X10692468Y-10008022D01*
X10683152Y-9999441D01*
X10672495Y-9992701D01*
X10671118Y-9992023D01*
X10664204Y-9988947D01*
X10657941Y-9986766D01*
X10651619Y-9985340D01*
X10644529Y-9984529D01*
X10635959Y-9984195D01*
X10631182Y-9984162D01*
X10615370Y-9984162D01*
X10596320Y-9984162D01*
X10596320Y-9964871D01*
X10625213Y-9965456D01*
X10625213Y-9965456D01*
G37*
X10625213Y-9965456D02*
X10636066Y-9965725D01*
X10644830Y-9966099D01*
X10651958Y-9966654D01*
X10657899Y-9967471D01*
X10663105Y-9968626D01*
X10668027Y-9970199D01*
X10673118Y-9972268D01*
X10678374Y-9974694D01*
X10691207Y-9982154D01*
X10702388Y-9991356D01*
X10711808Y-10002046D01*
X10719356Y-10013974D01*
X10724924Y-10026885D01*
X10728400Y-10040529D01*
X10729676Y-10054651D01*
X10728641Y-10069000D01*
X10725372Y-10082753D01*
X10719952Y-10095509D01*
X10712360Y-10107366D01*
X10702886Y-10118057D01*
X10691818Y-10127316D01*
X10679446Y-10134874D01*
X10666057Y-10140466D01*
X10661454Y-10141838D01*
X10657508Y-10142785D01*
X10653318Y-10143518D01*
X10648435Y-10144077D01*
X10642411Y-10144500D01*
X10634794Y-10144827D01*
X10625136Y-10145099D01*
X10623943Y-10145126D01*
X10596320Y-10145759D01*
X10596320Y-9984162D01*
X10615370Y-9984162D01*
X10615370Y-10126717D01*
X10634103Y-10126078D01*
X10642492Y-10125708D01*
X10648940Y-10125201D01*
X10654044Y-10124479D01*
X10658402Y-10123467D01*
X10661090Y-10122626D01*
X10673726Y-10117046D01*
X10684855Y-10109500D01*
X10694309Y-10100152D01*
X10701918Y-10089165D01*
X10706762Y-10078777D01*
X10708844Y-10071179D01*
X10710106Y-10062156D01*
X10710477Y-10052710D01*
X10709885Y-10043842D01*
X10709434Y-10041038D01*
X10705904Y-10029197D01*
X10700150Y-10018066D01*
X10692468Y-10008022D01*
X10683152Y-9999441D01*
X10672495Y-9992701D01*
X10671118Y-9992023D01*
X10664204Y-9988947D01*
X10657941Y-9986766D01*
X10651619Y-9985340D01*
X10644529Y-9984529D01*
X10635959Y-9984195D01*
X10631182Y-9984162D01*
X10615370Y-9984162D01*
X10596320Y-9984162D01*
X10596320Y-9964871D01*
X10625213Y-9965456D01*
G36*
X10567110Y-9984162D02*
X10475670Y-9984162D01*
X10475670Y-10032422D01*
X10559490Y-10032422D01*
X10559490Y-10050202D01*
X10475670Y-10050202D01*
X10475670Y-10126402D01*
X10567110Y-10126402D01*
X10567110Y-10145452D01*
X10456620Y-10145452D01*
X10456620Y-9965112D01*
X10567110Y-9965112D01*
X10567110Y-9984162D01*
X10567110Y-9984162D01*
G37*
X10567110Y-9984162D02*
X10475670Y-9984162D01*
X10475670Y-10032422D01*
X10559490Y-10032422D01*
X10559490Y-10050202D01*
X10475670Y-10050202D01*
X10475670Y-10126402D01*
X10567110Y-10126402D01*
X10567110Y-10145452D01*
X10456620Y-10145452D01*
X10456620Y-9965112D01*
X10567110Y-9965112D01*
X10567110Y-9984162D01*
G36*
X10335970Y-10126402D02*
X10427410Y-10126402D01*
X10427410Y-10145452D01*
X10316920Y-10145452D01*
X10316920Y-9965112D01*
X10335970Y-9965112D01*
X10335970Y-10126402D01*
X10335970Y-10126402D01*
G37*
X10335970Y-10126402D02*
X10427410Y-10126402D01*
X10427410Y-10145452D01*
X10316920Y-10145452D01*
X10316920Y-9965112D01*
X10335970Y-9965112D01*
X10335970Y-10126402D01*
G36*
X10799492Y-10021244D02*
X10807674Y-10022465D01*
X10814559Y-10025271D01*
X10820979Y-10030041D01*
X10822992Y-10031964D01*
X10825681Y-10035132D01*
X10828320Y-10039018D01*
X10830578Y-10043009D01*
X10832125Y-10046493D01*
X10832630Y-10048857D01*
X10832406Y-10049414D01*
X10831022Y-10050024D01*
X10828082Y-10051085D01*
X10824330Y-10052354D01*
X10820507Y-10053586D01*
X10817358Y-10054539D01*
X10815626Y-10054968D01*
X10815492Y-10054956D01*
X10813443Y-10050558D01*
X10810303Y-10045975D01*
X10806881Y-10042332D01*
X10805870Y-10041556D01*
X10800852Y-10039294D01*
X10795728Y-10038860D01*
X10790904Y-10039976D01*
X10786788Y-10042361D01*
X10783786Y-10045738D01*
X10782307Y-10049825D01*
X10782757Y-10054344D01*
X10783831Y-10056675D01*
X10784919Y-10058343D01*
X10786249Y-10059827D01*
X10788154Y-10061330D01*
X10790972Y-10063054D01*
X10795036Y-10065201D01*
X10800682Y-10067972D01*
X10808246Y-10071570D01*
X10809680Y-10072247D01*
X10818962Y-10077001D01*
X10826086Y-10081554D01*
X10831393Y-10086169D01*
X10835222Y-10091106D01*
X10836026Y-10092489D01*
X10837509Y-10096937D01*
X10838287Y-10102969D01*
X10838374Y-10109730D01*
X10837785Y-10116367D01*
X10836534Y-10122028D01*
X10835495Y-10124554D01*
X10831614Y-10130094D01*
X10826167Y-10135645D01*
X10820005Y-10140432D01*
X10814983Y-10143257D01*
X10808488Y-10145254D01*
X10800622Y-10146318D01*
X10792388Y-10146415D01*
X10784792Y-10145508D01*
X10780918Y-10144454D01*
X10772709Y-10140222D01*
X10765577Y-10133947D01*
X10759872Y-10126019D01*
X10755943Y-10116829D01*
X10755795Y-10116329D01*
X10754381Y-10111072D01*
X10753904Y-10107726D01*
X10754476Y-10105799D01*
X10756211Y-10104797D01*
X10758563Y-10104325D01*
X10764478Y-10103471D01*
X10768384Y-10103146D01*
X10770787Y-10103532D01*
X10772195Y-10104811D01*
X10773114Y-10107166D01*
X10773805Y-10109812D01*
X10776105Y-10116599D01*
X10779293Y-10121500D01*
X10783833Y-10125137D01*
X10786277Y-10126447D01*
X10793033Y-10128551D01*
X10799859Y-10128652D01*
X10806321Y-10126980D01*
X10811979Y-10123766D01*
X10816399Y-10119242D01*
X10819144Y-10113637D01*
X10819840Y-10108717D01*
X10819505Y-10104312D01*
X10818308Y-10100607D01*
X10815957Y-10097323D01*
X10812163Y-10094181D01*
X10806635Y-10090903D01*
X10799083Y-10087211D01*
X10795954Y-10085789D01*
X10789872Y-10082989D01*
X10784160Y-10080228D01*
X10779490Y-10077840D01*
X10776687Y-10076254D01*
X10770278Y-10070857D01*
X10765866Y-10064290D01*
X10763464Y-10056968D01*
X10763085Y-10049309D01*
X10764743Y-10041730D01*
X10768451Y-10034645D01*
X10774223Y-10028473D01*
X10775133Y-10027753D01*
X10781798Y-10023753D01*
X10789139Y-10021612D01*
X10797790Y-10021161D01*
X10799492Y-10021244D01*
X10799492Y-10021244D01*
G37*
X10799492Y-10021244D02*
X10807674Y-10022465D01*
X10814559Y-10025271D01*
X10820979Y-10030041D01*
X10822992Y-10031964D01*
X10825681Y-10035132D01*
X10828320Y-10039018D01*
X10830578Y-10043009D01*
X10832125Y-10046493D01*
X10832630Y-10048857D01*
X10832406Y-10049414D01*
X10831022Y-10050024D01*
X10828082Y-10051085D01*
X10824330Y-10052354D01*
X10820507Y-10053586D01*
X10817358Y-10054539D01*
X10815626Y-10054968D01*
X10815492Y-10054956D01*
X10813443Y-10050558D01*
X10810303Y-10045975D01*
X10806881Y-10042332D01*
X10805870Y-10041556D01*
X10800852Y-10039294D01*
X10795728Y-10038860D01*
X10790904Y-10039976D01*
X10786788Y-10042361D01*
X10783786Y-10045738D01*
X10782307Y-10049825D01*
X10782757Y-10054344D01*
X10783831Y-10056675D01*
X10784919Y-10058343D01*
X10786249Y-10059827D01*
X10788154Y-10061330D01*
X10790972Y-10063054D01*
X10795036Y-10065201D01*
X10800682Y-10067972D01*
X10808246Y-10071570D01*
X10809680Y-10072247D01*
X10818962Y-10077001D01*
X10826086Y-10081554D01*
X10831393Y-10086169D01*
X10835222Y-10091106D01*
X10836026Y-10092489D01*
X10837509Y-10096937D01*
X10838287Y-10102969D01*
X10838374Y-10109730D01*
X10837785Y-10116367D01*
X10836534Y-10122028D01*
X10835495Y-10124554D01*
X10831614Y-10130094D01*
X10826167Y-10135645D01*
X10820005Y-10140432D01*
X10814983Y-10143257D01*
X10808488Y-10145254D01*
X10800622Y-10146318D01*
X10792388Y-10146415D01*
X10784792Y-10145508D01*
X10780918Y-10144454D01*
X10772709Y-10140222D01*
X10765577Y-10133947D01*
X10759872Y-10126019D01*
X10755943Y-10116829D01*
X10755795Y-10116329D01*
X10754381Y-10111072D01*
X10753904Y-10107726D01*
X10754476Y-10105799D01*
X10756211Y-10104797D01*
X10758563Y-10104325D01*
X10764478Y-10103471D01*
X10768384Y-10103146D01*
X10770787Y-10103532D01*
X10772195Y-10104811D01*
X10773114Y-10107166D01*
X10773805Y-10109812D01*
X10776105Y-10116599D01*
X10779293Y-10121500D01*
X10783833Y-10125137D01*
X10786277Y-10126447D01*
X10793033Y-10128551D01*
X10799859Y-10128652D01*
X10806321Y-10126980D01*
X10811979Y-10123766D01*
X10816399Y-10119242D01*
X10819144Y-10113637D01*
X10819840Y-10108717D01*
X10819505Y-10104312D01*
X10818308Y-10100607D01*
X10815957Y-10097323D01*
X10812163Y-10094181D01*
X10806635Y-10090903D01*
X10799083Y-10087211D01*
X10795954Y-10085789D01*
X10789872Y-10082989D01*
X10784160Y-10080228D01*
X10779490Y-10077840D01*
X10776687Y-10076254D01*
X10770278Y-10070857D01*
X10765866Y-10064290D01*
X10763464Y-10056968D01*
X10763085Y-10049309D01*
X10764743Y-10041730D01*
X10768451Y-10034645D01*
X10774223Y-10028473D01*
X10775133Y-10027753D01*
X10781798Y-10023753D01*
X10789139Y-10021612D01*
X10797790Y-10021161D01*
X10799492Y-10021244D01*
G04 #@! TO.C,DRAWING4*
G36*
X13225015Y-9983549D02*
X13229654Y-9986216D01*
X13232965Y-9990471D01*
X13234230Y-9994447D01*
X13234468Y-9997561D01*
X13233694Y-9999953D01*
X13231498Y-10002641D01*
X13230503Y-10003654D01*
X13227156Y-10006548D01*
X13224126Y-10007834D01*
X13221134Y-10008047D01*
X13217175Y-10007657D01*
X13213912Y-10006816D01*
X13213604Y-10006679D01*
X13210574Y-10004136D01*
X13208053Y-10000246D01*
X13206766Y-9996196D01*
X13206720Y-9995433D01*
X13207728Y-9991289D01*
X13210252Y-9987198D01*
X13213543Y-9984328D01*
X13213975Y-9984111D01*
X13219603Y-9982753D01*
X13225015Y-9983549D01*
X13225015Y-9983549D01*
G37*
X13225015Y-9983549D02*
X13229654Y-9986216D01*
X13232965Y-9990471D01*
X13234230Y-9994447D01*
X13234468Y-9997561D01*
X13233694Y-9999953D01*
X13231498Y-10002641D01*
X13230503Y-10003654D01*
X13227156Y-10006548D01*
X13224126Y-10007834D01*
X13221134Y-10008047D01*
X13217175Y-10007657D01*
X13213912Y-10006816D01*
X13213604Y-10006679D01*
X13210574Y-10004136D01*
X13208053Y-10000246D01*
X13206766Y-9996196D01*
X13206720Y-9995433D01*
X13207728Y-9991289D01*
X13210252Y-9987198D01*
X13213543Y-9984328D01*
X13213975Y-9984111D01*
X13219603Y-9982753D01*
X13225015Y-9983549D01*
G36*
X13229580Y-10144023D02*
X13210530Y-10144023D01*
X13210530Y-10022103D01*
X13229580Y-10022103D01*
X13229580Y-10144023D01*
X13229580Y-10144023D01*
G37*
X13229580Y-10144023D02*
X13210530Y-10144023D01*
X13210530Y-10022103D01*
X13229580Y-10022103D01*
X13229580Y-10144023D01*
G36*
X13085194Y-9964989D02*
X13092615Y-9965118D01*
X13098442Y-9965373D01*
X13103147Y-9965788D01*
X13107203Y-9966397D01*
X13111084Y-9967230D01*
X13112219Y-9967513D01*
X13127132Y-9972570D01*
X13140725Y-9979787D01*
X13152930Y-9989121D01*
X13161564Y-9997986D01*
X13165806Y-10003752D01*
X13170213Y-10011128D01*
X13174352Y-10019257D01*
X13177788Y-10027280D01*
X13180087Y-10034340D01*
X13180200Y-10034803D01*
X13181233Y-10041383D01*
X13181723Y-10049526D01*
X13181685Y-10058318D01*
X13181132Y-10066845D01*
X13180081Y-10074192D01*
X13179522Y-10076605D01*
X13174495Y-10090549D01*
X13167326Y-10103313D01*
X13158210Y-10114708D01*
X13147344Y-10124544D01*
X13134925Y-10132633D01*
X13121149Y-10138784D01*
X13112219Y-10141490D01*
X13108275Y-10142388D01*
X13104260Y-10143051D01*
X13099704Y-10143514D01*
X13094132Y-10143808D01*
X13087073Y-10143966D01*
X13078054Y-10144021D01*
X13075707Y-10144023D01*
X13049240Y-10144023D01*
X13049240Y-10126620D01*
X13068290Y-10126620D01*
X13085752Y-10125878D01*
X13094223Y-10125359D01*
X13101717Y-10124594D01*
X13107636Y-10123653D01*
X13110200Y-10123027D01*
X13122811Y-10118046D01*
X13133839Y-10111347D01*
X13143218Y-10103180D01*
X13150881Y-10093793D01*
X13156760Y-10083436D01*
X13160788Y-10072358D01*
X13162899Y-10060808D01*
X13163024Y-10049036D01*
X13161097Y-10037291D01*
X13157050Y-10025821D01*
X13150817Y-10014877D01*
X13142331Y-10004708D01*
X13142134Y-10004511D01*
X13134429Y-9998067D01*
X13125089Y-9992252D01*
X13115018Y-9987591D01*
X13110200Y-9985922D01*
X13105226Y-9984835D01*
X13098228Y-9983933D01*
X13089718Y-9983274D01*
X13085752Y-9983082D01*
X13068290Y-9982378D01*
X13068290Y-10126620D01*
X13049240Y-10126620D01*
X13049240Y-9964953D01*
X13075707Y-9964953D01*
X13085194Y-9964989D01*
X13085194Y-9964989D01*
G37*
X13085194Y-9964989D02*
X13092615Y-9965118D01*
X13098442Y-9965373D01*
X13103147Y-9965788D01*
X13107203Y-9966397D01*
X13111084Y-9967230D01*
X13112219Y-9967513D01*
X13127132Y-9972570D01*
X13140725Y-9979787D01*
X13152930Y-9989121D01*
X13161564Y-9997986D01*
X13165806Y-10003752D01*
X13170213Y-10011128D01*
X13174352Y-10019257D01*
X13177788Y-10027280D01*
X13180087Y-10034340D01*
X13180200Y-10034803D01*
X13181233Y-10041383D01*
X13181723Y-10049526D01*
X13181685Y-10058318D01*
X13181132Y-10066845D01*
X13180081Y-10074192D01*
X13179522Y-10076605D01*
X13174495Y-10090549D01*
X13167326Y-10103313D01*
X13158210Y-10114708D01*
X13147344Y-10124544D01*
X13134925Y-10132633D01*
X13121149Y-10138784D01*
X13112219Y-10141490D01*
X13108275Y-10142388D01*
X13104260Y-10143051D01*
X13099704Y-10143514D01*
X13094132Y-10143808D01*
X13087073Y-10143966D01*
X13078054Y-10144021D01*
X13075707Y-10144023D01*
X13049240Y-10144023D01*
X13049240Y-10126620D01*
X13068290Y-10126620D01*
X13085752Y-10125878D01*
X13094223Y-10125359D01*
X13101717Y-10124594D01*
X13107636Y-10123653D01*
X13110200Y-10123027D01*
X13122811Y-10118046D01*
X13133839Y-10111347D01*
X13143218Y-10103180D01*
X13150881Y-10093793D01*
X13156760Y-10083436D01*
X13160788Y-10072358D01*
X13162899Y-10060808D01*
X13163024Y-10049036D01*
X13161097Y-10037291D01*
X13157050Y-10025821D01*
X13150817Y-10014877D01*
X13142331Y-10004708D01*
X13142134Y-10004511D01*
X13134429Y-9998067D01*
X13125089Y-9992252D01*
X13115018Y-9987591D01*
X13110200Y-9985922D01*
X13105226Y-9984835D01*
X13098228Y-9983933D01*
X13089718Y-9983274D01*
X13085752Y-9983082D01*
X13068290Y-9982378D01*
X13068290Y-10126620D01*
X13049240Y-10126620D01*
X13049240Y-9964953D01*
X13075707Y-9964953D01*
X13085194Y-9964989D01*
G36*
X13756915Y-10021854D02*
X13764921Y-10025346D01*
X13771432Y-10030114D01*
X13774633Y-10033561D01*
X13777631Y-10037726D01*
X13780049Y-10041953D01*
X13781510Y-10045584D01*
X13781657Y-10047913D01*
X13780265Y-10048990D01*
X13777242Y-10050428D01*
X13773407Y-10051918D01*
X13769580Y-10053149D01*
X13766580Y-10053812D01*
X13765970Y-10053853D01*
X13764751Y-10052797D01*
X13763144Y-10050142D01*
X13762526Y-10048837D01*
X13758890Y-10043514D01*
X13753643Y-10040053D01*
X13747084Y-10038637D01*
X13746023Y-10038613D01*
X13740365Y-10039574D01*
X13735982Y-10042149D01*
X13733116Y-10045873D01*
X13732009Y-10050281D01*
X13732905Y-10054909D01*
X13735497Y-10058747D01*
X13738145Y-10060787D01*
X13742475Y-10063356D01*
X13747802Y-10066070D01*
X13751539Y-10067756D01*
X13762671Y-10072904D01*
X13771691Y-10077922D01*
X13778413Y-10082706D01*
X13779340Y-10083513D01*
X13783654Y-10088969D01*
X13786639Y-10095995D01*
X13788196Y-10103936D01*
X13788224Y-10112139D01*
X13786625Y-10119951D01*
X13785392Y-10123068D01*
X13780576Y-10130519D01*
X13773893Y-10136769D01*
X13765809Y-10141622D01*
X13756788Y-10144881D01*
X13747298Y-10146349D01*
X13737804Y-10145829D01*
X13733707Y-10144909D01*
X13724836Y-10141128D01*
X13717106Y-10135302D01*
X13710820Y-10127785D01*
X13706280Y-10118929D01*
X13703946Y-10110165D01*
X13703582Y-10107345D01*
X13703866Y-10105515D01*
X13705236Y-10104378D01*
X13708129Y-10103638D01*
X13712983Y-10102997D01*
X13714821Y-10102788D01*
X13721907Y-10101984D01*
X13723488Y-10109048D01*
X13726232Y-10116712D01*
X13730572Y-10122408D01*
X13736463Y-10126100D01*
X13743863Y-10127754D01*
X13746694Y-10127847D01*
X13753975Y-10126840D01*
X13760107Y-10124203D01*
X13764919Y-10120299D01*
X13768238Y-10115487D01*
X13769894Y-10110131D01*
X13769715Y-10104592D01*
X13767531Y-10099231D01*
X13763170Y-10094411D01*
X13762696Y-10094040D01*
X13759719Y-10092155D01*
X13755092Y-10089668D01*
X13749511Y-10086939D01*
X13745099Y-10084942D01*
X13735217Y-10080345D01*
X13727534Y-10076049D01*
X13721770Y-10071811D01*
X13717641Y-10067388D01*
X13714867Y-10062536D01*
X13713262Y-10057458D01*
X13712675Y-10052618D01*
X13712794Y-10047677D01*
X13712901Y-10046918D01*
X13715412Y-10038747D01*
X13719774Y-10031936D01*
X13725632Y-10026588D01*
X13732631Y-10022803D01*
X13740415Y-10020684D01*
X13748628Y-10020334D01*
X13756915Y-10021854D01*
X13756915Y-10021854D01*
G37*
X13756915Y-10021854D02*
X13764921Y-10025346D01*
X13771432Y-10030114D01*
X13774633Y-10033561D01*
X13777631Y-10037726D01*
X13780049Y-10041953D01*
X13781510Y-10045584D01*
X13781657Y-10047913D01*
X13780265Y-10048990D01*
X13777242Y-10050428D01*
X13773407Y-10051918D01*
X13769580Y-10053149D01*
X13766580Y-10053812D01*
X13765970Y-10053853D01*
X13764751Y-10052797D01*
X13763144Y-10050142D01*
X13762526Y-10048837D01*
X13758890Y-10043514D01*
X13753643Y-10040053D01*
X13747084Y-10038637D01*
X13746023Y-10038613D01*
X13740365Y-10039574D01*
X13735982Y-10042149D01*
X13733116Y-10045873D01*
X13732009Y-10050281D01*
X13732905Y-10054909D01*
X13735497Y-10058747D01*
X13738145Y-10060787D01*
X13742475Y-10063356D01*
X13747802Y-10066070D01*
X13751539Y-10067756D01*
X13762671Y-10072904D01*
X13771691Y-10077922D01*
X13778413Y-10082706D01*
X13779340Y-10083513D01*
X13783654Y-10088969D01*
X13786639Y-10095995D01*
X13788196Y-10103936D01*
X13788224Y-10112139D01*
X13786625Y-10119951D01*
X13785392Y-10123068D01*
X13780576Y-10130519D01*
X13773893Y-10136769D01*
X13765809Y-10141622D01*
X13756788Y-10144881D01*
X13747298Y-10146349D01*
X13737804Y-10145829D01*
X13733707Y-10144909D01*
X13724836Y-10141128D01*
X13717106Y-10135302D01*
X13710820Y-10127785D01*
X13706280Y-10118929D01*
X13703946Y-10110165D01*
X13703582Y-10107345D01*
X13703866Y-10105515D01*
X13705236Y-10104378D01*
X13708129Y-10103638D01*
X13712983Y-10102997D01*
X13714821Y-10102788D01*
X13721907Y-10101984D01*
X13723488Y-10109048D01*
X13726232Y-10116712D01*
X13730572Y-10122408D01*
X13736463Y-10126100D01*
X13743863Y-10127754D01*
X13746694Y-10127847D01*
X13753975Y-10126840D01*
X13760107Y-10124203D01*
X13764919Y-10120299D01*
X13768238Y-10115487D01*
X13769894Y-10110131D01*
X13769715Y-10104592D01*
X13767531Y-10099231D01*
X13763170Y-10094411D01*
X13762696Y-10094040D01*
X13759719Y-10092155D01*
X13755092Y-10089668D01*
X13749511Y-10086939D01*
X13745099Y-10084942D01*
X13735217Y-10080345D01*
X13727534Y-10076049D01*
X13721770Y-10071811D01*
X13717641Y-10067388D01*
X13714867Y-10062536D01*
X13713262Y-10057458D01*
X13712675Y-10052618D01*
X13712794Y-10047677D01*
X13712901Y-10046918D01*
X13715412Y-10038747D01*
X13719774Y-10031936D01*
X13725632Y-10026588D01*
X13732631Y-10022803D01*
X13740415Y-10020684D01*
X13748628Y-10020334D01*
X13756915Y-10021854D01*
G36*
X13625421Y-10020960D02*
X13634867Y-10022550D01*
X13635463Y-10022718D01*
X13646442Y-10027184D01*
X13656140Y-10033704D01*
X13664372Y-10042043D01*
X13670954Y-10051962D01*
X13675702Y-10063227D01*
X13678430Y-10075599D01*
X13678719Y-10078205D01*
X13679522Y-10086843D01*
X13629493Y-10087176D01*
X13579465Y-10087508D01*
X13579913Y-10091301D01*
X13582186Y-10100289D01*
X13586621Y-10108814D01*
X13592840Y-10116331D01*
X13600467Y-10122293D01*
X13601874Y-10123111D01*
X13605615Y-10125020D01*
X13608916Y-10126153D01*
X13612692Y-10126706D01*
X13617861Y-10126873D01*
X13619470Y-10126878D01*
X13625537Y-10126728D01*
X13630065Y-10126157D01*
X13634042Y-10124983D01*
X13637250Y-10123601D01*
X13646022Y-10118167D01*
X13653659Y-10110797D01*
X13655967Y-10107828D01*
X13658699Y-10104018D01*
X13666999Y-10108271D01*
X13675299Y-10112524D01*
X13671606Y-10117892D01*
X13663415Y-10127613D01*
X13653606Y-10135458D01*
X13642432Y-10141269D01*
X13630150Y-10144883D01*
X13628136Y-10145241D01*
X13623439Y-10145970D01*
X13620076Y-10146303D01*
X13617024Y-10146231D01*
X13613256Y-10145749D01*
X13609364Y-10145117D01*
X13598587Y-10142082D01*
X13588538Y-10136824D01*
X13579555Y-10129632D01*
X13571978Y-10120793D01*
X13566147Y-10110594D01*
X13564805Y-10107356D01*
X13561487Y-10095320D01*
X13560483Y-10083184D01*
X13561672Y-10071256D01*
X13562291Y-10069093D01*
X13581433Y-10069093D01*
X13657741Y-10069093D01*
X13656860Y-10066236D01*
X13654298Y-10060177D01*
X13650257Y-10054377D01*
X13646250Y-10050032D01*
X13638633Y-10044060D01*
X13630232Y-10040346D01*
X13621402Y-10038879D01*
X13612500Y-10039650D01*
X13603883Y-10042647D01*
X13595908Y-10047859D01*
X13591939Y-10051651D01*
X13587998Y-10056185D01*
X13585340Y-10060037D01*
X13583324Y-10064182D01*
X13582672Y-10065833D01*
X13581433Y-10069093D01*
X13562291Y-10069093D01*
X13564935Y-10059845D01*
X13570152Y-10049261D01*
X13577203Y-10039813D01*
X13585967Y-10031810D01*
X13596326Y-10025561D01*
X13596585Y-10025439D01*
X13605332Y-10022471D01*
X13615260Y-10020957D01*
X13625421Y-10020960D01*
X13625421Y-10020960D01*
G37*
X13625421Y-10020960D02*
X13634867Y-10022550D01*
X13635463Y-10022718D01*
X13646442Y-10027184D01*
X13656140Y-10033704D01*
X13664372Y-10042043D01*
X13670954Y-10051962D01*
X13675702Y-10063227D01*
X13678430Y-10075599D01*
X13678719Y-10078205D01*
X13679522Y-10086843D01*
X13629493Y-10087176D01*
X13579465Y-10087508D01*
X13579913Y-10091301D01*
X13582186Y-10100289D01*
X13586621Y-10108814D01*
X13592840Y-10116331D01*
X13600467Y-10122293D01*
X13601874Y-10123111D01*
X13605615Y-10125020D01*
X13608916Y-10126153D01*
X13612692Y-10126706D01*
X13617861Y-10126873D01*
X13619470Y-10126878D01*
X13625537Y-10126728D01*
X13630065Y-10126157D01*
X13634042Y-10124983D01*
X13637250Y-10123601D01*
X13646022Y-10118167D01*
X13653659Y-10110797D01*
X13655967Y-10107828D01*
X13658699Y-10104018D01*
X13666999Y-10108271D01*
X13675299Y-10112524D01*
X13671606Y-10117892D01*
X13663415Y-10127613D01*
X13653606Y-10135458D01*
X13642432Y-10141269D01*
X13630150Y-10144883D01*
X13628136Y-10145241D01*
X13623439Y-10145970D01*
X13620076Y-10146303D01*
X13617024Y-10146231D01*
X13613256Y-10145749D01*
X13609364Y-10145117D01*
X13598587Y-10142082D01*
X13588538Y-10136824D01*
X13579555Y-10129632D01*
X13571978Y-10120793D01*
X13566147Y-10110594D01*
X13564805Y-10107356D01*
X13561487Y-10095320D01*
X13560483Y-10083184D01*
X13561672Y-10071256D01*
X13562291Y-10069093D01*
X13581433Y-10069093D01*
X13657741Y-10069093D01*
X13656860Y-10066236D01*
X13654298Y-10060177D01*
X13650257Y-10054377D01*
X13646250Y-10050032D01*
X13638633Y-10044060D01*
X13630232Y-10040346D01*
X13621402Y-10038879D01*
X13612500Y-10039650D01*
X13603883Y-10042647D01*
X13595908Y-10047859D01*
X13591939Y-10051651D01*
X13587998Y-10056185D01*
X13585340Y-10060037D01*
X13583324Y-10064182D01*
X13582672Y-10065833D01*
X13581433Y-10069093D01*
X13562291Y-10069093D01*
X13564935Y-10059845D01*
X13570152Y-10049261D01*
X13577203Y-10039813D01*
X13585967Y-10031810D01*
X13596326Y-10025561D01*
X13596585Y-10025439D01*
X13605332Y-10022471D01*
X13615260Y-10020957D01*
X13625421Y-10020960D01*
G36*
X13532133Y-10048456D02*
X13532226Y-10065360D01*
X13532321Y-10079914D01*
X13532425Y-10092308D01*
X13532542Y-10102731D01*
X13532678Y-10111373D01*
X13532838Y-10118423D01*
X13533027Y-10124072D01*
X13533251Y-10128509D01*
X13533514Y-10131923D01*
X13533823Y-10134505D01*
X13534181Y-10136444D01*
X13534596Y-10137930D01*
X13534616Y-10137991D01*
X13536671Y-10144023D01*
X13515449Y-10144023D01*
X13514127Y-10139261D01*
X13513216Y-10134826D01*
X13512800Y-10130515D01*
X13512797Y-10130263D01*
X13512790Y-10126027D01*
X13506757Y-10131349D01*
X13497991Y-10137748D01*
X13488265Y-10142545D01*
X13479160Y-10145181D01*
X13474932Y-10145900D01*
X13471665Y-10146341D01*
X13470329Y-10146415D01*
X13468388Y-10146135D01*
X13464863Y-10145577D01*
X13462144Y-10145131D01*
X13451709Y-10142160D01*
X13441876Y-10136995D01*
X13432992Y-10129974D01*
X13425402Y-10121429D01*
X13419452Y-10111696D01*
X13415487Y-10101110D01*
X13415108Y-10099573D01*
X13414175Y-10093289D01*
X13413877Y-10087156D01*
X13431880Y-10087156D01*
X13433629Y-10096601D01*
X13437261Y-10105467D01*
X13442721Y-10113396D01*
X13449954Y-10120027D01*
X13455949Y-10123657D01*
X13464993Y-10126936D01*
X13473982Y-10127681D01*
X13483001Y-10125892D01*
X13488432Y-10123616D01*
X13496720Y-10118114D01*
X13503418Y-10110873D01*
X13508350Y-10102266D01*
X13511339Y-10092666D01*
X13512209Y-10082444D01*
X13511460Y-10075112D01*
X13509110Y-10066225D01*
X13505314Y-10058670D01*
X13499586Y-10051503D01*
X13499006Y-10050893D01*
X13493381Y-10045575D01*
X13488205Y-10042114D01*
X13482667Y-10040157D01*
X13475957Y-10039356D01*
X13472150Y-10039278D01*
X13464021Y-10039765D01*
X13457459Y-10041455D01*
X13451642Y-10044696D01*
X13445745Y-10049833D01*
X13444814Y-10050777D01*
X13438482Y-10058943D01*
X13434252Y-10067968D01*
X13432069Y-10077492D01*
X13431880Y-10087156D01*
X13413877Y-10087156D01*
X13413805Y-10085690D01*
X13413980Y-10077751D01*
X13414682Y-10070447D01*
X13415756Y-10065196D01*
X13420395Y-10053608D01*
X13427029Y-10043248D01*
X13435394Y-10034430D01*
X13445226Y-10027470D01*
X13448925Y-10025551D01*
X13453050Y-10023688D01*
X13456466Y-10022497D01*
X13459973Y-10021829D01*
X13464371Y-10021536D01*
X13470460Y-10021468D01*
X13470900Y-10021468D01*
X13477083Y-10021523D01*
X13481511Y-10021788D01*
X13484965Y-10022411D01*
X13488230Y-10023539D01*
X13492087Y-10025322D01*
X13492607Y-10025576D01*
X13497905Y-10028530D01*
X13503257Y-10032066D01*
X13506874Y-10034892D01*
X13512790Y-10040099D01*
X13512790Y-9964953D01*
X13531706Y-9964953D01*
X13532133Y-10048456D01*
X13532133Y-10048456D01*
G37*
X13532133Y-10048456D02*
X13532226Y-10065360D01*
X13532321Y-10079914D01*
X13532425Y-10092308D01*
X13532542Y-10102731D01*
X13532678Y-10111373D01*
X13532838Y-10118423D01*
X13533027Y-10124072D01*
X13533251Y-10128509D01*
X13533514Y-10131923D01*
X13533823Y-10134505D01*
X13534181Y-10136444D01*
X13534596Y-10137930D01*
X13534616Y-10137991D01*
X13536671Y-10144023D01*
X13515449Y-10144023D01*
X13514127Y-10139261D01*
X13513216Y-10134826D01*
X13512800Y-10130515D01*
X13512797Y-10130263D01*
X13512790Y-10126027D01*
X13506757Y-10131349D01*
X13497991Y-10137748D01*
X13488265Y-10142545D01*
X13479160Y-10145181D01*
X13474932Y-10145900D01*
X13471665Y-10146341D01*
X13470329Y-10146415D01*
X13468388Y-10146135D01*
X13464863Y-10145577D01*
X13462144Y-10145131D01*
X13451709Y-10142160D01*
X13441876Y-10136995D01*
X13432992Y-10129974D01*
X13425402Y-10121429D01*
X13419452Y-10111696D01*
X13415487Y-10101110D01*
X13415108Y-10099573D01*
X13414175Y-10093289D01*
X13413877Y-10087156D01*
X13431880Y-10087156D01*
X13433629Y-10096601D01*
X13437261Y-10105467D01*
X13442721Y-10113396D01*
X13449954Y-10120027D01*
X13455949Y-10123657D01*
X13464993Y-10126936D01*
X13473982Y-10127681D01*
X13483001Y-10125892D01*
X13488432Y-10123616D01*
X13496720Y-10118114D01*
X13503418Y-10110873D01*
X13508350Y-10102266D01*
X13511339Y-10092666D01*
X13512209Y-10082444D01*
X13511460Y-10075112D01*
X13509110Y-10066225D01*
X13505314Y-10058670D01*
X13499586Y-10051503D01*
X13499006Y-10050893D01*
X13493381Y-10045575D01*
X13488205Y-10042114D01*
X13482667Y-10040157D01*
X13475957Y-10039356D01*
X13472150Y-10039278D01*
X13464021Y-10039765D01*
X13457459Y-10041455D01*
X13451642Y-10044696D01*
X13445745Y-10049833D01*
X13444814Y-10050777D01*
X13438482Y-10058943D01*
X13434252Y-10067968D01*
X13432069Y-10077492D01*
X13431880Y-10087156D01*
X13413877Y-10087156D01*
X13413805Y-10085690D01*
X13413980Y-10077751D01*
X13414682Y-10070447D01*
X13415756Y-10065196D01*
X13420395Y-10053608D01*
X13427029Y-10043248D01*
X13435394Y-10034430D01*
X13445226Y-10027470D01*
X13448925Y-10025551D01*
X13453050Y-10023688D01*
X13456466Y-10022497D01*
X13459973Y-10021829D01*
X13464371Y-10021536D01*
X13470460Y-10021468D01*
X13470900Y-10021468D01*
X13477083Y-10021523D01*
X13481511Y-10021788D01*
X13484965Y-10022411D01*
X13488230Y-10023539D01*
X13492087Y-10025322D01*
X13492607Y-10025576D01*
X13497905Y-10028530D01*
X13503257Y-10032066D01*
X13506874Y-10034892D01*
X13512790Y-10040099D01*
X13512790Y-9964953D01*
X13531706Y-9964953D01*
X13532133Y-10048456D01*
G36*
X13336340Y-10021650D02*
X13343565Y-10023190D01*
X13354939Y-10027848D01*
X13364989Y-10034352D01*
X13373548Y-10042418D01*
X13380445Y-10051758D01*
X13385511Y-10062085D01*
X13388575Y-10073114D01*
X13389469Y-10084557D01*
X13388021Y-10096128D01*
X13387655Y-10097615D01*
X13383391Y-10109178D01*
X13377103Y-10119488D01*
X13369067Y-10128369D01*
X13359561Y-10135643D01*
X13348861Y-10141132D01*
X13337244Y-10144661D01*
X13324986Y-10146051D01*
X13313208Y-10145263D01*
X13301858Y-10142346D01*
X13290898Y-10137364D01*
X13280993Y-10130684D01*
X13273329Y-10123290D01*
X13270506Y-10119482D01*
X13267301Y-10114390D01*
X13264365Y-10109052D01*
X13264105Y-10108531D01*
X13262130Y-10104450D01*
X13260808Y-10101224D01*
X13260008Y-10098161D01*
X13259601Y-10094569D01*
X13259457Y-10089756D01*
X13259444Y-10083766D01*
X13259487Y-10079989D01*
X13278123Y-10079989D01*
X13278555Y-10090813D01*
X13281277Y-10100602D01*
X13286213Y-10109232D01*
X13293281Y-10116579D01*
X13302403Y-10122519D01*
X13306533Y-10124441D01*
X13310525Y-10125973D01*
X13314101Y-10126872D01*
X13318131Y-10127260D01*
X13323485Y-10127259D01*
X13326100Y-10127180D01*
X13332397Y-10126843D01*
X13337022Y-10126230D01*
X13340841Y-10125162D01*
X13344721Y-10123458D01*
X13345150Y-10123243D01*
X13353485Y-10117900D01*
X13360710Y-10111037D01*
X13366136Y-10103314D01*
X13366437Y-10102748D01*
X13369099Y-10095395D01*
X13370398Y-10086800D01*
X13370290Y-10077887D01*
X13368736Y-10069583D01*
X13368018Y-10067446D01*
X13363493Y-10058909D01*
X13356987Y-10051509D01*
X13348913Y-10045545D01*
X13339688Y-10041315D01*
X13329726Y-10039117D01*
X13328383Y-10038995D01*
X13317560Y-10039296D01*
X13307516Y-10041736D01*
X13298516Y-10046099D01*
X13290825Y-10052169D01*
X13284706Y-10059731D01*
X13280426Y-10068568D01*
X13278250Y-10078464D01*
X13278123Y-10079989D01*
X13259487Y-10079989D01*
X13259524Y-10076746D01*
X13259806Y-10071573D01*
X13260381Y-10067555D01*
X13261338Y-10064001D01*
X13262428Y-10061061D01*
X13267932Y-10050617D01*
X13275520Y-10041161D01*
X13284814Y-10033059D01*
X13295436Y-10026673D01*
X13300268Y-10024566D01*
X13308059Y-10022396D01*
X13317289Y-10021167D01*
X13327027Y-10020909D01*
X13336340Y-10021650D01*
X13336340Y-10021650D01*
G37*
X13336340Y-10021650D02*
X13343565Y-10023190D01*
X13354939Y-10027848D01*
X13364989Y-10034352D01*
X13373548Y-10042418D01*
X13380445Y-10051758D01*
X13385511Y-10062085D01*
X13388575Y-10073114D01*
X13389469Y-10084557D01*
X13388021Y-10096128D01*
X13387655Y-10097615D01*
X13383391Y-10109178D01*
X13377103Y-10119488D01*
X13369067Y-10128369D01*
X13359561Y-10135643D01*
X13348861Y-10141132D01*
X13337244Y-10144661D01*
X13324986Y-10146051D01*
X13313208Y-10145263D01*
X13301858Y-10142346D01*
X13290898Y-10137364D01*
X13280993Y-10130684D01*
X13273329Y-10123290D01*
X13270506Y-10119482D01*
X13267301Y-10114390D01*
X13264365Y-10109052D01*
X13264105Y-10108531D01*
X13262130Y-10104450D01*
X13260808Y-10101224D01*
X13260008Y-10098161D01*
X13259601Y-10094569D01*
X13259457Y-10089756D01*
X13259444Y-10083766D01*
X13259487Y-10079989D01*
X13278123Y-10079989D01*
X13278555Y-10090813D01*
X13281277Y-10100602D01*
X13286213Y-10109232D01*
X13293281Y-10116579D01*
X13302403Y-10122519D01*
X13306533Y-10124441D01*
X13310525Y-10125973D01*
X13314101Y-10126872D01*
X13318131Y-10127260D01*
X13323485Y-10127259D01*
X13326100Y-10127180D01*
X13332397Y-10126843D01*
X13337022Y-10126230D01*
X13340841Y-10125162D01*
X13344721Y-10123458D01*
X13345150Y-10123243D01*
X13353485Y-10117900D01*
X13360710Y-10111037D01*
X13366136Y-10103314D01*
X13366437Y-10102748D01*
X13369099Y-10095395D01*
X13370398Y-10086800D01*
X13370290Y-10077887D01*
X13368736Y-10069583D01*
X13368018Y-10067446D01*
X13363493Y-10058909D01*
X13356987Y-10051509D01*
X13348913Y-10045545D01*
X13339688Y-10041315D01*
X13329726Y-10039117D01*
X13328383Y-10038995D01*
X13317560Y-10039296D01*
X13307516Y-10041736D01*
X13298516Y-10046099D01*
X13290825Y-10052169D01*
X13284706Y-10059731D01*
X13280426Y-10068568D01*
X13278250Y-10078464D01*
X13278123Y-10079989D01*
X13259487Y-10079989D01*
X13259524Y-10076746D01*
X13259806Y-10071573D01*
X13260381Y-10067555D01*
X13261338Y-10064001D01*
X13262428Y-10061061D01*
X13267932Y-10050617D01*
X13275520Y-10041161D01*
X13284814Y-10033059D01*
X13295436Y-10026673D01*
X13300268Y-10024566D01*
X13308059Y-10022396D01*
X13317289Y-10021167D01*
X13327027Y-10020909D01*
X13336340Y-10021650D01*
G04 #@! TO.C,SW8*
D11*
X18890000Y-10985000D02*
X18900000Y-10988333D01*
X18903333Y-10991667D01*
X18906667Y-10998333D01*
X18906667Y-11008333D01*
X18903333Y-11015000D01*
X18900000Y-11018333D01*
X18893333Y-11021667D01*
X18866667Y-11021667D01*
X18866667Y-10951667D01*
X18890000Y-10951667D01*
X18896667Y-10955000D01*
X18900000Y-10958333D01*
X18903333Y-10965000D01*
X18903333Y-10971667D01*
X18900000Y-10978333D01*
X18896667Y-10981667D01*
X18890000Y-10985000D01*
X18866667Y-10985000D01*
X18930000Y-10951667D02*
X18973333Y-10951667D01*
X18950000Y-10978333D01*
X18960000Y-10978333D01*
X18966667Y-10981667D01*
X18970000Y-10985000D01*
X18973333Y-10991667D01*
X18973333Y-11008333D01*
X18970000Y-11015000D01*
X18966667Y-11018333D01*
X18960000Y-11021667D01*
X18940000Y-11021667D01*
X18933333Y-11018333D01*
X18930000Y-11015000D01*
X19003333Y-10951667D02*
X19003333Y-11008333D01*
X19006667Y-11015000D01*
X19010000Y-11018333D01*
X19016667Y-11021667D01*
X19030000Y-11021667D01*
X19036667Y-11018333D01*
X19040000Y-11015000D01*
X19043333Y-11008333D01*
X19043333Y-10951667D01*
G04 #@! TO.C,SW6*
D13*
X15856548Y-11247857D02*
X15823214Y-11247857D01*
X15823214Y-11300238D02*
X15823214Y-11200238D01*
X15870833Y-11200238D01*
X15904167Y-11295476D02*
X15918452Y-11300238D01*
X15942262Y-11300238D01*
X15951786Y-11295476D01*
X15956548Y-11290714D01*
X15961309Y-11281190D01*
X15961309Y-11271667D01*
X15956548Y-11262143D01*
X15951786Y-11257381D01*
X15942262Y-11252619D01*
X15923214Y-11247857D01*
X15913690Y-11243095D01*
X15908928Y-11238333D01*
X15904167Y-11228809D01*
X15904167Y-11219286D01*
X15908928Y-11209762D01*
X15913690Y-11205000D01*
X15923214Y-11200238D01*
X15947024Y-11200238D01*
X15961309Y-11205000D01*
X16004167Y-11300238D02*
X16004167Y-11200238D01*
X16037500Y-11271667D01*
X16070833Y-11200238D01*
X16070833Y-11300238D01*
X16113690Y-11209762D02*
X16118452Y-11205000D01*
X16127976Y-11200238D01*
X16151786Y-11200238D01*
X16161309Y-11205000D01*
X16166071Y-11209762D01*
X16170833Y-11219286D01*
X16170833Y-11228809D01*
X16166071Y-11243095D01*
X16108928Y-11300238D01*
X16170833Y-11300238D01*
X16242262Y-11200238D02*
X16242262Y-11271667D01*
X16237500Y-11285952D01*
X16227976Y-11295476D01*
X16213690Y-11300238D01*
X16204167Y-11300238D01*
X16285119Y-11295476D02*
X16299405Y-11300238D01*
X16323214Y-11300238D01*
X16332738Y-11295476D01*
X16337500Y-11290714D01*
X16342262Y-11281190D01*
X16342262Y-11271667D01*
X16337500Y-11262143D01*
X16332738Y-11257381D01*
X16323214Y-11252619D01*
X16304167Y-11247857D01*
X16294643Y-11243095D01*
X16289881Y-11238333D01*
X16285119Y-11228809D01*
X16285119Y-11219286D01*
X16289881Y-11209762D01*
X16294643Y-11205000D01*
X16304167Y-11200238D01*
X16327976Y-11200238D01*
X16342262Y-11205000D01*
X16385119Y-11300238D02*
X16385119Y-11200238D01*
X16418452Y-11271667D01*
X16451786Y-11200238D01*
X16451786Y-11300238D01*
G04 #@! TO.C,SW3*
X17226667Y-10497857D02*
X17240952Y-10502619D01*
X17245714Y-10507381D01*
X17250476Y-10516905D01*
X17250476Y-10531190D01*
X17245714Y-10540714D01*
X17240952Y-10545476D01*
X17231429Y-10550238D01*
X17193333Y-10550238D01*
X17193333Y-10450238D01*
X17226667Y-10450238D01*
X17236190Y-10455000D01*
X17240952Y-10459762D01*
X17245714Y-10469286D01*
X17245714Y-10478810D01*
X17240952Y-10488333D01*
X17236190Y-10493095D01*
X17226667Y-10497857D01*
X17193333Y-10497857D01*
X17283810Y-10450238D02*
X17345714Y-10450238D01*
X17312381Y-10488333D01*
X17326667Y-10488333D01*
X17336190Y-10493095D01*
X17340952Y-10497857D01*
X17345714Y-10507381D01*
X17345714Y-10531190D01*
X17340952Y-10540714D01*
X17336190Y-10545476D01*
X17326667Y-10550238D01*
X17298095Y-10550238D01*
X17288571Y-10545476D01*
X17283810Y-10540714D01*
X17388571Y-10450238D02*
X17388571Y-10531190D01*
X17393333Y-10540714D01*
X17398095Y-10545476D01*
X17407619Y-10550238D01*
X17426667Y-10550238D01*
X17436190Y-10545476D01*
X17440952Y-10540714D01*
X17445714Y-10531190D01*
X17445714Y-10450238D01*
X17545714Y-10550238D02*
X17488571Y-10550238D01*
X17517143Y-10550238D02*
X17517143Y-10450238D01*
X17507619Y-10464524D01*
X17498095Y-10474048D01*
X17488571Y-10478810D01*
X17607619Y-10450238D02*
X17617143Y-10450238D01*
X17626667Y-10455000D01*
X17631429Y-10459762D01*
X17636190Y-10469286D01*
X17640952Y-10488333D01*
X17640952Y-10512143D01*
X17636190Y-10531190D01*
X17631429Y-10540714D01*
X17626667Y-10545476D01*
X17617143Y-10550238D01*
X17607619Y-10550238D01*
X17598095Y-10545476D01*
X17593333Y-10540714D01*
X17588571Y-10531190D01*
X17583810Y-10512143D01*
X17583810Y-10488333D01*
X17588571Y-10469286D01*
X17593333Y-10459762D01*
X17598095Y-10455000D01*
X17607619Y-10450238D01*
X17702857Y-10450238D02*
X17712381Y-10450238D01*
X17721905Y-10455000D01*
X17726667Y-10459762D01*
X17731429Y-10469286D01*
X17736190Y-10488333D01*
X17736190Y-10512143D01*
X17731429Y-10531190D01*
X17726667Y-10540714D01*
X17721905Y-10545476D01*
X17712381Y-10550238D01*
X17702857Y-10550238D01*
X17693333Y-10545476D01*
X17688571Y-10540714D01*
X17683810Y-10531190D01*
X17679048Y-10512143D01*
X17679048Y-10488333D01*
X17683810Y-10469286D01*
X17688571Y-10459762D01*
X17693333Y-10455000D01*
X17702857Y-10450238D01*
X17798095Y-10450238D02*
X17807619Y-10450238D01*
X17817143Y-10455000D01*
X17821905Y-10459762D01*
X17826667Y-10469286D01*
X17831429Y-10488333D01*
X17831429Y-10512143D01*
X17826667Y-10531190D01*
X17821905Y-10540714D01*
X17817143Y-10545476D01*
X17807619Y-10550238D01*
X17798095Y-10550238D01*
X17788571Y-10545476D01*
X17783810Y-10540714D01*
X17779048Y-10531190D01*
X17774286Y-10512143D01*
X17774286Y-10488333D01*
X17779048Y-10469286D01*
X17783810Y-10459762D01*
X17788571Y-10455000D01*
X17798095Y-10450238D01*
X17874286Y-10550238D02*
X17874286Y-10450238D01*
X17912381Y-10450238D01*
X17921905Y-10455000D01*
X17926667Y-10459762D01*
X17931429Y-10469286D01*
X17931429Y-10483571D01*
X17926667Y-10493095D01*
X17921905Y-10497857D01*
X17912381Y-10502619D01*
X17874286Y-10502619D01*
G04 #@! TO.C,SW1*
X18159048Y-11195238D02*
X18159048Y-11095238D01*
X18216190Y-11195238D02*
X18173333Y-11138095D01*
X18216190Y-11095238D02*
X18159048Y-11152381D01*
X18259048Y-11195238D02*
X18259048Y-11095238D01*
X18292381Y-11166667D01*
X18325714Y-11095238D01*
X18325714Y-11195238D01*
X18430476Y-11195238D02*
X18397143Y-11147619D01*
X18373333Y-11195238D02*
X18373333Y-11095238D01*
X18411429Y-11095238D01*
X18420952Y-11100000D01*
X18425714Y-11104762D01*
X18430476Y-11114286D01*
X18430476Y-11128571D01*
X18425714Y-11138095D01*
X18420952Y-11142857D01*
X18411429Y-11147619D01*
X18373333Y-11147619D01*
X18468571Y-11104762D02*
X18473333Y-11100000D01*
X18482857Y-11095238D01*
X18506667Y-11095238D01*
X18516190Y-11100000D01*
X18520952Y-11104762D01*
X18525714Y-11114286D01*
X18525714Y-11123810D01*
X18520952Y-11138095D01*
X18463810Y-11195238D01*
X18525714Y-11195238D01*
G04 #@! TO.C,D6*
X13849886Y-11243876D02*
X13864171Y-11248638D01*
X13887981Y-11248638D01*
X13897505Y-11243876D01*
X13902267Y-11239114D01*
X13907028Y-11229590D01*
X13907028Y-11220067D01*
X13902267Y-11210543D01*
X13897505Y-11205781D01*
X13887981Y-11201019D01*
X13868933Y-11196257D01*
X13859409Y-11191495D01*
X13854648Y-11186733D01*
X13849886Y-11177210D01*
X13849886Y-11167686D01*
X13854648Y-11158162D01*
X13859409Y-11153400D01*
X13868933Y-11148638D01*
X13892743Y-11148638D01*
X13907028Y-11153400D01*
X13968933Y-11148638D02*
X13987981Y-11148638D01*
X13997505Y-11153400D01*
X14007028Y-11162924D01*
X14011790Y-11181971D01*
X14011790Y-11215305D01*
X14007028Y-11234352D01*
X13997505Y-11243876D01*
X13987981Y-11248638D01*
X13968933Y-11248638D01*
X13959409Y-11243876D01*
X13949886Y-11234352D01*
X13945124Y-11215305D01*
X13945124Y-11181971D01*
X13949886Y-11162924D01*
X13959409Y-11153400D01*
X13968933Y-11148638D01*
X14054648Y-11248638D02*
X14054648Y-11148638D01*
X14078457Y-11148638D01*
X14092743Y-11153400D01*
X14102267Y-11162924D01*
X14107028Y-11172448D01*
X14111790Y-11191495D01*
X14111790Y-11205781D01*
X14107028Y-11224828D01*
X14102267Y-11234352D01*
X14092743Y-11243876D01*
X14078457Y-11248638D01*
X14054648Y-11248638D01*
X14154648Y-11210543D02*
X14230838Y-11210543D01*
X14326076Y-11148638D02*
X14278457Y-11148638D01*
X14273695Y-11196257D01*
X14278457Y-11191495D01*
X14287981Y-11186733D01*
X14311790Y-11186733D01*
X14321314Y-11191495D01*
X14326076Y-11196257D01*
X14330838Y-11205781D01*
X14330838Y-11229590D01*
X14326076Y-11239114D01*
X14321314Y-11243876D01*
X14311790Y-11248638D01*
X14287981Y-11248638D01*
X14278457Y-11243876D01*
X14273695Y-11239114D01*
X14368933Y-11158162D02*
X14373695Y-11153400D01*
X14383219Y-11148638D01*
X14407028Y-11148638D01*
X14416552Y-11153400D01*
X14421314Y-11158162D01*
X14426076Y-11167686D01*
X14426076Y-11177210D01*
X14421314Y-11191495D01*
X14364171Y-11248638D01*
X14426076Y-11248638D01*
X14459409Y-11148638D02*
X14521314Y-11148638D01*
X14487981Y-11186733D01*
X14502267Y-11186733D01*
X14511790Y-11191495D01*
X14516552Y-11196257D01*
X14521314Y-11205781D01*
X14521314Y-11229590D01*
X14516552Y-11239114D01*
X14511790Y-11243876D01*
X14502267Y-11248638D01*
X14473695Y-11248638D01*
X14464171Y-11243876D01*
X14459409Y-11239114D01*
G04 #@! TO.C,D5*
X13856086Y-11020676D02*
X13870371Y-11025438D01*
X13894181Y-11025438D01*
X13903705Y-11020676D01*
X13908467Y-11015914D01*
X13913228Y-11006390D01*
X13913228Y-10996867D01*
X13908467Y-10987343D01*
X13903705Y-10982581D01*
X13894181Y-10977819D01*
X13875133Y-10973057D01*
X13865609Y-10968295D01*
X13860848Y-10963533D01*
X13856086Y-10954010D01*
X13856086Y-10944486D01*
X13860848Y-10934962D01*
X13865609Y-10930200D01*
X13875133Y-10925438D01*
X13898943Y-10925438D01*
X13913228Y-10930200D01*
X13975133Y-10925438D02*
X13994181Y-10925438D01*
X14003705Y-10930200D01*
X14013228Y-10939724D01*
X14017990Y-10958771D01*
X14017990Y-10992105D01*
X14013228Y-11011152D01*
X14003705Y-11020676D01*
X13994181Y-11025438D01*
X13975133Y-11025438D01*
X13965609Y-11020676D01*
X13956086Y-11011152D01*
X13951324Y-10992105D01*
X13951324Y-10958771D01*
X13956086Y-10939724D01*
X13965609Y-10930200D01*
X13975133Y-10925438D01*
X14060848Y-11025438D02*
X14060848Y-10925438D01*
X14084657Y-10925438D01*
X14098943Y-10930200D01*
X14108467Y-10939724D01*
X14113228Y-10949248D01*
X14117990Y-10968295D01*
X14117990Y-10982581D01*
X14113228Y-11001629D01*
X14108467Y-11011152D01*
X14098943Y-11020676D01*
X14084657Y-11025438D01*
X14060848Y-11025438D01*
X14160848Y-10987343D02*
X14237038Y-10987343D01*
X14275133Y-10925438D02*
X14337038Y-10925438D01*
X14303705Y-10963533D01*
X14317990Y-10963533D01*
X14327514Y-10968295D01*
X14332276Y-10973057D01*
X14337038Y-10982581D01*
X14337038Y-11006390D01*
X14332276Y-11015914D01*
X14327514Y-11020676D01*
X14317990Y-11025438D01*
X14289419Y-11025438D01*
X14279895Y-11020676D01*
X14275133Y-11015914D01*
X14375133Y-10934962D02*
X14379895Y-10930200D01*
X14389419Y-10925438D01*
X14413228Y-10925438D01*
X14422752Y-10930200D01*
X14427514Y-10934962D01*
X14432276Y-10944486D01*
X14432276Y-10954010D01*
X14427514Y-10968295D01*
X14370371Y-11025438D01*
X14432276Y-11025438D01*
X14465609Y-10925438D02*
X14527514Y-10925438D01*
X14494181Y-10963533D01*
X14508467Y-10963533D01*
X14517990Y-10968295D01*
X14522752Y-10973057D01*
X14527514Y-10982581D01*
X14527514Y-11006390D01*
X14522752Y-11015914D01*
X14517990Y-11020676D01*
X14508467Y-11025438D01*
X14479895Y-11025438D01*
X14470371Y-11020676D01*
X14465609Y-11015914D01*
G04 #@! TO.C,D4*
X13849886Y-10812076D02*
X13864171Y-10816838D01*
X13887981Y-10816838D01*
X13897505Y-10812076D01*
X13902267Y-10807314D01*
X13907028Y-10797790D01*
X13907028Y-10788267D01*
X13902267Y-10778743D01*
X13897505Y-10773981D01*
X13887981Y-10769219D01*
X13868933Y-10764457D01*
X13859409Y-10759695D01*
X13854648Y-10754933D01*
X13849886Y-10745410D01*
X13849886Y-10735886D01*
X13854648Y-10726362D01*
X13859409Y-10721600D01*
X13868933Y-10716838D01*
X13892743Y-10716838D01*
X13907028Y-10721600D01*
X13968933Y-10716838D02*
X13987981Y-10716838D01*
X13997505Y-10721600D01*
X14007028Y-10731124D01*
X14011790Y-10750171D01*
X14011790Y-10783505D01*
X14007028Y-10802552D01*
X13997505Y-10812076D01*
X13987981Y-10816838D01*
X13968933Y-10816838D01*
X13959409Y-10812076D01*
X13949886Y-10802552D01*
X13945124Y-10783505D01*
X13945124Y-10750171D01*
X13949886Y-10731124D01*
X13959409Y-10721600D01*
X13968933Y-10716838D01*
X14054648Y-10816838D02*
X14054648Y-10716838D01*
X14078457Y-10716838D01*
X14092743Y-10721600D01*
X14102267Y-10731124D01*
X14107028Y-10740648D01*
X14111790Y-10759695D01*
X14111790Y-10773981D01*
X14107028Y-10793029D01*
X14102267Y-10802552D01*
X14092743Y-10812076D01*
X14078457Y-10816838D01*
X14054648Y-10816838D01*
X14154648Y-10778743D02*
X14230838Y-10778743D01*
X14330838Y-10816838D02*
X14273695Y-10816838D01*
X14302267Y-10816838D02*
X14302267Y-10716838D01*
X14292743Y-10731124D01*
X14283219Y-10740648D01*
X14273695Y-10745410D01*
X14368933Y-10726362D02*
X14373695Y-10721600D01*
X14383219Y-10716838D01*
X14407028Y-10716838D01*
X14416552Y-10721600D01*
X14421314Y-10726362D01*
X14426076Y-10735886D01*
X14426076Y-10745410D01*
X14421314Y-10759695D01*
X14364171Y-10816838D01*
X14426076Y-10816838D01*
X14459409Y-10716838D02*
X14521314Y-10716838D01*
X14487981Y-10754933D01*
X14502267Y-10754933D01*
X14511790Y-10759695D01*
X14516552Y-10764457D01*
X14521314Y-10773981D01*
X14521314Y-10797790D01*
X14516552Y-10807314D01*
X14511790Y-10812076D01*
X14502267Y-10816838D01*
X14473695Y-10816838D01*
X14464171Y-10812076D01*
X14459409Y-10807314D01*
G04 #@! TO.C,D3*
X12243276Y-11105514D02*
X12248038Y-11091229D01*
X12248038Y-11067419D01*
X12243276Y-11057895D01*
X12238514Y-11053133D01*
X12228990Y-11048371D01*
X12219467Y-11048371D01*
X12209943Y-11053133D01*
X12205181Y-11057895D01*
X12200419Y-11067419D01*
X12195657Y-11086467D01*
X12190895Y-11095990D01*
X12186133Y-11100752D01*
X12176609Y-11105514D01*
X12167086Y-11105514D01*
X12157562Y-11100752D01*
X12152800Y-11095990D01*
X12148038Y-11086467D01*
X12148038Y-11062657D01*
X12152800Y-11048371D01*
X12248038Y-11005514D02*
X12148038Y-11005514D01*
X12219467Y-10972181D01*
X12148038Y-10938848D01*
X12248038Y-10938848D01*
X12238514Y-10834086D02*
X12243276Y-10838848D01*
X12248038Y-10853133D01*
X12248038Y-10862657D01*
X12243276Y-10876943D01*
X12233752Y-10886467D01*
X12224228Y-10891229D01*
X12205181Y-10895990D01*
X12190895Y-10895990D01*
X12171848Y-10891229D01*
X12162324Y-10886467D01*
X12152800Y-10876943D01*
X12148038Y-10862657D01*
X12148038Y-10853133D01*
X12152800Y-10838848D01*
X12157562Y-10834086D01*
G04 #@! TO.C,D2*
X13413276Y-10507914D02*
X13418038Y-10493629D01*
X13418038Y-10469819D01*
X13413276Y-10460295D01*
X13408514Y-10455533D01*
X13398990Y-10450771D01*
X13389467Y-10450771D01*
X13379943Y-10455533D01*
X13375181Y-10460295D01*
X13370419Y-10469819D01*
X13365657Y-10488867D01*
X13360895Y-10498390D01*
X13356133Y-10503152D01*
X13346609Y-10507914D01*
X13337086Y-10507914D01*
X13327562Y-10503152D01*
X13322800Y-10498390D01*
X13318038Y-10488867D01*
X13318038Y-10465057D01*
X13322800Y-10450771D01*
X13418038Y-10407914D02*
X13318038Y-10407914D01*
X13389467Y-10374581D01*
X13318038Y-10341248D01*
X13418038Y-10341248D01*
X13365657Y-10260295D02*
X13370419Y-10246010D01*
X13375181Y-10241248D01*
X13384705Y-10236486D01*
X13398990Y-10236486D01*
X13408514Y-10241248D01*
X13413276Y-10246010D01*
X13418038Y-10255533D01*
X13418038Y-10293629D01*
X13318038Y-10293629D01*
X13318038Y-10260295D01*
X13322800Y-10250771D01*
X13327562Y-10246010D01*
X13337086Y-10241248D01*
X13346609Y-10241248D01*
X13356133Y-10246010D01*
X13360895Y-10250771D01*
X13365657Y-10260295D01*
X13365657Y-10293629D01*
G04 #@! TO.C,D1*
X12440276Y-10477571D02*
X12445038Y-10463286D01*
X12445038Y-10439476D01*
X12440276Y-10429952D01*
X12435514Y-10425190D01*
X12425990Y-10420429D01*
X12416467Y-10420429D01*
X12406943Y-10425190D01*
X12402181Y-10429952D01*
X12397419Y-10439476D01*
X12392657Y-10458524D01*
X12387895Y-10468048D01*
X12383133Y-10472810D01*
X12373609Y-10477571D01*
X12364086Y-10477571D01*
X12354562Y-10472810D01*
X12349800Y-10468048D01*
X12345038Y-10458524D01*
X12345038Y-10434714D01*
X12349800Y-10420429D01*
X12445038Y-10377571D02*
X12345038Y-10377571D01*
X12416467Y-10344238D01*
X12345038Y-10310905D01*
X12445038Y-10310905D01*
X12416467Y-10268048D02*
X12416467Y-10220429D01*
X12445038Y-10277571D02*
X12345038Y-10244238D01*
X12445038Y-10210905D01*
G04 #@! TO.C,SW7*
X14667571Y-11139238D02*
X14667571Y-11210667D01*
X14662809Y-11224952D01*
X14653286Y-11234476D01*
X14639000Y-11239238D01*
X14629476Y-11239238D01*
X14710428Y-11234476D02*
X14724714Y-11239238D01*
X14748524Y-11239238D01*
X14758048Y-11234476D01*
X14762809Y-11229714D01*
X14767571Y-11220190D01*
X14767571Y-11210667D01*
X14762809Y-11201143D01*
X14758048Y-11196381D01*
X14748524Y-11191619D01*
X14729476Y-11186857D01*
X14719952Y-11182095D01*
X14715190Y-11177333D01*
X14710428Y-11167810D01*
X14710428Y-11158286D01*
X14715190Y-11148762D01*
X14719952Y-11144000D01*
X14729476Y-11139238D01*
X14753286Y-11139238D01*
X14767571Y-11144000D01*
X14805667Y-11148762D02*
X14810428Y-11144000D01*
X14819952Y-11139238D01*
X14843762Y-11139238D01*
X14853286Y-11144000D01*
X14858048Y-11148762D01*
X14862809Y-11158286D01*
X14862809Y-11167810D01*
X14858048Y-11182095D01*
X14800905Y-11239238D01*
X14862809Y-11239238D01*
X14924714Y-11139238D02*
X14934238Y-11139238D01*
X14943762Y-11144000D01*
X14948524Y-11148762D01*
X14953286Y-11158286D01*
X14958048Y-11177333D01*
X14958048Y-11201143D01*
X14953286Y-11220190D01*
X14948524Y-11229714D01*
X14943762Y-11234476D01*
X14934238Y-11239238D01*
X14924714Y-11239238D01*
X14915190Y-11234476D01*
X14910428Y-11229714D01*
X14905667Y-11220190D01*
X14900905Y-11201143D01*
X14900905Y-11177333D01*
X14905667Y-11158286D01*
X14910428Y-11148762D01*
X14915190Y-11144000D01*
X14924714Y-11139238D01*
X14996143Y-11148762D02*
X15000905Y-11144000D01*
X15010428Y-11139238D01*
X15034238Y-11139238D01*
X15043762Y-11144000D01*
X15048524Y-11148762D01*
X15053286Y-11158286D01*
X15053286Y-11167810D01*
X15048524Y-11182095D01*
X14991381Y-11239238D01*
X15053286Y-11239238D01*
X15115190Y-11139238D02*
X15124714Y-11139238D01*
X15134238Y-11144000D01*
X15139000Y-11148762D01*
X15143762Y-11158286D01*
X15148524Y-11177333D01*
X15148524Y-11201143D01*
X15143762Y-11220190D01*
X15139000Y-11229714D01*
X15134238Y-11234476D01*
X15124714Y-11239238D01*
X15115190Y-11239238D01*
X15105667Y-11234476D01*
X15100905Y-11229714D01*
X15096143Y-11220190D01*
X15091381Y-11201143D01*
X15091381Y-11177333D01*
X15096143Y-11158286D01*
X15100905Y-11148762D01*
X15105667Y-11144000D01*
X15115190Y-11139238D01*
X15243762Y-11239238D02*
X15186619Y-11239238D01*
X15215190Y-11239238D02*
X15215190Y-11139238D01*
X15205667Y-11153524D01*
X15196143Y-11163048D01*
X15186619Y-11167810D01*
X15339000Y-11239238D02*
X15281857Y-11239238D01*
X15310428Y-11239238D02*
X15310428Y-11139238D01*
X15300905Y-11153524D01*
X15291381Y-11163048D01*
X15281857Y-11167810D01*
X15377095Y-11234476D02*
X15391381Y-11239238D01*
X15415190Y-11239238D01*
X15424714Y-11234476D01*
X15429476Y-11229714D01*
X15434238Y-11220190D01*
X15434238Y-11210667D01*
X15429476Y-11201143D01*
X15424714Y-11196381D01*
X15415190Y-11191619D01*
X15396143Y-11186857D01*
X15386619Y-11182095D01*
X15381857Y-11177333D01*
X15377095Y-11167810D01*
X15377095Y-11158286D01*
X15381857Y-11148762D01*
X15386619Y-11144000D01*
X15396143Y-11139238D01*
X15419952Y-11139238D01*
X15434238Y-11144000D01*
X15534238Y-11229714D02*
X15529476Y-11234476D01*
X15515190Y-11239238D01*
X15505667Y-11239238D01*
X15491381Y-11234476D01*
X15481857Y-11224952D01*
X15477095Y-11215428D01*
X15472333Y-11196381D01*
X15472333Y-11182095D01*
X15477095Y-11163048D01*
X15481857Y-11153524D01*
X15491381Y-11144000D01*
X15505667Y-11139238D01*
X15515190Y-11139238D01*
X15529476Y-11144000D01*
X15534238Y-11148762D01*
X15643762Y-11248762D02*
X15634238Y-11244000D01*
X15624714Y-11234476D01*
X15610428Y-11220190D01*
X15600905Y-11215428D01*
X15591381Y-11215428D01*
X15596143Y-11239238D02*
X15586619Y-11234476D01*
X15577095Y-11224952D01*
X15572333Y-11205905D01*
X15572333Y-11172571D01*
X15577095Y-11153524D01*
X15586619Y-11144000D01*
X15596143Y-11139238D01*
X15615190Y-11139238D01*
X15624714Y-11144000D01*
X15634238Y-11153524D01*
X15639000Y-11172571D01*
X15639000Y-11205905D01*
X15634238Y-11224952D01*
X15624714Y-11234476D01*
X15615190Y-11239238D01*
X15596143Y-11239238D01*
X15681857Y-11239238D02*
X15681857Y-11139238D01*
X15739000Y-11239238D01*
X15739000Y-11139238D01*
G04 #@! TO.C,SW5*
X17300076Y-11157638D02*
X17357219Y-11157638D01*
X17328648Y-11257638D02*
X17328648Y-11157638D01*
X17438171Y-11257638D02*
X17390552Y-11257638D01*
X17390552Y-11157638D01*
X17461981Y-11157638D02*
X17523886Y-11157638D01*
X17490552Y-11195733D01*
X17504838Y-11195733D01*
X17514362Y-11200495D01*
X17519124Y-11205257D01*
X17523886Y-11214781D01*
X17523886Y-11238590D01*
X17519124Y-11248114D01*
X17514362Y-11252876D01*
X17504838Y-11257638D01*
X17476267Y-11257638D01*
X17466743Y-11252876D01*
X17461981Y-11248114D01*
X17557219Y-11157638D02*
X17619124Y-11157638D01*
X17585790Y-11195733D01*
X17600076Y-11195733D01*
X17609600Y-11200495D01*
X17614362Y-11205257D01*
X17619124Y-11214781D01*
X17619124Y-11238590D01*
X17614362Y-11248114D01*
X17609600Y-11252876D01*
X17600076Y-11257638D01*
X17571505Y-11257638D01*
X17561981Y-11252876D01*
X17557219Y-11248114D01*
X17714362Y-11257638D02*
X17657219Y-11257638D01*
X17685790Y-11257638D02*
X17685790Y-11157638D01*
X17676267Y-11171924D01*
X17666743Y-11181448D01*
X17657219Y-11186209D01*
X17804838Y-11157638D02*
X17757219Y-11157638D01*
X17752457Y-11205257D01*
X17757219Y-11200495D01*
X17766743Y-11195733D01*
X17790552Y-11195733D01*
X17800076Y-11200495D01*
X17804838Y-11205257D01*
X17809600Y-11214781D01*
X17809600Y-11238590D01*
X17804838Y-11248114D01*
X17800076Y-11252876D01*
X17790552Y-11257638D01*
X17766743Y-11257638D01*
X17757219Y-11252876D01*
X17752457Y-11248114D01*
G04 #@! TO.C,SW2*
X18125476Y-10507857D02*
X18158810Y-10507857D01*
X18173095Y-10560238D02*
X18125476Y-10560238D01*
X18125476Y-10460238D01*
X18173095Y-10460238D01*
X18201667Y-10460238D02*
X18235000Y-10560238D01*
X18268333Y-10460238D01*
X18368333Y-10569762D02*
X18358810Y-10565000D01*
X18349286Y-10555476D01*
X18335000Y-10541190D01*
X18325476Y-10536429D01*
X18315952Y-10536429D01*
X18320714Y-10560238D02*
X18311190Y-10555476D01*
X18301667Y-10545952D01*
X18296905Y-10526905D01*
X18296905Y-10493571D01*
X18301667Y-10474524D01*
X18311190Y-10465000D01*
X18320714Y-10460238D01*
X18339762Y-10460238D01*
X18349286Y-10465000D01*
X18358810Y-10474524D01*
X18363571Y-10493571D01*
X18363571Y-10526905D01*
X18358810Y-10545952D01*
X18349286Y-10555476D01*
X18339762Y-10560238D01*
X18320714Y-10560238D01*
X18406429Y-10560238D02*
X18406429Y-10460238D01*
X18444524Y-10460238D01*
X18454048Y-10465000D01*
X18458810Y-10469762D01*
X18463571Y-10479286D01*
X18463571Y-10493571D01*
X18458810Y-10503095D01*
X18454048Y-10507857D01*
X18444524Y-10512619D01*
X18406429Y-10512619D01*
X18506429Y-10507857D02*
X18539762Y-10507857D01*
X18554048Y-10560238D02*
X18506429Y-10560238D01*
X18506429Y-10460238D01*
X18554048Y-10460238D01*
X18649286Y-10560238D02*
X18592143Y-10560238D01*
X18620714Y-10560238D02*
X18620714Y-10460238D01*
X18611190Y-10474524D01*
X18601667Y-10484048D01*
X18592143Y-10488810D01*
G04 #@! TO.C,LED1*
X9947810Y-11076238D02*
X9900190Y-11076238D01*
X9900190Y-10976238D01*
X9981143Y-11023857D02*
X10014476Y-11023857D01*
X10028762Y-11076238D02*
X9981143Y-11076238D01*
X9981143Y-10976238D01*
X10028762Y-10976238D01*
X10071619Y-11076238D02*
X10071619Y-10976238D01*
X10095429Y-10976238D01*
X10109714Y-10981000D01*
X10119238Y-10990524D01*
X10124000Y-11000048D01*
X10128762Y-11019095D01*
X10128762Y-11033381D01*
X10124000Y-11052429D01*
X10119238Y-11061952D01*
X10109714Y-11071476D01*
X10095429Y-11076238D01*
X10071619Y-11076238D01*
X10233524Y-10976238D02*
X10290667Y-10976238D01*
X10262095Y-11076238D02*
X10262095Y-10976238D01*
X10362095Y-11071476D02*
X10352571Y-11076238D01*
X10333524Y-11076238D01*
X10324000Y-11071476D01*
X10319238Y-11061952D01*
X10319238Y-11023857D01*
X10324000Y-11014333D01*
X10333524Y-11009571D01*
X10352571Y-11009571D01*
X10362095Y-11014333D01*
X10366857Y-11023857D01*
X10366857Y-11033381D01*
X10319238Y-11042905D01*
X10404952Y-11071476D02*
X10414476Y-11076238D01*
X10433524Y-11076238D01*
X10443048Y-11071476D01*
X10447810Y-11061952D01*
X10447810Y-11057190D01*
X10443048Y-11047667D01*
X10433524Y-11042905D01*
X10419238Y-11042905D01*
X10409714Y-11038143D01*
X10404952Y-11028619D01*
X10404952Y-11023857D01*
X10409714Y-11014333D01*
X10419238Y-11009571D01*
X10433524Y-11009571D01*
X10443048Y-11014333D01*
X10476381Y-11009571D02*
X10514476Y-11009571D01*
X10490667Y-10976238D02*
X10490667Y-11061952D01*
X10495429Y-11071476D01*
X10504952Y-11076238D01*
X10514476Y-11076238D01*
X10585905Y-11071476D02*
X10576381Y-11076238D01*
X10557333Y-11076238D01*
X10547810Y-11071476D01*
X10543048Y-11061952D01*
X10543048Y-11023857D01*
X10547810Y-11014333D01*
X10557333Y-11009571D01*
X10576381Y-11009571D01*
X10585905Y-11014333D01*
X10590667Y-11023857D01*
X10590667Y-11033381D01*
X10543048Y-11042905D01*
X10633524Y-11076238D02*
X10633524Y-11009571D01*
X10633524Y-11028619D02*
X10638286Y-11019095D01*
X10643048Y-11014333D01*
X10652571Y-11009571D01*
X10662095Y-11009571D01*
G04 #@! TO.C,SW4*
X16661428Y-11060857D02*
X16628095Y-11060857D01*
X16628095Y-11113238D02*
X16628095Y-11013238D01*
X16675714Y-11013238D01*
X16709048Y-11108476D02*
X16723333Y-11113238D01*
X16747143Y-11113238D01*
X16756667Y-11108476D01*
X16761428Y-11103714D01*
X16766190Y-11094190D01*
X16766190Y-11084667D01*
X16761428Y-11075143D01*
X16756667Y-11070381D01*
X16747143Y-11065619D01*
X16728095Y-11060857D01*
X16718571Y-11056095D01*
X16713809Y-11051333D01*
X16709048Y-11041810D01*
X16709048Y-11032286D01*
X16713809Y-11022762D01*
X16718571Y-11018000D01*
X16728095Y-11013238D01*
X16751905Y-11013238D01*
X16766190Y-11018000D01*
X16809048Y-11113238D02*
X16809048Y-11013238D01*
X16842381Y-11084667D01*
X16875714Y-11013238D01*
X16875714Y-11113238D01*
X16980476Y-11103714D02*
X16975714Y-11108476D01*
X16961429Y-11113238D01*
X16951905Y-11113238D01*
X16937619Y-11108476D01*
X16928095Y-11098952D01*
X16923333Y-11089429D01*
X16918571Y-11070381D01*
X16918571Y-11056095D01*
X16923333Y-11037048D01*
X16928095Y-11027524D01*
X16937619Y-11018000D01*
X16951905Y-11013238D01*
X16961429Y-11013238D01*
X16975714Y-11018000D01*
X16980476Y-11022762D01*
X17009048Y-11013238D02*
X17066190Y-11013238D01*
X17037619Y-11113238D02*
X17037619Y-11013238D01*
G04 #@! TD*
%LPC*%
D17*
G04 #@! TO.C,DRAWING1*
G36*
X22219390Y-9175788D02*
X22242744Y-9182988D01*
X22265624Y-9192547D01*
X22287784Y-9204298D01*
X22308980Y-9218069D01*
X22328966Y-9233693D01*
X22347495Y-9250999D01*
X22364324Y-9269818D01*
X22374065Y-9282546D01*
X22388144Y-9303934D01*
X22400085Y-9325979D01*
X22410019Y-9348993D01*
X22418075Y-9373288D01*
X22424384Y-9399176D01*
X22425781Y-9406350D01*
X22428485Y-9420955D01*
X22428895Y-10621105D01*
X22428917Y-10687701D01*
X22428938Y-10751805D01*
X22428958Y-10813465D01*
X22428977Y-10872729D01*
X22428994Y-10929646D01*
X22429009Y-10984262D01*
X22429023Y-11036627D01*
X22429035Y-11086788D01*
X22429045Y-11134793D01*
X22429053Y-11180690D01*
X22429060Y-11224528D01*
X22429064Y-11266354D01*
X22429066Y-11306217D01*
X22429067Y-11344164D01*
X22429065Y-11380243D01*
X22429061Y-11414503D01*
X22429054Y-11446992D01*
X22429045Y-11477757D01*
X22429034Y-11506846D01*
X22429020Y-11534308D01*
X22429004Y-11560191D01*
X22428985Y-11584543D01*
X22428963Y-11607411D01*
X22428938Y-11628844D01*
X22428911Y-11648890D01*
X22428881Y-11667597D01*
X22428847Y-11685012D01*
X22428811Y-11701185D01*
X22428771Y-11716162D01*
X22428728Y-11729992D01*
X22428682Y-11742723D01*
X22428633Y-11754404D01*
X22428580Y-11765081D01*
X22428524Y-11774803D01*
X22428464Y-11783619D01*
X22428401Y-11791576D01*
X22428334Y-11798721D01*
X22428263Y-11805104D01*
X22428188Y-11810773D01*
X22428110Y-11815774D01*
X22428027Y-11820157D01*
X22427941Y-11823969D01*
X22427850Y-11827259D01*
X22427756Y-11830074D01*
X22427657Y-11832462D01*
X22427554Y-11834472D01*
X22427446Y-11836152D01*
X22427334Y-11837549D01*
X22427218Y-11838711D01*
X22427180Y-11839035D01*
X22422706Y-11866037D01*
X22415864Y-11892207D01*
X22406709Y-11917433D01*
X22395298Y-11941601D01*
X22381687Y-11964600D01*
X22365933Y-11986318D01*
X22348091Y-12006643D01*
X22338225Y-12016418D01*
X22318379Y-12033488D01*
X22297143Y-12048469D01*
X22274467Y-12061388D01*
X22250304Y-12072273D01*
X22224604Y-12081150D01*
X22217080Y-12083292D01*
X22199935Y-12087955D01*
X14480240Y-12088158D01*
X14306064Y-12088163D01*
X14134411Y-12088167D01*
X13965263Y-12088171D01*
X13798604Y-12088175D01*
X13634417Y-12088178D01*
X13472684Y-12088182D01*
X13313389Y-12088185D01*
X13156513Y-12088188D01*
X13002041Y-12088191D01*
X12849955Y-12088193D01*
X12700237Y-12088195D01*
X12552871Y-12088197D01*
X12407840Y-12088199D01*
X12265127Y-12088200D01*
X12124713Y-12088202D01*
X11986584Y-12088202D01*
X11850720Y-12088203D01*
X11717105Y-12088204D01*
X11585722Y-12088204D01*
X11456554Y-12088203D01*
X11329584Y-12088203D01*
X11204794Y-12088202D01*
X11082168Y-12088201D01*
X10961688Y-12088200D01*
X10843337Y-12088198D01*
X10727099Y-12088197D01*
X10612955Y-12088194D01*
X10500889Y-12088192D01*
X10390885Y-12088189D01*
X10282923Y-12088186D01*
X10176989Y-12088183D01*
X10073063Y-12088179D01*
X9971130Y-12088175D01*
X9871173Y-12088171D01*
X9773173Y-12088166D01*
X9677114Y-12088161D01*
X9582979Y-12088156D01*
X9490751Y-12088150D01*
X9400413Y-12088144D01*
X9311947Y-12088137D01*
X9225336Y-12088131D01*
X9140564Y-12088124D01*
X9057613Y-12088116D01*
X8976465Y-12088109D01*
X8897105Y-12088101D01*
X8819515Y-12088092D01*
X8743677Y-12088083D01*
X8669575Y-12088074D01*
X8597191Y-12088065D01*
X8526509Y-12088055D01*
X8457511Y-12088044D01*
X8390180Y-12088034D01*
X8324499Y-12088023D01*
X8260451Y-12088011D01*
X8198019Y-12087999D01*
X8137185Y-12087987D01*
X8077933Y-12087974D01*
X8020246Y-12087961D01*
X7964105Y-12087948D01*
X7909495Y-12087934D01*
X7856398Y-12087920D01*
X7804797Y-12087905D01*
X7754675Y-12087890D01*
X7706015Y-12087875D01*
X7658799Y-12087859D01*
X7613011Y-12087842D01*
X7568633Y-12087826D01*
X7525648Y-12087809D01*
X7484040Y-12087791D01*
X7443790Y-12087773D01*
X7404883Y-12087754D01*
X7367300Y-12087735D01*
X7331025Y-12087716D01*
X7296041Y-12087696D01*
X7262330Y-12087676D01*
X7229875Y-12087655D01*
X7198660Y-12087634D01*
X7168667Y-12087612D01*
X7139879Y-12087590D01*
X7112278Y-12087567D01*
X7085849Y-12087544D01*
X7060573Y-12087521D01*
X7036434Y-12087497D01*
X7013414Y-12087472D01*
X6991497Y-12087447D01*
X6970664Y-12087422D01*
X6950900Y-12087396D01*
X6932187Y-12087369D01*
X6914508Y-12087342D01*
X6897845Y-12087315D01*
X6882182Y-12087287D01*
X6867501Y-12087258D01*
X6853786Y-12087229D01*
X6841020Y-12087200D01*
X6829184Y-12087170D01*
X6818262Y-12087139D01*
X6808238Y-12087108D01*
X6799093Y-12087076D01*
X6790811Y-12087044D01*
X6783374Y-12087011D01*
X6776766Y-12086978D01*
X6770970Y-12086944D01*
X6765967Y-12086910D01*
X6761742Y-12086875D01*
X6758277Y-12086840D01*
X6755554Y-12086804D01*
X6753558Y-12086767D01*
X6752270Y-12086730D01*
X6751673Y-12086692D01*
X6751655Y-12086689D01*
X6727988Y-12081004D01*
X6704442Y-12072930D01*
X6681335Y-12062610D01*
X6658982Y-12050187D01*
X6637701Y-12035805D01*
X6635450Y-12034118D01*
X6628386Y-12028360D01*
X6620294Y-12021089D01*
X6611679Y-12012818D01*
X6603045Y-12004059D01*
X6594899Y-11995324D01*
X6587745Y-11987126D01*
X6582251Y-11980195D01*
X6569233Y-11961311D01*
X6558071Y-11942300D01*
X6548583Y-11922732D01*
X6540585Y-11902180D01*
X6533896Y-11880212D01*
X6528334Y-11856401D01*
X6527166Y-11850465D01*
X6526845Y-11848749D01*
X6526551Y-11847039D01*
X6526282Y-11845223D01*
X6526037Y-11843188D01*
X6525814Y-11840822D01*
X6525613Y-11838011D01*
X6525431Y-11834643D01*
X6525268Y-11830606D01*
X6525121Y-11825786D01*
X6524991Y-11820071D01*
X6524875Y-11813348D01*
X6524771Y-11805504D01*
X6524679Y-11796427D01*
X6524598Y-11786004D01*
X6524525Y-11774123D01*
X6524459Y-11760669D01*
X6524400Y-11745532D01*
X6524345Y-11728598D01*
X6524293Y-11709754D01*
X6524244Y-11688888D01*
X6524194Y-11665886D01*
X6524145Y-11640637D01*
X6524092Y-11613028D01*
X6524060Y-11595512D01*
X6524006Y-11566463D01*
X6523955Y-11539846D01*
X6523906Y-11515557D01*
X6523858Y-11493488D01*
X6523809Y-11473534D01*
X6523757Y-11455587D01*
X6523703Y-11439542D01*
X6523643Y-11425292D01*
X6523578Y-11412730D01*
X6523505Y-11401750D01*
X6523424Y-11392246D01*
X6523333Y-11384110D01*
X6523231Y-11377238D01*
X6523116Y-11371521D01*
X6522988Y-11366854D01*
X6522845Y-11363131D01*
X6522685Y-11360245D01*
X6522507Y-11358089D01*
X6522310Y-11356557D01*
X6522094Y-11355542D01*
X6521855Y-11354939D01*
X6521594Y-11354640D01*
X6521308Y-11354539D01*
X6521112Y-11354530D01*
X6520934Y-11354512D01*
X6520765Y-11354416D01*
X6520604Y-11354181D01*
X6520452Y-11353745D01*
X6520307Y-11353046D01*
X6520170Y-11352024D01*
X6520041Y-11350615D01*
X6519919Y-11348759D01*
X6519804Y-11346393D01*
X6519696Y-11343457D01*
X6519595Y-11339888D01*
X6519500Y-11335625D01*
X6519412Y-11330606D01*
X6519330Y-11324769D01*
X6519253Y-11318053D01*
X6519182Y-11310397D01*
X6519117Y-11301738D01*
X6519056Y-11292014D01*
X6519001Y-11281165D01*
X6518951Y-11269128D01*
X6518905Y-11255842D01*
X6518863Y-11241245D01*
X6518825Y-11225276D01*
X6518792Y-11207873D01*
X6518762Y-11188973D01*
X6518735Y-11168516D01*
X6518712Y-11146440D01*
X6518692Y-11122683D01*
X6518675Y-11097184D01*
X6518660Y-11069880D01*
X6518648Y-11040711D01*
X6518638Y-11009614D01*
X6518630Y-10976528D01*
X6518623Y-10941391D01*
X6518618Y-10904142D01*
X6518615Y-10864718D01*
X6518613Y-10823059D01*
X6518611Y-10779102D01*
X6518610Y-10732786D01*
X6518610Y-10684049D01*
X6518610Y-10585294D01*
X6518610Y-10536722D01*
X6518611Y-10490566D01*
X6518613Y-10446765D01*
X6518615Y-10405258D01*
X6518619Y-10365982D01*
X6518624Y-10328877D01*
X6518630Y-10293879D01*
X6518638Y-10260928D01*
X6518648Y-10229963D01*
X6518661Y-10200921D01*
X6518676Y-10173740D01*
X6518693Y-10148359D01*
X6518714Y-10124717D01*
X6518737Y-10102752D01*
X6518764Y-10082401D01*
X6518794Y-10063604D01*
X6518828Y-10046299D01*
X6518865Y-10030424D01*
X6518907Y-10015917D01*
X6518954Y-10002716D01*
X6519004Y-9990761D01*
X6519060Y-9979989D01*
X6519121Y-9970339D01*
X6519187Y-9961749D01*
X6519258Y-9954158D01*
X6519335Y-9947503D01*
X6519418Y-9941723D01*
X6519506Y-9936757D01*
X6519602Y-9932542D01*
X6519703Y-9929018D01*
X6519812Y-9926121D01*
X6519927Y-9923792D01*
X6520049Y-9921968D01*
X6520179Y-9920587D01*
X6520316Y-9919588D01*
X6520462Y-9918909D01*
X6520615Y-9918488D01*
X6520776Y-9918264D01*
X6520946Y-9918175D01*
X6521113Y-9918160D01*
X9819340Y-9918160D01*
X9819340Y-11343100D01*
X19120820Y-11343100D01*
X19120820Y-10128980D01*
X21814490Y-10128980D01*
X21814490Y-11104340D01*
X22427900Y-11104340D01*
X22427900Y-10128980D01*
X21814490Y-10128980D01*
X19120820Y-10128980D01*
X19120820Y-9918160D01*
X9819340Y-9918160D01*
X6521113Y-9918160D01*
X6521411Y-9918131D01*
X6521684Y-9917974D01*
X6521935Y-9917584D01*
X6522163Y-9916856D01*
X6522371Y-9915686D01*
X6522559Y-9913967D01*
X6522730Y-9911596D01*
X6522884Y-9908468D01*
X6523022Y-9904477D01*
X6523145Y-9899518D01*
X6523256Y-9893487D01*
X6523355Y-9886279D01*
X6523443Y-9877788D01*
X6523522Y-9867911D01*
X6523593Y-9856541D01*
X6523657Y-9843574D01*
X6523715Y-9828905D01*
X6523769Y-9812429D01*
X6523820Y-9794041D01*
X6523870Y-9773636D01*
X6523918Y-9751110D01*
X6523968Y-9726356D01*
X6524019Y-9699272D01*
X6524073Y-9670193D01*
X6524128Y-9640686D01*
X6524180Y-9613608D01*
X6524230Y-9588847D01*
X6524280Y-9566293D01*
X6524331Y-9545834D01*
X6524384Y-9527358D01*
X6524441Y-9510755D01*
X6524503Y-9495913D01*
X6524571Y-9482721D01*
X6524646Y-9471068D01*
X6524731Y-9460842D01*
X6524825Y-9451933D01*
X6524931Y-9444228D01*
X6525049Y-9437617D01*
X6525182Y-9431989D01*
X6525330Y-9427231D01*
X6525494Y-9423234D01*
X6525677Y-9419885D01*
X6525878Y-9417074D01*
X6526100Y-9414689D01*
X6526344Y-9412619D01*
X6526611Y-9410752D01*
X6526902Y-9408978D01*
X6527142Y-9407620D01*
X6533271Y-9379883D01*
X6541486Y-9353582D01*
X6551806Y-9328680D01*
X6564248Y-9305141D01*
X6578828Y-9282928D01*
X6595563Y-9262004D01*
X6595912Y-9261607D01*
X6614670Y-9242176D01*
X6634811Y-9224863D01*
X6656291Y-9209698D01*
X6679065Y-9196707D01*
X6703089Y-9185919D01*
X6728317Y-9177362D01*
X6731970Y-9176336D01*
X6745305Y-9172685D01*
X14476200Y-9172677D01*
X22207095Y-9172670D01*
X22219390Y-9175788D01*
X22219390Y-9175788D01*
G37*
X22219390Y-9175788D02*
X22242744Y-9182988D01*
X22265624Y-9192547D01*
X22287784Y-9204298D01*
X22308980Y-9218069D01*
X22328966Y-9233693D01*
X22347495Y-9250999D01*
X22364324Y-9269818D01*
X22374065Y-9282546D01*
X22388144Y-9303934D01*
X22400085Y-9325979D01*
X22410019Y-9348993D01*
X22418075Y-9373288D01*
X22424384Y-9399176D01*
X22425781Y-9406350D01*
X22428485Y-9420955D01*
X22428895Y-10621105D01*
X22428917Y-10687701D01*
X22428938Y-10751805D01*
X22428958Y-10813465D01*
X22428977Y-10872729D01*
X22428994Y-10929646D01*
X22429009Y-10984262D01*
X22429023Y-11036627D01*
X22429035Y-11086788D01*
X22429045Y-11134793D01*
X22429053Y-11180690D01*
X22429060Y-11224528D01*
X22429064Y-11266354D01*
X22429066Y-11306217D01*
X22429067Y-11344164D01*
X22429065Y-11380243D01*
X22429061Y-11414503D01*
X22429054Y-11446992D01*
X22429045Y-11477757D01*
X22429034Y-11506846D01*
X22429020Y-11534308D01*
X22429004Y-11560191D01*
X22428985Y-11584543D01*
X22428963Y-11607411D01*
X22428938Y-11628844D01*
X22428911Y-11648890D01*
X22428881Y-11667597D01*
X22428847Y-11685012D01*
X22428811Y-11701185D01*
X22428771Y-11716162D01*
X22428728Y-11729992D01*
X22428682Y-11742723D01*
X22428633Y-11754404D01*
X22428580Y-11765081D01*
X22428524Y-11774803D01*
X22428464Y-11783619D01*
X22428401Y-11791576D01*
X22428334Y-11798721D01*
X22428263Y-11805104D01*
X22428188Y-11810773D01*
X22428110Y-11815774D01*
X22428027Y-11820157D01*
X22427941Y-11823969D01*
X22427850Y-11827259D01*
X22427756Y-11830074D01*
X22427657Y-11832462D01*
X22427554Y-11834472D01*
X22427446Y-11836152D01*
X22427334Y-11837549D01*
X22427218Y-11838711D01*
X22427180Y-11839035D01*
X22422706Y-11866037D01*
X22415864Y-11892207D01*
X22406709Y-11917433D01*
X22395298Y-11941601D01*
X22381687Y-11964600D01*
X22365933Y-11986318D01*
X22348091Y-12006643D01*
X22338225Y-12016418D01*
X22318379Y-12033488D01*
X22297143Y-12048469D01*
X22274467Y-12061388D01*
X22250304Y-12072273D01*
X22224604Y-12081150D01*
X22217080Y-12083292D01*
X22199935Y-12087955D01*
X14480240Y-12088158D01*
X14306064Y-12088163D01*
X14134411Y-12088167D01*
X13965263Y-12088171D01*
X13798604Y-12088175D01*
X13634417Y-12088178D01*
X13472684Y-12088182D01*
X13313389Y-12088185D01*
X13156513Y-12088188D01*
X13002041Y-12088191D01*
X12849955Y-12088193D01*
X12700237Y-12088195D01*
X12552871Y-12088197D01*
X12407840Y-12088199D01*
X12265127Y-12088200D01*
X12124713Y-12088202D01*
X11986584Y-12088202D01*
X11850720Y-12088203D01*
X11717105Y-12088204D01*
X11585722Y-12088204D01*
X11456554Y-12088203D01*
X11329584Y-12088203D01*
X11204794Y-12088202D01*
X11082168Y-12088201D01*
X10961688Y-12088200D01*
X10843337Y-12088198D01*
X10727099Y-12088197D01*
X10612955Y-12088194D01*
X10500889Y-12088192D01*
X10390885Y-12088189D01*
X10282923Y-12088186D01*
X10176989Y-12088183D01*
X10073063Y-12088179D01*
X9971130Y-12088175D01*
X9871173Y-12088171D01*
X9773173Y-12088166D01*
X9677114Y-12088161D01*
X9582979Y-12088156D01*
X9490751Y-12088150D01*
X9400413Y-12088144D01*
X9311947Y-12088137D01*
X9225336Y-12088131D01*
X9140564Y-12088124D01*
X9057613Y-12088116D01*
X8976465Y-12088109D01*
X8897105Y-12088101D01*
X8819515Y-12088092D01*
X8743677Y-12088083D01*
X8669575Y-12088074D01*
X8597191Y-12088065D01*
X8526509Y-12088055D01*
X8457511Y-12088044D01*
X8390180Y-12088034D01*
X8324499Y-12088023D01*
X8260451Y-12088011D01*
X8198019Y-12087999D01*
X8137185Y-12087987D01*
X8077933Y-12087974D01*
X8020246Y-12087961D01*
X7964105Y-12087948D01*
X7909495Y-12087934D01*
X7856398Y-12087920D01*
X7804797Y-12087905D01*
X7754675Y-12087890D01*
X7706015Y-12087875D01*
X7658799Y-12087859D01*
X7613011Y-12087842D01*
X7568633Y-12087826D01*
X7525648Y-12087809D01*
X7484040Y-12087791D01*
X7443790Y-12087773D01*
X7404883Y-12087754D01*
X7367300Y-12087735D01*
X7331025Y-12087716D01*
X7296041Y-12087696D01*
X7262330Y-12087676D01*
X7229875Y-12087655D01*
X7198660Y-12087634D01*
X7168667Y-12087612D01*
X7139879Y-12087590D01*
X7112278Y-12087567D01*
X7085849Y-12087544D01*
X7060573Y-12087521D01*
X7036434Y-12087497D01*
X7013414Y-12087472D01*
X6991497Y-12087447D01*
X6970664Y-12087422D01*
X6950900Y-12087396D01*
X6932187Y-12087369D01*
X6914508Y-12087342D01*
X6897845Y-12087315D01*
X6882182Y-12087287D01*
X6867501Y-12087258D01*
X6853786Y-12087229D01*
X6841020Y-12087200D01*
X6829184Y-12087170D01*
X6818262Y-12087139D01*
X6808238Y-12087108D01*
X6799093Y-12087076D01*
X6790811Y-12087044D01*
X6783374Y-12087011D01*
X6776766Y-12086978D01*
X6770970Y-12086944D01*
X6765967Y-12086910D01*
X6761742Y-12086875D01*
X6758277Y-12086840D01*
X6755554Y-12086804D01*
X6753558Y-12086767D01*
X6752270Y-12086730D01*
X6751673Y-12086692D01*
X6751655Y-12086689D01*
X6727988Y-12081004D01*
X6704442Y-12072930D01*
X6681335Y-12062610D01*
X6658982Y-12050187D01*
X6637701Y-12035805D01*
X6635450Y-12034118D01*
X6628386Y-12028360D01*
X6620294Y-12021089D01*
X6611679Y-12012818D01*
X6603045Y-12004059D01*
X6594899Y-11995324D01*
X6587745Y-11987126D01*
X6582251Y-11980195D01*
X6569233Y-11961311D01*
X6558071Y-11942300D01*
X6548583Y-11922732D01*
X6540585Y-11902180D01*
X6533896Y-11880212D01*
X6528334Y-11856401D01*
X6527166Y-11850465D01*
X6526845Y-11848749D01*
X6526551Y-11847039D01*
X6526282Y-11845223D01*
X6526037Y-11843188D01*
X6525814Y-11840822D01*
X6525613Y-11838011D01*
X6525431Y-11834643D01*
X6525268Y-11830606D01*
X6525121Y-11825786D01*
X6524991Y-11820071D01*
X6524875Y-11813348D01*
X6524771Y-11805504D01*
X6524679Y-11796427D01*
X6524598Y-11786004D01*
X6524525Y-11774123D01*
X6524459Y-11760669D01*
X6524400Y-11745532D01*
X6524345Y-11728598D01*
X6524293Y-11709754D01*
X6524244Y-11688888D01*
X6524194Y-11665886D01*
X6524145Y-11640637D01*
X6524092Y-11613028D01*
X6524060Y-11595512D01*
X6524006Y-11566463D01*
X6523955Y-11539846D01*
X6523906Y-11515557D01*
X6523858Y-11493488D01*
X6523809Y-11473534D01*
X6523757Y-11455587D01*
X6523703Y-11439542D01*
X6523643Y-11425292D01*
X6523578Y-11412730D01*
X6523505Y-11401750D01*
X6523424Y-11392246D01*
X6523333Y-11384110D01*
X6523231Y-11377238D01*
X6523116Y-11371521D01*
X6522988Y-11366854D01*
X6522845Y-11363131D01*
X6522685Y-11360245D01*
X6522507Y-11358089D01*
X6522310Y-11356557D01*
X6522094Y-11355542D01*
X6521855Y-11354939D01*
X6521594Y-11354640D01*
X6521308Y-11354539D01*
X6521112Y-11354530D01*
X6520934Y-11354512D01*
X6520765Y-11354416D01*
X6520604Y-11354181D01*
X6520452Y-11353745D01*
X6520307Y-11353046D01*
X6520170Y-11352024D01*
X6520041Y-11350615D01*
X6519919Y-11348759D01*
X6519804Y-11346393D01*
X6519696Y-11343457D01*
X6519595Y-11339888D01*
X6519500Y-11335625D01*
X6519412Y-11330606D01*
X6519330Y-11324769D01*
X6519253Y-11318053D01*
X6519182Y-11310397D01*
X6519117Y-11301738D01*
X6519056Y-11292014D01*
X6519001Y-11281165D01*
X6518951Y-11269128D01*
X6518905Y-11255842D01*
X6518863Y-11241245D01*
X6518825Y-11225276D01*
X6518792Y-11207873D01*
X6518762Y-11188973D01*
X6518735Y-11168516D01*
X6518712Y-11146440D01*
X6518692Y-11122683D01*
X6518675Y-11097184D01*
X6518660Y-11069880D01*
X6518648Y-11040711D01*
X6518638Y-11009614D01*
X6518630Y-10976528D01*
X6518623Y-10941391D01*
X6518618Y-10904142D01*
X6518615Y-10864718D01*
X6518613Y-10823059D01*
X6518611Y-10779102D01*
X6518610Y-10732786D01*
X6518610Y-10684049D01*
X6518610Y-10585294D01*
X6518610Y-10536722D01*
X6518611Y-10490566D01*
X6518613Y-10446765D01*
X6518615Y-10405258D01*
X6518619Y-10365982D01*
X6518624Y-10328877D01*
X6518630Y-10293879D01*
X6518638Y-10260928D01*
X6518648Y-10229963D01*
X6518661Y-10200921D01*
X6518676Y-10173740D01*
X6518693Y-10148359D01*
X6518714Y-10124717D01*
X6518737Y-10102752D01*
X6518764Y-10082401D01*
X6518794Y-10063604D01*
X6518828Y-10046299D01*
X6518865Y-10030424D01*
X6518907Y-10015917D01*
X6518954Y-10002716D01*
X6519004Y-9990761D01*
X6519060Y-9979989D01*
X6519121Y-9970339D01*
X6519187Y-9961749D01*
X6519258Y-9954158D01*
X6519335Y-9947503D01*
X6519418Y-9941723D01*
X6519506Y-9936757D01*
X6519602Y-9932542D01*
X6519703Y-9929018D01*
X6519812Y-9926121D01*
X6519927Y-9923792D01*
X6520049Y-9921968D01*
X6520179Y-9920587D01*
X6520316Y-9919588D01*
X6520462Y-9918909D01*
X6520615Y-9918488D01*
X6520776Y-9918264D01*
X6520946Y-9918175D01*
X6521113Y-9918160D01*
X9819340Y-9918160D01*
X9819340Y-11343100D01*
X19120820Y-11343100D01*
X19120820Y-10128980D01*
X21814490Y-10128980D01*
X21814490Y-11104340D01*
X22427900Y-11104340D01*
X22427900Y-10128980D01*
X21814490Y-10128980D01*
X19120820Y-10128980D01*
X19120820Y-9918160D01*
X9819340Y-9918160D01*
X6521113Y-9918160D01*
X6521411Y-9918131D01*
X6521684Y-9917974D01*
X6521935Y-9917584D01*
X6522163Y-9916856D01*
X6522371Y-9915686D01*
X6522559Y-9913967D01*
X6522730Y-9911596D01*
X6522884Y-9908468D01*
X6523022Y-9904477D01*
X6523145Y-9899518D01*
X6523256Y-9893487D01*
X6523355Y-9886279D01*
X6523443Y-9877788D01*
X6523522Y-9867911D01*
X6523593Y-9856541D01*
X6523657Y-9843574D01*
X6523715Y-9828905D01*
X6523769Y-9812429D01*
X6523820Y-9794041D01*
X6523870Y-9773636D01*
X6523918Y-9751110D01*
X6523968Y-9726356D01*
X6524019Y-9699272D01*
X6524073Y-9670193D01*
X6524128Y-9640686D01*
X6524180Y-9613608D01*
X6524230Y-9588847D01*
X6524280Y-9566293D01*
X6524331Y-9545834D01*
X6524384Y-9527358D01*
X6524441Y-9510755D01*
X6524503Y-9495913D01*
X6524571Y-9482721D01*
X6524646Y-9471068D01*
X6524731Y-9460842D01*
X6524825Y-9451933D01*
X6524931Y-9444228D01*
X6525049Y-9437617D01*
X6525182Y-9431989D01*
X6525330Y-9427231D01*
X6525494Y-9423234D01*
X6525677Y-9419885D01*
X6525878Y-9417074D01*
X6526100Y-9414689D01*
X6526344Y-9412619D01*
X6526611Y-9410752D01*
X6526902Y-9408978D01*
X6527142Y-9407620D01*
X6533271Y-9379883D01*
X6541486Y-9353582D01*
X6551806Y-9328680D01*
X6564248Y-9305141D01*
X6578828Y-9282928D01*
X6595563Y-9262004D01*
X6595912Y-9261607D01*
X6614670Y-9242176D01*
X6634811Y-9224863D01*
X6656291Y-9209698D01*
X6679065Y-9196707D01*
X6703089Y-9185919D01*
X6728317Y-9177362D01*
X6731970Y-9176336D01*
X6745305Y-9172685D01*
X14476200Y-9172677D01*
X22207095Y-9172670D01*
X22219390Y-9175788D01*
D13*
G04 #@! TO.C,LED1*
G36*
X10223084Y-10900000D02*
X9883084Y-10650000D01*
X10223084Y-10400000D01*
X10223084Y-10900000D01*
G37*
X10223084Y-10900000D02*
X9883084Y-10650000D01*
X10223084Y-10400000D01*
X10223084Y-10900000D01*
G36*
X10483084Y-10780000D02*
X10483084Y-10400000D01*
X10253084Y-10400000D01*
X10253084Y-10900000D01*
X10483084Y-10900000D01*
X10483084Y-10780000D01*
G37*
X10483084Y-10780000D02*
X10483084Y-10400000D01*
X10253084Y-10400000D01*
X10253084Y-10900000D01*
X10483084Y-10900000D01*
X10483084Y-10780000D01*
G36*
X10223084Y-10400000D02*
X10255084Y-10400000D01*
X10255084Y-10900000D01*
X10223084Y-10900000D01*
X10223084Y-10400000D01*
G37*
X10223084Y-10400000D02*
X10255084Y-10400000D01*
X10255084Y-10900000D01*
X10223084Y-10900000D01*
X10223084Y-10400000D01*
G04 #@! TD*
D18*
G04 #@! TO.C,DRAWING1*
X22423147Y-11251735D03*
X22423147Y-11168701D03*
X22423147Y-11085668D03*
X22423147Y-10137899D03*
X22423147Y-10054864D03*
X22423147Y-9971831D03*
X22423147Y-12336162D03*
X22423147Y-12480736D03*
X22423147Y-12408449D03*
X22423147Y-8750102D03*
X22423147Y-8894676D03*
X22423147Y-8822389D03*
G04 #@! TD*
D19*
G04 #@! TO.C,SW8*
X18945000Y-10495000D03*
X18945000Y-10835000D03*
G04 #@! TD*
D13*
G04 #@! TO.C,LED6*
G36*
X11039360Y-11070096D02*
X11041302Y-11070384D01*
X11043206Y-11070861D01*
X11045054Y-11071522D01*
X11046828Y-11072362D01*
X11048511Y-11073371D01*
X11050088Y-11074540D01*
X11051542Y-11075858D01*
X11052860Y-11077312D01*
X11054029Y-11078889D01*
X11055038Y-11080572D01*
X11055878Y-11082346D01*
X11056539Y-11084194D01*
X11057016Y-11086098D01*
X11057304Y-11088040D01*
X11057400Y-11090000D01*
X11057400Y-11130000D01*
X11057304Y-11131960D01*
X11057016Y-11133902D01*
X11056539Y-11135806D01*
X11055878Y-11137654D01*
X11055038Y-11139428D01*
X11054029Y-11141111D01*
X11052860Y-11142688D01*
X11051542Y-11144142D01*
X11050088Y-11145460D01*
X11048511Y-11146629D01*
X11046828Y-11147638D01*
X11045054Y-11148478D01*
X11043206Y-11149139D01*
X11041302Y-11149616D01*
X11039360Y-11149904D01*
X11037400Y-11150000D01*
X10988400Y-11150000D01*
X10986440Y-11149904D01*
X10984498Y-11149616D01*
X10982594Y-11149139D01*
X10980746Y-11148478D01*
X10978972Y-11147638D01*
X10977289Y-11146629D01*
X10975712Y-11145460D01*
X10974258Y-11144142D01*
X10972940Y-11142688D01*
X10971771Y-11141111D01*
X10970762Y-11139428D01*
X10969922Y-11137654D01*
X10969261Y-11135806D01*
X10968784Y-11133902D01*
X10968496Y-11131960D01*
X10968400Y-11130000D01*
X10968400Y-11090000D01*
X10968496Y-11088040D01*
X10968784Y-11086098D01*
X10969261Y-11084194D01*
X10969922Y-11082346D01*
X10970762Y-11080572D01*
X10971771Y-11078889D01*
X10972940Y-11077312D01*
X10974258Y-11075858D01*
X10975712Y-11074540D01*
X10977289Y-11073371D01*
X10978972Y-11072362D01*
X10980746Y-11071522D01*
X10982594Y-11070861D01*
X10984498Y-11070384D01*
X10986440Y-11070096D01*
X10988400Y-11070000D01*
X11037400Y-11070000D01*
X11039360Y-11070096D01*
X11039360Y-11070096D01*
G37*
D20*
X11012900Y-11110000D03*
D13*
G36*
X11100360Y-11070096D02*
X11102302Y-11070384D01*
X11104206Y-11070861D01*
X11106054Y-11071522D01*
X11107828Y-11072362D01*
X11109511Y-11073371D01*
X11111088Y-11074540D01*
X11112542Y-11075858D01*
X11113860Y-11077312D01*
X11115029Y-11078889D01*
X11116038Y-11080572D01*
X11116878Y-11082346D01*
X11117539Y-11084194D01*
X11118016Y-11086098D01*
X11118304Y-11088040D01*
X11118400Y-11090000D01*
X11118400Y-11130000D01*
X11118304Y-11131960D01*
X11118016Y-11133902D01*
X11117539Y-11135806D01*
X11116878Y-11137654D01*
X11116038Y-11139428D01*
X11115029Y-11141111D01*
X11113860Y-11142688D01*
X11112542Y-11144142D01*
X11111088Y-11145460D01*
X11109511Y-11146629D01*
X11107828Y-11147638D01*
X11106054Y-11148478D01*
X11104206Y-11149139D01*
X11102302Y-11149616D01*
X11100360Y-11149904D01*
X11098400Y-11150000D01*
X11049400Y-11150000D01*
X11047440Y-11149904D01*
X11045498Y-11149616D01*
X11043594Y-11149139D01*
X11041746Y-11148478D01*
X11039972Y-11147638D01*
X11038289Y-11146629D01*
X11036712Y-11145460D01*
X11035258Y-11144142D01*
X11033940Y-11142688D01*
X11032771Y-11141111D01*
X11031762Y-11139428D01*
X11030922Y-11137654D01*
X11030261Y-11135806D01*
X11029784Y-11133902D01*
X11029496Y-11131960D01*
X11029400Y-11130000D01*
X11029400Y-11090000D01*
X11029496Y-11088040D01*
X11029784Y-11086098D01*
X11030261Y-11084194D01*
X11030922Y-11082346D01*
X11031762Y-11080572D01*
X11032771Y-11078889D01*
X11033940Y-11077312D01*
X11035258Y-11075858D01*
X11036712Y-11074540D01*
X11038289Y-11073371D01*
X11039972Y-11072362D01*
X11041746Y-11071522D01*
X11043594Y-11070861D01*
X11045498Y-11070384D01*
X11047440Y-11070096D01*
X11049400Y-11070000D01*
X11098400Y-11070000D01*
X11100360Y-11070096D01*
X11100360Y-11070096D01*
G37*
D20*
X11073900Y-11110000D03*
G04 #@! TD*
D13*
G04 #@! TO.C,R6*
G36*
X11738415Y-11225084D02*
X11740114Y-11225336D01*
X11741780Y-11225753D01*
X11743397Y-11226332D01*
X11744949Y-11227066D01*
X11746422Y-11227949D01*
X11747802Y-11228972D01*
X11749074Y-11230126D01*
X11750228Y-11231398D01*
X11751251Y-11232777D01*
X11752134Y-11234251D01*
X11752868Y-11235803D01*
X11753446Y-11237420D01*
X11753864Y-11239086D01*
X11754116Y-11240785D01*
X11754200Y-11242500D01*
X11754200Y-11277500D01*
X11754116Y-11279215D01*
X11753864Y-11280914D01*
X11753446Y-11282580D01*
X11752868Y-11284197D01*
X11752134Y-11285749D01*
X11751251Y-11287222D01*
X11750228Y-11288602D01*
X11749074Y-11289874D01*
X11747802Y-11291028D01*
X11746422Y-11292051D01*
X11744949Y-11292934D01*
X11743397Y-11293668D01*
X11741780Y-11294246D01*
X11740114Y-11294664D01*
X11738415Y-11294916D01*
X11736700Y-11295000D01*
X11689700Y-11295000D01*
X11687985Y-11294916D01*
X11686286Y-11294664D01*
X11684620Y-11294246D01*
X11683003Y-11293668D01*
X11681451Y-11292934D01*
X11679977Y-11292051D01*
X11678598Y-11291028D01*
X11677326Y-11289874D01*
X11676172Y-11288602D01*
X11675149Y-11287222D01*
X11674266Y-11285749D01*
X11673532Y-11284197D01*
X11672953Y-11282580D01*
X11672536Y-11280914D01*
X11672284Y-11279215D01*
X11672200Y-11277500D01*
X11672200Y-11242500D01*
X11672284Y-11240785D01*
X11672536Y-11239086D01*
X11672953Y-11237420D01*
X11673532Y-11235803D01*
X11674266Y-11234251D01*
X11675149Y-11232777D01*
X11676172Y-11231398D01*
X11677326Y-11230126D01*
X11678598Y-11228972D01*
X11679977Y-11227949D01*
X11681451Y-11227066D01*
X11683003Y-11226332D01*
X11684620Y-11225753D01*
X11686286Y-11225336D01*
X11687985Y-11225084D01*
X11689700Y-11225000D01*
X11736700Y-11225000D01*
X11738415Y-11225084D01*
X11738415Y-11225084D01*
G37*
D21*
X11713200Y-11260000D03*
D13*
G36*
X11690415Y-11225084D02*
X11692114Y-11225336D01*
X11693780Y-11225753D01*
X11695397Y-11226332D01*
X11696949Y-11227066D01*
X11698422Y-11227949D01*
X11699802Y-11228972D01*
X11701074Y-11230126D01*
X11702228Y-11231398D01*
X11703251Y-11232777D01*
X11704134Y-11234251D01*
X11704868Y-11235803D01*
X11705446Y-11237420D01*
X11705864Y-11239086D01*
X11706116Y-11240785D01*
X11706200Y-11242500D01*
X11706200Y-11277500D01*
X11706116Y-11279215D01*
X11705864Y-11280914D01*
X11705446Y-11282580D01*
X11704868Y-11284197D01*
X11704134Y-11285749D01*
X11703251Y-11287222D01*
X11702228Y-11288602D01*
X11701074Y-11289874D01*
X11699802Y-11291028D01*
X11698422Y-11292051D01*
X11696949Y-11292934D01*
X11695397Y-11293668D01*
X11693780Y-11294246D01*
X11692114Y-11294664D01*
X11690415Y-11294916D01*
X11688700Y-11295000D01*
X11641700Y-11295000D01*
X11639985Y-11294916D01*
X11638286Y-11294664D01*
X11636620Y-11294246D01*
X11635003Y-11293668D01*
X11633451Y-11292934D01*
X11631977Y-11292051D01*
X11630598Y-11291028D01*
X11629326Y-11289874D01*
X11628172Y-11288602D01*
X11627149Y-11287222D01*
X11626266Y-11285749D01*
X11625532Y-11284197D01*
X11624953Y-11282580D01*
X11624536Y-11280914D01*
X11624284Y-11279215D01*
X11624200Y-11277500D01*
X11624200Y-11242500D01*
X11624284Y-11240785D01*
X11624536Y-11239086D01*
X11624953Y-11237420D01*
X11625532Y-11235803D01*
X11626266Y-11234251D01*
X11627149Y-11232777D01*
X11628172Y-11231398D01*
X11629326Y-11230126D01*
X11630598Y-11228972D01*
X11631977Y-11227949D01*
X11633451Y-11227066D01*
X11635003Y-11226332D01*
X11636620Y-11225753D01*
X11638286Y-11225336D01*
X11639985Y-11225084D01*
X11641700Y-11225000D01*
X11688700Y-11225000D01*
X11690415Y-11225084D01*
X11690415Y-11225084D01*
G37*
D21*
X11665200Y-11260000D03*
G04 #@! TD*
D22*
G04 #@! TO.C,SW6*
X16357500Y-11052500D03*
X15907500Y-10142500D03*
X16357500Y-10142500D03*
X15907500Y-11052500D03*
G04 #@! TD*
D23*
G04 #@! TO.C,J1*
X21946062Y-10480272D03*
X21946062Y-10545296D03*
X21946062Y-10610320D03*
X21946062Y-10675344D03*
X21946062Y-10740368D03*
D24*
X21982130Y-10856446D03*
X21982130Y-10364194D03*
D25*
X22212000Y-10901658D03*
X22212000Y-10318982D03*
D26*
X22212000Y-10526500D03*
X22212000Y-10694140D03*
G04 #@! TD*
D27*
G04 #@! TO.C,LED5*
X11013400Y-10296650D03*
X10683400Y-10296650D03*
G04 #@! TD*
D28*
G04 #@! TO.C,LED4*
X11028400Y-10550400D03*
X10808400Y-10550400D03*
G04 #@! TD*
D29*
G04 #@! TO.C,LED3*
X11048400Y-10757550D03*
X10888400Y-10757550D03*
G04 #@! TD*
D30*
G04 #@! TO.C,LED2*
X11068400Y-10945000D03*
X10958400Y-10945000D03*
G04 #@! TD*
D31*
G04 #@! TO.C,R4*
X11879200Y-10550400D03*
X11689200Y-10550400D03*
G04 #@! TD*
D32*
G04 #@! TO.C,R3*
X11829200Y-10757550D03*
X11679200Y-10757550D03*
G04 #@! TD*
D33*
G04 #@! TO.C,R2*
X11754200Y-10945000D03*
X11664200Y-10945000D03*
G04 #@! TD*
D34*
G04 #@! TO.C,R1*
X11710200Y-11110000D03*
X11658200Y-11110000D03*
G04 #@! TD*
D35*
G04 #@! TO.C,SW3*
X17705000Y-10235000D03*
X17365000Y-10235000D03*
G04 #@! TD*
D36*
G04 #@! TO.C,SW1*
X18135000Y-10815000D03*
X18135000Y-10975000D03*
X18545000Y-10815000D03*
X18545000Y-10975000D03*
G04 #@! TD*
D37*
G04 #@! TO.C,R5*
X11989200Y-10296400D03*
X11699200Y-10296400D03*
G04 #@! TD*
D30*
G04 #@! TO.C,D6*
X13722200Y-11203400D03*
X13582200Y-11203400D03*
G04 #@! TD*
D38*
G04 #@! TO.C,D5*
X13521800Y-11000200D03*
X13731800Y-11000200D03*
G04 #@! TD*
D39*
G04 #@! TO.C,D4*
X13385600Y-10771600D03*
X13715600Y-10771600D03*
G04 #@! TD*
D40*
G04 #@! TO.C,D3*
X12447000Y-10919000D03*
X13127000Y-10919000D03*
G04 #@! TD*
D41*
G04 #@! TO.C,D2*
X13615000Y-10390600D03*
X14045000Y-10390600D03*
G04 #@! TD*
D42*
G04 #@! TO.C,D1*
X12657000Y-10349000D03*
X13057000Y-10349000D03*
G04 #@! TD*
D43*
G04 #@! TO.C,SW7*
X14870000Y-10390000D03*
X15120000Y-10390000D03*
X15370000Y-10390000D03*
X15370000Y-10940000D03*
X15120000Y-10940000D03*
X14870000Y-10940000D03*
G04 #@! TD*
D44*
G04 #@! TO.C,SW5*
X17812500Y-11045000D03*
X17317500Y-10695000D03*
X17812500Y-10695000D03*
X17317500Y-11045000D03*
D45*
X17777500Y-11045000D03*
X17352500Y-11045000D03*
X17777500Y-10695000D03*
X17352500Y-10695000D03*
G04 #@! TD*
D46*
G04 #@! TO.C,SW2*
X18655000Y-10215000D03*
X18115000Y-10215000D03*
G04 #@! TD*
D47*
G04 #@! TO.C,LED1*
X10153074Y-10650000D03*
D13*
G36*
X10099172Y-10719616D02*
X10095420Y-10718478D01*
X10091963Y-10716629D01*
X10088932Y-10714142D01*
X10086445Y-10711111D01*
X10084596Y-10707654D01*
X10083458Y-10703902D01*
X10083074Y-10700000D01*
X10083074Y-10600000D01*
X10083458Y-10596098D01*
X10084596Y-10592346D01*
X10086445Y-10588889D01*
X10088932Y-10585858D01*
X10091963Y-10583371D01*
X10095420Y-10581522D01*
X10099172Y-10580384D01*
X10103074Y-10580000D01*
X10203074Y-10580000D01*
X10206976Y-10580384D01*
X10210728Y-10581522D01*
X10214185Y-10583371D01*
X10217216Y-10585858D01*
X10219703Y-10588889D01*
X10221552Y-10592346D01*
X10222690Y-10596098D01*
X10223074Y-10600000D01*
X10223074Y-10700000D01*
X10222690Y-10703902D01*
X10221552Y-10707654D01*
X10219703Y-10711111D01*
X10217216Y-10714142D01*
X10214185Y-10716629D01*
X10210728Y-10718478D01*
X10206976Y-10719616D01*
X10203074Y-10720000D01*
X10103074Y-10720000D01*
X10099172Y-10719616D01*
X10099172Y-10719616D01*
G37*
D47*
X10323000Y-10650000D03*
D13*
G36*
X10318586Y-10719844D02*
X10313703Y-10719363D01*
X10311762Y-10719075D01*
X10306950Y-10718117D01*
X10305045Y-10717640D01*
X10300350Y-10716216D01*
X10298502Y-10715555D01*
X10293969Y-10713677D01*
X10292194Y-10712838D01*
X10287867Y-10710525D01*
X10286184Y-10709516D01*
X10282104Y-10706790D01*
X10280527Y-10705621D01*
X10276734Y-10702508D01*
X10275280Y-10701190D01*
X10271810Y-10697720D01*
X10270492Y-10696266D01*
X10267380Y-10692473D01*
X10266210Y-10690896D01*
X10263484Y-10686816D01*
X10262475Y-10685133D01*
X10260162Y-10680806D01*
X10259323Y-10679031D01*
X10257445Y-10674498D01*
X10256784Y-10672650D01*
X10255360Y-10667955D01*
X10254883Y-10666051D01*
X10253925Y-10661238D01*
X10253638Y-10659297D01*
X10253157Y-10654414D01*
X10253060Y-10652453D01*
X10253060Y-10647547D01*
X10253157Y-10645586D01*
X10253638Y-10640703D01*
X10253925Y-10638762D01*
X10254883Y-10633950D01*
X10255360Y-10632045D01*
X10256784Y-10627350D01*
X10257445Y-10625502D01*
X10259323Y-10620969D01*
X10260162Y-10619194D01*
X10262475Y-10614867D01*
X10263484Y-10613184D01*
X10266210Y-10609104D01*
X10267380Y-10607527D01*
X10270492Y-10603734D01*
X10271810Y-10602280D01*
X10275280Y-10598810D01*
X10276734Y-10597492D01*
X10280527Y-10594380D01*
X10282104Y-10593210D01*
X10286184Y-10590484D01*
X10287867Y-10589475D01*
X10292194Y-10587162D01*
X10293969Y-10586323D01*
X10298502Y-10584445D01*
X10300350Y-10583784D01*
X10305045Y-10582360D01*
X10306950Y-10581883D01*
X10311762Y-10580925D01*
X10313703Y-10580638D01*
X10318586Y-10580157D01*
X10320547Y-10580060D01*
X10325453Y-10580060D01*
X10327414Y-10580157D01*
X10332297Y-10580638D01*
X10334238Y-10580925D01*
X10339051Y-10581883D01*
X10340955Y-10582360D01*
X10345650Y-10583784D01*
X10347498Y-10584445D01*
X10352031Y-10586323D01*
X10353806Y-10587162D01*
X10358133Y-10589475D01*
X10359816Y-10590484D01*
X10363896Y-10593210D01*
X10365473Y-10594380D01*
X10369266Y-10597492D01*
X10370720Y-10598810D01*
X10374190Y-10602280D01*
X10375508Y-10603734D01*
X10378621Y-10607527D01*
X10379790Y-10609104D01*
X10382516Y-10613184D01*
X10383525Y-10614867D01*
X10385838Y-10619194D01*
X10386677Y-10620969D01*
X10388555Y-10625502D01*
X10389216Y-10627350D01*
X10390640Y-10632045D01*
X10391117Y-10633950D01*
X10392075Y-10638762D01*
X10392363Y-10640703D01*
X10392844Y-10645586D01*
X10392940Y-10647547D01*
X10392940Y-10652453D01*
X10392844Y-10654414D01*
X10392363Y-10659297D01*
X10392075Y-10661238D01*
X10391117Y-10666051D01*
X10390640Y-10667955D01*
X10389216Y-10672650D01*
X10388555Y-10674498D01*
X10386677Y-10679031D01*
X10385838Y-10680806D01*
X10383525Y-10685133D01*
X10382516Y-10686816D01*
X10379790Y-10690896D01*
X10378621Y-10692473D01*
X10375508Y-10696266D01*
X10374190Y-10697720D01*
X10370720Y-10701190D01*
X10369266Y-10702508D01*
X10365473Y-10705621D01*
X10363896Y-10706790D01*
X10359816Y-10709516D01*
X10358133Y-10710525D01*
X10353806Y-10712838D01*
X10352031Y-10713677D01*
X10347498Y-10715555D01*
X10345650Y-10716216D01*
X10340955Y-10717640D01*
X10339051Y-10718117D01*
X10334238Y-10719075D01*
X10332297Y-10719363D01*
X10327414Y-10719844D01*
X10325453Y-10719940D01*
X10320547Y-10719940D01*
X10318586Y-10719844D01*
X10318586Y-10719844D01*
G37*
G04 #@! TD*
D48*
G04 #@! TO.C,SW4*
X16655088Y-10260026D03*
X17024912Y-10859974D03*
X17024912Y-10260026D03*
X16655088Y-10859974D03*
G04 #@! TD*
M02*
