G04 #@! TF.GenerationSoftware,KiCad,Pcbnew,5.0.0-rc2-dev-unknown-44bf92a~82~ubuntu16.04.1*
G04 #@! TF.CreationDate,2018-05-21T14:53:54+01:00*
G04 #@! TF.ProjectId,ruler,72756C65722E6B696361645F70636200,rev?*
G04 #@! TF.SameCoordinates,Original*
G04 #@! TF.FileFunction,Soldermask,Top*
G04 #@! TF.FilePolarity,Negative*
%FSLAX45Y45*%
G04 Gerber Fmt 4.5, Leading zero omitted, Abs format (unit mm)*
G04 Created by KiCad (PCBNEW 5.0.0-rc2-dev-unknown-44bf92a~82~ubuntu16.04.1) date Mon May 21 14:53:54 2018*
%MOMM*%
%LPD*%
G01*
G04 APERTURE LIST*
%ADD10C,0.010000*%
%ADD11C,0.150000*%
%ADD12C,0.900000*%
%ADD13R,1.900000X1.900000*%
%ADD14R,1.800000X2.500000*%
%ADD15R,0.800000X1.000000*%
%ADD16R,2.297380X1.573480*%
%ADD17R,2.297380X2.774900*%
%ADD18R,2.500580X1.873200*%
%ADD19R,1.779220X0.849580*%
%ADD20R,0.680000X0.830000*%
%ADD21R,1.200000X2.100000*%
%ADD22R,0.900000X1.300000*%
%ADD23R,1.300000X1.400000*%
%ADD24R,1.600000X1.600000*%
%ADD25R,1.300000X2.100000*%
%ADD26R,2.900000X2.200000*%
%ADD27R,2.900000X2.700000*%
%ADD28R,2.900000X3.700000*%
%ADD29R,1.400760X1.400760*%
%ADD30C,1.400000*%
%ADD31R,1.000000X0.850000*%
%ADD32R,1.200000X1.200000*%
%ADD33R,1.300000X1.600000*%
%ADD34R,1.000000X1.100000*%
%ADD35R,2.400000X2.000000*%
%ADD36R,1.600000X2.900000*%
%ADD37R,0.900000X1.100000*%
%ADD38R,0.600000X1.500000*%
%ADD39R,1.100000X1.700000*%
G04 APERTURE END LIST*
D10*
G36*
X22219390Y-13011188D02*
X22242744Y-13018388D01*
X22265624Y-13027947D01*
X22287784Y-13039698D01*
X22308980Y-13053469D01*
X22328966Y-13069093D01*
X22347495Y-13086399D01*
X22364324Y-13105218D01*
X22374065Y-13117946D01*
X22388270Y-13139549D01*
X22400304Y-13161836D01*
X22410290Y-13185104D01*
X22418351Y-13209646D01*
X22424610Y-13235758D01*
X22425759Y-13241750D01*
X22426077Y-13243512D01*
X22426370Y-13245257D01*
X22426637Y-13247095D01*
X22426881Y-13249136D01*
X22427103Y-13251493D01*
X22427304Y-13254276D01*
X22427486Y-13257597D01*
X22427649Y-13261565D01*
X22427795Y-13266293D01*
X22427926Y-13271892D01*
X22428042Y-13278471D01*
X22428145Y-13286143D01*
X22428236Y-13295019D01*
X22428317Y-13305209D01*
X22428388Y-13316825D01*
X22428452Y-13329977D01*
X22428509Y-13344777D01*
X22428560Y-13361335D01*
X22428608Y-13379764D01*
X22428653Y-13400173D01*
X22428696Y-13422673D01*
X22428739Y-13447377D01*
X22428784Y-13474395D01*
X22428831Y-13503837D01*
X22428832Y-13504957D01*
X22429225Y-13753560D01*
X6523617Y-13753560D01*
X6524073Y-13505592D01*
X6524128Y-13476086D01*
X6524180Y-13449008D01*
X6524230Y-13424247D01*
X6524280Y-13401693D01*
X6524331Y-13381234D01*
X6524384Y-13362758D01*
X6524441Y-13346155D01*
X6524503Y-13331313D01*
X6524571Y-13318121D01*
X6524646Y-13306468D01*
X6524731Y-13296242D01*
X6524825Y-13287333D01*
X6524931Y-13279628D01*
X6525049Y-13273017D01*
X6525182Y-13267389D01*
X6525330Y-13262631D01*
X6525494Y-13258634D01*
X6525677Y-13255285D01*
X6525878Y-13252474D01*
X6526100Y-13250089D01*
X6526344Y-13248019D01*
X6526611Y-13246152D01*
X6526902Y-13244378D01*
X6527142Y-13243020D01*
X6533271Y-13215283D01*
X6541486Y-13188982D01*
X6551806Y-13164080D01*
X6564248Y-13140541D01*
X6578828Y-13118327D01*
X6595563Y-13097404D01*
X6595912Y-13097007D01*
X6614670Y-13077576D01*
X6634811Y-13060263D01*
X6656291Y-13045098D01*
X6679065Y-13032107D01*
X6703089Y-13021319D01*
X6728317Y-13012762D01*
X6731970Y-13011736D01*
X6745305Y-13008085D01*
X14476200Y-13008077D01*
X22207095Y-13008070D01*
X22219390Y-13011188D01*
X22219390Y-13011188D01*
G37*
X22219390Y-13011188D02*
X22242744Y-13018388D01*
X22265624Y-13027947D01*
X22287784Y-13039698D01*
X22308980Y-13053469D01*
X22328966Y-13069093D01*
X22347495Y-13086399D01*
X22364324Y-13105218D01*
X22374065Y-13117946D01*
X22388270Y-13139549D01*
X22400304Y-13161836D01*
X22410290Y-13185104D01*
X22418351Y-13209646D01*
X22424610Y-13235758D01*
X22425759Y-13241750D01*
X22426077Y-13243512D01*
X22426370Y-13245257D01*
X22426637Y-13247095D01*
X22426881Y-13249136D01*
X22427103Y-13251493D01*
X22427304Y-13254276D01*
X22427486Y-13257597D01*
X22427649Y-13261565D01*
X22427795Y-13266293D01*
X22427926Y-13271892D01*
X22428042Y-13278471D01*
X22428145Y-13286143D01*
X22428236Y-13295019D01*
X22428317Y-13305209D01*
X22428388Y-13316825D01*
X22428452Y-13329977D01*
X22428509Y-13344777D01*
X22428560Y-13361335D01*
X22428608Y-13379764D01*
X22428653Y-13400173D01*
X22428696Y-13422673D01*
X22428739Y-13447377D01*
X22428784Y-13474395D01*
X22428831Y-13503837D01*
X22428832Y-13504957D01*
X22429225Y-13753560D01*
X6523617Y-13753560D01*
X6524073Y-13505592D01*
X6524128Y-13476086D01*
X6524180Y-13449008D01*
X6524230Y-13424247D01*
X6524280Y-13401693D01*
X6524331Y-13381234D01*
X6524384Y-13362758D01*
X6524441Y-13346155D01*
X6524503Y-13331313D01*
X6524571Y-13318121D01*
X6524646Y-13306468D01*
X6524731Y-13296242D01*
X6524825Y-13287333D01*
X6524931Y-13279628D01*
X6525049Y-13273017D01*
X6525182Y-13267389D01*
X6525330Y-13262631D01*
X6525494Y-13258634D01*
X6525677Y-13255285D01*
X6525878Y-13252474D01*
X6526100Y-13250089D01*
X6526344Y-13248019D01*
X6526611Y-13246152D01*
X6526902Y-13244378D01*
X6527142Y-13243020D01*
X6533271Y-13215283D01*
X6541486Y-13188982D01*
X6551806Y-13164080D01*
X6564248Y-13140541D01*
X6578828Y-13118327D01*
X6595563Y-13097404D01*
X6595912Y-13097007D01*
X6614670Y-13077576D01*
X6634811Y-13060263D01*
X6656291Y-13045098D01*
X6679065Y-13032107D01*
X6703089Y-13021319D01*
X6728317Y-13012762D01*
X6731970Y-13011736D01*
X6745305Y-13008085D01*
X14476200Y-13008077D01*
X22207095Y-13008070D01*
X22219390Y-13011188D01*
G36*
X20103119Y-14502706D02*
X20114130Y-14505893D01*
X20124225Y-14511062D01*
X20133140Y-14518033D01*
X20140610Y-14526624D01*
X20146369Y-14536654D01*
X20150153Y-14547942D01*
X20150914Y-14551859D01*
X20151537Y-14563432D01*
X20149813Y-14574813D01*
X20145927Y-14585657D01*
X20140068Y-14595617D01*
X20132421Y-14604346D01*
X20123175Y-14611499D01*
X20116838Y-14614935D01*
X20112677Y-14616753D01*
X20109073Y-14617947D01*
X20105238Y-14618669D01*
X20100383Y-14619071D01*
X20094275Y-14619291D01*
X20085530Y-14619288D01*
X20078905Y-14618771D01*
X20075225Y-14617983D01*
X20063710Y-14612956D01*
X20053789Y-14606149D01*
X20045605Y-14597806D01*
X20039306Y-14588176D01*
X20035035Y-14577503D01*
X20032939Y-14566035D01*
X20033163Y-14554018D01*
X20034096Y-14548325D01*
X20037260Y-14538047D01*
X20042338Y-14528788D01*
X20049630Y-14520016D01*
X20050364Y-14519273D01*
X20059119Y-14511779D01*
X20068316Y-14506523D01*
X20078486Y-14503208D01*
X20079415Y-14503005D01*
X20091460Y-14501683D01*
X20103119Y-14502706D01*
X20103119Y-14502706D01*
G37*
X20103119Y-14502706D02*
X20114130Y-14505893D01*
X20124225Y-14511062D01*
X20133140Y-14518033D01*
X20140610Y-14526624D01*
X20146369Y-14536654D01*
X20150153Y-14547942D01*
X20150914Y-14551859D01*
X20151537Y-14563432D01*
X20149813Y-14574813D01*
X20145927Y-14585657D01*
X20140068Y-14595617D01*
X20132421Y-14604346D01*
X20123175Y-14611499D01*
X20116838Y-14614935D01*
X20112677Y-14616753D01*
X20109073Y-14617947D01*
X20105238Y-14618669D01*
X20100383Y-14619071D01*
X20094275Y-14619291D01*
X20085530Y-14619288D01*
X20078905Y-14618771D01*
X20075225Y-14617983D01*
X20063710Y-14612956D01*
X20053789Y-14606149D01*
X20045605Y-14597806D01*
X20039306Y-14588176D01*
X20035035Y-14577503D01*
X20032939Y-14566035D01*
X20033163Y-14554018D01*
X20034096Y-14548325D01*
X20037260Y-14538047D01*
X20042338Y-14528788D01*
X20049630Y-14520016D01*
X20050364Y-14519273D01*
X20059119Y-14511779D01*
X20068316Y-14506523D01*
X20078486Y-14503208D01*
X20079415Y-14503005D01*
X20091460Y-14501683D01*
X20103119Y-14502706D01*
G36*
X22429170Y-15419048D02*
X22429171Y-15448948D01*
X22429172Y-15476424D01*
X22429169Y-15501591D01*
X22429160Y-15524567D01*
X22429140Y-15545467D01*
X22429107Y-15564407D01*
X22429058Y-15581503D01*
X22428988Y-15596871D01*
X22428895Y-15610627D01*
X22428776Y-15622888D01*
X22428627Y-15633769D01*
X22428445Y-15643386D01*
X22428226Y-15651855D01*
X22427968Y-15659292D01*
X22427666Y-15665814D01*
X22427319Y-15671536D01*
X22426921Y-15676574D01*
X22426471Y-15681045D01*
X22425965Y-15685064D01*
X22425399Y-15688748D01*
X22424771Y-15692212D01*
X22424076Y-15695572D01*
X22423312Y-15698944D01*
X22422476Y-15702446D01*
X22421563Y-15706191D01*
X22420949Y-15708725D01*
X22413355Y-15735003D01*
X22403590Y-15760035D01*
X22391743Y-15783729D01*
X22377905Y-15805991D01*
X22362166Y-15826728D01*
X22344616Y-15845849D01*
X22325346Y-15863259D01*
X22304444Y-15878866D01*
X22282002Y-15892578D01*
X22258110Y-15904301D01*
X22232857Y-15913942D01*
X22217080Y-15918692D01*
X22199935Y-15923355D01*
X14480240Y-15923558D01*
X14306064Y-15923563D01*
X14134411Y-15923567D01*
X13965263Y-15923571D01*
X13798604Y-15923575D01*
X13634417Y-15923578D01*
X13472684Y-15923582D01*
X13313389Y-15923585D01*
X13156513Y-15923588D01*
X13002041Y-15923591D01*
X12849955Y-15923593D01*
X12700237Y-15923595D01*
X12552871Y-15923597D01*
X12407840Y-15923599D01*
X12265127Y-15923600D01*
X12124713Y-15923602D01*
X11986584Y-15923602D01*
X11850720Y-15923603D01*
X11717105Y-15923604D01*
X11585722Y-15923604D01*
X11456554Y-15923603D01*
X11329584Y-15923603D01*
X11204794Y-15923602D01*
X11082168Y-15923601D01*
X10961688Y-15923600D01*
X10843337Y-15923598D01*
X10727099Y-15923597D01*
X10612955Y-15923594D01*
X10500889Y-15923592D01*
X10390885Y-15923589D01*
X10282923Y-15923586D01*
X10176989Y-15923583D01*
X10073063Y-15923579D01*
X9971130Y-15923575D01*
X9871173Y-15923571D01*
X9773173Y-15923566D01*
X9677114Y-15923561D01*
X9582979Y-15923556D01*
X9490751Y-15923550D01*
X9400413Y-15923544D01*
X9311947Y-15923537D01*
X9225336Y-15923531D01*
X9140564Y-15923524D01*
X9057613Y-15923516D01*
X8976465Y-15923509D01*
X8897105Y-15923501D01*
X8819515Y-15923492D01*
X8743677Y-15923483D01*
X8669575Y-15923474D01*
X8597191Y-15923465D01*
X8526509Y-15923455D01*
X8457511Y-15923444D01*
X8390180Y-15923434D01*
X8324499Y-15923423D01*
X8260451Y-15923411D01*
X8198019Y-15923399D01*
X8137185Y-15923387D01*
X8077933Y-15923374D01*
X8020246Y-15923361D01*
X7964105Y-15923348D01*
X7909495Y-15923334D01*
X7856398Y-15923320D01*
X7804797Y-15923305D01*
X7754675Y-15923290D01*
X7706015Y-15923275D01*
X7658799Y-15923259D01*
X7613011Y-15923242D01*
X7568633Y-15923226D01*
X7525648Y-15923209D01*
X7484040Y-15923191D01*
X7443790Y-15923173D01*
X7404883Y-15923154D01*
X7367300Y-15923135D01*
X7331025Y-15923116D01*
X7296041Y-15923096D01*
X7262330Y-15923076D01*
X7229875Y-15923055D01*
X7198660Y-15923034D01*
X7168667Y-15923012D01*
X7139879Y-15922990D01*
X7112278Y-15922967D01*
X7085849Y-15922944D01*
X7060573Y-15922921D01*
X7036434Y-15922897D01*
X7013414Y-15922872D01*
X6991497Y-15922847D01*
X6970664Y-15922822D01*
X6950900Y-15922796D01*
X6932187Y-15922769D01*
X6914508Y-15922742D01*
X6897845Y-15922715D01*
X6882182Y-15922687D01*
X6867501Y-15922658D01*
X6853786Y-15922629D01*
X6841020Y-15922600D01*
X6829184Y-15922570D01*
X6818262Y-15922539D01*
X6808238Y-15922508D01*
X6799093Y-15922476D01*
X6790811Y-15922444D01*
X6783374Y-15922411D01*
X6776766Y-15922378D01*
X6770970Y-15922344D01*
X6765967Y-15922310D01*
X6761742Y-15922275D01*
X6758277Y-15922240D01*
X6755554Y-15922204D01*
X6753558Y-15922167D01*
X6752270Y-15922130D01*
X6751673Y-15922092D01*
X6751655Y-15922089D01*
X6727988Y-15916404D01*
X6704442Y-15908330D01*
X6681335Y-15898010D01*
X6658982Y-15885587D01*
X6637701Y-15871205D01*
X6635450Y-15869518D01*
X6628386Y-15863760D01*
X6620294Y-15856489D01*
X6611679Y-15848218D01*
X6603045Y-15839459D01*
X6594899Y-15830724D01*
X6587745Y-15822526D01*
X6582251Y-15815595D01*
X6569239Y-15796721D01*
X6558082Y-15777721D01*
X6548597Y-15758165D01*
X6540601Y-15737625D01*
X6533912Y-15715671D01*
X6528348Y-15691874D01*
X6527165Y-15685865D01*
X6526848Y-15684169D01*
X6526556Y-15682479D01*
X6526290Y-15680684D01*
X6526046Y-15678674D01*
X6525825Y-15676336D01*
X6525625Y-15673560D01*
X6525444Y-15670234D01*
X6525281Y-15666247D01*
X6525135Y-15661488D01*
X6525004Y-15655846D01*
X6524888Y-15649208D01*
X6524784Y-15641465D01*
X6524691Y-15632505D01*
X6524609Y-15622215D01*
X6524536Y-15610487D01*
X6524470Y-15597207D01*
X6524410Y-15582264D01*
X6524356Y-15565549D01*
X6524304Y-15546948D01*
X6524255Y-15526351D01*
X6524207Y-15503648D01*
X6524158Y-15478725D01*
X6524107Y-15451473D01*
X6524060Y-15425197D01*
X6523616Y-15178500D01*
X22429170Y-15178500D01*
X22429170Y-15419048D01*
X22429170Y-15419048D01*
G37*
X22429170Y-15419048D02*
X22429171Y-15448948D01*
X22429172Y-15476424D01*
X22429169Y-15501591D01*
X22429160Y-15524567D01*
X22429140Y-15545467D01*
X22429107Y-15564407D01*
X22429058Y-15581503D01*
X22428988Y-15596871D01*
X22428895Y-15610627D01*
X22428776Y-15622888D01*
X22428627Y-15633769D01*
X22428445Y-15643386D01*
X22428226Y-15651855D01*
X22427968Y-15659292D01*
X22427666Y-15665814D01*
X22427319Y-15671536D01*
X22426921Y-15676574D01*
X22426471Y-15681045D01*
X22425965Y-15685064D01*
X22425399Y-15688748D01*
X22424771Y-15692212D01*
X22424076Y-15695572D01*
X22423312Y-15698944D01*
X22422476Y-15702446D01*
X22421563Y-15706191D01*
X22420949Y-15708725D01*
X22413355Y-15735003D01*
X22403590Y-15760035D01*
X22391743Y-15783729D01*
X22377905Y-15805991D01*
X22362166Y-15826728D01*
X22344616Y-15845849D01*
X22325346Y-15863259D01*
X22304444Y-15878866D01*
X22282002Y-15892578D01*
X22258110Y-15904301D01*
X22232857Y-15913942D01*
X22217080Y-15918692D01*
X22199935Y-15923355D01*
X14480240Y-15923558D01*
X14306064Y-15923563D01*
X14134411Y-15923567D01*
X13965263Y-15923571D01*
X13798604Y-15923575D01*
X13634417Y-15923578D01*
X13472684Y-15923582D01*
X13313389Y-15923585D01*
X13156513Y-15923588D01*
X13002041Y-15923591D01*
X12849955Y-15923593D01*
X12700237Y-15923595D01*
X12552871Y-15923597D01*
X12407840Y-15923599D01*
X12265127Y-15923600D01*
X12124713Y-15923602D01*
X11986584Y-15923602D01*
X11850720Y-15923603D01*
X11717105Y-15923604D01*
X11585722Y-15923604D01*
X11456554Y-15923603D01*
X11329584Y-15923603D01*
X11204794Y-15923602D01*
X11082168Y-15923601D01*
X10961688Y-15923600D01*
X10843337Y-15923598D01*
X10727099Y-15923597D01*
X10612955Y-15923594D01*
X10500889Y-15923592D01*
X10390885Y-15923589D01*
X10282923Y-15923586D01*
X10176989Y-15923583D01*
X10073063Y-15923579D01*
X9971130Y-15923575D01*
X9871173Y-15923571D01*
X9773173Y-15923566D01*
X9677114Y-15923561D01*
X9582979Y-15923556D01*
X9490751Y-15923550D01*
X9400413Y-15923544D01*
X9311947Y-15923537D01*
X9225336Y-15923531D01*
X9140564Y-15923524D01*
X9057613Y-15923516D01*
X8976465Y-15923509D01*
X8897105Y-15923501D01*
X8819515Y-15923492D01*
X8743677Y-15923483D01*
X8669575Y-15923474D01*
X8597191Y-15923465D01*
X8526509Y-15923455D01*
X8457511Y-15923444D01*
X8390180Y-15923434D01*
X8324499Y-15923423D01*
X8260451Y-15923411D01*
X8198019Y-15923399D01*
X8137185Y-15923387D01*
X8077933Y-15923374D01*
X8020246Y-15923361D01*
X7964105Y-15923348D01*
X7909495Y-15923334D01*
X7856398Y-15923320D01*
X7804797Y-15923305D01*
X7754675Y-15923290D01*
X7706015Y-15923275D01*
X7658799Y-15923259D01*
X7613011Y-15923242D01*
X7568633Y-15923226D01*
X7525648Y-15923209D01*
X7484040Y-15923191D01*
X7443790Y-15923173D01*
X7404883Y-15923154D01*
X7367300Y-15923135D01*
X7331025Y-15923116D01*
X7296041Y-15923096D01*
X7262330Y-15923076D01*
X7229875Y-15923055D01*
X7198660Y-15923034D01*
X7168667Y-15923012D01*
X7139879Y-15922990D01*
X7112278Y-15922967D01*
X7085849Y-15922944D01*
X7060573Y-15922921D01*
X7036434Y-15922897D01*
X7013414Y-15922872D01*
X6991497Y-15922847D01*
X6970664Y-15922822D01*
X6950900Y-15922796D01*
X6932187Y-15922769D01*
X6914508Y-15922742D01*
X6897845Y-15922715D01*
X6882182Y-15922687D01*
X6867501Y-15922658D01*
X6853786Y-15922629D01*
X6841020Y-15922600D01*
X6829184Y-15922570D01*
X6818262Y-15922539D01*
X6808238Y-15922508D01*
X6799093Y-15922476D01*
X6790811Y-15922444D01*
X6783374Y-15922411D01*
X6776766Y-15922378D01*
X6770970Y-15922344D01*
X6765967Y-15922310D01*
X6761742Y-15922275D01*
X6758277Y-15922240D01*
X6755554Y-15922204D01*
X6753558Y-15922167D01*
X6752270Y-15922130D01*
X6751673Y-15922092D01*
X6751655Y-15922089D01*
X6727988Y-15916404D01*
X6704442Y-15908330D01*
X6681335Y-15898010D01*
X6658982Y-15885587D01*
X6637701Y-15871205D01*
X6635450Y-15869518D01*
X6628386Y-15863760D01*
X6620294Y-15856489D01*
X6611679Y-15848218D01*
X6603045Y-15839459D01*
X6594899Y-15830724D01*
X6587745Y-15822526D01*
X6582251Y-15815595D01*
X6569239Y-15796721D01*
X6558082Y-15777721D01*
X6548597Y-15758165D01*
X6540601Y-15737625D01*
X6533912Y-15715671D01*
X6528348Y-15691874D01*
X6527165Y-15685865D01*
X6526848Y-15684169D01*
X6526556Y-15682479D01*
X6526290Y-15680684D01*
X6526046Y-15678674D01*
X6525825Y-15676336D01*
X6525625Y-15673560D01*
X6525444Y-15670234D01*
X6525281Y-15666247D01*
X6525135Y-15661488D01*
X6525004Y-15655846D01*
X6524888Y-15649208D01*
X6524784Y-15641465D01*
X6524691Y-15632505D01*
X6524609Y-15622215D01*
X6524536Y-15610487D01*
X6524470Y-15597207D01*
X6524410Y-15582264D01*
X6524356Y-15565549D01*
X6524304Y-15546948D01*
X6524255Y-15526351D01*
X6524207Y-15503648D01*
X6524158Y-15478725D01*
X6524107Y-15451473D01*
X6524060Y-15425197D01*
X6523616Y-15178500D01*
X22429170Y-15178500D01*
X22429170Y-15419048D01*
G36*
X22219390Y-9175788D02*
X22242744Y-9182988D01*
X22265624Y-9192547D01*
X22287784Y-9204298D01*
X22308980Y-9218069D01*
X22328966Y-9233693D01*
X22347495Y-9250999D01*
X22364324Y-9269818D01*
X22374065Y-9282546D01*
X22388270Y-9304149D01*
X22400304Y-9326436D01*
X22410290Y-9349704D01*
X22418351Y-9374246D01*
X22424610Y-9400358D01*
X22425759Y-9406350D01*
X22426077Y-9408113D01*
X22426370Y-9409857D01*
X22426637Y-9411695D01*
X22426881Y-9413737D01*
X22427103Y-9416093D01*
X22427304Y-9418877D01*
X22427486Y-9422197D01*
X22427649Y-9426166D01*
X22427795Y-9430893D01*
X22427926Y-9436492D01*
X22428042Y-9443071D01*
X22428145Y-9450744D01*
X22428236Y-9459619D01*
X22428317Y-9469809D01*
X22428388Y-9481425D01*
X22428452Y-9494577D01*
X22428509Y-9509377D01*
X22428560Y-9525935D01*
X22428608Y-9544364D01*
X22428653Y-9564773D01*
X22428696Y-9587274D01*
X22428739Y-9611977D01*
X22428784Y-9638995D01*
X22428831Y-9668437D01*
X22428832Y-9669558D01*
X22429225Y-9918160D01*
X6523617Y-9918160D01*
X6524073Y-9670193D01*
X6524128Y-9640686D01*
X6524180Y-9613608D01*
X6524230Y-9588847D01*
X6524280Y-9566293D01*
X6524331Y-9545834D01*
X6524384Y-9527358D01*
X6524441Y-9510755D01*
X6524503Y-9495913D01*
X6524571Y-9482721D01*
X6524646Y-9471068D01*
X6524731Y-9460842D01*
X6524825Y-9451933D01*
X6524931Y-9444228D01*
X6525049Y-9437617D01*
X6525182Y-9431989D01*
X6525330Y-9427231D01*
X6525494Y-9423234D01*
X6525677Y-9419885D01*
X6525878Y-9417074D01*
X6526100Y-9414689D01*
X6526344Y-9412619D01*
X6526611Y-9410752D01*
X6526902Y-9408978D01*
X6527142Y-9407620D01*
X6533271Y-9379883D01*
X6541486Y-9353582D01*
X6551806Y-9328680D01*
X6564248Y-9305141D01*
X6578828Y-9282928D01*
X6595563Y-9262004D01*
X6595912Y-9261607D01*
X6614670Y-9242176D01*
X6634811Y-9224863D01*
X6656291Y-9209698D01*
X6679065Y-9196707D01*
X6703089Y-9185919D01*
X6728317Y-9177362D01*
X6731970Y-9176336D01*
X6745305Y-9172685D01*
X14476200Y-9172677D01*
X22207095Y-9172670D01*
X22219390Y-9175788D01*
X22219390Y-9175788D01*
G37*
X22219390Y-9175788D02*
X22242744Y-9182988D01*
X22265624Y-9192547D01*
X22287784Y-9204298D01*
X22308980Y-9218069D01*
X22328966Y-9233693D01*
X22347495Y-9250999D01*
X22364324Y-9269818D01*
X22374065Y-9282546D01*
X22388270Y-9304149D01*
X22400304Y-9326436D01*
X22410290Y-9349704D01*
X22418351Y-9374246D01*
X22424610Y-9400358D01*
X22425759Y-9406350D01*
X22426077Y-9408113D01*
X22426370Y-9409857D01*
X22426637Y-9411695D01*
X22426881Y-9413737D01*
X22427103Y-9416093D01*
X22427304Y-9418877D01*
X22427486Y-9422197D01*
X22427649Y-9426166D01*
X22427795Y-9430893D01*
X22427926Y-9436492D01*
X22428042Y-9443071D01*
X22428145Y-9450744D01*
X22428236Y-9459619D01*
X22428317Y-9469809D01*
X22428388Y-9481425D01*
X22428452Y-9494577D01*
X22428509Y-9509377D01*
X22428560Y-9525935D01*
X22428608Y-9544364D01*
X22428653Y-9564773D01*
X22428696Y-9587274D01*
X22428739Y-9611977D01*
X22428784Y-9638995D01*
X22428831Y-9668437D01*
X22428832Y-9669558D01*
X22429225Y-9918160D01*
X6523617Y-9918160D01*
X6524073Y-9670193D01*
X6524128Y-9640686D01*
X6524180Y-9613608D01*
X6524230Y-9588847D01*
X6524280Y-9566293D01*
X6524331Y-9545834D01*
X6524384Y-9527358D01*
X6524441Y-9510755D01*
X6524503Y-9495913D01*
X6524571Y-9482721D01*
X6524646Y-9471068D01*
X6524731Y-9460842D01*
X6524825Y-9451933D01*
X6524931Y-9444228D01*
X6525049Y-9437617D01*
X6525182Y-9431989D01*
X6525330Y-9427231D01*
X6525494Y-9423234D01*
X6525677Y-9419885D01*
X6525878Y-9417074D01*
X6526100Y-9414689D01*
X6526344Y-9412619D01*
X6526611Y-9410752D01*
X6526902Y-9408978D01*
X6527142Y-9407620D01*
X6533271Y-9379883D01*
X6541486Y-9353582D01*
X6551806Y-9328680D01*
X6564248Y-9305141D01*
X6578828Y-9282928D01*
X6595563Y-9262004D01*
X6595912Y-9261607D01*
X6614670Y-9242176D01*
X6634811Y-9224863D01*
X6656291Y-9209698D01*
X6679065Y-9196707D01*
X6703089Y-9185919D01*
X6728317Y-9177362D01*
X6731970Y-9176336D01*
X6745305Y-9172685D01*
X14476200Y-9172677D01*
X22207095Y-9172670D01*
X22219390Y-9175788D01*
G36*
X20103119Y-10667306D02*
X20114130Y-10670493D01*
X20124225Y-10675662D01*
X20133140Y-10682633D01*
X20140610Y-10691224D01*
X20146369Y-10701254D01*
X20150153Y-10712543D01*
X20150914Y-10716459D01*
X20151537Y-10728032D01*
X20149813Y-10739413D01*
X20145927Y-10750257D01*
X20140068Y-10760217D01*
X20132421Y-10768946D01*
X20123175Y-10776099D01*
X20116838Y-10779535D01*
X20112677Y-10781353D01*
X20109073Y-10782547D01*
X20105238Y-10783269D01*
X20100383Y-10783671D01*
X20094275Y-10783891D01*
X20085530Y-10783888D01*
X20078905Y-10783371D01*
X20075225Y-10782583D01*
X20063710Y-10777556D01*
X20053789Y-10770749D01*
X20045605Y-10762406D01*
X20039306Y-10752776D01*
X20035035Y-10742104D01*
X20032939Y-10730636D01*
X20033163Y-10718618D01*
X20034096Y-10712925D01*
X20037260Y-10702647D01*
X20042338Y-10693388D01*
X20049630Y-10684616D01*
X20050364Y-10683874D01*
X20059119Y-10676379D01*
X20068316Y-10671123D01*
X20078486Y-10667808D01*
X20079415Y-10667606D01*
X20091460Y-10666283D01*
X20103119Y-10667306D01*
X20103119Y-10667306D01*
G37*
X20103119Y-10667306D02*
X20114130Y-10670493D01*
X20124225Y-10675662D01*
X20133140Y-10682633D01*
X20140610Y-10691224D01*
X20146369Y-10701254D01*
X20150153Y-10712543D01*
X20150914Y-10716459D01*
X20151537Y-10728032D01*
X20149813Y-10739413D01*
X20145927Y-10750257D01*
X20140068Y-10760217D01*
X20132421Y-10768946D01*
X20123175Y-10776099D01*
X20116838Y-10779535D01*
X20112677Y-10781353D01*
X20109073Y-10782547D01*
X20105238Y-10783269D01*
X20100383Y-10783671D01*
X20094275Y-10783891D01*
X20085530Y-10783888D01*
X20078905Y-10783371D01*
X20075225Y-10782583D01*
X20063710Y-10777556D01*
X20053789Y-10770749D01*
X20045605Y-10762406D01*
X20039306Y-10752776D01*
X20035035Y-10742104D01*
X20032939Y-10730636D01*
X20033163Y-10718618D01*
X20034096Y-10712925D01*
X20037260Y-10702647D01*
X20042338Y-10693388D01*
X20049630Y-10684616D01*
X20050364Y-10683874D01*
X20059119Y-10676379D01*
X20068316Y-10671123D01*
X20078486Y-10667808D01*
X20079415Y-10667606D01*
X20091460Y-10666283D01*
X20103119Y-10667306D01*
G36*
X22429170Y-11583648D02*
X22429171Y-11613548D01*
X22429172Y-11641024D01*
X22429169Y-11666191D01*
X22429160Y-11689167D01*
X22429140Y-11710067D01*
X22429107Y-11729007D01*
X22429058Y-11746103D01*
X22428988Y-11761471D01*
X22428895Y-11775227D01*
X22428776Y-11787488D01*
X22428627Y-11798369D01*
X22428445Y-11807986D01*
X22428226Y-11816455D01*
X22427968Y-11823892D01*
X22427666Y-11830414D01*
X22427319Y-11836136D01*
X22426921Y-11841174D01*
X22426471Y-11845645D01*
X22425965Y-11849664D01*
X22425399Y-11853348D01*
X22424771Y-11856812D01*
X22424076Y-11860172D01*
X22423312Y-11863544D01*
X22422476Y-11867046D01*
X22421563Y-11870791D01*
X22420949Y-11873325D01*
X22413355Y-11899603D01*
X22403590Y-11924635D01*
X22391743Y-11948329D01*
X22377905Y-11970591D01*
X22362166Y-11991328D01*
X22344616Y-12010449D01*
X22325346Y-12027859D01*
X22304444Y-12043466D01*
X22282002Y-12057178D01*
X22258110Y-12068901D01*
X22232857Y-12078542D01*
X22217080Y-12083292D01*
X22199935Y-12087955D01*
X14480240Y-12088158D01*
X14306064Y-12088163D01*
X14134411Y-12088167D01*
X13965263Y-12088171D01*
X13798604Y-12088175D01*
X13634417Y-12088178D01*
X13472684Y-12088182D01*
X13313389Y-12088185D01*
X13156513Y-12088188D01*
X13002041Y-12088191D01*
X12849955Y-12088193D01*
X12700237Y-12088195D01*
X12552871Y-12088197D01*
X12407840Y-12088199D01*
X12265127Y-12088200D01*
X12124713Y-12088202D01*
X11986584Y-12088202D01*
X11850720Y-12088203D01*
X11717105Y-12088204D01*
X11585722Y-12088204D01*
X11456554Y-12088203D01*
X11329584Y-12088203D01*
X11204794Y-12088202D01*
X11082168Y-12088201D01*
X10961688Y-12088200D01*
X10843337Y-12088198D01*
X10727099Y-12088197D01*
X10612955Y-12088194D01*
X10500889Y-12088192D01*
X10390885Y-12088189D01*
X10282923Y-12088186D01*
X10176989Y-12088183D01*
X10073063Y-12088179D01*
X9971130Y-12088175D01*
X9871173Y-12088171D01*
X9773173Y-12088166D01*
X9677114Y-12088161D01*
X9582979Y-12088156D01*
X9490751Y-12088150D01*
X9400413Y-12088144D01*
X9311947Y-12088137D01*
X9225336Y-12088131D01*
X9140564Y-12088124D01*
X9057613Y-12088116D01*
X8976465Y-12088109D01*
X8897105Y-12088101D01*
X8819515Y-12088092D01*
X8743677Y-12088083D01*
X8669575Y-12088074D01*
X8597191Y-12088065D01*
X8526509Y-12088055D01*
X8457511Y-12088044D01*
X8390180Y-12088034D01*
X8324499Y-12088023D01*
X8260451Y-12088011D01*
X8198019Y-12087999D01*
X8137185Y-12087987D01*
X8077933Y-12087974D01*
X8020246Y-12087961D01*
X7964105Y-12087948D01*
X7909495Y-12087934D01*
X7856398Y-12087920D01*
X7804797Y-12087905D01*
X7754675Y-12087890D01*
X7706015Y-12087875D01*
X7658799Y-12087859D01*
X7613011Y-12087842D01*
X7568633Y-12087826D01*
X7525648Y-12087809D01*
X7484040Y-12087791D01*
X7443790Y-12087773D01*
X7404883Y-12087754D01*
X7367300Y-12087735D01*
X7331025Y-12087716D01*
X7296041Y-12087696D01*
X7262330Y-12087676D01*
X7229875Y-12087655D01*
X7198660Y-12087634D01*
X7168667Y-12087612D01*
X7139879Y-12087590D01*
X7112278Y-12087567D01*
X7085849Y-12087544D01*
X7060573Y-12087521D01*
X7036434Y-12087497D01*
X7013414Y-12087472D01*
X6991497Y-12087447D01*
X6970664Y-12087422D01*
X6950900Y-12087396D01*
X6932187Y-12087369D01*
X6914508Y-12087342D01*
X6897845Y-12087315D01*
X6882182Y-12087287D01*
X6867501Y-12087258D01*
X6853786Y-12087229D01*
X6841020Y-12087200D01*
X6829184Y-12087170D01*
X6818262Y-12087139D01*
X6808238Y-12087108D01*
X6799093Y-12087076D01*
X6790811Y-12087044D01*
X6783374Y-12087011D01*
X6776766Y-12086978D01*
X6770970Y-12086944D01*
X6765967Y-12086910D01*
X6761742Y-12086875D01*
X6758277Y-12086840D01*
X6755554Y-12086804D01*
X6753558Y-12086767D01*
X6752270Y-12086730D01*
X6751673Y-12086692D01*
X6751655Y-12086689D01*
X6727988Y-12081004D01*
X6704442Y-12072930D01*
X6681335Y-12062610D01*
X6658982Y-12050187D01*
X6637701Y-12035805D01*
X6635450Y-12034118D01*
X6628386Y-12028360D01*
X6620294Y-12021089D01*
X6611679Y-12012818D01*
X6603045Y-12004059D01*
X6594899Y-11995324D01*
X6587745Y-11987126D01*
X6582251Y-11980195D01*
X6569239Y-11961321D01*
X6558082Y-11942321D01*
X6548597Y-11922765D01*
X6540601Y-11902225D01*
X6533912Y-11880271D01*
X6528348Y-11856474D01*
X6527165Y-11850465D01*
X6526848Y-11848769D01*
X6526556Y-11847079D01*
X6526290Y-11845284D01*
X6526046Y-11843274D01*
X6525825Y-11840936D01*
X6525625Y-11838160D01*
X6525444Y-11834834D01*
X6525281Y-11830847D01*
X6525135Y-11826088D01*
X6525004Y-11820446D01*
X6524888Y-11813808D01*
X6524784Y-11806065D01*
X6524691Y-11797105D01*
X6524609Y-11786815D01*
X6524536Y-11775087D01*
X6524470Y-11761807D01*
X6524410Y-11746864D01*
X6524356Y-11730149D01*
X6524304Y-11711548D01*
X6524255Y-11690951D01*
X6524207Y-11668248D01*
X6524158Y-11643325D01*
X6524107Y-11616073D01*
X6524060Y-11589797D01*
X6523616Y-11343100D01*
X22429170Y-11343100D01*
X22429170Y-11583648D01*
X22429170Y-11583648D01*
G37*
X22429170Y-11583648D02*
X22429171Y-11613548D01*
X22429172Y-11641024D01*
X22429169Y-11666191D01*
X22429160Y-11689167D01*
X22429140Y-11710067D01*
X22429107Y-11729007D01*
X22429058Y-11746103D01*
X22428988Y-11761471D01*
X22428895Y-11775227D01*
X22428776Y-11787488D01*
X22428627Y-11798369D01*
X22428445Y-11807986D01*
X22428226Y-11816455D01*
X22427968Y-11823892D01*
X22427666Y-11830414D01*
X22427319Y-11836136D01*
X22426921Y-11841174D01*
X22426471Y-11845645D01*
X22425965Y-11849664D01*
X22425399Y-11853348D01*
X22424771Y-11856812D01*
X22424076Y-11860172D01*
X22423312Y-11863544D01*
X22422476Y-11867046D01*
X22421563Y-11870791D01*
X22420949Y-11873325D01*
X22413355Y-11899603D01*
X22403590Y-11924635D01*
X22391743Y-11948329D01*
X22377905Y-11970591D01*
X22362166Y-11991328D01*
X22344616Y-12010449D01*
X22325346Y-12027859D01*
X22304444Y-12043466D01*
X22282002Y-12057178D01*
X22258110Y-12068901D01*
X22232857Y-12078542D01*
X22217080Y-12083292D01*
X22199935Y-12087955D01*
X14480240Y-12088158D01*
X14306064Y-12088163D01*
X14134411Y-12088167D01*
X13965263Y-12088171D01*
X13798604Y-12088175D01*
X13634417Y-12088178D01*
X13472684Y-12088182D01*
X13313389Y-12088185D01*
X13156513Y-12088188D01*
X13002041Y-12088191D01*
X12849955Y-12088193D01*
X12700237Y-12088195D01*
X12552871Y-12088197D01*
X12407840Y-12088199D01*
X12265127Y-12088200D01*
X12124713Y-12088202D01*
X11986584Y-12088202D01*
X11850720Y-12088203D01*
X11717105Y-12088204D01*
X11585722Y-12088204D01*
X11456554Y-12088203D01*
X11329584Y-12088203D01*
X11204794Y-12088202D01*
X11082168Y-12088201D01*
X10961688Y-12088200D01*
X10843337Y-12088198D01*
X10727099Y-12088197D01*
X10612955Y-12088194D01*
X10500889Y-12088192D01*
X10390885Y-12088189D01*
X10282923Y-12088186D01*
X10176989Y-12088183D01*
X10073063Y-12088179D01*
X9971130Y-12088175D01*
X9871173Y-12088171D01*
X9773173Y-12088166D01*
X9677114Y-12088161D01*
X9582979Y-12088156D01*
X9490751Y-12088150D01*
X9400413Y-12088144D01*
X9311947Y-12088137D01*
X9225336Y-12088131D01*
X9140564Y-12088124D01*
X9057613Y-12088116D01*
X8976465Y-12088109D01*
X8897105Y-12088101D01*
X8819515Y-12088092D01*
X8743677Y-12088083D01*
X8669575Y-12088074D01*
X8597191Y-12088065D01*
X8526509Y-12088055D01*
X8457511Y-12088044D01*
X8390180Y-12088034D01*
X8324499Y-12088023D01*
X8260451Y-12088011D01*
X8198019Y-12087999D01*
X8137185Y-12087987D01*
X8077933Y-12087974D01*
X8020246Y-12087961D01*
X7964105Y-12087948D01*
X7909495Y-12087934D01*
X7856398Y-12087920D01*
X7804797Y-12087905D01*
X7754675Y-12087890D01*
X7706015Y-12087875D01*
X7658799Y-12087859D01*
X7613011Y-12087842D01*
X7568633Y-12087826D01*
X7525648Y-12087809D01*
X7484040Y-12087791D01*
X7443790Y-12087773D01*
X7404883Y-12087754D01*
X7367300Y-12087735D01*
X7331025Y-12087716D01*
X7296041Y-12087696D01*
X7262330Y-12087676D01*
X7229875Y-12087655D01*
X7198660Y-12087634D01*
X7168667Y-12087612D01*
X7139879Y-12087590D01*
X7112278Y-12087567D01*
X7085849Y-12087544D01*
X7060573Y-12087521D01*
X7036434Y-12087497D01*
X7013414Y-12087472D01*
X6991497Y-12087447D01*
X6970664Y-12087422D01*
X6950900Y-12087396D01*
X6932187Y-12087369D01*
X6914508Y-12087342D01*
X6897845Y-12087315D01*
X6882182Y-12087287D01*
X6867501Y-12087258D01*
X6853786Y-12087229D01*
X6841020Y-12087200D01*
X6829184Y-12087170D01*
X6818262Y-12087139D01*
X6808238Y-12087108D01*
X6799093Y-12087076D01*
X6790811Y-12087044D01*
X6783374Y-12087011D01*
X6776766Y-12086978D01*
X6770970Y-12086944D01*
X6765967Y-12086910D01*
X6761742Y-12086875D01*
X6758277Y-12086840D01*
X6755554Y-12086804D01*
X6753558Y-12086767D01*
X6752270Y-12086730D01*
X6751673Y-12086692D01*
X6751655Y-12086689D01*
X6727988Y-12081004D01*
X6704442Y-12072930D01*
X6681335Y-12062610D01*
X6658982Y-12050187D01*
X6637701Y-12035805D01*
X6635450Y-12034118D01*
X6628386Y-12028360D01*
X6620294Y-12021089D01*
X6611679Y-12012818D01*
X6603045Y-12004059D01*
X6594899Y-11995324D01*
X6587745Y-11987126D01*
X6582251Y-11980195D01*
X6569239Y-11961321D01*
X6558082Y-11942321D01*
X6548597Y-11922765D01*
X6540601Y-11902225D01*
X6533912Y-11880271D01*
X6528348Y-11856474D01*
X6527165Y-11850465D01*
X6526848Y-11848769D01*
X6526556Y-11847079D01*
X6526290Y-11845284D01*
X6526046Y-11843274D01*
X6525825Y-11840936D01*
X6525625Y-11838160D01*
X6525444Y-11834834D01*
X6525281Y-11830847D01*
X6525135Y-11826088D01*
X6525004Y-11820446D01*
X6524888Y-11813808D01*
X6524784Y-11806065D01*
X6524691Y-11797105D01*
X6524609Y-11786815D01*
X6524536Y-11775087D01*
X6524470Y-11761807D01*
X6524410Y-11746864D01*
X6524356Y-11730149D01*
X6524304Y-11711548D01*
X6524255Y-11690951D01*
X6524207Y-11668248D01*
X6524158Y-11643325D01*
X6524107Y-11616073D01*
X6524060Y-11589797D01*
X6523616Y-11343100D01*
X22429170Y-11343100D01*
X22429170Y-11583648D01*
D11*
G36*
X10223084Y-14235400D02*
X10255084Y-14235400D01*
X10255084Y-14735400D01*
X10223084Y-14735400D01*
X10223084Y-14235400D01*
G37*
X10223084Y-14235400D02*
X10255084Y-14235400D01*
X10255084Y-14735400D01*
X10223084Y-14735400D01*
X10223084Y-14235400D01*
G36*
X10483084Y-14615400D02*
X10483084Y-14235400D01*
X10253084Y-14235400D01*
X10253084Y-14735400D01*
X10483084Y-14735400D01*
X10483084Y-14615400D01*
G37*
X10483084Y-14615400D02*
X10483084Y-14235400D01*
X10253084Y-14235400D01*
X10253084Y-14735400D01*
X10483084Y-14735400D01*
X10483084Y-14615400D01*
G36*
X10223084Y-14735400D02*
X9883084Y-14485400D01*
X10223084Y-14235400D01*
X10223084Y-14735400D01*
G37*
X10223084Y-14735400D02*
X9883084Y-14485400D01*
X10223084Y-14235400D01*
X10223084Y-14735400D01*
G36*
X10223084Y-10900000D02*
X9883084Y-10650000D01*
X10223084Y-10400000D01*
X10223084Y-10900000D01*
G37*
X10223084Y-10900000D02*
X9883084Y-10650000D01*
X10223084Y-10400000D01*
X10223084Y-10900000D01*
G36*
X10483084Y-10780000D02*
X10483084Y-10400000D01*
X10253084Y-10400000D01*
X10253084Y-10900000D01*
X10483084Y-10900000D01*
X10483084Y-10780000D01*
G37*
X10483084Y-10780000D02*
X10483084Y-10400000D01*
X10253084Y-10400000D01*
X10253084Y-10900000D01*
X10483084Y-10900000D01*
X10483084Y-10780000D01*
G36*
X10223084Y-10400000D02*
X10255084Y-10400000D01*
X10255084Y-10900000D01*
X10223084Y-10900000D01*
X10223084Y-10400000D01*
G37*
X10223084Y-10400000D02*
X10255084Y-10400000D01*
X10255084Y-10900000D01*
X10223084Y-10900000D01*
X10223084Y-10400000D01*
D12*
X22423000Y-16397000D03*
X22421000Y-16488000D03*
X22423147Y-15087135D03*
X22423147Y-15004101D03*
X22423147Y-14921068D03*
X22423147Y-13973299D03*
X22423147Y-13890264D03*
X22423147Y-13807231D03*
X22423147Y-16171562D03*
X22423147Y-16316136D03*
X22423147Y-16243849D03*
X22423000Y-12579000D03*
X22423147Y-12730076D03*
X22423147Y-12657789D03*
X22425000Y-8607000D03*
X22424328Y-8680777D03*
X22423147Y-11251735D03*
X22423147Y-11168701D03*
X22423147Y-11085668D03*
X22423147Y-10137899D03*
X22423147Y-10054864D03*
X22423147Y-9971831D03*
X22423147Y-12336162D03*
X22424000Y-12496000D03*
X22423147Y-12408449D03*
X22423147Y-8750102D03*
X22423147Y-8894676D03*
X22423147Y-8822389D03*
D13*
X10683400Y-14143550D03*
X11013400Y-14143550D03*
D14*
X18415000Y-14826400D03*
X18865000Y-13916400D03*
X18415000Y-13916400D03*
X18865000Y-14826400D03*
D15*
X11664200Y-14817600D03*
X11754200Y-14817600D03*
D16*
X22212000Y-14529540D03*
X22212000Y-14361900D03*
D17*
X22212000Y-14154382D03*
X22212000Y-14737058D03*
D18*
X21982130Y-14199594D03*
X21982130Y-14691846D03*
D19*
X21946062Y-14575768D03*
X21946062Y-14510744D03*
X21946062Y-14445720D03*
X21946062Y-14380696D03*
X21946062Y-14315672D03*
D20*
X11658200Y-15046200D03*
X11710200Y-15046200D03*
D21*
X16849000Y-14030400D03*
X17189000Y-14030400D03*
D22*
X11679200Y-14592950D03*
X11829200Y-14592950D03*
D23*
X16321000Y-14229800D03*
X16321000Y-14069800D03*
X15911000Y-14229800D03*
X15911000Y-14069800D03*
D24*
X10808400Y-14397800D03*
X11028400Y-14397800D03*
D25*
X11699200Y-14131800D03*
X11989200Y-14131800D03*
D26*
X13057000Y-14184400D03*
X12657000Y-14184400D03*
D27*
X14045000Y-14226000D03*
X13615000Y-14226000D03*
D28*
X13127000Y-14754400D03*
X12447000Y-14754400D03*
D29*
X17658288Y-14703774D03*
X18028112Y-14103826D03*
X18028112Y-14703774D03*
X17658288Y-14103826D03*
D30*
X10323000Y-14485400D03*
D11*
G36*
X10253084Y-14488835D02*
X10253758Y-14495671D01*
X10255098Y-14502409D01*
X10257092Y-14508982D01*
X10259721Y-14515329D01*
X10262959Y-14521387D01*
X10266776Y-14527099D01*
X10271133Y-14532409D01*
X10275991Y-14537267D01*
X10281301Y-14541624D01*
X10287013Y-14545441D01*
X10293071Y-14548679D01*
X10299418Y-14551308D01*
X10305991Y-14553302D01*
X10312729Y-14554642D01*
X10319565Y-14555316D01*
X10326435Y-14555316D01*
X10333271Y-14554642D01*
X10340009Y-14553302D01*
X10346582Y-14551308D01*
X10352929Y-14548679D01*
X10358987Y-14545441D01*
X10364699Y-14541624D01*
X10370009Y-14537267D01*
X10374867Y-14532409D01*
X10379225Y-14527099D01*
X10383041Y-14521387D01*
X10386279Y-14515329D01*
X10388908Y-14508982D01*
X10390902Y-14502409D01*
X10392242Y-14495671D01*
X10392916Y-14488835D01*
X10392916Y-14481965D01*
X10392242Y-14475129D01*
X10390902Y-14468391D01*
X10388908Y-14461818D01*
X10386279Y-14455471D01*
X10383041Y-14449413D01*
X10379225Y-14443701D01*
X10374867Y-14438391D01*
X10370009Y-14433533D01*
X10364699Y-14429175D01*
X10358987Y-14425359D01*
X10352929Y-14422121D01*
X10346582Y-14419492D01*
X10340009Y-14417498D01*
X10333271Y-14416158D01*
X10326435Y-14415484D01*
X10319565Y-14415484D01*
X10312729Y-14416158D01*
X10305991Y-14417498D01*
X10299418Y-14419492D01*
X10293071Y-14422121D01*
X10287013Y-14425359D01*
X10281301Y-14429175D01*
X10275991Y-14433533D01*
X10271133Y-14438391D01*
X10266776Y-14443701D01*
X10262959Y-14449413D01*
X10259721Y-14455471D01*
X10257092Y-14461818D01*
X10255098Y-14468391D01*
X10253758Y-14475129D01*
X10253084Y-14481965D01*
X10253084Y-14488835D01*
X10253084Y-14488835D01*
G37*
D30*
X10153074Y-14485400D03*
D11*
G36*
X10223074Y-14555400D02*
X10223074Y-14415400D01*
X10083074Y-14415400D01*
X10083074Y-14555400D01*
X10223074Y-14555400D01*
X10223074Y-14555400D01*
X10223074Y-14555400D01*
G37*
D31*
X13731800Y-14835600D03*
X13521800Y-14835600D03*
D32*
X10888400Y-14604950D03*
X11048400Y-14604950D03*
D33*
X13715600Y-14607000D03*
X13385600Y-14607000D03*
D34*
X13582200Y-15038800D03*
X13722200Y-15038800D03*
D35*
X15871400Y-14734400D03*
X16411400Y-14734400D03*
D36*
X14857000Y-14829400D03*
X15107000Y-14829400D03*
X15357000Y-14829400D03*
X15357000Y-14279400D03*
X15107000Y-14279400D03*
X14857000Y-14279400D03*
D37*
X16843500Y-14490400D03*
X17268500Y-14490400D03*
X16843500Y-14840400D03*
X17268500Y-14840400D03*
D38*
X16808500Y-14840400D03*
X17303500Y-14490400D03*
X16808500Y-14490400D03*
X17303500Y-14840400D03*
D39*
X11689200Y-14385800D03*
X11879200Y-14385800D03*
D34*
X10958400Y-14829600D03*
X11068400Y-14829600D03*
D19*
X21946062Y-10480272D03*
X21946062Y-10545296D03*
X21946062Y-10610320D03*
X21946062Y-10675344D03*
X21946062Y-10740368D03*
D18*
X21982130Y-10856446D03*
X21982130Y-10364194D03*
D17*
X22212000Y-10901658D03*
X22212000Y-10318982D03*
D16*
X22212000Y-10526500D03*
X22212000Y-10694140D03*
D13*
X11013400Y-10308150D03*
X10683400Y-10308150D03*
D24*
X11028400Y-10562400D03*
X10808400Y-10562400D03*
D32*
X11048400Y-10769550D03*
X10888400Y-10769550D03*
D34*
X11068400Y-10994200D03*
X10958400Y-10994200D03*
D39*
X11879200Y-10550400D03*
X11689200Y-10550400D03*
D22*
X11829200Y-10757550D03*
X11679200Y-10757550D03*
D15*
X11754200Y-10982200D03*
X11664200Y-10982200D03*
D20*
X11710200Y-11210800D03*
X11658200Y-11210800D03*
D21*
X17189000Y-10195000D03*
X16849000Y-10195000D03*
D14*
X18865000Y-10991000D03*
X18415000Y-10081000D03*
X18865000Y-10081000D03*
X18415000Y-10991000D03*
D23*
X15911000Y-10234400D03*
X15911000Y-10394400D03*
X16321000Y-10234400D03*
X16321000Y-10394400D03*
D25*
X11989200Y-10296400D03*
X11699200Y-10296400D03*
D34*
X13722200Y-11203400D03*
X13582200Y-11203400D03*
D31*
X13521800Y-11000200D03*
X13731800Y-11000200D03*
D33*
X13385600Y-10771600D03*
X13715600Y-10771600D03*
D28*
X12447000Y-10919000D03*
X13127000Y-10919000D03*
D27*
X13615000Y-10390600D03*
X14045000Y-10390600D03*
D26*
X12657000Y-10349000D03*
X13057000Y-10349000D03*
D36*
X14857000Y-10444000D03*
X15107000Y-10444000D03*
X15357000Y-10444000D03*
X15357000Y-10994000D03*
X15107000Y-10994000D03*
X14857000Y-10994000D03*
D38*
X17303500Y-11005000D03*
X16808500Y-10655000D03*
X17303500Y-10655000D03*
X16808500Y-11005000D03*
D37*
X17268500Y-11005000D03*
X16843500Y-11005000D03*
X17268500Y-10655000D03*
X16843500Y-10655000D03*
D35*
X16411400Y-10899000D03*
X15871400Y-10899000D03*
D30*
X10153074Y-10650000D03*
D11*
G36*
X10223074Y-10720000D02*
X10223074Y-10580000D01*
X10083074Y-10580000D01*
X10083074Y-10720000D01*
X10223074Y-10720000D01*
X10223074Y-10720000D01*
X10223074Y-10720000D01*
G37*
D30*
X10323000Y-10650000D03*
D11*
G36*
X10253084Y-10653435D02*
X10253758Y-10660271D01*
X10255098Y-10667009D01*
X10257092Y-10673582D01*
X10259721Y-10679929D01*
X10262959Y-10685987D01*
X10266776Y-10691699D01*
X10271133Y-10697009D01*
X10275991Y-10701867D01*
X10281301Y-10706225D01*
X10287013Y-10710041D01*
X10293071Y-10713279D01*
X10299418Y-10715908D01*
X10305991Y-10717902D01*
X10312729Y-10719242D01*
X10319565Y-10719916D01*
X10326435Y-10719916D01*
X10333271Y-10719242D01*
X10340009Y-10717902D01*
X10346582Y-10715908D01*
X10352929Y-10713279D01*
X10358987Y-10710041D01*
X10364699Y-10706225D01*
X10370009Y-10701867D01*
X10374867Y-10697009D01*
X10379225Y-10691699D01*
X10383041Y-10685987D01*
X10386279Y-10679929D01*
X10388908Y-10673582D01*
X10390902Y-10667009D01*
X10392242Y-10660271D01*
X10392916Y-10653435D01*
X10392916Y-10646565D01*
X10392242Y-10639729D01*
X10390902Y-10632991D01*
X10388908Y-10626418D01*
X10386279Y-10620071D01*
X10383041Y-10614013D01*
X10379225Y-10608301D01*
X10374867Y-10602991D01*
X10370009Y-10598133D01*
X10364699Y-10593776D01*
X10358987Y-10589959D01*
X10352929Y-10586721D01*
X10346582Y-10584092D01*
X10340009Y-10582098D01*
X10333271Y-10580758D01*
X10326435Y-10580084D01*
X10319565Y-10580084D01*
X10312729Y-10580758D01*
X10305991Y-10582098D01*
X10299418Y-10584092D01*
X10293071Y-10586721D01*
X10287013Y-10589959D01*
X10281301Y-10593776D01*
X10275991Y-10598133D01*
X10271133Y-10602991D01*
X10266776Y-10608301D01*
X10262959Y-10614013D01*
X10259721Y-10620071D01*
X10257092Y-10626418D01*
X10255098Y-10632991D01*
X10253758Y-10639729D01*
X10253084Y-10646565D01*
X10253084Y-10653435D01*
X10253084Y-10653435D01*
G37*
D29*
X17658288Y-10268426D03*
X18028112Y-10868374D03*
X18028112Y-10268426D03*
X17658288Y-10868374D03*
M02*
