G04 #@! TF.GenerationSoftware,KiCad,Pcbnew,5.0.0-fee4fd1~66~ubuntu16.04.1*
G04 #@! TF.CreationDate,2018-08-20T11:41:08+01:00*
G04 #@! TF.ProjectId,ruler,72756C65722E6B696361645F70636200,rev?*
G04 #@! TF.SameCoordinates,Original*
G04 #@! TF.FileFunction,Soldermask,Top*
G04 #@! TF.FilePolarity,Negative*
%FSLAX45Y45*%
G04 Gerber Fmt 4.5, Leading zero omitted, Abs format (unit mm)*
G04 Created by KiCad (PCBNEW 5.0.0-fee4fd1~66~ubuntu16.04.1) date Mon Aug 20 11:41:08 2018*
%MOMM*%
%LPD*%
G01*
G04 APERTURE LIST*
%ADD10C,0.010000*%
%ADD11C,0.150000*%
%ADD12C,0.900000*%
%ADD13C,1.000000*%
%ADD14C,1.275000*%
%ADD15C,1.550000*%
%ADD16C,1.650000*%
%ADD17R,2.900000X3.700000*%
%ADD18R,0.900000X1.100000*%
%ADD19R,0.600000X1.500000*%
%ADD20R,1.800000X1.400000*%
%ADD21R,1.000000X0.850000*%
%ADD22R,2.900000X2.700000*%
%ADD23R,0.800000X1.000000*%
%ADD24R,1.000000X1.100000*%
%ADD25R,1.300000X2.100000*%
%ADD26C,0.700000*%
%ADD27R,1.800000X2.500000*%
%ADD28R,2.000000X2.400000*%
%ADD29R,1.200000X2.100000*%
%ADD30R,1.100000X1.700000*%
%ADD31C,0.800000*%
%ADD32R,1.300000X1.400000*%
%ADD33R,1.400760X1.400760*%
%ADD34R,0.680000X0.830000*%
%ADD35R,2.297380X1.573480*%
%ADD36R,2.297380X2.774900*%
%ADD37R,2.500580X1.873200*%
%ADD38R,1.779220X0.849580*%
%ADD39R,2.900000X2.200000*%
%ADD40R,1.600000X2.900000*%
%ADD41R,0.900000X1.300000*%
%ADD42R,1.300000X1.600000*%
G04 APERTURE END LIST*
D10*
G04 #@! TO.C,DRAWING1*
G36*
X22232422Y-13120610D02*
X22273258Y-13140882D01*
X22314756Y-13166058D01*
X22350709Y-13197340D01*
X22380640Y-13234048D01*
X22404071Y-13275503D01*
X22420522Y-13321028D01*
X22428504Y-13361188D01*
X22428883Y-13368341D01*
X22429243Y-13383542D01*
X22429584Y-13406372D01*
X22429906Y-13436411D01*
X22430209Y-13473241D01*
X22430492Y-13516444D01*
X22430757Y-13565599D01*
X22431002Y-13620289D01*
X22431229Y-13680095D01*
X22431436Y-13744597D01*
X22431624Y-13813376D01*
X22431794Y-13886015D01*
X22431943Y-13962093D01*
X22432074Y-14041192D01*
X22432186Y-14122893D01*
X22432278Y-14206778D01*
X22432352Y-14292427D01*
X22432406Y-14379421D01*
X22432441Y-14467342D01*
X22432456Y-14555771D01*
X22432453Y-14644288D01*
X22432430Y-14732475D01*
X22432388Y-14819913D01*
X22432327Y-14906184D01*
X22432246Y-14990867D01*
X22432147Y-15073545D01*
X22432028Y-15153799D01*
X22431889Y-15231209D01*
X22431732Y-15305357D01*
X22431555Y-15375823D01*
X22431359Y-15442189D01*
X22431143Y-15504037D01*
X22430908Y-15560947D01*
X22430654Y-15612499D01*
X22430381Y-15658277D01*
X22430088Y-15697859D01*
X22429776Y-15730829D01*
X22429444Y-15756766D01*
X22429093Y-15775251D01*
X22428723Y-15785867D01*
X22428560Y-15787891D01*
X22418517Y-15834562D01*
X22401295Y-15878382D01*
X22377603Y-15918523D01*
X22348150Y-15954160D01*
X22313646Y-15984464D01*
X22274800Y-16008607D01*
X22232320Y-16025763D01*
X22222210Y-16028608D01*
X22220678Y-16028875D01*
X22218098Y-16029135D01*
X22214359Y-16029389D01*
X22209347Y-16029635D01*
X22202950Y-16029874D01*
X22195055Y-16030106D01*
X22185549Y-16030331D01*
X22174319Y-16030550D01*
X22161252Y-16030762D01*
X22146236Y-16030968D01*
X22129157Y-16031167D01*
X22109903Y-16031360D01*
X22088362Y-16031546D01*
X22064419Y-16031726D01*
X22037963Y-16031901D01*
X22008880Y-16032069D01*
X21977058Y-16032231D01*
X21942384Y-16032388D01*
X21904745Y-16032538D01*
X21864028Y-16032684D01*
X21820120Y-16032823D01*
X21772909Y-16032958D01*
X21722281Y-16033086D01*
X21668125Y-16033210D01*
X21610326Y-16033328D01*
X21548773Y-16033442D01*
X21483352Y-16033550D01*
X21413950Y-16033653D01*
X21340455Y-16033752D01*
X21262754Y-16033846D01*
X21180735Y-16033935D01*
X21094283Y-16034020D01*
X21003286Y-16034100D01*
X20907633Y-16034176D01*
X20807208Y-16034248D01*
X20701901Y-16034315D01*
X20591598Y-16034379D01*
X20476186Y-16034438D01*
X20355552Y-16034494D01*
X20229584Y-16034545D01*
X20098169Y-16034593D01*
X19961193Y-16034637D01*
X19818545Y-16034678D01*
X19670110Y-16034716D01*
X19515777Y-16034750D01*
X19355433Y-16034780D01*
X19188965Y-16034808D01*
X19016259Y-16034832D01*
X18837203Y-16034854D01*
X18651685Y-16034872D01*
X18459591Y-16034888D01*
X18260808Y-16034901D01*
X18055224Y-16034911D01*
X17842726Y-16034919D01*
X17623202Y-16034924D01*
X17396537Y-16034927D01*
X17162620Y-16034928D01*
X16921337Y-16034927D01*
X16672576Y-16034923D01*
X16416224Y-16034918D01*
X16152168Y-16034910D01*
X15880296Y-16034901D01*
X15600494Y-16034890D01*
X15312649Y-16034877D01*
X15016649Y-16034863D01*
X14712381Y-16034847D01*
X14475549Y-16034835D01*
X14201132Y-16034818D01*
X13929781Y-16034797D01*
X13661609Y-16034772D01*
X13396732Y-16034743D01*
X13135262Y-16034711D01*
X12877316Y-16034675D01*
X12623006Y-16034636D01*
X12372448Y-16034593D01*
X12125755Y-16034546D01*
X11883043Y-16034496D01*
X11644425Y-16034443D01*
X11410016Y-16034387D01*
X11179930Y-16034328D01*
X10954281Y-16034265D01*
X10733185Y-16034199D01*
X10516755Y-16034131D01*
X10305105Y-16034059D01*
X10098350Y-16033984D01*
X9896605Y-16033907D01*
X9699983Y-16033827D01*
X9508600Y-16033744D01*
X9322569Y-16033658D01*
X9142005Y-16033570D01*
X8967021Y-16033480D01*
X8797734Y-16033387D01*
X8634256Y-16033291D01*
X8476702Y-16033194D01*
X8325187Y-16033094D01*
X8179825Y-16032991D01*
X8040730Y-16032887D01*
X7908017Y-16032780D01*
X7781800Y-16032672D01*
X7662193Y-16032561D01*
X7549311Y-16032449D01*
X7443269Y-16032335D01*
X7344179Y-16032219D01*
X7252158Y-16032101D01*
X7167318Y-16031982D01*
X7089775Y-16031861D01*
X7019643Y-16031738D01*
X6957036Y-16031614D01*
X6902069Y-16031489D01*
X6854856Y-16031362D01*
X6815511Y-16031234D01*
X6784149Y-16031105D01*
X6760884Y-16030975D01*
X6745830Y-16030843D01*
X6739102Y-16030711D01*
X6738743Y-16030680D01*
X6712506Y-16022352D01*
X6683840Y-16009726D01*
X6656316Y-15994474D01*
X6643841Y-15986204D01*
X6607721Y-15955520D01*
X6577717Y-15919100D01*
X6555522Y-15880743D01*
X6552261Y-15874299D01*
X6549218Y-15868687D01*
X6546388Y-15863610D01*
X6543760Y-15858771D01*
X6541330Y-15853873D01*
X6539088Y-15848619D01*
X6537027Y-15842712D01*
X6535140Y-15835856D01*
X6533419Y-15827754D01*
X6531856Y-15818108D01*
X6530444Y-15806622D01*
X6529176Y-15792999D01*
X6528044Y-15776943D01*
X6527040Y-15758155D01*
X6526156Y-15736340D01*
X6525386Y-15711200D01*
X6524722Y-15682439D01*
X6524156Y-15649759D01*
X6523680Y-15612865D01*
X6523287Y-15571458D01*
X6522970Y-15525242D01*
X6522721Y-15473921D01*
X6522532Y-15417197D01*
X6522396Y-15354773D01*
X6522305Y-15286353D01*
X6522251Y-15211639D01*
X6522228Y-15130336D01*
X6522228Y-15042145D01*
X6522242Y-14946770D01*
X6522264Y-14843915D01*
X6522286Y-14733281D01*
X6522301Y-14614573D01*
X6522303Y-14574760D01*
X6522298Y-14453401D01*
X6522283Y-14340212D01*
X6522265Y-14234895D01*
X6522252Y-14137155D01*
X6522251Y-14046694D01*
X6522270Y-13963215D01*
X6522316Y-13886421D01*
X6522343Y-13863560D01*
X9821610Y-13863560D01*
X9821610Y-15285960D01*
X19122243Y-15285960D01*
X19122243Y-14075227D01*
X21814643Y-14075227D01*
X21814643Y-15048893D01*
X22428477Y-15048893D01*
X22428477Y-14075227D01*
X21814643Y-14075227D01*
X19122243Y-14075227D01*
X19122243Y-13863560D01*
X9821610Y-13863560D01*
X6522343Y-13863560D01*
X6522398Y-13816016D01*
X6522522Y-13751702D01*
X6522695Y-13693182D01*
X6522927Y-13640161D01*
X6523224Y-13592340D01*
X6523593Y-13549423D01*
X6524042Y-13511114D01*
X6524579Y-13477114D01*
X6525212Y-13447128D01*
X6525947Y-13420858D01*
X6526792Y-13398007D01*
X6527756Y-13378279D01*
X6528845Y-13361377D01*
X6530067Y-13347004D01*
X6531429Y-13334862D01*
X6532940Y-13324656D01*
X6534606Y-13316087D01*
X6536435Y-13308860D01*
X6538435Y-13302677D01*
X6540613Y-13297242D01*
X6542977Y-13292257D01*
X6545534Y-13287426D01*
X6548292Y-13282451D01*
X6551258Y-13277037D01*
X6554440Y-13270885D01*
X6555475Y-13268777D01*
X6577775Y-13231008D01*
X6605968Y-13196687D01*
X6638666Y-13167075D01*
X6674483Y-13143435D01*
X6710879Y-13127409D01*
X6737690Y-13118486D01*
X22232422Y-13120610D01*
X22232422Y-13120610D01*
G37*
X22232422Y-13120610D02*
X22273258Y-13140882D01*
X22314756Y-13166058D01*
X22350709Y-13197340D01*
X22380640Y-13234048D01*
X22404071Y-13275503D01*
X22420522Y-13321028D01*
X22428504Y-13361188D01*
X22428883Y-13368341D01*
X22429243Y-13383542D01*
X22429584Y-13406372D01*
X22429906Y-13436411D01*
X22430209Y-13473241D01*
X22430492Y-13516444D01*
X22430757Y-13565599D01*
X22431002Y-13620289D01*
X22431229Y-13680095D01*
X22431436Y-13744597D01*
X22431624Y-13813376D01*
X22431794Y-13886015D01*
X22431943Y-13962093D01*
X22432074Y-14041192D01*
X22432186Y-14122893D01*
X22432278Y-14206778D01*
X22432352Y-14292427D01*
X22432406Y-14379421D01*
X22432441Y-14467342D01*
X22432456Y-14555771D01*
X22432453Y-14644288D01*
X22432430Y-14732475D01*
X22432388Y-14819913D01*
X22432327Y-14906184D01*
X22432246Y-14990867D01*
X22432147Y-15073545D01*
X22432028Y-15153799D01*
X22431889Y-15231209D01*
X22431732Y-15305357D01*
X22431555Y-15375823D01*
X22431359Y-15442189D01*
X22431143Y-15504037D01*
X22430908Y-15560947D01*
X22430654Y-15612499D01*
X22430381Y-15658277D01*
X22430088Y-15697859D01*
X22429776Y-15730829D01*
X22429444Y-15756766D01*
X22429093Y-15775251D01*
X22428723Y-15785867D01*
X22428560Y-15787891D01*
X22418517Y-15834562D01*
X22401295Y-15878382D01*
X22377603Y-15918523D01*
X22348150Y-15954160D01*
X22313646Y-15984464D01*
X22274800Y-16008607D01*
X22232320Y-16025763D01*
X22222210Y-16028608D01*
X22220678Y-16028875D01*
X22218098Y-16029135D01*
X22214359Y-16029389D01*
X22209347Y-16029635D01*
X22202950Y-16029874D01*
X22195055Y-16030106D01*
X22185549Y-16030331D01*
X22174319Y-16030550D01*
X22161252Y-16030762D01*
X22146236Y-16030968D01*
X22129157Y-16031167D01*
X22109903Y-16031360D01*
X22088362Y-16031546D01*
X22064419Y-16031726D01*
X22037963Y-16031901D01*
X22008880Y-16032069D01*
X21977058Y-16032231D01*
X21942384Y-16032388D01*
X21904745Y-16032538D01*
X21864028Y-16032684D01*
X21820120Y-16032823D01*
X21772909Y-16032958D01*
X21722281Y-16033086D01*
X21668125Y-16033210D01*
X21610326Y-16033328D01*
X21548773Y-16033442D01*
X21483352Y-16033550D01*
X21413950Y-16033653D01*
X21340455Y-16033752D01*
X21262754Y-16033846D01*
X21180735Y-16033935D01*
X21094283Y-16034020D01*
X21003286Y-16034100D01*
X20907633Y-16034176D01*
X20807208Y-16034248D01*
X20701901Y-16034315D01*
X20591598Y-16034379D01*
X20476186Y-16034438D01*
X20355552Y-16034494D01*
X20229584Y-16034545D01*
X20098169Y-16034593D01*
X19961193Y-16034637D01*
X19818545Y-16034678D01*
X19670110Y-16034716D01*
X19515777Y-16034750D01*
X19355433Y-16034780D01*
X19188965Y-16034808D01*
X19016259Y-16034832D01*
X18837203Y-16034854D01*
X18651685Y-16034872D01*
X18459591Y-16034888D01*
X18260808Y-16034901D01*
X18055224Y-16034911D01*
X17842726Y-16034919D01*
X17623202Y-16034924D01*
X17396537Y-16034927D01*
X17162620Y-16034928D01*
X16921337Y-16034927D01*
X16672576Y-16034923D01*
X16416224Y-16034918D01*
X16152168Y-16034910D01*
X15880296Y-16034901D01*
X15600494Y-16034890D01*
X15312649Y-16034877D01*
X15016649Y-16034863D01*
X14712381Y-16034847D01*
X14475549Y-16034835D01*
X14201132Y-16034818D01*
X13929781Y-16034797D01*
X13661609Y-16034772D01*
X13396732Y-16034743D01*
X13135262Y-16034711D01*
X12877316Y-16034675D01*
X12623006Y-16034636D01*
X12372448Y-16034593D01*
X12125755Y-16034546D01*
X11883043Y-16034496D01*
X11644425Y-16034443D01*
X11410016Y-16034387D01*
X11179930Y-16034328D01*
X10954281Y-16034265D01*
X10733185Y-16034199D01*
X10516755Y-16034131D01*
X10305105Y-16034059D01*
X10098350Y-16033984D01*
X9896605Y-16033907D01*
X9699983Y-16033827D01*
X9508600Y-16033744D01*
X9322569Y-16033658D01*
X9142005Y-16033570D01*
X8967021Y-16033480D01*
X8797734Y-16033387D01*
X8634256Y-16033291D01*
X8476702Y-16033194D01*
X8325187Y-16033094D01*
X8179825Y-16032991D01*
X8040730Y-16032887D01*
X7908017Y-16032780D01*
X7781800Y-16032672D01*
X7662193Y-16032561D01*
X7549311Y-16032449D01*
X7443269Y-16032335D01*
X7344179Y-16032219D01*
X7252158Y-16032101D01*
X7167318Y-16031982D01*
X7089775Y-16031861D01*
X7019643Y-16031738D01*
X6957036Y-16031614D01*
X6902069Y-16031489D01*
X6854856Y-16031362D01*
X6815511Y-16031234D01*
X6784149Y-16031105D01*
X6760884Y-16030975D01*
X6745830Y-16030843D01*
X6739102Y-16030711D01*
X6738743Y-16030680D01*
X6712506Y-16022352D01*
X6683840Y-16009726D01*
X6656316Y-15994474D01*
X6643841Y-15986204D01*
X6607721Y-15955520D01*
X6577717Y-15919100D01*
X6555522Y-15880743D01*
X6552261Y-15874299D01*
X6549218Y-15868687D01*
X6546388Y-15863610D01*
X6543760Y-15858771D01*
X6541330Y-15853873D01*
X6539088Y-15848619D01*
X6537027Y-15842712D01*
X6535140Y-15835856D01*
X6533419Y-15827754D01*
X6531856Y-15818108D01*
X6530444Y-15806622D01*
X6529176Y-15792999D01*
X6528044Y-15776943D01*
X6527040Y-15758155D01*
X6526156Y-15736340D01*
X6525386Y-15711200D01*
X6524722Y-15682439D01*
X6524156Y-15649759D01*
X6523680Y-15612865D01*
X6523287Y-15571458D01*
X6522970Y-15525242D01*
X6522721Y-15473921D01*
X6522532Y-15417197D01*
X6522396Y-15354773D01*
X6522305Y-15286353D01*
X6522251Y-15211639D01*
X6522228Y-15130336D01*
X6522228Y-15042145D01*
X6522242Y-14946770D01*
X6522264Y-14843915D01*
X6522286Y-14733281D01*
X6522301Y-14614573D01*
X6522303Y-14574760D01*
X6522298Y-14453401D01*
X6522283Y-14340212D01*
X6522265Y-14234895D01*
X6522252Y-14137155D01*
X6522251Y-14046694D01*
X6522270Y-13963215D01*
X6522316Y-13886421D01*
X6522343Y-13863560D01*
X9821610Y-13863560D01*
X9821610Y-15285960D01*
X19122243Y-15285960D01*
X19122243Y-14075227D01*
X21814643Y-14075227D01*
X21814643Y-15048893D01*
X22428477Y-15048893D01*
X22428477Y-14075227D01*
X21814643Y-14075227D01*
X19122243Y-14075227D01*
X19122243Y-13863560D01*
X9821610Y-13863560D01*
X6522343Y-13863560D01*
X6522398Y-13816016D01*
X6522522Y-13751702D01*
X6522695Y-13693182D01*
X6522927Y-13640161D01*
X6523224Y-13592340D01*
X6523593Y-13549423D01*
X6524042Y-13511114D01*
X6524579Y-13477114D01*
X6525212Y-13447128D01*
X6525947Y-13420858D01*
X6526792Y-13398007D01*
X6527756Y-13378279D01*
X6528845Y-13361377D01*
X6530067Y-13347004D01*
X6531429Y-13334862D01*
X6532940Y-13324656D01*
X6534606Y-13316087D01*
X6536435Y-13308860D01*
X6538435Y-13302677D01*
X6540613Y-13297242D01*
X6542977Y-13292257D01*
X6545534Y-13287426D01*
X6548292Y-13282451D01*
X6551258Y-13277037D01*
X6554440Y-13270885D01*
X6555475Y-13268777D01*
X6577775Y-13231008D01*
X6605968Y-13196687D01*
X6638666Y-13167075D01*
X6674483Y-13143435D01*
X6710879Y-13127409D01*
X6737690Y-13118486D01*
X22232422Y-13120610D01*
G36*
X22231422Y-9175210D02*
X22272258Y-9195482D01*
X22313756Y-9220659D01*
X22349709Y-9251940D01*
X22379640Y-9288648D01*
X22403071Y-9330104D01*
X22419522Y-9375628D01*
X22427504Y-9415788D01*
X22427883Y-9422941D01*
X22428243Y-9438142D01*
X22428584Y-9460972D01*
X22428906Y-9491011D01*
X22429209Y-9527841D01*
X22429492Y-9571044D01*
X22429757Y-9620200D01*
X22430002Y-9674889D01*
X22430229Y-9734695D01*
X22430436Y-9799197D01*
X22430624Y-9867976D01*
X22430794Y-9940615D01*
X22430943Y-10016693D01*
X22431074Y-10095792D01*
X22431186Y-10177494D01*
X22431278Y-10261378D01*
X22431352Y-10347027D01*
X22431406Y-10434021D01*
X22431441Y-10521942D01*
X22431456Y-10610371D01*
X22431453Y-10698888D01*
X22431430Y-10787075D01*
X22431388Y-10874514D01*
X22431327Y-10960784D01*
X22431246Y-11045468D01*
X22431147Y-11128145D01*
X22431028Y-11208399D01*
X22430889Y-11285809D01*
X22430732Y-11359957D01*
X22430555Y-11430423D01*
X22430359Y-11496789D01*
X22430143Y-11558637D01*
X22429908Y-11615547D01*
X22429654Y-11667099D01*
X22429381Y-11712877D01*
X22429088Y-11752459D01*
X22428776Y-11785429D01*
X22428444Y-11811366D01*
X22428093Y-11829851D01*
X22427723Y-11840467D01*
X22427560Y-11842491D01*
X22417517Y-11889162D01*
X22400295Y-11932982D01*
X22376603Y-11973123D01*
X22347150Y-12008760D01*
X22312646Y-12039064D01*
X22273800Y-12063207D01*
X22231320Y-12080363D01*
X22221210Y-12083208D01*
X22219678Y-12083475D01*
X22217098Y-12083735D01*
X22213359Y-12083989D01*
X22208347Y-12084235D01*
X22201950Y-12084474D01*
X22194055Y-12084706D01*
X22184549Y-12084931D01*
X22173319Y-12085150D01*
X22160252Y-12085362D01*
X22145236Y-12085568D01*
X22128157Y-12085767D01*
X22108903Y-12085960D01*
X22087362Y-12086146D01*
X22063419Y-12086326D01*
X22036963Y-12086501D01*
X22007880Y-12086669D01*
X21976058Y-12086831D01*
X21941384Y-12086988D01*
X21903745Y-12087138D01*
X21863028Y-12087284D01*
X21819120Y-12087423D01*
X21771909Y-12087558D01*
X21721281Y-12087686D01*
X21667125Y-12087810D01*
X21609326Y-12087928D01*
X21547773Y-12088042D01*
X21482352Y-12088150D01*
X21412950Y-12088253D01*
X21339455Y-12088352D01*
X21261754Y-12088446D01*
X21179735Y-12088535D01*
X21093283Y-12088620D01*
X21002286Y-12088700D01*
X20906633Y-12088776D01*
X20806208Y-12088848D01*
X20700901Y-12088915D01*
X20590598Y-12088979D01*
X20475186Y-12089038D01*
X20354552Y-12089094D01*
X20228584Y-12089145D01*
X20097169Y-12089193D01*
X19960193Y-12089237D01*
X19817545Y-12089278D01*
X19669110Y-12089316D01*
X19514777Y-12089350D01*
X19354433Y-12089380D01*
X19187965Y-12089408D01*
X19015259Y-12089432D01*
X18836203Y-12089454D01*
X18650685Y-12089472D01*
X18458591Y-12089488D01*
X18259808Y-12089501D01*
X18054224Y-12089511D01*
X17841726Y-12089519D01*
X17622202Y-12089524D01*
X17395537Y-12089527D01*
X17161620Y-12089528D01*
X16920337Y-12089527D01*
X16671576Y-12089523D01*
X16415224Y-12089518D01*
X16151168Y-12089510D01*
X15879296Y-12089501D01*
X15599494Y-12089490D01*
X15311649Y-12089477D01*
X15015649Y-12089463D01*
X14711381Y-12089447D01*
X14474549Y-12089435D01*
X14200132Y-12089418D01*
X13928781Y-12089397D01*
X13660609Y-12089372D01*
X13395732Y-12089343D01*
X13134262Y-12089311D01*
X12876316Y-12089275D01*
X12622006Y-12089236D01*
X12371448Y-12089193D01*
X12124755Y-12089146D01*
X11882043Y-12089096D01*
X11643425Y-12089043D01*
X11409016Y-12088987D01*
X11178930Y-12088928D01*
X10953281Y-12088865D01*
X10732185Y-12088799D01*
X10515755Y-12088731D01*
X10304105Y-12088659D01*
X10097350Y-12088584D01*
X9895605Y-12088507D01*
X9698983Y-12088427D01*
X9507600Y-12088344D01*
X9321569Y-12088258D01*
X9141005Y-12088170D01*
X8966021Y-12088080D01*
X8796734Y-12087987D01*
X8633256Y-12087891D01*
X8475702Y-12087794D01*
X8324187Y-12087694D01*
X8178825Y-12087591D01*
X8039730Y-12087487D01*
X7907017Y-12087380D01*
X7780800Y-12087272D01*
X7661193Y-12087161D01*
X7548311Y-12087049D01*
X7442269Y-12086935D01*
X7343179Y-12086819D01*
X7251158Y-12086701D01*
X7166318Y-12086582D01*
X7088775Y-12086461D01*
X7018643Y-12086338D01*
X6956036Y-12086214D01*
X6901069Y-12086089D01*
X6853856Y-12085962D01*
X6814511Y-12085834D01*
X6783149Y-12085705D01*
X6759884Y-12085575D01*
X6744830Y-12085443D01*
X6738102Y-12085311D01*
X6737743Y-12085280D01*
X6711506Y-12076952D01*
X6682840Y-12064326D01*
X6655316Y-12049074D01*
X6642841Y-12040804D01*
X6606721Y-12010120D01*
X6576717Y-11973700D01*
X6554522Y-11935343D01*
X6551261Y-11928899D01*
X6548218Y-11923287D01*
X6545388Y-11918210D01*
X6542760Y-11913371D01*
X6540330Y-11908473D01*
X6538088Y-11903219D01*
X6536027Y-11897312D01*
X6534140Y-11890456D01*
X6532419Y-11882354D01*
X6530856Y-11872708D01*
X6529444Y-11861222D01*
X6528176Y-11847599D01*
X6527044Y-11831543D01*
X6526040Y-11812755D01*
X6525156Y-11790940D01*
X6524386Y-11765800D01*
X6523722Y-11737039D01*
X6523156Y-11704359D01*
X6522680Y-11667465D01*
X6522287Y-11626058D01*
X6521970Y-11579842D01*
X6521721Y-11528521D01*
X6521532Y-11471797D01*
X6521396Y-11409373D01*
X6521305Y-11340953D01*
X6521251Y-11266239D01*
X6521228Y-11184936D01*
X6521228Y-11096745D01*
X6521242Y-11001370D01*
X6521264Y-10898515D01*
X6521286Y-10787881D01*
X6521301Y-10669173D01*
X6521303Y-10629360D01*
X6521298Y-10508001D01*
X6521283Y-10394812D01*
X6521265Y-10289496D01*
X6521252Y-10191755D01*
X6521251Y-10101294D01*
X6521270Y-10017815D01*
X6521316Y-9941021D01*
X6521343Y-9918160D01*
X9820610Y-9918160D01*
X9820610Y-11340560D01*
X19121243Y-11340560D01*
X19121243Y-10129827D01*
X21813643Y-10129827D01*
X21813643Y-11103493D01*
X22427477Y-11103493D01*
X22427477Y-10129827D01*
X21813643Y-10129827D01*
X19121243Y-10129827D01*
X19121243Y-9918160D01*
X9820610Y-9918160D01*
X6521343Y-9918160D01*
X6521398Y-9870616D01*
X6521522Y-9806302D01*
X6521695Y-9747782D01*
X6521927Y-9694761D01*
X6522224Y-9646940D01*
X6522593Y-9604023D01*
X6523042Y-9565714D01*
X6523579Y-9531714D01*
X6524212Y-9501728D01*
X6524947Y-9475458D01*
X6525792Y-9452607D01*
X6526756Y-9432879D01*
X6527845Y-9415977D01*
X6529067Y-9401604D01*
X6530429Y-9389462D01*
X6531940Y-9379256D01*
X6533606Y-9370687D01*
X6535435Y-9363460D01*
X6537435Y-9357277D01*
X6539613Y-9351842D01*
X6541977Y-9346857D01*
X6544534Y-9342026D01*
X6547292Y-9337051D01*
X6550258Y-9331637D01*
X6553440Y-9325485D01*
X6554475Y-9323377D01*
X6576775Y-9285608D01*
X6604968Y-9251287D01*
X6637666Y-9221675D01*
X6673483Y-9198035D01*
X6709879Y-9182009D01*
X6736690Y-9173086D01*
X22231422Y-9175210D01*
X22231422Y-9175210D01*
G37*
X22231422Y-9175210D02*
X22272258Y-9195482D01*
X22313756Y-9220659D01*
X22349709Y-9251940D01*
X22379640Y-9288648D01*
X22403071Y-9330104D01*
X22419522Y-9375628D01*
X22427504Y-9415788D01*
X22427883Y-9422941D01*
X22428243Y-9438142D01*
X22428584Y-9460972D01*
X22428906Y-9491011D01*
X22429209Y-9527841D01*
X22429492Y-9571044D01*
X22429757Y-9620200D01*
X22430002Y-9674889D01*
X22430229Y-9734695D01*
X22430436Y-9799197D01*
X22430624Y-9867976D01*
X22430794Y-9940615D01*
X22430943Y-10016693D01*
X22431074Y-10095792D01*
X22431186Y-10177494D01*
X22431278Y-10261378D01*
X22431352Y-10347027D01*
X22431406Y-10434021D01*
X22431441Y-10521942D01*
X22431456Y-10610371D01*
X22431453Y-10698888D01*
X22431430Y-10787075D01*
X22431388Y-10874514D01*
X22431327Y-10960784D01*
X22431246Y-11045468D01*
X22431147Y-11128145D01*
X22431028Y-11208399D01*
X22430889Y-11285809D01*
X22430732Y-11359957D01*
X22430555Y-11430423D01*
X22430359Y-11496789D01*
X22430143Y-11558637D01*
X22429908Y-11615547D01*
X22429654Y-11667099D01*
X22429381Y-11712877D01*
X22429088Y-11752459D01*
X22428776Y-11785429D01*
X22428444Y-11811366D01*
X22428093Y-11829851D01*
X22427723Y-11840467D01*
X22427560Y-11842491D01*
X22417517Y-11889162D01*
X22400295Y-11932982D01*
X22376603Y-11973123D01*
X22347150Y-12008760D01*
X22312646Y-12039064D01*
X22273800Y-12063207D01*
X22231320Y-12080363D01*
X22221210Y-12083208D01*
X22219678Y-12083475D01*
X22217098Y-12083735D01*
X22213359Y-12083989D01*
X22208347Y-12084235D01*
X22201950Y-12084474D01*
X22194055Y-12084706D01*
X22184549Y-12084931D01*
X22173319Y-12085150D01*
X22160252Y-12085362D01*
X22145236Y-12085568D01*
X22128157Y-12085767D01*
X22108903Y-12085960D01*
X22087362Y-12086146D01*
X22063419Y-12086326D01*
X22036963Y-12086501D01*
X22007880Y-12086669D01*
X21976058Y-12086831D01*
X21941384Y-12086988D01*
X21903745Y-12087138D01*
X21863028Y-12087284D01*
X21819120Y-12087423D01*
X21771909Y-12087558D01*
X21721281Y-12087686D01*
X21667125Y-12087810D01*
X21609326Y-12087928D01*
X21547773Y-12088042D01*
X21482352Y-12088150D01*
X21412950Y-12088253D01*
X21339455Y-12088352D01*
X21261754Y-12088446D01*
X21179735Y-12088535D01*
X21093283Y-12088620D01*
X21002286Y-12088700D01*
X20906633Y-12088776D01*
X20806208Y-12088848D01*
X20700901Y-12088915D01*
X20590598Y-12088979D01*
X20475186Y-12089038D01*
X20354552Y-12089094D01*
X20228584Y-12089145D01*
X20097169Y-12089193D01*
X19960193Y-12089237D01*
X19817545Y-12089278D01*
X19669110Y-12089316D01*
X19514777Y-12089350D01*
X19354433Y-12089380D01*
X19187965Y-12089408D01*
X19015259Y-12089432D01*
X18836203Y-12089454D01*
X18650685Y-12089472D01*
X18458591Y-12089488D01*
X18259808Y-12089501D01*
X18054224Y-12089511D01*
X17841726Y-12089519D01*
X17622202Y-12089524D01*
X17395537Y-12089527D01*
X17161620Y-12089528D01*
X16920337Y-12089527D01*
X16671576Y-12089523D01*
X16415224Y-12089518D01*
X16151168Y-12089510D01*
X15879296Y-12089501D01*
X15599494Y-12089490D01*
X15311649Y-12089477D01*
X15015649Y-12089463D01*
X14711381Y-12089447D01*
X14474549Y-12089435D01*
X14200132Y-12089418D01*
X13928781Y-12089397D01*
X13660609Y-12089372D01*
X13395732Y-12089343D01*
X13134262Y-12089311D01*
X12876316Y-12089275D01*
X12622006Y-12089236D01*
X12371448Y-12089193D01*
X12124755Y-12089146D01*
X11882043Y-12089096D01*
X11643425Y-12089043D01*
X11409016Y-12088987D01*
X11178930Y-12088928D01*
X10953281Y-12088865D01*
X10732185Y-12088799D01*
X10515755Y-12088731D01*
X10304105Y-12088659D01*
X10097350Y-12088584D01*
X9895605Y-12088507D01*
X9698983Y-12088427D01*
X9507600Y-12088344D01*
X9321569Y-12088258D01*
X9141005Y-12088170D01*
X8966021Y-12088080D01*
X8796734Y-12087987D01*
X8633256Y-12087891D01*
X8475702Y-12087794D01*
X8324187Y-12087694D01*
X8178825Y-12087591D01*
X8039730Y-12087487D01*
X7907017Y-12087380D01*
X7780800Y-12087272D01*
X7661193Y-12087161D01*
X7548311Y-12087049D01*
X7442269Y-12086935D01*
X7343179Y-12086819D01*
X7251158Y-12086701D01*
X7166318Y-12086582D01*
X7088775Y-12086461D01*
X7018643Y-12086338D01*
X6956036Y-12086214D01*
X6901069Y-12086089D01*
X6853856Y-12085962D01*
X6814511Y-12085834D01*
X6783149Y-12085705D01*
X6759884Y-12085575D01*
X6744830Y-12085443D01*
X6738102Y-12085311D01*
X6737743Y-12085280D01*
X6711506Y-12076952D01*
X6682840Y-12064326D01*
X6655316Y-12049074D01*
X6642841Y-12040804D01*
X6606721Y-12010120D01*
X6576717Y-11973700D01*
X6554522Y-11935343D01*
X6551261Y-11928899D01*
X6548218Y-11923287D01*
X6545388Y-11918210D01*
X6542760Y-11913371D01*
X6540330Y-11908473D01*
X6538088Y-11903219D01*
X6536027Y-11897312D01*
X6534140Y-11890456D01*
X6532419Y-11882354D01*
X6530856Y-11872708D01*
X6529444Y-11861222D01*
X6528176Y-11847599D01*
X6527044Y-11831543D01*
X6526040Y-11812755D01*
X6525156Y-11790940D01*
X6524386Y-11765800D01*
X6523722Y-11737039D01*
X6523156Y-11704359D01*
X6522680Y-11667465D01*
X6522287Y-11626058D01*
X6521970Y-11579842D01*
X6521721Y-11528521D01*
X6521532Y-11471797D01*
X6521396Y-11409373D01*
X6521305Y-11340953D01*
X6521251Y-11266239D01*
X6521228Y-11184936D01*
X6521228Y-11096745D01*
X6521242Y-11001370D01*
X6521264Y-10898515D01*
X6521286Y-10787881D01*
X6521301Y-10669173D01*
X6521303Y-10629360D01*
X6521298Y-10508001D01*
X6521283Y-10394812D01*
X6521265Y-10289496D01*
X6521252Y-10191755D01*
X6521251Y-10101294D01*
X6521270Y-10017815D01*
X6521316Y-9941021D01*
X6521343Y-9918160D01*
X9820610Y-9918160D01*
X9820610Y-11340560D01*
X19121243Y-11340560D01*
X19121243Y-10129827D01*
X21813643Y-10129827D01*
X21813643Y-11103493D01*
X22427477Y-11103493D01*
X22427477Y-10129827D01*
X21813643Y-10129827D01*
X19121243Y-10129827D01*
X19121243Y-9918160D01*
X9820610Y-9918160D01*
X6521343Y-9918160D01*
X6521398Y-9870616D01*
X6521522Y-9806302D01*
X6521695Y-9747782D01*
X6521927Y-9694761D01*
X6522224Y-9646940D01*
X6522593Y-9604023D01*
X6523042Y-9565714D01*
X6523579Y-9531714D01*
X6524212Y-9501728D01*
X6524947Y-9475458D01*
X6525792Y-9452607D01*
X6526756Y-9432879D01*
X6527845Y-9415977D01*
X6529067Y-9401604D01*
X6530429Y-9389462D01*
X6531940Y-9379256D01*
X6533606Y-9370687D01*
X6535435Y-9363460D01*
X6537435Y-9357277D01*
X6539613Y-9351842D01*
X6541977Y-9346857D01*
X6544534Y-9342026D01*
X6547292Y-9337051D01*
X6550258Y-9331637D01*
X6553440Y-9325485D01*
X6554475Y-9323377D01*
X6576775Y-9285608D01*
X6604968Y-9251287D01*
X6637666Y-9221675D01*
X6673483Y-9198035D01*
X6709879Y-9182009D01*
X6736690Y-9173086D01*
X22231422Y-9175210D01*
D11*
G04 #@! TO.C,LED1*
G36*
X10224084Y-14345400D02*
X10256084Y-14345400D01*
X10256084Y-14845400D01*
X10224084Y-14845400D01*
X10224084Y-14345400D01*
G37*
X10224084Y-14345400D02*
X10256084Y-14345400D01*
X10256084Y-14845400D01*
X10224084Y-14845400D01*
X10224084Y-14345400D01*
G36*
X10484084Y-14725400D02*
X10484084Y-14345400D01*
X10254084Y-14345400D01*
X10254084Y-14845400D01*
X10484084Y-14845400D01*
X10484084Y-14725400D01*
G37*
X10484084Y-14725400D02*
X10484084Y-14345400D01*
X10254084Y-14345400D01*
X10254084Y-14845400D01*
X10484084Y-14845400D01*
X10484084Y-14725400D01*
G36*
X10224084Y-14845400D02*
X9884084Y-14595400D01*
X10224084Y-14345400D01*
X10224084Y-14845400D01*
G37*
X10224084Y-14845400D02*
X9884084Y-14595400D01*
X10224084Y-14345400D01*
X10224084Y-14845400D01*
G36*
X10223084Y-10900000D02*
X9883084Y-10650000D01*
X10223084Y-10400000D01*
X10223084Y-10900000D01*
G37*
X10223084Y-10900000D02*
X9883084Y-10650000D01*
X10223084Y-10400000D01*
X10223084Y-10900000D01*
G36*
X10483084Y-10780000D02*
X10483084Y-10400000D01*
X10253084Y-10400000D01*
X10253084Y-10900000D01*
X10483084Y-10900000D01*
X10483084Y-10780000D01*
G37*
X10483084Y-10780000D02*
X10483084Y-10400000D01*
X10253084Y-10400000D01*
X10253084Y-10900000D01*
X10483084Y-10900000D01*
X10483084Y-10780000D01*
G36*
X10223084Y-10400000D02*
X10255084Y-10400000D01*
X10255084Y-10900000D01*
X10223084Y-10900000D01*
X10223084Y-10400000D01*
G37*
X10223084Y-10400000D02*
X10255084Y-10400000D01*
X10255084Y-10900000D01*
X10223084Y-10900000D01*
X10223084Y-10400000D01*
G04 #@! TD*
D12*
G04 #@! TO.C,DRAWING1*
X22425691Y-16496270D03*
X22425691Y-12551194D03*
X22424444Y-12624782D03*
X22424147Y-15197135D03*
X22424147Y-15114101D03*
X22424147Y-15031068D03*
X22424147Y-14083299D03*
X22424147Y-14000264D03*
X22424147Y-13917231D03*
X22424147Y-16281562D03*
X22424147Y-16426136D03*
X22424147Y-16353849D03*
X22424147Y-12695502D03*
X22424147Y-12840076D03*
X22424147Y-12767789D03*
G04 #@! TD*
G04 #@! TO.C,DRAWING1*
X22424691Y-12550870D03*
X22424691Y-8605794D03*
X22423444Y-8679382D03*
X22423147Y-11251735D03*
X22423147Y-11168701D03*
X22423147Y-11085668D03*
X22423147Y-10137899D03*
X22423147Y-10054864D03*
X22423147Y-9971831D03*
X22423147Y-12336162D03*
X22423147Y-12480736D03*
X22423147Y-12408449D03*
X22423147Y-8750102D03*
X22423147Y-8894676D03*
X22423147Y-8822389D03*
G04 #@! TD*
D11*
G04 #@! TO.C,LED2*
G36*
X11089850Y-14838520D02*
X11092277Y-14838880D01*
X11094657Y-14839476D01*
X11096967Y-14840303D01*
X11099185Y-14841352D01*
X11101289Y-14842613D01*
X11103260Y-14844075D01*
X11105078Y-14845722D01*
X11106725Y-14847540D01*
X11108187Y-14849511D01*
X11109448Y-14851615D01*
X11110497Y-14853833D01*
X11111324Y-14856143D01*
X11111920Y-14858523D01*
X11112280Y-14860950D01*
X11112400Y-14863400D01*
X11112400Y-14917400D01*
X11112280Y-14919850D01*
X11111920Y-14922277D01*
X11111324Y-14924657D01*
X11110497Y-14926967D01*
X11109448Y-14929185D01*
X11108187Y-14931289D01*
X11106725Y-14933260D01*
X11105078Y-14935078D01*
X11103260Y-14936725D01*
X11101289Y-14938187D01*
X11099185Y-14939448D01*
X11096967Y-14940497D01*
X11094657Y-14941323D01*
X11092277Y-14941920D01*
X11089850Y-14942280D01*
X11087400Y-14942400D01*
X11037400Y-14942400D01*
X11034950Y-14942280D01*
X11032523Y-14941920D01*
X11030143Y-14941323D01*
X11027833Y-14940497D01*
X11025615Y-14939448D01*
X11023511Y-14938187D01*
X11021540Y-14936725D01*
X11019722Y-14935078D01*
X11018075Y-14933260D01*
X11016613Y-14931289D01*
X11015352Y-14929185D01*
X11014303Y-14926967D01*
X11013477Y-14924657D01*
X11012880Y-14922277D01*
X11012520Y-14919850D01*
X11012400Y-14917400D01*
X11012400Y-14863400D01*
X11012520Y-14860950D01*
X11012880Y-14858523D01*
X11013477Y-14856143D01*
X11014303Y-14853833D01*
X11015352Y-14851615D01*
X11016613Y-14849511D01*
X11018075Y-14847540D01*
X11019722Y-14845722D01*
X11021540Y-14844075D01*
X11023511Y-14842613D01*
X11025615Y-14841352D01*
X11027833Y-14840303D01*
X11030143Y-14839476D01*
X11032523Y-14838880D01*
X11034950Y-14838520D01*
X11037400Y-14838400D01*
X11087400Y-14838400D01*
X11089850Y-14838520D01*
X11089850Y-14838520D01*
G37*
D13*
X11062400Y-14890400D03*
D11*
G36*
X10993850Y-14838520D02*
X10996277Y-14838880D01*
X10998657Y-14839476D01*
X11000967Y-14840303D01*
X11003185Y-14841352D01*
X11005289Y-14842613D01*
X11007260Y-14844075D01*
X11009078Y-14845722D01*
X11010725Y-14847540D01*
X11012187Y-14849511D01*
X11013448Y-14851615D01*
X11014497Y-14853833D01*
X11015324Y-14856143D01*
X11015920Y-14858523D01*
X11016280Y-14860950D01*
X11016400Y-14863400D01*
X11016400Y-14917400D01*
X11016280Y-14919850D01*
X11015920Y-14922277D01*
X11015324Y-14924657D01*
X11014497Y-14926967D01*
X11013448Y-14929185D01*
X11012187Y-14931289D01*
X11010725Y-14933260D01*
X11009078Y-14935078D01*
X11007260Y-14936725D01*
X11005289Y-14938187D01*
X11003185Y-14939448D01*
X11000967Y-14940497D01*
X10998657Y-14941323D01*
X10996277Y-14941920D01*
X10993850Y-14942280D01*
X10991400Y-14942400D01*
X10941400Y-14942400D01*
X10938950Y-14942280D01*
X10936523Y-14941920D01*
X10934143Y-14941323D01*
X10931833Y-14940497D01*
X10929615Y-14939448D01*
X10927511Y-14938187D01*
X10925540Y-14936725D01*
X10923722Y-14935078D01*
X10922075Y-14933260D01*
X10920613Y-14931289D01*
X10919352Y-14929185D01*
X10918303Y-14926967D01*
X10917477Y-14924657D01*
X10916880Y-14922277D01*
X10916520Y-14919850D01*
X10916400Y-14917400D01*
X10916400Y-14863400D01*
X10916520Y-14860950D01*
X10916880Y-14858523D01*
X10917477Y-14856143D01*
X10918303Y-14853833D01*
X10919352Y-14851615D01*
X10920613Y-14849511D01*
X10922075Y-14847540D01*
X10923722Y-14845722D01*
X10925540Y-14844075D01*
X10927511Y-14842613D01*
X10929615Y-14841352D01*
X10931833Y-14840303D01*
X10934143Y-14839476D01*
X10936523Y-14838880D01*
X10938950Y-14838520D01*
X10941400Y-14838400D01*
X10991400Y-14838400D01*
X10993850Y-14838520D01*
X10993850Y-14838520D01*
G37*
D13*
X10966400Y-14890400D03*
G04 #@! TD*
D11*
G04 #@! TO.C,LED3*
G36*
X11083149Y-14635603D02*
X11086244Y-14636062D01*
X11089278Y-14636822D01*
X11092223Y-14637876D01*
X11095051Y-14639214D01*
X11097734Y-14640822D01*
X11100246Y-14642685D01*
X11102564Y-14644786D01*
X11104665Y-14647104D01*
X11106528Y-14649616D01*
X11108136Y-14652299D01*
X11109474Y-14655127D01*
X11110528Y-14658072D01*
X11111288Y-14661106D01*
X11111747Y-14664201D01*
X11111900Y-14667325D01*
X11111900Y-14738575D01*
X11111747Y-14741699D01*
X11111288Y-14744793D01*
X11110528Y-14747828D01*
X11109474Y-14750773D01*
X11108136Y-14753601D01*
X11106528Y-14756284D01*
X11104665Y-14758796D01*
X11102564Y-14761114D01*
X11100246Y-14763215D01*
X11097734Y-14765078D01*
X11095051Y-14766686D01*
X11092223Y-14768024D01*
X11089278Y-14769077D01*
X11086244Y-14769837D01*
X11083149Y-14770296D01*
X11080025Y-14770450D01*
X11016275Y-14770450D01*
X11013151Y-14770296D01*
X11010057Y-14769837D01*
X11007022Y-14769077D01*
X11004077Y-14768024D01*
X11001249Y-14766686D01*
X10998566Y-14765078D01*
X10996054Y-14763215D01*
X10993736Y-14761114D01*
X10991635Y-14758796D01*
X10989772Y-14756284D01*
X10988164Y-14753601D01*
X10986826Y-14750773D01*
X10985773Y-14747828D01*
X10985013Y-14744793D01*
X10984554Y-14741699D01*
X10984400Y-14738575D01*
X10984400Y-14667325D01*
X10984554Y-14664201D01*
X10985013Y-14661106D01*
X10985773Y-14658072D01*
X10986826Y-14655127D01*
X10988164Y-14652299D01*
X10989772Y-14649616D01*
X10991635Y-14647104D01*
X10993736Y-14644786D01*
X10996054Y-14642685D01*
X10998566Y-14640822D01*
X11001249Y-14639214D01*
X11004077Y-14637876D01*
X11007022Y-14636822D01*
X11010057Y-14636062D01*
X11013151Y-14635603D01*
X11016275Y-14635450D01*
X11080025Y-14635450D01*
X11083149Y-14635603D01*
X11083149Y-14635603D01*
G37*
D14*
X11048150Y-14702950D03*
D11*
G36*
X10925649Y-14635603D02*
X10928744Y-14636062D01*
X10931778Y-14636822D01*
X10934723Y-14637876D01*
X10937551Y-14639214D01*
X10940234Y-14640822D01*
X10942746Y-14642685D01*
X10945064Y-14644786D01*
X10947165Y-14647104D01*
X10949028Y-14649616D01*
X10950636Y-14652299D01*
X10951974Y-14655127D01*
X10953028Y-14658072D01*
X10953788Y-14661106D01*
X10954247Y-14664201D01*
X10954400Y-14667325D01*
X10954400Y-14738575D01*
X10954247Y-14741699D01*
X10953788Y-14744793D01*
X10953028Y-14747828D01*
X10951974Y-14750773D01*
X10950636Y-14753601D01*
X10949028Y-14756284D01*
X10947165Y-14758796D01*
X10945064Y-14761114D01*
X10942746Y-14763215D01*
X10940234Y-14765078D01*
X10937551Y-14766686D01*
X10934723Y-14768024D01*
X10931778Y-14769077D01*
X10928744Y-14769837D01*
X10925649Y-14770296D01*
X10922525Y-14770450D01*
X10858775Y-14770450D01*
X10855651Y-14770296D01*
X10852557Y-14769837D01*
X10849522Y-14769077D01*
X10846577Y-14768024D01*
X10843749Y-14766686D01*
X10841066Y-14765078D01*
X10838554Y-14763215D01*
X10836236Y-14761114D01*
X10834135Y-14758796D01*
X10832272Y-14756284D01*
X10830664Y-14753601D01*
X10829326Y-14750773D01*
X10828273Y-14747828D01*
X10827513Y-14744793D01*
X10827054Y-14741699D01*
X10826900Y-14738575D01*
X10826900Y-14667325D01*
X10827054Y-14664201D01*
X10827513Y-14661106D01*
X10828273Y-14658072D01*
X10829326Y-14655127D01*
X10830664Y-14652299D01*
X10832272Y-14649616D01*
X10834135Y-14647104D01*
X10836236Y-14644786D01*
X10838554Y-14642685D01*
X10841066Y-14640822D01*
X10843749Y-14639214D01*
X10846577Y-14637876D01*
X10849522Y-14636822D01*
X10852557Y-14636062D01*
X10855651Y-14635603D01*
X10858775Y-14635450D01*
X10922525Y-14635450D01*
X10925649Y-14635603D01*
X10925649Y-14635603D01*
G37*
D14*
X10890650Y-14702950D03*
G04 #@! TD*
D11*
G04 #@! TO.C,LED4*
G36*
X11051507Y-14405962D02*
X11054778Y-14406447D01*
X11057986Y-14407251D01*
X11061099Y-14408365D01*
X11064088Y-14409779D01*
X11066925Y-14411479D01*
X11069581Y-14413448D01*
X11072031Y-14415669D01*
X11074252Y-14418119D01*
X11076221Y-14420775D01*
X11077921Y-14423612D01*
X11079335Y-14426601D01*
X11080449Y-14429714D01*
X11081253Y-14432922D01*
X11081738Y-14436193D01*
X11081900Y-14439496D01*
X11081900Y-14552104D01*
X11081738Y-14555407D01*
X11081253Y-14558678D01*
X11080449Y-14561886D01*
X11079335Y-14564999D01*
X11077921Y-14567988D01*
X11076221Y-14570825D01*
X11074252Y-14573481D01*
X11072031Y-14575931D01*
X11069581Y-14578151D01*
X11066925Y-14580121D01*
X11064088Y-14581821D01*
X11061099Y-14583235D01*
X11057986Y-14584349D01*
X11054778Y-14585152D01*
X11051507Y-14585638D01*
X11048204Y-14585800D01*
X10960596Y-14585800D01*
X10957293Y-14585638D01*
X10954022Y-14585152D01*
X10950814Y-14584349D01*
X10947701Y-14583235D01*
X10944712Y-14581821D01*
X10941875Y-14580121D01*
X10939219Y-14578151D01*
X10936769Y-14575931D01*
X10934549Y-14573481D01*
X10932579Y-14570825D01*
X10930879Y-14567988D01*
X10929465Y-14564999D01*
X10928351Y-14561886D01*
X10927548Y-14558678D01*
X10927062Y-14555407D01*
X10926900Y-14552104D01*
X10926900Y-14439496D01*
X10927062Y-14436193D01*
X10927548Y-14432922D01*
X10928351Y-14429714D01*
X10929465Y-14426601D01*
X10930879Y-14423612D01*
X10932579Y-14420775D01*
X10934549Y-14418119D01*
X10936769Y-14415669D01*
X10939219Y-14413448D01*
X10941875Y-14411479D01*
X10944712Y-14409779D01*
X10947701Y-14408365D01*
X10950814Y-14407251D01*
X10954022Y-14406447D01*
X10957293Y-14405962D01*
X10960596Y-14405800D01*
X11048204Y-14405800D01*
X11051507Y-14405962D01*
X11051507Y-14405962D01*
G37*
D15*
X11004400Y-14495800D03*
D11*
G36*
X10881507Y-14405962D02*
X10884778Y-14406447D01*
X10887986Y-14407251D01*
X10891099Y-14408365D01*
X10894088Y-14409779D01*
X10896925Y-14411479D01*
X10899581Y-14413448D01*
X10902031Y-14415669D01*
X10904252Y-14418119D01*
X10906221Y-14420775D01*
X10907921Y-14423612D01*
X10909335Y-14426601D01*
X10910449Y-14429714D01*
X10911253Y-14432922D01*
X10911738Y-14436193D01*
X10911900Y-14439496D01*
X10911900Y-14552104D01*
X10911738Y-14555407D01*
X10911253Y-14558678D01*
X10910449Y-14561886D01*
X10909335Y-14564999D01*
X10907921Y-14567988D01*
X10906221Y-14570825D01*
X10904252Y-14573481D01*
X10902031Y-14575931D01*
X10899581Y-14578151D01*
X10896925Y-14580121D01*
X10894088Y-14581821D01*
X10891099Y-14583235D01*
X10887986Y-14584349D01*
X10884778Y-14585152D01*
X10881507Y-14585638D01*
X10878204Y-14585800D01*
X10790596Y-14585800D01*
X10787293Y-14585638D01*
X10784022Y-14585152D01*
X10780814Y-14584349D01*
X10777701Y-14583235D01*
X10774712Y-14581821D01*
X10771875Y-14580121D01*
X10769219Y-14578151D01*
X10766769Y-14575931D01*
X10764549Y-14573481D01*
X10762579Y-14570825D01*
X10760879Y-14567988D01*
X10759465Y-14564999D01*
X10758351Y-14561886D01*
X10757548Y-14558678D01*
X10757062Y-14555407D01*
X10756900Y-14552104D01*
X10756900Y-14439496D01*
X10757062Y-14436193D01*
X10757548Y-14432922D01*
X10758351Y-14429714D01*
X10759465Y-14426601D01*
X10760879Y-14423612D01*
X10762579Y-14420775D01*
X10764549Y-14418119D01*
X10766769Y-14415669D01*
X10769219Y-14413448D01*
X10771875Y-14411479D01*
X10774712Y-14409779D01*
X10777701Y-14408365D01*
X10780814Y-14407251D01*
X10784022Y-14406447D01*
X10787293Y-14405962D01*
X10790596Y-14405800D01*
X10878204Y-14405800D01*
X10881507Y-14405962D01*
X10881507Y-14405962D01*
G37*
D15*
X10834400Y-14495800D03*
G04 #@! TD*
D11*
G04 #@! TO.C,LED5*
G36*
X11042135Y-14134709D02*
X11045338Y-14135184D01*
X11048479Y-14135971D01*
X11051529Y-14137062D01*
X11054456Y-14138447D01*
X11057234Y-14140111D01*
X11059835Y-14142041D01*
X11062235Y-14144215D01*
X11064409Y-14146615D01*
X11066339Y-14149216D01*
X11068003Y-14151994D01*
X11069388Y-14154921D01*
X11070479Y-14157971D01*
X11071266Y-14161112D01*
X11071741Y-14164315D01*
X11071900Y-14167550D01*
X11071900Y-14316550D01*
X11071741Y-14319785D01*
X11071266Y-14322988D01*
X11070479Y-14326129D01*
X11069388Y-14329179D01*
X11068003Y-14332106D01*
X11066339Y-14334884D01*
X11064409Y-14337485D01*
X11062235Y-14339884D01*
X11059835Y-14342059D01*
X11057234Y-14343988D01*
X11054456Y-14345653D01*
X11051529Y-14347038D01*
X11048479Y-14348129D01*
X11045338Y-14348916D01*
X11042135Y-14349391D01*
X11038900Y-14349550D01*
X10939900Y-14349550D01*
X10936665Y-14349391D01*
X10933462Y-14348916D01*
X10930321Y-14348129D01*
X10927271Y-14347038D01*
X10924344Y-14345653D01*
X10921566Y-14343988D01*
X10918965Y-14342059D01*
X10916566Y-14339884D01*
X10914391Y-14337485D01*
X10912462Y-14334884D01*
X10910797Y-14332106D01*
X10909412Y-14329179D01*
X10908321Y-14326129D01*
X10907534Y-14322988D01*
X10907059Y-14319785D01*
X10906900Y-14316550D01*
X10906900Y-14167550D01*
X10907059Y-14164315D01*
X10907534Y-14161112D01*
X10908321Y-14157971D01*
X10909412Y-14154921D01*
X10910797Y-14151994D01*
X10912462Y-14149216D01*
X10914391Y-14146615D01*
X10916566Y-14144215D01*
X10918965Y-14142041D01*
X10921566Y-14140111D01*
X10924344Y-14138447D01*
X10927271Y-14137062D01*
X10930321Y-14135971D01*
X10933462Y-14135184D01*
X10936665Y-14134709D01*
X10939900Y-14134550D01*
X11038900Y-14134550D01*
X11042135Y-14134709D01*
X11042135Y-14134709D01*
G37*
D16*
X10989400Y-14242050D03*
D11*
G36*
X10762135Y-14134709D02*
X10765338Y-14135184D01*
X10768479Y-14135971D01*
X10771529Y-14137062D01*
X10774456Y-14138447D01*
X10777234Y-14140111D01*
X10779835Y-14142041D01*
X10782235Y-14144215D01*
X10784409Y-14146615D01*
X10786339Y-14149216D01*
X10788003Y-14151994D01*
X10789388Y-14154921D01*
X10790479Y-14157971D01*
X10791266Y-14161112D01*
X10791741Y-14164315D01*
X10791900Y-14167550D01*
X10791900Y-14316550D01*
X10791741Y-14319785D01*
X10791266Y-14322988D01*
X10790479Y-14326129D01*
X10789388Y-14329179D01*
X10788003Y-14332106D01*
X10786339Y-14334884D01*
X10784409Y-14337485D01*
X10782235Y-14339884D01*
X10779835Y-14342059D01*
X10777234Y-14343988D01*
X10774456Y-14345653D01*
X10771529Y-14347038D01*
X10768479Y-14348129D01*
X10765338Y-14348916D01*
X10762135Y-14349391D01*
X10758900Y-14349550D01*
X10659900Y-14349550D01*
X10656665Y-14349391D01*
X10653462Y-14348916D01*
X10650321Y-14348129D01*
X10647271Y-14347038D01*
X10644344Y-14345653D01*
X10641566Y-14343988D01*
X10638965Y-14342059D01*
X10636566Y-14339884D01*
X10634391Y-14337485D01*
X10632462Y-14334884D01*
X10630797Y-14332106D01*
X10629412Y-14329179D01*
X10628321Y-14326129D01*
X10627534Y-14322988D01*
X10627059Y-14319785D01*
X10626900Y-14316550D01*
X10626900Y-14167550D01*
X10627059Y-14164315D01*
X10627534Y-14161112D01*
X10628321Y-14157971D01*
X10629412Y-14154921D01*
X10630797Y-14151994D01*
X10632462Y-14149216D01*
X10634391Y-14146615D01*
X10636566Y-14144215D01*
X10638965Y-14142041D01*
X10641566Y-14140111D01*
X10644344Y-14138447D01*
X10647271Y-14137062D01*
X10650321Y-14135971D01*
X10653462Y-14135184D01*
X10656665Y-14134709D01*
X10659900Y-14134550D01*
X10758900Y-14134550D01*
X10762135Y-14134709D01*
X10762135Y-14134709D01*
G37*
D16*
X10709400Y-14242050D03*
G04 #@! TD*
D17*
G04 #@! TO.C,D3*
X13128000Y-14864400D03*
X12448000Y-14864400D03*
G04 #@! TD*
D18*
G04 #@! TO.C,SW5*
X18466100Y-14679800D03*
X18891100Y-14679800D03*
X18466100Y-15029800D03*
X18891100Y-15029800D03*
D19*
X18431100Y-15029800D03*
X18926100Y-14679800D03*
X18431100Y-14679800D03*
X18926100Y-15029800D03*
G04 #@! TD*
D20*
G04 #@! TO.C,SW8*
X17342900Y-14881200D03*
X17342900Y-14181200D03*
G04 #@! TD*
D21*
G04 #@! TO.C,D5*
X13732800Y-14945600D03*
X13522800Y-14945600D03*
G04 #@! TD*
D22*
G04 #@! TO.C,D2*
X14046000Y-14336000D03*
X13616000Y-14336000D03*
G04 #@! TD*
D23*
G04 #@! TO.C,R2*
X11665200Y-14890400D03*
X11755200Y-14890400D03*
G04 #@! TD*
D24*
G04 #@! TO.C,D6*
X13583200Y-15148800D03*
X13723200Y-15148800D03*
G04 #@! TD*
D25*
G04 #@! TO.C,R5*
X11700200Y-14241800D03*
X11990200Y-14241800D03*
G04 #@! TD*
D11*
G04 #@! TO.C,R6*
G36*
X11691415Y-15170484D02*
X11693114Y-15170736D01*
X11694780Y-15171153D01*
X11696397Y-15171732D01*
X11697949Y-15172466D01*
X11699422Y-15173349D01*
X11700802Y-15174372D01*
X11702074Y-15175526D01*
X11703228Y-15176798D01*
X11704251Y-15178177D01*
X11705134Y-15179651D01*
X11705868Y-15181203D01*
X11706446Y-15182820D01*
X11706864Y-15184486D01*
X11707116Y-15186185D01*
X11707200Y-15187900D01*
X11707200Y-15222900D01*
X11707116Y-15224615D01*
X11706864Y-15226314D01*
X11706446Y-15227980D01*
X11705868Y-15229597D01*
X11705134Y-15231149D01*
X11704251Y-15232622D01*
X11703228Y-15234002D01*
X11702074Y-15235274D01*
X11700802Y-15236428D01*
X11699422Y-15237451D01*
X11697949Y-15238334D01*
X11696397Y-15239068D01*
X11694780Y-15239646D01*
X11693114Y-15240064D01*
X11691415Y-15240316D01*
X11689700Y-15240400D01*
X11642700Y-15240400D01*
X11640985Y-15240316D01*
X11639286Y-15240064D01*
X11637620Y-15239646D01*
X11636003Y-15239068D01*
X11634451Y-15238334D01*
X11632977Y-15237451D01*
X11631598Y-15236428D01*
X11630326Y-15235274D01*
X11629172Y-15234002D01*
X11628149Y-15232622D01*
X11627266Y-15231149D01*
X11626532Y-15229597D01*
X11625953Y-15227980D01*
X11625536Y-15226314D01*
X11625284Y-15224615D01*
X11625200Y-15222900D01*
X11625200Y-15187900D01*
X11625284Y-15186185D01*
X11625536Y-15184486D01*
X11625953Y-15182820D01*
X11626532Y-15181203D01*
X11627266Y-15179651D01*
X11628149Y-15178177D01*
X11629172Y-15176798D01*
X11630326Y-15175526D01*
X11631598Y-15174372D01*
X11632977Y-15173349D01*
X11634451Y-15172466D01*
X11636003Y-15171732D01*
X11637620Y-15171153D01*
X11639286Y-15170736D01*
X11640985Y-15170484D01*
X11642700Y-15170400D01*
X11689700Y-15170400D01*
X11691415Y-15170484D01*
X11691415Y-15170484D01*
G37*
D26*
X11666200Y-15205400D03*
D11*
G36*
X11739415Y-15170484D02*
X11741114Y-15170736D01*
X11742780Y-15171153D01*
X11744397Y-15171732D01*
X11745949Y-15172466D01*
X11747422Y-15173349D01*
X11748802Y-15174372D01*
X11750074Y-15175526D01*
X11751228Y-15176798D01*
X11752251Y-15178177D01*
X11753134Y-15179651D01*
X11753868Y-15181203D01*
X11754446Y-15182820D01*
X11754864Y-15184486D01*
X11755116Y-15186185D01*
X11755200Y-15187900D01*
X11755200Y-15222900D01*
X11755116Y-15224615D01*
X11754864Y-15226314D01*
X11754446Y-15227980D01*
X11753868Y-15229597D01*
X11753134Y-15231149D01*
X11752251Y-15232622D01*
X11751228Y-15234002D01*
X11750074Y-15235274D01*
X11748802Y-15236428D01*
X11747422Y-15237451D01*
X11745949Y-15238334D01*
X11744397Y-15239068D01*
X11742780Y-15239646D01*
X11741114Y-15240064D01*
X11739415Y-15240316D01*
X11737700Y-15240400D01*
X11690700Y-15240400D01*
X11688985Y-15240316D01*
X11687286Y-15240064D01*
X11685620Y-15239646D01*
X11684003Y-15239068D01*
X11682451Y-15238334D01*
X11680977Y-15237451D01*
X11679598Y-15236428D01*
X11678326Y-15235274D01*
X11677172Y-15234002D01*
X11676149Y-15232622D01*
X11675266Y-15231149D01*
X11674532Y-15229597D01*
X11673953Y-15227980D01*
X11673536Y-15226314D01*
X11673284Y-15224615D01*
X11673200Y-15222900D01*
X11673200Y-15187900D01*
X11673284Y-15186185D01*
X11673536Y-15184486D01*
X11673953Y-15182820D01*
X11674532Y-15181203D01*
X11675266Y-15179651D01*
X11676149Y-15178177D01*
X11677172Y-15176798D01*
X11678326Y-15175526D01*
X11679598Y-15174372D01*
X11680977Y-15173349D01*
X11682451Y-15172466D01*
X11684003Y-15171732D01*
X11685620Y-15171153D01*
X11687286Y-15170736D01*
X11688985Y-15170484D01*
X11690700Y-15170400D01*
X11737700Y-15170400D01*
X11739415Y-15170484D01*
X11739415Y-15170484D01*
G37*
D26*
X11714200Y-15205400D03*
G04 #@! TD*
D27*
G04 #@! TO.C,SW6*
X15908500Y-14986200D03*
X16358500Y-14076200D03*
X15908500Y-14076200D03*
X16358500Y-14986200D03*
G04 #@! TD*
D13*
G04 #@! TO.C,LED1*
X10324000Y-14595400D03*
D11*
G36*
X10319586Y-14665243D02*
X10314703Y-14664762D01*
X10312762Y-14664475D01*
X10307950Y-14663517D01*
X10306045Y-14663040D01*
X10301350Y-14661616D01*
X10299502Y-14660955D01*
X10294969Y-14659077D01*
X10293194Y-14658238D01*
X10288867Y-14655925D01*
X10287184Y-14654916D01*
X10283104Y-14652190D01*
X10281527Y-14651020D01*
X10277734Y-14647908D01*
X10276280Y-14646590D01*
X10272810Y-14643120D01*
X10271492Y-14641666D01*
X10268380Y-14637873D01*
X10267210Y-14636296D01*
X10264484Y-14632216D01*
X10263475Y-14630533D01*
X10261162Y-14626206D01*
X10260323Y-14624431D01*
X10258445Y-14619898D01*
X10257784Y-14618050D01*
X10256360Y-14613355D01*
X10255883Y-14611450D01*
X10254925Y-14606638D01*
X10254638Y-14604697D01*
X10254157Y-14599814D01*
X10254060Y-14597853D01*
X10254060Y-14592947D01*
X10254157Y-14590986D01*
X10254638Y-14586103D01*
X10254925Y-14584162D01*
X10255883Y-14579349D01*
X10256360Y-14577445D01*
X10257784Y-14572750D01*
X10258445Y-14570902D01*
X10260323Y-14566369D01*
X10261162Y-14564594D01*
X10263475Y-14560267D01*
X10264484Y-14558584D01*
X10267210Y-14554504D01*
X10268380Y-14552927D01*
X10271492Y-14549134D01*
X10272810Y-14547680D01*
X10276280Y-14544210D01*
X10277734Y-14542892D01*
X10281527Y-14539779D01*
X10283104Y-14538610D01*
X10287184Y-14535884D01*
X10288867Y-14534875D01*
X10293194Y-14532562D01*
X10294969Y-14531723D01*
X10299502Y-14529845D01*
X10301350Y-14529184D01*
X10306045Y-14527760D01*
X10307950Y-14527283D01*
X10312762Y-14526325D01*
X10314703Y-14526037D01*
X10319586Y-14525556D01*
X10321547Y-14525460D01*
X10326453Y-14525460D01*
X10328414Y-14525556D01*
X10333297Y-14526037D01*
X10335238Y-14526325D01*
X10340051Y-14527283D01*
X10341955Y-14527760D01*
X10346650Y-14529184D01*
X10348498Y-14529845D01*
X10353031Y-14531723D01*
X10354806Y-14532562D01*
X10359133Y-14534875D01*
X10360816Y-14535884D01*
X10364896Y-14538610D01*
X10366473Y-14539779D01*
X10370266Y-14542892D01*
X10371720Y-14544210D01*
X10375190Y-14547680D01*
X10376508Y-14549134D01*
X10379621Y-14552927D01*
X10380790Y-14554504D01*
X10383516Y-14558584D01*
X10384525Y-14560267D01*
X10386838Y-14564594D01*
X10387677Y-14566369D01*
X10389555Y-14570902D01*
X10390216Y-14572750D01*
X10391640Y-14577445D01*
X10392117Y-14579349D01*
X10393075Y-14584162D01*
X10393363Y-14586103D01*
X10393844Y-14590986D01*
X10393940Y-14592947D01*
X10393940Y-14597853D01*
X10393844Y-14599814D01*
X10393363Y-14604697D01*
X10393075Y-14606638D01*
X10392117Y-14611450D01*
X10391640Y-14613355D01*
X10390216Y-14618050D01*
X10389555Y-14619898D01*
X10387677Y-14624431D01*
X10386838Y-14626206D01*
X10384525Y-14630533D01*
X10383516Y-14632216D01*
X10380790Y-14636296D01*
X10379621Y-14637873D01*
X10376508Y-14641666D01*
X10375190Y-14643120D01*
X10371720Y-14646590D01*
X10370266Y-14647908D01*
X10366473Y-14651020D01*
X10364896Y-14652190D01*
X10360816Y-14654916D01*
X10359133Y-14655925D01*
X10354806Y-14658238D01*
X10353031Y-14659077D01*
X10348498Y-14660955D01*
X10346650Y-14661616D01*
X10341955Y-14663040D01*
X10340051Y-14663517D01*
X10335238Y-14664475D01*
X10333297Y-14664762D01*
X10328414Y-14665243D01*
X10326453Y-14665340D01*
X10321547Y-14665340D01*
X10319586Y-14665243D01*
X10319586Y-14665243D01*
G37*
D13*
X10154074Y-14595400D03*
D11*
G36*
X10100172Y-14665016D02*
X10096420Y-14663878D01*
X10092963Y-14662029D01*
X10089932Y-14659542D01*
X10087445Y-14656511D01*
X10085596Y-14653054D01*
X10084458Y-14649302D01*
X10084074Y-14645400D01*
X10084074Y-14545400D01*
X10084458Y-14541498D01*
X10085596Y-14537746D01*
X10087445Y-14534289D01*
X10089932Y-14531258D01*
X10092963Y-14528771D01*
X10096420Y-14526922D01*
X10100172Y-14525784D01*
X10104074Y-14525400D01*
X10204074Y-14525400D01*
X10207976Y-14525784D01*
X10211728Y-14526922D01*
X10215185Y-14528771D01*
X10218216Y-14531258D01*
X10220703Y-14534289D01*
X10222552Y-14537746D01*
X10223690Y-14541498D01*
X10224074Y-14545400D01*
X10224074Y-14645400D01*
X10223690Y-14649302D01*
X10222552Y-14653054D01*
X10220703Y-14656511D01*
X10218216Y-14659542D01*
X10215185Y-14662029D01*
X10211728Y-14663878D01*
X10207976Y-14665016D01*
X10204074Y-14665400D01*
X10104074Y-14665400D01*
X10100172Y-14665016D01*
X10100172Y-14665016D01*
G37*
G04 #@! TD*
D28*
G04 #@! TO.C,SW2*
X16825800Y-14261200D03*
X16825800Y-14801200D03*
G04 #@! TD*
D29*
G04 #@! TO.C,SW3*
X17737400Y-14881600D03*
X18077400Y-14881600D03*
G04 #@! TD*
D30*
G04 #@! TO.C,R4*
X11690200Y-14495800D03*
X11880200Y-14495800D03*
G04 #@! TD*
D11*
G04 #@! TO.C,LED6*
G36*
X11101360Y-15015496D02*
X11103302Y-15015784D01*
X11105206Y-15016261D01*
X11107054Y-15016922D01*
X11108828Y-15017762D01*
X11110511Y-15018771D01*
X11112088Y-15019940D01*
X11113542Y-15021258D01*
X11114860Y-15022712D01*
X11116029Y-15024289D01*
X11117038Y-15025972D01*
X11117878Y-15027746D01*
X11118539Y-15029594D01*
X11119016Y-15031498D01*
X11119304Y-15033440D01*
X11119400Y-15035400D01*
X11119400Y-15075400D01*
X11119304Y-15077360D01*
X11119016Y-15079302D01*
X11118539Y-15081206D01*
X11117878Y-15083054D01*
X11117038Y-15084828D01*
X11116029Y-15086511D01*
X11114860Y-15088088D01*
X11113542Y-15089542D01*
X11112088Y-15090860D01*
X11110511Y-15092029D01*
X11108828Y-15093038D01*
X11107054Y-15093878D01*
X11105206Y-15094539D01*
X11103302Y-15095016D01*
X11101360Y-15095304D01*
X11099400Y-15095400D01*
X11050400Y-15095400D01*
X11048440Y-15095304D01*
X11046498Y-15095016D01*
X11044594Y-15094539D01*
X11042746Y-15093878D01*
X11040972Y-15093038D01*
X11039289Y-15092029D01*
X11037712Y-15090860D01*
X11036258Y-15089542D01*
X11034940Y-15088088D01*
X11033771Y-15086511D01*
X11032762Y-15084828D01*
X11031922Y-15083054D01*
X11031261Y-15081206D01*
X11030784Y-15079302D01*
X11030496Y-15077360D01*
X11030400Y-15075400D01*
X11030400Y-15035400D01*
X11030496Y-15033440D01*
X11030784Y-15031498D01*
X11031261Y-15029594D01*
X11031922Y-15027746D01*
X11032762Y-15025972D01*
X11033771Y-15024289D01*
X11034940Y-15022712D01*
X11036258Y-15021258D01*
X11037712Y-15019940D01*
X11039289Y-15018771D01*
X11040972Y-15017762D01*
X11042746Y-15016922D01*
X11044594Y-15016261D01*
X11046498Y-15015784D01*
X11048440Y-15015496D01*
X11050400Y-15015400D01*
X11099400Y-15015400D01*
X11101360Y-15015496D01*
X11101360Y-15015496D01*
G37*
D31*
X11074900Y-15055400D03*
D11*
G36*
X11040360Y-15015496D02*
X11042302Y-15015784D01*
X11044206Y-15016261D01*
X11046054Y-15016922D01*
X11047828Y-15017762D01*
X11049511Y-15018771D01*
X11051088Y-15019940D01*
X11052542Y-15021258D01*
X11053860Y-15022712D01*
X11055029Y-15024289D01*
X11056038Y-15025972D01*
X11056878Y-15027746D01*
X11057539Y-15029594D01*
X11058016Y-15031498D01*
X11058304Y-15033440D01*
X11058400Y-15035400D01*
X11058400Y-15075400D01*
X11058304Y-15077360D01*
X11058016Y-15079302D01*
X11057539Y-15081206D01*
X11056878Y-15083054D01*
X11056038Y-15084828D01*
X11055029Y-15086511D01*
X11053860Y-15088088D01*
X11052542Y-15089542D01*
X11051088Y-15090860D01*
X11049511Y-15092029D01*
X11047828Y-15093038D01*
X11046054Y-15093878D01*
X11044206Y-15094539D01*
X11042302Y-15095016D01*
X11040360Y-15095304D01*
X11038400Y-15095400D01*
X10989400Y-15095400D01*
X10987440Y-15095304D01*
X10985498Y-15095016D01*
X10983594Y-15094539D01*
X10981746Y-15093878D01*
X10979972Y-15093038D01*
X10978289Y-15092029D01*
X10976712Y-15090860D01*
X10975258Y-15089542D01*
X10973940Y-15088088D01*
X10972771Y-15086511D01*
X10971762Y-15084828D01*
X10970922Y-15083054D01*
X10970261Y-15081206D01*
X10969784Y-15079302D01*
X10969496Y-15077360D01*
X10969400Y-15075400D01*
X10969400Y-15035400D01*
X10969496Y-15033440D01*
X10969784Y-15031498D01*
X10970261Y-15029594D01*
X10970922Y-15027746D01*
X10971762Y-15025972D01*
X10972771Y-15024289D01*
X10973940Y-15022712D01*
X10975258Y-15021258D01*
X10976712Y-15019940D01*
X10978289Y-15018771D01*
X10979972Y-15017762D01*
X10981746Y-15016922D01*
X10983594Y-15016261D01*
X10985498Y-15015784D01*
X10987440Y-15015496D01*
X10989400Y-15015400D01*
X11038400Y-15015400D01*
X11040360Y-15015496D01*
X11040360Y-15015496D01*
G37*
D31*
X11013900Y-15055400D03*
G04 #@! TD*
D32*
G04 #@! TO.C,SW1*
X17718900Y-14229800D03*
X17718900Y-14389800D03*
X18128900Y-14229800D03*
X18128900Y-14389800D03*
G04 #@! TD*
D33*
G04 #@! TO.C,SW4*
X18988574Y-14365712D03*
X18388626Y-13995888D03*
X18988574Y-13995888D03*
X18388626Y-14365712D03*
G04 #@! TD*
D34*
G04 #@! TO.C,R1*
X11659200Y-15055400D03*
X11711200Y-15055400D03*
G04 #@! TD*
D35*
G04 #@! TO.C,J1*
X22213000Y-14639540D03*
X22213000Y-14471900D03*
D36*
X22213000Y-14264382D03*
X22213000Y-14847058D03*
D37*
X21983130Y-14309594D03*
X21983130Y-14801846D03*
D38*
X21947062Y-14685768D03*
X21947062Y-14620744D03*
X21947062Y-14555720D03*
X21947062Y-14490696D03*
X21947062Y-14425672D03*
G04 #@! TD*
D39*
G04 #@! TO.C,D1*
X13058000Y-14294400D03*
X12658000Y-14294400D03*
G04 #@! TD*
D40*
G04 #@! TO.C,SW7*
X14871000Y-14885400D03*
X15121000Y-14885400D03*
X15371000Y-14885400D03*
X15371000Y-14335400D03*
X15121000Y-14335400D03*
X14871000Y-14335400D03*
G04 #@! TD*
D41*
G04 #@! TO.C,R3*
X11680200Y-14702950D03*
X11830200Y-14702950D03*
G04 #@! TD*
D42*
G04 #@! TO.C,D4*
X13716600Y-14717000D03*
X13386600Y-14717000D03*
G04 #@! TD*
D11*
G04 #@! TO.C,LED2*
G36*
X10992850Y-10893120D02*
X10995277Y-10893480D01*
X10997657Y-10894077D01*
X10999967Y-10894903D01*
X11002185Y-10895952D01*
X11004289Y-10897213D01*
X11006260Y-10898675D01*
X11008078Y-10900322D01*
X11009725Y-10902140D01*
X11011187Y-10904111D01*
X11012448Y-10906215D01*
X11013497Y-10908433D01*
X11014324Y-10910743D01*
X11014920Y-10913123D01*
X11015280Y-10915550D01*
X11015400Y-10918000D01*
X11015400Y-10972000D01*
X11015280Y-10974450D01*
X11014920Y-10976877D01*
X11014324Y-10979257D01*
X11013497Y-10981567D01*
X11012448Y-10983785D01*
X11011187Y-10985889D01*
X11009725Y-10987860D01*
X11008078Y-10989678D01*
X11006260Y-10991325D01*
X11004289Y-10992787D01*
X11002185Y-10994048D01*
X10999967Y-10995097D01*
X10997657Y-10995924D01*
X10995277Y-10996520D01*
X10992850Y-10996880D01*
X10990400Y-10997000D01*
X10940400Y-10997000D01*
X10937950Y-10996880D01*
X10935523Y-10996520D01*
X10933143Y-10995924D01*
X10930833Y-10995097D01*
X10928615Y-10994048D01*
X10926511Y-10992787D01*
X10924540Y-10991325D01*
X10922722Y-10989678D01*
X10921075Y-10987860D01*
X10919613Y-10985889D01*
X10918352Y-10983785D01*
X10917303Y-10981567D01*
X10916477Y-10979257D01*
X10915880Y-10976877D01*
X10915520Y-10974450D01*
X10915400Y-10972000D01*
X10915400Y-10918000D01*
X10915520Y-10915550D01*
X10915880Y-10913123D01*
X10916477Y-10910743D01*
X10917303Y-10908433D01*
X10918352Y-10906215D01*
X10919613Y-10904111D01*
X10921075Y-10902140D01*
X10922722Y-10900322D01*
X10924540Y-10898675D01*
X10926511Y-10897213D01*
X10928615Y-10895952D01*
X10930833Y-10894903D01*
X10933143Y-10894077D01*
X10935523Y-10893480D01*
X10937950Y-10893120D01*
X10940400Y-10893000D01*
X10990400Y-10893000D01*
X10992850Y-10893120D01*
X10992850Y-10893120D01*
G37*
D13*
X10965400Y-10945000D03*
D11*
G36*
X11088850Y-10893120D02*
X11091277Y-10893480D01*
X11093657Y-10894077D01*
X11095967Y-10894903D01*
X11098185Y-10895952D01*
X11100289Y-10897213D01*
X11102260Y-10898675D01*
X11104078Y-10900322D01*
X11105725Y-10902140D01*
X11107187Y-10904111D01*
X11108448Y-10906215D01*
X11109497Y-10908433D01*
X11110324Y-10910743D01*
X11110920Y-10913123D01*
X11111280Y-10915550D01*
X11111400Y-10918000D01*
X11111400Y-10972000D01*
X11111280Y-10974450D01*
X11110920Y-10976877D01*
X11110324Y-10979257D01*
X11109497Y-10981567D01*
X11108448Y-10983785D01*
X11107187Y-10985889D01*
X11105725Y-10987860D01*
X11104078Y-10989678D01*
X11102260Y-10991325D01*
X11100289Y-10992787D01*
X11098185Y-10994048D01*
X11095967Y-10995097D01*
X11093657Y-10995924D01*
X11091277Y-10996520D01*
X11088850Y-10996880D01*
X11086400Y-10997000D01*
X11036400Y-10997000D01*
X11033950Y-10996880D01*
X11031523Y-10996520D01*
X11029143Y-10995924D01*
X11026833Y-10995097D01*
X11024615Y-10994048D01*
X11022511Y-10992787D01*
X11020540Y-10991325D01*
X11018722Y-10989678D01*
X11017075Y-10987860D01*
X11015613Y-10985889D01*
X11014352Y-10983785D01*
X11013303Y-10981567D01*
X11012477Y-10979257D01*
X11011880Y-10976877D01*
X11011520Y-10974450D01*
X11011400Y-10972000D01*
X11011400Y-10918000D01*
X11011520Y-10915550D01*
X11011880Y-10913123D01*
X11012477Y-10910743D01*
X11013303Y-10908433D01*
X11014352Y-10906215D01*
X11015613Y-10904111D01*
X11017075Y-10902140D01*
X11018722Y-10900322D01*
X11020540Y-10898675D01*
X11022511Y-10897213D01*
X11024615Y-10895952D01*
X11026833Y-10894903D01*
X11029143Y-10894077D01*
X11031523Y-10893480D01*
X11033950Y-10893120D01*
X11036400Y-10893000D01*
X11086400Y-10893000D01*
X11088850Y-10893120D01*
X11088850Y-10893120D01*
G37*
D13*
X11061400Y-10945000D03*
G04 #@! TD*
D11*
G04 #@! TO.C,LED3*
G36*
X10924649Y-10690204D02*
X10927744Y-10690663D01*
X10930778Y-10691423D01*
X10933723Y-10692476D01*
X10936551Y-10693814D01*
X10939234Y-10695422D01*
X10941746Y-10697285D01*
X10944064Y-10699386D01*
X10946165Y-10701704D01*
X10948028Y-10704216D01*
X10949636Y-10706899D01*
X10950974Y-10709727D01*
X10952028Y-10712672D01*
X10952788Y-10715707D01*
X10953247Y-10718801D01*
X10953400Y-10721925D01*
X10953400Y-10793175D01*
X10953247Y-10796299D01*
X10952788Y-10799394D01*
X10952028Y-10802428D01*
X10950974Y-10805373D01*
X10949636Y-10808201D01*
X10948028Y-10810884D01*
X10946165Y-10813396D01*
X10944064Y-10815714D01*
X10941746Y-10817815D01*
X10939234Y-10819678D01*
X10936551Y-10821286D01*
X10933723Y-10822624D01*
X10930778Y-10823678D01*
X10927744Y-10824438D01*
X10924649Y-10824897D01*
X10921525Y-10825050D01*
X10857775Y-10825050D01*
X10854651Y-10824897D01*
X10851557Y-10824438D01*
X10848522Y-10823678D01*
X10845577Y-10822624D01*
X10842749Y-10821286D01*
X10840066Y-10819678D01*
X10837554Y-10817815D01*
X10835236Y-10815714D01*
X10833135Y-10813396D01*
X10831272Y-10810884D01*
X10829664Y-10808201D01*
X10828326Y-10805373D01*
X10827273Y-10802428D01*
X10826513Y-10799394D01*
X10826054Y-10796299D01*
X10825900Y-10793175D01*
X10825900Y-10721925D01*
X10826054Y-10718801D01*
X10826513Y-10715707D01*
X10827273Y-10712672D01*
X10828326Y-10709727D01*
X10829664Y-10706899D01*
X10831272Y-10704216D01*
X10833135Y-10701704D01*
X10835236Y-10699386D01*
X10837554Y-10697285D01*
X10840066Y-10695422D01*
X10842749Y-10693814D01*
X10845577Y-10692476D01*
X10848522Y-10691423D01*
X10851557Y-10690663D01*
X10854651Y-10690204D01*
X10857775Y-10690050D01*
X10921525Y-10690050D01*
X10924649Y-10690204D01*
X10924649Y-10690204D01*
G37*
D14*
X10889650Y-10757550D03*
D11*
G36*
X11082149Y-10690204D02*
X11085244Y-10690663D01*
X11088278Y-10691423D01*
X11091223Y-10692476D01*
X11094051Y-10693814D01*
X11096734Y-10695422D01*
X11099246Y-10697285D01*
X11101564Y-10699386D01*
X11103665Y-10701704D01*
X11105528Y-10704216D01*
X11107136Y-10706899D01*
X11108474Y-10709727D01*
X11109528Y-10712672D01*
X11110288Y-10715707D01*
X11110747Y-10718801D01*
X11110900Y-10721925D01*
X11110900Y-10793175D01*
X11110747Y-10796299D01*
X11110288Y-10799394D01*
X11109528Y-10802428D01*
X11108474Y-10805373D01*
X11107136Y-10808201D01*
X11105528Y-10810884D01*
X11103665Y-10813396D01*
X11101564Y-10815714D01*
X11099246Y-10817815D01*
X11096734Y-10819678D01*
X11094051Y-10821286D01*
X11091223Y-10822624D01*
X11088278Y-10823678D01*
X11085244Y-10824438D01*
X11082149Y-10824897D01*
X11079025Y-10825050D01*
X11015275Y-10825050D01*
X11012151Y-10824897D01*
X11009057Y-10824438D01*
X11006022Y-10823678D01*
X11003077Y-10822624D01*
X11000249Y-10821286D01*
X10997566Y-10819678D01*
X10995054Y-10817815D01*
X10992736Y-10815714D01*
X10990635Y-10813396D01*
X10988772Y-10810884D01*
X10987164Y-10808201D01*
X10985826Y-10805373D01*
X10984773Y-10802428D01*
X10984013Y-10799394D01*
X10983554Y-10796299D01*
X10983400Y-10793175D01*
X10983400Y-10721925D01*
X10983554Y-10718801D01*
X10984013Y-10715707D01*
X10984773Y-10712672D01*
X10985826Y-10709727D01*
X10987164Y-10706899D01*
X10988772Y-10704216D01*
X10990635Y-10701704D01*
X10992736Y-10699386D01*
X10995054Y-10697285D01*
X10997566Y-10695422D01*
X11000249Y-10693814D01*
X11003077Y-10692476D01*
X11006022Y-10691423D01*
X11009057Y-10690663D01*
X11012151Y-10690204D01*
X11015275Y-10690050D01*
X11079025Y-10690050D01*
X11082149Y-10690204D01*
X11082149Y-10690204D01*
G37*
D14*
X11047150Y-10757550D03*
G04 #@! TD*
D11*
G04 #@! TO.C,LED4*
G36*
X10880507Y-10460562D02*
X10883778Y-10461048D01*
X10886986Y-10461851D01*
X10890099Y-10462965D01*
X10893088Y-10464379D01*
X10895925Y-10466079D01*
X10898581Y-10468049D01*
X10901031Y-10470269D01*
X10903252Y-10472719D01*
X10905221Y-10475375D01*
X10906921Y-10478212D01*
X10908335Y-10481201D01*
X10909449Y-10484314D01*
X10910253Y-10487522D01*
X10910738Y-10490793D01*
X10910900Y-10494096D01*
X10910900Y-10606704D01*
X10910738Y-10610007D01*
X10910253Y-10613278D01*
X10909449Y-10616486D01*
X10908335Y-10619599D01*
X10906921Y-10622588D01*
X10905221Y-10625425D01*
X10903252Y-10628081D01*
X10901031Y-10630531D01*
X10898581Y-10632752D01*
X10895925Y-10634721D01*
X10893088Y-10636421D01*
X10890099Y-10637835D01*
X10886986Y-10638949D01*
X10883778Y-10639753D01*
X10880507Y-10640238D01*
X10877204Y-10640400D01*
X10789596Y-10640400D01*
X10786293Y-10640238D01*
X10783022Y-10639753D01*
X10779814Y-10638949D01*
X10776701Y-10637835D01*
X10773712Y-10636421D01*
X10770875Y-10634721D01*
X10768219Y-10632752D01*
X10765769Y-10630531D01*
X10763549Y-10628081D01*
X10761579Y-10625425D01*
X10759879Y-10622588D01*
X10758465Y-10619599D01*
X10757351Y-10616486D01*
X10756548Y-10613278D01*
X10756062Y-10610007D01*
X10755900Y-10606704D01*
X10755900Y-10494096D01*
X10756062Y-10490793D01*
X10756548Y-10487522D01*
X10757351Y-10484314D01*
X10758465Y-10481201D01*
X10759879Y-10478212D01*
X10761579Y-10475375D01*
X10763549Y-10472719D01*
X10765769Y-10470269D01*
X10768219Y-10468049D01*
X10770875Y-10466079D01*
X10773712Y-10464379D01*
X10776701Y-10462965D01*
X10779814Y-10461851D01*
X10783022Y-10461048D01*
X10786293Y-10460562D01*
X10789596Y-10460400D01*
X10877204Y-10460400D01*
X10880507Y-10460562D01*
X10880507Y-10460562D01*
G37*
D15*
X10833400Y-10550400D03*
D11*
G36*
X11050507Y-10460562D02*
X11053778Y-10461048D01*
X11056986Y-10461851D01*
X11060099Y-10462965D01*
X11063088Y-10464379D01*
X11065925Y-10466079D01*
X11068581Y-10468049D01*
X11071031Y-10470269D01*
X11073252Y-10472719D01*
X11075221Y-10475375D01*
X11076921Y-10478212D01*
X11078335Y-10481201D01*
X11079449Y-10484314D01*
X11080253Y-10487522D01*
X11080738Y-10490793D01*
X11080900Y-10494096D01*
X11080900Y-10606704D01*
X11080738Y-10610007D01*
X11080253Y-10613278D01*
X11079449Y-10616486D01*
X11078335Y-10619599D01*
X11076921Y-10622588D01*
X11075221Y-10625425D01*
X11073252Y-10628081D01*
X11071031Y-10630531D01*
X11068581Y-10632752D01*
X11065925Y-10634721D01*
X11063088Y-10636421D01*
X11060099Y-10637835D01*
X11056986Y-10638949D01*
X11053778Y-10639753D01*
X11050507Y-10640238D01*
X11047204Y-10640400D01*
X10959596Y-10640400D01*
X10956293Y-10640238D01*
X10953022Y-10639753D01*
X10949814Y-10638949D01*
X10946701Y-10637835D01*
X10943712Y-10636421D01*
X10940875Y-10634721D01*
X10938219Y-10632752D01*
X10935769Y-10630531D01*
X10933549Y-10628081D01*
X10931579Y-10625425D01*
X10929879Y-10622588D01*
X10928465Y-10619599D01*
X10927351Y-10616486D01*
X10926548Y-10613278D01*
X10926062Y-10610007D01*
X10925900Y-10606704D01*
X10925900Y-10494096D01*
X10926062Y-10490793D01*
X10926548Y-10487522D01*
X10927351Y-10484314D01*
X10928465Y-10481201D01*
X10929879Y-10478212D01*
X10931579Y-10475375D01*
X10933549Y-10472719D01*
X10935769Y-10470269D01*
X10938219Y-10468049D01*
X10940875Y-10466079D01*
X10943712Y-10464379D01*
X10946701Y-10462965D01*
X10949814Y-10461851D01*
X10953022Y-10461048D01*
X10956293Y-10460562D01*
X10959596Y-10460400D01*
X11047204Y-10460400D01*
X11050507Y-10460562D01*
X11050507Y-10460562D01*
G37*
D15*
X11003400Y-10550400D03*
G04 #@! TD*
D11*
G04 #@! TO.C,LED5*
G36*
X10761135Y-10189309D02*
X10764338Y-10189784D01*
X10767479Y-10190571D01*
X10770529Y-10191662D01*
X10773456Y-10193047D01*
X10776234Y-10194712D01*
X10778835Y-10196641D01*
X10781235Y-10198816D01*
X10783409Y-10201215D01*
X10785339Y-10203816D01*
X10787003Y-10206594D01*
X10788388Y-10209521D01*
X10789479Y-10212571D01*
X10790266Y-10215712D01*
X10790741Y-10218915D01*
X10790900Y-10222150D01*
X10790900Y-10371150D01*
X10790741Y-10374385D01*
X10790266Y-10377588D01*
X10789479Y-10380729D01*
X10788388Y-10383779D01*
X10787003Y-10386706D01*
X10785339Y-10389484D01*
X10783409Y-10392085D01*
X10781235Y-10394485D01*
X10778835Y-10396659D01*
X10776234Y-10398589D01*
X10773456Y-10400253D01*
X10770529Y-10401638D01*
X10767479Y-10402729D01*
X10764338Y-10403516D01*
X10761135Y-10403991D01*
X10757900Y-10404150D01*
X10658900Y-10404150D01*
X10655665Y-10403991D01*
X10652462Y-10403516D01*
X10649321Y-10402729D01*
X10646271Y-10401638D01*
X10643344Y-10400253D01*
X10640566Y-10398589D01*
X10637965Y-10396659D01*
X10635566Y-10394485D01*
X10633391Y-10392085D01*
X10631462Y-10389484D01*
X10629797Y-10386706D01*
X10628412Y-10383779D01*
X10627321Y-10380729D01*
X10626534Y-10377588D01*
X10626059Y-10374385D01*
X10625900Y-10371150D01*
X10625900Y-10222150D01*
X10626059Y-10218915D01*
X10626534Y-10215712D01*
X10627321Y-10212571D01*
X10628412Y-10209521D01*
X10629797Y-10206594D01*
X10631462Y-10203816D01*
X10633391Y-10201215D01*
X10635566Y-10198816D01*
X10637965Y-10196641D01*
X10640566Y-10194712D01*
X10643344Y-10193047D01*
X10646271Y-10191662D01*
X10649321Y-10190571D01*
X10652462Y-10189784D01*
X10655665Y-10189309D01*
X10658900Y-10189150D01*
X10757900Y-10189150D01*
X10761135Y-10189309D01*
X10761135Y-10189309D01*
G37*
D16*
X10708400Y-10296650D03*
D11*
G36*
X11041135Y-10189309D02*
X11044338Y-10189784D01*
X11047479Y-10190571D01*
X11050529Y-10191662D01*
X11053456Y-10193047D01*
X11056234Y-10194712D01*
X11058835Y-10196641D01*
X11061235Y-10198816D01*
X11063409Y-10201215D01*
X11065339Y-10203816D01*
X11067003Y-10206594D01*
X11068388Y-10209521D01*
X11069479Y-10212571D01*
X11070266Y-10215712D01*
X11070741Y-10218915D01*
X11070900Y-10222150D01*
X11070900Y-10371150D01*
X11070741Y-10374385D01*
X11070266Y-10377588D01*
X11069479Y-10380729D01*
X11068388Y-10383779D01*
X11067003Y-10386706D01*
X11065339Y-10389484D01*
X11063409Y-10392085D01*
X11061235Y-10394485D01*
X11058835Y-10396659D01*
X11056234Y-10398589D01*
X11053456Y-10400253D01*
X11050529Y-10401638D01*
X11047479Y-10402729D01*
X11044338Y-10403516D01*
X11041135Y-10403991D01*
X11037900Y-10404150D01*
X10938900Y-10404150D01*
X10935665Y-10403991D01*
X10932462Y-10403516D01*
X10929321Y-10402729D01*
X10926271Y-10401638D01*
X10923344Y-10400253D01*
X10920566Y-10398589D01*
X10917965Y-10396659D01*
X10915566Y-10394485D01*
X10913391Y-10392085D01*
X10911462Y-10389484D01*
X10909797Y-10386706D01*
X10908412Y-10383779D01*
X10907321Y-10380729D01*
X10906534Y-10377588D01*
X10906059Y-10374385D01*
X10905900Y-10371150D01*
X10905900Y-10222150D01*
X10906059Y-10218915D01*
X10906534Y-10215712D01*
X10907321Y-10212571D01*
X10908412Y-10209521D01*
X10909797Y-10206594D01*
X10911462Y-10203816D01*
X10913391Y-10201215D01*
X10915566Y-10198816D01*
X10917965Y-10196641D01*
X10920566Y-10194712D01*
X10923344Y-10193047D01*
X10926271Y-10191662D01*
X10929321Y-10190571D01*
X10932462Y-10189784D01*
X10935665Y-10189309D01*
X10938900Y-10189150D01*
X11037900Y-10189150D01*
X11041135Y-10189309D01*
X11041135Y-10189309D01*
G37*
D16*
X10988400Y-10296650D03*
G04 #@! TD*
D33*
G04 #@! TO.C,SW4*
X18387626Y-10420312D03*
X18987574Y-10050488D03*
X18387626Y-10050488D03*
X18987574Y-10420312D03*
G04 #@! TD*
D13*
G04 #@! TO.C,LED1*
X10153074Y-10650000D03*
D11*
G36*
X10099172Y-10719616D02*
X10095420Y-10718478D01*
X10091963Y-10716629D01*
X10088932Y-10714142D01*
X10086445Y-10711111D01*
X10084596Y-10707654D01*
X10083458Y-10703902D01*
X10083074Y-10700000D01*
X10083074Y-10600000D01*
X10083458Y-10596098D01*
X10084596Y-10592346D01*
X10086445Y-10588889D01*
X10088932Y-10585858D01*
X10091963Y-10583371D01*
X10095420Y-10581522D01*
X10099172Y-10580384D01*
X10103074Y-10580000D01*
X10203074Y-10580000D01*
X10206976Y-10580384D01*
X10210728Y-10581522D01*
X10214185Y-10583371D01*
X10217216Y-10585858D01*
X10219703Y-10588889D01*
X10221552Y-10592346D01*
X10222690Y-10596098D01*
X10223074Y-10600000D01*
X10223074Y-10700000D01*
X10222690Y-10703902D01*
X10221552Y-10707654D01*
X10219703Y-10711111D01*
X10217216Y-10714142D01*
X10214185Y-10716629D01*
X10210728Y-10718478D01*
X10206976Y-10719616D01*
X10203074Y-10720000D01*
X10103074Y-10720000D01*
X10099172Y-10719616D01*
X10099172Y-10719616D01*
G37*
D13*
X10323000Y-10650000D03*
D11*
G36*
X10318586Y-10719844D02*
X10313703Y-10719363D01*
X10311762Y-10719075D01*
X10306950Y-10718117D01*
X10305045Y-10717640D01*
X10300350Y-10716216D01*
X10298502Y-10715555D01*
X10293969Y-10713677D01*
X10292194Y-10712838D01*
X10287867Y-10710525D01*
X10286184Y-10709516D01*
X10282104Y-10706790D01*
X10280527Y-10705621D01*
X10276734Y-10702508D01*
X10275280Y-10701190D01*
X10271810Y-10697720D01*
X10270492Y-10696266D01*
X10267380Y-10692473D01*
X10266210Y-10690896D01*
X10263484Y-10686816D01*
X10262475Y-10685133D01*
X10260162Y-10680806D01*
X10259323Y-10679031D01*
X10257445Y-10674498D01*
X10256784Y-10672650D01*
X10255360Y-10667955D01*
X10254883Y-10666051D01*
X10253925Y-10661238D01*
X10253638Y-10659297D01*
X10253157Y-10654414D01*
X10253060Y-10652453D01*
X10253060Y-10647547D01*
X10253157Y-10645586D01*
X10253638Y-10640703D01*
X10253925Y-10638762D01*
X10254883Y-10633950D01*
X10255360Y-10632045D01*
X10256784Y-10627350D01*
X10257445Y-10625502D01*
X10259323Y-10620969D01*
X10260162Y-10619194D01*
X10262475Y-10614867D01*
X10263484Y-10613184D01*
X10266210Y-10609104D01*
X10267380Y-10607527D01*
X10270492Y-10603734D01*
X10271810Y-10602280D01*
X10275280Y-10598810D01*
X10276734Y-10597492D01*
X10280527Y-10594380D01*
X10282104Y-10593210D01*
X10286184Y-10590484D01*
X10287867Y-10589475D01*
X10292194Y-10587162D01*
X10293969Y-10586323D01*
X10298502Y-10584445D01*
X10300350Y-10583784D01*
X10305045Y-10582360D01*
X10306950Y-10581883D01*
X10311762Y-10580925D01*
X10313703Y-10580638D01*
X10318586Y-10580157D01*
X10320547Y-10580060D01*
X10325453Y-10580060D01*
X10327414Y-10580157D01*
X10332297Y-10580638D01*
X10334238Y-10580925D01*
X10339051Y-10581883D01*
X10340955Y-10582360D01*
X10345650Y-10583784D01*
X10347498Y-10584445D01*
X10352031Y-10586323D01*
X10353806Y-10587162D01*
X10358133Y-10589475D01*
X10359816Y-10590484D01*
X10363896Y-10593210D01*
X10365473Y-10594380D01*
X10369266Y-10597492D01*
X10370720Y-10598810D01*
X10374190Y-10602280D01*
X10375508Y-10603734D01*
X10378621Y-10607527D01*
X10379790Y-10609104D01*
X10382516Y-10613184D01*
X10383525Y-10614867D01*
X10385838Y-10619194D01*
X10386677Y-10620969D01*
X10388555Y-10625502D01*
X10389216Y-10627350D01*
X10390640Y-10632045D01*
X10391117Y-10633950D01*
X10392075Y-10638762D01*
X10392363Y-10640703D01*
X10392844Y-10645586D01*
X10392940Y-10647547D01*
X10392940Y-10652453D01*
X10392844Y-10654414D01*
X10392363Y-10659297D01*
X10392075Y-10661238D01*
X10391117Y-10666051D01*
X10390640Y-10667955D01*
X10389216Y-10672650D01*
X10388555Y-10674498D01*
X10386677Y-10679031D01*
X10385838Y-10680806D01*
X10383525Y-10685133D01*
X10382516Y-10686816D01*
X10379790Y-10690896D01*
X10378621Y-10692473D01*
X10375508Y-10696266D01*
X10374190Y-10697720D01*
X10370720Y-10701190D01*
X10369266Y-10702508D01*
X10365473Y-10705621D01*
X10363896Y-10706790D01*
X10359816Y-10709516D01*
X10358133Y-10710525D01*
X10353806Y-10712838D01*
X10352031Y-10713677D01*
X10347498Y-10715555D01*
X10345650Y-10716216D01*
X10340955Y-10717640D01*
X10339051Y-10718117D01*
X10334238Y-10719075D01*
X10332297Y-10719363D01*
X10327414Y-10719844D01*
X10325453Y-10719940D01*
X10320547Y-10719940D01*
X10318586Y-10719844D01*
X10318586Y-10719844D01*
G37*
G04 #@! TD*
D28*
G04 #@! TO.C,SW2*
X16824800Y-10855800D03*
X16824800Y-10315800D03*
G04 #@! TD*
D40*
G04 #@! TO.C,SW7*
X14870000Y-10390000D03*
X15120000Y-10390000D03*
X15370000Y-10390000D03*
X15370000Y-10940000D03*
X15120000Y-10940000D03*
X14870000Y-10940000D03*
G04 #@! TD*
D39*
G04 #@! TO.C,D1*
X12657000Y-10349000D03*
X13057000Y-10349000D03*
G04 #@! TD*
D22*
G04 #@! TO.C,D2*
X13615000Y-10390600D03*
X14045000Y-10390600D03*
G04 #@! TD*
D17*
G04 #@! TO.C,D3*
X12447000Y-10919000D03*
X13127000Y-10919000D03*
G04 #@! TD*
D42*
G04 #@! TO.C,D4*
X13385600Y-10771600D03*
X13715600Y-10771600D03*
G04 #@! TD*
D21*
G04 #@! TO.C,D5*
X13521800Y-11000200D03*
X13731800Y-11000200D03*
G04 #@! TD*
D24*
G04 #@! TO.C,D6*
X13722200Y-11203400D03*
X13582200Y-11203400D03*
G04 #@! TD*
D25*
G04 #@! TO.C,R5*
X11989200Y-10296400D03*
X11699200Y-10296400D03*
G04 #@! TD*
D32*
G04 #@! TO.C,SW1*
X18127900Y-10444400D03*
X18127900Y-10284400D03*
X17717900Y-10444400D03*
X17717900Y-10284400D03*
G04 #@! TD*
D29*
G04 #@! TO.C,SW3*
X18076400Y-10936200D03*
X17736400Y-10936200D03*
G04 #@! TD*
D34*
G04 #@! TO.C,R1*
X11710200Y-11110000D03*
X11658200Y-11110000D03*
G04 #@! TD*
D23*
G04 #@! TO.C,R2*
X11754200Y-10945000D03*
X11664200Y-10945000D03*
G04 #@! TD*
D41*
G04 #@! TO.C,R3*
X11829200Y-10757550D03*
X11679200Y-10757550D03*
G04 #@! TD*
D30*
G04 #@! TO.C,R4*
X11879200Y-10550400D03*
X11689200Y-10550400D03*
G04 #@! TD*
D38*
G04 #@! TO.C,J1*
X21946062Y-10480272D03*
X21946062Y-10545296D03*
X21946062Y-10610320D03*
X21946062Y-10675344D03*
X21946062Y-10740368D03*
D37*
X21982130Y-10856446D03*
X21982130Y-10364194D03*
D36*
X22212000Y-10901658D03*
X22212000Y-10318982D03*
D35*
X22212000Y-10526500D03*
X22212000Y-10694140D03*
G04 #@! TD*
D27*
G04 #@! TO.C,SW6*
X16357500Y-11040800D03*
X15907500Y-10130800D03*
X16357500Y-10130800D03*
X15907500Y-11040800D03*
G04 #@! TD*
D11*
G04 #@! TO.C,R6*
G36*
X11738415Y-11225084D02*
X11740114Y-11225336D01*
X11741780Y-11225753D01*
X11743397Y-11226332D01*
X11744949Y-11227066D01*
X11746422Y-11227949D01*
X11747802Y-11228972D01*
X11749074Y-11230126D01*
X11750228Y-11231398D01*
X11751251Y-11232777D01*
X11752134Y-11234251D01*
X11752868Y-11235803D01*
X11753446Y-11237420D01*
X11753864Y-11239086D01*
X11754116Y-11240785D01*
X11754200Y-11242500D01*
X11754200Y-11277500D01*
X11754116Y-11279215D01*
X11753864Y-11280914D01*
X11753446Y-11282580D01*
X11752868Y-11284197D01*
X11752134Y-11285749D01*
X11751251Y-11287222D01*
X11750228Y-11288602D01*
X11749074Y-11289874D01*
X11747802Y-11291028D01*
X11746422Y-11292051D01*
X11744949Y-11292934D01*
X11743397Y-11293668D01*
X11741780Y-11294246D01*
X11740114Y-11294664D01*
X11738415Y-11294916D01*
X11736700Y-11295000D01*
X11689700Y-11295000D01*
X11687985Y-11294916D01*
X11686286Y-11294664D01*
X11684620Y-11294246D01*
X11683003Y-11293668D01*
X11681451Y-11292934D01*
X11679977Y-11292051D01*
X11678598Y-11291028D01*
X11677326Y-11289874D01*
X11676172Y-11288602D01*
X11675149Y-11287222D01*
X11674266Y-11285749D01*
X11673532Y-11284197D01*
X11672953Y-11282580D01*
X11672536Y-11280914D01*
X11672284Y-11279215D01*
X11672200Y-11277500D01*
X11672200Y-11242500D01*
X11672284Y-11240785D01*
X11672536Y-11239086D01*
X11672953Y-11237420D01*
X11673532Y-11235803D01*
X11674266Y-11234251D01*
X11675149Y-11232777D01*
X11676172Y-11231398D01*
X11677326Y-11230126D01*
X11678598Y-11228972D01*
X11679977Y-11227949D01*
X11681451Y-11227066D01*
X11683003Y-11226332D01*
X11684620Y-11225753D01*
X11686286Y-11225336D01*
X11687985Y-11225084D01*
X11689700Y-11225000D01*
X11736700Y-11225000D01*
X11738415Y-11225084D01*
X11738415Y-11225084D01*
G37*
D26*
X11713200Y-11260000D03*
D11*
G36*
X11690415Y-11225084D02*
X11692114Y-11225336D01*
X11693780Y-11225753D01*
X11695397Y-11226332D01*
X11696949Y-11227066D01*
X11698422Y-11227949D01*
X11699802Y-11228972D01*
X11701074Y-11230126D01*
X11702228Y-11231398D01*
X11703251Y-11232777D01*
X11704134Y-11234251D01*
X11704868Y-11235803D01*
X11705446Y-11237420D01*
X11705864Y-11239086D01*
X11706116Y-11240785D01*
X11706200Y-11242500D01*
X11706200Y-11277500D01*
X11706116Y-11279215D01*
X11705864Y-11280914D01*
X11705446Y-11282580D01*
X11704868Y-11284197D01*
X11704134Y-11285749D01*
X11703251Y-11287222D01*
X11702228Y-11288602D01*
X11701074Y-11289874D01*
X11699802Y-11291028D01*
X11698422Y-11292051D01*
X11696949Y-11292934D01*
X11695397Y-11293668D01*
X11693780Y-11294246D01*
X11692114Y-11294664D01*
X11690415Y-11294916D01*
X11688700Y-11295000D01*
X11641700Y-11295000D01*
X11639985Y-11294916D01*
X11638286Y-11294664D01*
X11636620Y-11294246D01*
X11635003Y-11293668D01*
X11633451Y-11292934D01*
X11631977Y-11292051D01*
X11630598Y-11291028D01*
X11629326Y-11289874D01*
X11628172Y-11288602D01*
X11627149Y-11287222D01*
X11626266Y-11285749D01*
X11625532Y-11284197D01*
X11624953Y-11282580D01*
X11624536Y-11280914D01*
X11624284Y-11279215D01*
X11624200Y-11277500D01*
X11624200Y-11242500D01*
X11624284Y-11240785D01*
X11624536Y-11239086D01*
X11624953Y-11237420D01*
X11625532Y-11235803D01*
X11626266Y-11234251D01*
X11627149Y-11232777D01*
X11628172Y-11231398D01*
X11629326Y-11230126D01*
X11630598Y-11228972D01*
X11631977Y-11227949D01*
X11633451Y-11227066D01*
X11635003Y-11226332D01*
X11636620Y-11225753D01*
X11638286Y-11225336D01*
X11639985Y-11225084D01*
X11641700Y-11225000D01*
X11688700Y-11225000D01*
X11690415Y-11225084D01*
X11690415Y-11225084D01*
G37*
D26*
X11665200Y-11260000D03*
G04 #@! TD*
D11*
G04 #@! TO.C,LED6*
G36*
X11039360Y-11070096D02*
X11041302Y-11070384D01*
X11043206Y-11070861D01*
X11045054Y-11071522D01*
X11046828Y-11072362D01*
X11048511Y-11073371D01*
X11050088Y-11074540D01*
X11051542Y-11075858D01*
X11052860Y-11077312D01*
X11054029Y-11078889D01*
X11055038Y-11080572D01*
X11055878Y-11082346D01*
X11056539Y-11084194D01*
X11057016Y-11086098D01*
X11057304Y-11088040D01*
X11057400Y-11090000D01*
X11057400Y-11130000D01*
X11057304Y-11131960D01*
X11057016Y-11133902D01*
X11056539Y-11135806D01*
X11055878Y-11137654D01*
X11055038Y-11139428D01*
X11054029Y-11141111D01*
X11052860Y-11142688D01*
X11051542Y-11144142D01*
X11050088Y-11145460D01*
X11048511Y-11146629D01*
X11046828Y-11147638D01*
X11045054Y-11148478D01*
X11043206Y-11149139D01*
X11041302Y-11149616D01*
X11039360Y-11149904D01*
X11037400Y-11150000D01*
X10988400Y-11150000D01*
X10986440Y-11149904D01*
X10984498Y-11149616D01*
X10982594Y-11149139D01*
X10980746Y-11148478D01*
X10978972Y-11147638D01*
X10977289Y-11146629D01*
X10975712Y-11145460D01*
X10974258Y-11144142D01*
X10972940Y-11142688D01*
X10971771Y-11141111D01*
X10970762Y-11139428D01*
X10969922Y-11137654D01*
X10969261Y-11135806D01*
X10968784Y-11133902D01*
X10968496Y-11131960D01*
X10968400Y-11130000D01*
X10968400Y-11090000D01*
X10968496Y-11088040D01*
X10968784Y-11086098D01*
X10969261Y-11084194D01*
X10969922Y-11082346D01*
X10970762Y-11080572D01*
X10971771Y-11078889D01*
X10972940Y-11077312D01*
X10974258Y-11075858D01*
X10975712Y-11074540D01*
X10977289Y-11073371D01*
X10978972Y-11072362D01*
X10980746Y-11071522D01*
X10982594Y-11070861D01*
X10984498Y-11070384D01*
X10986440Y-11070096D01*
X10988400Y-11070000D01*
X11037400Y-11070000D01*
X11039360Y-11070096D01*
X11039360Y-11070096D01*
G37*
D31*
X11012900Y-11110000D03*
D11*
G36*
X11100360Y-11070096D02*
X11102302Y-11070384D01*
X11104206Y-11070861D01*
X11106054Y-11071522D01*
X11107828Y-11072362D01*
X11109511Y-11073371D01*
X11111088Y-11074540D01*
X11112542Y-11075858D01*
X11113860Y-11077312D01*
X11115029Y-11078889D01*
X11116038Y-11080572D01*
X11116878Y-11082346D01*
X11117539Y-11084194D01*
X11118016Y-11086098D01*
X11118304Y-11088040D01*
X11118400Y-11090000D01*
X11118400Y-11130000D01*
X11118304Y-11131960D01*
X11118016Y-11133902D01*
X11117539Y-11135806D01*
X11116878Y-11137654D01*
X11116038Y-11139428D01*
X11115029Y-11141111D01*
X11113860Y-11142688D01*
X11112542Y-11144142D01*
X11111088Y-11145460D01*
X11109511Y-11146629D01*
X11107828Y-11147638D01*
X11106054Y-11148478D01*
X11104206Y-11149139D01*
X11102302Y-11149616D01*
X11100360Y-11149904D01*
X11098400Y-11150000D01*
X11049400Y-11150000D01*
X11047440Y-11149904D01*
X11045498Y-11149616D01*
X11043594Y-11149139D01*
X11041746Y-11148478D01*
X11039972Y-11147638D01*
X11038289Y-11146629D01*
X11036712Y-11145460D01*
X11035258Y-11144142D01*
X11033940Y-11142688D01*
X11032771Y-11141111D01*
X11031762Y-11139428D01*
X11030922Y-11137654D01*
X11030261Y-11135806D01*
X11029784Y-11133902D01*
X11029496Y-11131960D01*
X11029400Y-11130000D01*
X11029400Y-11090000D01*
X11029496Y-11088040D01*
X11029784Y-11086098D01*
X11030261Y-11084194D01*
X11030922Y-11082346D01*
X11031762Y-11080572D01*
X11032771Y-11078889D01*
X11033940Y-11077312D01*
X11035258Y-11075858D01*
X11036712Y-11074540D01*
X11038289Y-11073371D01*
X11039972Y-11072362D01*
X11041746Y-11071522D01*
X11043594Y-11070861D01*
X11045498Y-11070384D01*
X11047440Y-11070096D01*
X11049400Y-11070000D01*
X11098400Y-11070000D01*
X11100360Y-11070096D01*
X11100360Y-11070096D01*
G37*
D31*
X11073900Y-11110000D03*
G04 #@! TD*
D20*
G04 #@! TO.C,SW8*
X17341900Y-10235800D03*
X17341900Y-10935800D03*
G04 #@! TD*
D19*
G04 #@! TO.C,SW5*
X18925100Y-11084400D03*
X18430100Y-10734400D03*
X18925100Y-10734400D03*
X18430100Y-11084400D03*
D18*
X18890100Y-11084400D03*
X18465100Y-11084400D03*
X18890100Y-10734400D03*
X18465100Y-10734400D03*
G04 #@! TD*
M02*
