G04 #@! TF.GenerationSoftware,KiCad,Pcbnew,5.0.0-rc2-dev-unknown-44bf92a~82~ubuntu16.04.1*
G04 #@! TF.CreationDate,2018-05-21T11:56:29+01:00*
G04 #@! TF.ProjectId,ruler,72756C65722E6B696361645F70636200,rev?*
G04 #@! TF.SameCoordinates,Original*
G04 #@! TF.FileFunction,Soldermask,Bot*
G04 #@! TF.FilePolarity,Negative*
%FSLAX45Y45*%
G04 Gerber Fmt 4.5, Leading zero omitted, Abs format (unit mm)*
G04 Created by KiCad (PCBNEW 5.0.0-rc2-dev-unknown-44bf92a~82~ubuntu16.04.1) date Mon May 21 11:56:29 2018*
%MOMM*%
%LPD*%
G01*
G04 APERTURE LIST*
%ADD10C,0.010000*%
%ADD11C,0.900000*%
%ADD12R,3.400000X2.000000*%
%ADD13R,3.000000X2.000000*%
%ADD14R,2.600000X2.000000*%
%ADD15R,1.400000X1.900000*%
%ADD16R,1.416000X2.432000*%
%ADD17R,4.057600X2.432000*%
%ADD18R,0.800000X0.910000*%
%ADD19R,1.100000X0.800000*%
%ADD20R,0.650000X0.800000*%
%ADD21R,0.950000X1.250000*%
%ADD22R,1.000000X1.400000*%
%ADD23R,2.000000X6.300000*%
%ADD24R,1.900000X4.600000*%
%ADD25R,1.600000X4.100000*%
%ADD26R,1.950000X1.000000*%
%ADD27R,0.900000X1.600000*%
%ADD28R,1.600000X0.900000*%
%ADD29C,0.900380*%
%ADD30R,1.300000X1.300000*%
%ADD31O,0.700000X1.150000*%
%ADD32O,1.150000X0.700000*%
%ADD33R,2.950000X3.100000*%
%ADD34R,2.950000X2.900000*%
%ADD35R,2.350000X2.900000*%
%ADD36R,2.350000X1.900000*%
%ADD37R,1.421080X0.808940*%
%ADD38R,1.100000X0.910000*%
%ADD39R,4.400000X2.900000*%
%ADD40R,1.500000X0.800000*%
%ADD41R,2.200000X8.100000*%
%ADD42R,1.050000X2.400000*%
%ADD43R,0.600000X0.600000*%
%ADD44R,1.460000X0.800000*%
%ADD45R,1.460000X1.050000*%
%ADD46R,1.797000X0.831800*%
%ADD47R,2.305000X1.035000*%
%ADD48R,1.400000X1.800000*%
%ADD49R,0.900000X0.775000*%
%ADD50R,1.050000X0.700000*%
%ADD51R,1.470000X0.700000*%
%ADD52R,2.700000X0.700000*%
%ADD53C,1.250000*%
%ADD54C,0.150000*%
%ADD55R,1.400000X2.200000*%
%ADD56R,2.600000X2.240000*%
%ADD57C,1.400000*%
%ADD58C,0.490002*%
%ADD59R,0.470000X0.580000*%
%ADD60C,0.525004*%
%ADD61R,0.650000X0.620000*%
%ADD62C,0.482000*%
%ADD63R,1.040000X0.740000*%
%ADD64R,0.740000X1.040000*%
%ADD65R,0.840000X1.290000*%
%ADD66R,4.340000X3.440000*%
%ADD67R,4.840000X1.690000*%
%ADD68R,1.850000X0.850000*%
%ADD69R,2.400000X1.040000*%
%ADD70R,1.200000X0.700000*%
G04 APERTURE END LIST*
D10*
G36*
X18771342Y-9048787D02*
X19048095Y-9048825D01*
X19015075Y-9065379D01*
X19007479Y-9069189D01*
X18997786Y-9074054D01*
X18986168Y-9079889D01*
X18972794Y-9086606D01*
X18957839Y-9094120D01*
X18941472Y-9102344D01*
X18923866Y-9111192D01*
X18905191Y-9120578D01*
X18885621Y-9130416D01*
X18865326Y-9140618D01*
X18844477Y-9151100D01*
X18823247Y-9161774D01*
X18801807Y-9172554D01*
X18780329Y-9183355D01*
X18758984Y-9194090D01*
X18737943Y-9204672D01*
X18717379Y-9215015D01*
X18697463Y-9225033D01*
X18678366Y-9234641D01*
X18660260Y-9243750D01*
X18643317Y-9252276D01*
X18627708Y-9260132D01*
X18613605Y-9267232D01*
X18603595Y-9272272D01*
X18589251Y-9279494D01*
X18572989Y-9287681D01*
X18555160Y-9296655D01*
X18536115Y-9306240D01*
X18516205Y-9316260D01*
X18495781Y-9326536D01*
X18475194Y-9336894D01*
X18454795Y-9347156D01*
X18434936Y-9357145D01*
X18415968Y-9366685D01*
X18405475Y-9371962D01*
X18386559Y-9381475D01*
X18366094Y-9391766D01*
X18344489Y-9402632D01*
X18322150Y-9413867D01*
X18299487Y-9425265D01*
X18276907Y-9436622D01*
X18254819Y-9447732D01*
X18233630Y-9458390D01*
X18213748Y-9468390D01*
X18195581Y-9477529D01*
X18189575Y-9480550D01*
X18171454Y-9489666D01*
X18151509Y-9499699D01*
X18130187Y-9510425D01*
X18107931Y-9521620D01*
X18085189Y-9533060D01*
X18062405Y-9544521D01*
X18040025Y-9555778D01*
X18018494Y-9566608D01*
X17998259Y-9576787D01*
X17980660Y-9585639D01*
X17947185Y-9602478D01*
X17915864Y-9618232D01*
X17886582Y-9632961D01*
X17859225Y-9646721D01*
X17833679Y-9659572D01*
X17809827Y-9671569D01*
X17787556Y-9682772D01*
X17766751Y-9693237D01*
X17747297Y-9703024D01*
X17729079Y-9712188D01*
X17711982Y-9720788D01*
X17695891Y-9728883D01*
X17680693Y-9736529D01*
X17666271Y-9743784D01*
X17652512Y-9750706D01*
X17639300Y-9757353D01*
X17626521Y-9763782D01*
X17614060Y-9770052D01*
X17601802Y-9776219D01*
X17589632Y-9782342D01*
X17577436Y-9788479D01*
X17565099Y-9794687D01*
X17563465Y-9795509D01*
X17547792Y-9803395D01*
X17530196Y-9812247D01*
X17511020Y-9821892D01*
X17490612Y-9832157D01*
X17469315Y-9842868D01*
X17447477Y-9853850D01*
X17425441Y-9864931D01*
X17403555Y-9875936D01*
X17382162Y-9886692D01*
X17361608Y-9897025D01*
X17342240Y-9906762D01*
X17341215Y-9907277D01*
X17317437Y-9919230D01*
X17294144Y-9930943D01*
X17271441Y-9942363D01*
X17249432Y-9953436D01*
X17228221Y-9964110D01*
X17207915Y-9974333D01*
X17188617Y-9984050D01*
X17170432Y-9993210D01*
X17153466Y-10001760D01*
X17137822Y-10009646D01*
X17123607Y-10016817D01*
X17110923Y-10023219D01*
X17099877Y-10028799D01*
X17090572Y-10033505D01*
X17083115Y-10037284D01*
X17077609Y-10040082D01*
X17074159Y-10041848D01*
X17072870Y-10042529D01*
X17072866Y-10042532D01*
X17073799Y-10043309D01*
X17076619Y-10045428D01*
X17081146Y-10048759D01*
X17087198Y-10053170D01*
X17094593Y-10058530D01*
X17103152Y-10064708D01*
X17112693Y-10071572D01*
X17123035Y-10078990D01*
X17131921Y-10085350D01*
X17140194Y-10091265D01*
X17150351Y-10098528D01*
X17162212Y-10107010D01*
X17175595Y-10116581D01*
X17190318Y-10127111D01*
X17206200Y-10138471D01*
X17223061Y-10150531D01*
X17240718Y-10163162D01*
X17258991Y-10176233D01*
X17277698Y-10189615D01*
X17296658Y-10203178D01*
X17315689Y-10216793D01*
X17334611Y-10230330D01*
X17343755Y-10236872D01*
X17362215Y-10250078D01*
X17380656Y-10263270D01*
X17398918Y-10276333D01*
X17416839Y-10289151D01*
X17434257Y-10301608D01*
X17451009Y-10313589D01*
X17466935Y-10324977D01*
X17481872Y-10335658D01*
X17495658Y-10345515D01*
X17508132Y-10354432D01*
X17519132Y-10362294D01*
X17528497Y-10368986D01*
X17536063Y-10374391D01*
X17539970Y-10377180D01*
X17546270Y-10381679D01*
X17554474Y-10387540D01*
X17564419Y-10394648D01*
X17575945Y-10402887D01*
X17588889Y-10412142D01*
X17603090Y-10422295D01*
X17618386Y-10433233D01*
X17634614Y-10444839D01*
X17651614Y-10456997D01*
X17669223Y-10469592D01*
X17687279Y-10482508D01*
X17705621Y-10495629D01*
X17724087Y-10508840D01*
X17736185Y-10517496D01*
X17769489Y-10541324D01*
X17800800Y-10563726D01*
X17830189Y-10584753D01*
X17857728Y-10604456D01*
X17883491Y-10622887D01*
X17907548Y-10640098D01*
X17929972Y-10656141D01*
X17950835Y-10671066D01*
X17970208Y-10684925D01*
X17988165Y-10697770D01*
X18004777Y-10709653D01*
X18020116Y-10720624D01*
X18034255Y-10730736D01*
X18047264Y-10740040D01*
X18059217Y-10748587D01*
X18070186Y-10756430D01*
X18080242Y-10763620D01*
X18089458Y-10770207D01*
X18097905Y-10776245D01*
X18105656Y-10781784D01*
X18112784Y-10786875D01*
X18119359Y-10791571D01*
X18124170Y-10795007D01*
X18130470Y-10799507D01*
X18138673Y-10805369D01*
X18148618Y-10812478D01*
X18160144Y-10820719D01*
X18173087Y-10829975D01*
X18187288Y-10840130D01*
X18202582Y-10851069D01*
X18218810Y-10862677D01*
X18235809Y-10874837D01*
X18253417Y-10887434D01*
X18271473Y-10900352D01*
X18289814Y-10913475D01*
X18308280Y-10926688D01*
X18320385Y-10935350D01*
X18338749Y-10948491D01*
X18357035Y-10961576D01*
X18375088Y-10974492D01*
X18392750Y-10987128D01*
X18409865Y-10999372D01*
X18426277Y-11011112D01*
X18441829Y-11022236D01*
X18456365Y-11032632D01*
X18469727Y-11042188D01*
X18481761Y-11050792D01*
X18492308Y-11058333D01*
X18501213Y-11064698D01*
X18508319Y-11069775D01*
X18512155Y-11072514D01*
X18517902Y-11076619D01*
X18525558Y-11082089D01*
X18534967Y-11088815D01*
X18545972Y-11096682D01*
X18558416Y-11105581D01*
X18572143Y-11115397D01*
X18586997Y-11126021D01*
X18602820Y-11137339D01*
X18619457Y-11149240D01*
X18636751Y-11161612D01*
X18654546Y-11174342D01*
X18672684Y-11187320D01*
X18691010Y-11200432D01*
X18703925Y-11209674D01*
X18722384Y-11222882D01*
X18740825Y-11236077D01*
X18759086Y-11249142D01*
X18777006Y-11261962D01*
X18794423Y-11274420D01*
X18811175Y-11286403D01*
X18827101Y-11297792D01*
X18842037Y-11308474D01*
X18855824Y-11318332D01*
X18868298Y-11327250D01*
X18879298Y-11335113D01*
X18888663Y-11341805D01*
X18896230Y-11347211D01*
X18900140Y-11350003D01*
X18906440Y-11354501D01*
X18914643Y-11360362D01*
X18924588Y-11367470D01*
X18936113Y-11375710D01*
X18949057Y-11384964D01*
X18963257Y-11395119D01*
X18978552Y-11406057D01*
X18994779Y-11417664D01*
X19011778Y-11429824D01*
X19029386Y-11442420D01*
X19047441Y-11455338D01*
X19065783Y-11468461D01*
X19084248Y-11481674D01*
X19096355Y-11490338D01*
X19114719Y-11503479D01*
X19133005Y-11516564D01*
X19151058Y-11529480D01*
X19168720Y-11542116D01*
X19185835Y-11554361D01*
X19202247Y-11566101D01*
X19217799Y-11577225D01*
X19232334Y-11587621D01*
X19245697Y-11597177D01*
X19257730Y-11605782D01*
X19268278Y-11613322D01*
X19277183Y-11619687D01*
X19284289Y-11624764D01*
X19288125Y-11627504D01*
X19293872Y-11631608D01*
X19301529Y-11637079D01*
X19310938Y-11643804D01*
X19321943Y-11651672D01*
X19334387Y-11660569D01*
X19348115Y-11670386D01*
X19362969Y-11681008D01*
X19378793Y-11692326D01*
X19395430Y-11704226D01*
X19412725Y-11716597D01*
X19430520Y-11729326D01*
X19448659Y-11742303D01*
X19466985Y-11755414D01*
X19479895Y-11764651D01*
X19498561Y-11778006D01*
X19517340Y-11791440D01*
X19536058Y-11804830D01*
X19554542Y-11818050D01*
X19572618Y-11830977D01*
X19590113Y-11843488D01*
X19606852Y-11855457D01*
X19622664Y-11866761D01*
X19637374Y-11877276D01*
X19650808Y-11886877D01*
X19662793Y-11895441D01*
X19673156Y-11902844D01*
X19681724Y-11908962D01*
X19685635Y-11911753D01*
X19696042Y-11919182D01*
X19705894Y-11926222D01*
X19714985Y-11932725D01*
X19723106Y-11938541D01*
X19730050Y-11943522D01*
X19735609Y-11947518D01*
X19739575Y-11950381D01*
X19741741Y-11951963D01*
X19742004Y-11952161D01*
X19742402Y-11952514D01*
X19742551Y-11952829D01*
X19742318Y-11953110D01*
X19741572Y-11953357D01*
X19740183Y-11953574D01*
X19738020Y-11953761D01*
X19734950Y-11953922D01*
X19730842Y-11954058D01*
X19725567Y-11954171D01*
X19718991Y-11954264D01*
X19710985Y-11954338D01*
X19701417Y-11954395D01*
X19690155Y-11954438D01*
X19677070Y-11954469D01*
X19662028Y-11954489D01*
X19644900Y-11954502D01*
X19625553Y-11954508D01*
X19603858Y-11954510D01*
X19593194Y-11954510D01*
X19441355Y-11954510D01*
X19437765Y-11951554D01*
X19435616Y-11949850D01*
X19431837Y-11946921D01*
X19426824Y-11943070D01*
X19420974Y-11938602D01*
X19415125Y-11934157D01*
X19407915Y-11928690D01*
X19400278Y-11922894D01*
X19392887Y-11917281D01*
X19386414Y-11912362D01*
X19383058Y-11909808D01*
X19368043Y-11898380D01*
X19354515Y-11888085D01*
X19341938Y-11878515D01*
X19329778Y-11869263D01*
X19327813Y-11867768D01*
X19320452Y-11862168D01*
X19312055Y-11855781D01*
X19303609Y-11849355D01*
X19296098Y-11843642D01*
X19295428Y-11843132D01*
X19288509Y-11837868D01*
X19280978Y-11832138D01*
X19273654Y-11826566D01*
X19267356Y-11821773D01*
X19266218Y-11820907D01*
X19259550Y-11815832D01*
X19251960Y-11810056D01*
X19244547Y-11804415D01*
X19240183Y-11801093D01*
X19234153Y-11796505D01*
X19226943Y-11791019D01*
X19219392Y-11785274D01*
X19212340Y-11779910D01*
X19211290Y-11779111D01*
X19196383Y-11767771D01*
X19182595Y-11757281D01*
X19170147Y-11747811D01*
X19159263Y-11739529D01*
X19150165Y-11732605D01*
X19149695Y-11732247D01*
X19143914Y-11727848D01*
X19136896Y-11722508D01*
X19129426Y-11716824D01*
X19122289Y-11711395D01*
X19120485Y-11710022D01*
X19113577Y-11704768D01*
X19106121Y-11699094D01*
X19098900Y-11693600D01*
X19092700Y-11688882D01*
X19091275Y-11687797D01*
X19085494Y-11683398D01*
X19078476Y-11678058D01*
X19071006Y-11672374D01*
X19063869Y-11666945D01*
X19062065Y-11665572D01*
X19055157Y-11660318D01*
X19047701Y-11654644D01*
X19040480Y-11649150D01*
X19034280Y-11644432D01*
X19032855Y-11643347D01*
X19027074Y-11638948D01*
X19020056Y-11633608D01*
X19012586Y-11627924D01*
X19005449Y-11622495D01*
X19003645Y-11621122D01*
X18996737Y-11615868D01*
X18989281Y-11610194D01*
X18982060Y-11604700D01*
X18975860Y-11599982D01*
X18974435Y-11598897D01*
X18968654Y-11594498D01*
X18961636Y-11589158D01*
X18954166Y-11583474D01*
X18947029Y-11578045D01*
X18945225Y-11576672D01*
X18938317Y-11571418D01*
X18930861Y-11565744D01*
X18923640Y-11560250D01*
X18917440Y-11555532D01*
X18916015Y-11554447D01*
X18910234Y-11550048D01*
X18903216Y-11544708D01*
X18895746Y-11539024D01*
X18888609Y-11533595D01*
X18886805Y-11532222D01*
X18879856Y-11526936D01*
X18872319Y-11521202D01*
X18864993Y-11515628D01*
X18858678Y-11510823D01*
X18857278Y-11509757D01*
X18850610Y-11504682D01*
X18843020Y-11498906D01*
X18835607Y-11493265D01*
X18831243Y-11489943D01*
X18825272Y-11485400D01*
X18818099Y-11479942D01*
X18810544Y-11474193D01*
X18803424Y-11468777D01*
X18802033Y-11467718D01*
X18794672Y-11462118D01*
X18786275Y-11455731D01*
X18777829Y-11449305D01*
X18770318Y-11443592D01*
X18769648Y-11443082D01*
X18762729Y-11437818D01*
X18755198Y-11432088D01*
X18747874Y-11426516D01*
X18741576Y-11421723D01*
X18740438Y-11420857D01*
X18733770Y-11415782D01*
X18726180Y-11410006D01*
X18718767Y-11404365D01*
X18714403Y-11401043D01*
X18708373Y-11396455D01*
X18701163Y-11390969D01*
X18693612Y-11385224D01*
X18686560Y-11379860D01*
X18685510Y-11379061D01*
X18670603Y-11367721D01*
X18656815Y-11357231D01*
X18644367Y-11347761D01*
X18633483Y-11339479D01*
X18624385Y-11332555D01*
X18623915Y-11332197D01*
X18618134Y-11327798D01*
X18611116Y-11322458D01*
X18603646Y-11316774D01*
X18596509Y-11311345D01*
X18594705Y-11309972D01*
X18587797Y-11304718D01*
X18580341Y-11299044D01*
X18573120Y-11293550D01*
X18566920Y-11288832D01*
X18565495Y-11287747D01*
X18559714Y-11283348D01*
X18552696Y-11278008D01*
X18545226Y-11272324D01*
X18538089Y-11266895D01*
X18536285Y-11265522D01*
X18529377Y-11260268D01*
X18521921Y-11254594D01*
X18514700Y-11249100D01*
X18508500Y-11244382D01*
X18507075Y-11243297D01*
X18501294Y-11238898D01*
X18494276Y-11233558D01*
X18486806Y-11227874D01*
X18479669Y-11222445D01*
X18477865Y-11221072D01*
X18470957Y-11215818D01*
X18463501Y-11210144D01*
X18456280Y-11204650D01*
X18450080Y-11199932D01*
X18448655Y-11198847D01*
X18442874Y-11194448D01*
X18435856Y-11189108D01*
X18428386Y-11183424D01*
X18421249Y-11177995D01*
X18419445Y-11176623D01*
X18412537Y-11171368D01*
X18405081Y-11165694D01*
X18397860Y-11160200D01*
X18391660Y-11155482D01*
X18390235Y-11154398D01*
X18384454Y-11149998D01*
X18377436Y-11144658D01*
X18369966Y-11138974D01*
X18362829Y-11133545D01*
X18361025Y-11132173D01*
X18354117Y-11126918D01*
X18346661Y-11121244D01*
X18339440Y-11115750D01*
X18333240Y-11111032D01*
X18331815Y-11109948D01*
X18326034Y-11105548D01*
X18319016Y-11100208D01*
X18311546Y-11094524D01*
X18304409Y-11089095D01*
X18302605Y-11087723D01*
X18295697Y-11082468D01*
X18288241Y-11076794D01*
X18281020Y-11071300D01*
X18274820Y-11066582D01*
X18273395Y-11065498D01*
X18267614Y-11061098D01*
X18260596Y-11055758D01*
X18253126Y-11050074D01*
X18245989Y-11044645D01*
X18244185Y-11043273D01*
X18237277Y-11038018D01*
X18229821Y-11032344D01*
X18222600Y-11026850D01*
X18216400Y-11022132D01*
X18214975Y-11021048D01*
X18209194Y-11016648D01*
X18202176Y-11011308D01*
X18194706Y-11005624D01*
X18187569Y-11000195D01*
X18185765Y-10998823D01*
X18178857Y-10993568D01*
X18171401Y-10987894D01*
X18164180Y-10982400D01*
X18157980Y-10977682D01*
X18156555Y-10976598D01*
X18150774Y-10972198D01*
X18143756Y-10966858D01*
X18136286Y-10961174D01*
X18129149Y-10955745D01*
X18127345Y-10954373D01*
X18120437Y-10949118D01*
X18112981Y-10943444D01*
X18105760Y-10937950D01*
X18099560Y-10933232D01*
X18098135Y-10932148D01*
X18092354Y-10927748D01*
X18085336Y-10922408D01*
X18077866Y-10916724D01*
X18070729Y-10911295D01*
X18068925Y-10909923D01*
X18062017Y-10904668D01*
X18054561Y-10898995D01*
X18047340Y-10893501D01*
X18041140Y-10888782D01*
X18039715Y-10887698D01*
X18033931Y-10883298D01*
X18026910Y-10877960D01*
X18019437Y-10872281D01*
X18012298Y-10866859D01*
X18010505Y-10865497D01*
X18003594Y-10860247D01*
X17996133Y-10854573D01*
X17988909Y-10849075D01*
X17982709Y-10844351D01*
X17981295Y-10843272D01*
X17975511Y-10838863D01*
X17968488Y-10833517D01*
X17961015Y-10827832D01*
X17953875Y-10822407D01*
X17952085Y-10821047D01*
X17945090Y-10815732D01*
X17937467Y-10809930D01*
X17930032Y-10804264D01*
X17923600Y-10799354D01*
X17922240Y-10798315D01*
X17916066Y-10793602D01*
X17908725Y-10788010D01*
X17901077Y-10782195D01*
X17893981Y-10776810D01*
X17893030Y-10776089D01*
X17886089Y-10770823D01*
X17878469Y-10765031D01*
X17871028Y-10759365D01*
X17864627Y-10754481D01*
X17863820Y-10753864D01*
X17857646Y-10749151D01*
X17850306Y-10743560D01*
X17842658Y-10737745D01*
X17835562Y-10732359D01*
X17834610Y-10731638D01*
X17827318Y-10726108D01*
X17819001Y-10719793D01*
X17810653Y-10713449D01*
X17803267Y-10707831D01*
X17802860Y-10707521D01*
X17795972Y-10702277D01*
X17788447Y-10696548D01*
X17781124Y-10690974D01*
X17774844Y-10686194D01*
X17773968Y-10685527D01*
X17767300Y-10680452D01*
X17759710Y-10674676D01*
X17752297Y-10669035D01*
X17747933Y-10665713D01*
X17741962Y-10661170D01*
X17734789Y-10655712D01*
X17727234Y-10649963D01*
X17720114Y-10644547D01*
X17718723Y-10643488D01*
X17711362Y-10637889D01*
X17702965Y-10631501D01*
X17694519Y-10625075D01*
X17687008Y-10619362D01*
X17686338Y-10618852D01*
X17679461Y-10613620D01*
X17672012Y-10607953D01*
X17664795Y-10602461D01*
X17658614Y-10597758D01*
X17657445Y-10596868D01*
X17651664Y-10592468D01*
X17644646Y-10587128D01*
X17637176Y-10581444D01*
X17630039Y-10576015D01*
X17628235Y-10574643D01*
X17621327Y-10569388D01*
X17613871Y-10563714D01*
X17606650Y-10558220D01*
X17600450Y-10553502D01*
X17599025Y-10552418D01*
X17593244Y-10548018D01*
X17586226Y-10542678D01*
X17578756Y-10536994D01*
X17571619Y-10531565D01*
X17569815Y-10530193D01*
X17562907Y-10524938D01*
X17555451Y-10519264D01*
X17548230Y-10513770D01*
X17542030Y-10509052D01*
X17540605Y-10507968D01*
X17534824Y-10503568D01*
X17527806Y-10498228D01*
X17520336Y-10492544D01*
X17513199Y-10487115D01*
X17511395Y-10485743D01*
X17504487Y-10480488D01*
X17497031Y-10474814D01*
X17489810Y-10469320D01*
X17483610Y-10464602D01*
X17482185Y-10463518D01*
X17476404Y-10459118D01*
X17469386Y-10453778D01*
X17461916Y-10448094D01*
X17454779Y-10442665D01*
X17452975Y-10441293D01*
X17446067Y-10436038D01*
X17438611Y-10430364D01*
X17431390Y-10424870D01*
X17425190Y-10420152D01*
X17423765Y-10419068D01*
X17417984Y-10414668D01*
X17410966Y-10409328D01*
X17403496Y-10403644D01*
X17396359Y-10398215D01*
X17394555Y-10396843D01*
X17387647Y-10391588D01*
X17380191Y-10385914D01*
X17372970Y-10380420D01*
X17366770Y-10375702D01*
X17365345Y-10374618D01*
X17359564Y-10370218D01*
X17352546Y-10364878D01*
X17345076Y-10359194D01*
X17337939Y-10353765D01*
X17336135Y-10352393D01*
X17329227Y-10347138D01*
X17321771Y-10341464D01*
X17314550Y-10335970D01*
X17308350Y-10331252D01*
X17306925Y-10330168D01*
X17301144Y-10325768D01*
X17294126Y-10320428D01*
X17286656Y-10314744D01*
X17279519Y-10309315D01*
X17277715Y-10307943D01*
X17270807Y-10302688D01*
X17263351Y-10297014D01*
X17256130Y-10291520D01*
X17249930Y-10286802D01*
X17248505Y-10285718D01*
X17242724Y-10281318D01*
X17235706Y-10275978D01*
X17228236Y-10270294D01*
X17221099Y-10264865D01*
X17219295Y-10263493D01*
X17212387Y-10258238D01*
X17204931Y-10252564D01*
X17197710Y-10247070D01*
X17191510Y-10242352D01*
X17190085Y-10241268D01*
X17184304Y-10236868D01*
X17177286Y-10231528D01*
X17169816Y-10225844D01*
X17162679Y-10220415D01*
X17160875Y-10219043D01*
X17153967Y-10213788D01*
X17146511Y-10208114D01*
X17139290Y-10202620D01*
X17133090Y-10197902D01*
X17131665Y-10196818D01*
X17125884Y-10192418D01*
X17118866Y-10187078D01*
X17111396Y-10181394D01*
X17104259Y-10175965D01*
X17102455Y-10174593D01*
X17095547Y-10169338D01*
X17088091Y-10163664D01*
X17080870Y-10158170D01*
X17074670Y-10153452D01*
X17073245Y-10152368D01*
X17067464Y-10147968D01*
X17060446Y-10142628D01*
X17052976Y-10136944D01*
X17045839Y-10131515D01*
X17044035Y-10130143D01*
X17037127Y-10124888D01*
X17029671Y-10119214D01*
X17022450Y-10113720D01*
X17016250Y-10109002D01*
X17014825Y-10107918D01*
X17009044Y-10103518D01*
X17002026Y-10098178D01*
X16994556Y-10092494D01*
X16987419Y-10087065D01*
X16985615Y-10085693D01*
X16978666Y-10080407D01*
X16971129Y-10074672D01*
X16963803Y-10069098D01*
X16957488Y-10064293D01*
X16956088Y-10063227D01*
X16949420Y-10058152D01*
X16941830Y-10052376D01*
X16934417Y-10046735D01*
X16930053Y-10043413D01*
X16924138Y-10038913D01*
X16917002Y-10033483D01*
X16909443Y-10027732D01*
X16902261Y-10022268D01*
X16900525Y-10020947D01*
X16893617Y-10015692D01*
X16886160Y-10010017D01*
X16878939Y-10004521D01*
X16872739Y-9999800D01*
X16871315Y-9998715D01*
X16865098Y-9993981D01*
X16858333Y-9988831D01*
X16851963Y-9983983D01*
X16848138Y-9981073D01*
X16843798Y-9977693D01*
X16840343Y-9974850D01*
X16838196Y-9972903D01*
X16837698Y-9972254D01*
X16838767Y-9971391D01*
X16841703Y-9969538D01*
X16846141Y-9966913D01*
X16851713Y-9963733D01*
X16856430Y-9961108D01*
X16861200Y-9958472D01*
X16867896Y-9954761D01*
X16876229Y-9950134D01*
X16885907Y-9944755D01*
X16896639Y-9938785D01*
X16908135Y-9932385D01*
X16920103Y-9925717D01*
X16932253Y-9918944D01*
X16936085Y-9916807D01*
X16948905Y-9909657D01*
X16962181Y-9902256D01*
X16975534Y-9894814D01*
X16988586Y-9887541D01*
X17000959Y-9880649D01*
X17012275Y-9874347D01*
X17022155Y-9868848D01*
X17030222Y-9864362D01*
X17030700Y-9864096D01*
X17038629Y-9859687D01*
X17048397Y-9854250D01*
X17059627Y-9847998D01*
X17071940Y-9841140D01*
X17084958Y-9833888D01*
X17098303Y-9826452D01*
X17111597Y-9819042D01*
X17124460Y-9811870D01*
X17125315Y-9811393D01*
X17138135Y-9804245D01*
X17151411Y-9796845D01*
X17164765Y-9789403D01*
X17177818Y-9782131D01*
X17190191Y-9775240D01*
X17201507Y-9768939D01*
X17211388Y-9763440D01*
X17219454Y-9758953D01*
X17219930Y-9758688D01*
X17227859Y-9754278D01*
X17237627Y-9748842D01*
X17248857Y-9742589D01*
X17261170Y-9735731D01*
X17274188Y-9728478D01*
X17287533Y-9721042D01*
X17300827Y-9713632D01*
X17313690Y-9706460D01*
X17314545Y-9705983D01*
X17327365Y-9698835D01*
X17340641Y-9691435D01*
X17353995Y-9683993D01*
X17367048Y-9676721D01*
X17379421Y-9669830D01*
X17390737Y-9663529D01*
X17400618Y-9658030D01*
X17408684Y-9653543D01*
X17409160Y-9653278D01*
X17417089Y-9648868D01*
X17426857Y-9643432D01*
X17438087Y-9637179D01*
X17450400Y-9630321D01*
X17463418Y-9623068D01*
X17476763Y-9615632D01*
X17490057Y-9608222D01*
X17502920Y-9601050D01*
X17503775Y-9600573D01*
X17516595Y-9593425D01*
X17529871Y-9586025D01*
X17543225Y-9578583D01*
X17556278Y-9571311D01*
X17568651Y-9564420D01*
X17579967Y-9558119D01*
X17589848Y-9552620D01*
X17597914Y-9548133D01*
X17598390Y-9547868D01*
X17606319Y-9543458D01*
X17616087Y-9538022D01*
X17627317Y-9531769D01*
X17639630Y-9524911D01*
X17652648Y-9517658D01*
X17665993Y-9510222D01*
X17679287Y-9502812D01*
X17692150Y-9495640D01*
X17693005Y-9495163D01*
X17705825Y-9488015D01*
X17719101Y-9480615D01*
X17732455Y-9473173D01*
X17745508Y-9465901D01*
X17757881Y-9459010D01*
X17769197Y-9452709D01*
X17779078Y-9447210D01*
X17787144Y-9442723D01*
X17787620Y-9442458D01*
X17795549Y-9438048D01*
X17805317Y-9432612D01*
X17816547Y-9426359D01*
X17828860Y-9419501D01*
X17841878Y-9412248D01*
X17855223Y-9404812D01*
X17868517Y-9397402D01*
X17881380Y-9390230D01*
X17882235Y-9389753D01*
X17895055Y-9382605D01*
X17908331Y-9375205D01*
X17921685Y-9367763D01*
X17934738Y-9360491D01*
X17947111Y-9353600D01*
X17958427Y-9347299D01*
X17968308Y-9341800D01*
X17976374Y-9337313D01*
X17976850Y-9337048D01*
X17984779Y-9332638D01*
X17994547Y-9327202D01*
X18005777Y-9320949D01*
X18018090Y-9314091D01*
X18031108Y-9306838D01*
X18044453Y-9299402D01*
X18057747Y-9291992D01*
X18070610Y-9284820D01*
X18071465Y-9284343D01*
X18084285Y-9277195D01*
X18097562Y-9269794D01*
X18110915Y-9262352D01*
X18123968Y-9255080D01*
X18136341Y-9248187D01*
X18147658Y-9241886D01*
X18157538Y-9236386D01*
X18165604Y-9231898D01*
X18166080Y-9231633D01*
X18176889Y-9225621D01*
X18188670Y-9219066D01*
X18201551Y-9211896D01*
X18215663Y-9204039D01*
X18231135Y-9195422D01*
X18248097Y-9185974D01*
X18266678Y-9175622D01*
X18287007Y-9164294D01*
X18309215Y-9151917D01*
X18333431Y-9138421D01*
X18349595Y-9129412D01*
X18362824Y-9122040D01*
X18376841Y-9114231D01*
X18391214Y-9106227D01*
X18405508Y-9098270D01*
X18419288Y-9090600D01*
X18432121Y-9083461D01*
X18443572Y-9077093D01*
X18452572Y-9072092D01*
X18494588Y-9048750D01*
X18771342Y-9048787D01*
X18771342Y-9048787D01*
G37*
X18771342Y-9048787D02*
X19048095Y-9048825D01*
X19015075Y-9065379D01*
X19007479Y-9069189D01*
X18997786Y-9074054D01*
X18986168Y-9079889D01*
X18972794Y-9086606D01*
X18957839Y-9094120D01*
X18941472Y-9102344D01*
X18923866Y-9111192D01*
X18905191Y-9120578D01*
X18885621Y-9130416D01*
X18865326Y-9140618D01*
X18844477Y-9151100D01*
X18823247Y-9161774D01*
X18801807Y-9172554D01*
X18780329Y-9183355D01*
X18758984Y-9194090D01*
X18737943Y-9204672D01*
X18717379Y-9215015D01*
X18697463Y-9225033D01*
X18678366Y-9234641D01*
X18660260Y-9243750D01*
X18643317Y-9252276D01*
X18627708Y-9260132D01*
X18613605Y-9267232D01*
X18603595Y-9272272D01*
X18589251Y-9279494D01*
X18572989Y-9287681D01*
X18555160Y-9296655D01*
X18536115Y-9306240D01*
X18516205Y-9316260D01*
X18495781Y-9326536D01*
X18475194Y-9336894D01*
X18454795Y-9347156D01*
X18434936Y-9357145D01*
X18415968Y-9366685D01*
X18405475Y-9371962D01*
X18386559Y-9381475D01*
X18366094Y-9391766D01*
X18344489Y-9402632D01*
X18322150Y-9413867D01*
X18299487Y-9425265D01*
X18276907Y-9436622D01*
X18254819Y-9447732D01*
X18233630Y-9458390D01*
X18213748Y-9468390D01*
X18195581Y-9477529D01*
X18189575Y-9480550D01*
X18171454Y-9489666D01*
X18151509Y-9499699D01*
X18130187Y-9510425D01*
X18107931Y-9521620D01*
X18085189Y-9533060D01*
X18062405Y-9544521D01*
X18040025Y-9555778D01*
X18018494Y-9566608D01*
X17998259Y-9576787D01*
X17980660Y-9585639D01*
X17947185Y-9602478D01*
X17915864Y-9618232D01*
X17886582Y-9632961D01*
X17859225Y-9646721D01*
X17833679Y-9659572D01*
X17809827Y-9671569D01*
X17787556Y-9682772D01*
X17766751Y-9693237D01*
X17747297Y-9703024D01*
X17729079Y-9712188D01*
X17711982Y-9720788D01*
X17695891Y-9728883D01*
X17680693Y-9736529D01*
X17666271Y-9743784D01*
X17652512Y-9750706D01*
X17639300Y-9757353D01*
X17626521Y-9763782D01*
X17614060Y-9770052D01*
X17601802Y-9776219D01*
X17589632Y-9782342D01*
X17577436Y-9788479D01*
X17565099Y-9794687D01*
X17563465Y-9795509D01*
X17547792Y-9803395D01*
X17530196Y-9812247D01*
X17511020Y-9821892D01*
X17490612Y-9832157D01*
X17469315Y-9842868D01*
X17447477Y-9853850D01*
X17425441Y-9864931D01*
X17403555Y-9875936D01*
X17382162Y-9886692D01*
X17361608Y-9897025D01*
X17342240Y-9906762D01*
X17341215Y-9907277D01*
X17317437Y-9919230D01*
X17294144Y-9930943D01*
X17271441Y-9942363D01*
X17249432Y-9953436D01*
X17228221Y-9964110D01*
X17207915Y-9974333D01*
X17188617Y-9984050D01*
X17170432Y-9993210D01*
X17153466Y-10001760D01*
X17137822Y-10009646D01*
X17123607Y-10016817D01*
X17110923Y-10023219D01*
X17099877Y-10028799D01*
X17090572Y-10033505D01*
X17083115Y-10037284D01*
X17077609Y-10040082D01*
X17074159Y-10041848D01*
X17072870Y-10042529D01*
X17072866Y-10042532D01*
X17073799Y-10043309D01*
X17076619Y-10045428D01*
X17081146Y-10048759D01*
X17087198Y-10053170D01*
X17094593Y-10058530D01*
X17103152Y-10064708D01*
X17112693Y-10071572D01*
X17123035Y-10078990D01*
X17131921Y-10085350D01*
X17140194Y-10091265D01*
X17150351Y-10098528D01*
X17162212Y-10107010D01*
X17175595Y-10116581D01*
X17190318Y-10127111D01*
X17206200Y-10138471D01*
X17223061Y-10150531D01*
X17240718Y-10163162D01*
X17258991Y-10176233D01*
X17277698Y-10189615D01*
X17296658Y-10203178D01*
X17315689Y-10216793D01*
X17334611Y-10230330D01*
X17343755Y-10236872D01*
X17362215Y-10250078D01*
X17380656Y-10263270D01*
X17398918Y-10276333D01*
X17416839Y-10289151D01*
X17434257Y-10301608D01*
X17451009Y-10313589D01*
X17466935Y-10324977D01*
X17481872Y-10335658D01*
X17495658Y-10345515D01*
X17508132Y-10354432D01*
X17519132Y-10362294D01*
X17528497Y-10368986D01*
X17536063Y-10374391D01*
X17539970Y-10377180D01*
X17546270Y-10381679D01*
X17554474Y-10387540D01*
X17564419Y-10394648D01*
X17575945Y-10402887D01*
X17588889Y-10412142D01*
X17603090Y-10422295D01*
X17618386Y-10433233D01*
X17634614Y-10444839D01*
X17651614Y-10456997D01*
X17669223Y-10469592D01*
X17687279Y-10482508D01*
X17705621Y-10495629D01*
X17724087Y-10508840D01*
X17736185Y-10517496D01*
X17769489Y-10541324D01*
X17800800Y-10563726D01*
X17830189Y-10584753D01*
X17857728Y-10604456D01*
X17883491Y-10622887D01*
X17907548Y-10640098D01*
X17929972Y-10656141D01*
X17950835Y-10671066D01*
X17970208Y-10684925D01*
X17988165Y-10697770D01*
X18004777Y-10709653D01*
X18020116Y-10720624D01*
X18034255Y-10730736D01*
X18047264Y-10740040D01*
X18059217Y-10748587D01*
X18070186Y-10756430D01*
X18080242Y-10763620D01*
X18089458Y-10770207D01*
X18097905Y-10776245D01*
X18105656Y-10781784D01*
X18112784Y-10786875D01*
X18119359Y-10791571D01*
X18124170Y-10795007D01*
X18130470Y-10799507D01*
X18138673Y-10805369D01*
X18148618Y-10812478D01*
X18160144Y-10820719D01*
X18173087Y-10829975D01*
X18187288Y-10840130D01*
X18202582Y-10851069D01*
X18218810Y-10862677D01*
X18235809Y-10874837D01*
X18253417Y-10887434D01*
X18271473Y-10900352D01*
X18289814Y-10913475D01*
X18308280Y-10926688D01*
X18320385Y-10935350D01*
X18338749Y-10948491D01*
X18357035Y-10961576D01*
X18375088Y-10974492D01*
X18392750Y-10987128D01*
X18409865Y-10999372D01*
X18426277Y-11011112D01*
X18441829Y-11022236D01*
X18456365Y-11032632D01*
X18469727Y-11042188D01*
X18481761Y-11050792D01*
X18492308Y-11058333D01*
X18501213Y-11064698D01*
X18508319Y-11069775D01*
X18512155Y-11072514D01*
X18517902Y-11076619D01*
X18525558Y-11082089D01*
X18534967Y-11088815D01*
X18545972Y-11096682D01*
X18558416Y-11105581D01*
X18572143Y-11115397D01*
X18586997Y-11126021D01*
X18602820Y-11137339D01*
X18619457Y-11149240D01*
X18636751Y-11161612D01*
X18654546Y-11174342D01*
X18672684Y-11187320D01*
X18691010Y-11200432D01*
X18703925Y-11209674D01*
X18722384Y-11222882D01*
X18740825Y-11236077D01*
X18759086Y-11249142D01*
X18777006Y-11261962D01*
X18794423Y-11274420D01*
X18811175Y-11286403D01*
X18827101Y-11297792D01*
X18842037Y-11308474D01*
X18855824Y-11318332D01*
X18868298Y-11327250D01*
X18879298Y-11335113D01*
X18888663Y-11341805D01*
X18896230Y-11347211D01*
X18900140Y-11350003D01*
X18906440Y-11354501D01*
X18914643Y-11360362D01*
X18924588Y-11367470D01*
X18936113Y-11375710D01*
X18949057Y-11384964D01*
X18963257Y-11395119D01*
X18978552Y-11406057D01*
X18994779Y-11417664D01*
X19011778Y-11429824D01*
X19029386Y-11442420D01*
X19047441Y-11455338D01*
X19065783Y-11468461D01*
X19084248Y-11481674D01*
X19096355Y-11490338D01*
X19114719Y-11503479D01*
X19133005Y-11516564D01*
X19151058Y-11529480D01*
X19168720Y-11542116D01*
X19185835Y-11554361D01*
X19202247Y-11566101D01*
X19217799Y-11577225D01*
X19232334Y-11587621D01*
X19245697Y-11597177D01*
X19257730Y-11605782D01*
X19268278Y-11613322D01*
X19277183Y-11619687D01*
X19284289Y-11624764D01*
X19288125Y-11627504D01*
X19293872Y-11631608D01*
X19301529Y-11637079D01*
X19310938Y-11643804D01*
X19321943Y-11651672D01*
X19334387Y-11660569D01*
X19348115Y-11670386D01*
X19362969Y-11681008D01*
X19378793Y-11692326D01*
X19395430Y-11704226D01*
X19412725Y-11716597D01*
X19430520Y-11729326D01*
X19448659Y-11742303D01*
X19466985Y-11755414D01*
X19479895Y-11764651D01*
X19498561Y-11778006D01*
X19517340Y-11791440D01*
X19536058Y-11804830D01*
X19554542Y-11818050D01*
X19572618Y-11830977D01*
X19590113Y-11843488D01*
X19606852Y-11855457D01*
X19622664Y-11866761D01*
X19637374Y-11877276D01*
X19650808Y-11886877D01*
X19662793Y-11895441D01*
X19673156Y-11902844D01*
X19681724Y-11908962D01*
X19685635Y-11911753D01*
X19696042Y-11919182D01*
X19705894Y-11926222D01*
X19714985Y-11932725D01*
X19723106Y-11938541D01*
X19730050Y-11943522D01*
X19735609Y-11947518D01*
X19739575Y-11950381D01*
X19741741Y-11951963D01*
X19742004Y-11952161D01*
X19742402Y-11952514D01*
X19742551Y-11952829D01*
X19742318Y-11953110D01*
X19741572Y-11953357D01*
X19740183Y-11953574D01*
X19738020Y-11953761D01*
X19734950Y-11953922D01*
X19730842Y-11954058D01*
X19725567Y-11954171D01*
X19718991Y-11954264D01*
X19710985Y-11954338D01*
X19701417Y-11954395D01*
X19690155Y-11954438D01*
X19677070Y-11954469D01*
X19662028Y-11954489D01*
X19644900Y-11954502D01*
X19625553Y-11954508D01*
X19603858Y-11954510D01*
X19593194Y-11954510D01*
X19441355Y-11954510D01*
X19437765Y-11951554D01*
X19435616Y-11949850D01*
X19431837Y-11946921D01*
X19426824Y-11943070D01*
X19420974Y-11938602D01*
X19415125Y-11934157D01*
X19407915Y-11928690D01*
X19400278Y-11922894D01*
X19392887Y-11917281D01*
X19386414Y-11912362D01*
X19383058Y-11909808D01*
X19368043Y-11898380D01*
X19354515Y-11888085D01*
X19341938Y-11878515D01*
X19329778Y-11869263D01*
X19327813Y-11867768D01*
X19320452Y-11862168D01*
X19312055Y-11855781D01*
X19303609Y-11849355D01*
X19296098Y-11843642D01*
X19295428Y-11843132D01*
X19288509Y-11837868D01*
X19280978Y-11832138D01*
X19273654Y-11826566D01*
X19267356Y-11821773D01*
X19266218Y-11820907D01*
X19259550Y-11815832D01*
X19251960Y-11810056D01*
X19244547Y-11804415D01*
X19240183Y-11801093D01*
X19234153Y-11796505D01*
X19226943Y-11791019D01*
X19219392Y-11785274D01*
X19212340Y-11779910D01*
X19211290Y-11779111D01*
X19196383Y-11767771D01*
X19182595Y-11757281D01*
X19170147Y-11747811D01*
X19159263Y-11739529D01*
X19150165Y-11732605D01*
X19149695Y-11732247D01*
X19143914Y-11727848D01*
X19136896Y-11722508D01*
X19129426Y-11716824D01*
X19122289Y-11711395D01*
X19120485Y-11710022D01*
X19113577Y-11704768D01*
X19106121Y-11699094D01*
X19098900Y-11693600D01*
X19092700Y-11688882D01*
X19091275Y-11687797D01*
X19085494Y-11683398D01*
X19078476Y-11678058D01*
X19071006Y-11672374D01*
X19063869Y-11666945D01*
X19062065Y-11665572D01*
X19055157Y-11660318D01*
X19047701Y-11654644D01*
X19040480Y-11649150D01*
X19034280Y-11644432D01*
X19032855Y-11643347D01*
X19027074Y-11638948D01*
X19020056Y-11633608D01*
X19012586Y-11627924D01*
X19005449Y-11622495D01*
X19003645Y-11621122D01*
X18996737Y-11615868D01*
X18989281Y-11610194D01*
X18982060Y-11604700D01*
X18975860Y-11599982D01*
X18974435Y-11598897D01*
X18968654Y-11594498D01*
X18961636Y-11589158D01*
X18954166Y-11583474D01*
X18947029Y-11578045D01*
X18945225Y-11576672D01*
X18938317Y-11571418D01*
X18930861Y-11565744D01*
X18923640Y-11560250D01*
X18917440Y-11555532D01*
X18916015Y-11554447D01*
X18910234Y-11550048D01*
X18903216Y-11544708D01*
X18895746Y-11539024D01*
X18888609Y-11533595D01*
X18886805Y-11532222D01*
X18879856Y-11526936D01*
X18872319Y-11521202D01*
X18864993Y-11515628D01*
X18858678Y-11510823D01*
X18857278Y-11509757D01*
X18850610Y-11504682D01*
X18843020Y-11498906D01*
X18835607Y-11493265D01*
X18831243Y-11489943D01*
X18825272Y-11485400D01*
X18818099Y-11479942D01*
X18810544Y-11474193D01*
X18803424Y-11468777D01*
X18802033Y-11467718D01*
X18794672Y-11462118D01*
X18786275Y-11455731D01*
X18777829Y-11449305D01*
X18770318Y-11443592D01*
X18769648Y-11443082D01*
X18762729Y-11437818D01*
X18755198Y-11432088D01*
X18747874Y-11426516D01*
X18741576Y-11421723D01*
X18740438Y-11420857D01*
X18733770Y-11415782D01*
X18726180Y-11410006D01*
X18718767Y-11404365D01*
X18714403Y-11401043D01*
X18708373Y-11396455D01*
X18701163Y-11390969D01*
X18693612Y-11385224D01*
X18686560Y-11379860D01*
X18685510Y-11379061D01*
X18670603Y-11367721D01*
X18656815Y-11357231D01*
X18644367Y-11347761D01*
X18633483Y-11339479D01*
X18624385Y-11332555D01*
X18623915Y-11332197D01*
X18618134Y-11327798D01*
X18611116Y-11322458D01*
X18603646Y-11316774D01*
X18596509Y-11311345D01*
X18594705Y-11309972D01*
X18587797Y-11304718D01*
X18580341Y-11299044D01*
X18573120Y-11293550D01*
X18566920Y-11288832D01*
X18565495Y-11287747D01*
X18559714Y-11283348D01*
X18552696Y-11278008D01*
X18545226Y-11272324D01*
X18538089Y-11266895D01*
X18536285Y-11265522D01*
X18529377Y-11260268D01*
X18521921Y-11254594D01*
X18514700Y-11249100D01*
X18508500Y-11244382D01*
X18507075Y-11243297D01*
X18501294Y-11238898D01*
X18494276Y-11233558D01*
X18486806Y-11227874D01*
X18479669Y-11222445D01*
X18477865Y-11221072D01*
X18470957Y-11215818D01*
X18463501Y-11210144D01*
X18456280Y-11204650D01*
X18450080Y-11199932D01*
X18448655Y-11198847D01*
X18442874Y-11194448D01*
X18435856Y-11189108D01*
X18428386Y-11183424D01*
X18421249Y-11177995D01*
X18419445Y-11176623D01*
X18412537Y-11171368D01*
X18405081Y-11165694D01*
X18397860Y-11160200D01*
X18391660Y-11155482D01*
X18390235Y-11154398D01*
X18384454Y-11149998D01*
X18377436Y-11144658D01*
X18369966Y-11138974D01*
X18362829Y-11133545D01*
X18361025Y-11132173D01*
X18354117Y-11126918D01*
X18346661Y-11121244D01*
X18339440Y-11115750D01*
X18333240Y-11111032D01*
X18331815Y-11109948D01*
X18326034Y-11105548D01*
X18319016Y-11100208D01*
X18311546Y-11094524D01*
X18304409Y-11089095D01*
X18302605Y-11087723D01*
X18295697Y-11082468D01*
X18288241Y-11076794D01*
X18281020Y-11071300D01*
X18274820Y-11066582D01*
X18273395Y-11065498D01*
X18267614Y-11061098D01*
X18260596Y-11055758D01*
X18253126Y-11050074D01*
X18245989Y-11044645D01*
X18244185Y-11043273D01*
X18237277Y-11038018D01*
X18229821Y-11032344D01*
X18222600Y-11026850D01*
X18216400Y-11022132D01*
X18214975Y-11021048D01*
X18209194Y-11016648D01*
X18202176Y-11011308D01*
X18194706Y-11005624D01*
X18187569Y-11000195D01*
X18185765Y-10998823D01*
X18178857Y-10993568D01*
X18171401Y-10987894D01*
X18164180Y-10982400D01*
X18157980Y-10977682D01*
X18156555Y-10976598D01*
X18150774Y-10972198D01*
X18143756Y-10966858D01*
X18136286Y-10961174D01*
X18129149Y-10955745D01*
X18127345Y-10954373D01*
X18120437Y-10949118D01*
X18112981Y-10943444D01*
X18105760Y-10937950D01*
X18099560Y-10933232D01*
X18098135Y-10932148D01*
X18092354Y-10927748D01*
X18085336Y-10922408D01*
X18077866Y-10916724D01*
X18070729Y-10911295D01*
X18068925Y-10909923D01*
X18062017Y-10904668D01*
X18054561Y-10898995D01*
X18047340Y-10893501D01*
X18041140Y-10888782D01*
X18039715Y-10887698D01*
X18033931Y-10883298D01*
X18026910Y-10877960D01*
X18019437Y-10872281D01*
X18012298Y-10866859D01*
X18010505Y-10865497D01*
X18003594Y-10860247D01*
X17996133Y-10854573D01*
X17988909Y-10849075D01*
X17982709Y-10844351D01*
X17981295Y-10843272D01*
X17975511Y-10838863D01*
X17968488Y-10833517D01*
X17961015Y-10827832D01*
X17953875Y-10822407D01*
X17952085Y-10821047D01*
X17945090Y-10815732D01*
X17937467Y-10809930D01*
X17930032Y-10804264D01*
X17923600Y-10799354D01*
X17922240Y-10798315D01*
X17916066Y-10793602D01*
X17908725Y-10788010D01*
X17901077Y-10782195D01*
X17893981Y-10776810D01*
X17893030Y-10776089D01*
X17886089Y-10770823D01*
X17878469Y-10765031D01*
X17871028Y-10759365D01*
X17864627Y-10754481D01*
X17863820Y-10753864D01*
X17857646Y-10749151D01*
X17850306Y-10743560D01*
X17842658Y-10737745D01*
X17835562Y-10732359D01*
X17834610Y-10731638D01*
X17827318Y-10726108D01*
X17819001Y-10719793D01*
X17810653Y-10713449D01*
X17803267Y-10707831D01*
X17802860Y-10707521D01*
X17795972Y-10702277D01*
X17788447Y-10696548D01*
X17781124Y-10690974D01*
X17774844Y-10686194D01*
X17773968Y-10685527D01*
X17767300Y-10680452D01*
X17759710Y-10674676D01*
X17752297Y-10669035D01*
X17747933Y-10665713D01*
X17741962Y-10661170D01*
X17734789Y-10655712D01*
X17727234Y-10649963D01*
X17720114Y-10644547D01*
X17718723Y-10643488D01*
X17711362Y-10637889D01*
X17702965Y-10631501D01*
X17694519Y-10625075D01*
X17687008Y-10619362D01*
X17686338Y-10618852D01*
X17679461Y-10613620D01*
X17672012Y-10607953D01*
X17664795Y-10602461D01*
X17658614Y-10597758D01*
X17657445Y-10596868D01*
X17651664Y-10592468D01*
X17644646Y-10587128D01*
X17637176Y-10581444D01*
X17630039Y-10576015D01*
X17628235Y-10574643D01*
X17621327Y-10569388D01*
X17613871Y-10563714D01*
X17606650Y-10558220D01*
X17600450Y-10553502D01*
X17599025Y-10552418D01*
X17593244Y-10548018D01*
X17586226Y-10542678D01*
X17578756Y-10536994D01*
X17571619Y-10531565D01*
X17569815Y-10530193D01*
X17562907Y-10524938D01*
X17555451Y-10519264D01*
X17548230Y-10513770D01*
X17542030Y-10509052D01*
X17540605Y-10507968D01*
X17534824Y-10503568D01*
X17527806Y-10498228D01*
X17520336Y-10492544D01*
X17513199Y-10487115D01*
X17511395Y-10485743D01*
X17504487Y-10480488D01*
X17497031Y-10474814D01*
X17489810Y-10469320D01*
X17483610Y-10464602D01*
X17482185Y-10463518D01*
X17476404Y-10459118D01*
X17469386Y-10453778D01*
X17461916Y-10448094D01*
X17454779Y-10442665D01*
X17452975Y-10441293D01*
X17446067Y-10436038D01*
X17438611Y-10430364D01*
X17431390Y-10424870D01*
X17425190Y-10420152D01*
X17423765Y-10419068D01*
X17417984Y-10414668D01*
X17410966Y-10409328D01*
X17403496Y-10403644D01*
X17396359Y-10398215D01*
X17394555Y-10396843D01*
X17387647Y-10391588D01*
X17380191Y-10385914D01*
X17372970Y-10380420D01*
X17366770Y-10375702D01*
X17365345Y-10374618D01*
X17359564Y-10370218D01*
X17352546Y-10364878D01*
X17345076Y-10359194D01*
X17337939Y-10353765D01*
X17336135Y-10352393D01*
X17329227Y-10347138D01*
X17321771Y-10341464D01*
X17314550Y-10335970D01*
X17308350Y-10331252D01*
X17306925Y-10330168D01*
X17301144Y-10325768D01*
X17294126Y-10320428D01*
X17286656Y-10314744D01*
X17279519Y-10309315D01*
X17277715Y-10307943D01*
X17270807Y-10302688D01*
X17263351Y-10297014D01*
X17256130Y-10291520D01*
X17249930Y-10286802D01*
X17248505Y-10285718D01*
X17242724Y-10281318D01*
X17235706Y-10275978D01*
X17228236Y-10270294D01*
X17221099Y-10264865D01*
X17219295Y-10263493D01*
X17212387Y-10258238D01*
X17204931Y-10252564D01*
X17197710Y-10247070D01*
X17191510Y-10242352D01*
X17190085Y-10241268D01*
X17184304Y-10236868D01*
X17177286Y-10231528D01*
X17169816Y-10225844D01*
X17162679Y-10220415D01*
X17160875Y-10219043D01*
X17153967Y-10213788D01*
X17146511Y-10208114D01*
X17139290Y-10202620D01*
X17133090Y-10197902D01*
X17131665Y-10196818D01*
X17125884Y-10192418D01*
X17118866Y-10187078D01*
X17111396Y-10181394D01*
X17104259Y-10175965D01*
X17102455Y-10174593D01*
X17095547Y-10169338D01*
X17088091Y-10163664D01*
X17080870Y-10158170D01*
X17074670Y-10153452D01*
X17073245Y-10152368D01*
X17067464Y-10147968D01*
X17060446Y-10142628D01*
X17052976Y-10136944D01*
X17045839Y-10131515D01*
X17044035Y-10130143D01*
X17037127Y-10124888D01*
X17029671Y-10119214D01*
X17022450Y-10113720D01*
X17016250Y-10109002D01*
X17014825Y-10107918D01*
X17009044Y-10103518D01*
X17002026Y-10098178D01*
X16994556Y-10092494D01*
X16987419Y-10087065D01*
X16985615Y-10085693D01*
X16978666Y-10080407D01*
X16971129Y-10074672D01*
X16963803Y-10069098D01*
X16957488Y-10064293D01*
X16956088Y-10063227D01*
X16949420Y-10058152D01*
X16941830Y-10052376D01*
X16934417Y-10046735D01*
X16930053Y-10043413D01*
X16924138Y-10038913D01*
X16917002Y-10033483D01*
X16909443Y-10027732D01*
X16902261Y-10022268D01*
X16900525Y-10020947D01*
X16893617Y-10015692D01*
X16886160Y-10010017D01*
X16878939Y-10004521D01*
X16872739Y-9999800D01*
X16871315Y-9998715D01*
X16865098Y-9993981D01*
X16858333Y-9988831D01*
X16851963Y-9983983D01*
X16848138Y-9981073D01*
X16843798Y-9977693D01*
X16840343Y-9974850D01*
X16838196Y-9972903D01*
X16837698Y-9972254D01*
X16838767Y-9971391D01*
X16841703Y-9969538D01*
X16846141Y-9966913D01*
X16851713Y-9963733D01*
X16856430Y-9961108D01*
X16861200Y-9958472D01*
X16867896Y-9954761D01*
X16876229Y-9950134D01*
X16885907Y-9944755D01*
X16896639Y-9938785D01*
X16908135Y-9932385D01*
X16920103Y-9925717D01*
X16932253Y-9918944D01*
X16936085Y-9916807D01*
X16948905Y-9909657D01*
X16962181Y-9902256D01*
X16975534Y-9894814D01*
X16988586Y-9887541D01*
X17000959Y-9880649D01*
X17012275Y-9874347D01*
X17022155Y-9868848D01*
X17030222Y-9864362D01*
X17030700Y-9864096D01*
X17038629Y-9859687D01*
X17048397Y-9854250D01*
X17059627Y-9847998D01*
X17071940Y-9841140D01*
X17084958Y-9833888D01*
X17098303Y-9826452D01*
X17111597Y-9819042D01*
X17124460Y-9811870D01*
X17125315Y-9811393D01*
X17138135Y-9804245D01*
X17151411Y-9796845D01*
X17164765Y-9789403D01*
X17177818Y-9782131D01*
X17190191Y-9775240D01*
X17201507Y-9768939D01*
X17211388Y-9763440D01*
X17219454Y-9758953D01*
X17219930Y-9758688D01*
X17227859Y-9754278D01*
X17237627Y-9748842D01*
X17248857Y-9742589D01*
X17261170Y-9735731D01*
X17274188Y-9728478D01*
X17287533Y-9721042D01*
X17300827Y-9713632D01*
X17313690Y-9706460D01*
X17314545Y-9705983D01*
X17327365Y-9698835D01*
X17340641Y-9691435D01*
X17353995Y-9683993D01*
X17367048Y-9676721D01*
X17379421Y-9669830D01*
X17390737Y-9663529D01*
X17400618Y-9658030D01*
X17408684Y-9653543D01*
X17409160Y-9653278D01*
X17417089Y-9648868D01*
X17426857Y-9643432D01*
X17438087Y-9637179D01*
X17450400Y-9630321D01*
X17463418Y-9623068D01*
X17476763Y-9615632D01*
X17490057Y-9608222D01*
X17502920Y-9601050D01*
X17503775Y-9600573D01*
X17516595Y-9593425D01*
X17529871Y-9586025D01*
X17543225Y-9578583D01*
X17556278Y-9571311D01*
X17568651Y-9564420D01*
X17579967Y-9558119D01*
X17589848Y-9552620D01*
X17597914Y-9548133D01*
X17598390Y-9547868D01*
X17606319Y-9543458D01*
X17616087Y-9538022D01*
X17627317Y-9531769D01*
X17639630Y-9524911D01*
X17652648Y-9517658D01*
X17665993Y-9510222D01*
X17679287Y-9502812D01*
X17692150Y-9495640D01*
X17693005Y-9495163D01*
X17705825Y-9488015D01*
X17719101Y-9480615D01*
X17732455Y-9473173D01*
X17745508Y-9465901D01*
X17757881Y-9459010D01*
X17769197Y-9452709D01*
X17779078Y-9447210D01*
X17787144Y-9442723D01*
X17787620Y-9442458D01*
X17795549Y-9438048D01*
X17805317Y-9432612D01*
X17816547Y-9426359D01*
X17828860Y-9419501D01*
X17841878Y-9412248D01*
X17855223Y-9404812D01*
X17868517Y-9397402D01*
X17881380Y-9390230D01*
X17882235Y-9389753D01*
X17895055Y-9382605D01*
X17908331Y-9375205D01*
X17921685Y-9367763D01*
X17934738Y-9360491D01*
X17947111Y-9353600D01*
X17958427Y-9347299D01*
X17968308Y-9341800D01*
X17976374Y-9337313D01*
X17976850Y-9337048D01*
X17984779Y-9332638D01*
X17994547Y-9327202D01*
X18005777Y-9320949D01*
X18018090Y-9314091D01*
X18031108Y-9306838D01*
X18044453Y-9299402D01*
X18057747Y-9291992D01*
X18070610Y-9284820D01*
X18071465Y-9284343D01*
X18084285Y-9277195D01*
X18097562Y-9269794D01*
X18110915Y-9262352D01*
X18123968Y-9255080D01*
X18136341Y-9248187D01*
X18147658Y-9241886D01*
X18157538Y-9236386D01*
X18165604Y-9231898D01*
X18166080Y-9231633D01*
X18176889Y-9225621D01*
X18188670Y-9219066D01*
X18201551Y-9211896D01*
X18215663Y-9204039D01*
X18231135Y-9195422D01*
X18248097Y-9185974D01*
X18266678Y-9175622D01*
X18287007Y-9164294D01*
X18309215Y-9151917D01*
X18333431Y-9138421D01*
X18349595Y-9129412D01*
X18362824Y-9122040D01*
X18376841Y-9114231D01*
X18391214Y-9106227D01*
X18405508Y-9098270D01*
X18419288Y-9090600D01*
X18432121Y-9083461D01*
X18443572Y-9077093D01*
X18452572Y-9072092D01*
X18494588Y-9048750D01*
X18771342Y-9048787D01*
G36*
X9170329Y-9048824D02*
X9195171Y-9048828D01*
X9217996Y-9048837D01*
X9238890Y-9048851D01*
X9257940Y-9048870D01*
X9275233Y-9048895D01*
X9290855Y-9048927D01*
X9304895Y-9048965D01*
X9317439Y-9049012D01*
X9328574Y-9049066D01*
X9338387Y-9049129D01*
X9346965Y-9049201D01*
X9354395Y-9049283D01*
X9360764Y-9049375D01*
X9366159Y-9049478D01*
X9370667Y-9049592D01*
X9374375Y-9049718D01*
X9377370Y-9049856D01*
X9379739Y-9050007D01*
X9381569Y-9050172D01*
X9382947Y-9050351D01*
X9383960Y-9050544D01*
X9384696Y-9050752D01*
X9385240Y-9050976D01*
X9385545Y-9051137D01*
X9388045Y-9052555D01*
X9392287Y-9054959D01*
X9397802Y-9058082D01*
X9404120Y-9061658D01*
X9408795Y-9064304D01*
X9429272Y-9075893D01*
X9447993Y-9086492D01*
X9465415Y-9096358D01*
X9481995Y-9105750D01*
X9498188Y-9114927D01*
X9514450Y-9124147D01*
X9531239Y-9133669D01*
X9549010Y-9143751D01*
X9568218Y-9154653D01*
X9570720Y-9156073D01*
X9578628Y-9160559D01*
X9587783Y-9165750D01*
X9597224Y-9171101D01*
X9605988Y-9176065D01*
X9608820Y-9177669D01*
X9633267Y-9191513D01*
X9659558Y-9206413D01*
X9687799Y-9222427D01*
X9718094Y-9239615D01*
X9732010Y-9247513D01*
X9739986Y-9252038D01*
X9749189Y-9257256D01*
X9758632Y-9262607D01*
X9767333Y-9267535D01*
X9769793Y-9268928D01*
X9788313Y-9279414D01*
X9808823Y-9291036D01*
X9831107Y-9303668D01*
X9854947Y-9317190D01*
X9880127Y-9331476D01*
X9893300Y-9338953D01*
X9901276Y-9343478D01*
X9910479Y-9348696D01*
X9919922Y-9354047D01*
X9928623Y-9358975D01*
X9931083Y-9360368D01*
X9949603Y-9370854D01*
X9970113Y-9382476D01*
X9992397Y-9395108D01*
X10016237Y-9408630D01*
X10041417Y-9422916D01*
X10054590Y-9430393D01*
X10062566Y-9434918D01*
X10071769Y-9440136D01*
X10081212Y-9445487D01*
X10089913Y-9450415D01*
X10092373Y-9451808D01*
X10110893Y-9462294D01*
X10131403Y-9473916D01*
X10153687Y-9486548D01*
X10177527Y-9500070D01*
X10202707Y-9514356D01*
X10215880Y-9521833D01*
X10223927Y-9526398D01*
X10233177Y-9531642D01*
X10242622Y-9536995D01*
X10251255Y-9541884D01*
X10253345Y-9543067D01*
X10267967Y-9551345D01*
X10284535Y-9560732D01*
X10302787Y-9571076D01*
X10322459Y-9582231D01*
X10343290Y-9594047D01*
X10365018Y-9606376D01*
X10377170Y-9613273D01*
X10385146Y-9617798D01*
X10394349Y-9623016D01*
X10403792Y-9628367D01*
X10412493Y-9633295D01*
X10414953Y-9634688D01*
X10433473Y-9645174D01*
X10453983Y-9656796D01*
X10476267Y-9669428D01*
X10500107Y-9682950D01*
X10525287Y-9697236D01*
X10538460Y-9704713D01*
X10546507Y-9709278D01*
X10555757Y-9714522D01*
X10565202Y-9719875D01*
X10573835Y-9724764D01*
X10575925Y-9725947D01*
X10590547Y-9734225D01*
X10607115Y-9743612D01*
X10625367Y-9753956D01*
X10645039Y-9765111D01*
X10665870Y-9776927D01*
X10687598Y-9789256D01*
X10699750Y-9796153D01*
X10707726Y-9800678D01*
X10716929Y-9805896D01*
X10726372Y-9811247D01*
X10735073Y-9816175D01*
X10737533Y-9817568D01*
X10756053Y-9828054D01*
X10776563Y-9839676D01*
X10798847Y-9852308D01*
X10822687Y-9865830D01*
X10847867Y-9880116D01*
X10861040Y-9887593D01*
X10869087Y-9892158D01*
X10878337Y-9897402D01*
X10887782Y-9902755D01*
X10896415Y-9907644D01*
X10898505Y-9908827D01*
X10913127Y-9917105D01*
X10929695Y-9926492D01*
X10947947Y-9936836D01*
X10967619Y-9947991D01*
X10988450Y-9959807D01*
X11010178Y-9972136D01*
X11022330Y-9979033D01*
X11030377Y-9983598D01*
X11039626Y-9988842D01*
X11049072Y-9994195D01*
X11057705Y-9999085D01*
X11059795Y-10000268D01*
X11067147Y-10004432D01*
X11075953Y-10009420D01*
X11085455Y-10014806D01*
X11094898Y-10020159D01*
X11102975Y-10024740D01*
X11120207Y-10034516D01*
X11135419Y-10043145D01*
X11148801Y-10050735D01*
X11160540Y-10057394D01*
X11170828Y-10063228D01*
X11179852Y-10068346D01*
X11187802Y-10072853D01*
X11194868Y-10076858D01*
X11201238Y-10080468D01*
X11207101Y-10083790D01*
X11212648Y-10086932D01*
X11218067Y-10090000D01*
X11221085Y-10091708D01*
X11228437Y-10095872D01*
X11237243Y-10100860D01*
X11246745Y-10106246D01*
X11256188Y-10111599D01*
X11264265Y-10116180D01*
X11281454Y-10125931D01*
X11296621Y-10134535D01*
X11309953Y-10142097D01*
X11321638Y-10148725D01*
X11331862Y-10154523D01*
X11340812Y-10159598D01*
X11348676Y-10164057D01*
X11355641Y-10168005D01*
X11361894Y-10171549D01*
X11367623Y-10174794D01*
X11373014Y-10177847D01*
X11378254Y-10180814D01*
X11382375Y-10183147D01*
X11398252Y-10192134D01*
X11412289Y-10200081D01*
X11424855Y-10207200D01*
X11436322Y-10213700D01*
X11447060Y-10219791D01*
X11457441Y-10225683D01*
X11464290Y-10229573D01*
X11490488Y-10244448D01*
X11515024Y-10258364D01*
X11538440Y-10271629D01*
X11543665Y-10274587D01*
X11559235Y-10283399D01*
X11572944Y-10291162D01*
X11585146Y-10298074D01*
X11596192Y-10304335D01*
X11606433Y-10310144D01*
X11616221Y-10315700D01*
X11624945Y-10320656D01*
X11633725Y-10325642D01*
X11643838Y-10331378D01*
X11654402Y-10337366D01*
X11664538Y-10343107D01*
X11671935Y-10347292D01*
X11683901Y-10354070D01*
X11693766Y-10359681D01*
X11701647Y-10364193D01*
X11707662Y-10367675D01*
X11711929Y-10370195D01*
X11714565Y-10371821D01*
X11715690Y-10372623D01*
X11715750Y-10372711D01*
X11715406Y-10373071D01*
X11714297Y-10374028D01*
X11712306Y-10375673D01*
X11709320Y-10378101D01*
X11705220Y-10381403D01*
X11699893Y-10385671D01*
X11693222Y-10391000D01*
X11685091Y-10397481D01*
X11675385Y-10405206D01*
X11663988Y-10414269D01*
X11650784Y-10424763D01*
X11642090Y-10431670D01*
X11633700Y-10438336D01*
X11624000Y-10446043D01*
X11613670Y-10454253D01*
X11603388Y-10462426D01*
X11593833Y-10470022D01*
X11590020Y-10473053D01*
X11581505Y-10479823D01*
X11572426Y-10487038D01*
X11563339Y-10494258D01*
X11554798Y-10501042D01*
X11547358Y-10506950D01*
X11543665Y-10509882D01*
X11537149Y-10515054D01*
X11529200Y-10521367D01*
X11520372Y-10528380D01*
X11511222Y-10535652D01*
X11502304Y-10542741D01*
X11497310Y-10546712D01*
X11488795Y-10553481D01*
X11479717Y-10560697D01*
X11470630Y-10567917D01*
X11462089Y-10574702D01*
X11454649Y-10580610D01*
X11450955Y-10583542D01*
X11444439Y-10588714D01*
X11436490Y-10595027D01*
X11427662Y-10602040D01*
X11418512Y-10609312D01*
X11409594Y-10616401D01*
X11404600Y-10620372D01*
X11396138Y-10627100D01*
X11387161Y-10634236D01*
X11378211Y-10641349D01*
X11369831Y-10648008D01*
X11362563Y-10653783D01*
X11358880Y-10656708D01*
X11353211Y-10661210D01*
X11345975Y-10666958D01*
X11337595Y-10673617D01*
X11328490Y-10680852D01*
X11319083Y-10688328D01*
X11309795Y-10695709D01*
X11306175Y-10698586D01*
X11296709Y-10706110D01*
X11286646Y-10714105D01*
X11276476Y-10722183D01*
X11266688Y-10729957D01*
X11257771Y-10737036D01*
X11250214Y-10743034D01*
X11248390Y-10744481D01*
X11242196Y-10749397D01*
X11234374Y-10755606D01*
X11225285Y-10762824D01*
X11215289Y-10770763D01*
X11204746Y-10779138D01*
X11194017Y-10787662D01*
X11183462Y-10796049D01*
X11179669Y-10799063D01*
X11168362Y-10808048D01*
X11155595Y-10818192D01*
X11141899Y-10829073D01*
X11127804Y-10840271D01*
X11113840Y-10851364D01*
X11100536Y-10861932D01*
X11088422Y-10871553D01*
X11086468Y-10873105D01*
X11074647Y-10882494D01*
X11061567Y-10892883D01*
X11047755Y-10903855D01*
X11033734Y-10914992D01*
X11020031Y-10925879D01*
X11007170Y-10936097D01*
X10995676Y-10945230D01*
X10993744Y-10946765D01*
X10971703Y-10964281D01*
X10951549Y-10980295D01*
X10933185Y-10994888D01*
X10916511Y-11008137D01*
X10901426Y-11020123D01*
X10887832Y-11030925D01*
X10875628Y-11040621D01*
X10864715Y-11049292D01*
X10857230Y-11055238D01*
X10848840Y-11061904D01*
X10839140Y-11069612D01*
X10828810Y-11077822D01*
X10818528Y-11085995D01*
X10808973Y-11093592D01*
X10805160Y-11096623D01*
X10796645Y-11103393D01*
X10787567Y-11110608D01*
X10778479Y-11117828D01*
X10769938Y-11124612D01*
X10762498Y-11130520D01*
X10758805Y-11133452D01*
X10752289Y-11138624D01*
X10744340Y-11144937D01*
X10735513Y-11151950D01*
X10726362Y-11159222D01*
X10717444Y-11166311D01*
X10712450Y-11170282D01*
X10703935Y-11177051D01*
X10694857Y-11184267D01*
X10685770Y-11191487D01*
X10677229Y-11198272D01*
X10669789Y-11204179D01*
X10666095Y-11207111D01*
X10659579Y-11212284D01*
X10651630Y-11218597D01*
X10642803Y-11225610D01*
X10633652Y-11232881D01*
X10624734Y-11239971D01*
X10619740Y-11243941D01*
X10611225Y-11250711D01*
X10602147Y-11257927D01*
X10593060Y-11265147D01*
X10584519Y-11271932D01*
X10577079Y-11277839D01*
X10573385Y-11280771D01*
X10566869Y-11285944D01*
X10558920Y-11292257D01*
X10550093Y-11299270D01*
X10540942Y-11306541D01*
X10532024Y-11313631D01*
X10527030Y-11317601D01*
X10518515Y-11324371D01*
X10509437Y-11331586D01*
X10500350Y-11338807D01*
X10491809Y-11345591D01*
X10484369Y-11351498D01*
X10480675Y-11354430D01*
X10474782Y-11359108D01*
X10467339Y-11365019D01*
X10458785Y-11371815D01*
X10449558Y-11379149D01*
X10440094Y-11386671D01*
X10430834Y-11394033D01*
X10427970Y-11396311D01*
X10418558Y-11403794D01*
X10408527Y-11411767D01*
X10398376Y-11419833D01*
X10388606Y-11427594D01*
X10379715Y-11434654D01*
X10372205Y-11440614D01*
X10370820Y-11441713D01*
X10364626Y-11446628D01*
X10356804Y-11452837D01*
X10347715Y-11460055D01*
X10337719Y-11467994D01*
X10327176Y-11476368D01*
X10316447Y-11484892D01*
X10305892Y-11493278D01*
X10302099Y-11496293D01*
X10290792Y-11505278D01*
X10278025Y-11515422D01*
X10264329Y-11526303D01*
X10250234Y-11537501D01*
X10236270Y-11548594D01*
X10222966Y-11559162D01*
X10210852Y-11568783D01*
X10208898Y-11570335D01*
X10197077Y-11579724D01*
X10183997Y-11590113D01*
X10170185Y-11601084D01*
X10156166Y-11612222D01*
X10142463Y-11623108D01*
X10129603Y-11633327D01*
X10118109Y-11642459D01*
X10116177Y-11643995D01*
X10104993Y-11652882D01*
X10092346Y-11662932D01*
X10078759Y-11673728D01*
X10064759Y-11684851D01*
X10050869Y-11695886D01*
X10037617Y-11706415D01*
X10025526Y-11716020D01*
X10023467Y-11717655D01*
X10012359Y-11726479D01*
X10000594Y-11735826D01*
X9988584Y-11745368D01*
X9976739Y-11754780D01*
X9965470Y-11763735D01*
X9955189Y-11771905D01*
X9946306Y-11778965D01*
X9942974Y-11781614D01*
X9933841Y-11788874D01*
X9924211Y-11796528D01*
X9914566Y-11804193D01*
X9905390Y-11811485D01*
X9897163Y-11818022D01*
X9890369Y-11823419D01*
X9889490Y-11824118D01*
X9883335Y-11829007D01*
X9875612Y-11835144D01*
X9866741Y-11842193D01*
X9857143Y-11849821D01*
X9847237Y-11857694D01*
X9837444Y-11865478D01*
X9831705Y-11870040D01*
X9822347Y-11877478D01*
X9812761Y-11885095D01*
X9803336Y-11892581D01*
X9794465Y-11899625D01*
X9786538Y-11905918D01*
X9779947Y-11911147D01*
X9776480Y-11913896D01*
X9769006Y-11919824D01*
X9760697Y-11926424D01*
X9752365Y-11933048D01*
X9744825Y-11939050D01*
X9741761Y-11941492D01*
X9725437Y-11954510D01*
X9565529Y-11954510D01*
X9545599Y-11954506D01*
X9526385Y-11954494D01*
X9508038Y-11954474D01*
X9490711Y-11954447D01*
X9474554Y-11954414D01*
X9459719Y-11954375D01*
X9446358Y-11954331D01*
X9434622Y-11954281D01*
X9424662Y-11954227D01*
X9416631Y-11954169D01*
X9410680Y-11954108D01*
X9406959Y-11954044D01*
X9405622Y-11953977D01*
X9405620Y-11953975D01*
X9406266Y-11952793D01*
X9408077Y-11949773D01*
X9410863Y-11945223D01*
X9414434Y-11939455D01*
X9418599Y-11932776D01*
X9421034Y-11928892D01*
X9425581Y-11921643D01*
X9429773Y-11914946D01*
X9433386Y-11909160D01*
X9436197Y-11904640D01*
X9437984Y-11901746D01*
X9438406Y-11901050D01*
X9440088Y-11899223D01*
X9443474Y-11896300D01*
X9448160Y-11892603D01*
X9453742Y-11888454D01*
X9457600Y-11885711D01*
X9465285Y-11880333D01*
X9474041Y-11874195D01*
X9482874Y-11867995D01*
X9490789Y-11862431D01*
X9491980Y-11861593D01*
X9499646Y-11856195D01*
X9508392Y-11850039D01*
X9517219Y-11843826D01*
X9525130Y-11838258D01*
X9526270Y-11837456D01*
X9533937Y-11832060D01*
X9542684Y-11825905D01*
X9551512Y-11819693D01*
X9559424Y-11814125D01*
X9560560Y-11813326D01*
X9568154Y-11807982D01*
X9576852Y-11801861D01*
X9585682Y-11795648D01*
X9593671Y-11790027D01*
X9595162Y-11788978D01*
X9602806Y-11783599D01*
X9611454Y-11777513D01*
X9620151Y-11771393D01*
X9627940Y-11765911D01*
X9629452Y-11764848D01*
X9650538Y-11750008D01*
X9672542Y-11734524D01*
X9694305Y-11719210D01*
X9698032Y-11716588D01*
X9705676Y-11711209D01*
X9714324Y-11705123D01*
X9723021Y-11699003D01*
X9730810Y-11693521D01*
X9732322Y-11692458D01*
X9739851Y-11687159D01*
X9748476Y-11681089D01*
X9757217Y-11674938D01*
X9765091Y-11669397D01*
X9766300Y-11668546D01*
X9773967Y-11663150D01*
X9782714Y-11656995D01*
X9791542Y-11650783D01*
X9799454Y-11645215D01*
X9800590Y-11644416D01*
X9808110Y-11639124D01*
X9816759Y-11633038D01*
X9825590Y-11626825D01*
X9833654Y-11621151D01*
X9835515Y-11619842D01*
X9843137Y-11614479D01*
X9851692Y-11608460D01*
X9860261Y-11602429D01*
X9867929Y-11597032D01*
X9869805Y-11595712D01*
X9877122Y-11590562D01*
X9885576Y-11584612D01*
X9894227Y-11578524D01*
X9902135Y-11572959D01*
X9903772Y-11571808D01*
X9911500Y-11566370D01*
X9920317Y-11560166D01*
X9929235Y-11553891D01*
X9937267Y-11548240D01*
X9938697Y-11547234D01*
X9946340Y-11541856D01*
X9954985Y-11535773D01*
X9963678Y-11529655D01*
X9971463Y-11524177D01*
X9972987Y-11523104D01*
X9978574Y-11519172D01*
X9984227Y-11515195D01*
X9990215Y-11510983D01*
X9996802Y-11506350D01*
X10004257Y-11501108D01*
X10012846Y-11495069D01*
X10022836Y-11488046D01*
X10034493Y-11479851D01*
X10041573Y-11474875D01*
X10049261Y-11469469D01*
X10057996Y-11463326D01*
X10066805Y-11457130D01*
X10074714Y-11451566D01*
X10076180Y-11450534D01*
X10083847Y-11445139D01*
X10092594Y-11438984D01*
X10101422Y-11432771D01*
X10109334Y-11427204D01*
X10110470Y-11426404D01*
X10118047Y-11421072D01*
X10126619Y-11415040D01*
X10135219Y-11408986D01*
X10142885Y-11403591D01*
X10144125Y-11402718D01*
X10151372Y-11397617D01*
X10159780Y-11391700D01*
X10168431Y-11385612D01*
X10176410Y-11379999D01*
X10178415Y-11378588D01*
X10199085Y-11364045D01*
X10219991Y-11349334D01*
X10240152Y-11335145D01*
X10246995Y-11330328D01*
X10254382Y-11325128D01*
X10262882Y-11319146D01*
X10271531Y-11313059D01*
X10279366Y-11307545D01*
X10280650Y-11306641D01*
X10288317Y-11301246D01*
X10297064Y-11295091D01*
X10305892Y-11288879D01*
X10313804Y-11283311D01*
X10314940Y-11282511D01*
X10322607Y-11277116D01*
X10331354Y-11270961D01*
X10340182Y-11264749D01*
X10348094Y-11259181D01*
X10349230Y-11258381D01*
X10356897Y-11252986D01*
X10365644Y-11246831D01*
X10374472Y-11240619D01*
X10382384Y-11235051D01*
X10383520Y-11234251D01*
X10391187Y-11228856D01*
X10399934Y-11222701D01*
X10408762Y-11216489D01*
X10416674Y-11210921D01*
X10417810Y-11210121D01*
X10425477Y-11204726D01*
X10434224Y-11198571D01*
X10443052Y-11192359D01*
X10450964Y-11186791D01*
X10452100Y-11185991D01*
X10459620Y-11180700D01*
X10468269Y-11174614D01*
X10477100Y-11168401D01*
X10485164Y-11162727D01*
X10487025Y-11161418D01*
X10494733Y-11155995D01*
X10503455Y-11149858D01*
X10512243Y-11143675D01*
X10520149Y-11138112D01*
X10521950Y-11136844D01*
X10529617Y-11131449D01*
X10538364Y-11125294D01*
X10547192Y-11119082D01*
X10555104Y-11113514D01*
X10556240Y-11112714D01*
X10563817Y-11107382D01*
X10572389Y-11101350D01*
X10580989Y-11095297D01*
X10588655Y-11089901D01*
X10589895Y-11089028D01*
X10609551Y-11075194D01*
X10630303Y-11060590D01*
X10651170Y-11045907D01*
X10658475Y-11040768D01*
X10666183Y-11035345D01*
X10674905Y-11029208D01*
X10683693Y-11023025D01*
X10691599Y-11017462D01*
X10693400Y-11016194D01*
X10701067Y-11010799D01*
X10709814Y-11004644D01*
X10718642Y-10998432D01*
X10726554Y-10992864D01*
X10727690Y-10992064D01*
X10735267Y-10986732D01*
X10743839Y-10980700D01*
X10752439Y-10974647D01*
X10760105Y-10969251D01*
X10761345Y-10968378D01*
X10781001Y-10954544D01*
X10801753Y-10939940D01*
X10822620Y-10925257D01*
X10829925Y-10920118D01*
X10850595Y-10905575D01*
X10871501Y-10890864D01*
X10891662Y-10876675D01*
X10898505Y-10871858D01*
X10918161Y-10858024D01*
X10938913Y-10843420D01*
X10959780Y-10828737D01*
X10967085Y-10823598D01*
X10987755Y-10809055D01*
X11008661Y-10794344D01*
X11028822Y-10780155D01*
X11035665Y-10775338D01*
X11042912Y-10770237D01*
X11051320Y-10764320D01*
X11059971Y-10758232D01*
X11067950Y-10752619D01*
X11069955Y-10751208D01*
X11077620Y-10745814D01*
X11086258Y-10739734D01*
X11094937Y-10733624D01*
X11102724Y-10728140D01*
X11104563Y-10726845D01*
X11112163Y-10721490D01*
X11120834Y-10715382D01*
X11129568Y-10709229D01*
X11137358Y-10703741D01*
X11138218Y-10703135D01*
X11145601Y-10697935D01*
X11154130Y-10691930D01*
X11162871Y-10685777D01*
X11170893Y-10680132D01*
X11172825Y-10678772D01*
X11180447Y-10673409D01*
X11189001Y-10667390D01*
X11197571Y-10661359D01*
X11205239Y-10655963D01*
X11207115Y-10654642D01*
X11226771Y-10640808D01*
X11247523Y-10626204D01*
X11268390Y-10611521D01*
X11275695Y-10606382D01*
X11296365Y-10591839D01*
X11317271Y-10577128D01*
X11337432Y-10562939D01*
X11344275Y-10558122D01*
X11351522Y-10553021D01*
X11359930Y-10547104D01*
X11368581Y-10541016D01*
X11376560Y-10535403D01*
X11378565Y-10533992D01*
X11400612Y-10518479D01*
X11420702Y-10504337D01*
X11438959Y-10491481D01*
X11448415Y-10484819D01*
X11455282Y-10479989D01*
X11462363Y-10475020D01*
X11469003Y-10470374D01*
X11474543Y-10466510D01*
X11476640Y-10465053D01*
X11481041Y-10461942D01*
X11484534Y-10459355D01*
X11486669Y-10457632D01*
X11487118Y-10457132D01*
X11486043Y-10456386D01*
X11483039Y-10454730D01*
X11478466Y-10452350D01*
X11472683Y-10449435D01*
X11466512Y-10446398D01*
X11462324Y-10444347D01*
X11456060Y-10441266D01*
X11447921Y-10437253D01*
X11438105Y-10432407D01*
X11426813Y-10426826D01*
X11414243Y-10420609D01*
X11400596Y-10413855D01*
X11386072Y-10406662D01*
X11370869Y-10399130D01*
X11355187Y-10391357D01*
X11339227Y-10383442D01*
X11338560Y-10383112D01*
X11322163Y-10374980D01*
X11305732Y-10366834D01*
X11289501Y-10358791D01*
X11273705Y-10350967D01*
X11258577Y-10343476D01*
X11244352Y-10336436D01*
X11231263Y-10329962D01*
X11219546Y-10324169D01*
X11209434Y-10319174D01*
X11201160Y-10315093D01*
X11195685Y-10312398D01*
X11188515Y-10308868D01*
X11179354Y-10304349D01*
X11168489Y-10298982D01*
X11156203Y-10292909D01*
X11142783Y-10286269D01*
X11128512Y-10279205D01*
X11113676Y-10271857D01*
X11098559Y-10264367D01*
X11083447Y-10256874D01*
X11073765Y-10252071D01*
X11058149Y-10244325D01*
X11041843Y-10236239D01*
X11025200Y-10227989D01*
X11008573Y-10219749D01*
X10992314Y-10211694D01*
X10976776Y-10203998D01*
X10962313Y-10196837D01*
X10949277Y-10190386D01*
X10938021Y-10184819D01*
X10934065Y-10182863D01*
X10922721Y-10177254D01*
X10909525Y-10170728D01*
X10894903Y-10163493D01*
X10879280Y-10155761D01*
X10863080Y-10147741D01*
X10846728Y-10139645D01*
X10830648Y-10131681D01*
X10815266Y-10124060D01*
X10807065Y-10119996D01*
X10791968Y-10112515D01*
X10775700Y-10104455D01*
X10758724Y-10096046D01*
X10741500Y-10087515D01*
X10724490Y-10079091D01*
X10708156Y-10071004D01*
X10692960Y-10063481D01*
X10679364Y-10056751D01*
X10673715Y-10053956D01*
X10660503Y-10047418D01*
X10645522Y-10040004D01*
X10629279Y-10031963D01*
X10612280Y-10023548D01*
X10595032Y-10015008D01*
X10578041Y-10006596D01*
X10561815Y-9998561D01*
X10546860Y-9991154D01*
X10545445Y-9990453D01*
X10535589Y-9985571D01*
X10526150Y-9980896D01*
X10516979Y-9976354D01*
X10507926Y-9971871D01*
X10498841Y-9967371D01*
X10489574Y-9962782D01*
X10479975Y-9958029D01*
X10469894Y-9953038D01*
X10459182Y-9947734D01*
X10447688Y-9942043D01*
X10435262Y-9935891D01*
X10421755Y-9929204D01*
X10407017Y-9921908D01*
X10390897Y-9913927D01*
X10373247Y-9905189D01*
X10353915Y-9895619D01*
X10332752Y-9885143D01*
X10309609Y-9873686D01*
X10285095Y-9861551D01*
X10255870Y-9847083D01*
X10228734Y-9833649D01*
X10203499Y-9821156D01*
X10179977Y-9809511D01*
X10157981Y-9798621D01*
X10137323Y-9788392D01*
X10117816Y-9778733D01*
X10099271Y-9769550D01*
X10081502Y-9760750D01*
X10064319Y-9752240D01*
X10047536Y-9743928D01*
X10030966Y-9735720D01*
X10023475Y-9732010D01*
X10008538Y-9724611D01*
X9992268Y-9716553D01*
X9975168Y-9708085D01*
X9957740Y-9699456D01*
X9940489Y-9690914D01*
X9923917Y-9682710D01*
X9908528Y-9675091D01*
X9894824Y-9668309D01*
X9892665Y-9667240D01*
X9879304Y-9660627D01*
X9864170Y-9653135D01*
X9847766Y-9645014D01*
X9830596Y-9636513D01*
X9813163Y-9627881D01*
X9795970Y-9619367D01*
X9779521Y-9611220D01*
X9764318Y-9603690D01*
X9761855Y-9602470D01*
X9746918Y-9595072D01*
X9730648Y-9587014D01*
X9713548Y-9578545D01*
X9696121Y-9569916D01*
X9678869Y-9561375D01*
X9662297Y-9553170D01*
X9646908Y-9545552D01*
X9633205Y-9538770D01*
X9631045Y-9537701D01*
X9617819Y-9531155D01*
X9602808Y-9523724D01*
X9586503Y-9515652D01*
X9569398Y-9507182D01*
X9551981Y-9498557D01*
X9534746Y-9490021D01*
X9518183Y-9481817D01*
X9502783Y-9474188D01*
X9498965Y-9472296D01*
X9484264Y-9465014D01*
X9468516Y-9457215D01*
X9452174Y-9449123D01*
X9435687Y-9440961D01*
X9419507Y-9432953D01*
X9404086Y-9425322D01*
X9389873Y-9418291D01*
X9377319Y-9412083D01*
X9373235Y-9410063D01*
X9362028Y-9404522D01*
X9348945Y-9398048D01*
X9334383Y-9390841D01*
X9318741Y-9383096D01*
X9302418Y-9375013D01*
X9285813Y-9366787D01*
X9269324Y-9358617D01*
X9253349Y-9350700D01*
X9239885Y-9344025D01*
X9224970Y-9336631D01*
X9209394Y-9328913D01*
X9193525Y-9321052D01*
X9177730Y-9313230D01*
X9162377Y-9305630D01*
X9147834Y-9298434D01*
X9134469Y-9291824D01*
X9122649Y-9285981D01*
X9112885Y-9281158D01*
X9103662Y-9276603D01*
X9092477Y-9271075D01*
X9079642Y-9264728D01*
X9065471Y-9257718D01*
X9050276Y-9250199D01*
X9034370Y-9242326D01*
X9018067Y-9234255D01*
X9001680Y-9226140D01*
X8985522Y-9218136D01*
X8973185Y-9212024D01*
X8956432Y-9203722D01*
X8938455Y-9194815D01*
X8919670Y-9185507D01*
X8900490Y-9176005D01*
X8881333Y-9166514D01*
X8862612Y-9157240D01*
X8844743Y-9148389D01*
X8828142Y-9140166D01*
X8813224Y-9132776D01*
X8807450Y-9129917D01*
X8792994Y-9122756D01*
X8777924Y-9115289D01*
X8762614Y-9107701D01*
X8747437Y-9100177D01*
X8732765Y-9092901D01*
X8718973Y-9086060D01*
X8706434Y-9079838D01*
X8695522Y-9074420D01*
X8688705Y-9071034D01*
X8644255Y-9048946D01*
X9012800Y-9048848D01*
X9049038Y-9048839D01*
X9082822Y-9048831D01*
X9114241Y-9048826D01*
X9143381Y-9048823D01*
X9170329Y-9048824D01*
X9170329Y-9048824D01*
G37*
X9170329Y-9048824D02*
X9195171Y-9048828D01*
X9217996Y-9048837D01*
X9238890Y-9048851D01*
X9257940Y-9048870D01*
X9275233Y-9048895D01*
X9290855Y-9048927D01*
X9304895Y-9048965D01*
X9317439Y-9049012D01*
X9328574Y-9049066D01*
X9338387Y-9049129D01*
X9346965Y-9049201D01*
X9354395Y-9049283D01*
X9360764Y-9049375D01*
X9366159Y-9049478D01*
X9370667Y-9049592D01*
X9374375Y-9049718D01*
X9377370Y-9049856D01*
X9379739Y-9050007D01*
X9381569Y-9050172D01*
X9382947Y-9050351D01*
X9383960Y-9050544D01*
X9384696Y-9050752D01*
X9385240Y-9050976D01*
X9385545Y-9051137D01*
X9388045Y-9052555D01*
X9392287Y-9054959D01*
X9397802Y-9058082D01*
X9404120Y-9061658D01*
X9408795Y-9064304D01*
X9429272Y-9075893D01*
X9447993Y-9086492D01*
X9465415Y-9096358D01*
X9481995Y-9105750D01*
X9498188Y-9114927D01*
X9514450Y-9124147D01*
X9531239Y-9133669D01*
X9549010Y-9143751D01*
X9568218Y-9154653D01*
X9570720Y-9156073D01*
X9578628Y-9160559D01*
X9587783Y-9165750D01*
X9597224Y-9171101D01*
X9605988Y-9176065D01*
X9608820Y-9177669D01*
X9633267Y-9191513D01*
X9659558Y-9206413D01*
X9687799Y-9222427D01*
X9718094Y-9239615D01*
X9732010Y-9247513D01*
X9739986Y-9252038D01*
X9749189Y-9257256D01*
X9758632Y-9262607D01*
X9767333Y-9267535D01*
X9769793Y-9268928D01*
X9788313Y-9279414D01*
X9808823Y-9291036D01*
X9831107Y-9303668D01*
X9854947Y-9317190D01*
X9880127Y-9331476D01*
X9893300Y-9338953D01*
X9901276Y-9343478D01*
X9910479Y-9348696D01*
X9919922Y-9354047D01*
X9928623Y-9358975D01*
X9931083Y-9360368D01*
X9949603Y-9370854D01*
X9970113Y-9382476D01*
X9992397Y-9395108D01*
X10016237Y-9408630D01*
X10041417Y-9422916D01*
X10054590Y-9430393D01*
X10062566Y-9434918D01*
X10071769Y-9440136D01*
X10081212Y-9445487D01*
X10089913Y-9450415D01*
X10092373Y-9451808D01*
X10110893Y-9462294D01*
X10131403Y-9473916D01*
X10153687Y-9486548D01*
X10177527Y-9500070D01*
X10202707Y-9514356D01*
X10215880Y-9521833D01*
X10223927Y-9526398D01*
X10233177Y-9531642D01*
X10242622Y-9536995D01*
X10251255Y-9541884D01*
X10253345Y-9543067D01*
X10267967Y-9551345D01*
X10284535Y-9560732D01*
X10302787Y-9571076D01*
X10322459Y-9582231D01*
X10343290Y-9594047D01*
X10365018Y-9606376D01*
X10377170Y-9613273D01*
X10385146Y-9617798D01*
X10394349Y-9623016D01*
X10403792Y-9628367D01*
X10412493Y-9633295D01*
X10414953Y-9634688D01*
X10433473Y-9645174D01*
X10453983Y-9656796D01*
X10476267Y-9669428D01*
X10500107Y-9682950D01*
X10525287Y-9697236D01*
X10538460Y-9704713D01*
X10546507Y-9709278D01*
X10555757Y-9714522D01*
X10565202Y-9719875D01*
X10573835Y-9724764D01*
X10575925Y-9725947D01*
X10590547Y-9734225D01*
X10607115Y-9743612D01*
X10625367Y-9753956D01*
X10645039Y-9765111D01*
X10665870Y-9776927D01*
X10687598Y-9789256D01*
X10699750Y-9796153D01*
X10707726Y-9800678D01*
X10716929Y-9805896D01*
X10726372Y-9811247D01*
X10735073Y-9816175D01*
X10737533Y-9817568D01*
X10756053Y-9828054D01*
X10776563Y-9839676D01*
X10798847Y-9852308D01*
X10822687Y-9865830D01*
X10847867Y-9880116D01*
X10861040Y-9887593D01*
X10869087Y-9892158D01*
X10878337Y-9897402D01*
X10887782Y-9902755D01*
X10896415Y-9907644D01*
X10898505Y-9908827D01*
X10913127Y-9917105D01*
X10929695Y-9926492D01*
X10947947Y-9936836D01*
X10967619Y-9947991D01*
X10988450Y-9959807D01*
X11010178Y-9972136D01*
X11022330Y-9979033D01*
X11030377Y-9983598D01*
X11039626Y-9988842D01*
X11049072Y-9994195D01*
X11057705Y-9999085D01*
X11059795Y-10000268D01*
X11067147Y-10004432D01*
X11075953Y-10009420D01*
X11085455Y-10014806D01*
X11094898Y-10020159D01*
X11102975Y-10024740D01*
X11120207Y-10034516D01*
X11135419Y-10043145D01*
X11148801Y-10050735D01*
X11160540Y-10057394D01*
X11170828Y-10063228D01*
X11179852Y-10068346D01*
X11187802Y-10072853D01*
X11194868Y-10076858D01*
X11201238Y-10080468D01*
X11207101Y-10083790D01*
X11212648Y-10086932D01*
X11218067Y-10090000D01*
X11221085Y-10091708D01*
X11228437Y-10095872D01*
X11237243Y-10100860D01*
X11246745Y-10106246D01*
X11256188Y-10111599D01*
X11264265Y-10116180D01*
X11281454Y-10125931D01*
X11296621Y-10134535D01*
X11309953Y-10142097D01*
X11321638Y-10148725D01*
X11331862Y-10154523D01*
X11340812Y-10159598D01*
X11348676Y-10164057D01*
X11355641Y-10168005D01*
X11361894Y-10171549D01*
X11367623Y-10174794D01*
X11373014Y-10177847D01*
X11378254Y-10180814D01*
X11382375Y-10183147D01*
X11398252Y-10192134D01*
X11412289Y-10200081D01*
X11424855Y-10207200D01*
X11436322Y-10213700D01*
X11447060Y-10219791D01*
X11457441Y-10225683D01*
X11464290Y-10229573D01*
X11490488Y-10244448D01*
X11515024Y-10258364D01*
X11538440Y-10271629D01*
X11543665Y-10274587D01*
X11559235Y-10283399D01*
X11572944Y-10291162D01*
X11585146Y-10298074D01*
X11596192Y-10304335D01*
X11606433Y-10310144D01*
X11616221Y-10315700D01*
X11624945Y-10320656D01*
X11633725Y-10325642D01*
X11643838Y-10331378D01*
X11654402Y-10337366D01*
X11664538Y-10343107D01*
X11671935Y-10347292D01*
X11683901Y-10354070D01*
X11693766Y-10359681D01*
X11701647Y-10364193D01*
X11707662Y-10367675D01*
X11711929Y-10370195D01*
X11714565Y-10371821D01*
X11715690Y-10372623D01*
X11715750Y-10372711D01*
X11715406Y-10373071D01*
X11714297Y-10374028D01*
X11712306Y-10375673D01*
X11709320Y-10378101D01*
X11705220Y-10381403D01*
X11699893Y-10385671D01*
X11693222Y-10391000D01*
X11685091Y-10397481D01*
X11675385Y-10405206D01*
X11663988Y-10414269D01*
X11650784Y-10424763D01*
X11642090Y-10431670D01*
X11633700Y-10438336D01*
X11624000Y-10446043D01*
X11613670Y-10454253D01*
X11603388Y-10462426D01*
X11593833Y-10470022D01*
X11590020Y-10473053D01*
X11581505Y-10479823D01*
X11572426Y-10487038D01*
X11563339Y-10494258D01*
X11554798Y-10501042D01*
X11547358Y-10506950D01*
X11543665Y-10509882D01*
X11537149Y-10515054D01*
X11529200Y-10521367D01*
X11520372Y-10528380D01*
X11511222Y-10535652D01*
X11502304Y-10542741D01*
X11497310Y-10546712D01*
X11488795Y-10553481D01*
X11479717Y-10560697D01*
X11470630Y-10567917D01*
X11462089Y-10574702D01*
X11454649Y-10580610D01*
X11450955Y-10583542D01*
X11444439Y-10588714D01*
X11436490Y-10595027D01*
X11427662Y-10602040D01*
X11418512Y-10609312D01*
X11409594Y-10616401D01*
X11404600Y-10620372D01*
X11396138Y-10627100D01*
X11387161Y-10634236D01*
X11378211Y-10641349D01*
X11369831Y-10648008D01*
X11362563Y-10653783D01*
X11358880Y-10656708D01*
X11353211Y-10661210D01*
X11345975Y-10666958D01*
X11337595Y-10673617D01*
X11328490Y-10680852D01*
X11319083Y-10688328D01*
X11309795Y-10695709D01*
X11306175Y-10698586D01*
X11296709Y-10706110D01*
X11286646Y-10714105D01*
X11276476Y-10722183D01*
X11266688Y-10729957D01*
X11257771Y-10737036D01*
X11250214Y-10743034D01*
X11248390Y-10744481D01*
X11242196Y-10749397D01*
X11234374Y-10755606D01*
X11225285Y-10762824D01*
X11215289Y-10770763D01*
X11204746Y-10779138D01*
X11194017Y-10787662D01*
X11183462Y-10796049D01*
X11179669Y-10799063D01*
X11168362Y-10808048D01*
X11155595Y-10818192D01*
X11141899Y-10829073D01*
X11127804Y-10840271D01*
X11113840Y-10851364D01*
X11100536Y-10861932D01*
X11088422Y-10871553D01*
X11086468Y-10873105D01*
X11074647Y-10882494D01*
X11061567Y-10892883D01*
X11047755Y-10903855D01*
X11033734Y-10914992D01*
X11020031Y-10925879D01*
X11007170Y-10936097D01*
X10995676Y-10945230D01*
X10993744Y-10946765D01*
X10971703Y-10964281D01*
X10951549Y-10980295D01*
X10933185Y-10994888D01*
X10916511Y-11008137D01*
X10901426Y-11020123D01*
X10887832Y-11030925D01*
X10875628Y-11040621D01*
X10864715Y-11049292D01*
X10857230Y-11055238D01*
X10848840Y-11061904D01*
X10839140Y-11069612D01*
X10828810Y-11077822D01*
X10818528Y-11085995D01*
X10808973Y-11093592D01*
X10805160Y-11096623D01*
X10796645Y-11103393D01*
X10787567Y-11110608D01*
X10778479Y-11117828D01*
X10769938Y-11124612D01*
X10762498Y-11130520D01*
X10758805Y-11133452D01*
X10752289Y-11138624D01*
X10744340Y-11144937D01*
X10735513Y-11151950D01*
X10726362Y-11159222D01*
X10717444Y-11166311D01*
X10712450Y-11170282D01*
X10703935Y-11177051D01*
X10694857Y-11184267D01*
X10685770Y-11191487D01*
X10677229Y-11198272D01*
X10669789Y-11204179D01*
X10666095Y-11207111D01*
X10659579Y-11212284D01*
X10651630Y-11218597D01*
X10642803Y-11225610D01*
X10633652Y-11232881D01*
X10624734Y-11239971D01*
X10619740Y-11243941D01*
X10611225Y-11250711D01*
X10602147Y-11257927D01*
X10593060Y-11265147D01*
X10584519Y-11271932D01*
X10577079Y-11277839D01*
X10573385Y-11280771D01*
X10566869Y-11285944D01*
X10558920Y-11292257D01*
X10550093Y-11299270D01*
X10540942Y-11306541D01*
X10532024Y-11313631D01*
X10527030Y-11317601D01*
X10518515Y-11324371D01*
X10509437Y-11331586D01*
X10500350Y-11338807D01*
X10491809Y-11345591D01*
X10484369Y-11351498D01*
X10480675Y-11354430D01*
X10474782Y-11359108D01*
X10467339Y-11365019D01*
X10458785Y-11371815D01*
X10449558Y-11379149D01*
X10440094Y-11386671D01*
X10430834Y-11394033D01*
X10427970Y-11396311D01*
X10418558Y-11403794D01*
X10408527Y-11411767D01*
X10398376Y-11419833D01*
X10388606Y-11427594D01*
X10379715Y-11434654D01*
X10372205Y-11440614D01*
X10370820Y-11441713D01*
X10364626Y-11446628D01*
X10356804Y-11452837D01*
X10347715Y-11460055D01*
X10337719Y-11467994D01*
X10327176Y-11476368D01*
X10316447Y-11484892D01*
X10305892Y-11493278D01*
X10302099Y-11496293D01*
X10290792Y-11505278D01*
X10278025Y-11515422D01*
X10264329Y-11526303D01*
X10250234Y-11537501D01*
X10236270Y-11548594D01*
X10222966Y-11559162D01*
X10210852Y-11568783D01*
X10208898Y-11570335D01*
X10197077Y-11579724D01*
X10183997Y-11590113D01*
X10170185Y-11601084D01*
X10156166Y-11612222D01*
X10142463Y-11623108D01*
X10129603Y-11633327D01*
X10118109Y-11642459D01*
X10116177Y-11643995D01*
X10104993Y-11652882D01*
X10092346Y-11662932D01*
X10078759Y-11673728D01*
X10064759Y-11684851D01*
X10050869Y-11695886D01*
X10037617Y-11706415D01*
X10025526Y-11716020D01*
X10023467Y-11717655D01*
X10012359Y-11726479D01*
X10000594Y-11735826D01*
X9988584Y-11745368D01*
X9976739Y-11754780D01*
X9965470Y-11763735D01*
X9955189Y-11771905D01*
X9946306Y-11778965D01*
X9942974Y-11781614D01*
X9933841Y-11788874D01*
X9924211Y-11796528D01*
X9914566Y-11804193D01*
X9905390Y-11811485D01*
X9897163Y-11818022D01*
X9890369Y-11823419D01*
X9889490Y-11824118D01*
X9883335Y-11829007D01*
X9875612Y-11835144D01*
X9866741Y-11842193D01*
X9857143Y-11849821D01*
X9847237Y-11857694D01*
X9837444Y-11865478D01*
X9831705Y-11870040D01*
X9822347Y-11877478D01*
X9812761Y-11885095D01*
X9803336Y-11892581D01*
X9794465Y-11899625D01*
X9786538Y-11905918D01*
X9779947Y-11911147D01*
X9776480Y-11913896D01*
X9769006Y-11919824D01*
X9760697Y-11926424D01*
X9752365Y-11933048D01*
X9744825Y-11939050D01*
X9741761Y-11941492D01*
X9725437Y-11954510D01*
X9565529Y-11954510D01*
X9545599Y-11954506D01*
X9526385Y-11954494D01*
X9508038Y-11954474D01*
X9490711Y-11954447D01*
X9474554Y-11954414D01*
X9459719Y-11954375D01*
X9446358Y-11954331D01*
X9434622Y-11954281D01*
X9424662Y-11954227D01*
X9416631Y-11954169D01*
X9410680Y-11954108D01*
X9406959Y-11954044D01*
X9405622Y-11953977D01*
X9405620Y-11953975D01*
X9406266Y-11952793D01*
X9408077Y-11949773D01*
X9410863Y-11945223D01*
X9414434Y-11939455D01*
X9418599Y-11932776D01*
X9421034Y-11928892D01*
X9425581Y-11921643D01*
X9429773Y-11914946D01*
X9433386Y-11909160D01*
X9436197Y-11904640D01*
X9437984Y-11901746D01*
X9438406Y-11901050D01*
X9440088Y-11899223D01*
X9443474Y-11896300D01*
X9448160Y-11892603D01*
X9453742Y-11888454D01*
X9457600Y-11885711D01*
X9465285Y-11880333D01*
X9474041Y-11874195D01*
X9482874Y-11867995D01*
X9490789Y-11862431D01*
X9491980Y-11861593D01*
X9499646Y-11856195D01*
X9508392Y-11850039D01*
X9517219Y-11843826D01*
X9525130Y-11838258D01*
X9526270Y-11837456D01*
X9533937Y-11832060D01*
X9542684Y-11825905D01*
X9551512Y-11819693D01*
X9559424Y-11814125D01*
X9560560Y-11813326D01*
X9568154Y-11807982D01*
X9576852Y-11801861D01*
X9585682Y-11795648D01*
X9593671Y-11790027D01*
X9595162Y-11788978D01*
X9602806Y-11783599D01*
X9611454Y-11777513D01*
X9620151Y-11771393D01*
X9627940Y-11765911D01*
X9629452Y-11764848D01*
X9650538Y-11750008D01*
X9672542Y-11734524D01*
X9694305Y-11719210D01*
X9698032Y-11716588D01*
X9705676Y-11711209D01*
X9714324Y-11705123D01*
X9723021Y-11699003D01*
X9730810Y-11693521D01*
X9732322Y-11692458D01*
X9739851Y-11687159D01*
X9748476Y-11681089D01*
X9757217Y-11674938D01*
X9765091Y-11669397D01*
X9766300Y-11668546D01*
X9773967Y-11663150D01*
X9782714Y-11656995D01*
X9791542Y-11650783D01*
X9799454Y-11645215D01*
X9800590Y-11644416D01*
X9808110Y-11639124D01*
X9816759Y-11633038D01*
X9825590Y-11626825D01*
X9833654Y-11621151D01*
X9835515Y-11619842D01*
X9843137Y-11614479D01*
X9851692Y-11608460D01*
X9860261Y-11602429D01*
X9867929Y-11597032D01*
X9869805Y-11595712D01*
X9877122Y-11590562D01*
X9885576Y-11584612D01*
X9894227Y-11578524D01*
X9902135Y-11572959D01*
X9903772Y-11571808D01*
X9911500Y-11566370D01*
X9920317Y-11560166D01*
X9929235Y-11553891D01*
X9937267Y-11548240D01*
X9938697Y-11547234D01*
X9946340Y-11541856D01*
X9954985Y-11535773D01*
X9963678Y-11529655D01*
X9971463Y-11524177D01*
X9972987Y-11523104D01*
X9978574Y-11519172D01*
X9984227Y-11515195D01*
X9990215Y-11510983D01*
X9996802Y-11506350D01*
X10004257Y-11501108D01*
X10012846Y-11495069D01*
X10022836Y-11488046D01*
X10034493Y-11479851D01*
X10041573Y-11474875D01*
X10049261Y-11469469D01*
X10057996Y-11463326D01*
X10066805Y-11457130D01*
X10074714Y-11451566D01*
X10076180Y-11450534D01*
X10083847Y-11445139D01*
X10092594Y-11438984D01*
X10101422Y-11432771D01*
X10109334Y-11427204D01*
X10110470Y-11426404D01*
X10118047Y-11421072D01*
X10126619Y-11415040D01*
X10135219Y-11408986D01*
X10142885Y-11403591D01*
X10144125Y-11402718D01*
X10151372Y-11397617D01*
X10159780Y-11391700D01*
X10168431Y-11385612D01*
X10176410Y-11379999D01*
X10178415Y-11378588D01*
X10199085Y-11364045D01*
X10219991Y-11349334D01*
X10240152Y-11335145D01*
X10246995Y-11330328D01*
X10254382Y-11325128D01*
X10262882Y-11319146D01*
X10271531Y-11313059D01*
X10279366Y-11307545D01*
X10280650Y-11306641D01*
X10288317Y-11301246D01*
X10297064Y-11295091D01*
X10305892Y-11288879D01*
X10313804Y-11283311D01*
X10314940Y-11282511D01*
X10322607Y-11277116D01*
X10331354Y-11270961D01*
X10340182Y-11264749D01*
X10348094Y-11259181D01*
X10349230Y-11258381D01*
X10356897Y-11252986D01*
X10365644Y-11246831D01*
X10374472Y-11240619D01*
X10382384Y-11235051D01*
X10383520Y-11234251D01*
X10391187Y-11228856D01*
X10399934Y-11222701D01*
X10408762Y-11216489D01*
X10416674Y-11210921D01*
X10417810Y-11210121D01*
X10425477Y-11204726D01*
X10434224Y-11198571D01*
X10443052Y-11192359D01*
X10450964Y-11186791D01*
X10452100Y-11185991D01*
X10459620Y-11180700D01*
X10468269Y-11174614D01*
X10477100Y-11168401D01*
X10485164Y-11162727D01*
X10487025Y-11161418D01*
X10494733Y-11155995D01*
X10503455Y-11149858D01*
X10512243Y-11143675D01*
X10520149Y-11138112D01*
X10521950Y-11136844D01*
X10529617Y-11131449D01*
X10538364Y-11125294D01*
X10547192Y-11119082D01*
X10555104Y-11113514D01*
X10556240Y-11112714D01*
X10563817Y-11107382D01*
X10572389Y-11101350D01*
X10580989Y-11095297D01*
X10588655Y-11089901D01*
X10589895Y-11089028D01*
X10609551Y-11075194D01*
X10630303Y-11060590D01*
X10651170Y-11045907D01*
X10658475Y-11040768D01*
X10666183Y-11035345D01*
X10674905Y-11029208D01*
X10683693Y-11023025D01*
X10691599Y-11017462D01*
X10693400Y-11016194D01*
X10701067Y-11010799D01*
X10709814Y-11004644D01*
X10718642Y-10998432D01*
X10726554Y-10992864D01*
X10727690Y-10992064D01*
X10735267Y-10986732D01*
X10743839Y-10980700D01*
X10752439Y-10974647D01*
X10760105Y-10969251D01*
X10761345Y-10968378D01*
X10781001Y-10954544D01*
X10801753Y-10939940D01*
X10822620Y-10925257D01*
X10829925Y-10920118D01*
X10850595Y-10905575D01*
X10871501Y-10890864D01*
X10891662Y-10876675D01*
X10898505Y-10871858D01*
X10918161Y-10858024D01*
X10938913Y-10843420D01*
X10959780Y-10828737D01*
X10967085Y-10823598D01*
X10987755Y-10809055D01*
X11008661Y-10794344D01*
X11028822Y-10780155D01*
X11035665Y-10775338D01*
X11042912Y-10770237D01*
X11051320Y-10764320D01*
X11059971Y-10758232D01*
X11067950Y-10752619D01*
X11069955Y-10751208D01*
X11077620Y-10745814D01*
X11086258Y-10739734D01*
X11094937Y-10733624D01*
X11102724Y-10728140D01*
X11104563Y-10726845D01*
X11112163Y-10721490D01*
X11120834Y-10715382D01*
X11129568Y-10709229D01*
X11137358Y-10703741D01*
X11138218Y-10703135D01*
X11145601Y-10697935D01*
X11154130Y-10691930D01*
X11162871Y-10685777D01*
X11170893Y-10680132D01*
X11172825Y-10678772D01*
X11180447Y-10673409D01*
X11189001Y-10667390D01*
X11197571Y-10661359D01*
X11205239Y-10655963D01*
X11207115Y-10654642D01*
X11226771Y-10640808D01*
X11247523Y-10626204D01*
X11268390Y-10611521D01*
X11275695Y-10606382D01*
X11296365Y-10591839D01*
X11317271Y-10577128D01*
X11337432Y-10562939D01*
X11344275Y-10558122D01*
X11351522Y-10553021D01*
X11359930Y-10547104D01*
X11368581Y-10541016D01*
X11376560Y-10535403D01*
X11378565Y-10533992D01*
X11400612Y-10518479D01*
X11420702Y-10504337D01*
X11438959Y-10491481D01*
X11448415Y-10484819D01*
X11455282Y-10479989D01*
X11462363Y-10475020D01*
X11469003Y-10470374D01*
X11474543Y-10466510D01*
X11476640Y-10465053D01*
X11481041Y-10461942D01*
X11484534Y-10459355D01*
X11486669Y-10457632D01*
X11487118Y-10457132D01*
X11486043Y-10456386D01*
X11483039Y-10454730D01*
X11478466Y-10452350D01*
X11472683Y-10449435D01*
X11466512Y-10446398D01*
X11462324Y-10444347D01*
X11456060Y-10441266D01*
X11447921Y-10437253D01*
X11438105Y-10432407D01*
X11426813Y-10426826D01*
X11414243Y-10420609D01*
X11400596Y-10413855D01*
X11386072Y-10406662D01*
X11370869Y-10399130D01*
X11355187Y-10391357D01*
X11339227Y-10383442D01*
X11338560Y-10383112D01*
X11322163Y-10374980D01*
X11305732Y-10366834D01*
X11289501Y-10358791D01*
X11273705Y-10350967D01*
X11258577Y-10343476D01*
X11244352Y-10336436D01*
X11231263Y-10329962D01*
X11219546Y-10324169D01*
X11209434Y-10319174D01*
X11201160Y-10315093D01*
X11195685Y-10312398D01*
X11188515Y-10308868D01*
X11179354Y-10304349D01*
X11168489Y-10298982D01*
X11156203Y-10292909D01*
X11142783Y-10286269D01*
X11128512Y-10279205D01*
X11113676Y-10271857D01*
X11098559Y-10264367D01*
X11083447Y-10256874D01*
X11073765Y-10252071D01*
X11058149Y-10244325D01*
X11041843Y-10236239D01*
X11025200Y-10227989D01*
X11008573Y-10219749D01*
X10992314Y-10211694D01*
X10976776Y-10203998D01*
X10962313Y-10196837D01*
X10949277Y-10190386D01*
X10938021Y-10184819D01*
X10934065Y-10182863D01*
X10922721Y-10177254D01*
X10909525Y-10170728D01*
X10894903Y-10163493D01*
X10879280Y-10155761D01*
X10863080Y-10147741D01*
X10846728Y-10139645D01*
X10830648Y-10131681D01*
X10815266Y-10124060D01*
X10807065Y-10119996D01*
X10791968Y-10112515D01*
X10775700Y-10104455D01*
X10758724Y-10096046D01*
X10741500Y-10087515D01*
X10724490Y-10079091D01*
X10708156Y-10071004D01*
X10692960Y-10063481D01*
X10679364Y-10056751D01*
X10673715Y-10053956D01*
X10660503Y-10047418D01*
X10645522Y-10040004D01*
X10629279Y-10031963D01*
X10612280Y-10023548D01*
X10595032Y-10015008D01*
X10578041Y-10006596D01*
X10561815Y-9998561D01*
X10546860Y-9991154D01*
X10545445Y-9990453D01*
X10535589Y-9985571D01*
X10526150Y-9980896D01*
X10516979Y-9976354D01*
X10507926Y-9971871D01*
X10498841Y-9967371D01*
X10489574Y-9962782D01*
X10479975Y-9958029D01*
X10469894Y-9953038D01*
X10459182Y-9947734D01*
X10447688Y-9942043D01*
X10435262Y-9935891D01*
X10421755Y-9929204D01*
X10407017Y-9921908D01*
X10390897Y-9913927D01*
X10373247Y-9905189D01*
X10353915Y-9895619D01*
X10332752Y-9885143D01*
X10309609Y-9873686D01*
X10285095Y-9861551D01*
X10255870Y-9847083D01*
X10228734Y-9833649D01*
X10203499Y-9821156D01*
X10179977Y-9809511D01*
X10157981Y-9798621D01*
X10137323Y-9788392D01*
X10117816Y-9778733D01*
X10099271Y-9769550D01*
X10081502Y-9760750D01*
X10064319Y-9752240D01*
X10047536Y-9743928D01*
X10030966Y-9735720D01*
X10023475Y-9732010D01*
X10008538Y-9724611D01*
X9992268Y-9716553D01*
X9975168Y-9708085D01*
X9957740Y-9699456D01*
X9940489Y-9690914D01*
X9923917Y-9682710D01*
X9908528Y-9675091D01*
X9894824Y-9668309D01*
X9892665Y-9667240D01*
X9879304Y-9660627D01*
X9864170Y-9653135D01*
X9847766Y-9645014D01*
X9830596Y-9636513D01*
X9813163Y-9627881D01*
X9795970Y-9619367D01*
X9779521Y-9611220D01*
X9764318Y-9603690D01*
X9761855Y-9602470D01*
X9746918Y-9595072D01*
X9730648Y-9587014D01*
X9713548Y-9578545D01*
X9696121Y-9569916D01*
X9678869Y-9561375D01*
X9662297Y-9553170D01*
X9646908Y-9545552D01*
X9633205Y-9538770D01*
X9631045Y-9537701D01*
X9617819Y-9531155D01*
X9602808Y-9523724D01*
X9586503Y-9515652D01*
X9569398Y-9507182D01*
X9551981Y-9498557D01*
X9534746Y-9490021D01*
X9518183Y-9481817D01*
X9502783Y-9474188D01*
X9498965Y-9472296D01*
X9484264Y-9465014D01*
X9468516Y-9457215D01*
X9452174Y-9449123D01*
X9435687Y-9440961D01*
X9419507Y-9432953D01*
X9404086Y-9425322D01*
X9389873Y-9418291D01*
X9377319Y-9412083D01*
X9373235Y-9410063D01*
X9362028Y-9404522D01*
X9348945Y-9398048D01*
X9334383Y-9390841D01*
X9318741Y-9383096D01*
X9302418Y-9375013D01*
X9285813Y-9366787D01*
X9269324Y-9358617D01*
X9253349Y-9350700D01*
X9239885Y-9344025D01*
X9224970Y-9336631D01*
X9209394Y-9328913D01*
X9193525Y-9321052D01*
X9177730Y-9313230D01*
X9162377Y-9305630D01*
X9147834Y-9298434D01*
X9134469Y-9291824D01*
X9122649Y-9285981D01*
X9112885Y-9281158D01*
X9103662Y-9276603D01*
X9092477Y-9271075D01*
X9079642Y-9264728D01*
X9065471Y-9257718D01*
X9050276Y-9250199D01*
X9034370Y-9242326D01*
X9018067Y-9234255D01*
X9001680Y-9226140D01*
X8985522Y-9218136D01*
X8973185Y-9212024D01*
X8956432Y-9203722D01*
X8938455Y-9194815D01*
X8919670Y-9185507D01*
X8900490Y-9176005D01*
X8881333Y-9166514D01*
X8862612Y-9157240D01*
X8844743Y-9148389D01*
X8828142Y-9140166D01*
X8813224Y-9132776D01*
X8807450Y-9129917D01*
X8792994Y-9122756D01*
X8777924Y-9115289D01*
X8762614Y-9107701D01*
X8747437Y-9100177D01*
X8732765Y-9092901D01*
X8718973Y-9086060D01*
X8706434Y-9079838D01*
X8695522Y-9074420D01*
X8688705Y-9071034D01*
X8644255Y-9048946D01*
X9012800Y-9048848D01*
X9049038Y-9048839D01*
X9082822Y-9048831D01*
X9114241Y-9048826D01*
X9143381Y-9048823D01*
X9170329Y-9048824D01*
D11*
X22436147Y-11122735D03*
X22436147Y-11039701D03*
X22436147Y-10956668D03*
X22436147Y-10008899D03*
X22436147Y-9925864D03*
X22436147Y-9842831D03*
X22436147Y-12207162D03*
X22436147Y-12351736D03*
X22436147Y-12279449D03*
X22436147Y-8621102D03*
X22436147Y-8765676D03*
X22436147Y-8693389D03*
D12*
X8643000Y-10169000D03*
X9083000Y-10169000D03*
D13*
X9511000Y-10390000D03*
X9871000Y-10390000D03*
D14*
X10538600Y-10642600D03*
X10238600Y-10642600D03*
D15*
X18159000Y-10210800D03*
X17909000Y-10210800D03*
D16*
X16408400Y-10160000D03*
X15951200Y-10160000D03*
X16179800Y-10160000D03*
D17*
X16179800Y-9499600D03*
D18*
X14020800Y-10114660D03*
X14070800Y-10244660D03*
X13970800Y-10244660D03*
D19*
X13800800Y-10175800D03*
D20*
X13823300Y-10245800D03*
X13778300Y-10245800D03*
D21*
X14365200Y-10226660D03*
X14235200Y-10226660D03*
X14300200Y-10016660D03*
D22*
X14725400Y-10221660D03*
X14535400Y-10221660D03*
X14630400Y-9991660D03*
D23*
X20727000Y-11009000D03*
X20257000Y-11009000D03*
D24*
X19942000Y-10809000D03*
X19582000Y-10809000D03*
D25*
X19174775Y-10617200D03*
X18894775Y-10617200D03*
D26*
X13598400Y-11264900D03*
X13598400Y-11391900D03*
X13598400Y-11518900D03*
X13598400Y-11645900D03*
X14138400Y-11645900D03*
X14138400Y-11518900D03*
X14138400Y-11391900D03*
X14138400Y-11264900D03*
D27*
X16129600Y-10679800D03*
X16049600Y-10679800D03*
X15969600Y-10679800D03*
X15889600Y-10679800D03*
X15809600Y-10679800D03*
X15729600Y-10679800D03*
X15649600Y-10679800D03*
X15569600Y-10679800D03*
D28*
X15429600Y-10819800D03*
X15429600Y-10899800D03*
X15429600Y-10979800D03*
X15429600Y-11059800D03*
X15429600Y-11139800D03*
X15429600Y-11219800D03*
X15429600Y-11299800D03*
X15429600Y-11379800D03*
D27*
X15569600Y-11519800D03*
X15649600Y-11519800D03*
X15729600Y-11519800D03*
X15809600Y-11519800D03*
X15889600Y-11519800D03*
X15969600Y-11519800D03*
X16049600Y-11519800D03*
X16129600Y-11519800D03*
D28*
X16269600Y-11379800D03*
X16269600Y-11299800D03*
X16269600Y-11219800D03*
X16269600Y-11139800D03*
X16269600Y-11059800D03*
X16269600Y-10979800D03*
X16269600Y-10899800D03*
X16269600Y-10819800D03*
D29*
X16741902Y-10972292D03*
X16821912Y-10972292D03*
X16581882Y-11532108D03*
X16661892Y-11452098D03*
X16661892Y-11532108D03*
X16661892Y-11612118D03*
X16741902Y-11612118D03*
X16741902Y-11532108D03*
X16581882Y-11612118D03*
X16581882Y-10892282D03*
X16661892Y-10892282D03*
X16741902Y-10892282D03*
X16821912Y-10892282D03*
X16821912Y-11532108D03*
X16901922Y-11532108D03*
X16979900Y-11531600D03*
X17221708Y-10972292D03*
X17141698Y-10972292D03*
X17061688Y-10972292D03*
X16981678Y-10972292D03*
X16581882Y-10972292D03*
X16581882Y-11452098D03*
X16661892Y-11372088D03*
X16821912Y-11612118D03*
X17061688Y-11612118D03*
X16981678Y-11612118D03*
X16901922Y-11612118D03*
X17221708Y-11532108D03*
X17301718Y-11532108D03*
X17221708Y-11372088D03*
X17221708Y-11292078D03*
X17221708Y-11212322D03*
X17221708Y-11132312D03*
X17221708Y-11052302D03*
X16661892Y-11052302D03*
X16581882Y-11052302D03*
X16581882Y-11132312D03*
X16581882Y-11212322D03*
X16661892Y-11212322D03*
X16661892Y-11132312D03*
X16901922Y-10972292D03*
X16661892Y-10972292D03*
X16581882Y-11372088D03*
X16661892Y-11292078D03*
X16581882Y-11292078D03*
X17061688Y-11532108D03*
X17141698Y-11532108D03*
X17141698Y-11612118D03*
X17221708Y-11612118D03*
X17301718Y-11612118D03*
X17221708Y-11452098D03*
X17301718Y-11452098D03*
X17301718Y-11372088D03*
X17301718Y-11292078D03*
X17301718Y-11212322D03*
X17301718Y-11132312D03*
X17301718Y-11052302D03*
X17301718Y-10972292D03*
X16901922Y-10892282D03*
X16981678Y-10892282D03*
X17061688Y-10892282D03*
X17141698Y-10892282D03*
X17221708Y-10892282D03*
X17301718Y-10892282D03*
D30*
X14853200Y-11435800D03*
X14853200Y-11525800D03*
X14763200Y-11435800D03*
X14763200Y-11525800D03*
D31*
X14883200Y-11333300D03*
X14833200Y-11333300D03*
X14783200Y-11333300D03*
X14733200Y-11333300D03*
D32*
X14660700Y-11405800D03*
X14660700Y-11455800D03*
X14660700Y-11505800D03*
X14660700Y-11555800D03*
D31*
X14733200Y-11628300D03*
X14783200Y-11628300D03*
X14833200Y-11628300D03*
X14883200Y-11628300D03*
D32*
X14955700Y-11555800D03*
X14955700Y-11505800D03*
X14955700Y-11455800D03*
X14955700Y-11405800D03*
D33*
X7810500Y-11277600D03*
X7175500Y-11277600D03*
D34*
X8710700Y-11226800D03*
X8205700Y-11226800D03*
D35*
X9385000Y-11175000D03*
X9080000Y-11175000D03*
D36*
X9999500Y-11108000D03*
X9724500Y-11108000D03*
D37*
X13587476Y-10570464D03*
X13587476Y-10635488D03*
X13587476Y-10700512D03*
X13587476Y-10765536D03*
X14047724Y-10765536D03*
X14047724Y-10700512D03*
X14047724Y-10635488D03*
X14047724Y-10570464D03*
D38*
X14616000Y-10573000D03*
X14616000Y-10668000D03*
X14616000Y-10763000D03*
X14848000Y-10763000D03*
X14848000Y-10668000D03*
X14848000Y-10573000D03*
D39*
X7518200Y-9982200D03*
X8128200Y-9982200D03*
D40*
X11392800Y-10868200D03*
X11392800Y-10933200D03*
X11392800Y-10998200D03*
X11392800Y-11063200D03*
X11822800Y-11063200D03*
X11822800Y-10998200D03*
X11822800Y-10933200D03*
X11822800Y-10868200D03*
D41*
X21148000Y-11252000D03*
X21708000Y-11252000D03*
D42*
X18398300Y-10414000D03*
X18533300Y-10414000D03*
D43*
X11983000Y-10068000D03*
X11983000Y-10033000D03*
X11983000Y-9998000D03*
X11893000Y-9998000D03*
X11893000Y-10033000D03*
X11893000Y-10068000D03*
D44*
X13114800Y-10054800D03*
X13114800Y-9989800D03*
X13114800Y-9923800D03*
X13114800Y-9858800D03*
X12894800Y-9858800D03*
X12894800Y-9923800D03*
X12894800Y-9989800D03*
X12894800Y-10054800D03*
D45*
X13352000Y-9956800D03*
X13352000Y-9861800D03*
X13352000Y-10051800D03*
X13572000Y-10051800D03*
X13572000Y-9956800D03*
X13572000Y-9861800D03*
D46*
X18161000Y-11675110D03*
X18161000Y-11610340D03*
X18161000Y-11545570D03*
X18161000Y-11480800D03*
X18161000Y-11414760D03*
X18161000Y-11349990D03*
X18161000Y-11285220D03*
X17602200Y-11285220D03*
X17602200Y-11349990D03*
X17602200Y-11414760D03*
X17602200Y-11480800D03*
X17602200Y-11544300D03*
X17602200Y-11610340D03*
X17602200Y-11673840D03*
D47*
X12115800Y-10756900D03*
X12115800Y-10883900D03*
X12115800Y-11010900D03*
X12115800Y-11137900D03*
X12115800Y-11264900D03*
X12115800Y-11391900D03*
X12115800Y-11518900D03*
X12115800Y-11645900D03*
X13131800Y-11645900D03*
X13131800Y-11518900D03*
X13131800Y-11391900D03*
X13131800Y-11264900D03*
X13131800Y-11137900D03*
X13131800Y-11010900D03*
X13131800Y-10883900D03*
X13131800Y-10756900D03*
D48*
X15106400Y-10199660D03*
X14916400Y-10199660D03*
X15011400Y-9979660D03*
D49*
X12327800Y-10061350D03*
X12327800Y-9953850D03*
D50*
X12150300Y-10007600D03*
X12335300Y-10007600D03*
D49*
X12157800Y-9953850D03*
X12157800Y-10061350D03*
D51*
X12536900Y-9882200D03*
X12536900Y-9932200D03*
X12536900Y-10032200D03*
X12536900Y-10082200D03*
X12659900Y-10082200D03*
X12659900Y-10032200D03*
D52*
X12598400Y-9982200D03*
D51*
X12659900Y-9932200D03*
X12659900Y-9882200D03*
D53*
X15468600Y-9779960D03*
D54*
G36*
X15528963Y-9717460D02*
X15617198Y-9842460D01*
X15320002Y-9842460D01*
X15408237Y-9717460D01*
X15528963Y-9717460D01*
X15528963Y-9717460D01*
G37*
D15*
X15618600Y-10194660D03*
D55*
X15468600Y-10180010D03*
D15*
X15318600Y-10194660D03*
D56*
X15468600Y-9913310D03*
D57*
X15468600Y-10054280D03*
D54*
G36*
X15418187Y-10124280D02*
X15320187Y-9984280D01*
X15617013Y-9984280D01*
X15519013Y-10124280D01*
X15418187Y-10124280D01*
X15418187Y-10124280D01*
G37*
D58*
X16781300Y-9284100D03*
D54*
G36*
X16756800Y-9296884D02*
X16756800Y-9222316D01*
X16843084Y-9308600D01*
X16768516Y-9308600D01*
X16756800Y-9296884D01*
X16756800Y-9296884D01*
G37*
D58*
X16781300Y-9207100D03*
D54*
G36*
X16768516Y-9182600D02*
X16843084Y-9182600D01*
X16756800Y-9268884D01*
X16756800Y-9194316D01*
X16768516Y-9182600D01*
X16768516Y-9182600D01*
G37*
D58*
X16848300Y-9207100D03*
D54*
G36*
X16872800Y-9194316D02*
X16872800Y-9268884D01*
X16786516Y-9182600D01*
X16861084Y-9182600D01*
X16872800Y-9194316D01*
X16872800Y-9194316D01*
G37*
D59*
X16773300Y-9279600D03*
X16773300Y-9211600D03*
X16856300Y-9211600D03*
D60*
X16853550Y-9282350D03*
D54*
G36*
X16868084Y-9308601D02*
X16786517Y-9308598D01*
X16879798Y-9215317D01*
X16879801Y-9296884D01*
X16868084Y-9308601D01*
X16868084Y-9308601D01*
G37*
D61*
X16847300Y-9299600D03*
X16782300Y-9299600D03*
X16782300Y-9191600D03*
X16847300Y-9191600D03*
D62*
X16814800Y-9245600D03*
D54*
G36*
X16814800Y-9279683D02*
X16780718Y-9245600D01*
X16814800Y-9211518D01*
X16848883Y-9245600D01*
X16814800Y-9279683D01*
X16814800Y-9279683D01*
G37*
D63*
X11430000Y-9455700D03*
D64*
X11370000Y-9185700D03*
D65*
X11239000Y-9757700D03*
D66*
X11430000Y-9430700D03*
D67*
X11430000Y-9210700D03*
D65*
X11366000Y-9757700D03*
X11621000Y-9757700D03*
X11494000Y-9757700D03*
D64*
X11490000Y-9185700D03*
X11242000Y-9185700D03*
X11618000Y-9185700D03*
D63*
X11430000Y-9540700D03*
X11430000Y-9370700D03*
X11315000Y-9370700D03*
X11315000Y-9540700D03*
X11315000Y-9455700D03*
X11545000Y-9370700D03*
X11545000Y-9540700D03*
X11545000Y-9455700D03*
D68*
X11211200Y-11510300D03*
X11211200Y-11575300D03*
X11211200Y-11640300D03*
X11211200Y-11705300D03*
X11801200Y-11705300D03*
X11801200Y-11640300D03*
X11801200Y-11575300D03*
X11801200Y-11510300D03*
D69*
X12964200Y-10401300D03*
X12964200Y-10274300D03*
X12334200Y-10274300D03*
X12334200Y-10401300D03*
D70*
X16659800Y-10539800D03*
X16659800Y-10489800D03*
X16659800Y-10439800D03*
X16659800Y-10389800D03*
X16969800Y-10389800D03*
X16969800Y-10439800D03*
X16969800Y-10489800D03*
X16969800Y-10539800D03*
M02*
