M48
;DRILL file {KiCad 5.0.0-fee4fd1~66~ubuntu16.04.1} date Thu Aug 16 14:42:20 2018
;FORMAT={-:-/ absolute / metric / decimal}
FMAT,2
METRIC,TZ
T1C0.500
%
G90
G05
M71
T1
X224.231Y-87.501
X224.231Y-88.224
X224.231Y-88.947
X224.231Y-99.718
X224.231Y-100.549
X224.231Y-101.379
X224.231Y-110.857
X224.231Y-111.687
X224.231Y-112.517
X224.231Y-123.362
X224.231Y-124.084
X224.231Y-124.807
X224.234Y-86.794
X224.247Y-86.058
X224.247Y-125.509
X224.231Y-126.951
X224.231Y-127.674
X224.231Y-128.397
X224.231Y-139.168
X224.231Y-139.999
X224.231Y-140.829
X224.231Y-150.307
X224.231Y-151.137
X224.231Y-151.967
X224.231Y-162.812
X224.231Y-163.534
X224.231Y-164.257
X224.234Y-126.244
X224.247Y-125.508
X224.247Y-164.959
T0
M30
