M48
;DRILL file {KiCad 5.0.0-fee4fd1~66~ubuntu16.04.1} date Mon Aug 20 11:41:06 2018
;FORMAT={-:-/ absolute / metric / decimal}
FMAT,2
METRIC,TZ
T1C0.500
%
G90
G05
M71
T1
X224.241Y-126.955
X224.241Y-127.678
X224.241Y-128.401
X224.241Y-139.172
X224.241Y-140.003
X224.241Y-140.833
X224.241Y-150.311
X224.241Y-151.141
X224.241Y-151.971
X224.241Y-162.816
X224.241Y-163.538
X224.241Y-164.261
X224.244Y-126.248
X224.257Y-125.512
X224.257Y-164.963
X224.231Y-87.501
X224.231Y-88.224
X224.231Y-88.947
X224.231Y-99.718
X224.231Y-100.549
X224.231Y-101.379
X224.231Y-110.857
X224.231Y-111.687
X224.231Y-112.517
X224.231Y-123.362
X224.231Y-124.084
X224.231Y-124.807
X224.234Y-86.794
X224.247Y-86.058
X224.247Y-125.509
T0
M30
