M48
; DRILL file {KiCad 8.0.2} date 2024-05-24T19:06:30+0100
; FORMAT={-:-/ absolute / inch / decimal}
; #@! TF.CreationDate,2024-05-24T19:06:30+01:00
; #@! TF.GenerationSoftware,Kicad,Pcbnew,8.0.2
; #@! TF.FileFunction,Plated,1,2,PTH
FMAT,2
INCH
; #@! TA.AperFunction,Plated,PTH,ViaDrill
T1C0.0157
; #@! TA.AperFunction,Plated,PTH,ComponentDrill
T2C0.0197
%
G90
G05
T1
X5.078Y-4.4145
X5.0784Y-5.9678
X5.4537Y-4.3711
X5.4541Y-5.9244
X5.8537Y-4.3841
X5.8541Y-5.9374
X5.983Y-3.9875
X5.9833Y-5.5408
T2
X8.828Y-3.4449
X8.828Y-3.4734
X8.828Y-3.5018
X8.828Y-3.9259
X8.828Y-3.9586
X8.828Y-3.9913
X8.828Y-4.3644
X8.828Y-4.3971
X8.828Y-4.4298
X8.828Y-4.8568
X8.828Y-4.8852
X8.828Y-4.9137
X8.8281Y-3.4171
X8.8284Y-4.9982
X8.8284Y-5.0267
X8.8284Y-5.0551
X8.8284Y-5.4792
X8.8284Y-5.5119
X8.8284Y-5.5446
X8.8284Y-5.9177
X8.8284Y-5.9504
X8.8284Y-5.9831
X8.8284Y-6.4101
X8.8284Y-6.4385
X8.8284Y-6.467
X8.8285Y-4.9704
X8.8286Y-3.3881
X8.8286Y-4.9413
X8.829Y-4.9414
X8.829Y-6.4946
M30
