M48
;DRILL file {KiCad 5.0.0-fee4fd1~66~ubuntu16.04.1} date Mon Aug 13 02:21:55 2018
;FORMAT={-:-/ absolute / metric / decimal}
FMAT,2
METRIC,TZ
T1C0.400
T2C0.500
%
G90
G05
M71
T1
X131.Y-112.33
X132.962Y-111.763
X138.35Y-112.384
X138.525Y-111.025
X147.325Y-109.5
X154.475Y-101.475
X170.57Y-110.9
X178.22Y-107.09
T2
X224.231Y-87.501
X224.231Y-88.224
X224.231Y-88.947
X224.231Y-99.718
X224.231Y-100.549
X224.231Y-101.379
X224.231Y-110.857
X224.231Y-111.687
X224.231Y-112.517
X224.231Y-123.362
X224.231Y-124.084
X224.231Y-124.807
T0
M30
