M48
;DRILL file {KiCad 5.0.0-rc2-dev-unknown-44bf92a~82~ubuntu16.04.1} date Mon May 21 14:53:55 2018
;FORMAT={-:-/ absolute / metric / decimal}
FMAT,2
METRIC,TZ
T1C0.500
%
G90
G05
M71
T1
X224.231Y-87.501
X224.231Y-88.224
X224.231Y-88.947
X224.231Y-99.718
X224.231Y-100.549
X224.231Y-101.379
X224.231Y-110.857
X224.231Y-111.687
X224.231Y-112.517
X224.231Y-123.362
X224.231Y-124.084
X224.24Y-124.96
X224.243Y-86.808
X224.25Y-86.07
X224.21Y-164.88
X224.23Y-125.79
X224.23Y-163.97
X224.231Y-126.578
X224.231Y-127.301
X224.231Y-138.072
X224.231Y-138.903
X224.231Y-139.733
X224.231Y-149.211
X224.231Y-150.041
X224.231Y-150.871
X224.231Y-161.716
X224.231Y-162.438
X224.231Y-163.161
T0
M30
